<?xml version="1.0" encoding="UTF-8"?>
<svg width="15px" height="15px" viewBox="0 0 15 15" version="1.1" xmlns="http://www.w3.org/2000/svg" xmlns:xlink="http://www.w3.org/1999/xlink">
    <path d="M11.5,15 L11.5,2 L3.5,2 L3.5,15 L1.5,15 L1.5,0 L13.5,0 L13.5,15 L11.5,15 Z M6,6 L6.24054423,5.71134692 C6.3917917,5.52984996 6.64943571,5.47898745 6.85830853,5.58939165 L9.4656549,6.96756045 C9.49345055,6.98225243 9.51979851,6.99953331 9.54434876,7.01917351 C9.75997973,7.19167829 9.79494042,7.50632448 9.62243565,7.72195544 L9,8.5 L10.5149287,8.87873219 C10.7828262,8.94570655 10.9457066,9.2171738 10.8787322,9.48507125 L10.1714986,12.3140057 C10.1538996,12.3844014 10.1174997,12.4486907 10.0661904,12.5 C9.90984122,12.6563492 9.65634916,12.6563492 9.5,12.5 C9.18980147,12.1898015 9.06510137,11.7395945 9.17149859,11.3140057 L9.5,10 L8.37197101,10 C8.45488476,10.2345922 8.5,10.4870381 8.5,10.7500175 C8.5,11.9926814 7.4927472,13 6.25010494,13 C5.00728778,13 4,11.9926814 4,10.7500175 C4,9.50742353 5.00732276,8.5 6.25010494,8.5 C6.3805138,8.5 6.50833021,8.51109517 6.63266206,8.53239294 L7.5,7.25 L6.86284085,6.93142043 L6.1147577,7.85522619 C5.89753016,8.12347985 5.50396989,8.1648447 5.23571623,7.94761717 C4.96719845,7.73017576 4.92515159,7.33650256 5.14168775,7.06725424 L6,6 L6,6 Z M9.50004664,6.5 C8.94768346,6.5 8.5,6.05230285 8.5,5.50000777 C8.5,4.94774379 8.947699,4.5 9.50004664,4.5 C10.0523321,4.5 10.5,4.94774379 10.5,5.50000777 C10.5,6.05230285 10.0523321,6.5 9.50004664,6.5 Z M6.25004664,11.75 C6.80233209,11.75 7.25,11.3023028 7.25,10.7500078 C7.25,10.1977438 6.80233209,9.75 6.25004664,9.75 C5.697699,9.75 5.25,10.1977438 5.25,10.7500078 C5.25,11.3023028 5.69768346,11.75 6.25004664,11.75 Z"></path>
</svg>
