<?xml version="1.0" encoding="UTF-8"?>
<svg width="15px" height="15px" viewBox="0 0 15 15" version="1.1" xmlns="http://www.w3.org/2000/svg" xmlns:xlink="http://www.w3.org/1999/xlink">
    <path d="M2,1 L13,1 C13.5522847,1 14,1.44771525 14,2 L14,13 C14,13.5522847 13.5522847,14 13,14 L2,14 C1.44771525,14 1,13.5522847 1,13 L1,9.5 L9.62370896,9.98645776 C9.77543936,9.99501678 9.92282682,9.93410388 10.024244,9.82092296 L12.3293123,7.24848279 C12.513594,7.04282566 12.4962659,6.72671776 12.2906087,6.54243603 C12.209529,6.46978351 12.1069521,6.42557934 11.9984599,6.41653832 L1,5.5 L1,2 C1,1.44771525 1.44771525,1 2,1 Z M7,9 L7,7.94873416 C7,7.74139861 7.12796101,7.55557386 7.32165929,7.48162112 L8.52191897,7.0233698 C8.70762097,6.95246999 8.91768369,6.99830521 9.05697243,7.1401173 L9.82699591,7.92409048 C10.0204975,8.12109749 10.0176557,8.43766723 9.82064871,8.63116878 C9.81372112,8.6379731 9.80659678,8.64457417 9.79928476,8.6509636 L8.96897634,9.37650757 C8.87786384,9.45612392 8.76097164,9.5 8.63997474,9.5 L7.5,9.5 C7.22385763,9.5 7,9.27614237 7,9 L7,9 Z M4,9 L4,8.5 C4,8.22385763 4.22385763,8 4.5,8 L5.75,8 C5.88807119,8 6,8.11192881 6,8.25 L6,9 L5.21843486,9.25 L4,9 Z"></path>
</svg>
