<?xml version="1.0" encoding="UTF-8"?>
<svg width="15px" height="15px" viewBox="0 0 15 15" version="1.1" xmlns="http://www.w3.org/2000/svg" xmlns:xlink="http://www.w3.org/1999/xlink">
    <path d="M8.5,4.36527223 L6.5,4.61527223 L6.5,2 C6.5,1.44771525 6.94771525,1 7.5,1 C8.05228475,1 8.5,1.44771525 8.5,2 L8.5,4.36527223 L8.5,4.36527223 Z M8.5,6.88472777 L8.5,14 L6.5,14 L6.5,7.13472777 L8.5,6.88472777 Z M4.5,4.85 C3.94771525,4.85 3.5,4.40228475 3.5,3.85 C3.5,3.29771525 3.94771525,2.85 4.5,2.85 C5.05228475,2.85 5.5,3.29771525 5.5,3.85 C5.5,4.40228475 5.05228475,4.85 4.5,4.85 Z M10.5,4.05 C9.94771525,4.05 9.5,3.60228475 9.5,3.05 C9.5,2.49771525 9.94771525,2.05 10.5,2.05 C11.0522847,2.05 11.5,2.49771525 11.5,3.05 C11.5,3.60228475 11.0522847,4.05 10.5,4.05 Z M4.5,9.45 C3.94771525,9.45 3.5,9.00228475 3.5,8.45 C3.5,7.89771525 3.94771525,7.45 4.5,7.45 C5.05228475,7.45 5.5,7.89771525 5.5,8.45 C5.5,9.00228475 5.05228475,9.45 4.5,9.45 Z M10.5,8.65 C9.94771525,8.65 9.5,8.20228475 9.5,7.65 C9.5,7.09771525 9.94771525,6.65 10.5,6.65 C11.0522847,6.65 11.5,7.09771525 11.5,7.65 C11.5,8.20228475 11.0522847,8.65 10.5,8.65 Z M1.56201737,6.99613894 C1.2880074,7.03039018 1.03811231,6.83602734 1.00386106,6.56201737 C0.969609815,6.2880074 1.16397266,6.03811231 1.43798263,6.00386106 L13.4379826,4.50386106 C13.7119926,4.46960982 13.9618877,4.66397266 13.9961389,4.93798263 C14.0303902,5.2119926 13.8360273,5.46188769 13.5620174,5.49613894 L1.56201737,6.99613894 Z"></path>
</svg>
