<?xml version="1.0" encoding="UTF-8"?>
<svg width="15px" height="15px" viewBox="0 0 15 15" version="1.1" xmlns="http://www.w3.org/2000/svg" xmlns:xlink="http://www.w3.org/1999/xlink">
    <path d="M5,5 L5,9 L12.5,9 C12.7761424,9 13,9.22385763 13,9.5 L13,14 L0,14 L0,9.5 C-3.38176876e-17,9.22385763 0.223857625,9 0.5,9 L2,9 L2,5 L1.3903882,5 C1.16095438,5 0.960962828,4.84385131 0.905316953,4.62126781 L0.155316953,1.62126781 C0.0883425896,1.35337036 0.251222937,1.08190311 0.519120391,1.01492875 C0.558780693,1.00501367 0.5995073,1 0.640388203,1 L2.5,1 L2.1809017,0.361803399 C2.11915439,0.238308775 2.16921047,0.0881405144 2.2927051,0.0263932023 C2.32741896,0.00903627294 2.36569722,5.62241028e-16 2.4045085,5.55111512e-16 L4.5954915,7.21644966e-16 C4.73356269,6.962817e-16 4.8454915,0.111928813 4.8454915,0.25 C4.8454915,0.288811274 4.83645523,0.32708954 4.8190983,0.361803399 L4.5,1 L6.3596118,1 C6.63575417,1 6.8596118,1.22385763 6.8596118,1.5 C6.8596118,1.5408809 6.85459812,1.58160751 6.84468305,1.62126781 L6.09468305,4.62126781 C6.03903717,4.84385131 5.83904562,5 5.6096118,5 L5,5 Z M4,10 L1,10 L1,11 L4,11 L4,10 Z M8,10 L5,10 L5,11 L8,11 L8,10 Z M12,10 L9,10 L9,11 L12,11 L12,10 Z M4,12 L1,12 L1,13 L4,13 L4,12 Z M8,12 L5,12 L5,13 L8,13 L8,12 Z M12,12 L9,12 L9,13 L12,13 L12,12 Z M1.28077641,2 L1.78077641,4 L5.21922359,4 L5.71922359,2 L1.28077641,2 Z M5.67124084,6.27683576 L6.01432676,6.05403316 C6.1255414,5.98180953 6.26089169,5.95672384 6.39060213,5.98429464 L7.57133073,6.23526626 L9.05378186,5.27255123 L7.47460241,4.34475687 C7.35555677,4.27481556 7.31574984,4.12161136 7.38569115,4.00256571 C7.40535138,3.96910244 7.43253272,3.94067615 7.4650826,3.91953801 L8.07254661,3.52504627 C8.12815393,3.48893445 8.19582908,3.47639161 8.2606843,3.49017701 L10.926013,4.05671011 L12.0332143,3.33768515 C12.7314932,2.88421758 13.5936746,2.76024769 14.3914286,2.99860623 L14.6129712,3.0648003 C14.8775558,3.14385474 15.0279577,3.42242922 14.9489033,3.68701381 C14.9149374,3.80069299 14.8416541,3.89858967 14.74215,3.96320836 L8.4657188,8.03917044 L5.72035563,6.85626603 C5.55309186,6.78419649 5.47592168,6.59017851 5.54799122,6.42291474 C5.57375388,6.36312303 5.61663854,6.31229491 5.67124084,6.27683576 Z"></path>
</svg>
