<?xml version="1.0" encoding="UTF-8"?>
<svg width="15px" height="15px" viewBox="0 0 15 15" version="1.1" xmlns="http://www.w3.org/2000/svg" xmlns:xlink="http://www.w3.org/1999/xlink">
    <path d="M6.75,13.4459796 L6.75,11.3855494 C5.73572326,11.0669835 5,10.1194104 5,9 C5,7.83688089 5.79429927,6.8592803 6.87005764,6.58003843 C5.631803,5.75453533 3,4 3,4 L3,0 C3,0 12,0 12,0 C12,0 12,4 12,4 C12,4 9.368197,5.75453533 8.12994246,6.58003836 C9.20570073,6.8592803 10,7.83688089 10,9 C10,10.1194104 9.26427674,11.0669835 8.25,11.3855494 L8.25,13.4459796 C9.50558628,13.2525905 10.3250111,12.5365882 10.7951549,11.2436927 C10.9367095,10.8544175 11.3670321,10.6536003 11.7563073,10.7951549 C12.1455825,10.9367095 12.3463997,11.3670321 12.2048451,11.7563073 C11.4294944,13.8885217 9.81279871,15 7.5,15 C5.18720129,15 3.57050564,13.8885217 2.79515493,11.7563073 C2.65360032,11.3670321 2.85441752,10.9367095 3.2436927,10.7951549 C3.63296788,10.6536003 4.06329046,10.8544175 4.20484507,11.2436927 C4.67498889,12.5365882 5.49441372,13.2525905 6.75,13.4459796 Z M7.5,10 C8.05228475,10 8.5,9.55228475 8.5,9 C8.5,8.44771525 8.05228475,8 7.5,8 C6.94771525,8 6.5,8.44771525 6.5,9 C6.5,9.55228475 6.94771525,10 7.5,10 Z"></path>
</svg>
