<?xml version="1.0" encoding="UTF-8"?>
<svg viewBox="0 0 15 15" version="1.1" xmlns="http://www.w3.org/2000/svg" xmlns:xlink="http://www.w3.org/1999/xlink">
  <path d="M11,9.5 L13,11 L13,12 L11,12 C10.3333333,11.3333333 9.5,11 8.5,11 C7.5,11 6.66666667,11.3333333 6,12 L4,12 L4,11 L6,9.5 L11,9.5 Z M15,4 L15,5 C12.8578046,5 11.1089211,6.68396847 11.0048953,8.80035966 L11,9 L6,9 C6,8.35971075 5.74564609,7.74564609 5.29289322,7.29289322 L5,7 L5,4 L15,4 Z M0,4.5 L4.5,4.5 L4.5,7 C2.83333333,7 1.33333333,6.16666667 0,4.5 Z"/>
</svg>