<?xml version="1.0" encoding="UTF-8"?>
<svg viewBox="0 0 15 15" version="1.1" xmlns="http://www.w3.org/2000/svg" xmlns:xlink="http://www.w3.org/1999/xlink">
  <path d="M11,12.5 L13,14 L13,15 L11,15 C10.3333333,14.3333333 9.5,14 8.5,14 C7.5,14 6.66666667,14.3333333 6,15 L4,15 L4,14 L6,12.5 L11,12.5 Z M15,7 L15,8 C12.8578046,8 11.1089211,9.68396847 11.0048953,11.8003597 L11,12 L6,12 C6,11.3597108 5.74564609,10.7456461 5.29289322,10.2928932 L5,10 L5,7 L15,7 Z M4.5,7.5 L4.5,10 C2.83333333,10 1.33333333,9.16666667 0,7.5 L4.5,7.5 Z M11.5,1 C11.7454599,1 11.9496084,1.17687516 11.9919443,1.41012437 L12,1.5 L12,5.5 C12,5.74545989 11.8231248,5.94960837 11.5898756,5.99194433 L11.5,6 L9.5,6 C9.25454011,6 9.05039163,5.82312484 9.00805567,5.58987563 L9,5.5 L9,1.5 C9,1.25454011 9.17687516,1.05039163 9.41012437,1.00805567 L9.5,1 L11.5,1 Z M8.5,3 L8.5,4 L2.5,4 C2.22385763,4 2,3.77614237 2,3.5 C2,3.25454011 2.17687516,3.05039163 2.41012437,3.00805567 L2.5,3 L8.5,3 Z"/>
</svg>