<?xml version="1.0" encoding="UTF-8"?>
<svg width="15px" height="15px" viewBox="0 0 15 15" version="1.1" xmlns="http://www.w3.org/2000/svg" xmlns:xlink="http://www.w3.org/1999/xlink">
    <path d="M5,7 L14,7 L14,8 C12.6666667,8 11.6666667,8.33333333 11,9 C10.3333333,9.66666667 10,10.3333333 10,11 L6,11 C6,10.3597108 5.74564609,9.74564609 5.29289322,9.29289322 L5,9 L5,7 Z M1,7 L4.5,7 L4.5,9 C3.16666667,9 2,8.33333333 1,7 Z M6,11.5 L10,11.5 L12,13 L12,14 L10,14 C9.33333333,13.3333333 8.66666667,13 8,13 C7.33333333,13 6.66666667,13.3333333 6,14 L4,14 L4,13 L6,11.5 Z M9,3 L9,1.5 C9,1.22385763 9.22385763,1 9.5,1 L11.5,1 C11.7761424,1 12,1.22385763 12,1.5 L12,5.5 C12,5.77614237 11.7761424,6 11.5,6 L9.5,6 C9.22385763,6 9,5.77614237 9,5.5 L9,4 L3.5,4 C3.22385763,4 3,3.77614237 3,3.5 C3,3.22385763 3.22385763,3 3.5,3 L9,3 Z"></path>
</svg>
