<?xml version="1.0" encoding="UTF-8"?>
<svg width="15px" height="15px" viewBox="0 0 15 15" version="1.1" xmlns="http://www.w3.org/2000/svg" xmlns:xlink="http://www.w3.org/1999/xlink">
    <path d="M5,5 L14,5 L14,6 C12.6666667,6 11.6666667,6.33333333 11,7 C10.3333333,7.66666667 10,8.33333333 10,9 L6,9 C6,8.35971075 5.74564609,7.74564609 5.29289322,7.29289322 L5,7 L5,5 Z M1,5 L4.5,5 L4.5,7 C3.16666667,7 2,6.33333333 1,5 Z M6,9.5 L10,9.5 L12,11 L12,12 L10,12 C9.33333333,11.3333333 8.66666667,11 8,11 C7.33333333,11 6.66666667,11.3333333 6,12 L4,12 L4,11 L6,9.5 Z"></path>
</svg>
