<?xml version="1.0" encoding="UTF-8"?>
<svg width="15px" height="15px" viewBox="0 0 15 15" version="1.1" xmlns="http://www.w3.org/2000/svg" xmlns:xlink="http://www.w3.org/1999/xlink">
    <path d="M4,2.66453526e-15 L11,2.66453526e-15 C11.5522847,2.5630822e-15 12,0.44771525 12,1 L12,15 L3,15 L3,1 C3,0.44771525 3.44771525,2.76598832e-15 4,2.66453526e-15 Z M4,2 L4,10 C4.66666667,10.6666667 5.83333333,11 7.5,11 C9.16666667,11 10.3333333,10.6666667 11,10 L11,2 C10.3333333,1.33333333 9.16666667,1 7.5,1 C5.83333333,1 4.66666667,1.33333333 4,2 Z M5.5,2 L6.5,2 C6.77614237,2 7,2.22385763 7,2.5 L7,3.5 C7,3.77614237 6.77614237,4 6.5,4 L5.5,4 C5.22385763,4 5,3.77614237 5,3.5 L5,2.5 C5,2.22385763 5.22385763,2 5.5,2 Z M8.5,2 L9.5,2 C9.77614237,2 10,2.22385763 10,2.5 L10,3.5 C10,3.77614237 9.77614237,4 9.5,4 L8.5,4 C8.22385763,4 8,3.77614237 8,3.5 L8,2.5 C8,2.22385763 8.22385763,2 8.5,2 Z M8.5,5 L9.5,5 C9.77614237,5 10,5.22385763 10,5.5 L10,6.5 C10,6.77614237 9.77614237,7 9.5,7 L8.5,7 C8.22385763,7 8,6.77614237 8,6.5 L8,5.5 C8,5.22385763 8.22385763,5 8.5,5 Z M5.5,5 L6.5,5 C6.77614237,5 7,5.22385763 7,5.5 L7,6.5 C7,6.77614237 6.77614237,7 6.5,7 L5.5,7 C5.22385763,7 5,6.77614237 5,6.5 L5,5.5 C5,5.22385763 5.22385763,5 5.5,5 Z M5.5,8 L6.5,8 C6.77614237,8 7,8.22385763 7,8.5 L7,9.5 C7,9.77614237 6.77614237,10 6.5,10 L5.5,10 C5.22385763,10 5,9.77614237 5,9.5 L5,8.5 C5,8.22385763 5.22385763,8 5.5,8 Z M8.5,8 L9.5,8 C9.77614237,8 10,8.22385763 10,8.5 L10,9.5 C10,9.77614237 9.77614237,10 9.5,10 L8.5,10 C8.22385763,10 8,9.77614237 8,9.5 L8,8.5 C8,8.22385763 8.22385763,8 8.5,8 Z"></path>
</svg>
