<?xml version="1.0" encoding="UTF-8"?>
<svg width="15px" height="15px" viewBox="0 0 15 15" version="1.1" xmlns="http://www.w3.org/2000/svg" xmlns:xlink="http://www.w3.org/1999/xlink">
    <path d="M9.5,15 L7.5,9 L5.5,15 L1,15 L1.41165159,12.941742 C1.8029271,10.9853645 2,8.99512146 2,7 L2.74604313,6.81348922 C4.81135921,6.2971602 6.54793633,4.90412734 7.5,3 C8.45206367,4.90412734 10.1886408,6.2971602 12.2539569,6.81348922 L13,7 C13,8.99512146 13.1970729,10.9853645 13.5883484,12.941742 L14,15 L9.5,15 Z M3,9 L3,11 L4.5,11 L5,9 L3,9 Z M10,9 L10.5,11 L12,11 L12,9 L10,9 Z M7.5,-7.1942452e-14 L12,-7.1942452e-14 L10.5,1.5 L12,3 L7.5,3 L7.5,-7.1942452e-14 Z"></path>
</svg>
