<?xml version="1.0" encoding="UTF-8"?>
<svg version="1.2" baseProfile="tiny" xmlns="http://www.w3.org/2000/svg" viewBox="0 0 50 50" overflow="inherit">
  <path d="M41.41 21.89l-2.46 -10.27c-0.43 -1.79 -2.25 -2.92 -4.05 -2.47c-1.58 0.39 -2.35 1.48 -2.67 2.26c-0.37 0.91 -2.02 5.04 -2.4 5.89c-0.13 0.3 -0.42 0.45 -0.48 0.48c-0.33 0.14 -3.6 1.53 -3.6 1.53v0.01c-0.65 0.3 -1.09 0.95 -1.09 1.7c0 1.04 0.85 1.89 1.91 1.89c0.23 0 0.44 -0.05 0.65 -0.12v0.01l4.35 -1.81c0.6 -0.28 0.89 -0.63 1.18 -1.14c0.12 -0.22 0.5 -1.12 0.81 -1.86l2.62 10.97l0 16.99c0 1.69 1.16 3.06 2.87 3.07c1.71 0.01 2.94 -1.36 2.95 -3.05c0 0 0.02 -19.11 0.02 -20.05c0 -0.94 -0.38 -3.18 -0.59 -4.01z"/>
  <path d="M17.13 37.1v4.28c0.56 -0.1 1 -0.36 1.35 -0.76c0.35 -0.41 0.52 -0.88 0.52 -1.43c0 -0.49 -0.14 -0.91 -0.43 -1.27c-0.29 -0.35 -0.77 -0.62 -1.44 -0.82zm-2.64 -6.65c-0.26 0.35 -0.39 0.74 -0.39 1.16c0 0.39 0.12 0.75 0.35 1.08c0.24 0.33 0.6 0.6 1.07 0.81v-3.8c-0.43 0.15 -0.78 0.4 -1.04 0.75zm10.17 -5.08h0l-5.97 -11.99l0 0.01c-0.44 -0.91 -1.37 -1.53 -2.45 -1.53h-5.51c-1.5 0 -2.72 1.21 -2.72 2.7v34.44h16.97v-22.28c0 -0.48 -0.11 -0.94 -0.31 -1.35zm-4.15 16.77c-0.81 0.91 -1.93 1.46 -3.37 1.67v2.05h-1.61v-2c-1.28 -0.15 -2.31 -0.63 -3.11 -1.41c-0.8 -0.79 -1.3 -1.91 -1.53 -3.35l2.89 -0.31c0.12 0.59 0.34 1.09 0.67 1.52c0.32 0.42 0.69 0.73 1.08 0.92v-4.6c-1.45 -0.41 -2.51 -1.03 -3.18 -1.86c-0.68 -0.83 -1.01 -1.84 -1.01 -3.02c0 -1.2 0.38 -2.21 1.15 -3.02c0.76 -0.81 1.78 -1.29 3.05 -1.41v-1.09h1.61v1.09c1.17 0.14 2.11 0.54 2.8 1.19c0.69 0.65 1.14 1.53 1.33 2.63l-2.8 0.36c-0.17 -0.86 -0.61 -1.45 -1.33 -1.76v4.29c1.77 0.48 2.98 1.09 3.62 1.85c0.64 0.76 0.96 1.73 0.96 2.91c0 1.32 -0.4 2.44 -1.21 3.35z"/>
  <path d="M28.04 4.82a3.86 3.82 0 1 0 7.71 0a3.86 3.82 0 1 0 -7.71 0z"/>
</svg>