<?xml version="1.0" encoding="UTF-8"?>
<svg viewBox="0 0 15 15" version="1.1" xmlns="http://www.w3.org/2000/svg" xmlns:xlink="http://www.w3.org/1999/xlink">
  <path d="M14.5,11 C14.7761424,11 15,11.2238576 15,11.5 L15,12.5 C15,12.7761424 14.7761424,13 14.5,13 L14,13 L14,15 L13,15 L13,13 L2,13 L2,15 L1,15 L1,13 L0.5,13 C0.223857625,13 0,12.7761424 0,12.5 L0,11.5 C0,11.2238576 0.223857625,11 0.5,11 L14.5,11 Z M12.25,3.5 C12.6642136,3.5 13,3.83578644 13,4.25 C13,4.66421356 12.6642136,5 12.25,5 L9,5 L9,6.629 L9.593,8.407 L10.7371708,8.78848753 C11.0973819,8.90855787 11.3058492,9.2754633 11.2371999,9.63845771 L11.2115125,9.73717082 C11.0914421,10.0973819 10.7245367,10.3058492 10.3615423,10.2371999 L10.2628292,10.2115125 L8.76282918,9.71151247 C8.57086882,9.64752569 8.41433327,9.50927208 8.32651569,9.3300448 L8.28848753,9.23717082 L7.847,7.914 L6.75,8.463 L6.75,10 C6.75,10.3796958 6.46784612,10.693491 6.10177056,10.7431534 L6,10.75 C5.62030423,10.75 5.30650904,10.4678461 5.25684662,10.1017706 L5.25,10 L5.25,8 C5.25,7.75143084 5.37288418,7.52152892 5.57382434,7.38282777 L5.6645898,7.32917961 L7,6.661 L7,5 L3.75,5 C3.33578644,5 3,4.66421356 3,4.25 C3,3.83578644 3.33578644,3.5 3.75,3.5 L12.25,3.5 Z M8,0 C8.82842712,0 9.5,0.671572875 9.5,1.5 C9.5,2.32842712 8.82842712,3 8,3 C7.17157288,3 6.5,2.32842712 6.5,1.5 C6.5,0.671572875 7.17157288,0 8,0 Z"/>
</svg>