<?xml version="1.0" encoding="UTF-8"?>
<svg width="15px" height="15px" viewBox="0 0 15 15" version="1.1" xmlns="http://www.w3.org/2000/svg" xmlns:xlink="http://www.w3.org/1999/xlink">
    <path d="M6.86381615,12.2723677 C4.28793872,9.26806386 3,7.00244945 3,5.47552448 C3,3.00376056 5.01471863,1 7.5,1 C9.98528137,1 12,3.00376056 12,5.47552448 C12,7.00244945 10.7120613,9.26806386 8.13618385,12.2723677 L9,14 L6,14 L6.86381615,12.2723677 Z M7.20663513,2.26977744 C8.46425534,2.62621747 9.41637286,4.30574106 9.41637286,6.32384699 C9.41637286,7.37169211 8.98638499,8.79707644 8.12640925,10.6 C9.79894079,8.34025593 10.6352066,6.63994846 10.6352066,5.49907759 C10.6352066,3.67704735 9.36192887,2.2 7.79126126,2.2 C7.59086952,2.2 7.39531858,2.22404282 7.20663513,2.26977744 Z"></path>
</svg>
