<?xml version="1.0" encoding="UTF-8"?>
<!DOCTYPE svg PUBLIC "-//W3C//DTD SVG 1.1//EN" "http://www.w3.org/Graphics/SVG/1.1/DTD/svg11.dtd">
<svg version="1.1" xmlns="http://www.w3.org/2000/svg" xmlns:xlink="http://www.w3.org/1999/xlink" x="0" y="0" width="15" height="15" viewBox="0 0 15 15">
<path d="M7.5,0 C10.5,0 12.5,2.5 12.5,6 C12.5,10 8,13 8,13 C8,13 8.5,14 8.5,14.5 C8.5,15 6.5,15 6.5,14.5 C6.5,14 7,13 7,13 C7,13 2.5,10 2.5,6 C2.5,2.5 4.5,0 7.5,0 z M7.5,1 C4.5,1 3,4.5 3.5,6.5 C4,4.5 5.5,2 7.5,1 z"/>
</svg>
