<?xml version="1.0" encoding="UTF-8"?>
<!DOCTYPE svg PUBLIC "-//W3C//DTD SVG 1.1//EN" "http://www.w3.org/Graphics/SVG/1.1/DTD/svg11.dtd">
<svg version="1.1" xmlns="http://www.w3.org/2000/svg" xmlns:xlink="http://www.w3.org/1999/xlink" x="0" y="0" width="15" height="15" viewBox="0 0 15 15">
    <path d="M15,3 C15,3 15,13 15,13 L0.045,13 C2.195,12.952 4.838,10.924 4.838,10.924 C4.838,10.924 4.336,11.041 3.55,10.588 C3.4,10.458 3.26,10.318 3.11,10.198 C2.825,9.944 2.395,9.944 2.11,10.198 L1.64,10.608 C1.322,10.872 0.923,11.017 0.51,11.018 C0.234,11.024 0.006,10.804 0,10.528 C0,10.525 0,10.522 0,10.518 C0,10.242 0.224,10.018 0.5,10.018 C0.759,9.996 0.999,9.874 1.17,9.678 C1.441,9.389 1.788,9.182 2.17,9.078 C2.782,8.897 3.443,9.036 3.93,9.448 L4.32,9.798 C4.618,10.102 5.105,10.107 5.409,9.809 C5.413,9.806 5.416,9.802 5.42,9.798 C5.56,9.678 5.69,9.548 5.84,9.428 C6.556,9.042 6.85,9.12 6.85,9.12 L8.128,7.691 L7.94,7.578 C7.78,7.448 7.63,7.298 7.47,7.168 C7.185,6.914 6.755,6.914 6.47,7.168 C6.31,7.298 6.16,7.448 6,7.578 C5.292,8.175 4.258,8.175 3.55,7.578 C3.4,7.448 3.26,7.308 3.11,7.188 C2.825,6.934 2.395,6.934 2.11,7.188 L1.64,7.598 L1.112,7.907 L0.51,8.018 C0.51,8.018 0.02,8.036 0.01,7.518 C0,7 0.234,7.018 0.51,7.018 C0.769,6.996 1.009,6.874 1.18,6.678 C1.451,6.389 1.798,6.182 2.18,6.078 C2.792,5.897 3.453,6.036 3.94,6.448 L4.27,6.788 C4.568,7.092 5.055,7.097 5.359,6.799 C5.363,6.796 5.366,6.792 5.37,6.788 C5.51,6.668 5.64,6.538 5.79,6.418 C6.518,5.84 7.556,5.869 8.25,6.488 L8.64,6.828 L8.799,6.924 C10.426,4.835 12.351,3.275 15,3 z"/>
</svg>
