<?xml version="1.0" encoding="UTF-8"?>
<svg width="15px" height="15px" viewBox="0 0 15 15" version="1.1" xmlns="http://www.w3.org/2000/svg" xmlns:xlink="http://www.w3.org/1999/xlink">
    <path d="M7.5,15 C3.35786438,15 0,11.6421356 0,7.5 C0,3.35786438 3.35786438,0 7.5,0 C11.6421356,0 15,3.35786438 15,7.5 C15,11.6421356 11.6421356,15 7.5,15 Z M7.5,14 C11.0898509,14 14,11.0898509 14,7.5 C14,3.91014913 11.0898509,1 7.5,1 C3.91014913,1 1,3.91014913 1,7.5 C1,11.0898509 3.91014913,14 7.5,14 Z M7.5,13 C4.46243388,13 2,10.5375661 2,7.5 C2,4.46243388 4.46243388,2 7.5,2 C10.5375661,2 13,4.46243388 13,7.5 C13,10.5375661 10.5375661,13 7.5,13 Z M5.19382725,9 L7.5,4.8200619 L9.80617275,9 L5.19382725,9 Z M7.5,2.75 L3.5,10 L11.5,10 L7.5,2.75 Z M7.5,6.75 C7.08578644,6.75 6.75,7.08578644 6.75,7.5 C6.75,7.91421356 7.08578644,8.25 7.5,8.25 C7.91421356,8.25 8.25,7.91421356 8.25,7.5 C8.25,7.08578644 7.91421356,6.75 7.5,6.75 Z"></path>
</svg>
