<?xml version="1.0" encoding="UTF-8"?>
<!DOCTYPE svg PUBLIC "-//W3C//DTD SVG 1.1//EN" "http://www.w3.org/Graphics/SVG/1.1/DTD/svg11.dtd">
<svg version="1.1" xmlns="http://www.w3.org/2000/svg" xmlns:xlink="http://www.w3.org/1999/xlink" x="0" y="0" width="15" height="15" viewBox="0 0 15 15">
    <path d="M13.5,3 L13.5,6 L14.5,6 L14.5,8.75 L15,8.75 L15,10.25 L14.5,10.25 L14.5,13 L13.5,13 L13.5,10.25 L12.5,10.25 L12.5,11.5 L11.5,11.5 L11.5,10.25 L3.5,10.25 L3.5,11.5 L2.5,11.5 L2.5,10.25 L1.5,10.25 L1.5,13 L0.5,13 L0.5,10.25 L0,10.25 L0,8.75 L0.5,8.75 L0.5,6 L1.5,6 L1.5,3 L13.5,3 z M13.5,7 L13.5,7 L13.5,8 L12.5,8 L12.5,8.75 L13.5,8.75 L13.5,7 z M11.5,8 L3.5,8 L3.5,8.75 L11.5,8.75 L11.5,8 z M1.5,7 L1.5,7 L1.5,8.75 L2.5,8.75 L2.5,8 L1.5,8 L1.5,7 z"/>
</svg>
