<?xml version="1.0" encoding="UTF-8"?>
<svg width="15px" height="15px" viewBox="0 0 15 15" version="1.1" xmlns="http://www.w3.org/2000/svg" xmlns:xlink="http://www.w3.org/1999/xlink">
    <path d="M8.5,6.00007308 C7.8239,5.9900733 7.8239,7.00965124 8.5,7.00005145 L9,7.00005145 L9,7.71103606 L6.252,9.28130209 L5.7383,8.00002981 L6.4531,8.00002981 C7.1292,8.01002959 7.1292,6.99045165 6.4531,7.00005145 L4.4258,7.00005145 C3.7497,6.99005166 3.7497,8.0096296 4.4258,8.00002981 L4.6602,8.00002981 L5.0918,9.07810649 C4.9011,9.0311075 4.7047,9.00010817 4.5,9.00010817 C3.1252,9.00010817 2,10.1252838 2,11.5000541 C2,12.8748243 3.1252,14 4.5,14 C5.8748,14 7,12.8747243 7,11.5000541 C7,11.0287643 6.8601,10.5922737 6.6309,10.2148819 L9.1016,8.80281244 L9.5039,9.21100361 C8.6216,9.59809524 8,10.4791762 8,11.5000541 C8,12.8748243 9.1252,14 10.5,14 C11.8748,14 13,12.8748243 13,11.5000541 C13,10.2041821 11.9966,9.14260509 10.7305,9.02350767 L10,8.29302347 L10,6.50006226 C10,6.22396824 9.7761,6.00007308 9.5,6.00007308 L8.5,6.00007308 Z M4.5,9.99998654 C5.3344,9.99998654 6,10.6656721 6,11.4999541 C6,12.334236 5.3344,12.9999216 4.5,12.9999216 C3.6656,12.9999216 3,12.334336 3,11.4999541 C3,10.6655721 3.6656,9.99998654 4.5,9.99998654 Z M10.5,9.99998654 C11.3344,9.99998654 12,10.6656721 12,11.4999541 C12,12.334236 11.3344,12.9999216 10.5,12.9999216 C9.6656,12.9999216 9,12.334336 9,11.4999541 C9,10.6655721 9.6656,9.99998654 10.5,9.99998654 Z"></path>
    <path d="M12,2 L5.7889,2 C5.4029,1.1177 4.5247,0.5 3.5,0.5 C2.4753,0.5 1.5971,1.1177 1.2111,2 L3.5,2 L4,3 L3.5,4 L1.2111,4 C1.5972,4.8821 2.4754,5.5 3.5,5.5 C4.5246,5.5 5.4028,4.8821 5.7889,4 L12,4 C12.5527,4 13,3.5522 13,3 C13,2.4478 12.5527,2 12,2 Z"></path>
</svg>
