<?xml version="1.0" encoding="UTF-8"?>
<svg width="15px" height="15px" viewBox="0 0 15 15" version="1.1" xmlns="http://www.w3.org/2000/svg" xmlns:xlink="http://www.w3.org/1999/xlink">
    <path d="M1,2 L14,2 L14,13 L1,13 L1,2 Z M2,3 L2,12 L13,12 L13,3 L2,3 Z"></path>
    <path d="M8.40909091,3.75006644 C7.79445455,3.74097572 7.79445455,4.66786476 8.40909091,4.65913768 L8.86363636,4.65913768 L8.86363636,5.30548733 L6.36545455,6.7330019 L5.89845455,5.56820892 L6.54827273,5.56820892 C7.16290909,5.57729963 7.16290909,4.65041059 6.54827273,4.65913768 L4.70527273,4.65913768 C4.09063636,4.65004696 4.09063636,5.576936 4.70527273,5.56820892 L4.91836364,5.56820892 L5.31072727,6.54827862 C5.13736364,6.50555228 4.95881818,6.47737107 4.77272727,6.47737107 C3.52290909,6.47737107 2.5,7.50025803 2.5,8.75004917 C2.5,9.99984031 3.52290909,11.0227273 4.77272727,11.0227273 C6.02254545,11.0227273 7.04545455,9.99974941 7.04545455,8.75004917 C7.04545455,8.32160389 6.91827273,7.9247943 6.70990909,7.58171081 L8.956,6.29801131 L9.32172727,6.66909419 C8.51963636,7.02099567 7.95454545,7.82197834 7.95454545,8.75004917 C7.95454545,9.99984031 8.97745455,11.0227273 10.2272727,11.0227273 C11.4770909,11.0227273 12.5,9.99984031 12.5,8.75004917 C12.5,7.57198375 11.5878182,6.60691372 10.4368182,6.49864333 L9.77272727,5.83456679 L9.77272727,4.20460206 C9.77272727,3.95360749 9.56918182,3.75006644 9.31818182,3.75006644 L8.40909091,3.75006644 Z M4.77272727,7.3863514 C5.53127273,7.3863514 6.13636364,7.99152013 6.13636364,8.74995826 C6.13636364,9.5083964 5.53127273,10.1135651 4.77272727,10.1135651 C4.01418182,10.1135651 3.40909091,9.50848731 3.40909091,8.74995826 C3.40909091,7.99142922 4.01418182,7.3863514 4.77272727,7.3863514 Z M10.2272727,7.3863514 C10.9858182,7.3863514 11.5909091,7.99152013 11.5909091,8.74995826 C11.5909091,9.5083964 10.9858182,10.1135651 10.2272727,10.1135651 C9.46872727,10.1135651 8.86363636,9.50848731 8.86363636,8.74995826 C8.86363636,7.99142922 9.46872727,7.3863514 10.2272727,7.3863514 Z"></path>
</svg>
