<?xml version="1.0" encoding="utf-8"?>
<svg version="1.2" baseProfile="tiny" xmlns="http://www.w3.org/2000/svg" xmlns:xlink="http://www.w3.org/1999/xlink" viewBox="0 0 50 50" overflow="inherit">
<path d="M8.5,6c-0.68-0.01-0.68,1.01,0,1H9v0.71L6.25,9.28L5.74,8h0.71c0.68,0.01,0.68-1.01,0-1H4.43c-0.68-0.01-0.68,1.01,0,1h0.23
	l0.43,1.08C4.9,9.03,4.7,9,4.5,9C3.13,9,2,10.13,2,11.5S3.13,14,4.5,14S7,12.87,7,11.5c0-0.47-0.14-0.91-0.37-1.29L9.1,8.8l0.4,0.41
	C8.62,9.6,8,10.48,8,11.5c0,1.37,1.13,2.5,2.5,2.5s2.5-1.13,2.5-2.5c0-1.3-1-2.36-2.27-2.48L10,8.29V6.5C10,6.22,9.78,6,9.5,6H8.5z
	 M4.5,10C5.33,10,6,10.67,6,11.5S5.33,13,4.5,13S3,12.33,3,11.5S3.67,10,4.5,10z M10.5,10c0.83,0,1.5,0.67,1.5,1.5S11.33,13,10.5,13
	S9,12.33,9,11.5S9.67,10,10.5,10z"/>
<polygon class="st0" points="4.82,2.46 2.82,5.46 1.82,5.46 3.82,2.46 "/>
<polygon class="st0" points="8.82,2.46 10.82,5.46 11.82,5.46 9.82,2.46 "/>
<rect x="6.32" y="2.46" class="st0" width="1" height="3"/>
<polygon class="st0" points="5.82,0.46 3.82,1.46 9.82,1.46 7.82,0.46 "/>
</svg>
