<?xml version="1.0" encoding="UTF-8"?>
<svg viewBox="0 0 15 15" version="1.1" xmlns="http://www.w3.org/2000/svg" xmlns:xlink="http://www.w3.org/1999/xlink">
  <path d="M9.31818182,6.75 C9.54129293,6.75 9.72690909,6.91087505 9.76540267,7.12290657 L9.77272727,7.20460206 L9.77272727,8.83456679 L10.4368182,9.49864333 C11.5878182,9.60691372 12.5,10.5719837 12.5,11.7500492 C12.5,12.9998403 11.4770909,14.0227273 10.2272727,14.0227273 C8.97745455,14.0227273 7.95454545,12.9998403 7.95454545,11.7500492 C7.95454545,10.8799828 8.45120739,10.1216149 9.17419267,9.74025978 L9.32172727,9.66909419 L8.956,9.29801131 L6.70990909,10.5817108 C6.91827273,10.9247943 7.04545455,11.3216039 7.04545455,11.7500492 C7.04545455,12.9997494 6.02254545,14.0227273 4.77272727,14.0227273 C3.52290909,14.0227273 2.5,12.9998403 2.5,11.7500492 C2.5,10.500258 3.52290909,9.47737107 4.77272727,9.47737107 C4.89678788,9.47737107 5.01749495,9.48989605 5.13554882,9.51090569 L5.31072727,9.54827862 L4.91836364,8.56820892 L4.70527273,8.56820892 C4.12679144,8.57642264 4.09276313,7.75585531 4.60318779,7.66686854 L4.70527273,7.65913768 L6.54827273,7.65913768 C7.12675401,7.65092395 7.16078232,8.47149129 6.65035766,8.56047806 L6.54827273,8.56820892 L5.89845455,8.56820892 L6.36545455,9.7330019 L8.86363636,8.30548733 L8.86363636,7.65913768 L8.40909091,7.65913768 C7.83060963,7.6673514 7.79658131,6.84678407 8.30700598,6.75774191 L8.40909091,6.75 L9.31818182,6.75 Z M7.5,0 L15,4 L15,14 L13,14 L13,5 L2,5 L2,14 L1.42108547e-14,14 L1.42108547e-14,4 L7.5,0 Z M4.77272727,10.3863514 C4.01418182,10.3863514 3.40909091,10.9914292 3.40909091,11.7499583 C3.40909091,12.5084873 4.01418182,13.1135651 4.77272727,13.1135651 C5.53127273,13.1135651 6.13636364,12.5083964 6.13636364,11.7499583 C6.13636364,10.9915201 5.53127273,10.3863514 4.77272727,10.3863514 Z M10.2272727,10.3863514 C9.46872727,10.3863514 8.86363636,10.9914292 8.86363636,11.7499583 C8.86363636,12.5084873 9.46872727,13.1135651 10.2272727,13.1135651 C10.9858182,13.1135651 11.5909091,12.5083964 11.5909091,11.7499583 C11.5909091,10.9915201 10.9858182,10.3863514 10.2272727,10.3863514 Z"/>
</svg>