<?xml version="1.0" encoding="UTF-8"?>
<svg viewBox="0 0 15 15" version="1.1" xmlns="http://www.w3.org/2000/svg" xmlns:xlink="http://www.w3.org/1999/xlink">
  <path d="M1 2L14 2L14 13L1 13L1 2ZM2 3L2 12L13 12L13 3L2 3Z"/>
  <path d="M8.41 3.75C7.79 3.74 7.79 4.67 8.41 4.66L8.86 4.66L8.86 5.31L6.37 6.73L5.9 5.57L6.55 5.57C7.16 5.58 7.16 4.65 6.55 4.66L4.71 4.66C4.09 4.65 4.09 5.58 4.71 5.57L4.92 5.57L5.31 6.55C5.14 6.51 4.96 6.48 4.77 6.48C3.52 6.48 2.5 7.5 2.5 8.75C2.5 10 3.52 11.02 4.77 11.02C6.02 11.02 7.05 10 7.05 8.75C7.05 8.32 6.92 7.92 6.71 7.58L8.96 6.3L9.32 6.67C8.52 7.02 7.95 7.82 7.95 8.75C7.95 10 8.98 11.02 10.23 11.02C11.48 11.02 12.5 10 12.5 8.75C12.5 7.57 11.59 6.61 10.44 6.5L9.77 5.83L9.77 4.2C9.77 3.95 9.57 3.75 9.32 3.75L8.41 3.75ZM4.77 7.39C5.53 7.39 6.14 7.99 6.14 8.75C6.14 9.51 5.53 10.11 4.77 10.11C4.01 10.11 3.41 9.51 3.41 8.75C3.41 7.99 4.01 7.39 4.77 7.39ZM10.23 7.39C10.99 7.39 11.59 7.99 11.59 8.75C11.59 9.51 10.99 10.11 10.23 10.11C9.47 10.11 8.86 9.51 8.86 8.75C8.86 7.99 9.47 7.39 10.23 7.39Z"/>
</svg>