<?xml version="1.0" encoding="UTF-8"?>
<svg width="15px" height="15px" viewBox="0 0 15 15" version="1.1" xmlns="http://www.w3.org/2000/svg" xmlns:xlink="http://www.w3.org/1999/xlink">
    <path d="M0.5,2 L14.5,2 C14.7761424,2 15,2.22385763 15,2.5 L15,12.5 C15,12.7761424 14.7761424,13 14.5,13 L0.5,13 C0.223857625,13 3.38176876e-17,12.7761424 0,12.5 L0,2.5 C-3.38176876e-17,2.22385763 0.223857625,2 0.5,2 Z M1,3 L1,12 L12,12 L12,3 L1,3 Z M13.5,4 C13.2238576,4 13,4.22385763 13,4.5 L13,6.5 C13,6.77614237 13.2238576,7 13.5,7 C13.7761424,7 14,6.77614237 14,6.5 L14,4.5 C14,4.22385763 13.7761424,4 13.5,4 Z M7.40909091,3.75006644 L8.31818182,3.75006644 C8.56918182,3.75006644 8.77272727,3.95360749 8.77272727,4.20460206 L8.77272727,5.83456679 L9.43681818,6.49864333 C10.5878182,6.60691372 11.5,7.57198375 11.5,8.75004917 C11.5,9.99984031 10.4770909,11.0227273 9.22727273,11.0227273 C7.97745455,11.0227273 6.95454545,9.99984031 6.95454545,8.75004917 C6.95454545,7.82197834 7.51963636,7.02099567 8.32172727,6.66909419 L7.956,6.29801131 L5.70990909,7.58171081 C5.91827273,7.9247943 6.04545455,8.32160389 6.04545455,8.75004917 C6.04545455,9.99974941 5.02254545,11.0227273 3.77272727,11.0227273 C2.52290909,11.0227273 1.5,9.99984031 1.5,8.75004917 C1.5,7.50025803 2.52290909,6.47737107 3.77272727,6.47737107 C3.95881818,6.47737107 4.13736364,6.50555228 4.31072727,6.54827862 L3.91836364,5.56820892 L3.70527273,5.56820892 C3.09063636,5.576936 3.09063636,4.65004696 3.70527273,4.65913768 L5.54827273,4.65913768 C6.16290909,4.65041059 6.16290909,5.57729963 5.54827273,5.56820892 L4.89845455,5.56820892 L5.36545455,6.7330019 L7.86363636,5.30548733 L7.86363636,4.65913768 L7.40909091,4.65913768 C6.79445455,4.66786476 6.79445455,3.74097572 7.40909091,3.75006644 Z M3.77272727,7.3863514 C3.01418182,7.3863514 2.40909091,7.99142922 2.40909091,8.74995826 C2.40909091,9.50848731 3.01418182,10.1135651 3.77272727,10.1135651 C4.53127273,10.1135651 5.13636364,9.5083964 5.13636364,8.74995826 C5.13636364,7.99152013 4.53127273,7.3863514 3.77272727,7.3863514 Z M9.22727273,7.3863514 C8.46872727,7.3863514 7.86363636,7.99142922 7.86363636,8.74995826 C7.86363636,9.50848731 8.46872727,10.1135651 9.22727273,10.1135651 C9.98581818,10.1135651 10.5909091,9.5083964 10.5909091,8.74995826 C10.5909091,7.99152013 9.98581818,7.3863514 9.22727273,7.3863514 Z"></path>
</svg>
