<?xml version="1.0" encoding="UTF-8"?>
<svg viewBox="0 0 15 15" version="1.1" xmlns="http://www.w3.org/2000/svg" xmlns:xlink="http://www.w3.org/1999/xlink">
  <path d="M14,9.5 L14,11 L12.5298221,11.7350889 C11.0065598,12.4967201 9.60397849,13.4770731 8.3663092,14.6442681 L8,15 L7,15 C5.67533097,13.675331 4.14576639,12.5728832 2.47017787,11.7350889 L1,11 L1,9.5 C3.5,10.1666667 5.66666667,10.5 7.5,10.5 C9.33333333,10.5 11.5,10.1666667 14,9.5 Z M7,4 C6.22222222,5.33333333 5.05555556,6 3.5,6 C1.16666667,6 0,4.2 0,3 C0,2.2 0.388888889,1.2 1.16666667,-9.09494702e-13 C3.37501318,-9.09494702e-13 5.4596652,1.01956955 6.81545881,2.76273276 L7,3 L8,3 L8.18454119,2.76273276 C9.5403348,1.01956955 11.6249868,-9.09494702e-13 13.8333333,-9.09494702e-13 C14.6111111,1.2 15,2.2 15,3 C15,4.2 13.8333333,6 11.5,6 C10.0263158,6 8.90166205,5.40166205 8.12603878,4.20498615 L8,4 L7,4 Z"/>
</svg>