<?xml version="1.0" encoding="UTF-8"?>
<svg width="15px" height="15px" viewBox="0 0 15 15" version="1.1" xmlns="http://www.w3.org/2000/svg" xmlns:xlink="http://www.w3.org/1999/xlink">
    <path d="M1,2 L14,2 L14,10.5 L1,10.5 L1,2 Z M2.5,3 C2.22385763,3 2,3.22385763 2,3.5 C2,3.77614237 2.22385763,4 2.5,4 L5.5,4 C5.77614237,4 6,3.77614237 6,3.5 C6,3.22385763 5.77614237,3 5.5,3 L2.5,3 Z M2.5,5 C2.22385763,5 2,5.22385763 2,5.5 C2,5.77614237 2.22385763,6 2.5,6 L3.5,6 C3.77614237,6 4,5.77614237 4,5.5 C4,5.22385763 3.77614237,5 3.5,5 L2.5,5 Z M5.5,5 C5.22385763,5 5,5.22385763 5,5.5 C5,5.77614237 5.22385763,6 5.5,6 L9.5,6 C9.77614237,6 10,5.77614237 10,5.5 C10,5.22385763 9.77614237,5 9.5,5 L5.5,5 Z M2.5,7 C2.22385763,7 2,7.22385763 2,7.5 C2,7.77614237 2.22385763,8 2.5,8 L7.5,8 C7.77614237,8 8,7.77614237 8,7.5 C8,7.22385763 7.77614237,7 7.5,7 L2.5,7 Z M6,11 L9,11 L9,14 L6,14 L6,11 Z M10,11 L13,11 L13,12 L10,12 L10,11 Z M2,11 L5,11 L5,12 L2,12 L2,11 Z"></path>
</svg>
