<?xml version="1.0" encoding="UTF-8"?>
<!DOCTYPE svg PUBLIC "-//W3C//DTD SVG 1.1//EN" "http://www.w3.org/Graphics/SVG/1.1/DTD/svg11.dtd">
<svg version="1.1" xmlns="http://www.w3.org/2000/svg" xmlns:xlink="http://www.w3.org/1999/xlink" x="0" y="0" width="15" height="15" viewBox="0, 0, 15, 15">
    <path d="M11,2.5 C12,4 12,4 12.5,5.344 C13,6.344 13,9.5 13,10.5 C13,11 9,11 9,10.5 C9,9.5 9,9.844 9,9.344 C9,8.844 8.5,8.5 8.5,8 L8.5,7.5 L6.5,7.5 L6.5,8 C6.5,8.5 6,8.844 6,9.344 L6,10.5 C6,11 2,11 2,10.5 C2,9.5 2,6.344 2.5,5.344 C3,4 3,4 4,2.5 C4,2 6,2 6,2.5 L6,3.5 L9,3.5 C9,3.5 9,3 9,2.5 C9,2 11,2 11,2.5 z M2.5,11.5 C1.948,11.5 1.5,12.06 1.5,12.75 L1.5,12.75 C1.5,13.44 1.948,14 2.5,14 L5.5,14 C6.052,14 6.5,13.44 6.5,12.75 L6.5,12.75 C6.5,12.06 6.052,11.5 5.5,11.5 L2.5,11.5 z M9.5,11.5 C8.948,11.5 8.5,12.06 8.5,12.75 L8.5,12.75 C8.5,13.44 8.948,14 9.5,14 L12.5,14 C13.052,14 13.5,13.44 13.5,12.75 L13.5,12.75 C13.5,12.06 13.052,11.5 12.5,11.5 L9.5,11.5 z M4.5,1 C4.224,1 4,1.224 4,1.5 L4,1.5 C4,1.776 4.224,2 4.5,2 L5.5,2 C5.776,2 6,1.776 6,1.5 L6,1.5 C6,1.224 5.776,1 5.5,1 L4.5,1 z M9.5,1 C9.224,1 9,1.224 9,1.5 L9,1.5 C9,1.776 9.224,2 9.5,2 L10.5,2 C10.776,2 11,1.776 11,1.5 L11,1.5 C11,1.224 10.776,1 10.5,1 L9.5,1 z" fill="#000000" id="binoculars"/>
</svg>
