<?xml version="1.0" encoding="UTF-8"?>
<!DOCTYPE svg PUBLIC "-//W3C//DTD SVG 1.1//EN" "http://www.w3.org/Graphics/SVG/1.1/DTD/svg11.dtd">
<svg version="1.1" xmlns="http://www.w3.org/2000/svg" xmlns:xlink="http://www.w3.org/1999/xlink" x="0" y="0" width="15" height="15" viewBox="0 0 15 15">
<path d="M11,2.5 C12,4 12,4 12.5,5.344 C13,6.5 13,10.5 13,10.5 C13,11 9,11 9,10.5 C9,9.5 9,9.5 9,9.5 C9,9 8.5,8.5 8.5,8 L8.5,7.5 L6.5,7.5 L6.5,8 C6.5,8.5 6,9 6,9.5 L6,10.5 C6,11 2,11 2,10.5 C2,10.5 2,6.5 2.5,5.344 C3,4 3,4 4,2.5 C4,2 6,2 6,2.5 L6,3.5 L9,3.5 C9,3.5 9,3 9,2.5 C9,2 11,2 11,2.5 z M2.5,11.5 C1,11.5 1,14 2.5,14 C2.5,14 5.5,14 5.5,14 C7,14 7,11.5 5.5,11.5 C5.5,11.5 2.5,11.5 2.5,11.5 z M9.5,11.5 C8,11.5 8,14 9.5,14 C9.5,14 12.5,14 12.5,14 C14,14 14,11.5 12.5,11.5 C12.5,11.5 9.5,11.5 9.5,11.5 z M4.5,1 C3.75,1 3.75,2 4.5,2 L5.5,2 C6.25,2 6.25,1 5.5,1 C5.5,1 4.5,1 4.5,1 z M9.5,1 C8.75,1 8.75,2 9.5,2 C9.5,2 10.5,2 10.5,2 C11.25,2 11.25,1 10.5,1 C10.5,1 9.5,1 9.5,1 z"/>
</svg>
