<?xml version="1.0" encoding="UTF-8"?>
<!DOCTYPE svg PUBLIC "-//W3C//DTD SVG 1.1//EN" "http://www.w3.org/Graphics/SVG/1.1/DTD/svg11.dtd">
<svg version="1.1" xmlns="http://www.w3.org/2000/svg" xmlns:xlink="http://www.w3.org/1999/xlink" x="0" y="0" width="15" height="15" viewBox="0 0 15 15">
<path d="M2,8 C2,8 4.5,8 4.5,8 C4.75,8 4.75,9 4.5,9 C4.5,9 2,9 2,9 C1.75,9 1.75,8 2,8 z M11,4 C10.75,4 10.75,5 11,5 C11,5 13.5,5 13.5,5 C13.75,5 13.75,4 13.5,4 C13.5,4 11,4 11,4 z M6.5,6 C6.25,6 6.25,7 6.5,7 C6.5,7 9,7 9,7 C9.25,7 9.25,6 9,6 C9,6 6.5,6 6.5,6 z M9.25,8 C9,8 9,9 9.25,9 C9.25,9 11.5,9 11.5,9 C11.75,9 11.75,8 11.5,8 C11.5,8 9.25,8 9.25,8 z M4.75,10 C4.5,10 4.5,11 4.75,11 C4.75,11 7,11 7,11 C7.25,11 7.25,10 7,10 C7,10 4.75,10 4.75,10 z M0.25,12 C0,12 0,13 0.25,13 C0.25,13 2.5,13 2.5,13 C2.75,13 2.75,12 2.5,12 C2.5,12 0.25,12 0.25,12 z M14.25,0.25 C14.25,0 15,0 15,0.25 C15,0.25 15,3.25 15,3.25 C15,3.5 14.25,3.5 14.25,3.25 C14.25,3.25 14.25,0.25 14.25,0.25 z M12,5.5 L12,5.5 z M7.5,11.603 L7.5,13.5 L3.5,13.5 L3.5,13.38 L7.5,11.603 z M12,9.603 L12,13.5 L8,13.5 L8,11.38 L12,9.603 z M14.5,8.492 L14.5,13.5 L12.5,13.5 L12.5,9.38 L14.5,8.492 z M15,4 C15,3.75 14.5,3.75 14.5,4 C14.5,4 14.5,7.944 14.5,7.944 L12.5,8.833 C12.5,8.833 12.5,5.5 12.5,5.5 C12.5,5.25 12,5.25 12,5.5 C12,5.5 12,9.056 12,9.056 L8,10.833 C8,10.833 8,7.5 8,7.5 C8,7.25 7.5,7.25 7.5,7.5 C7.5,7.5 7.5,11 7.5,11 L3.5,12.833 C3.5,12.833 3.5,9.5 3.5,9.5 C3.5,9.25 3,9.25 3,9.5 C3,9.5 3,13 3,13 L2,13.5 C2,13.5 1,13.5 1,13.5 C0.75,13.5 0.75,14 1,14 C1,14 15,14 15,14 L15,14 L15,14 C15,14 15,4 15,4 z"/>
</svg>
