<?xml version="1.0" encoding="UTF-8"?>
<!DOCTYPE svg PUBLIC "-//W3C//DTD SVG 1.1//EN" "http://www.w3.org/Graphics/SVG/1.1/DTD/svg11.dtd">
<svg version="1.1" xmlns="http://www.w3.org/2000/svg" xmlns:xlink="http://www.w3.org/1999/xlink" x="0" y="0" width="15" height="15" viewBox="0 0 15 15">
<path d="M1.5,9 C1.5,9 4.5,9 4.5,9 C4.75,9 4.75,10 4.5,10 C4.5,10 1.5,10 1.5,10 C1.25,10 1.25,9 1.5,9 z M10.5,5 C10.25,5 10.25,6 10.5,6 C10.5,6 13.5,6 13.5,6 C13.75,6 13.75,5 13.5,5 C13.5,5 10.5,5 10.5,5 z M6,7 C5.75,7 5.75,8 6,8 C6,8 9,8 9,8 C9.25,8 9.25,7 9,7 C9,7 6,7 6,7 z M8.75,9 C8.5,9 8.5,10 8.75,10 C8.75,10 11.5,10 11.5,10 C11.75,10 11.75,9 11.5,9 C11.5,9 8.75,9 8.75,9 z M4.25,11 C4,11 4,12 4.25,12 C4.25,12 7,12 7,12 C7.25,12 7.25,11 7,11 C7,11 4.25,11 4.25,11 z M0.25,13 C0,13 0,14 0.25,14 C0.25,14 2.5,14 2.5,14 C2.75,14 2.75,13 2.5,13 C2.5,13 0.25,13 0.25,13 z"/>
<path d="M15,0.5 C15,0.5 15,15 15,15 L15,15 L15,15 C15,15 1,15 1,15 C0.75,15 0.75,14.5 1,14.5 C1,14.5 2,14.5 2,14.5 L3,14 C3,14 3,10.5 3,10.5 C3,10.25 3.5,10.25 3.5,10.5 C3.5,10.5 3.5,13.833 3.5,13.833 L7.5,12.056 C7.5,12.056 7.5,8.5 7.5,8.5 C7.5,8.25 8,8.25 8,8.5 C8,8.5 8,11.833 8,11.833 L12,10.056 C12,10.056 12,6.5 12,6.5 C12,6.25 12.5,6.25 12.5,6.5 C12.5,6.5 12.5,9.833 12.5,9.833 L14.5,8.944 C14.5,4 14.5,4.25 14.5,4.25 C14.5,4.25 14,4.25 14,4 C14,4 14,0.5 14,0.5 C14,0.25 15,0.25 15,0.5 z M14.5,9.492 L12.5,10.38 L12.5,14.5 L14.5,14.5 L14.5,9.492 z M12,10.603 L8,12.38 L8,14.5 L12,14.5 L12,10.603 z M7.5,12.603 L3.5,14.38 L3.5,14.5 L7.5,14.5 L7.5,12.603 z M12,6.5 L12,6.5 z"/>
</svg>
