<?xml version="1.0" encoding="UTF-8"?>
<!DOCTYPE svg PUBLIC "-//W3C//DTD SVG 1.1//EN" "http://www.w3.org/Graphics/SVG/1.1/DTD/svg11.dtd">
<svg version="1.1" xmlns="http://www.w3.org/2000/svg" xmlns:xlink="http://www.w3.org/1999/xlink" x="0" y="0" width="15" height="15" viewBox="0 0 15 15">
<path d="M2,8 C2,8 4.5,8 4.5,8 C4.75,8 4.75,9 4.5,9 C4.5,9 2,9 2,9 C1.75,9 1.75,8 2,8 z M11,4 C10.75,4 10.75,5 11,5 C11,5 13.5,5 13.5,5 C13.75,5 13.75,4 13.5,4 C13.5,4 11,4 11,4 z M6.5,6 C6.25,6 6.25,7 6.5,7 C6.5,7 9,7 9,7 C9.25,7 9.25,6 9,6 C9,6 6.5,6 6.5,6 z M9.25,8 C9,8 9,9 9.25,9 C9.25,9 11.5,9 11.5,9 C11.75,9 11.75,8 11.5,8 C11.5,8 9.25,8 9.25,8 z M4.75,10 C4.5,10 4.5,11 4.75,11 C4.75,11 7,11 7,11 C7.25,11 7.25,10 7,10 C7,10 4.75,10 4.75,10 z M0.25,12 C0,12 0,13 0.25,13 C0.25,13 2.5,13 2.5,13 C2.75,13 2.75,12 2.5,12 C2.5,12 0.25,12 0.25,12 z M14,0.5 C14,0.25 15,0.25 15,0.5 C15,0.5 15,3 15,3 C15,3.25 14,3.25 14,3 C14,3 14,0.5 14,0.5 z M12,5.5 L12,5.5 z M7.5,12.85 L7.5,14 L5.1,14 L7.5,12.85 z M12,10.7 L12,14 L8.5,14 L8.5,12.35 L12,10.7 z M14,9.75 L14,14 L13,14 L13,10.2 L14,9.75 z M15,4 C15,3.75 14,3.75 14,4 C14,4 14,8.75 14,8.75 L13,9.2 C13,9.2 13,5.5 13,5.5 C13,5.25 12,5.25 12,5.5 C12,5.5 12,9.7 12,9.7 L8.5,11.35 C8.5,11.35 8.5,7.5 8.5,7.5 C8.5,7.25 7.5,7.25 7.5,7.5 C7.5,7.5 7.5,11.85 7.5,11.85 L4,13.5 C4,13.5 4,9.5 4,9.5 C4,9.25 3,9.25 3,9.5 C3,9.5 3,14 3,14 C3,14 1,14 1,14 C0.75,14 0.75,15 1,15 L15,15 C15,15 15,4 15,4 z"/>
</svg>
