<?xml version="1.0" encoding="UTF-8"?>
<!DOCTYPE svg PUBLIC "-//W3C//DTD SVG 1.1//EN" "http://www.w3.org/Graphics/SVG/1.1/DTD/svg11.dtd">
<svg version="1.1" xmlns="http://www.w3.org/2000/svg" xmlns:xlink="http://www.w3.org/1999/xlink" x="0" y="0" width="15" height="15" viewBox="0 0 15 15">
<path d="M15,0.5 C15,0.5 15,15 15,15 L1,15 C0.75,15 0.75,14 1,14 L3,14 C3,14 3,9.5 3,9.5 C3,9.25 4,9.25 4,9.5 C4,9.5 4,13.523 4,13.523 L7.5,11.852 C7.5,11.852 7.5,7.5 7.5,7.5 C7.5,7.25 8.5,7.25 8.5,7.5 C8.5,7.5 8.5,11.375 8.5,11.375 L12,9.7 C12,9.7 12,5.5 12,5.5 C12,5.25 13,5.25 13,5.5 C13,5.5 13,9.227 13,9.227 L14,8.75 C14,8.75 14,0.5 14,0.5 C14,0.25 15,0.249 15,0.5 z M14,9.75 L13,10.2 L13,14 L14,14 L14,9.75 z M12,10.7 L8.5,12.35 L8.5,14 L12,14 L12,10.7 z M7.5,12.85 L5.1,14 L7.5,14 L7.5,12.85 z M2.5,12 L0.25,12 C0,12 0,13 0.25,13 L2.5,13 C2.75,13 2.75,12 2.5,12 z M7,10 L4.75,10 C4.5,10 4.5,11 4.75,11 L7,11 C7.25,11 7.25,10 7,10 z M11.5,8 L9.25,8 C9,8 9,9 9.25,9 L11.5,9 C11.75,9 11.75,8 11.5,8 z M4.5,8 L2,8 C1.75,8 1.75,9 2,9 C2,9 4.5,9 4.5,9 C4.75,9 4.75,8 4.5,8 z M9,6 L6.5,6 C6.25,6 6.25,7 6.5,7 L9,7 C9.25,7 9.25,6 9,6 z M13.5,4 L11,4 C10.75,4 10.75,5 11,5 L13.5,5 C13.75,5 13.75,4 13.5,4 z"/>
</svg>
