<?xml version="1.0" encoding="UTF-8"?>
<svg version="1.2" baseProfile="tiny" xmlns="http://www.w3.org/2000/svg" viewBox="0 0 50 50" overflow="inherit">
  <path d="M22.13 4.26c0.02 -2.06 -1.67 -3.76 -3.73 -3.74c-2.11 -0.02 -3.81 1.68 -3.8 3.74c-0.01 2.11 1.69 3.79 3.8 3.8c2.06 0 3.75 -1.69 3.73 -3.8zm10.84 20.63l-12.06 -14.63c-0.63 -0.93 -4.12 -1.32 -5.6 -0.13l-5.87 10.68l1.44 9.03c1.47 2.36 4.38 -0.03 3.56 -1.32l-0.98 -6.39l2.54 -5.12v12l-6 16c-1.04 3.49 3.97 5.37 5 2l7 -18v-9l-2.94 -4.06c-0.15 -0.17 -0.12 -0.44 0.06 -0.59c0.18 -0.15 0.44 -0.12 0.58 0.05l10.03 11.87c1.62 2.21 4.85 -0.14 3.24 -2.37zm-4.61 20.3l-5.92 -14.74l-2.43 6.55l3.48 10.17c1.4 3.28 6.32 1.36 4.88 -1.98zm15.71 3.38l0.02 0.03c0.24 0.28 0.65 0.31 0.93 0.08c0.25 -0.21 0.29 -0.59 0.12 -0.86l-11.17 -19.39l-0.03 -0.04c-0.22 -0.27 -0.64 -0.31 -0.92 -0.07c-0.25 0.21 -0.27 0.57 -0.11 0.86l11.15 19.39z"/>
</svg>