<?xml version="1.0" encoding="UTF-8"?>
<svg width="15px" height="15px" viewBox="0 0 15 15" version="1.1" xmlns="http://www.w3.org/2000/svg" xmlns:xlink="http://www.w3.org/1999/xlink">
    <path d="M4,6.51168261 C3.99711904,6.63572204 3.94834872,6.75889371 3.85368904,6.85355339 L2.85368904,7.85355339 C2.69723238,8.01001005 2.45654897,8.04502989 2.26199408,7.93964598 L2.00013565,7.797806 L2.00013565,8.94098301 L3.22374245,9.5527864 C3.39313446,9.63748241 3.50013565,9.81061397 3.50013565,10 L3.50013565,11.5 C3.50013565,11.7761424 3.27627803,12 3.00013565,12 C2.72399328,12 2.50013565,11.7761424 2.50013565,11.5 L2.50013565,10.309017 L1.55123902,9.83456868 C1.53454843,9.84561243 1.51750721,9.8561689 1.50013565,9.8662178 L1.50013565,11 L1.4744773,11.1581139 L0.9744773,12.6581139 C0.887153414,12.9200855 0.603993427,13.0616655 0.342021768,12.9743416 C0.0800501093,12.8870178 -0.0615298841,12.6038578 0.0257940022,12.3418861 L0.500135651,10.9188612 L0.500135651,9.8662178 C0.201234966,9.69331309 0.000135651239,9.37014118 0.000135651239,9 L0.000135651239,7.25 C0.000135651239,6.69771525 0.447850901,6.25 1.00013565,6.25 C1.21012058,6.25 1.40498887,6.31472202 1.56588,6.42530552 L2.41031893,6.88270994 L3.14658226,6.14644661 C3.34184441,5.95118446 3.6584269,5.95118446 3.85368904,6.14644661 C3.94834872,6.24110629 3.99711904,6.36427796 4,6.48831739 L4,3 C4,1.8954305 4.8954305,1 6,1 L13,1 C14.1045695,1 15,1.8954305 15,3 L15,10 C15,11.1045695 14.1045695,12 13,12 L6,12 C4.8954305,12 4,11.1045695 4,10 L4,6.51168261 Z M7.75,12.5 L7.5,13 L11.5,13 L11.25,12.5 L12.75,12.5 L14,15 L12.5,15 L12,14 L7,14 L6.5,15 L5,15 L6.25,12.5 L7.75,12.5 Z M11,9.5 C11,10.0522847 11.4477153,10.5 12,10.5 C12.5522847,10.5 13,10.0522847 13,9.5 C13,8.94771525 12.5522847,8.5 12,8.5 C11.4477153,8.5 11,8.94771525 11,9.5 Z M8,9.5 C8,8.94771525 7.55228475,8.5 7,8.5 C6.44771525,8.5 6,8.94771525 6,9.5 C6,10.0522847 6.44771525,10.5 7,10.5 C7.55228475,10.5 8,10.0522847 8,9.5 Z M4.99586097,3.50246795 L5.01066887,6.50246795 C5.01202713,6.77764367 5.23548371,7 5.51066278,7 L8.50734165,7 C8.78348403,7 9.00734165,6.77614237 9.00734165,6.5 C9.00734165,6.49917734 9.00733962,6.49835469 9.00733556,6.49753205 L8.99252766,3.49753205 C8.9911694,3.22235633 8.76771281,3 8.49253375,3 L5.49585488,3 C5.2197125,3 4.99585488,3.22385763 4.99585488,3.5 C4.99585488,3.50082266 4.99585691,3.50164531 4.99586097,3.50246795 Z M9.99586097,3.50246795 L10.0106689,6.50246795 C10.0120271,6.77764367 10.2354837,7 10.5106628,7 L13.5073417,7 C13.783484,7 14.0073417,6.77614237 14.0073417,6.5 C14.0073417,6.49917734 14.0073396,6.49835469 14.0073356,6.49753205 L13.9925277,3.49753205 C13.9911694,3.22235633 13.7677128,3 13.4925337,3 L10.4958549,3 C10.2197125,3 9.99585488,3.22385763 9.99585488,3.5 C9.99585488,3.50082266 9.99585691,3.50164531 9.99586097,3.50246795 Z M1.00013565,6 C0.447850901,6 0.000135651239,5.55228475 0.000135651239,5 C0.000135651239,4.44771525 0.447850901,4 1.00013565,4 C1.5524204,4 2.00013565,4.44771525 2.00013565,5 C2.00013565,5.55228475 1.5524204,6 1.00013565,6 Z"></path>
</svg>
