<?xml version="1.0" encoding="UTF-8"?>
<svg width="15px" height="15px" viewBox="0 0 15 15" version="1.1" xmlns="http://www.w3.org/2000/svg" xmlns:xlink="http://www.w3.org/1999/xlink">
    <path d="M15,3.5 L15,11.5 C15,12.6045695 14.1045695,13.5 13,13.5 L6,13.5 C4.8954305,13.5 4,12.6045695 4,11.5 L4,3.5 C4,2.3954305 4.8954305,1.5 6,1.5 L13,1.5 C14.1045695,1.5 15,2.3954305 15,3.5 Z M11,11 C11,11.5522847 11.4477153,12 12,12 C12.5522847,12 13,11.5522847 13,11 C13,10.4477153 12.5522847,10 12,10 C11.4477153,10 11,10.4477153 11,11 Z M8,11 C8,10.4477153 7.55228475,10 7,10 C6.44771525,10 6,10.4477153 6,11 C6,11.5522847 6.44771525,12 7,12 C7.55228475,12 8,11.5522847 8,11 Z M4.99586097,5.50246795 L5.01066887,8.50246795 C5.01202713,8.77764367 5.23548371,9 5.51066278,9 L8.50734165,9 C8.78348403,9 9.00734165,8.77614237 9.00734165,8.5 C9.00734165,8.49917734 9.00733962,8.49835469 9.00733556,8.49753205 L8.99252766,5.49753205 C8.9911694,5.22235633 8.76771281,5 8.49253375,5 L5.49585488,5 C5.2197125,5 4.99585488,5.22385763 4.99585488,5.5 C4.99585488,5.50082266 4.99585691,5.50164531 4.99586097,5.50246795 Z M9.99586097,5.50246795 L10.0106689,8.50246795 C10.0120271,8.77764367 10.2354837,9 10.5106628,9 L13.5073417,9 C13.783484,9 14.0073417,8.77614237 14.0073417,8.5 C14.0073417,8.49917734 14.0073396,8.49835469 14.0073356,8.49753205 L13.9925277,5.49753205 C13.9911694,5.22235633 13.7677128,5 13.4925337,5 L10.4958549,5 C10.2197125,5 9.99585488,5.22385763 9.99585488,5.5 C9.99585488,5.50082266 9.99585691,5.50164531 9.99586097,5.50246795 Z M6,3.49999446 C6,3.77613378 6.22385515,3.99998893 6.49999446,3.99998893 L12.4999848,3.99998893 C12.7761258,3.99998893 12.9999839,3.77613546 12.9999896,3.49999446 C12.9999954,3.22386086 12.7761495,3.00000572 12.5000159,3 C12.5000124,3 12.500009,3 12.5000055,3 L6.49999446,3 C6.22385515,3 6,3.22385515 6,3.49999446 Z M1.5,10.8662178 L1.5,12 L1.47434165,12.1581139 L0.974341649,13.6581139 C0.887017763,13.9200855 0.603857776,14.0616655 0.341886117,13.9743416 C0.079914458,13.8870178 -0.0616655353,13.6038578 0.025658351,13.3418861 L0.5,11.9188612 L0.5,10.8662178 C0.201099315,10.6933131 -1.17806969e-14,10.3701412 -1.19904087e-14,10 L-1.15463195e-14,8.25 C-1.16139466e-14,7.69771525 0.44771525,7.25 1,7.25 C1.20998493,7.25 1.40485322,7.31472202 1.56574434,7.42530552 L2.41018328,7.88270994 L3.14644661,7.14644661 C3.34170876,6.95118446 3.65829124,6.95118446 3.85355339,7.14644661 C4.04881554,7.34170876 4.04881554,7.65829124 3.85355339,7.85355339 L2.85355339,8.85355339 C2.69709673,9.01001005 2.45641332,9.04502989 2.26185843,8.93964598 L2,8.797806 L2,9.94098301 L3.2236068,10.5527864 C3.39299881,10.6374824 3.5,10.810614 3.5,11 L3.5,12.5 C3.5,12.7761424 3.27614237,13 3,13 C2.72385763,13 2.5,12.7761424 2.5,12.5 L2.5,11.309017 L1.55110337,10.8345687 C1.53441278,10.8456124 1.51737156,10.8561689 1.5,10.8662178 Z M1,7 C0.44771525,7 -1.24344979e-14,6.55228475 -1.24344979e-14,6 C-1.24344979e-14,5.44771525 0.44771525,5 1,5 C1.55228475,5 2,5.44771525 2,6 C2,6.55228475 1.55228475,7 1,7 Z"></path>
</svg>
