<?xml version="1.0" encoding="UTF-8"?>
<svg width="15px" height="15px" viewBox="0 0 15 15" version="1.1" xmlns="http://www.w3.org/2000/svg" xmlns:xlink="http://www.w3.org/1999/xlink">
    <path d="M7.75,12.5 L7.5,13 L11.5,13 L11.25,12.5 L12.75,12.5 L14,15 L12.5,15 L12,14 L7,14 L6.5,15 L5,15 L6.25,12.5 L7.75,12.5 Z M14.0656163,8.45354505 C12.425529,10.8178483 10.9036569,12 9.5,12 C8.09633836,12 6.57446075,10.8178404 4.93436718,8.45352118 L4.93437837,8.45351342 C4.36695951,7.6355361 4.24226933,6.58935836 4.60154062,5.66093216 C4.86718021,4.97446832 5,4.42082426 5,4 C5,3 6.34965237,1.77635684e-15 9.5,1.77635684e-15 C13.1293192,1.77635684e-15 14,3 14,4 C14,4.42082791 14.1328221,4.97447791 14.3984663,5.66095 L14.3984545,5.66095456 C14.7577288,6.58938353 14.6330383,7.6355655 14.0656163,8.45354505 Z M7.03912111,2.75833581 L7.83247062,4.6899602 C7.90950907,4.87753117 8.09220499,5 8.29498021,5 L10.7050096,5 C10.9077848,5 11.0904807,4.87753117 11.1675192,4.6899602 L11.9608337,2.75821711 C12.0289153,2.5924541 12.0030664,2.40293044 11.8930809,2.26145375 C11.2393021,1.42048458 10.4416068,1 9.49999491,1 C8.55836353,1 7.76065466,1.42050201 7.1068683,2.26150602 L7.10687831,2.2615138 C6.99688214,2.40300837 6.97103171,2.59255371 7.03912111,2.75833581 Z M9.5,11 C10.0522847,11 10.5,10.5522847 10.5,10 C10.5,9.44771525 10.0522847,9 9.5,9 C8.94771525,9 8.5,9.44771525 8.5,10 C8.5,10.5522847 8.94771525,11 9.5,11 Z M2.00013565,7.8662178 L2.00013565,9 L1.9744773,9.15811388 L1.4744773,10.6581139 C1.38715341,10.9200855 1.10399343,11.0616655 0.842021768,10.9743416 C0.580050109,10.8870178 0.438470116,10.6038578 0.525794002,10.3418861 L1.00013565,8.91886117 L1.00013565,7.8662178 C0.701234966,7.69331309 0.500135651,7.37014118 0.500135651,7 L0.500135651,5.25 C0.500135651,4.69771525 0.947850901,4.25 1.50013565,4.25 C1.71012058,4.25 1.90498887,4.31472202 2.06588,4.42530552 L2.91031893,4.88270994 L3.64658226,4.14644661 C3.84184441,3.95118446 4.1584269,3.95118446 4.35368904,4.14644661 C4.54895119,4.34170876 4.54895119,4.65829124 4.35368904,4.85355339 L3.35368904,5.85355339 C3.19723238,6.01001005 2.95654897,6.04502989 2.76199408,5.93964598 L2.50013565,5.797806 L2.50013565,6.94098301 L3.72374245,7.5527864 C3.89313446,7.63748241 4.00013565,7.81061397 4.00013565,8 L4.00013565,9.5 C4.00013565,9.77614237 3.77627803,10 3.50013565,10 C3.22399328,10 3.00013565,9.77614237 3.00013565,9.5 L3.00013565,8.30901699 L2.05123902,7.83456868 C2.03454843,7.84561243 2.01750721,7.8561689 2.00013565,7.8662178 Z M1.50013565,4 C0.947850901,4 0.500135651,3.55228475 0.500135651,3 C0.500135651,2.44771525 0.947850901,2 1.50013565,2 C2.0524204,2 2.50013565,2.44771525 2.50013565,3 C2.50013565,3.55228475 2.0524204,4 1.50013565,4 Z"></path>
</svg>
