<?xml version="1.0" encoding="UTF-8"?>
<svg width="15px" height="15px" viewBox="0 0 15 15" version="1.1" xmlns="http://www.w3.org/2000/svg" xmlns:xlink="http://www.w3.org/1999/xlink">
    <path d="M7.78571429,12.4285714 L7.5,13 L11.5,13 L11.2142857,12.4285714 L12.5,12 L14,15 L12.5,15 L12,14 L7,14 L6.5,15 L5,15 L6.5,12 L7.78571429,12.4285714 Z M14,1.80217161 L14,5 L14.7071068,5.70710678 C14.8946432,5.89464316 15,6.14899707 15,6.41421356 L15,9.0786487 C15,9.48470595 14.7544579,9.85044904 14.3786328,10.0041957 L9.5,12 L4.62136715,10.0041957 C4.2455421,9.85044904 4,9.48470595 4,9.0786487 L4,6.41421356 C4,6.14899707 4.10535684,5.89464316 4.29289322,5.70710678 L5,5 L5,1.80217161 C5,1.33347296 5.32553199,0.927659559 5.78306954,0.825984546 L9.28306954,0.0482067684 C9.42594718,0.016456182 9.57405282,0.016456182 9.71693046,0.0482067684 L13.2169305,0.825984546 C13.674468,0.927659559 14,1.33347296 14,1.80217161 Z M6,2.42356354 L6,3.5 C6,3.77614237 6.22385763,4 6.5,4 L8.5,4 C8.77614237,4 9,3.77614237 9,3.5 L9,2.09023021 C9,1.81408784 8.77614237,1.59023021 8.5,1.59023021 C8.47245957,1.59023021 8.44496622,1.59250563 8.41780051,1.59703325 L6.41780051,1.93036658 C6.17670652,1.97054891 6,2.17914397 6,2.42356354 Z M10,2.09023021 L10,3.5 C10,3.77614237 10.2238576,4 10.5,4 L12.5,4 C12.7761424,4 13,3.77614237 13,3.5 L13,2.42356354 C13,2.17914397 12.8232935,1.97054891 12.5821995,1.93036658 L10.5821995,1.59703325 C10.3098143,1.55163572 10.0522006,1.73564556 10.006803,2.00803072 C10.0022754,2.03519643 10,2.06268978 10,2.09023021 Z M9.5,8 C10.0522847,8 10.5,7.55228475 10.5,7 C10.5,6.44771525 10.0522847,6 9.5,6 C8.94771525,6 8.5,6.44771525 8.5,7 C8.5,7.55228475 8.94771525,8 9.5,8 Z M1.50013565,7.8662178 L1.50013565,9 L1.4744773,9.15811388 L0.9744773,10.6581139 C0.887153414,10.9200855 0.603993427,11.0616655 0.342021768,10.9743416 C0.0800501093,10.8870178 -0.0615298841,10.6038578 0.0257940022,10.3418861 L0.500135651,8.91886117 L0.500135651,7.8662178 C0.201234966,7.69331309 0.000135651239,7.37014118 0.000135651239,7 L0.000135651239,5.25 C0.000135651239,4.69771525 0.447850901,4.25 1.00013565,4.25 C1.21012058,4.25 1.40498887,4.31472202 1.56588,4.42530552 L2.41031893,4.88270994 L3.14658226,4.14644661 C3.34184441,3.95118446 3.6584269,3.95118446 3.85368904,4.14644661 C4.04895119,4.34170876 4.04895119,4.65829124 3.85368904,4.85355339 L2.85368904,5.85355339 C2.69723238,6.01001005 2.45654897,6.04502989 2.26199408,5.93964598 L2.00013565,5.797806 L2.00013565,6.94098301 L3.22374245,7.5527864 C3.39313446,7.63748241 3.50013565,7.81061397 3.50013565,8 L3.50013565,9.5 C3.50013565,9.77614237 3.27627803,10 3.00013565,10 C2.72399328,10 2.50013565,9.77614237 2.50013565,9.5 L2.50013565,8.30901699 L1.55123902,7.83456868 C1.53454843,7.84561243 1.51750721,7.8561689 1.50013565,7.8662178 Z M1.00013565,4 C0.447850901,4 0.000135651239,3.55228475 0.000135651239,3 C0.000135651239,2.44771525 0.447850901,2 1.00013565,2 C1.5524204,2 2.00013565,2.44771525 2.00013565,3 C2.00013565,3.55228475 1.5524204,4 1.00013565,4 Z"></path>
</svg>
