<?xml version="1.0" encoding="UTF-8"?>
<svg width="15px" height="15px" viewBox="0 0 15 15" version="1.1" xmlns="http://www.w3.org/2000/svg" xmlns:xlink="http://www.w3.org/1999/xlink">
    <path d="M4,3 C4,1.8954305 4.8954305,1 6,1 L13,1 C14.1045695,1 15,1.8954305 15,3 L15,11 C15,12 14,12 14,12 L14,13 C14,13.5522847 13.5522847,14 13,14 C12.4477153,14 12,13.5522847 12,13 L12,12 L7,12 L7,13 C7,13.5522847 6.55228475,14 6,14 C5.44771525,14 5,13.5522847 5,13 L5,12 C4,12 4,11 4,11 L4,3 Z M5.5,4 C5.22385763,4 5,4.22385763 5,4.5 L5,7.5 C5,7.77614237 5.22385763,8 5.5,8 L8.5,8 C8.77614237,8 9,7.77614237 9,7.5 L9,4.5 C9,4.22385763 8.77614237,4 8.5,4 L5.5,4 Z M10.5,4 C10.2238576,4 10,4.22385763 10,4.5 L10,7.5 C10,7.77614237 10.2238576,8 10.5,8 L13.5,8 C13.7761424,8 14,7.77614237 14,7.5 L14,4.5 C14,4.22385763 13.7761424,4 13.5,4 L10.5,4 Z M5,2.5 C5,2.91421356 5.33578644,3.25 5.75,3.25 C6.16421356,3.25 6.5,2.91421356 6.5,2.5 C6.5,2.08578644 6.16421356,1.75 5.75,1.75 C5.33578644,1.75 5,2.08578644 5,2.5 Z M12.5,2.5 C12.5,2.91421356 12.8357864,3.25 13.25,3.25 C13.6642136,3.25 14,2.91421356 14,2.5 C14,2.08578644 13.6642136,1.75 13.25,1.75 C12.8357864,1.75 12.5,2.08578644 12.5,2.5 Z M10.5,2.5 C10.5,2.91421356 10.8357864,3.25 11.25,3.25 C11.6642136,3.25 12,2.91421356 12,2.5 C12,2.08578644 11.6642136,1.75 11.25,1.75 C10.8357864,1.75 10.5,2.08578644 10.5,2.5 Z M7,2.5 C7,2.91421356 7.33578644,3.25 7.75,3.25 C8.16421356,3.25 8.5,2.91421356 8.5,2.5 C8.5,2.08578644 8.16421356,1.75 7.75,1.75 C7.33578644,1.75 7,2.08578644 7,2.5 Z M6,9 C5.4477,9 5,9.4477 5,10 C5,10.5523 5.4477,11 6,11 C6.5523,11 7,10.5523 7,10 C7,9.4477 6.5523,9 6,9 Z M13,9 C12.4477,9 12,9.4477 12,10 C12,10.5523 12.4477,11 13,11 C13.5523,11 14,10.5523 14,10 C14,9.4477 13.5523,9 13,9 Z M1.5,10.8662178 L1.5,12 L1.47434165,12.1581139 L0.974341649,13.6581139 C0.887017763,13.9200855 0.603857776,14.0616655 0.341886117,13.9743416 C0.079914458,13.8870178 -0.0616655353,13.6038578 0.025658351,13.3418861 L0.5,11.9188612 L0.5,10.8662178 C0.201099315,10.6933131 -1.22247861e-14,10.3701412 -1.24344979e-14,10 L-1.19904087e-14,8.25 C-1.20580358e-14,7.69771525 0.44771525,7.25 1,7.25 C1.20998493,7.25 1.40485322,7.31472202 1.56574434,7.42530552 L2.41018328,7.88270994 L3.14644661,7.14644661 C3.34170876,6.95118446 3.65829124,6.95118446 3.85355339,7.14644661 C4.04881554,7.34170876 4.04881554,7.65829124 3.85355339,7.85355339 L2.85355339,8.85355339 C2.69709673,9.01001005 2.45641332,9.04502989 2.26185843,8.93964598 L2,8.797806 L2,9.94098301 L3.2236068,10.5527864 C3.39299881,10.6374824 3.5,10.810614 3.5,11 L3.5,12.5 C3.5,12.7761424 3.27614237,13 3,13 C2.72385763,13 2.5,12.7761424 2.5,12.5 L2.5,11.309017 L1.55110337,10.8345687 C1.53441278,10.8456124 1.51737156,10.8561689 1.5,10.8662178 Z M1,7 C0.44771525,7 -1.28785871e-14,6.55228475 -1.28785871e-14,6 C-1.28785871e-14,5.44771525 0.44771525,5 1,5 C1.55228475,5 2,5.44771525 2,6 C2,6.55228475 1.55228475,7 1,7 Z"></path>
</svg>
