<?xml version="1.0" encoding="UTF-8"?>
<svg width="15px" height="15px" viewBox="0 0 15 15" version="1.1" xmlns="http://www.w3.org/2000/svg" xmlns:xlink="http://www.w3.org/1999/xlink">
    <path d="M11,1 L11,2 C11.5522847,2 12,2.44771525 12,3 L12,3.87731452 C12.9144625,4.61037504 13.5,5.73680771 13.5,7 C13.5,7.69048727 13.3250447,8.34011154 13.0170459,8.90696099 L13.4427639,9.70518224 C13.7026626,10.1924923 13.5183092,10.7982247 13.0309992,11.0581234 C12.9814974,11.0845244 12.9298617,11.1067128 12.8766387,11.1244538 L9.5,12.25 L6.12336131,11.1244538 C5.599418,10.949806 5.31625801,10.383486 5.49090578,9.85954271 C5.50864679,9.80631968 5.5308352,9.754684 5.55723614,9.70518224 L5.98295414,8.90696099 C5.67495532,8.34011154 5.5,7.69048727 5.5,7 C5.5,5.73680771 6.08553752,4.61037504 7,3.87731452 L7,3 C7,2.44771525 7.44771525,2 8,2 L8,1 L7.5,1 C7.22385763,1 7,0.776142375 7,0.5 C7,0.223857625 7.22385763,-4.43581945e-14 7.5,-4.4408921e-14 L11.5,-4.4408921e-14 C11.7761424,-4.44596475e-14 12,0.223857625 12,0.5 C12,0.776142375 11.7761424,1 11.5,1 L11,1 Z M7.78571429,12.4285714 L7.5,13 L11.5,13 L11.2142857,12.4285714 L12.5,12 L14,15 L12.5,15 L12,14 L7,14 L6.5,15 L5,15 L6.5,12 L7.78571429,12.4285714 Z M9.5,8 C10.0522847,8 10.5,7.55228475 10.5,7 C10.5,6.44771525 10.0522847,6 9.5,6 C8.94771525,6 8.5,6.44771525 8.5,7 C8.5,7.55228475 8.94771525,8 9.5,8 Z M3.00013565,8.8662178 L3.00013565,10 L2.9744773,10.1581139 L2.4744773,11.6581139 C2.38715341,11.9200855 2.10399343,12.0616655 1.84202177,11.9743416 C1.58005011,11.8870178 1.43847012,11.6038578 1.525794,11.3418861 L2.00013565,9.91886117 L2.00013565,8.8662178 C1.70123497,8.69331309 1.50013565,8.37014118 1.50013565,8 L1.50013565,6.25 C1.50013565,5.69771525 1.9478509,5.25 2.50013565,5.25 C2.71012058,5.25 2.90498887,5.31472202 3.06588,5.42530552 L3.91031893,5.88270994 L4.64658226,5.14644661 C4.84184441,4.95118446 5.1584269,4.95118446 5.35368904,5.14644661 C5.54895119,5.34170876 5.54895119,5.65829124 5.35368904,5.85355339 L4.35368904,6.85355339 C4.19723238,7.01001005 3.95654897,7.04502989 3.76199408,6.93964598 L3.50013565,6.797806 L3.50013565,7.94098301 L4.72374245,8.5527864 C4.89313446,8.63748241 5.00013565,8.81061397 5.00013565,9 L5.00013565,10.5 C5.00013565,10.7761424 4.77627803,11 4.50013565,11 C4.22399328,11 4.00013565,10.7761424 4.00013565,10.5 L4.00013565,9.30901699 L3.05123902,8.83456868 C3.03454843,8.84561243 3.01750721,8.8561689 3.00013565,8.8662178 Z M2.50013565,5 C1.9478509,5 1.50013565,4.55228475 1.50013565,4 C1.50013565,3.44771525 1.9478509,3 2.50013565,3 C3.0524204,3 3.50013565,3.44771525 3.50013565,4 C3.50013565,4.55228475 3.0524204,5 2.50013565,5 Z"></path>
</svg>
