<?xml version="1.0" encoding="UTF-8"?>
<svg width="15px" height="15px" viewBox="0 0 15 15" version="1.1" xmlns="http://www.w3.org/2000/svg" xmlns:xlink="http://www.w3.org/1999/xlink">
    <path d="M5.5,7.51168261 C5.49711904,7.63572204 5.44834872,7.75889371 5.35368904,7.85355339 L4.35368904,8.85355339 C4.19723238,9.01001005 3.95654897,9.04502989 3.76199408,8.93964598 L3.50013565,8.797806 L3.50013565,9.94098301 L4.72374245,10.5527864 C4.89313446,10.6374824 5.00013565,10.810614 5.00013565,11 L5.00013565,12.5 C5.00013565,12.7761424 4.77627803,13 4.50013565,13 C4.22399328,13 4.00013565,12.7761424 4.00013565,12.5 L4.00013565,11.309017 L3.05123902,10.8345687 C3.03454843,10.8456124 3.01750721,10.8561689 3.00013565,10.8662178 L3.00013565,12 L2.9744773,12.1581139 L2.4744773,13.6581139 C2.38715341,13.9200855 2.10399343,14.0616655 1.84202177,13.9743416 C1.58005011,13.8870178 1.43847012,13.6038578 1.525794,13.3418861 L2.00013565,11.9188612 L2.00013565,10.8662178 C1.70123497,10.6933131 1.50013565,10.3701412 1.50013565,10 L1.50013565,8.25 C1.50013565,7.69771525 1.9478509,7.25 2.50013565,7.25 C2.71012058,7.25 2.90498887,7.31472202 3.06588,7.42530552 L3.91031893,7.88270994 L4.64658226,7.14644661 C4.84184441,6.95118446 5.1584269,6.95118446 5.35368904,7.14644661 C5.44834872,7.24110629 5.49711904,7.36427796 5.5,7.48831739 L5.5,4.82842712 C5.5,4.29799415 5.71071368,3.78928632 6.08578644,3.41421356 L7.5,2 L9,2 L9,1 L7.5,1 C7.22385763,1 7,0.776142375 7,0.5 C7,0.223857625 7.22385763,1.42615812e-14 7.5,1.42108547e-14 L11.5,1.42108547e-14 C11.7761424,1.41601282e-14 12,0.223857625 12,0.5 C12,0.776142375 11.7761424,1 11.5,1 L10,1 L10,2 L11.5,2 L12.9142136,3.41421356 C13.2892863,3.78928632 13.5,4.29799415 13.5,4.82842712 L13.5,11 C13.5,12.1045695 12.6045695,13 11.5,13 L7.5,13 C6.3954305,13 5.5,12.1045695 5.5,11 L5.5,7.51168261 Z M8.25,13.5 L7.5,15 L6,15 L6.75,13.5 L8.25,13.5 Z M12.25,13.5 L13,15 L11.5,15 L10.75,13.5 L12.25,13.5 Z M10.5,12 L11.5,12 C12.0522847,12 12.5,11.5522847 12.5,11 L12.5,10 C11.3954305,10 10.5,10.8954305 10.5,12 Z M8.5,12 C8.5,10.8954305 7.6045695,10 6.5,10 L6.5,11 C6.5,11.5522847 6.94771525,12 7.5,12 L8.5,12 Z M6.5,5.5 L6.5,8.5 C6.5,8.77614237 6.72385763,9 7,9 L12,9 C12.2761424,9 12.5,8.77614237 12.5,8.5 L12.5,5.5 C12.5,5.22385763 12.2761424,5 12,5 L7,5 C6.72385763,5 6.5,5.22385763 6.5,5.5 Z M7.5,3.5 C7.5,3.77614237 7.72385763,4 8,4 L11,4 C11.2761424,4 11.5,3.77614237 11.5,3.5 C11.5,3.22385763 11.2761424,3 11,3 L8,3 C7.72385763,3 7.5,3.22385763 7.5,3.5 Z M2.50013565,7 C1.9478509,7 1.50013565,6.55228475 1.50013565,6 C1.50013565,5.44771525 1.9478509,5 2.50013565,5 C3.0524204,5 3.50013565,5.44771525 3.50013565,6 C3.50013565,6.55228475 3.0524204,7 2.50013565,7 Z"></path>
</svg>
