<?xml version="1.0" encoding="UTF-8"?>
<svg width="15px" height="15px" viewBox="0 0 15 15" version="1.1" xmlns="http://www.w3.org/2000/svg" xmlns:xlink="http://www.w3.org/1999/xlink">
    <path d="M4.55241027,11.7620514 L4,9 L5,8.45454545 L5,4 C5,3.44771525 5.44771525,3 6,3 L13,3 C13.5522847,3 14,3.44771525 14,4 L14,8.45454545 L15,9 L14.44435,11.7782501 C13.6584636,11.2594167 12.9951954,11 12.4545455,11 C11.5878399,11 10.6029915,11.3333333 9.5,12 C8.43632479,11.3333333 7.4514763,11 6.54545455,11 C5.98619198,11 5.32184389,11.2540171 4.55241027,11.7620514 Z M13,7.90909091 L13,4.5 C13,4.22385763 12.7761424,4 12.5,4 L6.5,4 C6.22385763,4 6,4.22385763 6,4.5 L6,7.90909091 L9.5,6 L13,7.90909091 Z M7.5,1 L11.5,1 C11.7761424,1 12,1.22385763 12,1.5 L12,2.5 L7,2.5 L7,1.5 C7,1.22385763 7.22385763,1 7.5,1 Z M12.5,12 C12.8921693,12 13.2272021,12.1063596 13.624183,12.3180828 C13.6917965,12.3541433 13.7597015,12.3922209 13.8476942,12.4429163 C13.955325,12.5052564 14.014841,12.5397479 14.0605695,12.5658784 C14.6011449,12.8747787 14.2426051,13.8216499 13.5644305,13.4341216 C13.5155409,13.4061846 13.4526611,13.3697436 13.3484863,13.3093985 C13.2691353,13.2636819 13.2098765,13.2304526 13.1535948,13.2004357 C12.888811,13.0592177 12.7022752,13 12.5,13 C11.6039475,13 10.6988281,13.3017065 9.7773501,13.9160251 L9.5,14.1009252 L9.2226499,13.9160251 C8.30117188,13.3017065 7.39605248,13 6.5,13 C6.37120269,13 6.23758494,13.0347164 6.06761865,13.1121106 C5.93462575,13.172669 5.80071741,13.2470864 5.46759622,13.4370587 C4.78122651,13.818449 4.43088179,12.8691115 4.9818815,12.5629413 C5.3030551,12.3789998 5.47775383,12.2819137 5.65320882,12.2020202 C5.94359985,12.0697906 6.21221233,12 6.5,12 C7.50943918,12 8.51129743,12.3051469 9.5,12.9071029 C10.4887026,12.3051469 11.4905608,12 12.5,12 Z M1.50013565,8.8662178 L1.50013565,10 L1.4744773,10.1581139 L0.9744773,11.6581139 C0.887153414,11.9200855 0.603993427,12.0616655 0.342021768,11.9743416 C0.0800501093,11.8870178 -0.0615298841,11.6038578 0.0257940022,11.3418861 L0.500135651,9.91886117 L0.500135651,8.8662178 C0.201234966,8.69331309 0.000135651239,8.37014118 0.000135651239,8 L0.000135651239,6.25 C0.000135651239,5.69771525 0.447850901,5.25 1.00013565,5.25 C1.21012058,5.25 1.40498887,5.31472201 1.56588,5.42530552 L2.41031893,5.88270994 L3.14658226,5.14644661 C3.34184441,4.95118446 3.6584269,4.95118446 3.85368904,5.14644661 C4.04895119,5.34170876 4.04895119,5.65829124 3.85368904,5.85355339 L2.85368904,6.85355339 C2.69723238,7.01001005 2.45654897,7.04502989 2.26199408,6.93964598 L2.00013565,6.797806 L2.00013565,7.94098301 L3.22374245,8.5527864 C3.39313446,8.63748241 3.50013565,8.81061397 3.50013565,9 L3.50013565,10.5 C3.50013565,10.7761424 3.27627803,11 3.00013565,11 C2.72399328,11 2.50013565,10.7761424 2.50013565,10.5 L2.50013565,9.30901699 L1.55123902,8.83456868 C1.53454843,8.84561243 1.51750721,8.8561689 1.50013565,8.8662178 Z M1.00013565,5 C0.447850901,5 0.000135651239,4.55228475 0.000135651239,4 C0.000135651239,3.44771525 0.447850901,3 1.00013565,3 C1.5524204,3 2.00013565,3.44771525 2.00013565,4 C2.00013565,4.55228475 1.5524204,5 1.00013565,5 Z"></path>
</svg>
