<?xml version="1.0" encoding="UTF-8"?>
<svg width="15px" height="15px" viewBox="0 0 15 15" version="1.1" xmlns="http://www.w3.org/2000/svg" xmlns:xlink="http://www.w3.org/1999/xlink">
    <path d="M10,1 L10,2 L12,2 L13.4142136,3.41421356 C13.7892863,3.78928632 14,4.29799415 14,4.82842712 L14,11 C14,12.1045695 13.1045695,13 12,13 L7.00001588,13 C5.89544638,13 5.00001588,12.1045695 5.00001588,11 L5.00001588,4.82842247 C5.00001588,4.29799224 5.21072738,3.78928683 5.58579671,3.41421453 L7,2 L9,2 L9,1 L7,1 C6.72385763,1 6.5,0.776142375 6.5,0.5 C6.5,0.223857625 6.72385763,5.07265313e-17 7,0 L12,0 C12.2761424,-5.07265313e-17 12.5,0.223857625 12.5,0.5 C12.5,0.776142375 12.2761424,1 12,1 L10,1 Z M7.75,13.5 L7,15 L5.5,15 L6.25,13.5 L7.75,13.5 Z M12.75,13.5 L13.5,15 L12,15 L11.25,13.5 L12.75,13.5 Z M5.99751577,5.50246795 L6.0073877,7.50246795 C6.00874596,7.77764367 6.23220255,8 6.50738161,8 L8.50488772,8 C8.78103009,8 9.00488772,7.77614237 9.00488772,7.5 C9.00488772,7.49917734 9.00488569,7.49835469 9.00488163,7.49753205 L8.99500969,5.49753205 C8.99365143,5.22235633 8.77019485,5 8.49501578,5 L6.49750968,5 C6.2213673,5 5.99750968,5.22385763 5.99750968,5.5 C5.99750968,5.50082266 5.99751171,5.50164531 5.99751577,5.50246795 Z M9.99751577,5.50246795 L10.0073877,7.50246795 C10.008746,7.77764367 10.2322025,8 10.5073816,8 L12.5048877,8 C12.7810301,8 13.0048877,7.77614237 13.0048877,7.5 C13.0048877,7.49917734 13.0048857,7.49835469 13.0048816,7.49753205 L12.9950097,5.49753205 C12.9936514,5.22235633 12.7701949,5 12.4950158,5 L10.4975097,5 C10.2213673,5 9.99750968,5.22385763 9.99750968,5.5 C9.99750968,5.50082266 9.99751171,5.50164531 9.99751577,5.50246795 Z M7.00406592,3.5 L7.00437038,3.51233616 C7.01106488,3.7835901 7.23288164,4 7.50421817,4 L11.5121174,4 C11.7816108,4 12.0000783,3.78153248 12.0000783,3.51203913 C12.0000783,3.50802563 12.0000288,3.50401228 11.9999297,3.5 L11.9996253,3.48766384 C11.9929308,3.2164099 11.771114,3 11.4997775,3 L7.49187825,3 C7.22238491,3 7.00391738,3.21846752 7.00391738,3.48796087 C7.00391738,3.49197437 7.0039669,3.49598772 7.00406592,3.5 Z M7,11.5 C7.55228475,11.5 8,11.0522847 8,10.5 C8,9.94771525 7.55228475,9.5 7,9.5 C6.44771525,9.5 6,9.94771525 6,10.5 C6,11.0522847 6.44771525,11.5 7,11.5 Z M12,11.5 C12.5522847,11.5 13,11.0522847 13,10.5 C13,9.94771525 12.5522847,9.5 12,9.5 C11.4477153,9.5 11,9.94771525 11,10.5 C11,11.0522847 11.4477153,11.5 12,11.5 Z M2.5,10.8662178 L2.5,12 L2.47434165,12.1581139 L1.97434165,13.6581139 C1.88701776,13.9200855 1.60385778,14.0616655 1.34188612,13.9743416 C1.07991446,13.8870178 0.938334465,13.6038578 1.02565835,13.3418861 L1.5,11.9188612 L1.5,10.8662178 C1.20109931,10.6933131 1,10.3701412 1,10 L1,8.25 C1,7.69771525 1.44771525,7.25 2,7.25 C2.20998493,7.25 2.40485322,7.31472202 2.56574434,7.42530552 L3.41018328,7.88270994 L4.14644661,7.14644661 C4.34170876,6.95118446 4.65829124,6.95118446 4.85355339,7.14644661 C5.04881554,7.34170876 5.04881554,7.65829124 4.85355339,7.85355339 L3.85355339,8.85355339 C3.69709673,9.01001005 3.45641332,9.04502989 3.26185843,8.93964598 L3,8.797806 L3,9.94098301 L4.2236068,10.5527864 C4.39299881,10.6374824 4.5,10.810614 4.5,11 L4.5,12.5 C4.5,12.7761424 4.27614237,13 4,13 C3.72385763,13 3.5,12.7761424 3.5,12.5 L3.5,11.309017 L2.55110337,10.8345687 C2.53441278,10.8456124 2.51737156,10.8561689 2.5,10.8662178 Z M2,7 C1.44771525,7 1,6.55228475 1,6 C1,5.44771525 1.44771525,5 2,5 C2.55228475,5 3,5.44771525 3,6 C3,6.55228475 2.55228475,7 2,7 Z"></path>
</svg>
