<?xml version="1.0" encoding="UTF-8"?>
<svg width="15px" height="15px" viewBox="0 0 15 15" version="1.1" xmlns="http://www.w3.org/2000/svg" xmlns:xlink="http://www.w3.org/1999/xlink">
    <path d="M4,8.51168261 C3.99711904,8.63572204 3.94834872,8.75889371 3.85368904,8.85355339 L2.85368904,9.85355339 C2.69723238,10.0100101 2.45654897,10.0450299 2.26199408,9.93964598 L2.00013565,9.797806 L2.00013565,10.940983 L3.22374245,11.5527864 C3.39313446,11.6374824 3.50013565,11.810614 3.50013565,12 L3.50013565,13.5 C3.50013565,13.7761424 3.27627803,14 3.00013565,14 C2.72399328,14 2.50013565,13.7761424 2.50013565,13.5 L2.50013565,12.309017 L1.55123902,11.8345687 C1.53454843,11.8456124 1.51750721,11.8561689 1.50013565,11.8662178 L1.50013565,13 L1.4744773,13.1581139 L0.9744773,14.6581139 C0.887153414,14.9200855 0.603993427,15.0616655 0.342021768,14.9743416 C0.0800501093,14.8870178 -0.0615298841,14.6038578 0.0257940022,14.3418861 L0.500135651,12.9188612 L0.500135651,11.8662178 C0.201234966,11.6933131 0.000135651239,11.3701412 0.000135651239,11 L0.000135651239,9.25 C0.000135651239,8.69771525 0.447850901,8.25 1.00013565,8.25 C1.21012058,8.25 1.40498887,8.31472202 1.56588,8.42530552 L2.41031893,8.88270994 L3.14658226,8.14644661 C3.34184441,7.95118446 3.6584269,7.95118446 3.85368904,8.14644661 C3.94834872,8.24110629 3.99711904,8.36427796 4,8.48831739 L4,4.16227766 C4,4.05479556 4.01732788,3.94801636 4.0513167,3.84604989 L4.77207592,1.68377223 C4.90818997,1.27543009 5.29032881,1 5.72075922,1 L7.5,1 L7.5,2 L6.00540406,2 L6.00540406,4 L13.5,4 L12.9945959,2 L11.5,2 L11.5,1 L13.2792408,1 C13.7096712,1 14.09181,1.27543009 14.2279241,1.68377223 L14.9486833,3.84604989 C14.9826721,3.94801636 15,4.05479556 15,4.16227766 L15,13 C15,14.1045695 14.1045695,15 13,15 L6,15 C4.8954305,15 4,14.1045695 4,13 L4,8.51168261 Z M4.99586097,7.50246795 L5.01066887,10.502468 C5.01202713,10.7776437 5.23548371,11 5.51066278,11 L8.50734165,11 C8.78348403,11 9.00734165,10.7761424 9.00734165,10.5 C9.00734165,10.4991773 9.00733962,10.4983547 9.00733556,10.497532 L8.99252766,7.49753205 C8.9911694,7.22235633 8.76771281,7 8.49253375,7 L5.49585488,7 C5.2197125,7 4.99585488,7.22385763 4.99585488,7.5 C4.99585488,7.50082266 4.99585691,7.50164531 4.99586097,7.50246795 Z M11,13 C11,13.5522847 11.4477153,14 12,14 C12.5522847,14 13,13.5522847 13,13 C13,12.4477153 12.5522847,12 12,12 C11.4477153,12 11,12.4477153 11,13 Z M8,13 C8,12.4477153 7.55228475,12 7,12 C6.44771525,12 6,12.4477153 6,13 C6,13.5522847 6.44771525,14 7,14 C7.55228475,14 8,13.5522847 8,13 Z M7.00406592,5.5 L7.00437038,5.51233616 C7.01106488,5.7835901 7.23288164,6 7.50421817,6 L11.5121174,6 C11.7816108,6 12.0000783,5.78153248 12.0000783,5.51203913 C12.0000783,5.50802563 12.0000288,5.50401228 11.9999297,5.5 L11.9996253,5.48766384 C11.9929308,5.2164099 11.771114,5 11.4997775,5 L7.49187825,5 C7.22238491,5 7.00391738,5.21846752 7.00391738,5.48796087 C7.00391738,5.49197437 7.0039669,5.49598772 7.00406592,5.5 Z M9.99586097,7.50246795 L10.0106689,10.502468 C10.0120271,10.7776437 10.2354837,11 10.5106628,11 L13.5073417,11 C13.783484,11 14.0073417,10.7761424 14.0073417,10.5 C14.0073417,10.4991773 14.0073396,10.4983547 14.0073356,10.497532 L13.9925277,7.49753205 C13.9911694,7.22235633 13.7677128,7 13.4925337,7 L10.4958549,7 C10.2197125,7 9.99585488,7.22385763 9.99585488,7.5 C9.99585488,7.50082266 9.99585691,7.50164531 9.99586097,7.50246795 Z M7.99751577,0.502467954 C7.99751171,0.501645309 7.99750968,0.500822655 7.99750968,0.5 C7.99750968,0.223857625 8.2213673,3.21361719e-14 8.49750968,3.20854454e-14 L10.4950158,3.19744231e-14 C10.7701949,3.19238735e-14 10.9936514,0.222356331 10.9950097,0.497532046 L11.0048816,2.49753205 C11.0048857,2.49835469 11.0048877,2.49917734 11.0048877,2.5 C11.0048877,2.77614237 10.7810301,3 10.5048877,3 L8.50738161,3 C8.23220255,3 8.00874596,2.77764367 8.0073877,2.50246795 L7.99751577,0.502467954 Z M1.00013565,8 C0.447850901,8 0.000135651239,7.55228475 0.000135651239,7 C0.000135651239,6.44771525 0.447850901,6 1.00013565,6 C1.5524204,6 2.00013565,6.44771525 2.00013565,7 C2.00013565,7.55228475 1.5524204,8 1.00013565,8 Z"></path>
</svg>
