<?xml version="1.0" encoding="UTF-8"?>
<svg width="15px" height="15px" viewBox="0 0 15 15" version="1.1" xmlns="http://www.w3.org/2000/svg" xmlns:xlink="http://www.w3.org/1999/xlink">
    <path d="M7.75,12.5 L7.5,13 L11.5,13 L11.25,12.5 L12.75,12.5 L14,15 L12.5,15 L12,14 L7,14 L6.5,15 L5,15 L6.25,12.5 L7.75,12.5 Z M15,4 L15,10 C15,11.1045695 14.1045695,12 13,12 L6,12 C4.8954305,12 4,11.1045695 4,10 L4,4 C4,2.8954305 4.8954305,2 6,2 L13,2 C14.1045695,2 15,2.8954305 15,4 Z M11,10 C11,10.5522847 11.4477153,11 12,11 C12.5522847,11 13,10.5522847 13,10 C13,9.44771525 12.5522847,9 12,9 C11.4477153,9 11,9.44771525 11,10 Z M8,10 C8,9.44771525 7.55228475,9 7,9 C6.44771525,9 6,9.44771525 6,10 C6,10.5522847 6.44771525,11 7,11 C7.55228475,11 8,10.5522847 8,10 Z M4.9966931,5.50329057 L5.00985569,7.50329057 C5.01166457,7.77814281 5.23498667,8 5.50984486,8 L8.50651425,8 C8.78265663,8 9.00651425,7.77614237 9.00651425,7.5 C9.00651425,7.49890313 9.00651064,7.49780627 9.00650342,7.49670943 L8.99334084,5.49670943 C8.99153196,5.22185719 8.76820986,5 8.49335167,5 L5.49668228,5 C5.2205399,5 4.99668228,5.22385763 4.99668228,5.5 C4.99668228,5.50109687 4.99668588,5.50219373 4.9966931,5.50329057 Z M9.9966931,5.50329057 L10.0098557,7.50329057 C10.0116646,7.77814281 10.2349867,8 10.5098449,8 L13.5065143,8 C13.7826566,8 14.0065143,7.77614237 14.0065143,7.5 C14.0065143,7.49890313 14.0065106,7.49780627 14.0065034,7.49670943 L13.9933408,5.49670943 C13.991532,5.22185719 13.7682099,5 13.4933517,5 L10.4966823,5 C10.2205399,5 9.99668228,5.22385763 9.99668228,5.5 C9.99668228,5.50109687 9.99668588,5.50219373 9.9966931,5.50329057 Z M6,3.49999446 C6,3.77613378 6.22385515,3.99998893 6.49999446,3.99998893 L12.4999848,3.99998893 C12.7761258,3.99998893 12.9999839,3.77613546 12.9999896,3.49999446 C12.9999954,3.22386086 12.7761495,3.00000572 12.5000159,3 C12.5000124,3 12.500009,3 12.5000055,3 L6.49999446,3 C6.22385515,3 6,3.22385515 6,3.49999446 Z M2.22044605e-15,1.03250741e-14 L15,1.03250741e-14 L15,1 L2.22044605e-15,1 L2.22044605e-15,1.03250741e-14 Z M1.5,9.8662178 L1.5,11 L1.47434165,11.1581139 L0.974341649,12.6581139 C0.887017763,12.9200855 0.603857776,13.0616655 0.341886117,12.9743416 C0.079914458,12.8870178 -0.0616655353,12.6038578 0.025658351,12.3418861 L0.5,10.9188612 L0.5,9.8662178 C0.201099315,9.69331309 4.20651469e-15,9.37014118 3.99680289e-15,9 L4.4408921e-15,7.25 C4.37326499e-15,6.69771525 0.44771525,6.25 1,6.25 C1.20998493,6.25 1.40485322,6.31472202 1.56574434,6.42530552 L2.41018328,6.88270994 L3.14644661,6.14644661 C3.34170876,5.95118446 3.65829124,5.95118446 3.85355339,6.14644661 C4.04881554,6.34170876 4.04881554,6.65829124 3.85355339,6.85355339 L2.85355339,7.85355339 C2.69709673,8.01001005 2.45641332,8.04502989 2.26185843,7.93964598 L2,7.797806 L2,8.94098301 L3.2236068,9.5527864 C3.39299881,9.63748241 3.5,9.81061397 3.5,10 L3.5,11.5 C3.5,11.7761424 3.27614237,12 3,12 C2.72385763,12 2.5,11.7761424 2.5,11.5 L2.5,10.309017 L1.55110337,9.83456868 C1.53441278,9.84561243 1.51737156,9.8561689 1.5,9.8662178 Z M1,6 C0.44771525,6 3.55271368e-15,5.55228475 3.55271368e-15,5 C3.55271368e-15,4.44771525 0.44771525,4 1,4 C1.55228475,4 2,4.44771525 2,5 C2,5.55228475 1.55228475,6 1,6 Z"></path>
</svg>
