<?xml version="1.0" encoding="UTF-8"?>
<svg width="15px" height="15px" viewBox="0 0 15 15" version="1.1" xmlns="http://www.w3.org/2000/svg" xmlns:xlink="http://www.w3.org/1999/xlink">
    <path d="M10,5 L12.1654236,5 C12.6487098,5 13.0628407,5.34562387 13.1492936,5.82111456 L13.9638757,10.3013163 C13.9877179,10.4324486 13.9851058,10.5670239 13.9561928,10.6971322 L13.1740155,14.2169305 C13.0723404,14.674468 12.666527,15 12.1978284,15 L6.80217161,15 C6.33347296,15 5.92765956,14.674468 5.82598455,14.2169305 L5.04380716,10.6971322 C5.01489421,10.5670239 5.01228208,10.4324486 5.03612431,10.3013163 L5.85070644,5.82111456 C5.9371593,5.34562387 6.35129021,5 6.83457635,5 L9,5 L9,2.8662178 C8.70109931,2.69331309 8.5,2.37014118 8.5,2 L8.5,1.87889111 L1.56201737,2.74613894 C1.2880074,2.78039018 1.03811231,2.58602734 1.00386106,2.31201737 C0.969609815,2.0380074 1.16397266,1.78811231 1.43798263,1.75386106 L8.50836479,0.870063292 C8.5720596,0.379166667 8.99175024,0 9.5,0 C9.92155795,0 10.2821912,0.260849702 10.4292973,0.629946726 L13.4379826,0.253861062 C13.7119926,0.219609815 13.9618877,0.413972663 13.9961389,0.687982633 C14.0303902,0.961992602 13.8360273,1.21188769 13.5620174,1.24613894 L10.5,1.62889111 L10.5,2 C10.5,2.37014118 10.2989007,2.69331309 10,2.8662178 L10,5 Z M10,6.25 L10,9.75 C10,9.88807119 10.1119288,10 10.25,10 L12.6967821,10 C12.8348533,10 12.9467821,9.88807119 12.9467821,9.75 C12.9467821,9.7340041 12.9452469,9.71804511 12.9421976,9.70234254 L12.2625294,6.20234254 C12.2397118,6.08484146 12.13681,6 12.0171139,6 L10.25,6 C10.1119288,6 10,6.11192881 10,6.25 L10,6.25 Z M9,9.75 L9,6.25 C9,6.11192881 8.88807119,6 8.75,6 L6.98288609,6 C6.86319003,6 6.76028823,6.08484146 6.73747059,6.20234254 L6.05780238,9.70234254 C6.05475308,9.71804511 6.05321787,9.7340041 6.05321787,9.75 C6.05321787,9.88807119 6.16514669,10 6.30321787,10 L8.75,10 C8.88807119,10 9,9.88807119 9,9.75 Z M2.50013565,11.8662178 L2.50013565,13 L2.4744773,13.1581139 L1.9744773,14.6581139 C1.88715341,14.9200855 1.60399343,15.0616655 1.34202177,14.9743416 C1.08005011,14.8870178 0.938470116,14.6038578 1.025794,14.3418861 L1.50013565,12.9188612 L1.50013565,11.8662178 C1.20123497,11.6933131 1.00013565,11.3701412 1.00013565,11 L1.00013565,9.25 C1.00013565,8.69771525 1.4478509,8.25 2.00013565,8.25 C2.21012058,8.25 2.40498887,8.31472202 2.56588,8.42530552 L3.41031893,8.88270994 L4.14658226,8.14644661 C4.34184441,7.95118446 4.6584269,7.95118446 4.85368904,8.14644661 C5.04895119,8.34170876 5.04895119,8.65829124 4.85368904,8.85355339 L3.85368904,9.85355339 C3.69723238,10.0100101 3.45654897,10.0450299 3.26199408,9.93964598 L3.00013565,9.797806 L3.00013565,10.940983 L4.22374245,11.5527864 C4.39313446,11.6374824 4.50013565,11.810614 4.50013565,12 L4.50013565,13.5 C4.50013565,13.7761424 4.27627803,14 4.00013565,14 C3.72399328,14 3.50013565,13.7761424 3.50013565,13.5 L3.50013565,12.309017 L2.55123902,11.8345687 C2.53454843,11.8456124 2.51750721,11.8561689 2.50013565,11.8662178 L2.50013565,11.8662178 Z M2.00013565,8 C1.4478509,8 1.00013565,7.55228475 1.00013565,7 C1.00013565,6.44771525 1.4478509,6 2.00013565,6 C2.5524204,6 3.00013565,6.44771525 3.00013565,7 C3.00013565,7.55228475 2.5524204,8 2.00013565,8 Z"></path>
</svg>
