<?xml version="1.0" encoding="UTF-8"?>
<svg width="15px" height="15px" viewBox="0 0 15 15" version="1.1" xmlns="http://www.w3.org/2000/svg" xmlns:xlink="http://www.w3.org/1999/xlink">
    <path d="M10,1 L10,2 L13,2 C14.1045695,2 15,2.8954305 15,4 L15,12 C15,13 14,13 14,13 L14,14 C14,14 14,15 13,15 C12,15 12,14 12,14 L12,13 L7,13 L7,14 C7,14 7,15 6,15 C5,15 5,14 5,14 L5,13 C4,13 4,12 4,12 L4,8.1992 L4,4 C4,2.8954305 4.8954305,2 6,2 L9,2 L9,1 L6.5,1 C6.22385763,1 6,0.776142375 6,0.5 C6,0.223857625 6.22385763,1.24852244e-14 6.5,1.24344979e-14 L12.5,1.24344979e-14 C12.7761424,1.23837713e-14 13,0.223857625 13,0.5 C13,0.776142375 12.7761424,1 12.5,1 L10,1 Z M5.5,5 C5.22385763,5 5,5.22385763 5,5.5 L5,8.5 C5,8.77614237 5.22385763,9 5.5,9 L13.5,9 C13.7761424,9 14,8.77614237 14,8.5 L14,5.5 C14,5.22385763 13.7761424,5 13.5,5 L5.5,5 Z M6,10 C5.4477,10 5,10.4477 5,11 C5,11.5523 5.4477,12 6,12 C6.5523,12 7,11.5523 7,11 C7,10.4477 6.5523,10 6,10 Z M13,10 C12.4477,10 12,10.4477 12,11 C12,11.5523 12.4477,12 13,12 C13.5523,12 14,11.5523 14,11 C14,10.4477 13.5523,10 13,10 Z M6,3.5 C6,3.77614237 6.22385763,4 6.5,4 L12.5,4 C12.7761424,4 13,3.77614237 13,3.5 C13,3.22385763 12.7761424,3 12.5,3 L6.5,3 C6.22385763,3 6,3.22385763 6,3.5 Z M1.5,11.8662178 L1.5,13 L1.47434165,13.1581139 L0.974341649,14.6581139 C0.887017763,14.9200855 0.603857776,15.0616655 0.341886117,14.9743416 C0.079914458,14.8870178 -0.0616655353,14.6038578 0.025658351,14.3418861 L0.5,12.9188612 L0.5,11.8662178 C0.201099315,11.6933131 1.98606864e-15,11.3701412 1.77635684e-15,11 L2.22044605e-15,9.25 C2.15281894e-15,8.69771525 0.44771525,8.25 1,8.25 C1.20998493,8.25 1.40485322,8.31472202 1.56574434,8.42530552 L2.41018328,8.88270994 L3.14644661,8.14644661 C3.34170876,7.95118446 3.65829124,7.95118446 3.85355339,8.14644661 C4.04881554,8.34170876 4.04881554,8.65829124 3.85355339,8.85355339 L2.85355339,9.85355339 C2.69709673,10.0100101 2.45641332,10.0450299 2.26185843,9.93964598 L2,9.797806 L2,10.940983 L3.2236068,11.5527864 C3.39299881,11.6374824 3.5,11.810614 3.5,12 L3.5,13.5 C3.5,13.7761424 3.27614237,14 3,14 C2.72385763,14 2.5,13.7761424 2.5,13.5 L2.5,12.309017 L1.55110337,11.8345687 C1.53441278,11.8456124 1.51737156,11.8561689 1.5,11.8662178 Z M1,8 C0.44771525,8 1.33226763e-15,7.55228475 1.33226763e-15,7 C1.33226763e-15,6.44771525 0.44771525,6 1,6 C1.55228475,6 2,6.44771525 2,7 C2,7.55228475 1.55228475,8 1,8 Z"></path>
</svg>
