<?xml version="1.0" encoding="UTF-8"?>
<svg width="15px" height="15px" viewBox="0 0 15 15" version="1.1" xmlns="http://www.w3.org/2000/svg" xmlns:xlink="http://www.w3.org/1999/xlink">
    <path d="M4,4.51168261 C3.99711904,4.63572204 3.94834872,4.75889371 3.85368904,4.85355339 L2.85368904,5.85355339 C2.69723238,6.01001005 2.45654897,6.04502989 2.26199408,5.93964598 L2.00013565,5.797806 L2.00013565,6.94098301 L3.22374245,7.5527864 C3.39313446,7.63748241 3.50013565,7.81061397 3.50013565,8 L3.50013565,9.5 C3.50013565,9.77614237 3.27627803,10 3.00013565,10 C2.72399328,10 2.50013565,9.77614237 2.50013565,9.5 L2.50013565,8.30901699 L1.55123902,7.83456868 C1.53454843,7.84561243 1.51750721,7.8561689 1.50013565,7.8662178 L1.50013565,9 L1.4744773,9.15811388 L0.9744773,10.6581139 C0.887153414,10.9200855 0.603993427,11.0616655 0.342021768,10.9743416 C0.0800501093,10.8870178 -0.0615298841,10.6038578 0.0257940022,10.3418861 L0.500135651,8.91886117 L0.500135651,7.8662178 C0.201234966,7.69331309 0.000135651239,7.37014118 0.000135651239,7 L0.000135651239,5.25 C0.000135651239,4.69771525 0.447850901,4.25 1.00013565,4.25 C1.21012058,4.25 1.40498887,4.31472202 1.56588,4.42530552 L2.41031893,4.88270994 L3.14658226,4.14644661 C3.34184441,3.95118446 3.6584269,3.95118446 3.85368904,4.14644661 C3.94834872,4.24110629 3.99711904,4.36427796 4,4.48831739 L4,2 C4,0.8954305 4.8954305,-1.86665775e-13 6,-1.87849736e-13 L13,-1.86517468e-13 C14.1045695,-1.86720374e-13 15,0.8954305 15,2 L15,8.76393202 C15,8.91917712 14.9638549,9.07229018 14.8944272,9.21114562 L13.2763932,12.4472136 C13.1070012,12.7859976 12.7607381,13 12.381966,13 L12,13 C11.7238576,13 11.5,12.7761424 11.5,12.5 L11.5,10.75 C11.5,10.3357864 11.1642136,10 10.75,10 L8.25,10 C7.83578644,10 7.5,10.3357864 7.5,10.75 L7.5,12.5 C7.5,12.7761424 7.27614237,13 7,13 L6.61803399,13 C6.23926193,13 5.89299881,12.7859976 5.7236068,12.4472136 L4.10557281,9.21114562 C4.03614509,9.07229018 4,8.91917712 4,8.76393202 L4,4.51168261 Z M8.5,10.5 L10.5,10.5 C10.7761424,10.5 11,10.7238576 11,11 L11,12.5 C11,12.7761424 10.7761424,13 10.5,13 L10,13 L10,15 L9,15 L9,13 L8.5,13 C8.22385763,13 8,12.7761424 8,12.5 L8,11 C8,10.7238576 8.22385763,10.5 8.5,10.5 Z M5,3.5 L5,5.5 C5,5.77614237 5.22385763,6 5.5,6 L13.5,5.99999556 C13.7761406,5.99999556 13.9999975,5.77614064 14,5.5 L14.0000266,3.5 C14.0000291,3.22385763 13.7761734,2.99999801 13.5000311,2.99999556 L5.5,3 C5.22385763,3 5,3.22385763 5,3.5 Z M6,1.49999446 C6,1.77613378 6.22385515,1.99998893 6.49999446,1.99998893 L12.4999848,1.99998893 C12.7761258,1.99998893 12.9999839,1.77613546 12.9999896,1.49999446 C12.9999954,1.22386086 12.7761495,1.00000572 12.5000159,1 C12.5000124,1 12.500009,1 12.5000055,1 L6.49999446,1 C6.22385515,1 6,1.22385515 6,1.49999446 Z M11,8.5 C11,8.77614237 11.2238576,9 11.5,9 L12.935945,9 C13.1172741,9 13.2843916,8.90182731 13.372678,8.74344248 L13.9300952,7.74344248 C13.971584,7.66901192 13.9933621,7.58521288 13.9933621,7.5 C13.9933621,7.22385763 13.7695045,7 13.4933621,7 L11.5,7 C11.2238576,7 11,7.22385763 11,7.5 L11,8.5 Z M8,8.5 L8,7.5 C8,7.22385763 7.77614237,7 7.5,7 L5.50663789,7 C5.23049552,7 5.00663789,7.22385763 5.00663789,7.5 C5.00663789,7.58521288 5.02841597,7.66901192 5.06990484,7.74344248 L5.62732196,8.74344248 C5.71560838,8.90182731 5.8827259,9 6.06405501,9 L7.5,9 C7.77614237,9 8,8.77614237 8,8.5 Z M1.00013565,4 C0.447850901,4 0.000135651239,3.55228475 0.000135651239,3 C0.000135651239,2.44771525 0.447850901,2 1.00013565,2 C1.5524204,2 2.00013565,2.44771525 2.00013565,3 C2.00013565,3.55228475 1.5524204,4 1.00013565,4 Z"></path>
</svg>
