<?xml version="1.0" encoding="UTF-8"?>
<svg width="15px" height="15px" viewBox="0 0 15 15" version="1.1" xmlns="http://www.w3.org/2000/svg" xmlns:xlink="http://www.w3.org/1999/xlink">
    <path d="M11.5039,2 L10,2 C9.2616,2 8.6238,2.4047 8.2774,3 L3.5,3 L2.5,4 L3.5,5 L4.5,4 L5.5,5 L6.5,4 L7.5,5 L8.2774,5 C8.6238,5.5953 9.2616,6 10,6 L11.4982,6 C11.7753,6 12,5.7753 12,5.4982 L12,2.4961 C12,2.2221 11.7779,2 11.5039,2 Z M11,4.5 C11,4.7761 10.7761,5 10.5,5 C10.2239,5 10,4.7761 10,4.5 L10,3.5 C10,3.2238 10.2239,3 10.5,3 C10.7761,3 11,3.2238 11,3.5 L11,4.5 Z"></path>
    <path d="M13,10 C12.9255166,11.8269383 11.9255166,12.7661825 10,12.8177325 L3,12.8177325 L2,10 L10.0184465,10 L8,8.5 L9,8 L12,10 L13,10 Z M5,9.49884545 L2,9.49884545 L2,8 L4,8 C4.55228475,8 5,8.44771525 5,9 L5,9.49884545 Z"></path>
</svg>
