<?xml version="1.0" encoding="UTF-8"?>
<svg version="1.2" baseProfile="tiny" xmlns="http://www.w3.org/2000/svg" viewBox="0 0 50 50" overflow="inherit">
  <path d="M50 40c-1 0 -2.01 -0.24 -2.88 -0.64c-0.89 -0.42 -1.9 -0.67 -2.94 -0.67c-1.06 0 -2.06 0.25 -2.96 0.67c-0.88 0.4 -1.85 0.64 -2.87 0.64c-1.01 0 -1.99 -0.24 -2.86 -0.64c-0.89 -0.42 -1.9 -0.67 -2.96 -0.67c-1.04 0 -2.05 0.25 -2.94 0.67c-0.88 0.4 -1.86 0.64 -2.88 0.64c-1.02 0 -1.99 -0.24 -2.86 -0.64c-0.89 -0.42 -1.9 -0.67 -2.95 -0.67c-1.06 0 -2.05 0.25 -2.95 0.67c-0.88 0.4 -1.85 0.64 -2.87 0.64c-1.02 0 -1.99 -0.24 -2.86 -0.64c-0.9 -0.42 -1.9 -0.67 -2.96 -0.67s-1.77 0.25 -2.67 0.67c-0.87 0.4 -1.58 0.64 -2.58 0.64v-4.38c1 0 1.71 -0.24 2.58 -0.64c0.9 -0.41 1.76 -0.66 2.82 -0.66s1.98 0.25 2.89 0.66c0.87 0.4 1.8 0.64 2.82 0.64s1.98 -0.24 2.86 -0.64c0.89 -0.41 1.88 -0.66 2.94 -0.66c1.05 0 2.06 0.25 2.95 0.66c0.87 0.4 1.84 0.64 2.86 0.64c1.02 0 1.99 -0.24 2.88 -0.64c0.89 -0.41 1.9 -0.66 2.94 -0.66c1.05 0 2.06 0.25 2.96 0.66c0.87 0.4 1.86 0.64 2.86 0.64c1.02 0 2 -0.24 2.88 -0.64c0.9 -0.41 1.9 -0.66 2.96 -0.66c1.04 0 2.05 0.25 2.94 0.66c0.87 0.4 1.88 0.64 2.88 0.64v4.38zm-11.71 -18.29l8.47 0.67l-0.64 -4.4l-6.21 -0.45c-1.68 -0.08 -1.44 1.63 -1.44 1.63l-0.17 2.55zm-15.7 -1c1.56 0 2.81 -1.27 2.81 -2.85c0 -1.58 -1.25 -2.85 -2.81 -2.85c-1.55 0 -2.8 1.27 -2.8 2.86s1.25 2.86 2.8 2.86zm-17.32 11.01c0.36 -0.11 0.71 -0.25 1.03 -0.4c0.91 -0.42 1.9 -0.67 2.96 -0.67s2.05 0.25 2.96 0.67c0.87 0.4 1.84 0.64 2.86 0.64c1.02 0 1.99 -0.23 2.88 -0.64c0.89 -0.42 1.89 -0.67 2.95 -0.67c1.05 0 2.06 0.25 2.95 0.67c0.87 0.4 1.84 0.64 2.86 0.64c1.02 0 1.99 -0.23 2.88 -0.64c0.89 -0.42 1.9 -0.67 2.95 -0.67c1.05 0 2.06 0.25 2.96 0.67c0.87 0.4 1.86 0.64 2.86 0.64c1.02 0 2 -0.23 2.88 -0.64c0.9 -0.42 1.9 -0.67 2.96 -0.67c1.04 0 2.05 0.25 2.94 0.67c0.87 0.4 1.84 0.64 2.87 0.64l-0.95 -7.81l-35.19 -3l5.31 -5.45l-2.33 -0.21l-5.3 5.46l-11.52 -0.97c-0.07 4 4.31 10.65 5.26 11.74z"/>
</svg>