<?xml version="1.0" encoding="UTF-8"?>
<svg width="15px" height="15px" viewBox="0 0 15 15" version="1.1" xmlns="http://www.w3.org/2000/svg" xmlns:xlink="http://www.w3.org/1999/xlink">
    <path d="M12,3 L5.7889,3 C5.4029,2.1177 4.5247,1.5 3.5,1.5 C2.4753,1.5 1.5971,2.1177 1.2111,3 L3.5,3 L4,4 L3.5,5 L1.2111,5 C1.5972,5.8821 2.4754,6.5 3.5,6.5 C4.5246,6.5 5.4028,5.8821 5.7889,5 L12,5 C12.5527,5 13,4.5522 13,4 C13,3.4478 12.5527,3 12,3 Z"></path>
    <path d="M13,10 C12.9255166,11.8269383 11.9255166,12.7661825 10,12.8177325 L3,12.8177325 L2,10 L10.0184465,10 L8,8.5 L9,8 L12,10 L13,10 Z M5,9.49884545 L2,9.49884545 L2,8 L4,8 C4.55228475,8 5,8.44771525 5,9 L5,9.49884545 Z"></path>
</svg>
