<?xml version="1.0" encoding="UTF-8"?>
<svg version="1.2" baseProfile="tiny" xmlns="http://www.w3.org/2000/svg" viewBox="0 0 50 50" overflow="inherit">
  <path d="M8.5 7.09l9.57 2.64l5.31 -3.73l1.85 0.46l-5.26 3.74l28.99 8.05l-2.12 7.88l-29.09 -8.03c-11.27 -3.4 -9.22 -11.01 -9.22 -11.01"/>
  <path d="M33.96 27.26c-0.04 -0.66 -0.16 -1.28 -0.37 -1.88l13.28 3.7l-0.43 1.64l-12.48 -3.46zm-12.07 -3.33c0.36 -0.52 0.78 -0.99 1.26 -1.4l-22.15 -6.12v1.76l20.89 5.76zm5.49 5.84c1.19 0 2.16 -0.97 2.16 -2.16c0 -1.19 -0.97 -2.16 -2.16 -2.16c-1.19 0 -2.16 0.97 -2.16 2.16c0 1.19 0.97 2.16 2.16 2.16zm21.62 13.24c-1.05 0 -2.05 -0.24 -2.94 -0.65c-0.93 -0.42 -1.96 -0.67 -3.05 -0.67c-1.08 0 -2.12 0.25 -3.03 0.67c-0.9 0.41 -1.9 0.65 -2.95 0.65c-1.05 0 -2.05 -0.24 -2.95 -0.65c-0.92 -0.42 -1.95 -0.67 -3.03 -0.67c-1.09 0 -2.12 0.25 -3.04 0.67c-0.89 0.41 -1.9 0.65 -2.95 0.65c-1.04 0 -2.05 -0.24 -2.95 -0.65c-0.93 -0.42 -1.97 -0.67 -3.05 -0.67c-1.08 0 -2.12 0.25 -3.03 0.67c-0.9 0.41 -1.91 0.65 -2.96 0.65c-1.04 0 -2.05 -0.24 -2.95 -0.65c-0.92 -0.42 -1.96 -0.67 -3.04 -0.67c-1.08 0 -2.12 0.25 -3.04 0.67c-0.9 0.41 -1.91 0.65 -2.95 0.65l-0.07 -17.6l24.23 6.69c-1.67 -0.81 -2.83 -2.5 -2.83 -4.48c0 -2.75 2.23 -4.98 4.98 -4.98c2.74 0 4.98 2.23 4.98 4.98c0 2.75 -2.23 4.98 -4.98 4.98l-0.49 -0.05l22.08 6.09l0.04 4.38z"/>
</svg>