<?xml version="1.0" encoding="UTF-8"?>
<svg viewBox="0 0 15 15" version="1.1" xmlns="http://www.w3.org/2000/svg" xmlns:xlink="http://www.w3.org/1999/xlink">
  <path d="M11.16 9.61C11.09 9.55 11.03 9.49 10.96 9.44C10.25 8.85 9.21 8.85 8.5 9.44C8.34 9.56 8.19 9.71 8.03 9.84C7.94 9.92 7.82 9.97 7.71 10L7.35 10C7.24 9.97 7.12 9.92 7.03 9.84C6.87 9.71 6.72 9.56 6.56 9.44C5.85 8.86 4.82 8.86 4.11 9.44C3.95 9.56 3.82 9.7 3.66 9.82C3.57 9.89 3.46 9.94 3.35 9.97C3.05 10.04 2.75 9.95 2.54 9.73C2.47 9.67 2.41 9.62 2.34 9.57L1 6L10.5 6L8.5 4L9.5 3.5L12.5 6L14 6C14 7.46 12.66 8.93 11.16 9.61L11.16 9.61ZM5.41 10L5.13 10C5.22 9.98 5.32 9.98 5.41 10L5.41 10ZM5 5.5L1 5.5L1 3.5L4 3.5C4.55 3.5 5 3.95 5 4.5L5 5.5ZM14 10.03L14 11C13.74 11.02 13.49 11.14 13.32 11.34C13.05 11.62 12.7 11.82 12.32 11.92C11.71 12.1 11.04 11.97 10.55 11.56L10.16 11.22C9.86 10.92 9.36 10.92 9.06 11.22C8.92 11.34 8.79 11.46 8.64 11.58C7.91 12.15 6.86 12.13 6.16 11.51L5.77 11.17C5.48 10.93 5.06 10.93 4.77 11.17C4.58 11.32 4.41 11.48 4.22 11.63C3.52 12.14 2.55 12.12 1.87 11.57L1.56 11.31C1.42 11.14 1.22 11.04 1 11L1 10.03C1.26 9.99 1.52 10.04 1.75 10.16C2.03 10.33 2.29 10.52 2.54 10.73C2.75 10.95 3.05 11.04 3.35 10.97C3.46 10.94 3.57 10.89 3.66 10.82C3.82 10.7 3.95 10.56 4.11 10.44C4.82 9.86 5.85 9.86 6.56 10.44C6.72 10.56 6.87 10.71 7.03 10.84C7.32 11.08 7.74 11.08 8.03 10.84C8.19 10.71 8.34 10.56 8.5 10.44C9.21 9.85 10.25 9.85 10.96 10.44C11.11 10.56 11.25 10.7 11.4 10.82C11.69 11.06 12.11 11.06 12.4 10.82L12.87 10.42C13.19 10.16 13.59 10.02 14 10.03Z"/>
</svg>