<?xml version="1.0" encoding="UTF-8"?>
<svg width="15px" height="15px" viewBox="0 0 15 15" version="1.1" xmlns="http://www.w3.org/2000/svg" xmlns:xlink="http://www.w3.org/1999/xlink">
    <path d="M11.1554969,9.60868028 C11.0911352,9.55095267 11.0265519,9.49258741 10.96,9.43614836 C10.2477,8.85461721 9.2123,8.85461721 8.5,9.43614836 C8.34,9.56335524 8.19,9.71013241 8.03,9.83733929 C7.93517881,9.91839562 7.824924,9.97261586 7.7094551,10 L7.35054022,10 C7.235076,9.97261586 7.12482119,9.91839562 7.03,9.83733929 C6.87,9.71013241 6.72,9.56335524 6.56,9.43614836 C5.8494,8.85999904 4.8206,8.85999904 4.11,9.43614836 C3.95,9.56335524 3.82,9.70034726 3.66,9.817769 C3.5677,9.88861345 3.4625,9.94174678 3.35,9.97433131 C3.0547,10.0418488 2.7451,9.94840068 2.54,9.7297027 C2.47351782,9.67350317 2.40583885,9.61871458 2.33701342,9.56536912 L1,6 L10.5,6 L8.5,4 L9.5,3.5 L12.5,6 L14,6 C14,7.46480956 12.6589581,8.92961913 11.1554969,9.60868028 L11.1554969,9.60868028 Z M5.41486193,10 L5.12513807,10 C5.2207683,9.98188796 5.3192317,9.98188796 5.41486193,10 L5.41486193,10 Z M5,5.5 L1,5.5 L1,3.5 L4,3.5 C4.55228475,3.5 5,3.94771525 5,4.5 L5,5.5 Z M14,10.0251723 L14,11.0036867 C13.7374,11.0226699 13.4931,11.1422444 13.32,11.3363817 C13.0483,11.6184874 12.7022,11.821627 12.32,11.9234903 C11.7053,12.1010907 11.0405,11.9650772 10.55,11.56144 L10.16,11.2189599 C9.8557,10.9228615 9.3643,10.9228615 9.06,11.2189599 C8.92,11.3363817 8.79,11.4635885 8.64,11.5810103 C7.9072,12.1540284 6.8586,12.1250643 6.16,11.5125143 L5.77,11.1700342 C5.4836,10.9252099 5.0564,10.9252099 4.77,11.1700342 C4.58,11.3168114 4.41,11.4831588 4.22,11.629936 C3.5157,12.1402313 2.5468,12.116062 1.87,11.5712251 L1.56,11.3070262 C1.4153,11.1448864 1.2172,11.0375433 1,11.0036867 L1,10.0251723 C1.2585,9.99385982 1.5205,10.0417092 1.75,10.1621643 C2.0282,10.3306645 2.2924,10.5203985 2.54,10.7297027 C2.7451,10.9484007 3.0547,11.0418488 3.35,10.9743313 C3.4625,10.9417468 3.5677,10.8886134 3.66,10.817769 C3.82,10.7003473 3.95,10.5633552 4.11,10.4361484 C4.8206,9.85999904 5.8494,9.85999904 6.56,10.4361484 C6.72,10.5633552 6.87,10.7101324 7.03,10.8373393 C7.3164,11.0821636 7.7436,11.0821636 8.03,10.8373393 C8.19,10.7101324 8.34,10.5633552 8.5,10.4361484 C9.2123,9.85461721 10.2477,9.85461721 10.96,10.4361484 C11.11,10.5633552 11.25,10.7003473 11.4,10.817769 C11.6864,11.0625933 12.1136,11.0625933 12.4,10.817769 L12.87,10.4165781 C13.1895,10.1629471 13.5886,10.024683 14,10.0251723 Z"></path>
</svg>
