<?xml version="1.0" encoding="UTF-8"?>
<svg width="15px" height="15px" viewBox="0 0 15 15" version="1.1" xmlns="http://www.w3.org/2000/svg" xmlns:xlink="http://www.w3.org/1999/xlink">
    <path d="M3,4 L-2.84217094e-14,4 L-2.84217094e-14,3.5 C-2.85231625e-14,2.67157288 0.671572875,2 1.5,2 C2.32842712,2 3,2.67157288 3,3.5 L3,4 Z M3,5 L3,13 L-2.84217094e-14,13 L-2.84217094e-14,5 L3,5 Z M9,4 L6,4 L6,3.5 C6,2.67157288 6.67157288,2 7.5,2 C8.32842712,2 9,2.67157288 9,3.5 L9,4 Z M9,5 L9,13 L6,13 L6,5 L9,5 Z M15,4 L12,4 L12,3.5 C12,2.67157288 12.6715729,2 13.5,2 C14.3284271,2 15,2.67157288 15,3.5 L15,4 Z M15,5 L15,13 L12,13 L12,5 L15,5 Z"></path>
</svg>
