<?xml version="1.0" encoding="UTF-8"?>
<!DOCTYPE svg PUBLIC "-//W3C//DTD SVG 1.1//EN" "http://www.w3.org/Graphics/SVG/1.1/DTD/svg11.dtd">
<svg version="1.1" xmlns="http://www.w3.org/2000/svg" xmlns:xlink="http://www.w3.org/1999/xlink" x="0" y="0" width="15" height="15" viewBox="0 0 15 15">
<path d="M3,1.5 C3.25,1.75 3,2 3,3 C3,4.5 3,5 3.5,5.5 C4,6 4,6.5 4,8 C4,8 4,13.5 4,13.5 C4,14.5 0,14.5 0,13.5 C-0,13.5 0,8 0,8 C-0,6.5 -0,6 0.5,5.5 C1,5 1,4.5 1,3 C1,2 0.75,1.75 1,1.5 C1.25,1.75 2.75,1.75 3,1.5 z M1,0.5 C0.75,0.75 1,0.75 1,1 C1.25,1.25 2.75,1.25 3,1 C3,0.75 3.25,0.75 3,0.5 C2.5,0.5 1.5,0.5 1,0.5 z"/>
<path d="M8.5,1.5 C8.75,1.75 8.5,2 8.5,3 C8.5,4.5 8.5,5 9,5.5 C9.5,6 9.5,6.5 9.5,8 C9.5,8 9.5,13.5 9.5,13.5 C9.5,14.5 5.5,14.5 5.5,13.5 C5.5,13.5 5.5,8 5.5,8 C5.5,6.5 5.5,6 6,5.5 C6.5,5 6.5,4.5 6.5,3 C6.5,2 6.25,1.75 6.5,1.5 C6.75,1.75 8.25,1.75 8.5,1.5 z M6.5,0.5 C6.25,0.75 6.5,0.75 6.5,1 C6.75,1.25 8.25,1.25 8.5,1 C8.5,0.75 8.75,0.75 8.5,0.5 C8,0.5 7,0.5 6.5,0.5 z"/>
<path d="M14,1.5 C14.25,1.75 14,2 14,3 C14,4.5 14,5 14.5,5.5 C15,6 15,6.5 15,8 C15,8 15,13.5 15,13.5 C15,14.5 11,14.5 11,13.5 C11,13.5 11,8 11,8 C11,6.5 11,6 11.5,5.5 C12,5 12,4.5 12,3 C12,2 11.75,1.75 12,1.5 C12.25,1.75 13.75,1.75 14,1.5 z M12,0.5 C11.75,0.75 12,0.75 12,1 C12.25,1.25 13.75,1.25 14,1 C14,0.75 14.25,0.75 14,0.5 C13.5,0.5 12.5,0.5 12,0.5 z"/>
</svg>
