<?xml version="1.0" encoding="UTF-8"?>
<svg viewBox="0 0 15 15" version="1.1" xmlns="http://www.w3.org/2000/svg" xmlns:xlink="http://www.w3.org/1999/xlink">
  <path d="M1,1 L6,2 L3.794,2.734 L5.00080171,3.93984282 C7.37578208,1.96901917 10.5375117,1.72914804 14.3430502,3.15622499 C14.8601705,3.35014511 15.122176,3.92655728 14.9282559,4.44367761 C14.7459611,4.9297971 14.2256596,5.19047268 13.7343499,5.05888692 L9.926,8.866 L11.154,10.094 L12,10 L14.9383632,12.5355339 L12.9360055,12.9360055 L12.5355339,14.9383632 L10,12 L10.094,11.154 L8.866,9.926 L5.057,13.734 L5.06341002,13.7524837 C5.18395013,14.2384391 4.9237384,14.7483096 4.44355524,14.9283783 C3.92643492,15.1222984 3.35002275,14.8602929 3.15610263,14.3431725 C1.72902568,10.537634 1.96889681,7.37590444 3.93972046,5.00092407 L2.735,3.795 L2,6 L1,1 Z M4.70163747,12.6759455 L8.159,9.219 L5.36351602,6.42346919 C4.14629543,7.99962524 3.91168098,10.0525442 4.70163747,12.6759455 Z M6.42334683,5.36363838 L9.219,8.159 L12.6767559,4.70204074 C10.0529084,3.91174775 7.99968968,4.14627354 6.42334683,5.36363838 Z"/>
</svg>