<?xml version="1.0" encoding="UTF-8"?>
<!DOCTYPE svg PUBLIC "-//W3C//DTD SVG 1.1//EN" "http://www.w3.org/Graphics/SVG/1.1/DTD/svg11.dtd">
<svg version="1.1" xmlns="http://www.w3.org/2000/svg" xmlns:xlink="http://www.w3.org/1999/xlink" x="0" y="0" width="15" height="15" viewBox="0 0 15 15">
    <path d="M1.5,14 C1.336,13.145 0.871,11.403 1,9.5 C1.156,7.187 2.403,5.801 2.5,5.5 C2.672,4.969 2.671,4.672 2.5,4 C2.281,3.141 1.5,0.5 3.25,0.5 C5,0.5 4.204,3.093 4,4 C3.859,4.625 3.859,5.062 4,5.5 C4.105,5.827 5.234,7.391 5.5,9.5 C5.753,11.51 5.22,13.026 5,14 C4.78,14.975 1.688,14.982 1.5,14 z M10.5,8 C10.776,8 11,8.224 11,8.5 C11,8.776 10.776,9 10.5,9 C10.224,9 10,8.776 10,8.5 C10,8.224 10.224,8 10.5,8 z M12.5,8.5 C12.776,8.5 13,8.724 13,9 C13,9.276 12.776,9.5 12.5,9.5 C12.224,9.5 12,9.276 12,9 C12,8.724 12.224,8.5 12.5,8.5 z M11,10 C11.276,10 11.5,10.224 11.5,10.5 C11.5,10.776 11.276,11 11,11 C10.724,11 10.5,10.776 10.5,10.5 C10.5,10.224 10.724,10 11,10 z M10.5,6.5 C8.291,6.5 6.5,8.291 6.5,10.5 C6.5,12.709 8.291,14.5 10.5,14.5 C12.709,14.5 14.5,12.709 14.5,10.5 C14.5,8.291 12.709,6.5 10.5,6.5 z"/>
</svg>
