<?xml version="1.0" encoding="UTF-8"?>
<svg version="1.2" baseProfile="tiny" xmlns="http://www.w3.org/2000/svg" viewBox="0 0 50 50" overflow="inherit">
  <path d="M31.57 30.16s-1.88 -4.69 -3.7 -9.17c0 0 -0.61 -2.69 -0.13 -6.27c0 0 1.3 -5.46 0.57 -8.05c0 0 -1.11 -2.21 -3.41 -2.37c0 0 -3.17 0.22 -3.77 3.31c0 0 -0.15 1.78 0.34 3.83c0 0 1.78 6.8 -0.17 11.23c0 0 -2.72 5.68 -2.93 6.98c0 0 -1.02 5.57 -0.02 9.66c0 0 2.1 7.01 3.64 9.34c0 0 3.12 0.8 5.8 -0.07c0 0 3.21 -5.2 3.86 -9.9c0 0 0.8 -4.97 -0.09 -8.53zm10.01 -3.3s-1.88 -4.69 -3.7 -9.17c0 0 -0.61 -2.69 -0.13 -6.26c0 0 1.3 -5.46 0.57 -8.05c0 0 -1.1 -2.21 -3.4 -2.37c0 0 -3.17 0.22 -3.77 3.31c0 0 -0.16 1.78 0.34 3.84c0 0 1.78 6.8 -0.18 11.23c0 0 -0.42 0.89 -0.95 2.03c1.71 4.2 3.35 8.29 3.35 8.29l0.03 0.07l0.02 0.07c0.94 3.73 0.14 8.75 0.11 8.93c-0.3 2.23 -1.15 4.52 -1.98 6.38l0.12 0.2s3.12 0.8 5.8 -0.08c0 0 3.21 -5.19 3.85 -9.9c0 0 0.81 -4.97 -0.09 -8.53zm-22.35 -4.6c0.11 -0.23 0.19 -0.49 0.28 -0.74c-0.49 -1.21 -1.02 -2.51 -1.54 -3.81c0 0 -0.62 -2.7 -0.13 -6.27c0 0 1.3 -5.46 0.58 -8.05c0 0 -1.11 -2.21 -3.41 -2.37c0 0 -3.18 0.23 -3.77 3.3c0 0 -0.15 1.79 0.34 3.84c0 0 1.78 6.8 -0.18 11.24c0 0 -2.72 5.68 -2.94 6.98c0 0 -1.02 5.57 -0.02 9.66c0 0 2.1 7.01 3.64 9.33c0 0 3.13 0.8 5.8 -0.07l0.17 -0.28c-0.98 -2.58 -1.78 -5.23 -1.84 -5.45c-1.04 -4.27 -0.04 -9.87 0 -10.09c0.23 -1.38 2.56 -6.3 3.01 -7.24z"/>
</svg>