<?xml version="1.0" encoding="UTF-8"?>
<!DOCTYPE svg PUBLIC "-//W3C//DTD SVG 1.1//EN" "http://www.w3.org/Graphics/SVG/1.1/DTD/svg11.dtd">
<svg version="1.1" xmlns="http://www.w3.org/2000/svg" xmlns:xlink="http://www.w3.org/1999/xlink" x="0" y="0" width="15" height="15" viewBox="0 0 15 15">
<path d="M3,11.5 C3,11.5 4,10 4,10 C4,10 9,9 4.5,9 C4.5,9 5.5,7.5 5.5,7.5 C5.5,7.5 10.5,6.5 6,6.5 C6,6.5 7,5 7,5 C7,5 12,4 7.5,4 C7.5,4 9,2 9,2 C11.5,-1 14.5,0.5 11.5,5.5 C11.5,5.5 7,12.5 7,12.5 C4.5,16.5 1,15 3,11.5 z"/>
</svg>
