<?xml version="1.0" encoding="UTF-8"?>
<svg width="15px" height="15px" viewBox="0 0 15 15" version="1.1" xmlns="http://www.w3.org/2000/svg" xmlns:xlink="http://www.w3.org/1999/xlink">
    <path d="M10.0882019,9.82472873 L9.44541426,9.05868429 L8.2963476,10.0228657 C8.08481026,10.2003666 7.76943247,10.1727746 7.59193157,9.96123729 L7.08688416,9.35934523 L3.68682922,9.97448901 L0.188820339,1.61980859 C0.104270188,1.41786814 0.160926062,1.18440744 0.328633247,1.0436844 L0.83715931,0.616980372 C1.0048665,0.476257335 1.24461859,0.461002215 1.42880913,0.57933445 L9.04914032,5.47497574 L7.8529286,8.71655762 L8.03658221,8.93542746 L9.18564887,7.97124604 C9.3971862,7.79374515 9.712564,7.82133713 9.8900649,8.03287446 L10.8542463,9.18194112 C11.0657836,9.00444023 11.3811614,9.03203221 11.5586623,9.24356954 L14.7726004,13.0737918 C14.9501013,13.2853291 14.9225093,13.6007069 14.710972,13.7782078 L13.9449275,14.4209954 C13.7333902,14.5984963 13.4180124,14.5709043 13.2405115,14.359367 L10.0265735,10.5291448 C9.84907256,10.3176074 9.87666454,10.0022296 10.0882019,9.82472873 L10.0882019,9.82472873 Z M5.21849317,8.68114318 L5.08240955,6.19264349 L7.50947266,6.75878313 L7.8329424,5.88222122 L1.30040734,1.68542877 L4.29907827,8.84748531 L5.21849317,8.68114318 Z"></path>
</svg>
