<?xml version="1.0" encoding="UTF-8"?>
<svg viewBox="0 0 15 15" version="1.1" xmlns="http://www.w3.org/2000/svg" xmlns:xlink="http://www.w3.org/1999/xlink">
  <path d="M10,2 C10.5522847,2 11,2.44771525 11,3 L11,4 L13,4 C13.5522847,4 14,4.44771525 14,5 L14,12 C14,12.5522847 13.5522847,13 13,13 L2,13 C1.44771525,13 1,12.5522847 1,12 L1,5 C1,4.44771525 1.44771525,4 2,4 L4,4 L4,3 C4,2.44771525 4.44771525,2 5,2 L10,2 Z M8.25,5 L6.75,5 L6.75,7.201 L4.84391109,6.10048095 L4.09391109,7.39951905 L5.999,8.499 L4.09391109,9.60048095 L4.84391109,10.8995191 L6.75,9.798 L6.75,12 L8.25,12 L8.25,9.799 L10.1560889,10.8995191 L10.9060889,9.60048095 L8.999,8.499 L10.9060889,7.39951905 L10.1560889,6.10048095 L8.25,7.2 L8.25,5 Z M10,3 L5,3 L5,4 L10,4 L10,3 Z"/>
</svg>