<?xml version="1.0" encoding="UTF-8"?>
<svg width="15px" height="15px" viewBox="0 0 15 15" version="1.1" xmlns="http://www.w3.org/2000/svg" xmlns:xlink="http://www.w3.org/1999/xlink">
    <path d="M5,4 L10,4 L10,3 L5,3 L5,4 Z M4,4 L4,3 C4,2.44771525 4.44771525,2 5,2 L10,2 C10.5522847,2 11,2.44771525 11,3 L11,4 L13,4 C13.5522847,4 14,4.44771525 14,5 L14,12 C14,12.5522847 13.5522847,13 13,13 L2,13 C1.44771525,13 1,12.5522847 1,12 L1,5 C1,4.44771525 1.44771525,4 2,4 L4,4 Z M8.5,7.5 L8.5,5.5 C8.5,5.22385763 8.27614237,5 8,5 L7,5 C6.72385763,5 6.5,5.22385763 6.5,5.5 L6.5,7.5 L4.5,7.5 C4.22385763,7.5 4,7.72385763 4,8 L4,9 C4,9.27614237 4.22385763,9.5 4.5,9.5 L6.5,9.5 L6.5,11.5 C6.5,11.7761424 6.72385763,12 7,12 L8,12 C8.27614237,12 8.5,11.7761424 8.5,11.5 L8.5,9.5 L10.5,9.5 C10.7761424,9.5 11,9.27614237 11,9 L11,8 C11,7.72385763 10.7761424,7.5 10.5,7.5 L8.5,7.5 Z"></path>
</svg>
