<?xml version="1.0" encoding="UTF-8"?>
<svg width="15px" height="15px" viewBox="0 0 15 15" version="1.1" xmlns="http://www.w3.org/2000/svg" xmlns:xlink="http://www.w3.org/1999/xlink">
    <path d="M5,4 L10,4 L10,3 L5,3 L5,4 Z M4,4 L4,3 C4,2.44771525 4.44771525,2 5,2 L10,2 C10.5522847,2 11,2.44771525 11,3 L11,4 L13,4 C13.5522847,4 14,4.44771525 14,5 L14,12 C14,12.5522847 13.5522847,13 13,13 L2,13 C1.44771525,13 1,12.5522847 1,12 L1,5 C1,4.44771525 1.44771525,4 2,4 L4,4 Z M5.5,7.5 L6.75,8.75 L6.75,10.75 L5.5,12 L9.5,12 L8.25,10.75 L8.25,7.5 L5.5,7.5 Z M7.5,7 C8.05228475,7 8.5,6.55228475 8.5,6 C8.5,5.44771525 8.05228475,5 7.5,5 C6.94771525,5 6.5,5.44771525 6.5,6 C6.5,6.55228475 6.94771525,7 7.5,7 Z"></path>
</svg>
