<?xml version="1.0" encoding="UTF-8"?>
<svg width="15px" height="15px" viewBox="0 0 15 15" version="1.1" xmlns="http://www.w3.org/2000/svg" xmlns:xlink="http://www.w3.org/1999/xlink">
    <path d="M5,4 L10,4 L10,3 L5,3 L5,4 Z M4,4 L4,3 C4,2.44771525 4.44771525,2 5,2 L10,2 C10.5522847,2 11,2.44771525 11,3 L11,4 L13,4 C13.5522847,4 14,4.44771525 14,5 L14,12 C14,12.5522847 13.5522847,13 13,13 L2,13 C1.44771525,13 1,12.5522847 1,12 L1,5 C1,4.44771525 1.44771525,4 2,4 L4,4 Z M4,6 C4,8.66666667 5.16666667,10.6666667 7.5,12 C11,10 11,6 11,6 C11,6 9,7.5 7.5,5 C6.5,6.66666667 5.33333333,7 4,6 Z M7.5,10.8145447 L7.5,6.62876897 C7.50706933,6.62180143 7.51412886,6.61479593 7.52117854,6.6077525 C7.63284247,6.70842248 7.74798023,6.80024172 7.86653766,6.88323192 C8.48461878,7.31588871 9.13135408,7.48260152 9.76517169,7.45031586 C9.61504065,8.00015814 9.39659031,8.54184525 9.09918406,9.05168453 C8.69608618,9.74270947 8.16945677,10.3370028 7.5,10.8145447 L7.5,10.8145447 Z"></path>
</svg>
