<?xml version="1.0" encoding="UTF-8"?>
<svg viewBox="0 0 15 15" version="1.1" xmlns="http://www.w3.org/2000/svg" xmlns:xlink="http://www.w3.org/1999/xlink">
  <path d="M5 4L10 4L10 3L5 3L5 4ZM4 4L4 3C4 2.45 4.45 2 5 2L10 2C10.55 2 11 2.45 11 3L11 4L13 4C13.55 4 14 4.45 14 5L14 12C14 12.55 13.55 13 13 13L2 13C1.45 13 1 12.55 1 12L1 5C1 4.45 1.45 4 2 4L4 4ZM8.5 7.5L8.5 5.5C8.5 5.22 8.28 5 8 5L7 5C6.72 5 6.5 5.22 6.5 5.5L6.5 7.5L4.5 7.5C4.22 7.5 4 7.72 4 8L4 9C4 9.28 4.22 9.5 4.5 9.5L6.5 9.5L6.5 11.5C6.5 11.78 6.72 12 7 12L8 12C8.28 12 8.5 11.78 8.5 11.5L8.5 9.5L10.5 9.5C10.78 9.5 11 9.28 11 9L11 8C11 7.72 10.78 7.5 10.5 7.5L8.5 7.5Z"/>
</svg>