<?xml version="1.0" encoding="UTF-8"?>
<svg viewBox="0 0 15 15" version="1.1" xmlns="http://www.w3.org/2000/svg" xmlns:xlink="http://www.w3.org/1999/xlink">
  <path d="M7.54276392,4 L8.78848753,0.262829175 L10.2115125,0.737170825 L9.12390275,4 L12,4 L10,15 L5,15 L3,4 L7.54276392,4 Z M7.5,11 C7.08578644,11 6.75,11.3357864 6.75,11.75 C6.75,12.1642136 7.08578644,12.5 7.5,12.5 C7.91421356,12.5 8.25,12.1642136 8.25,11.75 C8.25,11.3357864 7.91421356,11 7.5,11 Z M6.25,12.75 C5.83578644,12.75 5.5,13.0857864 5.5,13.5 C5.5,13.9142136 5.83578644,14.25 6.25,14.25 C6.66421356,14.25 7,13.9142136 7,13.5 C7,13.0857864 6.66421356,12.75 6.25,12.75 Z M8.75,12.75 C8.33578644,12.75 8,13.0857864 8,13.5 C8,13.9142136 8.33578644,14.25 8.75,14.25 C9.16421356,14.25 9.5,13.9142136 9.5,13.5 C9.5,13.0857864 9.16421356,12.75 8.75,12.75 Z M7.504,8.75 C7.08978644,8.75 6.754,9.08578644 6.754,9.5 C6.754,9.91421356 7.08978644,10.25 7.504,10.25 C7.91821356,10.25 8.254,9.91421356 8.254,9.5 C8.254,9.08578644 7.91821356,8.75 7.504,8.75 Z M9.5,10 C9.08578644,10 8.75,10.3357864 8.75,10.75 C8.75,11.1642136 9.08578644,11.5 9.5,11.5 C9.91421356,11.5 10.25,11.1642136 10.25,10.75 C10.25,10.3357864 9.91421356,10 9.5,10 Z M5.5,10 C5.08578644,10 4.75,10.3357864 4.75,10.75 C4.75,11.1642136 5.08578644,11.5 5.5,11.5 C5.91421356,11.5 6.25,11.1642136 6.25,10.75 C6.25,10.3357864 5.91421356,10 5.5,10 Z M9.75,7.75 C9.33578644,7.75 9,8.08578644 9,8.5 C9,8.91421356 9.33578644,9.25 9.75,9.25 C10.1642136,9.25 10.5,8.91421356 10.5,8.5 C10.5,8.08578644 10.1642136,7.75 9.75,7.75 Z"/>
</svg>