<?xml version="1.0" encoding="UTF-8"?>
<!DOCTYPE svg PUBLIC "-//W3C//DTD SVG 1.1//EN" "http://www.w3.org/Graphics/SVG/1.1/DTD/svg11.dtd">
<svg version="1.1" xmlns="http://www.w3.org/2000/svg" xmlns:xlink="http://www.w3.org/1999/xlink" x="0" y="0" width="15" height="15" viewBox="0 0 15 15">
    <path d="M2,2 C2.552,2 3,2.448 3,3 L3,3.555 L12.384,12 L13,12 C13.552,12 14,12.448 14,13 C14,13.552 13.552,14 13,14 L2,14 C1.448,14 1,13.552 1,13 C1,12.448 1.448,12 2,12 L2.5,12 L4.874,8 L3,6.208 C2.956,6.732 2.428,6.914 2,7 C1.448,7 1,6.552 1,6 L1,3 C1,2.448 1.448,2 2,2 z M6.389,9.295 L4.75,12 L9.394,12 L6.389,9.295 z"/>
</svg>
