<?xml version="1.0" encoding="UTF-8"?>
<!DOCTYPE svg PUBLIC "-//W3C//DTD SVG 1.1//EN" "http://www.w3.org/Graphics/SVG/1.1/DTD/svg11.dtd">
<svg version="1.1" xmlns="http://www.w3.org/2000/svg" xmlns:xlink="http://www.w3.org/1999/xlink" x="0" y="0" width="15" height="15" viewBox="0 0 15 15">
<path d="M8.5,13 C8.75,13 9,13.25 9,13.5 C9,13.75 8.75,14 8.5,14 L8.25,14 C8.25,14 8,14.5 7.5,14.5 C7,14.5 6.75,14 6.75,14 L6.5,14 C6.25,14 6,13.75 6,13.5 C6,13.25 6.25,13 6.5,13 L8.5,13 z M8.5,11.75 L6.5,11.75 C6.25,11.75 6,12 6,12.25 C6,12.5 6.25,12.75 6.5,12.75 L8.5,12.75 C8.75,12.75 9,12.5 9,12.25 C9,12 8.75,11.75 8.5,11.75 z M7.5,1.3 C10,1.3 11.2,2.5 11.2,4 C11.2,7 9.25,8 8.75,9 C8.25,10 8.25,10.8 7.75,10.8 L7.2,10.8 C6.7,10.8 6.75,10 6.25,9 C5.75,8 3.8,7 3.8,4 C3.8,2.5 5,1.3 7.5,1.3 z M7.5,0.5 C5.5,0.5 3,1.5 3,4 C3,6 4,7.5 5,8.5 C6,9.5 6,11.5 6.5,11.5 C6.5,11.5 8.5,11.5 8.5,11.5 C9,11.5 9,9.5 10,8.5 C11,7.5 12,6 12,4 C12,1.5 9.5,0.5 7.5,0.5 z"/>
<path d="M7.5,4 C8.25,5.25 8.75,5.25 9.75,4.25 C9.75,4.25 8.75,8.5 8.75,8.5 C8.75,8.75 8.25,8.75 8.25,8.5 C8.25,8.5 9,5.25 9,5.25 C8.5,5.5 8.25,5.5 7.5,4.75 C6.75,5.5 6.5,5.5 6,5.25 L6.75,8.5 C6.75,8.75 6.25,8.75 6.25,8.5 C6.25,8.5 5.25,4.25 5.25,4.25 C6.25,5.25 6.75,5.25 7.5,4 z"/>
</svg>
