<?xml version="1.0" encoding="UTF-8"?>
<!DOCTYPE svg PUBLIC "-//W3C//DTD SVG 1.1//EN" "http://www.w3.org/Graphics/SVG/1.1/DTD/svg11.dtd">
<svg version="1.1" xmlns="http://www.w3.org/2000/svg" xmlns:xlink="http://www.w3.org/1999/xlink" x="0" y="0" width="15" height="15" viewBox="0 0 15 15">
<path d="M8.5,11.5 C8.5,11.5 6.5,11.5 6.5,11.5 C6,11.5 6,9.5 5,8.5 C4,7.5 3,6 3,4 C3,1.5 5.5,0.5 7.5,0.5 C9.5,0.5 12,1.5 12,4 C12,6 11,7.5 10,8.5 C9,9.5 9,11.5 8.5,11.5 z M6.5,14 C6.5,14 6.75,14 6.75,14 C6.75,14 7,14.5 7.5,14.5 C8,14.5 8.25,14 8.25,14 C8.25,14 8.5,14 8.5,14 C8.75,14 9,13.75 9,13.5 C9,13.25 8.75,13 8.5,13 L6.5,13 C6.25,13 6,13.25 6,13.5 C6,13.75 6.25,14 6.5,14 z M8.5,11.75 L6.5,11.75 C6.25,11.75 6,12 6,12.25 C6,12.5 6.25,12.75 6.5,12.75 L8.5,12.75 C8.75,12.75 9,12.5 9,12.25 C9,12 8.75,11.75 8.5,11.75 z"/>
</svg>
