<?xml version="1.0" encoding="UTF-8"?>
<!DOCTYPE svg PUBLIC "-//W3C//DTD SVG 1.1//EN" "http://www.w3.org/Graphics/SVG/1.1/DTD/svg11.dtd">
<svg version="1.1" xmlns="http://www.w3.org/2000/svg" xmlns:xlink="http://www.w3.org/1999/xlink" x="0" y="0" width="15" height="15" viewBox="0 0 15 15">
    <path d="M8.5,11.5 C8.25,11.5 6.66,11.5 6.5,11.5 C6,11.5 6,9.5 5,8.5 C3.924,7.424 3,6.016 3,4.5 C3,1.5 5.5,0.5 7.5,0.5 C9.5,0.5 12,1.5 12,4.5 C12,6.024 11.077,7.423 10,8.5 C9,9.5 9,11.5 8.5,11.5 z M6.5,14 L6.75,14 C6.75,14.276 7.086,14.5 7.5,14.5 C7.914,14.5 8.25,14.276 8.25,14 L8.5,14 C8.776,14 9,13.776 9,13.5 C9,13.224 8.776,13 8.5,13 L6.5,13 C6.224,13 6,13.224 6,13.5 C6,13.776 6.224,14 6.5,14 z M8.5,11.75 L6.5,11.75 C6.224,11.75 6,11.974 6,12.25 C6,12.526 6.224,12.75 6.5,12.75 L8.5,12.75 C8.776,12.75 9,12.526 9,12.25 C9,11.974 8.776,11.75 8.5,11.75 z"/>
</svg>
