<?xml version="1.0" encoding="UTF-8"?>
<svg width="15px" height="15px" viewBox="0 0 15 15" version="1.1" xmlns="http://www.w3.org/2000/svg" xmlns:xlink="http://www.w3.org/1999/xlink">
    <path d="M0.5,2 L14.5,2 C14.7761424,2 15,2.22385763 15,2.5 L15,12.5 C15,12.7761424 14.7761424,13 14.5,13 L0.5,13 C0.223857625,13 3.38176876e-17,12.7761424 0,12.5 L0,2.5 C-3.38176876e-17,2.22385763 0.223857625,2 0.5,2 Z M3.30291427,2.75 L1.75,8.54555496 L6.09666622,9.71024066 L7.64958049,3.9146857 L3.30291427,2.75 Z M7.5,6.4146857 L9.05291427,12.2102407 L10.0188401,11.9514216 L9.63061153,10.5025329 L10.5965374,10.2437138 L10.9847659,11.6926026 L13.3995805,11.045555 L12.2319376,6.6878525 L11.8466662,5.25 L7.5,6.4146857 Z"></path>
</svg>
