<?xml version="1.0" encoding="UTF-8"?>
<!DOCTYPE svg PUBLIC "-//W3C//DTD SVG 1.1//EN" "http://www.w3.org/Graphics/SVG/1.1/DTD/svg11.dtd">
<svg version="1.1" xmlns="http://www.w3.org/2000/svg" xmlns:xlink="http://www.w3.org/1999/xlink" x="0" y="0" width="15" height="15" viewBox="0 0 15 15">
<path d="M10.5,9 C12,9 12.5,10 12.5,11 C12.5,12 12,13 10.5,13 L2,13 C0.5,13 0,12 0,11 C0,10 0.5,9 2,9 L10.5,9 z M10.75,10 C10.198,10 9.75,10.448 9.75,11 C9.75,11.552 10.198,12 10.75,12 C11.302,12 11.75,11.552 11.75,11 C11.75,10.448 11.302,10 10.75,10 z M1.75,10 C1.198,10 0.75,10.448 0.75,11 C0.75,11.552 1.198,12 1.75,12 C2.302,12 2.75,11.552 2.75,11 C2.75,10.448 2.302,10 1.75,10 L1.75,10 z M7.75,10 C7.198,10 6.75,10.448 6.75,11 C6.75,11.552 7.198,12 7.75,12 C8.302,12 8.75,11.552 8.75,11 C8.75,10.448 8.302,10 7.75,10 z M4.75,10 C4.198,10 3.75,10.448 3.75,11 C3.75,11.552 4.198,12 4.75,12 C5.302,12 5.75,11.552 5.75,11 C5.75,10.448 5.302,10 4.75,10 z M14,9 C14,5 15.5,5 14.5,5 C13.5,5 12.5,5.5 12.5,9 C12.5,12.5 13.5,13 14.5,13 C15.5,13 14,13 14,9 z M6.4,3 C6.9,3 7,3.5 7,3.5 C7,3.5 7.5,6 7.5,6 L3,6 L3,3 C3,3 6.4,3 6.4,3 z M7,2 L2.5,2 C2.5,2 2,2 2,2.5 C2,2.5 2,6 2,6 C2,6 1.5,6 1.5,6 C1.5,6 1,6 1,6.454 C1,6.5 1,8 1,8 C1,8.5 1.5,8.5 1.5,8.5 C1.5,8.5 12,8.5 12,8.5 C12,8.5 12,6 11,6 C11,6 8.75,6 8.75,6 C8.75,6 7.85,2.65 7.85,2.65 C7.85,2.65 7.75,2 7,2 z"/>
</svg>
