<?xml version="1.0" encoding="UTF-8"?>
<svg width="15px" height="15px" viewBox="0 0 15 15" version="1.1" xmlns="http://www.w3.org/2000/svg" xmlns:xlink="http://www.w3.org/1999/xlink">
    <path d="M2,11 L6,11 L6,9 C6,8.44771525 6.44771525,8 7,8 L13,8 L13,7 L2,7 L2,11 Z M2,12 L2,14 L1,14 L1,1.5 C1,1.22385763 1.22385763,1 1.5,1 C1.77614237,1 2,1.22385763 2,1.5 L2,6 L6,6 L6,4 C6,3.44771525 6.44771525,3 7,3 L12,3 C13.1045695,3 14,3.8954305 14,5 L14,14 L13,14 L13,12.0000098 L6,12 L3.49999356,12.0000144 L3.49616028,12 L2,12 Z M4,5.5 C3.17157288,5.5 2.5,4.82842712 2.5,4 C2.5,3.17157288 3.17157288,2.5 4,2.5 C4.82842712,2.5 5.5,3.17157288 5.5,4 C5.5,4.82842712 4.82842712,5.5 4,5.5 Z M4,10.5 C3.17157288,10.5 2.5,9.82842712 2.5,9 C2.5,8.17157288 3.17157288,7.5 4,7.5 C4.82842712,7.5 5.5,8.17157288 5.5,9 C5.5,9.82842712 4.82842712,10.5 4,10.5 Z"></path>
</svg>
