<?xml version="1.0" encoding="UTF-8"?>
<svg width="15px" height="15px" viewBox="0 0 15 15" version="1.1" xmlns="http://www.w3.org/2000/svg" xmlns:xlink="http://www.w3.org/1999/xlink">
    <path d="M9.68058924,13 C9.60162367,12.9999999 9.52265808,13.0047485 9.44416933,13.0142458 C9.30349614,13.0440659 9.16961021,13.1123039 9.06,13.2189599 C8.92,13.3363817 8.79,13.4635885 8.64,13.5810103 C7.9072,14.1540284 6.8586,14.1250643 6.16,13.5125143 L5.77,13.1700342 C5.4836,12.9252099 5.0564,12.9252099 4.77,13.1700342 C4.58,13.3168114 4.41,13.4831588 4.22,13.629936 C3.5157,14.1402313 2.5468,14.116062 1.87,13.5712251 L1.56,13.3070262 C1.4153,13.1448864 1.2172,13.0375433 1,13.0036867 L1,12.0251723 C1.2585,11.9938598 1.5205,12.0417092 1.75,12.1621643 C2.0282,12.3306645 2.2924,12.5203985 2.54,12.7297027 C2.7451,12.9484007 3.0547,13.0418488 3.35,12.9743313 C3.4625,12.9417468 3.5677,12.8886134 3.66,12.817769 C3.82,12.7003473 3.95,12.5633552 4.11,12.4361484 C4.34971928,12.2417857 4.62565082,12.1129909 4.91336238,12.0497638 C5.06357617,11.984801 5.23066774,11.9698024 5.38867501,12.004768 C5.80550234,12.0161342 6.21932014,12.1599276 6.56,12.4361484 C6.72,12.5633552 6.87,12.7101324 7.03,12.8373393 C7.2142472,12.99484 7.45676621,13.0510171 7.68258204,13.0058707 L7.59289787,12.9818399 C7.69824733,12.9710376 7.80292036,12.9516998 7.90577172,12.9237949 C7.94932109,12.8995236 7.99096812,12.8707051 8.03,12.8373393 C8.19,12.7101324 8.34,12.5633552 8.5,12.4361484 C8.7251404,12.2523408 8.98255963,12.1266302 9.25185262,12.0590167 C9.37750082,12.006071 9.51445892,11.9869642 9.64827002,12.0016965 C10.1121111,11.9824312 10.5816379,12.1272485 10.96,12.4361484 C11.11,12.5633552 11.25,12.7003473 11.4,12.817769 C11.6864,13.0625933 12.1136,13.0625933 12.4,12.817769 L12.87,12.4165781 C13.1895,12.1629471 13.5886,12.024683 14,12.0251723 L14,13.0036867 C13.7374,13.0226699 13.4931,13.1422444 13.32,13.3363817 C13.0483,13.6184874 12.7022,13.821627 12.32,13.9234903 C11.7053,14.1010907 11.0405,13.9650772 10.55,13.56144 L10.16,13.2189599 C10.0258668,13.0884419 9.85538039,13.0154552 9.68058924,13 L9.68058924,13 Z M11.7700663,11.9972186 C11.6192255,11.9815532 11.4722105,11.9217367 11.3505871,11.817769 C11.2005871,11.7003473 11.0605871,11.5633552 10.9105871,11.4361484 C10.1982871,10.8546172 9.16288713,10.8546172 8.45058713,11.4361484 C8.29058713,11.5633552 8.14058713,11.7101324 7.98058713,11.8373393 C7.69418713,12.0821636 7.26698713,12.0821636 6.98058713,11.8373393 C6.82058713,11.7101324 6.67058713,11.5633552 6.51058713,11.4361484 C5.79998713,10.859999 4.77118713,10.859999 4.06058713,11.4361484 C3.93375705,11.5369837 3.82577759,11.6439676 3.70676342,11.7424785 C3.13578679,11.2576831 2.86190693,10.4705736 3.06864473,9.6990176 C3.35452836,8.6320854 4.45120227,7.99892042 5.51813448,8.28480404 L7.77815553,3.71399395 L7.29519262,3.58458443 C7.02845956,3.51311353 6.87016832,3.23894505 6.94163923,2.972212 C7.01311013,2.70547894 7.28727861,2.5471877 7.55401166,2.6186586 L8.03697457,2.74806813 L8.1663841,2.26510521 C8.38079681,1.46490606 9.20330225,0.990032325 10.0035014,1.20444504 C10.8037006,1.41885776 11.2785743,2.24136319 11.0641616,3.04156235 L10.9347521,3.52452526 L11.417715,3.65393479 C11.684448,3.72540569 11.8427393,3.99957417 11.7712684,4.26630722 C11.6997975,4.53304027 11.425629,4.69133152 11.1588959,4.61986061 L10.675933,4.49045109 L10.3477636,9.57889927 C11.4043082,9.86199954 12.0354908,10.9401794 11.7700663,11.9972186 L11.7700663,11.9972186 Z M9.22704427,4.10222252 L8.74408136,3.972813 L6.4840603,8.54362308 L7.93294904,8.93185165 L9.22704427,4.10222252 Z"></path>
</svg>
