<?xml version="1.0" encoding="UTF-8"?>
<svg width="15px" height="15px" viewBox="0 0 15 15" version="1.1" xmlns="http://www.w3.org/2000/svg" xmlns:xlink="http://www.w3.org/1999/xlink">
    <path d="M2,3 C2,1.8954305 2.8954305,1 4,1 L11,1 C12.1045695,1 13,1.8954305 13,3 L13,11 C13,12 12,12 12,12 L12,13 C12,13 12,14 11,14 C10,14 10,13 10,13 L10,12 L5,12 L5,13 C5,13 5,14 4,14 C3,14 3,13 3,13 L3,12 C2,12 2,11 2,11 L2,7.1992 L2,3 Z M3.5,4 C3.22385763,4 3,4.22385763 3,4.5 L3,7.5 C3,7.77614237 3.22385763,8 3.5,8 L11.5,8 C11.7761424,8 12,7.77614237 12,7.5 L12,4.5 C12,4.22385763 11.7761424,4 11.5,4 L3.5,4 Z M4,9 C3.4477,9 3,9.4477 3,10 C3,10.5523 3.4477,11 4,11 C4.5523,11 5,10.5523 5,10 C5,9.4477 4.5523,9 4,9 Z M11,9 C10.4477,9 10,9.4477 10,10 C10,10.5523 10.4477,11 11,11 C11.5523,11 12,10.5523 12,10 C12,9.4477 11.5523,9 11,9 Z M4,2.5 C4,2.77614237 4.22385763,3 4.5,3 L10.5,3 C10.7761424,3 11,2.77614237 11,2.5 C11,2.22385763 10.7761424,2 10.5,2 L4.5,2 C4.22385763,2 4,2.22385763 4,2.5 Z"></path>
</svg>
