<?xml version="1.0" encoding="UTF-8"?>
<svg width="15px" height="15px" viewBox="0 0 15 15" version="1.1" xmlns="http://www.w3.org/2000/svg" xmlns:xlink="http://www.w3.org/1999/xlink">
    <path d="M2,3 C2,1.8954305 2.8954305,1 4,1 L11,1 C12.1045695,1 13,1.8954305 13,3 L13,11 C13,11.5522847 12.5522847,12 12,12 L12,13 C12,13.5522847 11.5522847,14 11,14 C10.4477153,14 10,13.5522847 10,13 L10,12 L5,12 L5,13 C5,13.5522847 4.55228475,14 4,14 C3.44771525,14 3,13.5522847 3,13 L3,12 C2.44771525,12 2,11.5522847 2,11 L2,7.1992 L2,3 Z M3.5,4 C3.22385763,4 3,4.22385763 3,4.5 L3,7.5 C3,7.77614237 3.22385763,8 3.5,8 L11.5,8 C11.7761424,8 12,7.77614237 12,7.5 L12,4.5 C12,4.22385763 11.7761424,4 11.5,4 L3.5,4 Z M4,9 C3.4477,9 3,9.4477 3,10 C3,10.5523 3.4477,11 4,11 C4.5523,11 5,10.5523 5,10 C5,9.4477 4.5523,9 4,9 Z M11,9 C10.4477,9 10,9.4477 10,10 C10,10.5523 10.4477,11 11,11 C11.5523,11 12,10.5523 12,10 C12,9.4477 11.5523,9 11,9 Z M4,2.5 C4,2.77614237 4.22385763,3 4.5,3 L10.5,3 C10.7761424,3 11,2.77614237 11,2.5 C11,2.22385763 10.7761424,2 10.5,2 L4.5,2 C4.22385763,2 4,2.22385763 4,2.5 Z M13.4400554,14 C13.3824782,14 13.3253337,13.9900552 13.2711416,13.970604 C13.0112342,13.8773155 12.8761629,13.5909936 12.9694514,13.3310862 L14.514698,9.02593646 C14.5503416,8.92663133 14.6444918,8.86039337 14.75,8.86039337 C14.8880712,8.86039337 15,8.97232218 15,9.11039337 L15,13.5 C15,13.7761424 14.7761424,14 14.5,14 L13.4400554,14 Z M1.55994462,14 L0.5,14 C0.223857625,14 -1.0921819e-14,13.7761424 -2.48134846e-14,13.5 L7.57838237e-13,9.11039337 C7.79223908e-13,8.97232218 0.111928813,8.86039337 0.25,8.86039337 C0.355508171,8.86039337 0.449658426,8.92663133 0.485302,9.02593646 L2.03054862,13.3310862 C2.12383714,13.5909936 1.98876584,13.8773155 1.72885843,13.970604 C1.67466635,13.9900552 1.61752179,14 1.55994462,14 Z"></path>
</svg>
