<?xml version="1.0" encoding="UTF-8"?>
<svg width="15px" height="15px" viewBox="0 0 15 15" version="1.1" xmlns="http://www.w3.org/2000/svg" xmlns:xlink="http://www.w3.org/1999/xlink">
    <path d="M12.9984126,5.76234817 L13.5881717,6.19126392 C14.3714165,6.76089649 13.9684801,8 13,8 L13,9 C13.5522847,9 14,9.44771525 14,10 C14,10.5522847 13.5522847,11 13,11 L13,12 C13.5522847,12 14,12.4477153 14,13 C14,13.5522847 13.5522847,14 13,14 L9,14 L9,10 L6,10 L6,14 L2,14 C1.44771525,14 1,13.5522847 1,13 C1,12.4477153 1.44771525,12 2,12 L2,11 C1.44771525,11 1,10.5522847 1,10 C1,9.44771525 1.44771525,9 2,9 L2,8 C1.03151992,8 0.628583518,6.76089649 1.4118283,6.19126392 L6.9118283,2.19126392 C7.26247881,1.93624536 7.73752119,1.93624536 8.0881717,2.19126392 L11,4.30895723 L11,1 L13,1 L12.9984126,5.76234817 L12.9984126,5.76234817 Z M3,8 L3,9 L12,9 L12,8 L3,8 Z M12,11 L10,11 L10,12 L12,12 L12,11 Z M3,11 L3,12 L5,12 L5,11 L3,11 Z M7.5,4.23649732 L5.07518381,6 L9.92481619,6 L7.5,4.23649732 Z"></path>
</svg>
