<?xml version="1.0" encoding="UTF-8"?>
<!DOCTYPE svg PUBLIC "-//W3C//DTD SVG 1.1//EN" "http://www.w3.org/Graphics/SVG/1.1/DTD/svg11.dtd">
<svg version="1.1" xmlns="http://www.w3.org/2000/svg" xmlns:xlink="http://www.w3.org/1999/xlink" x="0" y="0" width="15" height="15" viewBox="0 0 15 15">
<path d="M9,0.5 C9,0.5 9,1 9,1 C9,1 12.5,1 12.5,1 C13,1 13,1.5 13,1.5 L13,13.5 C13,13.5 13,14 12.5,14 C12.5,14 9,14 9,14 L9,14.5 C9,15 6,15 6,14.5 L6,14 C6,14 2.5,14 2.5,14 C2,14 2,13.5 2,13.5 L2,1.5 C2,1.5 2,1 2.5,1 C2.5,1 6,1 6,1 C6,1 6,0.5 6,0.5 C6,0 9,0 9,0.5 z M7.5,3 C5,3 3,5 3,7.5 C3,10 5,12 7.5,12 C10,12 12,10 12,7.5 C12,5 10,3 7.5,3 z"/>
<path d="M9,9.5 C9.25,10.5 9,11.25 9,11.25 C8.754,11.5 6.25,11.5 6,11.25 C6,11.25 5.75,10.5 6,9.5 C6.5,10 8.5,10 9,9.5 z"/>
<path d="M9.25,4.5 C9.25,4.25 10,4.25 10,4.5 C10,5.729 8.75,6.75 7.5,9 C7.377,9 7,8.5 7,8.5 C8,6.75 9.25,5.483 9.25,4.5 z M9,7 C8.754,7.37 8.623,7.5 8.5,7.75 C8.5,8.25 8.25,8.75 7.75,9.25 C7.627,9.5 8.377,9.5 8.5,9.25 C9,8.75 9.25,8 9,7 z M8.5,4.5 C8.5,4.25 7.75,4.265 7.75,4.5 C7.75,5.25 7.754,5.886 8,6.5 C8.123,6.377 8.377,6 8.5,5.75 C8.377,5.25 8.4,5 8.5,4.5 z M5.75,4.5 C5.75,5.75 6.5,6.5 7.5,7.25 C7.377,7.5 7.172,7.754 7,8 C6,7 5,6 5,4.5 C5,4.25 5.75,4.25 5.75,4.5 z M6.25,7.5 C6,8.25 6,8.75 6.5,9.25 C6.623,9.411 7.131,9.623 7.5,9.5 C6.763,8.886 6.627,8.37 6.75,8 C6.627,7.877 6.5,7.75 6.25,7.5 z M7.25,4.5 C7.25,4.25 6.5,4.25 6.5,4.5 C6.75,5.25 7,5.75 6.75,6.25 C6.873,6.5 7.25,6.777 7.5,6.9 C7.7,6.1 7.5,5.25 7.25,4.5 z"/>
</svg>
