<?xml version="1.0" encoding="UTF-8"?>
<!DOCTYPE svg PUBLIC "-//W3C//DTD SVG 1.1//EN" "http://www.w3.org/Graphics/SVG/1.1/DTD/svg11.dtd">
<svg version="1.1" xmlns="http://www.w3.org/2000/svg" xmlns:xlink="http://www.w3.org/1999/xlink" x="0" y="0" width="15" height="15" viewBox="0 0 15 15">
<path d="M7.5,0 C11.625,0 15,3.375 15,7.5 C15,11.625 11.642,15 7.5,15 C3.358,15 0,11.625 0,7.5 C0,3.375 3.375,0 7.5,0 z M7.5,0.5 C3.625,0.5 0.5,3.625 0.5,7.5 C0.5,11.375 3.625,14.5 7.5,14.5 L7.5,14.5 C11.375,14.5 14.5,11.375 14.5,7.5 C14.5,3.625 11.375,0.5 7.5,0.5 z M11,3 C11.5,3 11.5,4 11,4 L9.5,4 C9.25,4 7.75,3.25 8.25,3 L11,3 z M6.75,3 C7.25,3.25 5.75,4 5.5,4 L4,4 C3.5,4 3.5,3 4,3 L6.75,3 z M4,5 C4.5,5 3.75,6 3.5,6 C3.5,6 2.5,6 2.5,6 C2,6 2,5 2.5,5 C2.5,5 4,5 4,5 z M12.5,5 C13,5 13,6 12.5,6 L11.5,6 C11.25,6 10.5,5 11,5 L12.5,5 z M13,7 C13.5,7 13.5,8 13,8 L12,8 C11.5,8 11.5,7 12,7 L13,7 z M3,7 C3.5,7 3.5,8 3,8 L2,8 C1.5,8 1.5,7 2,7 L3,7 z M3.5,9 C3.75,9 4.5,10 4,10 C4,10 2.5,10 2.5,10 C2,10 2,9 2.5,9 C2.5,9 3.5,9 3.5,9 z M12.5,9 C13,9 13,10 12.5,10 L11,10 C10.5,10 11.25,9 11.5,9 L12.5,9 z M7.5,4 C9.367,4 11,5.633 11,7.5 C11,9.367 9.367,11 7.5,11 C5.633,11 4,9.367 4,7.5 C4,5.633 5.633,4 7.5,4 z M11,11 C11.5,11 11.5,12 11,12 L8.25,12 C7.75,11.75 9.25,11 9.5,11 L11,11 z M5.5,11 C5.75,11 7.25,11.75 6.75,12 L4,12 C3.5,12 3.5,11 4,11 L5.5,11 z M8.75,1.125 C8.75,1.125 8.5,2 7.5,2 C6.5,2 6.25,1.125 6.25,1.125 C3.125,1.75 1,4.5 1,7.5 C1,10.5 3.125,13.25 6.25,13.875 C6.25,13.875 6.5,13 7.5,13 C8.448,13 8.75,13.875 8.75,13.875 C11.875,13.25 14,10.5 14,7.5 C14,4.5 11.875,1.75 8.75,1.125 z"/>
<path d="M8.75,8.75 C8.936,9.402 8.75,10.5 8.75,10.5 C8.564,10.686 6.436,10.686 6.25,10.5 C6.25,10.5 6.064,9.402 6.25,8.75 C6.623,9.123 8.377,9.123 8.75,8.75 z"/>
<path d="M8.833,5.125 C8.833,4.939 9.5,4.939 9.5,5.125 C9.5,6.057 8.307,6.912 7.511,8.589 C7.412,8.589 7.114,8.217 7.114,8.217 C7.909,6.632 8.833,5.871 8.833,5.125 z M8.605,7.098 C8.406,7.378 8.307,7.471 8.207,7.657 C8.207,7.937 8.108,8.123 7.71,8.683 C7.611,8.869 8.207,8.869 8.307,8.683 C8.705,8.217 8.804,7.937 8.605,7.098 z M8.375,5.125 C8.375,4.939 7.75,4.947 7.75,5.125 C7.651,5.693 7.71,6.166 7.909,6.632 C8.009,6.539 8.207,6.259 8.307,6.073 C8.207,5.7 8.276,5.498 8.375,5.125 z M6.167,5.125 C6.167,6.057 6.716,6.632 7.511,7.191 C7.412,7.378 7.313,7.564 7.173,7.751 C6.318,7.098 5.5,6.243 5.5,5.125 C5.5,4.939 6.167,4.939 6.167,5.125 z M6.517,7.378 C6.418,7.937 6.318,8.31 6.716,8.683 C6.815,8.776 7.213,8.869 7.511,8.776 C6.915,8.31 6.915,8.123 7.014,7.844 C6.915,7.751 6.716,7.564 6.517,7.378 z M7.25,5.125 C7.25,4.939 6.625,4.939 6.625,5.125 C6.724,5.591 7.014,5.98 6.915,6.446 C7.014,6.632 7.213,6.819 7.412,6.912 C7.611,6.259 7.349,5.684 7.25,5.125 z"/>
</svg>
