<?xml version="1.0" encoding="UTF-8"?>
<!DOCTYPE svg PUBLIC "-//W3C//DTD SVG 1.1//EN" "http://www.w3.org/Graphics/SVG/1.1/DTD/svg11.dtd">
<svg version="1.1" xmlns="http://www.w3.org/2000/svg" xmlns:xlink="http://www.w3.org/1999/xlink" x="0" y="0" width="15" height="15" viewBox="0 0 15 15">
<path d="M10.5,10.25 C11,12 10.75,14.5 10.75,14.5 C10.25,15 4.75,15 4.25,14.5 C4.25,14.5 4,12 4.5,10.25 C5.5,11.25 9.5,11.25 10.5,10.25 z"/>
<path d="M11,0.5 C11,0 12.5,0 12.5,0.5 C12.5,3 9.5,5.25 7.5,9.75 C7.25,9.75 6.5,8.75 6.5,8.75 C8.5,4.5 11,2.5 11,0.5 z M10.25,5.75 C9.75,6.5 9.5,6.75 9.25,7.25 C9.25,8 9,8.5 8,10 C7.75,10.5 9.25,10.5 9.5,10 C10.5,8.75 10.75,8 10.25,5.75 z M9.5,0.5 C9.5,0 8,0 8,0.477 C7.75,2 8,3.25 8.5,4.5 C8.75,4.25 9.25,3.5 9.5,3 C9.25,2 9.25,1.5 9.5,0.5 z M4,0.5 C4,3 5.5,4.5 7.5,6 C7.25,6.5 7,7 6.65,7.5 C4.5,5.75 2.5,3.5 2.5,0.5 C2.5,0 4,0 4,0.5 z M5,6.5 C4.75,8 4.5,9 5.5,10 C5.75,10.25 6.75,10.5 7.5,10.25 C6,9 6,8.5 6.25,7.75 C6,7.5 5.5,7 5,6.5 z M7,0.5 C7,0 5.5,0 5.5,0.5 C5.75,1.75 6.25,2.75 6,4 C6.25,4.5 6.75,5 7.25,5.25 C7.75,3.5 7.25,2 7,0.5 z"/>
</svg>
