<?xml version="1.0" encoding="UTF-8"?>
<svg width="15px" height="15px" viewBox="0 0 15 15" version="1.1" xmlns="http://www.w3.org/2000/svg" xmlns:xlink="http://www.w3.org/1999/xlink">
    <path d="M9,8 L9,10 L11.5,10 C11.7761424,10 12,10.2238576 12,10.5 L12,14.5 C12,14.7761424 11.7761424,15 11.5,15 L3.5,15 C3.22385763,15 3,14.7761424 3,14.5 L3,10.5 C3,10.2238576 3.22385763,10 3.5,10 L6,10 L6,8 L0.5,8 C0.223857625,8 9.8037803e-15,7.77614237 1.09912079e-14,7.5 C1.07121266e-14,7.22385763 0.223857625,7 0.5,7 L3,7 C1.8954305,7 1,6.1045695 1,5 L1,2.28511252 C1,1.25912067 1.77637443,0.399542857 2.79707218,0.295449666 L2.79707043,0.295432496 C4.72833528,0.0984774987 6.46264514,-1.33226763e-14 8,-1.33226763e-14 C9.53734958,-1.33226763e-14 11.2716528,0.0984768225 13.2029097,0.295430468 C14.223606,0.399523229 14.9999795,1.25909975 14.9999795,2.28509013 L15,6 C15,7.1045695 14.1045695,8 13,8 L9,8 Z M5.5,4 C5.77614237,4 6,3.77614237 6,3.5 L6,2.5 C6,2.22385763 5.77614237,2 5.5,2 L3.5,2 C3.22385763,2 3,2.22385763 3,2.5 L3,3.5 C3,3.77614237 3.22385763,4 3.5,4 L5.5,4 Z M12.5,4 C12.7761424,4 13,3.77614237 13,3.5 L13,2.5 C13,2.22385763 12.7761424,2 12.5,2 L8.5,2 C8.22385763,2 8,2.22385763 8,2.5 L8,3.5 C8,3.77614237 8.22385763,4 8.5,4 L12.5,4 Z M7.00000237,11 L5.68673785,11 C5.54866667,11 5.43673785,11.1119288 5.43673785,11.25 C5.43673785,11.3238875 5.46942215,11.3939904 5.52601738,11.4414913 L7.33927953,12.9633793 C7.43222685,13.0413908 7.56777315,13.0413908 7.66072047,12.9633793 L9.47398262,11.4414913 C9.57974036,11.3527279 9.59351694,11.1950373 9.50475348,11.0892795 C9.45725257,11.0326843 9.38714961,11 9.31326215,11 L8.00000237,11 L8,6.49999974 C7.99999985,6.22385736 7.77614211,5.99999985 7.49999974,6 C7.22385736,6.00000015 6.99999985,6.22385789 7,6.50000026 L7.00000237,11 Z"></path>
</svg>
