<?xml version="1.0" encoding="UTF-8"?>
<svg width="15px" height="15px" viewBox="0 0 15 15" version="1.1" xmlns="http://www.w3.org/2000/svg" xmlns:xlink="http://www.w3.org/1999/xlink">
    <path d="M10.5,11 C10.5,9.8954305 9.6045695,9 8.5,9 C7.3954305,9 6.5,9.8954305 6.5,11 L0.5,11 C0.223857625,11 -1.50652154e-14,10.7761424 -1.38777878e-14,10.5 C-1.41568692e-14,10.2238576 0.223857625,10 0.5,10 L3,10 C1.8954305,10 1,9.1045695 1,8 L1,5.28511252 C1,4.25912067 1.77637443,3.39954286 2.79707218,3.29544967 L2.79707043,3.2954325 C4.72833528,3.0984775 6.46264514,3 8,3 C9.53734958,3 11.2716528,3.09847682 13.2029097,3.29543047 C14.223606,3.39952323 14.9999795,4.25909975 14.9999795,5.28509013 L15,9 C15,10.1045695 14.1045695,11 13,11 L10.5,11 Z M5.5,7 C5.77614237,7 6,6.77614237 6,6.5 L6,5.5 C6,5.22385763 5.77614237,5 5.5,5 L3.5,5 C3.22385763,5 3,5.22385763 3,5.5 L3,6.5 C3,6.77614237 3.22385763,7 3.5,7 L5.5,7 Z M12.5,7 C12.7761424,7 13,6.77614237 13,6.5 L13,5.5 C13,5.22385763 12.7761424,5 12.5,5 L8.5,5 C8.22385763,5 8,5.22385763 8,5.5 L8,6.5 C8,6.77614237 8.22385763,7 8.5,7 L12.5,7 Z M8.5,12.5 C7.67157288,12.5 7,11.8284271 7,11 C7,10.1715729 7.67157288,9.5 8.5,9.5 C9.32842712,9.5 10,10.1715729 10,11 C10,11.8284271 9.32842712,12.5 8.5,12.5 Z"></path>
</svg>
