<?xml version="1.0" encoding="UTF-8"?>
<svg width="15px" height="15px" viewBox="0 0 15 15" version="1.1" xmlns="http://www.w3.org/2000/svg" xmlns:xlink="http://www.w3.org/1999/xlink">
    <path d="M12,13.8291548 L12,11.8910074 L3,9.0794175 L3,11.0190662 L12,13.8291548 Z M5.07605865,9.08181955 C4.76622311,8.75514187 2.7087867,6.53115148 4.78468481,4.60651554 C6.51510827,3.0016514 6.76715065,1.65350548 6.18440298,1 C6.18440298,1 10.5885627,2.69253866 7.99814491,6.61807536 C7.55474296,7.28464195 6.44736185,8.071761 7.02625664,9.69449032 L5.07605865,9.08196967 L5.07605865,9.08181955 Z M7.78045735,9.61432217 C7.68574079,9.28509233 7.26352966,8.56793274 8.55167493,7.14142021 C9.24037673,6.381174 9.49916164,5.25386579 9.56144982,4.82975529 C9.56144982,4.82975529 11.8426742,6.05269479 9.57300845,9.04533854 L7.78045735,9.61432217 L7.78045735,9.61432217 Z M8.26495666,10.0734124 L12,8.90692088 L12,10.8450683 L11.3666833,11.0402342 L8.26495666,10.0734124 Z M6.73600656,12.8360607 L3,14 L3,12.0618526 L3.63540366,11.868188 L6.73600656,12.8360607 Z"></path>
</svg>
