<?xml version="1.0" encoding="UTF-8"?>
<svg version="1.2" baseProfile="tiny" xmlns="http://www.w3.org/2000/svg" viewBox="0 0 50 50" overflow="inherit">
  <path d="M17.44 12.89c2.46 0 4.45 -1.99 4.45 -4.45c0 -2.45 -1.99 -4.44 -4.45 -4.44c-2.46 0 -4.45 1.99 -4.45 4.44c0 2.45 1.99 4.45 4.45 4.45zm-16.44 24.28c1 0 2.05 -0.24 2.95 -0.64c0.92 -0.43 1.97 -0.68 3.05 -0.68c1.08 0 2.13 0.25 3.04 0.68c0.9 0.4 1.91 0.64 2.97 0.64c1.05 0 2.06 -0.23 2.95 -0.64c0.92 -0.43 1.96 -0.68 3.05 -0.68c1.08 0 2.12 0.25 3.04 0.68c0.89 0.4 1.91 0.64 2.95 0.64c1.05 0 2.06 -0.23 2.95 -0.64c0.93 -0.43 1.97 -0.68 3.05 -0.68c1.08 0 2.12 0.25 3.04 0.68c0.9 0.4 1.91 0.64 2.96 0.64c1.05 0 2.06 -0.23 2.96 -0.64c0.92 -0.43 1.96 -0.68 3.04 -0.68c0.93 0 1.83 0.18 2.64 0.49c1.32 -1.44 2.14 -3.36 2.14 -5.46c0 -4.47 -3.63 -8.1 -8.11 -8.1l-0.91 0.1c-1 4.04 -5.04 4.21 -5.04 4.21l-18.52 0l-1.55 -0.91l3.73 -6.25l4.09 2.36c2.45 1.58 3.72 -0.64 3.72 -0.64l4.1 -6.67c1.78 -2.9 -2 -5.22 -3.77 -2.31l-2.87 4.67l-6.82 -3.76c-4.72 -2.63 -6.73 1.73 -6.73 1.73l-5.35 9.15c-0.91 1.9 -0.1 2.72 -0.1 2.72l-2.65 0v10zm48 8.83c-1.05 0 -2.06 -0.23 -2.95 -0.64c-0.93 -0.43 -1.96 -0.67 -3.05 -0.67c-1.08 0 -2.12 0.25 -3.04 0.68c-0.9 0.4 -1.91 0.64 -2.96 0.64c-1.05 0 -2.06 -0.23 -2.96 -0.64c-0.92 -0.43 -1.96 -0.67 -3.04 -0.67c-1.09 0 -2.12 0.25 -3.05 0.68c-0.89 0.4 -1.91 0.64 -2.95 0.64c-1.05 0 -2.06 -0.23 -2.95 -0.64c-0.93 -0.43 -1.96 -0.67 -3.04 -0.67c-1.09 0 -2.13 0.25 -3.04 0.68c-0.9 0.4 -1.91 0.64 -2.95 0.64c-1.05 0 -2.06 -0.23 -2.96 -0.64c-0.92 -0.43 -1.96 -0.67 -3.04 -0.67c-1.08 0 -2.12 0.25 -3.04 0.68c-0.9 0.4 -1.91 0.64 -2.95 0.64v-4.42c1.05 0 2.06 -0.24 2.95 -0.64c0.92 -0.42 1.96 -0.67 3.04 -0.67c1.08 0 2.12 0.25 3.04 0.68c0.9 0.4 1.91 0.64 2.97 0.64c1.05 0 2.06 -0.24 2.95 -0.64c0.92 -0.42 1.96 -0.67 3.05 -0.67c1.08 0 2.12 0.25 3.04 0.68c0.89 0.4 1.91 0.64 2.95 0.64c1.05 0 2.06 -0.24 2.95 -0.64c0.93 -0.42 1.97 -0.67 3.05 -0.67c1.08 0 2.12 0.25 3.04 0.68c0.9 0.4 1.91 0.64 2.96 0.64c1.05 0 2.06 -0.24 2.96 -0.64c0.92 -0.42 1.96 -0.67 3.04 -0.67c1.09 0 2.12 0.25 3.05 0.68c0.89 0.4 1.9 0.64 2.95 0.64v4.42z"/>
</svg>