<?xml version="1.0" encoding="UTF-8"?>
<svg viewBox="0 0 15 15" version="1.1" xmlns="http://www.w3.org/2000/svg" xmlns:xlink="http://www.w3.org/1999/xlink">
  <path d="M13,1 C14.1505711,1.3287346 14.9509315,2.32917058 15,4 C15.0261699,4.89110903 14.8471445,6.00254978 14.6172009,7.13160068 L14.4376067,7.97852324 L14.4376067,7.97852324 L14.0789892,9.61615918 C14.0515467,9.74633858 14.0251165,9.8744175 14,10 C13.3563218,12.5747126 12.0911613,13.9064606 10.2045184,13.9952438 L10,14 L4.21880078,14.7226499 C2.87537149,14.8905786 1.51369718,14.6857657 0.281890357,14.1335818 L-2.13162821e-14,14 L-2.13162821e-14,1 L0.578137011,1.40359818 C2.52484624,2.7976011 3.66546724,3.99640171 4,5 L4.32975265,5.97990079 L4.32975265,5.97990079 L4.54075226,6.57104382 L4.54075226,6.57104382 L4.67024677,6.90121771 C5.00856124,7.72004846 5.3065618,8.06677546 5.94152578,8.44443515 L6.1961693,8.58848999 L6.1961693,8.58848999 L6.48682436,8.74133973 L6.48682436,8.74133973 L7,9 C9,10 10,10 11,8 L12.3675445,5.26491106 L12.3675445,5.26491106 C12.7452408,4.50951846 12.5971903,3.59719029 12,3 L11.7071068,2.70710678 C11.5453463,2.54534632 11.2830808,2.54534632 11.1213203,2.70710678 C11.0436402,2.78478689 11,2.89014373 11,3 L11,3.29289322 C11,3.74564609 10.8201446,4.17985538 10.5,4.5 C10.2736174,4.7263826 9.90657869,4.7263826 9.6801961,4.5 C9.65320324,4.47300714 9.62894267,4.443414 9.60776773,4.41165159 L9,3.5 C8.58353268,2.87529902 8.75233942,2.03126536 9.37704039,1.61479804 C9.49321948,1.53734532 9.62063763,1.47825365 9.75480464,1.43957916 C11.3428339,0.982116593 12.4245657,0.835590207 13,1 Z M9.91421356,5.5 C9.9691417,5.55492813 10,5.62942667 10,5.70710678 L10,6.5 C10,6.77614237 9.77614237,7 9.5,7 C9.22385763,7 9,6.77614237 9,6.5 L9,6.20710678 C9,6.07449854 9.05267842,5.94732158 9.14644661,5.85355339 L9.5,5.5 C9.61438192,5.38561808 9.79983165,5.38561808 9.91421356,5.5 Z M7.5,3.70710678 C7.63260824,3.70710678 7.7597852,3.7597852 7.85355339,3.85355339 L8.64644661,4.64644661 C8.84170876,4.84170876 8.84170876,5.15829124 8.64644661,5.35355339 L8.14644661,5.85355339 C8.05267842,5.94732158 7.92550146,6 7.79289322,6 L7.5,6 C7.22385763,6 7,5.77614237 7,5.5 L7,4.20710678 C7,3.93096441 7.22385763,3.70710678 7.5,3.70710678 Z"/>
</svg>