<?xml version="1.0" encoding="UTF-8"?>
<svg width="15px" height="15px" viewBox="0 0 15 15" version="1.1" xmlns="http://www.w3.org/2000/svg" xmlns:xlink="http://www.w3.org/1999/xlink">
    <path d="M7,1 L9,1.15463195e-14 L11,1 L13,1.15463195e-14 L13,3 L11,4 L9,3 L8,3.5 L8,5 L7,5 L7,1 Z M2.5,9 L12.5,9 L12.5,15 L2.5,15 L2.5,9 Z M4,10 L4,14 L5,14 L5,10 L4,10 Z M7,10 L7,14 L8,14 L8,10 L7,10 Z M10,10 L10,14 L11,14 L11,10 L10,10 Z M2.5,8.5 C2.752107,5.97333865 4.89446104,4 7.5,4 C10.105539,4 12.247893,5.97333865 12.5,8.5 L2.5,8.5 Z"></path>
</svg>
