<?xml version="1.0" encoding="UTF-8"?>
<svg width="15px" height="15px" viewBox="0 0 15 15" version="1.1" xmlns="http://www.w3.org/2000/svg" xmlns:xlink="http://www.w3.org/1999/xlink">
    <path d="M7,7.5 L11.75,7.5 L10.7,2 L4.3,2 L3.25,7.5 L4,7.5 L7,7.5 Z M11,7 L8,7 L8,6 C8,5.44771525 8.44771525,5 9,5 L10,5 C10.5522847,5 11,5.44771525 11,6 L11,7 Z M7,7 L4,7 L4,6 C4,5.44771525 4.44771525,5 5,5 L6,5 C6.55228475,5 7,5.44771525 7,6 L7,7 L7,7 Z M9.5,4.499032 C8.94771525,4.499032 8.5,4.05153344 8.5,3.499516 C8.5,2.94749856 8.94771525,2.5 9.5,2.5 C10.0522847,2.5 10.5,2.94749856 10.5,3.499516 C10.5,4.05153344 10.0522847,4.499032 9.5,4.499032 Z M5.5,4.499032 C4.94771525,4.499032 4.5,4.05153344 4.5,3.499516 C4.5,2.94749856 4.94771525,2.5 5.5,2.5 C6.05228475,2.5 6.5,2.94749856 6.5,3.499516 C6.5,4.05153344 6.05228475,4.499032 5.5,4.499032 Z M14,9 L14,12.5 L13,12.5 L13,13.5 C13,14.0523 12.5523,14.5 12,14.5 C11.4477,14.5 11,14.0523 11,13.5 L11,12.5 L4,12.5 L4,13.5 C4,14.0523 3.5523,14.5 3,14.5 C2.4477,14.5 2,14.0523 2,13.5 L2,12.5 L1,12.5 L1,9 C0.9994,8.3059 1.475,7.702 2.15,7.54 L3.56,1.28 C3.6425,1.1115 3.8124,1.0034 4,1 L11,1 C11.2019,1.001 11.3833,1.1233 11.46,1.31 L12.85,7.55 C13.5213,7.7111 13.996,8.3096 14,9 Z M3,11 C3.5523,11 4,10.5523 4,10 C4,9.4477 3.5523,9 3,9 C2.4477,9 2,9.4477 2,10 C2,10.5523 2.4477,11 3,11 Z M12,11 C12.5523,11 13,10.5523 13,10 C13,9.4477 12.5523,9 12,9 C11.4477,9 11,9.4477 11,10 C11,10.5523 11.4477,11 12,11 Z"></path>
</svg>
