<?xml version="1.0" encoding="UTF-8"?>
<svg width="15px" height="15px" viewBox="0 0 15 15" version="1.1" xmlns="http://www.w3.org/2000/svg" xmlns:xlink="http://www.w3.org/1999/xlink">
    <path d="M11,5 C11.5523,5 12,5.4477 12,6 L12,9 L11,9 L11,10 C11,10.5523 10.5523,11 10,11 C9.4477,11 9,10.5523 9,10 L9,9 L6,9 L6,10 C6,10.5523 5.5523,11 5,11 C4.4477,11 4,10.5523 4,10 L4,9 L3,9 L3,6 C3,5.4477 3.4477,5 4,5 L4.89,2.34 C4.9582,2.1381 5.1469,2.0016 5.36,2 L9.64,2 C9.8531,2.0016 10.0418,2.1381 10.11,2.34 L11,5 Z M5,8 C5.5523,8 6,7.5523 6,7 C6,6.4477 5.5523,6 5,6 C4.4477,6 4,6.4477 4,7 C4,7.5523 4.4477,8 5,8 Z M5,5 L10,5 L9.38,3 L5.62,3 L5,5 Z M10,8 C10.5523,8 11,7.5523 11,7 C11,6.4477 10.5523,6 10,6 C9.4477,6 9,6.4477 9,7 C9,7.5523 9.4477,8 10,8 Z M11.5,12 L11,11 L13,11 L14,13 L1,13 L2,11 L4,11 L3.5,12 L11.5,12 Z"></path>
</svg>
