<?xml version="1.0" encoding="UTF-8"?>
<svg width="15px" height="15px" viewBox="0 0 15 15" version="1.1" xmlns="http://www.w3.org/2000/svg" xmlns:xlink="http://www.w3.org/1999/xlink">
    <path d="M11,6 C11.5523,6 12,6.4477 12,7 L12,10 L11,10 L11,11 C11,11.5523 10.5523,12 10,12 C9.4477,12 9,11.5523 9,11 L9,10 L6,10 L6,11 C6,11.5523 5.5523,12 5,12 C4.4477,12 4,11.5523 4,11 L4,10 L3,10 L3,7 C3,6.4477 3.4477,6 4,6 L4.89,3.34 C4.9582,3.1381 5.1469,3.0016 5.36,3 L9.64,3 C9.8531,3.0016 10.0418,3.1381 10.11,3.34 L11,6 Z M5,9 C5.5523,9 6,8.5523 6,8 C6,7.4477 5.5523,7 5,7 C4.4477,7 4,7.4477 4,8 C4,8.5523 4.4477,9 5,9 Z M5,6 L10,6 L9.38,4 L5.62,4 L5,6 Z M10,9 C10.5523,9 11,8.5523 11,8 C11,7.4477 10.5523,7 10,7 C9.4477,7 9,7.4477 9,8 C9,8.5523 9.4477,9 10,9 Z M11.5,13 L11,12 L13,12 L14,14 L1,14 L2,12 L4,12 L3.5,13 L11.5,13 Z M11.5,2 L3.5,2 L4,3 L2,3 L1,1 L14,1 L13,3 L11,3 L11.5,2 Z"></path>
</svg>
