<?xml version="1.0" encoding="UTF-8"?>
<svg width="15px" height="15px" viewBox="0 0 15 15" version="1.1" xmlns="http://www.w3.org/2000/svg" xmlns:xlink="http://www.w3.org/1999/xlink">
    <path d="M11,8 C11.5523,8 12,8.4477 12,9 L12,12 L11,12 L11,13 C11,13.5523 10.5523,14 10,14 C9.4477,14 9,13.5523 9,13 L9,12 L6,12 L6,13 C6,13.5523 5.5523,14 5,14 C4.4477,14 4,13.5523 4,13 L4,12 L3,12 L3,9 C3,8.4477 3.4477,8 4,8 L4.89,5.34 C4.9582,5.1381 5.1469,5.0016 5.36,5 L9.64,5 C9.8531,5.0016 10.0418,5.1381 10.11,5.34 L11,8 Z M5,11 C5.5523,11 6,10.5523 6,10 C6,9.4477 5.5523,9 5,9 C4.4477,9 4,9.4477 4,10 C4,10.5523 4.4477,11 5,11 Z M5,8 L10,8 L9.38,6 L5.62,6 L5,8 Z M10,11 C10.5523,11 11,10.5523 11,10 C11,9.4477 10.5523,9 10,9 C9.4477,9 9,9.4477 9,10 C9,10.5523 9.4477,11 10,11 Z M2,5.41273802 L2,14 L0,14 L0,4.08726198 L7.5,0.914185061 L15,4.08726198 L15,14 L13,14 L13,5.41273802 L7.5,3.08581494 L2,5.41273802 Z"></path>
</svg>
