<?xml version="1.0" encoding="UTF-8"?>
<!DOCTYPE svg PUBLIC "-//W3C//DTD SVG 1.1//EN" "http://www.w3.org/Graphics/SVG/1.1/DTD/svg11.dtd">
<svg version="1.1" xmlns="http://www.w3.org/2000/svg" xmlns:xlink="http://www.w3.org/1999/xlink" x="0" y="0" width="15" height="15" viewBox="0 0 15 15">
<path d="M8.57,0 C9,0 9,0.5 9,0.5 L9,1.5 C9,1.5 9.5,1.5 9.5,1.5 C10,1.5 10,2 10,2 L12,2 C13,2 13,2 13,3 L13,7.5 C13,7.5 13.499,7.5 13.5,8 C13.5,8 14,8 14,8 L14,4.5 C13.625,4.391 13.5,4.125 13.5,3.75 C13.5,3.375 13.875,3 14.25,3 C14.625,3 15,3.375 15,3.75 C15,4.125 14.828,4.359 14.5,4.5 C14.5,4.5 14.5,8.75 14.5,8.75 C14.5,9 14.25,9 14.25,9 L13.5,9 C13.5,9.5 13,9.5 13,9.5 L13,14 C13,15 13,15 12,15 C12,15 3,15 3,15 C2,15 2,15 2,14 L2,3 C2,2 2,2 3,2 L5,2 C5,2 5,1.5 5.5,1.5 C5.5,1.5 6,1.5 6,1.5 L6,0.5 C6,0.5 6,0 6.5,0 L8.57,0 z M10,13 L5,13 L5,14 L10,14 L10,13 z M10,10 L9,10 L9,11 L10,11 L10,10 z M6,10 L5,10 L5,11 L6,11 L6,10 z M8,10 L7,10 L7,11 L8,11 L8,10 z M12,4 L9.25,4 L9.25,9 L12,9 L12,4 z M8.825,4 L6.125,4 L6.125,9 L8.825,9 L8.825,4 z M5.75,4 L3,4 C3,4 3,9 3,9 L5.75,9 L5.75,4 z M7,0.325 C6.5,0.325 6.5,0.5 6.5,0.75 C6.5,0.75 6.5,1.5 6.5,1.5 C6.75,0.75 7.25,0.5 8,0.325 C8,0.325 7,0.325 7,0.325 z"/>
<path d="M9.5,4.75 C9.5,4.75 10,4.75 10,4.75 C10,5 11.375,4.75 11.375,4.75 C11.375,4.75 11.875,4.75 11.625,5 C11.375,5.25 10.875,7 11.125,8 C11.125,8 10,8 10,8 C10,6.75 10.625,5.75 10.625,5.75 C10.625,5.75 10,5.5 10,5.75 C10,5.75 9.5,5.75 9.5,5.75 C9.5,5.75 9.5,4.75 9.5,4.75 z"/>
<path d="M6.325,4.75 C6.325,4.75 6.825,4.75 6.825,4.75 C6.825,5 8.25,4.75 8.25,4.75 C8.25,4.75 8.75,4.75 8.5,5 C8.25,5.25 7.75,7 8,8 C8,8 6.825,8 6.825,8 C6.825,6.75 7.5,5.75 7.5,5.75 C7.5,5.75 6.825,5.5 6.825,5.75 C6.825,5.75 6.325,5.75 6.325,5.75 C6.325,5.75 6.325,4.75 6.325,4.75 z"/>
<path d="M3.25,4.75 C3.25,4.75 3.75,4.75 3.75,4.75 C3.75,5 5.125,4.75 5.125,4.75 C5.125,4.75 5.625,4.75 5.375,5 C5.125,5.25 4.625,7 4.875,8 C4.875,8 3.75,8 3.75,8 C3.75,6.75 4.375,5.75 4.375,5.75 C4.375,5.75 3.75,5.5 3.75,5.75 C3.75,5.75 3.25,5.75 3.25,5.75 C3.25,5.75 3.25,4.75 3.25,4.75 z"/>
</svg>
