<?xml version="1.0" encoding="UTF-8"?>
<svg width="15px" height="15px" viewBox="0 0 15 15" version="1.1" xmlns="http://www.w3.org/2000/svg" xmlns:xlink="http://www.w3.org/1999/xlink">
    <path d="M6.53553123,2.07106246 L6.10557281,1.21114562 C6.03614509,1.07229018 6,0.919177118 6,0.763932023 L6,0.5 C6,0.223857625 6.22385763,5.50203904e-15 6.5,5.55111512e-17 L8.5,-4.4408921e-16 C8.77614237,-2.49552043e-16 9,0.223857625 9,0.5 L9,0.763932023 C9,0.919177118 8.96385491,1.07229018 8.89442719,1.21114562 L8.46446877,2.07106246 C11.2703887,2.48843093 13.4910529,4.69904658 13.9235518,7.5 L1.07644818,7.5 C1.5089471,4.69904658 3.72961126,2.48843093 6.53553123,2.07106246 Z M0.75,8 L14.25,8 C14.6642136,8 15,8.33578644 15,8.75 C15,9.16421356 14.6642136,9.5 14.25,9.5 L0.75,9.5 C0.335786438,9.5 5.07265313e-17,9.16421356 0,8.75 C-5.07265313e-17,8.33578644 0.335786438,8 0.75,8 Z M9.67225111,13.4971068 L5.72119817,13.4971068 C5.29055514,13.4971068 4.90827764,13.7728046 4.77233237,14.1814271 L4.5,15 L1,15 L3.12609236,11.4565127 C3.6682621,10.5528965 4.64478258,10 5.69857114,10 L6,10 L9.25,10 C9.66421356,10 10,10.3357864 10,10.75 C10,11.1642136 9.66421356,11.5 9.25,11.5 L6.24855339,11.5 C6.11128114,11.5 6,11.6112811 6,11.7485534 C6,11.8858256 6.11128114,11.9971068 6.24855339,11.9971068 L10,11.9971068 L11.4996382,10.499638 C11.776039,10.2236371 12.2237991,10.2237991 12.5,10.5 C12.7759825,10.7759825 12.7759825,11.2234386 12.5,11.4994212 L11.0856456,12.9121389 C10.7106397,13.2867109 10.2022828,13.4971068 9.67225111,13.4971068 Z"></path>
</svg>
