<?xml version="1.0" encoding="UTF-8"?>
<svg width="15px" height="15px" viewBox="0 0 15 15" version="1.1" xmlns="http://www.w3.org/2000/svg" xmlns:xlink="http://www.w3.org/1999/xlink">
    <path d="M5.74927325,10.5002749 L0.750136633,10.5002749 C0.724880686,10.5002945 0.699687289,10.4990485 0.67451744,10.4965107 C0.517400095,10.4807829 0.374570315,10.4165731 0.261208662,10.3190618 C0.260698598,10.3186244 0.260189229,10.3181863 0.259680553,10.3177477 C0.217855891,10.2815722 0.180069053,10.2408534 0.14708995,10.196357 C0.142524468,10.1901792 0.138059815,10.1839381 0.133696761,10.1776365 C0.0493956725,10.0563667 -3.81722145e-14,9.90902097 -3.8191672e-14,9.75013822 C-3.81940332e-14,9.73085765 0.000727403225,9.71174698 0.00215626379,9.69283214 C0.00251466395,9.68794186 0.00298747411,9.68246302 0.00352141957,9.67698514 C0.0143332506,9.56526996 0.0496494839,9.46072431 0.10402864,9.36878968 L2.58886139,4.89609072 C2.62259276,4.83294643 2.6655561,4.77425002 2.71711125,4.722242 C2.95312707,4.4882279 3.31586534,4.42868659 3.61436883,4.59452186 C3.74519191,4.66720135 3.8457782,4.77322611 3.91141187,4.89609072 L6.19136235,9.00000159 L14.2501366,9.00000159 C14.6643502,9.00000159 15.0001366,9.33578804 15.0001366,9.75000162 C15.0001366,9.75004715 15.0001366,9.75009269 15.0001366,9.75013822 C15.0000612,10.1644493 14.6641745,10.5002749 14.2498634,10.5002749 L5.75236103,10.5002749 C5.75133115,10.500277 5.75030218,10.500277 5.74927333,10.5002749 Z M4.475424,9.00000159 L3.25013663,6.79448434 L2.02484927,9.00000159 L4.475424,9.00000159 Z M11.0888614,4.89608913 C11.0906905,4.89266517 11.0925467,4.88925428 11.0944299,4.88585683 C11.2956786,4.52381823 11.752281,4.39336038 12.1143688,4.59452027 C12.2451919,4.66719976 12.3457782,4.77322452 12.4114119,4.89608913 L14.9057546,9.38590603 C15.1069145,9.74799383 14.9764566,10.2045963 14.6143688,10.4057562 C14.252281,10.6069161 13.7956786,10.4764582 13.5945187,10.1143704 L11.7501366,6.79448275 L9.90575459,10.1143704 C9.7045947,10.4764582 9.24799223,10.6069161 8.88590443,10.4057562 C8.52381664,10.2045963 8.39335879,9.74799383 8.59451868,9.38590603 L11.0888614,4.89608913 Z"></path>
</svg>
