<?xml version="1.0" encoding="UTF-8"?>
<svg width="15px" height="15px" viewBox="0 0 15 15" version="1.1" xmlns="http://www.w3.org/2000/svg" xmlns:xlink="http://www.w3.org/1999/xlink">
    <path d="M9.11985493,8.875 C9.12878434,8.84905996 9.13952483,8.82340784 9.15212862,8.79820027 L10.9381596,5.22613828 C10.9962259,5.10679247 11.0926086,5.00492444 11.2204915,4.94098301 C11.5292281,4.78661473 11.9046487,4.91175494 12.059017,5.2204915 C12.0599896,5.22235842 12.0609198,5.22424616 12.0618404,5.22613828 L14.0267568,9.15597114 C14.0320567,9.16657092 14.0370271,9.1772493 14.041672,9.18799464 C14.0946733,9.27981195 14.125,9.38636439 14.125,9.5 C14.125,9.84517797 13.845178,10.125 13.5,10.125 L1.5,10.125 C1.15482203,10.125 0.875,9.84517797 0.875,9.5 C0.875,9.38636439 0.905326667,9.27981195 0.958328039,9.18799464 C0.962972875,9.1772493 0.967943296,9.16657092 0.973243185,9.15597114 L2.93815962,5.22613828 C2.99622591,5.10679247 3.09260863,5.00492444 3.2204915,4.94098301 C3.52922806,4.78661473 3.90464871,4.91175494 4.05901699,5.2204915 C4.05998957,5.22235842 4.06091979,5.22424616 4.06184038,5.22613828 L5.84787138,8.79820027 C5.86047517,8.82340784 5.87121566,8.84905996 5.88014507,8.875 L9.11985493,8.875 L9.11985493,8.875 Z M10.5112712,8.875 L12.4887288,8.875 L11.5,6.89754249 L10.5112712,8.875 L10.5112712,8.875 Z M2.51127124,8.875 L4.48872876,8.875 L3.5,6.89754249 L2.51127124,8.875 L2.51127124,8.875 Z"></path>
</svg>
