<?xml version="1.0" encoding="UTF-8"?>
<svg width="15px" height="15px" viewBox="0 0 15 15" version="1.1" xmlns="http://www.w3.org/2000/svg" xmlns:xlink="http://www.w3.org/1999/xlink">
    <path d="M14,7 L14,13.4980157 C14,13.4986758 13.9999987,13.499336 13.9999961,13.4999961 C13.9989024,13.7761363 13.7741599,13.9991055 13.4980197,13.9980118 L8,13.9762357 L14,7 Z M7,13.5 L7,9 L2,9 C1.44771525,9 1,8.55228475 1,8 C1,7.44771525 1.44771525,7 2,7 L12.5,7 L7,13.5 Z M13,3.49999829 C13,4.88071017 11.8807119,5.99999829 10.4999991,5.99999829 C9.11928774,5.99999829 8,4.88071055 8,3.5 C8,2.11928813 9.11928813,1 10.5000009,1 C11.8807123,1 13,2.11928774 13,3.49999829 Z"></path>
</svg>
