<?xml version="1.0" encoding="UTF-8"?>
<svg width="15px" height="15px" viewBox="0 0 15 15" version="1.1" xmlns="http://www.w3.org/2000/svg" xmlns:xlink="http://www.w3.org/1999/xlink">
    <path d="M10.0410957,8.29032976 L6.67977115,12.0234589 C1.72547231,7.56258818 -0.126665471,3.64168938 1.1233578,0.260762488 L10.0410957,8.29032976 Z M7.6135752,9.49188786 C4.75685758,6.85382735 2.83958961,4.66923396 1.86177128,2.93810768 C1.77581202,4.93937103 3.36545862,7.48782484 6.63071106,10.5834691 L7.6135752,9.49188786 L7.6135752,9.49188786 Z M10.3930748,8.64665561 L13.7372223,11.6577396 C14.352866,12.2120676 14.4025721,13.160517 13.8482441,13.7761607 C13.2971523,14.3882102 12.3542399,14.4376261 11.7421904,13.8865343 L11.7357188,13.8806729 L11.3660905,13.5439184 C11.5460798,12.886012 11.3391625,12.182868 10.8315112,11.7273166 L9.05480606,10.1329537 L10.3930748,8.64665561 Z"></path>
</svg>
