<?xml version="1.0" encoding="UTF-8"?>
<svg xmlns="http://www.w3.org/2000/svg" xmlns:xlink="http://www.w3.org/1999/xlink" width="351.000000mm" height="312.000000mm" viewBox="2582.179688 3174.230469 3510 3120" version="1.1">
<g id="surface461">
<path style=" stroke:none;fill-rule:evenodd;fill:rgb(16.470588%,16.078431%,16.470588%);fill-opacity:1;" d="M 5520.179688 4942.230469 L 5847.277344 5213.605469 C 5879.941406 5240.703125 5921.046875 5255.535156 5963.488281 5255.535156 C 6011.757812 5255.535156 6058.050781 5236.359375 6092.179688 5202.226562 L 5515.589844 4625.636719 C 5467.664062 4645.828125 5416.183594 4656.230469 5364.179688 4656.230469 C 5287.703125 4656.230469 5212.914062 4633.742188 5149.113281 4591.570312 L 4764.359375 4676.867188 C 4749.0625 4680.257812 4736.109375 4690.367188 4729.101562 4704.378906 L 4532.179688 5098.230469 C 4557.453125 5110.863281 4585.320312 5117.441406 4613.574219 5117.441406 C 4682.507812 5117.441406 4745.53125 5078.496094 4776.359375 5016.835938 L 4870.179688 4838.230469 L 5052.179688 4838.230469 L 4896.179688 5462.230469 L 4544.496094 5488.742188 C 4449.558594 5495.902344 4376.179688 5575.019531 4376.179688 5670.230469 L 4972.351562 5670.230469 C 4989.738281 5670.230469 5005.972656 5661.542969 5015.617188 5647.078125 L 5104.175781 5514.230469 L 5286.179688 5566.230469 L 5286.179688 6112.230469 C 5286.179688 6212.746094 5367.664062 6294.230469 5468.179688 6294.230469 L 5520.179688 4942.230469 M 5104.179688 4266.230469 C 5104.179688 4122.636719 5220.585938 4006.230469 5364.179688 4006.230469 C 5507.773438 4006.230469 5624.179688 4122.636719 5624.179688 4266.230469 C 5624.179688 4409.824219 5507.773438 4526.230469 5364.179688 4526.230469 C 5220.585938 4526.230469 5104.179688 4409.824219 5104.179688 4266.230469 "/>
<path style=" stroke:none;fill-rule:evenodd;fill:rgb(16.470588%,16.078431%,16.470588%);fill-opacity:1;" d="M 4144.375 6160.957031 L 3914.589844 4801.433594 C 3913.136719 4792.84375 3912.40625 4784.144531 3912.40625 4775.433594 C 3912.40625 4769.34375 3912.765625 4763.257812 3913.476562 4757.207031 L 3988.8125 4116.832031 L 4523.128906 4437.472656 C 4559.5 4459.296875 4601.117188 4470.828125 4643.535156 4470.828125 C 4725.726562 4470.828125 4801.890625 4427.707031 4844.179688 4357.234375 L 3986.179688 3842.347656 C 3925.796875 3873.164062 3858.972656 3889.230469 3791.179688 3889.230469 C 3681.699219 3889.230469 3576.359375 3847.371094 3496.738281 3772.230469 L 3041.097656 3918.621094 C 3021.902344 3924.785156 3005.839844 3938.148438 2996.277344 3955.902344 L 2738.175781 4435.230469 C 2772.269531 4453.589844 2810.390625 4463.199219 2849.113281 4463.199219 C 2935.199219 4463.199219 3014.332031 4415.933594 3055.144531 4340.140625 L 3172.511719 4122.179688 L 3448.867188 4033.390625 L 3371.042969 4694.867188 C 3369.425781 4708.628906 3365.976562 4722.117188 3360.796875 4734.96875 L 3167.179688 5215.230469 L 2723.546875 5406.476562 C 2637.753906 5443.460938 2582.179688 5527.9375 2582.179688 5621.363281 C 2582.179688 5653.21875 2588.683594 5684.742188 2601.296875 5713.996094 L 3332.496094 5422.109375 C 3351.515625 5414.5 3366.777344 5399.71875 3374.988281 5380.953125 L 3635.179688 4786.230469 L 3876.023438 5976.632812 C 3898.105469 6085.769531 3994.03125 6164.230469 4105.378906 6164.230469 C 4118.445312 6164.230469 4131.488281 6163.132812 4144.375 6160.957031 M 3505.179688 3460.230469 C 3505.179688 3302.277344 3633.226562 3174.230469 3791.179688 3174.230469 C 3949.132812 3174.230469 4077.179688 3302.277344 4077.179688 3460.230469 C 4077.179688 3618.183594 3949.132812 3746.230469 3791.179688 3746.230469 C 3633.226562 3746.230469 3505.179688 3618.183594 3505.179688 3460.230469 "/>
</g>
</svg>
