<?xml version="1.0" encoding="UTF-8"?>
<!DOCTYPE svg PUBLIC "-//W3C//DTD SVG 1.1//EN" "http://www.w3.org/Graphics/SVG/1.1/DTD/svg11.dtd">
<svg version="1.1" xmlns="http://www.w3.org/2000/svg" xmlns:xlink="http://www.w3.org/1999/xlink" x="0" y="0" width="15" height="15" viewBox="0 0 15 15">
<path d="M10.5,0 C12.5,0 14,1 14,2 C14,3 12.5,4 10.5,4 C9.5,4 9,3.75 9,3.75 C9,5.5 6,5 6,5 C6,5.5 5.5,6 4.5,6 C3.5,6 3,5.5 3,5 C3,4.5 3.5,4 4.5,4 C4.5,3.5 4.5,2 7,2 C7,1 8.5,0 10.5,0 z M2,7 C2,7 2,14.5 2,14.5 C2,15 5,15 5,14.5 C5,14.5 5,7 5,7 C5,6.5 2,6.5 2,7 z"/>
</svg>
