<?xml version="1.0" encoding="UTF-8"?>
<!DOCTYPE svg PUBLIC "-//W3C//DTD SVG 1.1//EN" "http://www.w3.org/Graphics/SVG/1.1/DTD/svg11.dtd">
<svg version="1.1" xmlns="http://www.w3.org/2000/svg" xmlns:xlink="http://www.w3.org/1999/xlink" x="0" y="0" width="15" height="15" viewBox="0 0 15 15">
    <path d="M10.5,-0 C12.433,0 14,0.896 14,2 C14,3.105 12.433,4 10.5,4 C9.497,3.942 10.024,4.014 8.924,3.75 C8.737,4.757 7.558,4.891 6.75,5 L6,5 C6,5.552 5.328,6 4.5,6 C3.672,6 3,5.552 3,5 C3,4.448 3.672,4 4.5,4 L4.658,4.021 L4.5,3.5 C4.5,2.672 5.507,2 6.75,2 L7,2 C7,0.896 8.567,0 10.5,0 z M2,7 C2,7.521 2,13 2,14 C2,14.5 4.5,14.5 4.5,14 C4.5,13 4.5,7.479 4.5,7 C4.5,6.521 2,6.479 2,7 z"/>
</svg>
