<?xml version="1.0" encoding="UTF-8"?>
<svg width="15px" height="15px" viewBox="0 0 15 15" version="1.1" xmlns="http://www.w3.org/2000/svg" xmlns:xlink="http://www.w3.org/1999/xlink">
    <path d="M2.55875182,4.19609074 L1.7179731,4.74209883 C2.08136074,6.0899115 2.53674859,7.18526969 3.08413664,8.02817337 C3.76493543,9.07651158 4.86036385,10.153677 6.37042188,11.2596696 L5.53175132,11.8043086 C4.02169328,10.698316 2.92626487,9.62115062 2.24546607,8.57281241 C1.56466728,7.5244742 1.02617859,6.0856279 0.63,4.25627353 L5.66528439,0.986321608 L6.21182327,0.631440719 C6.67499052,0.330656393 7.29429563,0.462293758 7.59507996,0.925461005 C7.64731873,1.00590165 7.6877125,1.09343965 7.71501987,1.1853847 C8.02142596,2.21706694 8.35047047,3.08314171 8.70215337,3.783609 C9.19285558,4.76096912 10.1005873,6.1587534 11.4253485,7.97696184 L7.21235343,10.7129129 C5.70012141,9.60833206 4.603606,8.53187255 3.92280721,7.48353434 C3.37541915,6.64063065 2.92073402,5.54481612 2.55875182,4.19609074 Z M5.5809205,2.23347145 C5.11773554,2.53426729 4.98609313,3.15359609 5.28688897,3.61678106 C5.5876848,4.07996602 6.20701361,4.21160842 6.67019857,3.91081259 C7.13338353,3.61001675 7.26502594,2.99068795 6.9642301,2.52750299 C6.66343427,2.06431802 6.04410546,1.93267562 5.5809205,2.23347145 Z M11.6731104,8.41224508 L14.1239829,12.1862579 C14.5751784,12.881038 14.377714,13.8100347 13.682934,14.2612301 C12.9922101,14.7097915 12.0686369,14.5134799 11.6200755,13.822756 L11.6153415,13.8154193 L11.3454665,13.3944727 C11.6896015,12.8055686 11.6717218,12.0728295 11.2992736,11.5014108 L9.99575975,9.50152931 L11.6731104,8.41224508 Z"></path>
</svg>
