<?xml version="1.0" encoding="UTF-8"?>
<svg width="15px" height="15px" viewBox="0 0 15 15" version="1.1" xmlns="http://www.w3.org/2000/svg" xmlns:xlink="http://www.w3.org/1999/xlink">
    <path d="M1.99999999,1 L3.75,1 C3.90737865,1 4.05557281,1.07409708 4.15,1.2 L7,5 L6,10 L9,12 L9.81909844,13.6381979 C9.88084572,13.7616925 9.8307896,13.9118607 9.70729496,13.973608 C9.67258111,13.9909649 9.63430287,14.0000012 9.59549161,14.0000012 L1.99999999,14.0000012 C1.44771524,14.0000012 0.999999986,13.552286 0.999999986,13.0000012 L0.999999986,2 C0.999999986,1.44771525 1.44771524,1 1.99999999,1 Z M9.42993498,5.02577663 L11.6805334,5.77597609 C11.8298359,5.82574359 11.9469936,5.94290136 11.9967611,6.09220386 L12.7595903,8.38069139 C12.8469142,8.64266305 12.7053342,8.92582303 12.4433626,9.01314692 L10.1141829,9.78954012 C9.98837972,9.83147453 9.85107069,9.82171628 9.73246227,9.76241207 L8.27644625,9.03440406 C8.06683784,8.92959986 7.95814374,8.69327489 8.0149818,8.46592265 L8.78674985,5.37885046 C8.85372421,5.11095301 9.12519145,4.94807266 9.39308891,5.01504703 C9.40550371,5.01815073 9.41779479,5.0217299 9.42993498,5.02577663 Z M11,12.3292891 L11,11.1383061 C11,10.9489201 11.1070012,10.7757885 11.2763932,10.6910925 L12.6267661,10.0159061 C12.8428982,9.90784001 13.1053871,9.96980522 13.2503729,10.1631197 L14.1828707,11.4064501 C14.3485562,11.627364 14.3037846,11.9407647 14.0828707,12.1064501 C14.0754705,12.1120003 14.0679176,12.1173441 14.0602208,12.1224753 L13.1259623,12.7453143 C13.0438285,12.8000701 12.9473247,12.8292891 12.8486122,12.8292891 L11.5,12.8292891 C11.2238576,12.8292891 11,12.6054315 11,12.3292891 Z"></path>
</svg>
