<?xml version="1.0" encoding="UTF-8"?>
<!DOCTYPE svg PUBLIC "-//W3C//DTD SVG 1.1//EN" "http://www.w3.org/Graphics/SVG/1.1/DTD/svg11.dtd">
<svg version="1.1" xmlns="http://www.w3.org/2000/svg" xmlns:xlink="http://www.w3.org/1999/xlink" x="0" y="0" width="15" height="15" viewBox="0 0 15 15">
    <path d="M10.89,4.512 C11.327,4.585 11.17,4.488 11.407,4.709 C11.567,4.934 11.515,5.246 11.291,5.407 C10.853,5.719 10.853,5.719 9.541,6.657 C8.228,7.594 8.228,7.594 7.791,7.907 C7.629,8.023 7.413,8.031 7.243,7.929 C6.878,7.71 7.112,7.851 6.54,7.507 C5.941,7.147 5.342,6.788 4.743,6.429 C4.506,6.287 4.429,5.98 4.571,5.743 C4.713,5.506 5.02,5.429 5.257,5.571 C5.622,5.79 5.387,5.649 5.96,5.993 C7.195,6.734 6.689,6.431 7.476,6.903 C7.971,6.549 8.465,6.196 8.959,5.843 C10.272,4.906 10.272,4.906 10.709,4.593 L10.89,4.512 z M7.5,1.5 C10.814,1.5 13.5,4.186 13.5,7.5 C13.5,10.814 10.814,13.5 7.5,13.5 C4.186,13.5 1.5,10.814 1.5,7.5 C1.5,4.186 4.186,1.5 7.5,1.5 z M7.5,0 C3.358,0 0,3.358 0,7.5 C0,11.642 3.358,15 7.5,15 C11.642,15 15,11.642 15,7.5 C15,3.358 11.642,0 7.5,0 z"/>
</svg>
