<?xml version="1.0" encoding="UTF-8"?>
<svg width="15px" height="15px" viewBox="0 0 15 15" version="1.1" xmlns="http://www.w3.org/2000/svg" xmlns:xlink="http://www.w3.org/1999/xlink">
    <path d="M6.75,7.14169757 L6.75,5.5 C6.75,5.08578644 7.08578644,4.75 7.5,4.75 C8.19035594,4.75 8.75,4.19035594 8.75,3.5 C8.75,2.80964406 8.19035594,2.25 7.5,2.25 C6.80964406,2.25 6.25,2.80964406 6.25,3.5 C6.25,3.91421356 5.91421356,4.25 5.5,4.25 C5.08578644,4.25 4.75,3.91421356 4.75,3.5 C4.75,1.98121694 5.98121694,0.75 7.5,0.75 C9.01878306,0.75 10.25,1.98121694 10.25,3.5 C10.25,4.75877712 9.4042524,5.82001931 8.25,6.14648376 L8.25,7.1416755 L14.2991954,12.0275743 C14.5930092,12.264886 14.763773,12.6223183 14.763773,13 C14.763773,13.6903559 14.2041289,14.25 13.513773,14.25 L1.48625434,14.25 C1.10857269,14.25 0.751140371,14.0792362 0.513828673,13.7854224 C0.0800518691,13.2483665 0.163776092,12.4613511 0.700831959,12.0275743 L6.75,7.14169757 Z M12.8063747,12.75 L7.50001366,8.46408397 L2.19365259,12.75 L12.8063747,12.75 Z"></path>
</svg>
