<?xml version="1.0" encoding="UTF-8"?>
<!DOCTYPE svg PUBLIC "-//W3C//DTD SVG 1.1//EN" "http://www.w3.org/Graphics/SVG/1.1/DTD/svg11.dtd">
<svg version="1.1" xmlns="http://www.w3.org/2000/svg" xmlns:xlink="http://www.w3.org/1999/xlink" x="0" y="0" width="15" height="15" viewBox="0 0 15 15">
<path d="M13.5,1 C14,0.5 6.5,-0 3,3.5 C1,5.5 0,8.5 0,10 C0,12 1,15 3,15 C10,15 12.5,9.5 13.5,7.5 C14.5,5.5 15,1.5 14,1.5 C13.5,1.5 11,3 10,4 C9,5 9,7 8,8 C7,9 5.5,9 4.5,10 C3.5,11 2,12.5 2,12.5 C2,12.5 2.5,10 3.5,9 C4.5,8 5.5,8 6.5,7 C7.5,6 8,4 9,3 C10,2 13,1.5 13.5,1 z"/>
</svg>
