<?xml version="1.0" encoding="UTF-8"?>
<svg width="15px" height="15px" viewBox="0 0 15 15" version="1.1" xmlns="http://www.w3.org/2000/svg" xmlns:xlink="http://www.w3.org/1999/xlink">
    <path d="M5.5198617,2.57616596 C5.20165403,2.3109929 5.15866098,1.83806937 5.42383404,1.5198617 C5.6890071,1.20165403 6.16193063,1.15866098 6.4801383,1.42383404 L9.4801383,3.92383404 C9.8399539,4.22368037 9.8399539,4.77631963 9.4801383,5.07616596 L6.4801383,7.57616596 C6.16193063,7.84133902 5.6890071,7.79834597 5.42383404,7.4801383 C5.15866098,7.16193063 5.20165403,6.6890071 5.5198617,6.42383404 L7.82846255,4.5 L5.5198617,2.57616596 Z M3.82846255,4.5 L1.5198617,2.57616596 C1.20165403,2.3109929 1.15866098,1.83806937 1.42383404,1.5198617 C1.6890071,1.20165403 2.16193063,1.15866098 2.4801383,1.42383404 L5.4801383,3.92383404 C5.8399539,4.22368037 5.8399539,4.77631963 5.4801383,5.07616596 L2.4801383,7.57616596 C2.16193063,7.84133902 1.6890071,7.79834597 1.42383404,7.4801383 C1.15866098,7.16193063 1.20165403,6.6890071 1.5198617,6.42383404 L3.82846255,4.5 Z M11.8284625,4.5 L9.5198617,2.57616596 C9.20165403,2.3109929 9.15866098,1.83806937 9.42383404,1.5198617 C9.6890071,1.20165403 10.1619306,1.15866098 10.4801383,1.42383404 L13.4801383,3.92383404 C13.8399539,4.22368037 13.8399539,4.77631963 13.4801383,5.07616596 L10.4801383,7.57616596 C10.1619306,7.84133902 9.6890071,7.79834597 9.42383404,7.4801383 C9.15866098,7.16193063 9.20165403,6.6890071 9.5198617,6.42383404 L11.8284625,4.5 Z M3,11 C3.55228475,11 4,11.4477153 4,12 C4,12.5522847 3.55228475,13 3,13 C2.44771525,13 2,12.5522847 2,12 C2,11.4477153 2.44771525,11 3,11 Z M6,11 C6.55228475,11 7,11.4477153 7,12 C7,12.5522847 6.55228475,13 6,13 C5.44771525,13 5,12.5522847 5,12 C5,11.4477153 5.44771525,11 6,11 Z M9,11 C9.55228475,11 10,11.4477153 10,12 C10,12.5522847 9.55228475,13 9,13 C8.44771525,13 8,12.5522847 8,12 C8,11.4477153 8.44771525,11 9,11 Z M12,11 C12.5522847,11 13,11.4477153 13,12 C13,12.5522847 12.5522847,13 12,13 C11.4477153,13 11,12.5522847 11,12 C11,11.4477153 11.4477153,11 12,11 Z M3,10 C1.8954305,10 1,10.8954305 1,12 C1,13.1045695 1.8954305,14 3,14 L12,14 C13.1045695,14 14,13.1045695 14,12 C14,10.8954305 13.1045695,10 12,10 L3,10 Z M3,9 L12,9 C13.6568542,9 15,10.3431458 15,12 C15,13.6568542 13.6568542,15 12,15 L3,15 C1.34314575,15 2.02906125e-16,13.6568542 0,12 C-2.02906125e-16,10.3431458 1.34314575,9 3,9 Z"></path>
</svg>
