<?xml version="1.0" encoding="UTF-8"?>
<svg viewBox="0 0 15 15" version="1.1" xmlns="http://www.w3.org/2000/svg" xmlns:xlink="http://www.w3.org/1999/xlink">
  <path d="M3,-9.59232693e-14 L12,-9.59232693e-14 C11.3333333,1.33333333 11,2.33333333 11,3 C11,4 11,4.21603561 11,5 C11,8 14,12 14,15 C11,15 5,15 1,15 C1,12 4,8 4,5 C4,4.17753545 4,4 4,3 C4,2.33333333 3.66666667,1.33333333 3,-9.59232693e-14 Z M5.44153075,13.9307821 C6.70428,14.6897393 8.29572,14.6897393 9.55846925,13.9307821 L8.4005803,12.0009672 C7.8481275,12.3330109 7.1518725,12.3330109 6.5994197,12.0009672 L5.44153075,13.9307821 Z M3.5,10.5 L5.75,10.5 C5.75,10.0521359 5.92085438,9.60427189 6.26256313,9.26256313 C6.3660889,9.15903736 6.47935843,9.07119393 6.5994197,8.99903284 L5.44153075,7.06921791 C5.16710499,7.23415755 4.90820321,7.43494254 4.67157288,7.67157288 C3.89052429,8.45262146 3.5,9.47631073 3.5,10.5 Z M11.5,10.5 C11.5,9.47631073 11.1094757,8.45262146 10.3284271,7.67157288 C10.0917968,7.43494254 9.83289501,7.23415755 9.55846925,7.06921791 L8.4005803,8.99903284 C8.52064157,9.07119393 8.6339111,9.15903736 8.73743687,9.26256313 C9.07914562,9.60427189 9.25,10.0521359 9.25,10.5 L11.5,10.5 Z M8.20710678,9.79289322 C7.81658249,9.40236893 7.18341751,9.40236893 6.79289322,9.79289322 C6.40236893,10.1834175 6.40236893,10.8165825 6.79289322,11.2071068 C7.18341751,11.5976311 7.81658249,11.5976311 8.20710678,11.2071068 C8.59763107,10.8165825 8.59763107,10.1834175 8.20710678,9.79289322 Z"/>
</svg>