<?xml version="1.0" encoding="UTF-8"?>
<svg viewBox="0 0 15 15" version="1.1" xmlns="http://www.w3.org/2000/svg" xmlns:xlink="http://www.w3.org/1999/xlink">
  <path d="M3,-9.59232693e-14 L12,-9.59232693e-14 C11.3333333,1.33333333 11,2.33333333 11,3 C11,4 11,4.21603561 11,5 C11,8 14,12 14,15 C11,15 5,15 1,15 C1,12 4,8 4,5 C4,4.17753545 4,4 4,3 C4,2.33333333 3.66666667,1.33333333 3,-9.59232693e-14 Z M5.44153075,13.7115642 C6.70428,14.4705214 8.29572,14.4705214 9.55846925,13.7115642 L8.4005803,11.7817493 C7.8481275,12.113793 7.1518725,12.113793 6.5994197,11.7817493 L5.44153075,13.7115642 Z M3.5,10.2807821 L5.75,10.2807821 C5.75,9.83291803 5.92085438,9.38505398 6.26256313,9.04334522 C6.3660889,8.93981945 6.47935843,8.85197602 6.5994197,8.77981493 L5.44153075,6.85 C5.16710499,7.01493964 4.90820321,7.21572463 4.67157288,7.45235496 C3.89052429,8.23340355 3.5,9.25709282 3.5,10.2807821 Z M11.5,10.2807821 C11.5,9.25709282 11.1094757,8.23340355 10.3284271,7.45235496 C10.0917968,7.21572463 9.83289501,7.01493964 9.55846925,6.85 L8.4005803,8.77981493 C8.52064157,8.85197602 8.6339111,8.93981945 8.73743687,9.04334522 C9.07914562,9.38505398 9.25,9.83291803 9.25,10.2807821 L11.5,10.2807821 Z M8.20710678,9.57367531 C7.81658249,9.18315102 7.18341751,9.18315102 6.79289322,9.57367531 C6.40236893,9.9641996 6.40236893,10.5973646 6.79289322,10.9878889 C7.18341751,11.3784132 7.81658249,11.3784132 8.20710678,10.9878889 C8.59763107,10.5973646 8.59763107,9.9641996 8.20710678,9.57367531 Z"/>
</svg>