<?xml version="1.0" encoding="UTF-8"?>
<svg viewBox="0 0 15 15" version="1.1" xmlns="http://www.w3.org/2000/svg" xmlns:xlink="http://www.w3.org/1999/xlink">
  <path d="M3 0L12 0C11.33 1.33 11 2.33 11 3C11 4 11 4.22 11 5C11 8 14 12 14 15C11 15 5 15 1 15C1 12 4 8 4 5C4 4.18 4 4 4 3C4 2.33 3.67 1.33 3 0ZM5.44 13.71C6.7 14.47 8.3 14.47 9.56 13.71L8.4 11.78C7.85 12.11 7.15 12.11 6.6 11.78L5.44 13.71ZM3.5 10.28L5.75 10.28C5.75 9.83 5.92 9.39 6.26 9.04C6.37 8.94 6.48 8.85 6.6 8.78L5.44 6.85C5.17 7.01 4.91 7.22 4.67 7.45C3.89 8.23 3.5 9.26 3.5 10.28ZM11.5 10.28C11.5 9.26 11.11 8.23 10.33 7.45C10.09 7.22 9.83 7.01 9.56 6.85L8.4 8.78C8.52 8.85 8.63 8.94 8.74 9.04C9.08 9.39 9.25 9.83 9.25 10.28L11.5 10.28ZM8.21 9.57C7.82 9.18 7.18 9.18 6.79 9.57C6.4 9.96 6.4 10.6 6.79 10.99C7.18 11.38 7.82 11.38 8.21 10.99C8.6 10.6 8.6 9.96 8.21 9.57Z"/>
</svg>