<?xml version="1.0" encoding="UTF-8"?>
<svg viewBox="0 0 15 15" version="1.1" xmlns="http://www.w3.org/2000/svg" xmlns:xlink="http://www.w3.org/1999/xlink">
  <path d="M5,0 C5.51283584,0 5.93550716,0.38604019 5.99327227,0.883378875 L6,1 L6,3 C6.55228475,3 7,3.44771525 7,4 C7,4.51283584 6.61395981,4.93550716 6.11662113,4.99327227 L6,5 L6,10 C6.51283584,10 6.93550716,9.61395981 6.99327227,9.11662113 L7,9 L7,6 C7,5.44771525 7.44771525,5 8,5 C8.51283584,5 8.93550716,5.38604019 8.99327227,5.88337887 L9,6 L9,7 C9.55228475,7 10,7.44771525 10,8 C10,8.51283584 9.61395981,8.93550716 9.11662113,8.99327227 L9,9 C9,10.6568542 7.65685425,12 6,12 L5.99883323,13.0307427 C6.47360324,13.0102476 6.97399217,13 7.5,13 C8.83120986,13 9.99833456,13.0656341 11.0013741,13.1969022 L11,12 L10.5,12 C10.2238576,12 10,11.7761424 10,11.5 C10,11.2545401 10.1768752,11.0503916 10.4101244,11.0080557 L10.5,11 L11,11 L11,8 C11,7.44771525 11.4477153,7 12,7 C12.5128358,7 12.9355072,7.38604019 12.9932723,7.88337887 L13,8 L13.5,8 C13.7761424,8 14,8.22385763 14,8.5 C14,8.74545989 13.8231248,8.94960837 13.5898756,8.99194433 L13.5,9 L13,9 L13,10 L14.5,10 C14.7761424,10 15,10.2238576 15,10.5 C15,10.7454599 14.8231248,10.9496084 14.5898756,10.9919443 L14.5,11 L13,11 L13,12 L13.5,12 C13.7761424,12 14,12.2238576 14,12.5 C14,12.7454599 13.8231248,12.9496084 13.5898756,12.9919443 L13.5,13 L13,13 L13.0015562,13.6091823 C13.1168204,13.6444796 13.2282498,13.6813108 13.3358444,13.7196759 C13.7340951,13.8616657 14,14.2387827 14,14.6615884 L14,15 L1,15 L1,14.6615885 C1,14.2387913 1.26590366,13.8616817 1.66414136,13.7196809 C1.7757554,13.6798824 1.89149607,13.6417345 2.01136337,13.6052373 L2,13.5 L2,13 L1.5,13 C1.22385763,13 1,12.7761424 1,12.5 C1,12.2545401 1.17687516,12.0503916 1.41012437,12.0080557 L1.5,12 L2,12 L2,11.5 C2,11.2238576 2.22385763,11 2.5,11 C2.74545989,11 2.94960837,11.1768752 2.99194433,11.4101244 L3,11.5 L2.99990121,13.3600198 C3.31274446,13.2974485 3.64597804,13.2430334 3.99960195,13.1967745 L4,10 C2.40231912,10 1.09633912,8.75108004 1.00509269,7.17627279 L1,7 L1,6 C0.44771525,6 0,5.55228475 0,5 C0,4.48716416 0.38604019,4.06449284 0.883378875,4.00672773 L1,4 L1,3 C1,2.44771525 1.44771525,2 2,2 C2.51283584,2 2.93550716,2.38604019 2.99327227,2.88337887 L3,3 L3,7 C3,7.51283584 3.38604019,7.93550716 3.88337887,7.99327227 L4,8 L4,1 C4,0.44771525 4.44771525,0 5,0 Z M8.14880437,1.64075448 C8.80015037,0.338062472 10.3483375,-0.219752859 11.6708773,0.341471324 L11.8284271,0.414213562 L13,1 L12.3535534,1.64644661 C12.3147133,1.68528667 12.2928932,1.73796509 12.2928932,1.79289322 C12.2928932,1.90727514 12.3856181,2 12.5,2 C12.7630515,2 13.023213,1.95100382 13.267335,1.85611561 L13.4472136,1.7763932 L15,1 L14.5,2.5 L15,4 L13.4472136,3.2236068 C13.1531131,3.07655653 12.8288144,3 12.5,3 C12.4450719,3 12.3923934,3.02182012 12.3535534,3.06066017 C12.2888492,3.12536436 12.2759084,3.22223016 12.3147309,3.29979899 L12.3535534,3.35355339 L13,4 L12.3844641,4.30776797 C10.5489471,5.22552644 8.3294342,4.60262894 7.23209067,2.89510566 L7.12263712,2.71461496 L7,2.5 L8,2 L8.06802752,1.81773677 L8.14880437,1.64075448 Z"/>
</svg>