<?xml version="1.0" encoding="UTF-8"?>
<svg version="1.2" baseProfile="tiny" xmlns="http://www.w3.org/2000/svg" viewBox="0 0 50 50" overflow="inherit">
  <path d="M18.1 24.54l-9.2 -5.19l3.2 -5.61l9.21 5.19zm18.37 4.79l-15.55 -8.76l-1.6 2.81l15.55 8.76zm1.89 1.07l-1.6 2.81l8.02 4.51l1.6 -2.8zm-2.16 2.81c-0.12 0.22 -0.46 0.27 -0.75 0.11c-0.29 -0.16 -0.42 -0.47 -0.3 -0.7l1.88 -3.28c0.13 -0.22 0.47 -0.28 0.75 -0.11c0.29 0.16 0.42 0.48 0.29 0.71l-1.87 3.28zm11.83 1.8c-0.32 -0.18 -0.67 -0.26 -1.01 -0.25l-2.05 3.59c0.17 0.3 0.41 0.56 0.74 0.74c0.9 0.51 2.04 0.22 2.54 -0.65l0.53 -0.93c0.5 -0.87 0.17 -1.99 -0.74 -2.5zm-25.84 -17.15c-0.24 0.44 -0.79 0.58 -1.23 0.34l-8.06 -4.54c-0.44 -0.24 -0.58 -0.79 -0.34 -1.22c0.25 -0.43 0.8 -0.58 1.23 -0.33l8.05 4.54c0.43 0.25 0.59 0.79 0.34 1.22zm1.13 -1.97c-0.25 0.44 -0.8 0.58 -1.23 0.34l-8.06 -4.54c-0.43 -0.24 -0.58 -0.79 -0.34 -1.22c0.24 -0.43 0.79 -0.59 1.23 -0.34l8.06 4.54c0.44 0.25 0.58 0.79 0.34 1.22zm-6.81 11.94c-0.25 0.43 -0.8 0.58 -1.23 0.33l-8.06 -4.54c-0.43 -0.24 -0.58 -0.79 -0.34 -1.22c0.25 -0.42 0.8 -0.58 1.23 -0.33l8.06 4.54c0.43 0.24 0.58 0.79 0.34 1.22zm1.13 -1.98c-0.24 0.44 -0.79 0.58 -1.23 0.34l-8.06 -4.54c-0.43 -0.25 -0.58 -0.79 -0.34 -1.22c0.25 -0.43 0.8 -0.58 1.23 -0.33l8.06 4.54c0.43 0.25 0.59 0.79 0.34 1.22zm-13.52 8.08h14.2v1.63h-14.2zm17.31 3.41c-0.09 -0.55 -0.56 -0.96 -1.13 -0.96h-18.13c-0.57 0 -1.05 0.42 -1.13 0.96h-0.02v2.67h20.45v-2.67h-0.02z"/>
</svg>