<?xml version="1.0" encoding="UTF-8"?>
<!DOCTYPE svg PUBLIC "-//W3C//DTD SVG 1.1//EN" "http://www.w3.org/Graphics/SVG/1.1/DTD/svg11.dtd">
<svg version="1.1" xmlns="http://www.w3.org/2000/svg" xmlns:xlink="http://www.w3.org/1999/xlink" x="0" y="0" width="15" height="15" viewBox="0 0 15 15">
<path d="M14,1.5 C14.5,1.5 14.5,3 14,3 C14,3 13.5,3 13.5,3 L13.5,7 C13.5,7.5 12.5,7.5 12.5,7 L12.5,3 L7.5,3 L8.5,12.5 C8.5,12.5 10,12.5 10,12.5 C10.5,12.5 10.5,14 10,14 C10,14 2,14 2,14 C1.5,14 1.5,12.5 2,12.5 C2,12.5 3.5,12.5 3.5,12.5 L4.5,3 C4.5,3 2.5,3 2.5,3 C2,3 2,1.5 2.5,1.5 C2.5,1.5 14,1.5 14,1.5 z M7,10.25 L5,10.25 L4.75,12.5 L7.25,12.5 L7,10.25 z M6.75,6.75 L5.25,6.75 L5.1,8.75 L6.9,8.75 L6.75,6.75 z M6.35,3 L5.6,3 L5.4,5.25 L6.5,5.25 L6.35,3 z"/>
</svg>
