<?xml version="1.0" encoding="UTF-8"?>
<!DOCTYPE svg PUBLIC "-//W3C//DTD SVG 1.1//EN" "http://www.w3.org/Graphics/SVG/1.1/DTD/svg11.dtd">
<svg version="1.1" xmlns="http://www.w3.org/2000/svg" xmlns:xlink="http://www.w3.org/1999/xlink" x="0" y="0" width="15" height="15" viewBox="0 0 15 15">
    <path d="M14.5,1 L14.5,3 L13.5,3 L13.5,7 C13.5,7.276 13.276,7.5 13,7.5 C12.724,7.5 12.5,7.276 12.5,7 L12.5,3 L7.844,3 L8.685,12.25 L10,12.25 L10,13.75 L2,13.75 L2,12.25 L3.315,12.25 L4.156,3 L2.5,3 L2.5,1 L14.5,1 z M6.997,10.25 L5.003,10.25 L4.821,12.25 L7.179,12.25 L6.997,10.25 z M6.679,6.75 L5.321,6.75 L5.139,8.75 L6.86,8.75 L6.679,6.75 z M6.338,3 L5.662,3 L5.458,5.25 L6.542,5.25 L6.338,3 z"/>
</svg>
