<?xml version="1.0" encoding="UTF-8"?>
<svg viewBox="0 0 15 15" version="1.1" xmlns="http://www.w3.org/2000/svg" xmlns:xlink="http://www.w3.org/1999/xlink">
  <path d="M0.737342166,9 L2.88019931,6 L1.40551498,6 L-6.32827124e-15,7.96772097 L-7.99360578e-15,5 L2.11980069,5 L5.5,5 L5.5,6 L4.40551498,6 L2.26265783,9 L3.73734217,9 L5.5,6.53227903 L5.5,10 L-7.99360578e-15,10 L-7.99360578e-15,9 L0.737342166,9 Z M14.2626578,6 L12.1198007,9 L13.594485,9 L15,7.03227903 L15,10 L9.5,10 L9.5,9 L10.594485,9 L12.7373422,6 L11.2626578,6 L9.5,8.46772097 L9.5,5 L15,5 L15,6 L14.2626578,6 Z M8,0 L9,0 L9,15 L8,15 L8,0 Z M6,0 L7,0 L7,15 L6,15 L6,0 Z"/>
</svg>