<?xml version="1.0" encoding="UTF-8"?>
<svg version="1.2" baseProfile="tiny" xmlns="http://www.w3.org/2000/svg" viewBox="0 0 50 50" overflow="inherit">
  <path d="M13.26 42.2l-12.26 -12.33l0.01 2.15l11.41 11.49c1.31 1.43 3.56 -0.22 3.56 -0.22l-1.08 -1.16s-1.06 0.7 -1.61 0.1l-0.03 -0.03zm-12.26 -23.2h13v1h-13zm46.57 -3.51l1.43 0.68l-14.24 28.83h-1.58zm-23.64 -2.36l-5.73 6.64c-0.34 0.42 -0.85 0.68 -1.43 0.68c-1.03 0 -1.85 -0.83 -1.85 -1.86c0 -0.56 0.24 -1.05 0.63 -1.39l6.18 -7.14c0.34 -0.41 0.85 -0.67 1.43 -0.67l8.95 0c0.66 0 1.25 0.27 1.68 0.68l5.71 5.72l4.73 -4.73c0.33 -0.28 0.76 -0.45 1.23 -0.45c1.06 0 1.92 0.86 1.92 1.92c0 0.46 -0.16 0.88 -0.43 1.22l-5.7 5.76c-1.73 1.74 -3.12 0.26 -3.12 0.26l-3.5 -3.52l-5.47 6.34l5.01 5.02s1.06 0.98 0.45 2.94l-2.81 12.55c-0.22 1.09 -1.19 1.91 -2.33 1.91c-1.31 0 -2.38 -1.07 -2.38 -2.39c0 -0.21 0.02 -0.41 0.08 -0.6l2.31 -10.3l-5.69 -5.54l-4.89 5.47s-0.79 0.98 -2.89 0.91l-9.93 0.02c-1.11 0.02 -2.12 -0.74 -2.37 -1.87c-0.29 -1.29 0.5 -2.55 1.78 -2.84c0.2 -0.04 0.4 -0.07 0.6 -0.05l8.54 0.02l12.63 -14.68l-3.3 -0.02z"/>
  <path d="M45.83 45.17c0 0.97 -0.8 1.83 -1.76 1.83h-29.06v1h29.06c1.62 0.01 2.94 -1.24 2.94 -2.86l-1.17 0.03z"/>
  <path d="M32.93 6.7a3.68 3.7 0 1 0 7.37 0a3.68 3.7 0 1 0 -7.37 0z"/>
</svg>