<?xml version="1.0" encoding="UTF-8"?>
<svg viewBox="0 0 15 15" version="1.1" xmlns="http://www.w3.org/2000/svg" xmlns:xlink="http://www.w3.org/1999/xlink">
  <path d="M6,6 L5.25,6 C5.11192881,6 5,5.88807119 5,5.75 L5,5.25 C5,5.11192881 5.11192881,5 5.25,5 L6,5 L6,4 L5.25,4 C5.11192881,4 5,3.88807119 5,3.75 L5,3.25 C5,3.11192881 5.11192881,3 5.25,3 L6,3 L6,2 L5.25,2 C5.11192881,2 5,1.88807119 5,1.75 L5,1.25 C5,1.11192881 5.11192881,1 5.25,1 L6,1 L6,0 L7,0 L7,1 L8,1 L8,0 L9,0 L9,1 L9.75,1 C9.88807119,1 10,1.11192881 10,1.25 L10,1.75 C10,1.88807119 9.88807119,2 9.75,2 L9,2 L9,3 L9.75,3 C9.88807119,3 10,3.11192881 10,3.25 L10,3.75 C10,3.88807119 9.88807119,4 9.75,4 L9,4 L9,5 L9.75,5 C9.88807119,5 10,5.11192881 10,5.25 L10,5.75 C10,5.88807119 9.88807119,6 9.75,6 L9,6 L9,7 L9.75,7 C9.88807119,7 10,7.11192881 10,7.25 L10,7.75 C10,7.88807119 9.88807119,8 9.75,8 L9,8 L9,9 L9.75,9 C9.88807119,9 10,9.11192881 10,9.25 L10,9.75 C10,9.88807119 9.88807119,10 9.75,10 L9,10 L9,11 L9.75,11 C9.88807119,11 10,11.1119288 10,11.25 L10,11.75 C10,11.8880712 9.88807119,12 9.75,12 L9,12 L9,13 L9.75,13 C9.88807119,13 10,13.1119288 10,13.25 L10,13.75 C10,13.8880712 9.88807119,14 9.75,14 L9,14 L9,15 L8,15 L8,14 L7,14 L7,15 L6,15 L6,14 L5.25,14 C5.11192881,14 5,13.8880712 5,13.75 L5,13.25 C5,13.1119288 5.11192881,13 5.25,13 L6,13 L6,12 L5.25,12 C5.11192881,12 5,11.8880712 5,11.75 L5,11.25 C5,11.1119288 5.11192881,11 5.25,11 L6,11 L6,10 L5.25,10 C5.11192881,10 5,9.88807119 5,9.75 L5,9.25 C5,9.11192881 5.11192881,9 5.25,9 L6,9 L6,8 L5.25,8 C5.11192881,8 5,7.88807119 5,7.75 L5,7.25 C5,7.11192881 5.11192881,7 5.25,7 L6,7 L6,6 Z M8,6 L7,6 L7,7 L8,7 L8,6 Z M8,5 L8,4 L7,4 L7,5 L8,5 Z M8,8 L7,8 L7,9 L8,9 L8,8 L8,8 Z M8,10 L7,10 L7,11 L8,11 L8,10 L8,10 Z M8,12 L7,12 L7,13 L8,13 L8,12 Z M7,3 L8,3 L8,2 L7,2 L7,3 L7,3 Z M8.43769499e-15,7.96772097 L7.43849426e-15,5 L4.5,5 L4.5,6 L4.40551498,6 L2.26265783,9 L3.73734217,9 L4.5,7.93227903 L4.5,10 L7.43849426e-15,10 L8.43769499e-15,9 L0.737342166,9 L2.88019931,6 L1.40551498,6 L8.43769499e-15,7.96772097 Z M15,7.03227903 L15,10 L10.5,10 L10.5,9 L10.594485,9 L12.7373422,6 L11.2626578,6 L10.5,7.06772097 L10.5,5 L15,5 L15,6 L14.2626578,6 L12.1198007,9 L13.594485,9 L15,7.03227903 L15,7.03227903 Z"/>
</svg>