<?xml version="1.0" encoding="UTF-8"?>
<svg version="1.1" xmlns="http://www.w3.org/2000/svg" xmlns:xlink="http://www.w3.org/1999/xlink" viewBox="0 0 15 15">
  <path d="M5.5 13C5.5 14.5 3 14.5 3 13C3 11.5 5.5 11.5 5.5 13z"/>
  <path d="M5.5 9.5C5.5 11 3 11 3 9.5C3 8 5.5 8 5.5 9.5z"/>
  <path d="M5.5 5.5C5.5 7 3 7 3 5.5C3 4 5.5 4 5.5 5.5z"/>
  <path d="M5.5 2C5.5 3.5 3 3.5 3 2C3 0.5 5.5 0.5 5.5 2z"/>
  <path d="M12 13C12 14.5 9.5 14.5 9.5 13C9.5 11.5 12 11.5 12 13z"/>
  <path d="M12 9.5C12 11 9.5 11 9.5 9.5C9.5 8 12 8 12 9.5z"/>
  <path d="M12 5.5C12 7 9.5 7 9.5 5.5C9.5 4 12 4 12 5.5z"/>
  <path d="M12 2C12 3.5 9.5 3.5 9.5 2C9.5 0.5 12 0.5 12 2z"/>
</svg>