<?xml version="1.0" encoding="UTF-8"?>
<svg version="1.1" xmlns="http://www.w3.org/2000/svg" xmlns:xlink="http://www.w3.org/1999/xlink" viewBox="0 0 15 15">
  <path d="M3 1C3 0.75 3.25 0.5 3.5 0.5L6.5 0.5C6.75 0.5 7 0.75 7 1L7 2C7 2.25 6.75 2.5 6.5 2.5L3.5 2.5C3.25 2.5 3 2.25 3 2z"/>
  <path d="M8 1C8 0.75 8.25 0.5 8.5 0.5L11.5 0.5C11.75 0.5 12 0.75 12 1L12 2C12 2.25 11.75 2.5 11.5 2.5L8.5 2.5C8.25 2.5 8 2.25 8 2z"/>
  <path d="M6 4C6 3.75 6.25 3.5 6.5 3.5L8.5 3.5C8.75 3.5 9 3.75 9 4L9 5C9 5.25 8.75 5.5 8.5 5.5L6.5 5.5C6.25 5.5 6 5.25 6 5z"/>
  <path d="M10 4C10 3.75 10.25 3.5 10.5 3.5L11.5 3.5C11.75 3.5 12 3.75 12 4L12 5C12 5.25 11.75 5.5 11.5 5.5L10.5 5.5C10.25 5.5 10 5.25 10 5z"/>
  <path d="M3 4C3 3.75 3.25 3.5 3.5 3.5L4.5 3.5C4.75 3.5 5 3.75 5 4L5 5C5 5.25 4.75 5.5 4.5 5.5L3.5 5.5C3.25 5.5 3 5.25 3 5z"/>
  <path d="M3 7C3 6.75 3.25 6.5 3.5 6.5L6.5 6.5C6.75 6.5 7 6.75 7 7L7 8C7 8.25 6.75 8.5 6.5 8.5L3.5 8.5C3.25 8.5 3 8.25 3 8z"/>
  <path d="M8 7C8 6.75 8.25 6.5 8.5 6.5L11.5 6.5C11.75 6.5 12 6.75 12 7L12 8C12 8.25 11.75 8.5 11.5 8.5L8.5 8.5C8.25 8.5 8 8.25 8 8z"/>
  <path d="M6 10C6 9.75 6.25 9.5 6.5 9.5L8.5 9.5C8.75 9.5 9 9.75 9 10L9 11C9 11.25 8.75 11.5 8.5 11.5L6.5 11.5C6.25 11.5 6 11.25 6 11z"/>
  <path d="M10 10C10 9.75 10.25 9.5 10.5 9.5L11.5 9.5C11.75 9.5 12 9.75 12 10L12 11C12 11.25 11.75 11.5 11.5 11.5L10.5 11.5C10.25 11.5 10 11.25 10 11z"/>
  <path d="M3 10C3 9.75 3.25 9.5 3.5 9.5L4.5 9.5C4.75 9.5 5 9.75 5 10L5 11C5 11.25 4.75 11.5 4.5 11.5L3.5 11.5C3.25 11.5 3 11.25 3 11z"/>
  <path d="M3 13C3 12.75 3.25 12.5 3.5 12.5L6.5 12.5C6.75 12.5 7 12.75 7 13L7 14C7 14.25 6.75 14.5 6.5 14.5L3.5 14.5C3.25 14.5 3 14.25 3 14z"/>
  <path d="M8 13C8 12.75 8.25 12.5 8.5 12.5L11.5 12.5C11.75 12.5 12 12.75 12 13L12 14C12 14.25 11.75 14.5 11.5 14.5L8.5 14.5C8.25 14.5 8 14.25 8 14z"/>
</svg>