<?xml version="1.0" encoding="UTF-8"?>
<svg version="1.1" xmlns="http://www.w3.org/2000/svg" xmlns:xlink="http://www.w3.org/1999/xlink" viewBox="0 0 15 15">
  <path d="M3 2C3 1.75 3.25 1.5 3.5 1.5L6.5 1.5C6.75 1.5 7 1.75 7 2L7 3C7 3.25 6.75 3.5 6.5 3.5L3.5 3.5C3.25 3.5 3 3.25 3 3z"/>
  <path d="M8 2C8 1.75 8.25 1.5 8.5 1.5L11.5 1.5C11.75 1.5 12 1.75 12 2L12 3C12 3.25 11.75 3.5 11.5 3.5L8.5 3.5C8.25 3.5 8 3.25 8 3z"/>
  <path d="M6 4.5C6 4.25 6.25 4 6.5 4L8.5 4C8.75 4 9 4.25 9 4.5L9 5.5C9 5.75 8.75 6 8.5 6L6.5 6C6.25 6 6 5.75 6 5.5z"/>
  <path d="M10 4.5C10 4.25 10.25 4 10.5 4L11.5 4C11.75 4 12 4.25 12 4.5L12 5.5C12 5.75 11.75 6 11.5 6L10.5 6C10.25 6 10 5.75 10 5.5z"/>
  <path d="M3 4.5C3 4.25 3.25 4 3.5 4L4.5 4C4.75 4 5 4.25 5 4.5L5 5.5C5 5.75 4.75 6 4.5 6L3.5 6C3.25 6 3 5.75 3 5.5z"/>
  <path d="M3 7C3 6.75 3.25 6.5 3.5 6.5L6.5 6.5C6.75 6.5 7 6.75 7 7L7 8C7 8.25 6.75 8.5 6.5 8.5L3.5 8.5C3.25 8.5 3 8.25 3 8z"/>
  <path d="M8 7C8 6.75 8.25 6.5 8.5 6.5L11.5 6.5C11.75 6.5 12 6.75 12 7L12 8C12 8.25 11.75 8.5 11.5 8.5L8.5 8.5C8.25 8.5 8 8.25 8 8z"/>
  <path d="M6 9.5C6 9.25 6.25 9 6.5 9L8.5 9C8.75 9 9 9.25 9 9.5L9 10.5C9 10.75 8.75 11 8.5 11L6.5 11C6.25 11 6 10.75 6 10.5z"/>
  <path d="M10 9.5C10 9.25 10.25 9 10.5 9L11.5 9C11.75 9 12 9.25 12 9.5L12 10.5C12 10.75 11.75 11 11.5 11L10.5 11C10.25 11 10 10.75 10 10.5z"/>
  <path d="M3 9.5C3 9.25 3.25 9 3.5 9L4.5 9C4.75 9 5 9.25 5 9.5L5 10.5C5 10.75 4.75 11 4.5 11L3.5 11C3.25 11 3 10.75 3 10.5z"/>
  <path d="M3 12C3 11.75 3.25 11.5 3.5 11.5L6.5 11.5C6.75 11.5 7 11.75 7 12L7 13C7 13.25 6.75 13.5 6.5 13.5L3.5 13.5C3.25 13.5 3 13.25 3 13z"/>
  <path d="M8 12C8 11.75 8.25 11.5 8.5 11.5L11.5 11.5C11.75 11.5 12 11.75 12 12L12 13C12 13.25 11.75 13.5 11.5 13.5L8.5 13.5C8.25 13.5 8 13.25 8 13z"/>
</svg>