<?xml version="1.0" encoding="UTF-8"?>
<svg width="15px" height="15px" viewBox="0 0 15 15" version="1.1" xmlns="http://www.w3.org/2000/svg" xmlns:xlink="http://www.w3.org/1999/xlink">
    <path d="M3.01724086,9.48919589 C2.58749426,9.29701862 1.96975603,8.90309307 1.19069368,8.31274037 L1,8.16823778 L1,1.5 C1,1.22385763 1.22385763,1 1.5,1 L7,1 L7,2.28300943 C7,5.21060284 5.49532715,7.93217283 3.01724086,9.48919589 Z M5,14 L1.5,14 C1.22385763,14 1,13.7761424 1,13.5 L1,9.41301193 C1.51314291,9.78548681 2.13684741,10.1478162 2.87111348,10.5 L3.05040325,10.6046488 C4.25769981,11.3093297 5,12.6020944 5,14 Z M11.9827591,9.48919589 C9.50467285,7.93217283 8,5.21060284 8,2.28300943 L8,1 L13.5,1 C13.7761424,1 14,1.22385763 14,1.5 L14,8.16823778 L13.8093063,8.31274037 C13.030244,8.90309307 12.4125057,9.29701862 11.9827591,9.48919589 Z M10,14 C10,12.6020944 10.7423002,11.3093297 11.9495968,10.6046488 L12.1288865,10.5 C12.8631526,10.1478162 13.4868571,9.78548681 14,9.41301193 L14,13.5 C14,13.7761424 13.7761424,14 13.5,14 L10,14 Z"></path>
</svg>
