<?xml version="1.0" encoding="UTF-8"?>
<svg width="15px" height="15px" viewBox="0 0 15 15" version="1.1" xmlns="http://www.w3.org/2000/svg" xmlns:xlink="http://www.w3.org/1999/xlink">
    <path d="M1.97182532,8 L6,8 L6,6 C6,5.86791234 5.97439055,5.74180608 5.927866,5.62637559 L1.97182532,8 L1.97182532,8 Z M5.02755421,5.00037228 C5.01839964,5.00012463 5.00921438,5 5,5 L2,5 C1.44771525,5 1,5.44771525 1,6 L1,7.41690481 L5.02755421,5.00037228 L5.02755421,5.00037228 Z M9.97182532,8 L14,8 L14,6 C14,5.86791234 13.9743905,5.74180608 13.927866,5.62637559 L9.97182532,8 L9.97182532,8 Z M13.0275542,5.00037228 C13.0183996,5.00012463 13.0092144,5 13,5 L10,5 C9.44771525,5 9,5.44771525 9,6 L9,7.41690481 L13.0275542,5.00037228 L13.0275542,5.00037228 Z M6,9 L1,9 L1,11 L0,11 L0,6 C-1.48029737e-16,4.8954305 0.8954305,4 2,4 L5,4 C6.1045695,4 7,4.8954305 7,6 L7,11 L6,11 L6,9 Z M14,9 L9,9 L9,11 L8,11 L8,6 C8,4.8954305 8.8954305,4 10,4 L13,4 C14.1045695,4 15,4.8954305 15,6 L15,11 L14,11 L14,9 Z"></path>
</svg>
