<?xml version="1.0" encoding="UTF-8"?>
<svg width="15px" height="15px" viewBox="0 0 15 15" version="1.1" xmlns="http://www.w3.org/2000/svg" xmlns:xlink="http://www.w3.org/1999/xlink">
    <path d="M6.57865879,8.11058036 C6.52800942,8.23026531 6.5,8.36186168 6.5,8.5 L6.5,9.5 C6.5,9.816052 6.64661989,10.0978591 6.87555164,10.2811133 C6.54753235,11.2792878 5.60793185,12 4.5,12 C3.11928813,12 2,10.8807119 2,9.5 C2,8.11928813 3.11928813,7 4.5,7 C5.36655335,7 6.13013224,7.44088608 6.57865879,8.11058036 L6.57865879,8.11058036 Z M8.12444836,10.2811133 C8.35338011,10.0978591 8.5,9.816052 8.5,9.5 L8.5,8.5 C8.5,8.36186168 8.47199058,8.23026531 8.42134121,8.11058036 C8.86986776,7.44088608 9.63344665,7 10.5,7 C11.8807119,7 13,8.11928813 13,9.5 C13,10.8807119 11.8807119,12 10.5,12 C9.39206815,12 8.45246765,11.2792878 8.12444836,10.2811133 L8.12444836,10.2811133 Z M4.5,8 C3.67157288,8 3,8.67157288 3,9.5 C3,10.3284271 3.67157288,11 4.5,11 C5.32842712,11 6,10.3284271 6,9.5 C6,8.67157288 5.32842712,8 4.5,8 Z M10.5,8 C9.67157288,8 9,8.67157288 9,9.5 C9,10.3284271 9.67157288,11 10.5,11 C11.3284271,11 12,10.3284271 12,9.5 C12,8.67157288 11.3284271,8 10.5,8 Z M8.5,2.25 C8.5,1.55964406 9.05964406,1 9.75,1 C10.4403559,1 11,1.55964406 11,2.25 C11,2.94035594 10.4403559,3.5 9.75,3.5 C9.05964406,3.5 8.5,2.94035594 8.5,2.25 Z M9.1,5.8 L8.265,4.695 L7.1,5.895 L7.856,6.647 C7.94827756,6.74133288 7.99996484,6.86803849 8,7 L8,9.515 C7.99585786,9.79114237 7.76864237,10.0116421 7.4925,10.0075 C7.21635763,10.0033579 6.99585787,9.77614237 7,9.5 L7,7.207 L5.646,5.854 C5.45080903,5.65875007 5.45080903,5.34224993 5.646,5.147 L7.646,3.147 C7.74358017,3.05000701 7.8764496,2.99693145 8.014,3 C8.16643336,3.00431563 8.30856441,3.07795866 8.4,3.2 L9.75,5 L11.514,5 C11.6926328,5.00250086 11.8563621,5.10011121 11.9435127,5.25606218 C12.0306633,5.41201315 12.0279949,5.60261207 11.9365127,5.75606218 C11.8450305,5.90951229 11.6786328,6.00250086 11.5,6 L9.5,6 C9.34262135,6 9.19442719,5.92590292 9.1,5.8 Z M2,12.5 L5,12.5 L4,14 L1,14 L2,12.5 Z M6.5,12.5 L8.5,12.5 L9.5,14 L5.5,14 L6.5,12.5 Z M13,12.5 L14,14 L11,14 L10,12.5 L13,12.5 Z"></path>
</svg>
