<?xml version="1.0" encoding="UTF-8"?>
<svg width="15px" height="15px" viewBox="0 0 15 15" version="1.1" xmlns="http://www.w3.org/2000/svg" xmlns:xlink="http://www.w3.org/1999/xlink">
    <path d="M12.4832839,3.54190908 L11.141746,5.77780573 L13.5282313,8.16429112 C13.8211246,8.45718434 13.8211246,8.93205807 13.5282313,9.22495129 C13.2353381,9.51784451 12.7604644,9.51784451 12.4675712,9.22495129 L10.1694741,6.92685425 L8.40170718,6.57330086 L8.04815379,4.80553391 L5.75005675,2.50743687 C5.45716353,2.21454365 5.45716353,1.73966991 5.75005675,1.4467767 C6.04294997,1.15388348 6.5178237,1.15388348 6.81071692,1.4467767 L9.19720231,3.83326208 L11.433099,2.49172409 C11.2021247,2.10743034 11.252321,1.60136671 11.5836877,1.27 L12.2907945,0.562893219 C12.6813188,0.172368927 13.3144837,0.172368927 13.705008,0.562893219 L14.4121148,1.27 C14.8026391,1.66052429 14.8026391,2.29368927 14.4121148,2.68421356 L13.705008,3.39132034 C13.3736413,3.72268705 12.8675777,3.7728833 12.4832839,3.54190908 L12.4832839,3.54190908 Z M7.56097668,6.34504163 L2.03776695,12.9372827 L8.63000509,7.41403688 L10.1694741,7.63396103 L4.51261988,12.5837085 L0.27,14.7050496 L2.39129954,10.4623882 L7.341047,4.80553391 L7.56097668,6.34504163 L7.56097668,6.34504163 Z"></path>
</svg>
