<?xml version="1.0" encoding="UTF-8"?>
<svg version="1.1" xmlns="http://www.w3.org/2000/svg" xmlns:xlink="http://www.w3.org/1999/xlink" x="0" y="0" viewBox="0 0 15 15">
  <path d="M8 12C7.45 12 7 11.55 7 11C7 10.45 7.45 10 8 10C8.55 10 9 10.45 9 11C9 11.55 8.55 12 8 12zM6 10C6.55 10 7 9.55 7 9C7 8.45 6.55 8 6 8C5.45 8 5 8.45 5 9C5 9.55 5.45 10 6 10zM4 8C4.55 8 5 7.55 5 7C5 6.45 4.55 6 4 6C3.45 6 3 6.45 3 7C3 7.55 3.45 8 4 8zM8 8C8.55 8 9 7.55 9 7C9 6.45 8.55 6 8 6C7.45 6 7 6.45 7 7C7 7.55 7.45 8 8 8zM4 12C4.55 12 5 11.55 5 11C5 10.45 4.55 10 4 10C3.45 10 3 10.45 3 11C3 11.55 3.45 12 4 12zM10 5L10 13L2 13L2 5L10 5zM10 3.5L2 3.5C1.17 3.5 0.5 4.17 0.5 5L0.5 13C0.5 13.83 1.17 14.5 2 14.5L10 14.5C10.83 14.5 11.5 13.83 11.5 13L11.5 5C11.5 4.17 10.83 3.5 10 3.5zM13 1.25L5 1.25C4.59 1.25 4.25 1.59 4.25 2C4.25 2.41 4.59 2.75 5 2.75L12.25 2.75L12.25 10C12.25 10.41 12.59 10.75 13 10.75C13.41 10.75 13.75 10.41 13.75 10L13.75 2C13.75 1.59 13.41 1.25 13 1.25z"/>
</svg>