<?xml version="1.0" encoding="UTF-8"?>
<!DOCTYPE svg PUBLIC "-//W3C//DTD SVG 1.1//EN" "http://www.w3.org/Graphics/SVG/1.1/DTD/svg11.dtd">
<svg version="1.1" xmlns="http://www.w3.org/2000/svg" xmlns:xlink="http://www.w3.org/1999/xlink" x="0" y="0" width="15" height="15" viewBox="0 0 15 15">
    <path d="M8,12 C7.448,12 7,11.552 7,11 C7,10.448 7.448,10 8,10 C8.552,10 9,10.448 9,11 C9,11.552 8.552,12 8,12 z M6,10 C6.552,10 7,9.552 7,9 C7,8.448 6.552,8 6,8 C5.448,8 5,8.448 5,9 C5,9.552 5.448,10 6,10 z M4,8 C4.552,8 5,7.552 5,7 C5,6.448 4.552,6 4,6 C3.448,6 3,6.448 3,7 C3,7.552 3.448,8 4,8 z M8,8 C8.552,8 9,7.552 9,7 C9,6.448 8.552,6 8,6 C7.448,6 7,6.448 7,7 C7,7.552 7.448,8 8,8 z M4,12 C4.552,12 5,11.552 5,11 C5,10.448 4.552,10 4,10 C3.448,10 3,10.448 3,11 C3,11.552 3.448,12 4,12 z M10,5 L10,13 L2,13 L2,5 L10,5 z M10,3.5 L2,3.5 C1.172,3.5 0.5,4.172 0.5,5 L0.5,13 C0.5,13.828 1.172,14.5 2,14.5 L10,14.5 C10.828,14.5 11.5,13.828 11.5,13 L11.5,5 C11.5,4.172 10.828,3.5 10,3.5 z M13,1.25 L5,1.25 C4.586,1.25 4.25,1.586 4.25,2 C4.25,2.414 4.586,2.75 5,2.75 L12.25,2.75 L12.25,10 C12.25,10.414 12.586,10.75 13,10.75 C13.414,10.75 13.75,10.414 13.75,10 L13.75,2 C13.75,1.586 13.414,1.25 13,1.25 z"/>
</svg>
