<?xml version="1.0" encoding="UTF-8"?>
<svg width="15px" height="15px" viewBox="0 0 15 15" version="1.1" xmlns="http://www.w3.org/2000/svg" xmlns:xlink="http://www.w3.org/1999/xlink">
    <path d="M7.5,0 C8.32842712,-1.52179594e-16 9,0.671572875 9,1.5 C9,2.32842712 8.32842712,3 7.5,3 C6.67157288,3 6,2.32842712 6,1.5 C6,0.671572875 6.67157288,1.52179594e-16 7.5,0 Z M8,13 L11.4666667,13 L12.8,11 L14,11 L12,14 L8,14 L8,15 L7,15 L7,14 L3,14 L1,11 L2.2,11 L3.53333333,13 L7,13 L7,4 L4,4 L4,3 L11,3 L11,4 L8,4 L8,13 Z"></path>
    <path d="M3,3 L4,3 C4.11111111,5.66666667 4.44444444,7.66666667 5,9 C5.55555556,10.3333333 6.38888889,11.6666667 7.5,13 L6.33333333,13 C5.22222222,11.6666667 4.38888889,10.3333333 3.83333333,9 C3.27777778,7.66666667 3,5.66666667 3,3 Z"></path>
    <path d="M12,3 C12,5.66666667 11.7222222,7.66666667 11.1666667,9 C10.6111111,10.3333333 9.77777778,11.6666667 8.66666667,13 L7.5,13 C8.61111111,11.6666667 9.44444444,10.3333333 10,9 C10.5555556,7.66666667 10.8888889,5.66666667 11,3 L12,3 Z"></path>
    <path d="M5,3 L6,3 C6,5.66666667 6.16666667,7.66666667 6.5,9 L7.5,13 L7,13 C6.33333333,11.6666667 5.83333333,10.3333333 5.5,9 C5.16666667,7.66666667 5,5.66666667 5,3 Z"></path>
    <path d="M10,3 C10,5.66666667 9.83333333,7.66666667 9.5,9 C9.16666667,10.3333333 8.66666667,11.6666667 8,13 L7.5,13 C7.83333333,11.6666667 8.16666667,10.3333333 8.5,9 C8.83333333,7.66666667 9,5.66666667 9,3 L10,3 Z"></path>
</svg>
