<?xml version="1.0" encoding="UTF-8"?>
<svg width="15px" height="15px" viewBox="0 0 15 15" version="1.1" xmlns="http://www.w3.org/2000/svg" xmlns:xlink="http://www.w3.org/1999/xlink">
    <path d="M7,14 L1.71690481,14 L0.0712535371,11.2572479 C-0.0708205426,11.0204577 0.00596198931,10.7133276 0.242752122,10.5712535 C0.479542255,10.4291795 0.786672383,10.505962 0.928746463,10.7427521 L2.28309519,13 L5.76283952,13 C3.34927405,11.1302317 2.09830079,8.1143532 2.00547124,4 L2,4 C1.72385763,4 1.5,3.77614237 1.5,3.5 C1.5,3.22385763 1.72385763,3 2,3 L13,3 C13.2761424,3 13.5,3.22385763 13.5,3.5 C13.5,3.77614237 13.2761424,4 13,4 L12.9944192,4 C12.9015897,8.1143532 11.6506164,11.1302317 9.23705095,13 L12.7169048,13 L14.0712535,10.7427521 C14.2133276,10.505962 14.5204577,10.4291795 14.7572479,10.5712535 C14.994038,10.7133276 15.0708205,11.0204577 14.9287465,11.2572479 L13.2830952,14 L8,14 L8,15 L7,15 L7,14 Z M7,11.6582166 L7,4 L5.5037836,4 C5.55185563,7.11471155 6.05321452,9.66645298 7,11.6582166 L7,11.6582166 Z M4.50367076,4 L3.00567516,4 C3.08990085,7.59558975 4.09382099,10.2188281 6.0137358,11.9093334 C5.05199327,9.80114093 4.55103063,7.16378574 4.50367076,4 L4.50367076,4 Z M8,11.6581349 C8.94676035,9.6663832 9.44810619,7.11466896 9.49617756,4 L8,4 L8,11.6581349 L8,11.6581349 Z M10.4962904,4 C10.4489313,7.1637337 9.94798437,9.80105416 8.98627283,11.9092293 C10.9061107,10.2187205 11.9099914,7.59551599 11.9942153,4 L10.4962904,4 L10.4962904,4 Z M7.5,0 C8.32842712,-1.52179594e-16 9,0.671572875 9,1.5 C9,2.32842712 8.32842712,3 7.5,3 C6.67157288,3 6,2.32842712 6,1.5 C6,0.671572875 6.67157288,1.52179594e-16 7.5,0 Z"></path>
</svg>
