<?xml version="1.0" encoding="UTF-8"?>
<svg width="15px" height="15px" viewBox="0 0 15 15" version="1.1" xmlns="http://www.w3.org/2000/svg" xmlns:xlink="http://www.w3.org/1999/xlink">
    <path d="M7.5,1 C8.15427497,1.96288406 8.65427497,2.62955073 9,3 C10.0367609,4.11090399 11,4.8334221 11,5.5 C11,6.5 10.6666667,7.16666667 10,7.5 L5,7.5 C4.33333333,7.16666667 4,6.5 4,5.5 C4,4.76897433 4.7530701,4.2654242 6,3 C6.30586444,2.68959902 6.80586444,2.02293235 7.5,1 Z M5,8 L10,8 L10,14 L5,14 L5,8 Z M7.5,9 C7.22385763,9 7,9.22385763 7,9.5 L7,11 L8,11 L8,9.5 C8,9.22385763 7.77614237,9 7.5,9 Z"></path>
</svg>
