<?xml version="1.0" encoding="UTF-8"?>
<svg width="15px" height="15px" viewBox="0 0 15 15" version="1.1" xmlns="http://www.w3.org/2000/svg" xmlns:xlink="http://www.w3.org/1999/xlink">
    <path d="M7.5,5.99520433e-15 C8.15427497,0.962884062 8.65427497,1.62955073 9,2 C10.0367609,3.11090399 11,3.8334221 11,4.5 C11,5.5 10.6666667,6.16666667 10,6.5 L5,6.5 C4.33333333,6.16666667 4,5.5 4,4.5 C4,3.76897433 4.7530701,3.2654242 6,2 C6.30586444,1.68959902 6.80586444,1.02293235 7.5,5.99520433e-15 Z M5,7 L10,7 L10,15 L5,15 L5,7 Z M7.5,8 C7.22385763,8 7,8.22385763 7,8.5 L7,10 L8,10 L8,8.5 C8,8.22385763 7.77614237,8 7.5,8 Z"></path>
</svg>
