<?xml version="1.0" encoding="UTF-8"?>
<!DOCTYPE svg PUBLIC "-//W3C//DTD SVG 1.1//EN" "http://www.w3.org/Graphics/SVG/1.1/DTD/svg11.dtd">
<svg version="1.1" xmlns="http://www.w3.org/2000/svg" xmlns:xlink="http://www.w3.org/1999/xlink" x="0" y="0" width="15" height="15" viewBox="0 0 15 15">
<path d="M7.5,1 C11.09,1 14,3.91 14,7.5 C14,11.09 11.09,14 7.5,14 C3.91,14 1,11.09 1,7.5 C1,3.91 3.91,1 7.5,1 z M7.124,10.508 L6.849,10.515 C6.651,10.576 6.523,10.732 6.563,10.864 L7.002,12.299 C7.042,12.431 7.235,12.489 7.433,12.428 C7.632,12.367 7.759,12.211 7.719,12.079 L7.28,10.645 L7.124,10.508 z M4.035,10.828 L4.035,10.828 C3.903,10.786 3.745,10.911 3.681,11.108 C3.617,11.305 3.672,11.499 3.803,11.541 L5.23,12.005 C5.361,12.048 5.519,11.923 5.583,11.726 C5.647,11.529 5.593,11.334 5.461,11.292 L4.035,10.828 z M9.404,10.517 C9.275,10.467 9.11,10.584 9.036,10.777 C8.962,10.97 9.006,11.167 9.135,11.217 L10.535,11.754 C10.664,11.804 10.829,11.687 10.903,11.494 C10.977,11.3 10.933,11.104 10.804,11.054 L9.404,10.517 z M10.809,9.002 C10.673,8.982 10.539,9.133 10.51,9.338 C10.481,9.543 10.568,9.725 10.705,9.744 L12.191,9.953 C12.327,9.972 12.461,9.822 12.49,9.616 C12.519,9.411 12.432,9.23 12.295,9.21 L10.809,9.002 z M7.5,5.5 C6.395,5.5 5.5,6.395 5.5,7.5 C5.5,8.605 6.395,9.5 7.5,9.5 C8.605,9.5 9.5,8.605 9.5,7.5 C9.5,6.395 8.605,5.5 7.5,5.5 z M3.291,8.501 C3.154,8.486 3.025,8.642 3.003,8.848 C2.981,9.054 3.075,9.232 3.212,9.247 L4.704,9.404 C4.842,9.418 4.971,9.263 4.992,9.057 C5.014,8.851 4.92,8.672 4.783,8.658 L3.291,8.501 z M12.074,6.411 L11.92,6.551 L11.507,7.992 C11.469,8.125 11.599,8.279 11.798,8.336 C11.997,8.393 12.189,8.332 12.227,8.199 L12.641,6.757 C12.679,6.625 12.549,6.471 12.349,6.414 L12.074,6.411 z M3.497,5.836 L3.293,5.877 L2.196,6.9 C2.095,6.994 2.127,7.193 2.269,7.344 C2.41,7.496 2.606,7.542 2.707,7.448 L3.804,6.425 C3.905,6.331 3.873,6.132 3.731,5.98 L3.497,5.836 z M11,3.948 L10.733,4.013 C10.552,4.113 10.459,4.293 10.526,4.413 L11.253,5.725 C11.32,5.846 11.521,5.863 11.702,5.762 C11.884,5.662 11.976,5.483 11.909,5.362 L11.182,4.05 L11,3.948 z M7.897,4.008 C7.766,3.966 7.608,4.091 7.543,4.288 C7.48,4.485 7.534,4.679 7.665,4.721 L9.092,5.185 C9.223,5.228 9.382,5.103 9.446,4.906 C9.51,4.709 9.455,4.515 9.324,4.472 L7.897,4.008 z M3.278,4.07 L3.278,4.07 C3.14,4.06 3.017,4.22 3.002,4.427 C2.988,4.633 3.088,4.808 3.226,4.818 L4.722,4.923 C4.86,4.932 4.983,4.773 4.997,4.566 C5.012,4.36 4.912,4.184 4.774,4.174 L3.278,4.07 z M5.201,2.256 L4.98,2.42 C4.853,2.584 4.838,2.785 4.946,2.87 L6.128,3.793 C6.237,3.878 6.429,3.815 6.556,3.652 C6.684,3.488 6.699,3.287 6.59,3.202 L5.408,2.279 L5.201,2.256 z M9.177,2.002 L7.695,2.237 C7.559,2.258 7.475,2.442 7.507,2.646 C7.539,2.851 7.676,2.999 7.812,2.977 L9.294,2.743 C9.43,2.721 9.515,2.538 9.482,2.333 C9.45,2.129 9.313,1.98 9.177,2.002 z"/>
</svg>
