<?xml version="1.0" encoding="UTF-8"?>
<!DOCTYPE svg PUBLIC "-//W3C//DTD SVG 1.1//EN" "http://www.w3.org/Graphics/SVG/1.1/DTD/svg11.dtd">
<svg version="1.1" xmlns="http://www.w3.org/2000/svg" xmlns:xlink="http://www.w3.org/1999/xlink" x="0" y="0" width="15" height="15" viewBox="0 0 15 15">
<path d="M7.5,-0 C11.642,-0 15,3.358 15,7.5 C15,11.642 11.642,15 7.5,15 C3.358,15 -0,11.642 -0,7.5 C-0,3.358 3.358,-0 7.5,-0 z M7.066,10.971 L6.749,10.979 C6.52,11.049 6.373,11.229 6.419,11.382 L6.925,13.037 C6.972,13.19 7.194,13.257 7.423,13.186 C7.652,13.116 7.799,12.936 7.753,12.783 L7.246,11.129 L7.066,10.971 z M3.502,11.34 L3.502,11.34 C3.35,11.292 3.167,11.436 3.093,11.663 C3.02,11.89 3.083,12.114 3.234,12.163 L4.881,12.698 C5.032,12.748 5.214,12.603 5.288,12.376 C5.362,12.149 5.3,11.924 5.147,11.875 L3.502,11.34 z M9.697,10.981 C9.548,10.923 9.358,11.058 9.272,11.281 C9.187,11.504 9.238,11.731 9.387,11.789 L11.002,12.408 C11.151,12.466 11.341,12.331 11.427,12.108 C11.512,11.885 11.461,11.658 11.312,11.601 L9.697,10.981 z M11.318,9.233 C11.161,9.21 11.007,9.384 10.973,9.621 C10.94,9.857 11.04,10.067 11.198,10.089 L12.913,10.33 C13.07,10.352 13.224,10.179 13.258,9.942 C13.291,9.705 13.191,9.496 13.033,9.473 L11.318,9.233 z M7.5,5.192 C6.225,5.192 5.192,6.225 5.192,7.5 C5.192,8.775 6.225,9.808 7.5,9.808 C8.775,9.808 9.808,8.775 9.808,7.5 C9.808,6.225 8.775,5.192 7.5,5.192 z M2.643,8.655 C2.485,8.638 2.337,8.818 2.311,9.055 C2.286,9.293 2.394,9.498 2.552,9.516 L4.274,9.697 C4.433,9.713 4.582,9.534 4.606,9.297 C4.632,9.059 4.523,8.852 4.365,8.836 L2.643,8.655 z M12.778,6.243 L12.6,6.405 L12.123,8.068 C12.08,8.221 12.23,8.399 12.459,8.465 C12.689,8.53 12.91,8.46 12.954,8.307 L13.432,6.643 C13.476,6.49 13.326,6.313 13.095,6.247 L12.778,6.243 z M2.881,5.58 L2.646,5.627 L1.38,6.808 C1.263,6.916 1.3,7.146 1.464,7.32 C1.627,7.495 1.853,7.548 1.97,7.44 L3.235,6.26 C3.352,6.151 3.315,5.922 3.151,5.746 L2.881,5.58 z M11.538,3.402 L11.23,3.477 C11.022,3.592 10.914,3.8 10.992,3.938 L11.83,5.452 C11.908,5.592 12.14,5.611 12.348,5.495 C12.558,5.379 12.665,5.173 12.587,5.033 L11.748,3.519 L11.538,3.402 z M7.958,3.471 C7.807,3.422 7.625,3.567 7.55,3.794 C7.477,4.021 7.539,4.245 7.69,4.293 L9.337,4.829 C9.488,4.878 9.672,4.734 9.745,4.507 C9.819,4.28 9.756,4.056 9.605,4.006 L7.958,3.471 z M2.628,3.542 L2.628,3.542 C2.469,3.531 2.327,3.715 2.31,3.954 C2.294,4.192 2.409,4.394 2.568,4.405 L4.295,4.527 C4.454,4.537 4.596,4.353 4.612,4.115 C4.629,3.877 4.514,3.674 4.355,3.662 L2.628,3.542 z M4.847,1.449 L4.592,1.638 C4.446,1.828 4.428,2.06 4.553,2.158 L5.917,3.223 C6.043,3.321 6.264,3.248 6.411,3.06 C6.558,2.871 6.576,2.639 6.45,2.541 L5.086,1.476 L4.847,1.449 z M9.435,1.156 L7.725,1.427 C7.568,1.452 7.471,1.664 7.508,1.899 C7.545,2.136 7.703,2.307 7.86,2.281 L9.57,2.011 C9.727,1.986 9.825,1.775 9.787,1.538 C9.75,1.303 9.592,1.131 9.435,1.156 z"/>
</svg>
