<?xml version="1.0" encoding="UTF-8"?>
<svg width="15px" height="15px" viewBox="0 0 15 15" version="1.1" xmlns="http://www.w3.org/2000/svg" xmlns:xlink="http://www.w3.org/1999/xlink">
    <path d="M10.0006696,7.41043459 C9.18660677,7.8045726 8.35328131,8 7.5,8 C6.64671967,8 5.81339515,7.80457305 4.99933321,7.41043596 C4.97025757,5.45516185 4,3.98501653 4,3 C4,2.33333333 4.33333333,1.66666667 5,1 L6,1 C6.5,2 7,2.5 7.5,2.5 C8,2.5 8.5,2 9,1 L10,1 C10.6666667,1.66666667 11,2.33333333 11,3 C11,4.26311506 10.0298051,5.46341929 10.0006696,7.41043459 L10.0006696,7.41043459 Z M10.220489,8.41156398 C10.6995797,9.37196927 11.9594167,10.2347813 14,11 C14,11.6666667 13.6666667,12.3333333 13,13 C12,14 11,13 10,13 C9,13 9,14 7.5,14 C6,14 6,13 5,13 C4,13 3,14 2,13 C1.33333333,12.3333333 1,11.6666667 1,11 C3.04058326,10.2347813 4.30042026,9.37196927 4.77951101,8.41156398 C5.65734768,8.80293829 6.56437083,9 7.5,9 C8.43562917,9 9.34265232,8.80293829 10.220489,8.41156398 L10.220489,8.41156398 Z"></path>
</svg>
