<?xml version="1.0" encoding="UTF-8"?>
<!DOCTYPE svg PUBLIC "-//W3C//DTD SVG 1.1//EN" "http://www.w3.org/Graphics/SVG/1.1/DTD/svg11.dtd">
<svg version="1.1" xmlns="http://www.w3.org/2000/svg" xmlns:xlink="http://www.w3.org/1999/xlink" x="0" y="0" width="15" height="15" viewBox="0 0 15 15">
<path d="M7,-0 C11,-0 13,2 13,5 C13,7.5 11,8.5 10.5,11 C10,12.5 9,15 7,15 C5,15 4.5,13.5 3.5,12 C2.5,10.5 3.5,10 4,10.5 C4.5,11 5.5,14 7,14 C8,14 9,12 9.5,10.5 C10,8 12,7 12,5 C12,2.5 10.5,1 7,1 C4.5,1 3.5,2.5 3.5,4 C3.5,5 2.5,5 2.5,4 C2.5,1.5 4,-0 7,-0 z M7.5,2.5 C5.5,2.5 4.5,3.5 4.5,5 C4.5,6 4.5,7 5,7.5 C5.5,8 6,8.5 5.5,9 C5,9.5 6,10.5 7,9 C7.5,8 7,7.5 6.5,7 C6,6.5 5.5,6 5.5,5 C5.5,4.5 6,3 7.5,3 C8.5,3 10,3.5 10,5 C10,6.5 9,7.5 9.5,7.5 C10,7.5 10.5,6 10.5,5 C10.5,3 8.5,2.5 7.5,2.5 z"/>
</svg>
