<?xml version="1.0" encoding="UTF-8"?>
<!DOCTYPE svg PUBLIC "-//W3C//DTD SVG 1.1//EN" "http://www.w3.org/Graphics/SVG/1.1/DTD/svg11.dtd">
<svg version="1.1" xmlns="http://www.w3.org/2000/svg" xmlns:xlink="http://www.w3.org/1999/xlink" x="0" y="0" width="15" height="15" viewBox="0 0 15 15">
<path d="M7.5,1 C10.5,1 13,4.5 12,6.5 C11,8.5 10.5,9 10.5,10.5 C10.5,12 9,14 7.5,14 C6,14 5.5,13 4.5,11.5 C3.716,10.323 4.5,10 5,10.5 C5.5,11 6,13 7.5,13 C8.5,13 9.5,11.5 9.5,10.5 C9.5,9 10,8 11,6.5 C12,5 10,2 7.5,2 C5.5,2 4.5,3 4.5,4.5 C4.5,5.5 3.5,5.5 3.5,4.5 C3.5,2.5 5,1 7.5,1 z M7.5,3 C6,3 5,4 5,5.5 C5,6.5 5,7 5.5,7.5 C6,8 6.5,8.5 6,9 C5.5,9.5 6.5,10.5 7.5,9 C8,8 7.5,7.5 7,7 C6.5,6.5 6,6 6,5.5 C6,5 6,3.5 7.5,3.5 C9,3.5 10.408,5.372 9.3,6.85 C9.217,6.96 9.24,7.117 9.35,7.2 C9.46,7.283 9.617,7.26 9.7,7.15 C11.092,5.294 9,3 7.5,3 z"/>
</svg>
