<?xml version="1.0" encoding="UTF-8"?>
<!DOCTYPE svg PUBLIC "-//W3C//DTD SVG 1.1//EN" "http://www.w3.org/Graphics/SVG/1.1/DTD/svg11.dtd">
<svg version="1.1" xmlns="http://www.w3.org/2000/svg" xmlns:xlink="http://www.w3.org/1999/xlink" x="0" y="0" width="15" height="15" viewBox="0 0 15 15">
<path d="M11,4 C11,4 11,1 11,1 C11,0 10,0 10,1 C10,1 10,4 10,4 L5,4 C5,4 5,1 5,1 C5,0 4,0 4,1 C4,1 4,4 4,4 C4,4 2.5,4 2.5,4 C1.5,4 1.5,5.5 2,6.5 C2.5,7.5 3.5,9.5 3.5,12 C3.5,12 3.5,14 4.5,14 C4.5,14 6,14 6,14 L6,15 L9,15 L9,14 C9,14 10.5,14 10.5,14 C11.5,14 11.5,12 11.5,12 C11.5,9.5 12.5,7.5 13,6.5 C13.5,5.5 13.5,4 12.5,4 M7.25,9.5 C7.25,9.5 5.5,9.5 5.5,9.5 C5.5,9.5 8.5,5.5 8.5,5.5 C8.5,5.5 8,8.5 8,8.5 C8,8.5 10,8.5 10,8.5 C10,8.5 7,12.5 7,12.5"/>
</svg>
