<?xml version="1.0" encoding="UTF-8"?>
<svg width="15px" height="15px" viewBox="0 0 15 15" version="1.1" xmlns="http://www.w3.org/2000/svg" xmlns:xlink="http://www.w3.org/1999/xlink">
    <path d="M9,14 L9,11 L6,11 L6,14 L1,14 L1,6.5 C1,6.22385763 1.22385763,6 1.5,6 L4,6 L4,5.5 C4,5.22385763 4.22385763,5 4.5,5 L7,5 L7,1 L9,-1.42108547e-14 L11,1 L13,-1.42108547e-14 L13,3 L11,4 L9,3 L8,3.5 L8,5 L10.5,5 C10.7761424,5 11,5.22385763 11,5.5 L11,6 L13.5,6 C13.7761424,6 14,6.22385763 14,6.5 L14,14 L9,14 Z M12,8 L12,10 L13,10 L13,8 L12,8 Z M10,8 L10,10 L11,10 L11,8 L10,8 Z M10,11 L10,13 L11,13 L11,11 L10,11 Z M12,11 L12,13 L13,13 L13,11 L12,11 Z M4,11 L4,13 L5,13 L5,11 L4,11 Z M2,11 L2,13 L3,13 L3,11 L2,11 Z M8,8 L8,10 L9,10 L9,8 L8,8 Z M6,8 L6,10 L7,10 L7,8 L6,8 Z M4,8 L4,10 L5,10 L5,8 L4,8 Z M2,8 L2,10 L3,10 L3,8 L2,8 Z"></path>
</svg>
