<?xml version="1.0" encoding="UTF-8"?>
<!DOCTYPE svg PUBLIC "-//W3C//DTD SVG 1.1//EN" "http://www.w3.org/Graphics/SVG/1.1/DTD/svg11.dtd">
<svg version="1.1" xmlns="http://www.w3.org/2000/svg" xmlns:xlink="http://www.w3.org/1999/xlink" x="0" y="0" width="15" height="15" viewBox="0 0 15 15">
<path d="M13,11.5 C13,13.5 12.5,15 11.5,15 C11.5,15 3.5,15 3.5,15 C2.5,15 2,13.5 2,11.5 C6.5,14 8.5,14 13,11.5 z M7.5,11 C7.75,11 8,11.25 8,11.5 C8,11.75 7.75,12 7.5,12 C7.25,12 7,11.75 7,11.5 C7,11.25 7.25,11 7.5,11 z M12,10 L3,10 C2.5,10 2,10.5 2,11 C6.5,13.5 8.5,13.5 13,11 C13,10.5 12.5,10 12,10 z"/>
<path d="M3.966,8.5 C2.833,8.5 1.983,8.5 1.7,7.367 C1.7,7.367 1.133,5.1 1.133,4.25 C1.133,2.833 1.7,2.267 3.116,2.267 C3.683,2.267 4.816,2.267 4.816,2.267 C6.233,2.267 6.8,2.833 6.8,4.25 C6.8,5.1 6.233,7.367 6.233,7.367 C5.95,8.5 5.1,8.5 3.966,8.5 z M4.533,0 L3.4,0 C2.833,0 2.833,0.567 2.833,0.708 C3.258,0.708 3.258,1.275 2.833,1.275 C2.833,1.417 2.833,1.983 3.4,1.983 C3.966,1.983 3.966,1.983 4.533,1.983 C5.1,1.983 5.241,1.417 5.241,1.133 L5.95,1.133 C5.95,1.417 6.233,1.7 6.8,1.7 C7.366,1.7 7.933,1.417 7.933,0.992 C7.933,0.567 7.366,0.283 6.8,0.283 C6.233,0.283 5.95,0.567 5.95,0.85 L5.241,0.85 C5.241,0.567 5.1,0 4.533,0 z M2.085,1.135 C2.162,1.124 2.234,1.178 2.245,1.255 C2.256,1.332 2.202,1.404 2.125,1.416 L1.844,1.455 C1.767,1.467 1.695,1.413 1.684,1.335 C1.673,1.257 1.727,1.186 1.804,1.175 L2.085,1.135 z M1.244,1.255 C1.321,1.244 1.393,1.298 1.403,1.375 C1.415,1.453 1.361,1.524 1.283,1.536 L1.003,1.575 C0.926,1.587 0.854,1.533 0.842,1.455 C0.832,1.378 0.886,1.306 0.963,1.295 L1.244,1.255 z M0.402,1.375 C0.479,1.364 0.551,1.418 0.562,1.495 C0.573,1.573 0.519,1.644 0.442,1.656 L0.161,1.695 C0.084,1.707 0.012,1.653 0.002,1.575 C-0.01,1.498 0.044,1.426 0.122,1.416 L0.402,1.375 z M0.161,0.284 L0.442,0.325 C0.519,0.336 0.573,0.407 0.562,0.485 C0.551,0.563 0.479,0.617 0.402,0.605 L0.122,0.565 C0.044,0.554 -0.01,0.482 0.002,0.405 C0.012,0.328 0.084,0.274 0.161,0.285 z M1.003,0.405 L1.283,0.445 C1.361,0.456 1.415,0.528 1.403,0.605 C1.393,0.683 1.321,0.737 1.244,0.725 L0.963,0.686 C0.886,0.674 0.832,0.603 0.842,0.525 C0.854,0.448 0.926,0.394 1.003,0.405 z M1.844,0.525 C1.767,0.514 1.695,0.568 1.684,0.645 C1.673,0.723 1.727,0.794 1.804,0.806 L2.085,0.845 C2.162,0.857 2.234,0.803 2.245,0.725 C2.256,0.648 2.202,0.576 2.125,0.565 L1.844,0.525 z"/>
<path d="M15,4 C15,4 13.125,2 13.125,2 C13.125,2 9.375,2 9.375,2 C9.375,2 7.5,4 7.5,4 C7.5,4 11.25,8.5 11.25,8.5 C11.25,8.5 15,4 15,4 z M12.797,4 L13.125,2.5 L14.531,4 L12.797,4 z M12.656,4.5 L14.062,4.5 L11.719,7.5 L12.656,4.5 z M12.422,4 L11.578,2.5 L12.797,2.5 L12.422,4 z M10.312,4.5 L12.188,4.5 L11.25,7.75 L10.312,4.5 z M10.453,4 L11.25,2.5 L12.047,4 L10.453,4 z M10.078,4 L9.703,2.5 L10.922,2.5 L10.078,4 z M10.781,7.5 L8.438,4.5 L9.844,4.5 L10.781,7.5 z M9.375,2.5 L9.703,4 L7.969,4 L9.375,2.5 z"/>
</svg>
