<?xml version="1.0" encoding="UTF-8"?>
<svg width="15px" height="15px" viewBox="0 0 15 15" version="1.1" xmlns="http://www.w3.org/2000/svg" xmlns:xlink="http://www.w3.org/1999/xlink">
    <path d="M2.55241027,11.7620514 L2,9 L3,8.45454545 L3,4 C3,3.44771525 3.44771525,3 4,3 L11,3 C11.5522847,3 12,3.44771525 12,4 L12,8.45454545 L13,9 L12.44435,11.7782501 C11.6584636,11.2594167 10.9951954,11 10.4545455,11 C9.58783994,11 8.60299145,11.3333333 7.5,12 C6.43632479,11.3333333 5.4514763,11 4.54545455,11 C3.98619198,11 3.32184389,11.2540171 2.55241027,11.7620514 L2.55241027,11.7620514 Z M11,7.90909091 L11,4.5 C11,4.22385763 10.7761424,4 10.5,4 L4.5,4 C4.22385763,4 4,4.22385763 4,4.5 L4,7.90909091 L7.5,6 L11,7.90909091 Z M5.5,1 L9.5,1 C9.77614237,1 10,1.22385763 10,1.5 L10,2.5 L5,2.5 L5,1.5 C5,1.22385763 5.22385763,1 5.5,1 Z M10.5,12 C10.8921693,12 11.2272021,12.1063596 11.624183,12.3180828 C11.6917965,12.3541433 11.7597015,12.3922209 11.8476942,12.4429163 C11.955325,12.5052564 12.014841,12.5397479 12.0605695,12.5658784 C12.6011449,12.8747787 12.2426051,13.8216499 11.5644305,13.4341216 C11.5155409,13.4061846 11.4526611,13.3697436 11.3484863,13.3093985 C11.2691353,13.2636819 11.2098765,13.2304526 11.1535948,13.2004357 C10.888811,13.0592177 10.7022752,13 10.5,13 C9.60394752,13 8.69882812,13.3017065 7.7773501,13.9160251 L7.5,14.1009252 L7.2226499,13.9160251 C6.30117188,13.3017065 5.39605248,13 4.5,13 C4.37120269,13 4.23758494,13.0347164 4.06761865,13.1121106 C3.93462575,13.172669 3.80071741,13.2470864 3.46759622,13.4370587 C2.78122651,13.818449 2.43088179,12.8691115 2.9818815,12.5629413 C3.3030551,12.3789998 3.47775383,12.2819137 3.65320882,12.2020202 C3.94359985,12.0697906 4.21221233,12 4.5,12 C5.50943918,12 6.51129743,12.3051469 7.5,12.9071029 C8.48870257,12.3051469 9.49056082,12 10.5,12 Z"></path>
</svg>
