<?xml version="1.0" encoding="UTF-8"?>
<svg width="15px" height="15px" viewBox="0 0 15 15" version="1.1" xmlns="http://www.w3.org/2000/svg" xmlns:xlink="http://www.w3.org/1999/xlink">
    <path d="M1.10426482,9.67187914 C1.43663808,9.23080493 2.06364114,9.14268539 2.50471535,9.47505865 C2.94578956,9.80743191 3.0339091,10.434435 2.70153584,10.8755092 C2.36916258,11.3165834 2.45728211,11.9435865 2.89835632,12.2759597 C3.33943054,12.608333 3.9664336,12.5202134 4.29880686,12.0791392 L5.80334441,10.0825505 L7.40061543,11.2861805 L5.89607788,13.2827693 C4.8989581,14.6059919 3.01794892,14.8703505 1.69472628,13.8732307 C0.371503638,12.876111 0.107145037,10.9951018 1.10426482,9.67187914 Z M14.1246677,0.701421605 C14.5657419,1.03379486 14.6538615,1.66079793 14.3214882,2.10187214 L7.70152295,10.8868627 L6.10425193,9.6832327 L12.7242172,0.898242092 C13.0565904,0.457167879 13.6835935,0.369048346 14.1246677,0.701421605 Z M12,14 C10.8954305,14 10,13.1045695 10,12 C10,10.8954305 10.8954305,10 12,10 C13.1045695,10 14,10.8954305 14,12 C14,13.1045695 13.1045695,14 12,14 Z"></path>
</svg>
