<?xml version="1.0" encoding="UTF-8" standalone="no"?>
<svg
   version="1.1"
   x="0"
   y="0"
   viewBox="0 0 15 15"
   id="svg2"
   sodipodi:docname="fire_hydrant_underground.svg"
   inkscape:version="1.3.2 (091e20e, 2023-11-25, custom)"
   xmlns:inkscape="http://www.inkscape.org/namespaces/inkscape"
   xmlns:sodipodi="http://sodipodi.sourceforge.net/DTD/sodipodi-0.dtd"
   xmlns="http://www.w3.org/2000/svg"
   xmlns:svg="http://www.w3.org/2000/svg">
  <defs
     id="defs2" />
  <sodipodi:namedview
     id="namedview2"
     pagecolor="#ffffff"
     bordercolor="#000000"
     borderopacity="0.25"
     inkscape:showpageshadow="2"
     inkscape:pageopacity="0.0"
     inkscape:pagecheckerboard="0"
     inkscape:deskcolor="#d1d1d1"
     inkscape:zoom="54.2"
     inkscape:cx="7.5"
     inkscape:cy="7.5"
     inkscape:window-width="1920"
     inkscape:window-height="1009"
     inkscape:window-x="1912"
     inkscape:window-y="-8"
     inkscape:window-maximized="1"
     inkscape:current-layer="svg2" />
  <path
     d="M 7.5,2 C 11.63,2 15,4.4786666 15,7.5 15,10.528667 11.64,13 7.5,13 3.36,13 0,10.528667 0,7.5 0,4.4786666 3.38,2 7.5,2 Z m 0,0.3666666 c -3.87,0 -7,2.2953334 -7,5.1333334 0,2.845333 3.13,5.133334 7,5.133334 v 0 c 3.88,0 7,-2.288001 7,-5.133334 0,-2.838 -3.12,-5.1333334 -7,-5.1333334 z M 11,4.2 c 0.5,0 0.5,0.7333334 0,0.7333334 H 9.5 c -0.25,0 -1.75,-0.55 -1.25,-0.7333334 z m -4.25,0 c 0.5,0.1833334 -1,0.7333334 -1.25,0.7333334 H 4 C 3.5,4.9333334 3.5,4.2 4,4.2 Z M 4,5.6666666 C 4.5,5.6666666 3.75,6.4 3.5,6.4 c 0,0 -1,0 -1,0 C 2,6.4 2,5.6666666 2.5,5.6666666 Z m 8.5,0 C 13,5.6666666 13,6.4 12.5,6.4 h -1 C 11.25,6.4 10.5,5.6666666 11,5.6666666 Z M 13,7.1333334 c 0.5,0 0.5,0.7333332 0,0.7333332 h -1 c -0.5,0 -0.5,-0.7333332 0,-0.7333332 z m -10,0 c 0.5,0 0.5,0.7333332 0,0.7333332 H 2 c -0.5,0 -0.5,-0.7333332 0,-0.7333332 z M 3.5,8.6 c 0.25,0 1,0.7333334 0.5,0.7333334 0,0 -1.5,0 -1.5,0 C 2,9.3333334 2,8.6 2.5,8.6 Z m 9,0 c 0.5,0 0.5,0.7333334 0,0.7333334 H 11 C 10.5,9.3333334 11.25,8.6 11.5,8.6 Z M 7.5,4.9333334 C 9.37,4.9333334 11,6.1286666 11,7.5 11,8.8713334 9.37,10.066667 7.5,10.066667 5.63,10.066667 4,8.8713334 4,7.5 4,6.1286666 5.63,4.9333334 7.5,4.9333334 Z M 11,10.066667 c 0.5,0 0.5,0.733333 0,0.733333 H 8.25 c -0.5,-0.183333 1,-0.733333 1.25,-0.733333 z m -5.5,0 c 0.25,0 1.75,0.55 1.25,0.733333 H 4 c -0.5,0 -0.5,-0.733333 0,-0.733333 z M 8.75,2.8286666 c 0,0 -0.25,0.638 -1.25,0.638 -1,0 -1.25,-0.638 -1.25,-0.638 C 3.13,3.2833334 1,5.3 1,7.5 c 0,2.2 2.13,4.216666 5.25,4.678666 0,0 0.25,-0.645332 1.25,-0.645332 0.95,0 1.25,0.645332 1.25,0.645332 C 11.88,11.716666 14,9.7 14,7.5 14,5.3 11.88,3.2833334 8.75,2.8286666 Z"
     id="path1"
     style="stroke-width:0.856348" />
  <path
     d="m 7.5,5.6660517 c 0.1021771,0 0.1833948,0.083838 0.1833948,0.1860147 v -0.00786 c 0.3091513,0.060258 0.4375277,0.2541329 0.5423248,0.5318451 h 0.047159 c 0.062878,0 0.1126569,0.068118 0.1126569,0.1519557 0,0.081218 -0.049779,0.1493358 -0.1126569,0.1493358 H 8.0894834 v 0.5239852 h 0.4427675 c 0.081218,0 0.1467159,0.065498 0.1467159,0.1493358 v 0.4480074 c 0,0.083838 -0.065498,0.1493358 -0.1467159,0.1493358 H 8.0894834 v 1.0112915 h 0.1467159 c 0.1021771,0 0.1860147,0.083838 0.1860147,0.1886347 0,0.1021771 -0.083838,0.1860147 -0.1860147,0.1860147 H 6.7638007 c -0.1021771,0 -0.1860147,-0.083838 -0.1860147,-0.1860147 0,-0.1047971 0.083838,-0.1886347 0.1860147,-0.1886347 H 6.9105166 V 7.9480074 H 6.4677491 c -0.081218,0 -0.1467159,-0.065498 -0.1467159,-0.1493358 V 7.3506642 c 0,-0.083838 0.065498,-0.1493358 0.1467159,-0.1493358 H 6.9105166 V 6.6773432 H 6.7271218 c -0.062878,0 -0.1100369,-0.068118 -0.1100369,-0.1493358 0,-0.083838 0.047159,-0.1519557 0.1100369,-0.1519557 h 0.039299 C 6.8659779,6.0380812 7.0100738,5.9568635 7.3166052,5.8442066 v 0.00786 c 0,-0.1021771 0.081218,-0.1860147 0.1833948,-0.1860149 z"
     id="path1-2"
     style="stroke-width:0.261993" />
</svg>
