<?xml version="1.0" encoding="UTF-8" standalone="no"?>
<svg
   version="1.1"
   x="0"
   y="0"
   viewBox="0 0 15 15"
   id="svg2"
   sodipodi:docname="fire_hydrant_underground.svg"
   inkscape:version="1.3.2 (091e20e, 2023-11-25, custom)"
   xmlns:inkscape="http://www.inkscape.org/namespaces/inkscape"
   xmlns:sodipodi="http://sodipodi.sourceforge.net/DTD/sodipodi-0.dtd"
   xmlns="http://www.w3.org/2000/svg"
   xmlns:svg="http://www.w3.org/2000/svg">
  <defs
     id="defs2" />
  <sodipodi:namedview
     id="namedview2"
     pagecolor="#ffffff"
     bordercolor="#000000"
     borderopacity="0.25"
     inkscape:showpageshadow="2"
     inkscape:pageopacity="0.0"
     inkscape:pagecheckerboard="0"
     inkscape:deskcolor="#d1d1d1"
     inkscape:zoom="27.1"
     inkscape:cx="14.391144"
     inkscape:cy="12.97048"
     inkscape:window-width="1920"
     inkscape:window-height="1009"
     inkscape:window-x="-8"
     inkscape:window-y="-8"
     inkscape:window-maximized="1"
     inkscape:current-layer="svg2" />
  <path
     id="path3"
     style="fill:#000000;stroke-width:0.8"
     d="m 10.649,2.0833947 c 0.4,0 0.4,0.8000001 0,0.8000001 h -1.2 c -0.1999998,0 -1.3999999,-0.6 -0.9999997,-0.8000001 z m -4.1320002,0 c 0.4000001,0.2000001 -0.8,0.8000001 -0.9999999,0.8000001 h -1.2 c -0.3999999,0 -0.3999999,-0.8000001 0,-0.8000001 z M 3.549,4.3876383 c 0.3999998,0 -0.2,0.8000001 -0.4000001,0.8000001 H 2.349 c -0.4,0 -0.4,-0.8000001 0,-0.8000001 z m 9.063808,0 c 0.400001,0 0.400001,0.8000001 0,0.8000001 h -0.8 c -0.2,0 -0.8,-0.8000001 -0.399999,-0.8000001 z m 0.834191,2.3042437 c 0.400002,0 0.400002,0.7999998 0,0.7999998 h -0.8 c -0.399999,0 -0.399999,-0.7999998 0,-0.7999998 z m -11.117999,0 c 0.4,0 0.4,0.7999998 0,0.7999998 h -0.8 c -0.3999999,0 -0.3999999,-0.7999998 0,-0.7999998 z m 0.2787229,2.3042432 c 0.2000001,0 0.7999999,0.8000004 0.4,0.8000004 H 1.807723 c -0.4,0 -0.4,-0.8000004 0,-0.8000004 z m 10.5385531,2e-7 c 0.400001,0 0.400001,0.8 0,0.8 h -1.199999 c -0.399999,0 0.199999,-0.8 0.400001,-0.8 z m -1.350745,2.3042436 c 0.4,0 0.4,0.8 0,0.8 H 9.5955299 c -0.4000003,-0.2 0.8000001,-0.8 0.9999991,-0.8 z m -7.4065312,0 c 0.2000001,0 1.4,0.6 1.0000001,0.8 H 3.189 c -0.4000001,0 -0.4000001,-0.8 0,-0.8 z M 7.3265481,2.7021121 c 2.2872297,0 4.8680069,2.5127164 4.8680069,4.7999461 0,2.2872299 -2.404648,4.7773798 -4.6918779,4.7773798 -2.2872295,0 -4.7212334,-2.4901499 -4.7212334,-4.7773799 0,-2.2872299 2.2578748,-4.799946 4.5451044,-4.799946 z M 8.7499998,1.1299999 c 0,0 -0.25,0.87 -1.25,0.87 -1,0 -1.2499999,-0.87 -1.2499999,-0.87 C 3.1299999,1.7500001 0.99999995,4.5 0.99999995,7.5 c 0,3 2.12999995,5.749999 5.24999995,6.379999 0,0 0.2499999,-0.879998 1.2499999,-0.879998 0.9499999,0 1.25,0.879998 1.25,0.879998 C 11.88,13.249999 14,10.5 14,7.5 14,4.5 11.88,1.7500001 8.7499998,1.1299999 Z m -1.25,-0.62999999 C 3.6299999,0.49999991 0.50000009,3.63 0.50000009,7.5 c 0,3.88 3.12999981,7.000001 6.99999971,7.000001 v 0 c 3.8799992,0 6.9999992,-3.120001 6.9999992,-7.000001 0,-3.87 -3.12,-7.00000009 -6.9999992,-7.00000009 z M 7.4999998,0 C 11.63,0 15,3.3799999 15,7.5 15,11.63 11.64,15 7.4999998,15 3.36,15 0,11.63 0,7.5 0,3.3799999 3.3799999,0 7.4999998,0 Z" />
  <path
     d="m 7.500219,3.4 c 0.2083466,0 0.3739555,0.1666446 0.3739555,0.3697406 V 3.7541182 C 8.5045567,3.8738935 8.7663258,4.259257 8.9800148,4.8112644 h 0.096161 c 0.1282136,0 0.2297158,0.1353979 0.2297158,0.3020417 0,0.1614367 -0.1015033,0.2968341 -0.2297158,0.2968341 H 8.7022192 v 1.0415232 h 0.9028355 c 0.1656099,0 0.299164,0.1301901 0.299164,0.296834 v 0.8905024 c 0,0.1666448 -0.1335541,0.2968343 -0.299164,0.2968343 H 8.7022192 v 2.0101395 h 0.2991646 c 0.2083464,0 0.3792975,0.1666434 0.3792975,0.3749474 0,0.203099 -0.1709518,0.369742 -0.3792975,0.369742 H 5.9990543 c -0.2083467,0 -0.3792977,-0.166643 -0.3792977,-0.369742 0,-0.208304 0.170952,-0.3749474 0.3792977,-0.3749474 H 6.2982189 V 7.9358338 H 5.3953833 c -0.1656097,0 -0.2991646,-0.13019 -0.2991646,-0.2968343 V 6.748497 c 0,-0.1666442 0.1335552,-0.2968339 0.2991646,-0.2968339 H 6.2982189 V 5.4101401 H 5.9242633 c -0.1282134,0 -0.2243733,-0.1353979 -0.2243733,-0.2968343 0,-0.1666443 0.096161,-0.3020418 0.2243733,-0.3020418 h 0.080133 C 6.2074012,4.1394816 6.5012233,3.9780456 7.1262633,3.7541177 v 0.015623 C 7.1262634,3.5666444 7.291873,3.4000004 7.500219,3.4 Z"
     id="path1-2"
     style="fill:#000000;stroke-width:0.527451" />
</svg>
