<?xml version="1.0" encoding="UTF-8"?>
<svg width="15px" height="15px" viewBox="0 0 15 15" version="1.1" xmlns="http://www.w3.org/2000/svg" xmlns:xlink="http://www.w3.org/1999/xlink">
    <path d="M6.10245751,12 L3.66147451,10.7795085 L4.2204915,9.66147451 L7.5,11.3012288 L10.7795085,9.66147451 L11.3385255,10.7795085 L8.89754249,12 L11.3385255,13.2204915 L10.7795085,14.3385255 L7.5,12.6987712 L4.2204915,14.3385255 L3.66147451,13.2204915 L6.10245751,12 Z M1.99990686,0.999976607 L13,0.999976607 C13.5522847,0.999976607 14,1.44769186 14,1.99997661 L14,14 L12,14 L12.0090523,7.49999564 C12.0125086,5.0181754 10.0033977,3.00346068 7.52157746,3.00000436 L7.51531923,3 C5.02902476,3 3.01251483,5.01370357 3.00905228,7.49999564 L3,14 L0.999906863,14 L0.999906863,1.99997661 C0.999906863,1.44769186 1.44762211,0.999976607 1.99990686,0.999976607 Z M7,3.5 L7.49995343,7 L9,5 L9.6899601,6.29320937 C10.2535057,7.34947682 9.9982969,8.6562548 9.07874748,9.42287946 L9.04409179,9.45177177 C8.1537339,10.1940596 6.85666126,10.1818272 5.98046113,9.42287946 C5.07594503,8.63940496 4.81245222,7.34505125 5.33869094,6.27031664 C5.66037016,5.61330811 5.8808124,5.18987211 6,5 C6.20715403,4.66999275 6.54048737,4.16999275 7,3.5 Z"></path>
</svg>
