<?xml version="1.0" encoding="UTF-8"?>
<svg width="15px" height="15px" viewBox="0 0 15 15" version="1.1" xmlns="http://www.w3.org/2000/svg" xmlns:xlink="http://www.w3.org/1999/xlink">
    <path d="M9.75,8 C9.75,6.75735931 10.7573593,5.75 12,5.75 L14.25,5.75 L14.25,7.25 L12,7.25 C11.5857864,7.25 11.25,7.58578644 11.25,8 L11.25,9.75 L8,9.75 C7.58578644,9.75 7.25,10.0857864 7.25,10.5 L7.25,12.25 L4,12.25 C3.58578644,12.25 3.25,12.5857864 3.25,13 L3.25,14.25 L1.75,14.25 L1.75,13 C1.75,11.7573593 2.75735931,10.75 4,10.75 L5.75,10.75 L5.75,10.5 C5.75,9.25735931 6.75735931,8.25 8,8.25 L9.75,8.25 L9.75,8 Z M8,3 L11,3 C11,3 11,5 6.02247325,6 C5.52247325,6.1 4,7 4,7.93363852 C4.66666667,8.64454617 5,9.33333333 5,10 C5,10.6666667 4.33333333,10.3333333 3,9 C1.66666667,10.3333333 1,10.6666667 1,10 C1,9.33333333 1.33333333,8.66666667 2,8 C2,6.05279966 2,5 3.5,3 C5,1 9,1 10,1 C10.6666667,1 10,1.66666667 8,3 Z"></path>
</svg>
