<?xml version="1.0" encoding="UTF-8"?>
<svg version="1.2" baseProfile="tiny" xmlns="http://www.w3.org/2000/svg" viewBox="0 0 50 50" overflow="inherit">
  <path d="M25.08 7.56c1.77 0 3.2 -1.43 3.2 -3.19c0 -1.75 -1.43 -3.19 -3.2 -3.19s-3.2 1.44 -3.2 3.19c0 1.77 1.43 3.19 3.2 3.19zm20.09 36.61c-0.88 -0.41 -1.88 -0.65 -2.92 -0.65c-1.03 0 -2.02 0.24 -2.92 0.65c-0.86 0.38 -1.82 0.61 -2.82 0.61s-1.98 -0.23 -2.84 -0.6c-0.88 -0.41 -1.87 -0.65 -2.92 -0.65s-2.04 0.24 -2.92 0.65c-0.87 0.38 -1.83 0.61 -2.84 0.61c-1.01 0 -1.97 -0.23 -2.84 -0.6c-0.88 -0.41 -1.88 -0.65 -2.92 -0.65c-1.03 0 -2.02 0.24 -2.92 0.65c-0.86 0.38 -1.82 0.61 -2.82 0.61c-1.01 0 -1.98 -0.23 -2.84 -0.6c-0.88 -0.41 -1.88 -0.65 -2.92 -0.65s-2.04 0.24 -2.92 0.65c-0.87 0.38 -1.83 0.61 -2.84 0.61v4.23c1.01 0 1.97 -0.22 2.84 -0.6c0.88 -0.41 1.88 -0.65 2.92 -0.65s2.04 0.24 2.92 0.65c0.86 0.39 1.83 0.61 2.84 0.61c1 0 1.96 -0.22 2.82 -0.6c0.89 -0.41 1.89 -0.65 2.92 -0.65c1.04 0 2.04 0.24 2.92 0.65c0.87 0.39 1.83 0.61 2.84 0.61c1.01 0 1.97 -0.22 2.84 -0.6c0.88 -0.41 1.88 -0.65 2.92 -0.65s2.04 0.24 2.92 0.65c0.86 0.39 1.83 0.61 2.84 0.61s1.97 -0.22 2.82 -0.6c0.9 -0.41 1.89 -0.65 2.92 -0.65c1.04 0 2.04 0.24 2.92 0.65c0.87 0.39 1.83 0.61 2.84 0.61v-4.23c-1.01 0 -1.97 -0.23 -2.84 -0.61zm0.26 -43.12c-0.23 -0.09 -0.58 -0.04 -0.76 0.14l-11.72 11.8c-0.18 -0.08 -0.43 0.02 -0.64 0.02h-4.43c-0.76 -1 -4.76 -4.91 -4.76 -4.91c-0.2 -0.21 -0.47 -0.39 -0.73 -0.46c-0.91 -0.8 -2.3 -0.82 -3.18 0.05l-6.85 6.87c-0.26 0.26 -0.36 0.61 -0.36 1v4.45h-10v2h10v11.52c0 1.43 1.07 2.58 2.49 2.58c1.42 0 2.51 -1.15 2.51 -2.58v-11.52h7v15h-22v3h24v-18h3v-2h-12v-0.82l6.48 -6.43l2.64 2.71c0.28 0.3 0.7 0.54 1.12 0.54h5.07c0.87 0 1.7 -0.13 1.7 -1c0 -0.21 0.07 -0.82 0 -1c2.77 -2.76 10 -9.55 11 -10.93v36.93h1v-38.39c0 -0.25 -0.34 -0.47 -0.57 -0.57z"/>
</svg>