<?xml version="1.0" encoding="UTF-8"?>
<svg version="1.2" baseProfile="tiny" xmlns="http://www.w3.org/2000/svg" viewBox="0 0 50 50" overflow="inherit">
  <path d="M48.89 15.15l-3.93 30.85h-13.29l-3.92 -31h16.23l3.21 -11.08l1.82 0.55l-3.08 10.66l2.97 0.02zm-23.02 17.85s0.5 -4 -6.39 -4h-10.98c-6.88 0 -6.39 4 -6.39 4h23.77zm-23.77 9s-0.49 4 6.4 4h10.98c6.89 0 6.4 -4 6.4 -4h-23.77zm22.74 -2c1.13 0 2.04 -1.11 2.04 -2.5c0 -1.39 -0.91 -2.5 -2.04 -2.5h-21.8c-1.12 0 -2.04 1.11 -2.04 2.5c0 1.39 0.92 2.5 2.04 2.5h21.8z"/>
</svg>