<?xml version="1.0" encoding="UTF-8"?>
<svg version="1.1" xmlns="http://www.w3.org/2000/svg" xmlns:xlink="http://www.w3.org/1999/xlink" viewBox="0 0 15 15">
	<path d="M6 .5c-1 0-2 .5-2 1h7c0-.5-1-1-2-1H6zM7 2.5c0-.5 1-.5 1 0V3c0 .5-1 .5-1 0m0 1.88c0 .5 1 .5 1 0v-.5c0-.5-1-.5-1 0m2.97-1.64c.13.48-.83.74-.97.26l-.13-.48c-.13-.49.84-.75.97-.27m.61 2.24c.13.48-.83.74-.96.26l-.13-.49c-.13-.48.83-.74.96-.26M5.06 2.74c-.13.48.84.74.97.26l.13-.48c.13-.48-.83-.75-.96-.26m-.62 2.23c-.13.48.84.74.97.26l.13-.48c.13-.48-.84-.75-.97-.27M9.6 9.6a7.976 7.976 90 0 1-1.052-.7584l-1.74-2.2648a.4464.4464 90 0 0-.8.2232H6V8H4.5672a.4.4 90 0 1-.2856-.1184S4 7.2 3.6 7.2h-.4a.4.4 90 0 0-.4.4v3.6h4.4c1.2 0 1.6.8 2.8.8h3.2v-.4c0-1.2-2.7624-1.5248-3.6-2Zm0 3.2a2.5048 2.5048 90 0 1-1.2208-.3576A3.28 3.28 90 0 0 6.8 12h-4v1.2a.4.4 90 0 0 .4.4h3.2a.4.4 90 0 0 .4-.4v-.4a2.5072 2.5072 90 0 1 1.2208.3576A3.28 3.28 90 0 0 9.6 13.6h3.2a.4.4 90 0 0 .4-.4v-.4Z" />
</svg>
