<?xml version="1.0" encoding="UTF-8"?>
<!DOCTYPE svg PUBLIC "-//W3C//DTD SVG 1.1//EN" "http://www.w3.org/Graphics/SVG/1.1/DTD/svg11.dtd">
<svg version="1.1" xmlns="http://www.w3.org/2000/svg" xmlns:xlink="http://www.w3.org/1999/xlink" x="0" y="0" width="15" height="15" viewBox="0 0 15 15">
    <path d="M3.75,1.5 C1.5,1.5 0.75,3.5 0.75,6 C0.75,8 1.75,8 1.75,6 C1.75,3.5 2.75,2.5 3.75,2.5 C5.5,2.5 6.5,5.75 6.5,7 C6.5,7 6.25,6.75 5.5,6.75 C4.25,6.75 3.5,7.75 3.5,9.5 C3.5,10.75 4.25,10.75 4.25,9.5 C4.25,8.25 5,7.75 5.5,7.75 C6,7.75 6.75,8 7,10 C7.283,11.98 7.715,11.984 7.966,10 C8.25,8 8.75,7.75 9.5,7.75 C10,7.75 10.5,8.25 10.5,9 C10.5,10.5 11.25,10.5 11.25,9 C11.25,7.25 10.25,6.75 9.5,6.75 C8.75,6.75 8.5,7 8.5,7 C8.75,5.25 9.5,3 11,3 C12.5,3 13.25,5 13.25,6.75 C13.25,8.5 14.25,8.5 14.25,6.75 C14.25,3.5 12.75,2 11,2 C8.75,2 7.75,4.5 7.5,6 C7.25,4 6.25,1.5 3.75,1.5 z M14,11.508 C14.276,11.508 14.5,11.731 14.5,12.008 C14.5,12.284 14.276,12.508 14,12.508 L14,12.508 C13.767,12.544 13.555,12.66 13.4,12.838 C13.129,13.126 12.783,13.334 12.4,13.438 C11.788,13.619 11.127,13.48 10.64,13.068 L10.25,12.718 C10.246,12.714 10.243,12.71 10.239,12.706 C9.935,12.409 9.448,12.414 9.15,12.718 C9,12.838 8.88,12.978 8.73,13.088 C8.002,13.666 6.964,13.636 6.27,13.018 L5.88,12.668 C5.595,12.413 5.165,12.413 4.88,12.668 C4.69,12.818 4.52,12.998 4.33,13.138 C3.631,13.652 2.672,13.628 2,13.078 L1.64,12.818 C1.476,12.634 1.246,12.522 1,12.508 L1,12.508 C0.724,12.508 0.5,12.284 0.5,12.008 C0.5,11.731 0.724,11.508 1,11.508 L1.06,11.508 C1.297,11.494 1.534,11.55 1.74,11.668 C2.018,11.84 2.283,12.034 2.53,12.248 C2.733,12.467 3.038,12.563 3.33,12.498 C3.439,12.463 3.541,12.409 3.63,12.338 C3.78,12.218 3.92,12.078 4.07,11.948 C4.776,11.356 5.804,11.356 6.51,11.948 C6.67,12.078 6.82,12.228 6.98,12.358 C7.265,12.612 7.695,12.612 7.98,12.358 C8.14,12.228 8.29,12.078 8.45,11.948 C9.158,11.351 10.192,11.351 10.9,11.948 C11.05,12.078 11.19,12.218 11.34,12.338 C11.625,12.592 12.055,12.592 12.34,12.338 L12.81,11.928 C13.142,11.647 13.565,11.498 14,11.508 L14,11.508 z"/>
</svg>
