<?xml version="1.0" encoding="UTF-8"?>
<svg width="15px" height="15px" viewBox="0 0 15 15" version="1.1" xmlns="http://www.w3.org/2000/svg" xmlns:xlink="http://www.w3.org/1999/xlink">
    <path d="M6,10.5 C6,11.3284271 5.32842712,12 4.5,12 C3.84689059,12 3.29127106,11.5825962 3.08535285,11 L2.91464715,11 C2.70872894,11.5825962 2.15310941,12 1.5,12 C0.671572875,12 1.27579955e-14,11.3284271 1.26565425e-14,10.5 L1.26565425e-14,10 L1.26565425e-14,2.5 L1,2.5 L1,3 L14,3 L14,2.5 L15,2.5 L15,10 L15,10.5 C15,11.3284271 14.3284271,12 13.5,12 C12.8468906,12 12.2912711,11.5825962 12.0853529,11 L11.9146471,11 C11.7087289,11.5825962 11.1531094,12 10.5,12 C9.67157288,12 9,11.3284271 9,10.5 L6,10.5 Z M14,9 L14,4 L1,4 L1,9 L14,9 Z M2.5,4.5 C2.77614237,4.5 3,4.72385763 3,5 L3,8 C3,8.27614237 2.77614237,8.5 2.5,8.5 C2.22385763,8.5 2,8.27614237 2,8 L2,5 C2,4.72385763 2.22385763,4.5 2.5,4.5 Z M4.5,4.5 C4.77614237,4.5 5,4.72385763 5,5 L5,8 C5,8.27614237 4.77614237,8.5 4.5,8.5 C4.22385763,8.5 4,8.27614237 4,8 L4,5 C4,4.72385763 4.22385763,4.5 4.5,4.5 Z M6.5,4.5 C6.77614237,4.5 7,4.72385763 7,5 L7,8 C7,8.27614237 6.77614237,8.5 6.5,8.5 C6.22385763,8.5 6,8.27614237 6,8 L6,5 C6,4.72385763 6.22385763,4.5 6.5,4.5 Z M8.5,4.5 C8.77614237,4.5 9,4.72385763 9,5 L9,8 C9,8.27614237 8.77614237,8.5 8.5,8.5 C8.22385763,8.5 8,8.27614237 8,8 L8,5 C8,4.72385763 8.22385763,4.5 8.5,4.5 Z M10.5,4.5 C10.7761424,4.5 11,4.72385763 11,5 L11,8 C11,8.27614237 10.7761424,8.5 10.5,8.5 C10.2238576,8.5 10,8.27614237 10,8 L10,5 C10,4.72385763 10.2238576,4.5 10.5,4.5 Z M12.5,4.5 C12.7761424,4.5 13,4.72385763 13,5 L13,8 C13,8.27614237 12.7761424,8.5 12.5,8.5 C12.2238576,8.5 12,8.27614237 12,8 L12,5 C12,4.72385763 12.2238576,4.5 12.5,4.5 Z M1.5,9.75 C1.08578644,9.75 0.75,10.0857864 0.75,10.5 C0.75,10.9142136 1.08578644,11.25 1.5,11.25 C1.91421356,11.25 2.25,10.9142136 2.25,10.5 C2.25,10.0857864 1.91421356,9.75 1.5,9.75 Z M4.5,9.75 C4.08578644,9.75 3.75,10.0857864 3.75,10.5 C3.75,10.9142136 4.08578644,11.25 4.5,11.25 C4.91421356,11.25 5.25,10.9142136 5.25,10.5 C5.25,10.0857864 4.91421356,9.75 4.5,9.75 Z M10.5,9.75 C10.0857864,9.75 9.75,10.0857864 9.75,10.5 C9.75,10.9142136 10.0857864,11.25 10.5,11.25 C10.9142136,11.25 11.25,10.9142136 11.25,10.5 C11.25,10.0857864 10.9142136,9.75 10.5,9.75 Z M13.5,9.75 C13.0857864,9.75 12.75,10.0857864 12.75,10.5 C12.75,10.9142136 13.0857864,11.25 13.5,11.25 C13.9142136,11.25 14.25,10.9142136 14.25,10.5 C14.25,10.0857864 13.9142136,9.75 13.5,9.75 Z"></path>
</svg>
