<?xml version="1.0" encoding="UTF-8"?>
<!DOCTYPE svg PUBLIC "-//W3C//DTD SVG 1.1//EN" "http://www.w3.org/Graphics/SVG/1.1/DTD/svg11.dtd">
<svg version="1.1" xmlns="http://www.w3.org/2000/svg" xmlns:xlink="http://www.w3.org/1999/xlink" x="0" y="0" width="15" height="15" viewBox="0 0 15 15">
<path d="M14,1 C14,1 1,1 1,1 C0,1 0,2.5 1,2.5 C1,2.5 1,5.25 1,5.25 L14,5.25 C14,5.25 14,2.5 14,2.5 C15,2.5 15,1 14,1 z M7.5,4 C7.25,4 7,3.75 7,3.5 C7,3.25 7.25,3 7.5,3 C7.75,3 8,3.25 8,3.5 C8,3.75 7.75,4 7.5,4 z M1,9 L14,9 L14,6 L1,6 L1,9 z M7.5,7 C7.75,7 8,7.25 8,7.5 C8,7.75 7.75,8 7.5,8 C7.25,8 7,7.75 7,7.5 C7,7.25 7.25,7 7.5,7 z M1,9.75 L1,14.5 C1,15 3.5,15 3.5,14.5 L3.5,13 L11.5,13 L11.5,14.5 C11.5,15 14,15 14,14.5 L14,9.75 L1,9.75 z M7.5,11 C7.75,11 8,11.25 8,11.5 C8,11.75 7.75,12 7.5,12 C7.25,12 7,11.75 7,11.5 C7,11.25 7.25,11 7.5,11 z"/>
</svg>
