<?xml version="1.0" encoding="UTF-8"?>
<svg width="15px" height="15px" viewBox="0 0 15 15" version="1.1" xmlns="http://www.w3.org/2000/svg" xmlns:xlink="http://www.w3.org/1999/xlink">
    <path d="M12,12 L12,10.5 C12,10.2238576 12.2238576,10 12.5,10 L13.5,10 C13.7761424,10 14,10.2238576 14,10.5 L14,12 L14,13.5 C14,13.7761424 13.7761424,14 13.5,14 L1.5,14 C1.22385763,14 1,13.7761424 1,13.5 L1,12 L1,10.5 C1,10.2238576 1.22385763,10 1.5,10 L2.5,10 C2.77614237,10 3,10.2238576 3,10.5 L3,12 L12,12 Z M7,5.5 L5.65835921,4.82917961 C4.64200713,4.32100356 4,3.28221421 4,2.14589803 L4,1 C5.59655694,1.53218565 6.86623882,2.72982044 7.5,4.25917299 C8.13376118,2.72982044 9.40344306,1.53218565 11,1 L11,2.14589803 C11,3.28221421 10.3579929,4.32100356 9.34164079,4.82917961 L8,5.5 L8,7.95802566 C8.94075018,6.54912464 10.3494437,5.49516689 12,5 C12,7.41895791 10.2822403,9.43671155 8,9.89998188 L8,11.5 L7,11.5 L7,9.89998188 C4.71775968,9.43671155 3,7.41895791 3,5 C4.65055631,5.49516689 6.05924982,6.54912464 7,7.95802566 L7,5.5 Z"></path>
</svg>
