<?xml version="1.0" encoding="UTF-8"?>
<!DOCTYPE svg PUBLIC "-//W3C//DTD SVG 1.1//EN" "http://www.w3.org/Graphics/SVG/1.1/DTD/svg11.dtd">
<svg version="1.1" xmlns="http://www.w3.org/2000/svg" xmlns:xlink="http://www.w3.org/1999/xlink" x="0" y="0" width="15" height="15" viewBox="0 0 15 15">
<path d="M12.5,11 C12.5,13.5 10.5,15 8,15 C12,11 8,11.5 7,9 C6.5,11 4.5,13 7,15 C5,15 2.5,14 2.5,11 C2.5,9 4.5,7 4.5,3 C5,4.5 6,5.5 6,5.5 C6,2 9.5,0 9.5,0 C9,4 11.5,4.5 11,6.5 C10.5,9 12.5,9.5 12.5,11 z"/>
</svg>
