<?xml version="1.0" encoding="UTF-8"?>
<!DOCTYPE svg PUBLIC "-//W3C//DTD SVG 1.1//EN" "http://www.w3.org/Graphics/SVG/1.1/DTD/svg11.dtd">
<svg version="1.1" xmlns="http://www.w3.org/2000/svg" xmlns:xlink="http://www.w3.org/1999/xlink" x="0" y="0" width="15" height="15" viewBox="0 0 15 15">
<path d="M6,0.5 C6,0.5 6,2 6,2 C6,2 8.5,2 8.5,2 C9,2 9,2.5 9,2.5 L9,12.5 C9,12.5 9,13 8.5,13 C8.5,13 6,13 6,13 L6,14.5 C6,15 3,15 3,14.5 L3,13 C3,13 0.5,13 0.5,13 C0,13 0,12.5 0,12.5 L0,2.5 C0,2.5 0,2 0.5,2 C0.5,2 3,2 3,2 C3,2 3,0.5 3,0.5 C3,0 6,0 6,0.5 z M4.5,4 C2.5,4 1,5.5 1,7.5 C1,9.5 2.5,11 4.5,11 C6.5,11 8,9.5 8,7.5 C8,5.5 6.5,4 4.5,4 z"/>
<path d="M3,9 C3,9 6,9 6,9 C6.5,9 6.5,10 6,10 C6,10 3,10 3,10 C2.5,10 2.5,9 3,9 z M2.5,5.5 C2.25,5.75 3.6,7.1 3.6,7.1 C3.6,7.1 3.5,7.3 3.5,7.5 C3.5,8 3.875,8.5 4.5,8.5 C5.125,8.5 5.5,8 5.5,7.5 C5.5,7 5.125,6.5 4.5,6.5 C4.2,6.5 4.1,6.6 4.1,6.6 C4.1,6.6 2.75,5.25 2.5,5.5 z"/>
<path d="M15,9 C15,10.75 13.5,11.25 12.5,11.25 C14.5,9.25 12.5,9.25 12,8 C11.75,9 11,10.25 12,11.25 C11,11.25 10,10.75 10,9.25 C10,8.25 10.75,6.5 10.75,4.5 C11,5.25 11.75,6 11.75,6 C11.75,4.25 13.25,2.5 13.25,2.5 C13,4.5 14,5.25 13.75,6.25 C13.5,7.5 15,8.25 15,9 z"/>
</svg>
