<?xml version="1.0" encoding="UTF-8"?>
<!DOCTYPE svg PUBLIC "-//W3C//DTD SVG 1.1//EN" "http://www.w3.org/Graphics/SVG/1.1/DTD/svg11.dtd">
<svg version="1.1" xmlns="http://www.w3.org/2000/svg" xmlns:xlink="http://www.w3.org/1999/xlink" x="0" y="0" width="15" height="15" viewBox="0 0 15 15">
<path d="M15,9 C15,10.75 13.5,11.25 12.5,11.25 C14.5,9.25 12.5,9.25 12,8 C11.75,9 11,10.25 12,11.25 C11,11.25 10,10.75 10,9.25 C10,8.25 10.75,6.5 10.75,4.5 C11,5.25 11.75,6 11.75,6 C11.75,4.25 13.25,2.5 13.25,2.5 C13,4.5 14,5.25 13.75,6.25 C13.5,7.5 15,8.25 15,9 z"/>
<path d="M6,0.5 C6,0.5 6,2 6,2 C6,2 8.5,2 8.5,2 C9,2 9,2.5 9,2.5 L9,12.5 C9,12.5 9,13 8.5,13 C8.5,13 6,13 6,13 L6,14.5 C6,15 3,15 3,14.5 L3,13 C3,13 0.5,13 0.5,13 C0,13 0,12.5 0,12.5 L0,2.5 C0,2.5 0,2 0.5,2 C0.5,2 3,2 3,2 C3,2 3,0.5 3,0.5 C3,-0 6,-0 6,0.5 z M8,3.5 C8,3 7.5,3 7.5,3 L1.5,3 C1.5,3 1,3 1,3.5 C1,3.5 1,11.5 1,11.5 C1,12 1.5,12 1.5,12 L7.5,12 C7.5,12 8,12 8,11.5 C8,11.5 8,3.5 8,3.5 z"/>
<path d="M4.5,4.5 C6.25,4.5 7.5,5.75 7.5,7.5 C7.5,9.25 6.25,10.5 4.5,10.5 C2.75,10.5 1.5,9.25 1.5,7.5 C1.5,5.75 2.75,4.5 4.5,4.5 z M4,8.125 C4,8.125 2.75,9 2.75,9 C2.75,9 3.125,9.75 4.5,9.75 C5.875,9.75 6.25,9 6.25,9 C6.25,9 5,8.125 5,8.125 C4.625,8.375 4.375,8.375 4,8.125 z M4.125,5.25 C3.25,5.25 2.25,6.25 2.25,7.5 C2.25,8.125 2.375,8.375 2.375,8.375 C2.375,8.375 3.75,7.5 3.75,7.5 C3.75,7.5 3.625,7 4.125,6.75 C4.125,6.75 4.125,5.25 4.125,5.25 z M4.875,5.25 C4.875,5.25 4.875,6.75 4.875,6.75 C5.375,7 5.25,7.5 5.25,7.5 C5.25,7.5 6.625,8.375 6.625,8.375 C6.625,8.375 6.75,8.125 6.75,7.5 C6.75,6.25 5.75,5.25 4.875,5.25 z"/>
</svg>
