<?xml version="1.0" encoding="UTF-8"?>
<!DOCTYPE svg PUBLIC "-//W3C//DTD SVG 1.1//EN" "http://www.w3.org/Graphics/SVG/1.1/DTD/svg11.dtd">
<svg version="1.1" xmlns="http://www.w3.org/2000/svg" xmlns:xlink="http://www.w3.org/1999/xlink" x="0" y="0" width="15" height="15" viewBox="0 0 15 15">
<path d="M6,0.5 C6,0.5 6,2 6,2 C6,2 8.5,2 8.5,2 C9,2 9,2.5 9,2.5 L9,12.5 C9,12.5 9,13 8.5,13 C8.5,13 6,13 6,13 L6,14.5 C6,15 3,15 3,14.5 L3,13 C3,13 0.5,13 0.5,13 C0,13 0,12.5 0,12.5 L0,2.5 C0,2.5 0,2 0.5,2 C0.5,2 3,2 3,2 C3,2 3,0.5 3,0.5 C3,0 6,0 6,0.5 z M4.5,3.75 C2.25,3.75 0.75,5.25 0.75,7.5 C0.75,9.75 2.25,11.25 4.5,11.25 C6.75,11.25 8.25,9.75 8.25,7.5 C8.25,5.25 6.75,3.75 4.5,3.75 z M2.792,9 C2.35,9 2.391,10 2.792,10 C2.812,10 6.184,10 6.184,10 C6.605,10 6.605,9 6.184,9 C6.184,9 2.812,9 2.792,9 z M2.476,5.5 C2.251,5.75 3.6,7.1 3.6,7.1 C3.6,7.1 3.5,7.3 3.5,7.5 C3.5,8 4,8.5 4.5,8.5 C5,8.5 5.5,8 5.5,7.5 C5.5,7 5,6.5 4.5,6.5 C4.2,6.5 4.1,6.6 4.1,6.6 C4.1,6.6 2.7,5.25 2.476,5.5 z"/>
<path d="M15,8.5 C15,10 13.5,11 12.5,11 C14.5,9 12.5,8.75 12,7.5 C11.75,8.5 11,10 12,11 C11,11 10,10.5 10,9 C10,8 10.75,6.5 10.75,4.5 C11,5.25 11.5,5.75 11.5,5.75 C11.5,4 13.25,2.5 13.25,2.5 C13,4.5 14,5 13.75,6 C13.5,7.25 15,7.75 15,8.5 z"/>
</svg>
