<?xml version="1.0" encoding="UTF-8"?>
<svg width="15px" height="15px" viewBox="0 0 15 15" version="1.1" xmlns="http://www.w3.org/2000/svg" xmlns:xlink="http://www.w3.org/1999/xlink">
    <path d="M2.24828177,10.5462199 C1.94661285,10.6833421 1.59090235,10.5499507 1.45378011,10.2482818 C1.31665788,9.94661285 1.45004932,9.59090235 1.75171823,9.45378011 L12.7517182,4.45378011 C13.0533871,4.31665788 13.4090977,4.45004932 13.5462199,4.75171823 C13.6833421,5.05338715 13.5499507,5.40909765 13.2482818,5.54621989 L2.24828177,10.5462199 Z"></path>
    <path d="M2,5 L2,10 L13,10 L13,5 L2,5 Z M2,4 L13,4 C13.5522847,4 14,4.44771525 14,5 L14,10 C14,10.5522847 13.5522847,11 13,11 L2,11 C1.44771525,11 1,10.5522847 1,10 L1,5 C1,4.44771525 1.44771525,4 2,4 Z"></path>
</svg>
