<?xml version="1.0" encoding="UTF-8"?>
<svg width="15px" height="15px" viewBox="0 0 15 15" version="1.1" xmlns="http://www.w3.org/2000/svg" xmlns:xlink="http://www.w3.org/1999/xlink">
    <path d="M4.5,10.1635811 L4.5,11.4595514 C3.84579098,11.5391458 3.25,11.7057621 3.25,12.0018739 C3.25,12.453281 4.63461538,12.60375 5.5,12.60375 C6.36538462,12.60375 7.75000403,12.4532831 7.75,12.001875 C7.74999736,11.7057661 7.15420812,11.5391501 6.5,11.4595544 L6.5,10.0169113 C6.82421788,10.0057837 7.15777114,10 7.5,10 C12,10 15,11.0000045 15,12.0000036 C15,13.0000027 12,14 7.5,14 C3,14 -1.54673569e-15,12.9999989 -1.77635684e-15,11.9999994 C-1.77635684e-15,11.2436105 1.71637458,10.4872213 4.5,10.1635811 Z M5.5,-5.15143483e-14 C5.77614237,-5.15650749e-14 6,0.223857625 6,0.5 L6,12 L5,12 L5,0.5 C5,0.223857625 5.22385763,-5.14636218e-14 5.5,-5.15143483e-14 Z M6.5,0.5 C7.03331959,1.01196032 7.66968323,1.40491623 8.40909091,1.67886773 C9.14849859,1.95281923 10.8454683,2.14929718 13.5,2.26830159 C11.9784882,3.85370903 10.705761,4.8360988 9.68181818,5.21547091 C8.65787541,5.59484303 7.59726935,5.59484303 6.5,5.21547091 L6.5,0.5 Z"></path>
</svg>
