<?xml version="1.0" encoding="UTF-8"?>
<!DOCTYPE svg PUBLIC "-//W3C//DTD SVG 1.1//EN" "http://www.w3.org/Graphics/SVG/1.1/DTD/svg11.dtd">
<svg version="1.1" xmlns="http://www.w3.org/2000/svg" xmlns:xlink="http://www.w3.org/1999/xlink" x="0" y="0" width="15" height="15" viewBox="0 0 15 15">
<path d="M2.625,13.5 C1.714,13.5 0.975,12.762 0.975,11.85 C0.975,10.939 1.714,10.2 2.625,10.2 C3.536,10.2 4.275,10.939 4.275,11.85 C4.275,12.762 3.536,13.5 2.625,13.5 z"/>
<path d="M10.875,13.5 C9.964,13.5 9.225,12.762 9.225,11.85 C9.225,10.939 9.964,10.2 10.875,10.2 C11.786,10.2 12.525,10.939 12.525,11.85 C12.525,12.762 11.786,13.5 10.875,13.5 z"/>
<path d="M12.525,2 L12.525,6.5 L13.575,6.5 C14.125,6.5 14.5,10.45 14.5,11 C14.5,11.55 14.05,11.5 13.5,11.5 C12.95,11.5 12.525,9.65 10.875,9.65 C9.225,9.65 8.778,12 8,12 C7.45,12 6.05,12 5.5,12 C4.95,12 4.275,9.65 2.625,9.65 C1.525,9.65 1.525,10.2 0.975,10.2 C0.425,10.2 0.5,9.55 0.5,9 C0.5,8.45 0.95,7.5 1.5,7.5 L2.5,7.5 L4,3 L3,3 C2.724,3 2.5,2.776 2.5,2.5 C2.5,2.224 2.724,2 3,2 L12.525,2 z M11.5,3 L5,3 L3.5,7.5 L4.5,7.5 L5.435,6.784 L5.131,6.408 C5.044,6.3 5.042,6.174 5.168,6.056 C5.294,5.938 5.463,6.014 5.519,6.093 C5.575,6.172 6.463,7.259 6.463,7.259 C6.55,7.366 6.534,7.523 6.426,7.61 C6.319,7.697 6.162,7.681 6.075,7.573 L5.718,7.133 L4.922,7.703 C5.485,7.956 5.768,9.185 6,10 C6,10 8,10 8,10 C8,10 9,9 9,9 C9,9 9.575,6.5 10.575,6.5 C11.291,6.5 11.016,6.5 11.5,6.5 L11.5,3 z"/>
</svg>
