<?xml version="1.0" encoding="UTF-8"?>
<svg width="15px" height="15px" viewBox="0 0 15 15" version="1.1" xmlns="http://www.w3.org/2000/svg" xmlns:xlink="http://www.w3.org/1999/xlink">
    <path d="M7,2.8662178 C6.70109931,2.69331309 6.5,2.37014118 6.5,2 L6.5,1.87889111 L1.56201737,2.49613894 C1.2880074,2.53039018 1.03811231,2.33602734 1.00386106,2.06201737 C0.969609815,1.7880074 1.16397266,1.53811231 1.43798263,1.50386106 L6.50836479,0.870063292 C6.5720596,0.379166667 6.99175024,0 7.5,0 C7.92155795,0 8.28219118,0.260849702 8.42929732,0.629946726 L13.4379826,0.00386106164 C13.7119926,-0.0303901845 13.9618877,0.163972663 13.9961389,0.437982633 C14.0303902,0.711992602 13.8360273,0.961887692 13.5620174,0.996138938 L8.5,1.62889111 L8.5,2 C8.5,2.37014118 8.29890069,2.69331309 8,2.8662178 L8,5 L10.1654236,5 C10.6487098,5 11.0628407,5.34562387 11.1492936,5.82111456 L11.9638757,10.3013163 C11.9877179,10.4324486 11.9851058,10.5670239 11.9561928,10.6971322 L11.1740155,14.2169305 C11.0723404,14.674468 10.666527,15 10.1978284,15 L4.80217161,15 C4.33347296,15 3.92765956,14.674468 3.82598455,14.2169305 L3.04380716,10.6971322 C3.01489421,10.5670239 3.01228208,10.4324486 3.03612431,10.3013163 L3.85070644,5.82111456 C3.9371593,5.34562387 4.35129021,5 4.83457635,5 L7,5 L7,2.8662178 L7,2.8662178 Z M4.98288609,6 C4.86319003,6 4.76028823,6.08484146 4.73747059,6.20234254 L4.05780238,9.70234254 C4.05475308,9.71804511 4.05321787,9.7340041 4.05321787,9.75 C4.05321787,9.88807119 4.16514669,10 4.30321787,10 L6.75,10 C6.88807119,10 7,9.88807119 7,9.75 L7,6.25 C7,6.11192881 6.88807119,6 6.75,6 L4.98288609,6 Z M10.0171139,6 L8.25,6 C8.11192881,6 8,6.11192881 8,6.25 L8,9.75 C8,9.88807119 8.11192881,10 8.25,10 L10.6967821,10 C10.8348533,10 10.9467821,9.88807119 10.9467821,9.75 C10.9467821,9.7340041 10.9452469,9.71804511 10.9421976,9.70234254 L10.2625294,6.20234254 C10.2397118,6.08484146 10.13681,6 10.0171139,6 Z"></path>
</svg>
