<?xml version="1.0" encoding="UTF-8"?>
<svg width="15px" height="15px" viewBox="0 0 15 15" version="1.1" xmlns="http://www.w3.org/2000/svg" xmlns:xlink="http://www.w3.org/1999/xlink">
    <path d="M1.07023499,11.2443065 L6.10820103,2.42786598 L1.56201737,2.99613894 C1.2880074,3.03039018 1.03811231,2.83602734 1.00386106,2.56201737 C0.969609815,2.2880074 1.16397266,2.03811231 1.43798263,2.00386106 L6.7283747,1.34256205 L7.06587843,0.751930531 C7.2578255,0.416023156 7.7421745,0.416023156 7.93412157,0.751930531 L8.16874192,1.16251615 L13.4379826,0.503861062 C13.7119926,0.469609815 13.9618877,0.663972663 13.9961389,0.937982633 C14.0303902,1.2119926 13.8360273,1.46188769 13.5620174,1.49613894 L8.70622577,2.10311289 L13.929765,11.2443065 C13.9313901,11.2470321 13.93299,11.2497743 13.9345643,11.2525331 C13.9805885,11.3335212 14.0016077,11.4219217 14,11.5087809 L14,12 L14,13 C14,13.5522847 13.5522847,14 13,14 L2,14 C1.44771525,14 1,13.5522847 1,13 L1,12 L1,11.5087809 C0.998392337,11.4219217 1.01941155,11.3335212 1.06551091,11.2525748 C1.06701004,11.2497743 1.06860992,11.2470321 1.07023499,11.2443065 Z M2,11.6327822 L2,12 L13,12 L13,11.6327822 L7.63125808,2.23748385 L7.34854837,2.27282256 L2,11.6327822 Z M4,9 L7,9 L7,11.5 L4,11.5 L4,9 Z M8,9 L11,9 L11,11.5 L8,11.5 L8,9 Z M6,6 L9,6 L9,8.5 L6,8.5 L6,6 Z"></path>
</svg>
