<?xml version="1.0" encoding="UTF-8"?>
<svg width="15px" height="15px" viewBox="0 0 15 15" version="1.1" xmlns="http://www.w3.org/2000/svg" xmlns:xlink="http://www.w3.org/1999/xlink">
    <path d="M9,1 C8.5,2 8,2.5 7.5,2.5 C7,2.5 6.5,2 6,1 C5,1.33333333 4.5,2 4.5,3 C4.5,4.5 6,5 6,7.5 C6,9.16666667 4.33333333,10.3333333 1,11 C1,11.6666667 1.33333333,12.3333333 2,13 C3,14 4,13 5,13 C6,13 6,14 7.5,14 C9,14 9,13 10,13 C11,13 12,14 13,13 C13.6666667,12.3333333 14,11.6666667 14,11 C10.6666667,10.3333333 9,9.16666667 9,7.5 C9,5 10.5,4.5 10.5,3 C10.5,2 10,1.33333333 9,1 Z"></path>
</svg>
