<?xml version="1.0" encoding="UTF-8"?>
<!DOCTYPE svg PUBLIC "-//W3C//DTD SVG 1.1//EN" "http://www.w3.org/Graphics/SVG/1.1/DTD/svg11.dtd">
<svg version="1.1" xmlns="http://www.w3.org/2000/svg" xmlns:xlink="http://www.w3.org/1999/xlink" x="0" y="0" width="15" height="15" viewBox="0 0 15 15">
<path d="M3,12.75 C3,13.25 3,13.75 3.5,14.25 C3.5,14.75 3,15 2.25,15 C1.5,15 1,14.5 1,13.75 C1,13 1.5,12.5 2.25,12.5 C2.75,12.5 3,12.75 3,12.75 z M4.5,6.25 C4.75,5.75 5,5.5 5.5,5.25 C5.5,4.25 5,3.75 4.25,3.75 C3.5,3.75 3,4.25 3,5 C3,5.25 3,5.75 3.5,6 C4,6 4.25,6 4.5,6.25 z M4.5,11.75 C4,11.75 3.5,12.25 3.5,13 C3.5,13.75 4,14.25 4.75,14.25 C5.5,14.25 6,13.75 6,13.5 C5.5,13 5.5,12.5 5.5,12 C5,12 4.75,12 4.5,11.75 z M3.5,10 C3.5,10 3.25,9.5 2.75,9.5 C2,9.5 1.5,10 1.5,10.75 C1.5,11.5 2,12 2.75,12 C3.5,12 3.75,11.5 3.75,11.25 C3.5,11 3.25,10.75 3.5,10 z M5.25,11.5 C5.75,11.5 5.75,11 6.25,10.75 C6.25,10.75 5.75,10.25 6,9.5 C6,9.5 6,9 5.25,9 C4.5,9 4,9.5 4,10.25 C4,11 4.5,11.5 5.25,11.5 z M7.25,5.5 C8,5.5 8.5,5 8.5,4.25 C8.5,3.5 8,3 7.25,3 C6.5,3 6,3.5 6,4.25 C6,4.75 6.25,5 6.5,5.25 C6.75,5.25 7.25,5.5 7.25,5.5 z M10.25,11.5 C11,11.5 11.5,11 11.5,10.25 C11.5,10 11.5,9.75 11.25,9.5 C10.75,9.5 10.5,9.25 10.25,9 C9.75,9 9.5,9.25 9.5,9.25 C9.75,9.75 9.5,10.25 9.25,10.75 C9.25,11 9.5,11.5 10.25,11.5 z M10.75,6 C11.44,6 12,5.5 12,4.75 C12,4 11.5,3.5 10.75,3.5 C10,3.5 9.5,4 9.5,4.75 C9.5,5.25 9.75,5.5 9.75,5.5 C10,5.6 10.25,5.75 10.437,5.961 C10.5,6 10.65,6 10.75,6 z M11.75,9 C12.5,9 13,8.5 13,7.75 C13,7 12.5,6.5 11.75,6.5 C11.25,6.5 11,6.75 11,6.75 C11,6.75 11.25,7.75 10.75,8.25 C10.75,8.75 11.25,9 11.75,9 z M7.25,13.5 C8,13.5 8.5,13 8.5,12.25 C8.5,12 8.5,11.75 8.25,11.5 C7.5,11.75 7.25,11.5 6.75,11.25 C6.5,11.25 6,11.5 6,12.25 C6,13 6.5,13.5 7.25,13.5 z M9.25,8.5 C10,8.5 10.5,8 10.5,7.25 C10.5,6.5 10,6 9.25,6 C8.5,6 8,6.5 8,7.25 C8,7.75 8.25,8 8.25,8 C8.75,8 9,8.25 9.25,8.5 z M3.25,9 C4,9 4.5,8.5 4.5,7.75 C4.5,7 4,6.5 3.25,6.5 C2.5,6.5 2,7 2,7.75 C2,8.5 2.5,9 3.25,9 z M6.25,8.25 C7,8.25 7.5,7.75 7.5,7 C7.5,6.25 7,5.75 6.25,5.75 C5.5,5.75 5,6.25 5,7 C5,7.75 5.5,8.25 6.25,8.25 z M7.75,11 C8.5,11 9,10.5 9,9.75 C9,9 8.5,8.5 7.75,8.5 C7,8.5 6.5,9 6.5,9.75 C6.5,10.5 7,11 7.75,11 z M13.25,0.25 C12.25,0.25 10.5,1.5 9.25,2.75 C8.75,3.25 9.25,3.75 9.75,3.25 C11.25,1.75 12,1.25 13.5,0.75 C14,0.5 14,0.25 13.25,0.25 z"/>
</svg>
