<?xml version="1.0" encoding="UTF-8"?>
<svg version="1.2" baseProfile="tiny" xmlns="http://www.w3.org/2000/svg" viewBox="0 0 50 50" overflow="inherit">
  <path d="M17.96 44.87c0.37 0.4 0.35 1.04 -0.05 1.42l-2.17 2.03c-0.4 0.38 -1.04 0.35 -1.41 -0.05l-12.65 -13.63c-0.37 -0.4 -0.35 -1.04 0.05 -1.42l2.17 -2.03c0.4 -0.38 1.04 -0.35 1.41 0.05l12.65 13.63zm16.14 -25.65c0.37 0.4 0.35 1.04 -0.05 1.42l-13.67 12.77c-0.4 0.38 -1.04 0.35 -1.41 -0.05l-3.26 -3.52c-0.37 -0.4 -0.35 -1.04 0.05 -1.42l13.67 -12.77c0.4 -0.37 1.04 -0.35 1.41 0.05l3.27 3.52zm-11.49 21.3c0.37 0.4 0.35 1.04 -0.05 1.42l-2.17 2.03c-0.4 0.38 -1.04 0.35 -1.41 -0.05l-12.64 -13.63c-0.37 -0.4 -0.35 -1.04 0.05 -1.42l2.17 -2.03c0.4 -0.37 1.04 -0.35 1.41 0.05l12.65 13.63zm21.06 -20.81c0.37 0.4 0.35 1.04 -0.05 1.42l-2.17 2.03c-0.4 0.38 -1.04 0.35 -1.41 -0.05l-12.64 -13.63c-0.37 -0.4 -0.35 -1.04 0.05 -1.42l2.18 -2.03c0.4 -0.37 1.04 -0.35 1.41 0.05l12.64 13.63zm4.64 -4.34c0.37 0.4 0.35 1.04 -0.05 1.42l-2.17 2.03c-0.4 0.38 -1.04 0.35 -1.41 -0.05l-12.64 -13.63c-0.37 -0.4 -0.35 -1.04 0.05 -1.42l2.17 -2.03c0.4 -0.38 1.03 -0.35 1.41 0.05l12.64 13.64z"/>
</svg>