<?xml version="1.0" encoding="UTF-8"?>
<svg viewBox="0 0 15 15" version="1.1" xmlns="http://www.w3.org/2000/svg" xmlns:xlink="http://www.w3.org/1999/xlink">
  <path d="M7.86237045,10.1650024 L12.6255102,7.41500239 L14.875657,11.312371 C14.9983236,11.5248359 14.9471921,11.7899328 14.7665025,11.9431069 L14.6613363,12.0131203 L14.6613363,12.0131203 L14.2594848,12.2451294 L14.2594848,12.2451294 C13.9708096,12.4117961 13.5495221,12.2175714 13.3007388,12.0695697 L13.1746102,11.9895724 L13.1746102,11.9895724 L13.0950815,11.9331238 L13.0950815,11.9331238 C12.9982645,11.9071818 12.8966764,11.9108885 12.803122,11.9425445 L12.7127199,11.983454 L11.1614086,12.879104 L11.9114086,14.1781421 C11.9619155,14.3180227 11.9697947,14.4746698 11.9099415,14.6210011 C11.807145,14.8780123 11.5285488,15.0156955 11.2632629,14.9530673 L11.1755867,14.9246613 L7.87708765,13.5600933 C7.33222423,13.4685622 6.74022556,13.3933904 6.26429423,13.3970532 C6.09809037,13.3983235 5.89393617,13.4256357 5.66350757,13.4683521 L5.29961835,13.5426501 L5.29961835,13.5426501 L4.27493709,13.777127 L4.27493709,13.777127 L3.84206831,13.8694672 C2.756241,14.0876468 1.67036404,14.1858606 1.20016094,13.6031304 L1.11717992,13.4819897 L0.867179917,13.048977 L4.33128153,11.048977 L4.33128153,11.048977 C4.84824568,10.7505076 5.30724182,10.6683777 5.75440777,10.6303988 L6.42205126,10.5850199 C6.79444308,10.5542906 7.17463955,10.494434 7.58934078,10.3058038 L7.86237045,10.1650024 Z M11.3237606,5.1764278 L11.375707,5.25027976 L12.125507,6.54897145 L7.79537995,9.04897145 C7.19387335,9.39625145 6.6539539,9.49077954 6.16610979,9.53255436 L5.80984221,9.55711921 C5.34135918,9.58480779 4.92832427,9.60992284 4.46583459,9.82739729 L4.26429104,9.93294605 L0.367176722,12.182946 L0.117176722,11.7499333 C-0.00566772292,11.5371605 0.0453491899,11.2721812 0.226319675,11.1188615 L0.300189423,11.0669206 L3.76429104,9.06692064 C4.36579764,8.71964064 4.90543996,8.62527256 5.39339492,8.58343374 L5.74982878,8.55877288 C6.2186907,8.53086555 6.63144144,8.50591457 7.09385417,8.28848455 L7.29537995,8.18294605 L7.04557995,7.75027976 C6.92277995,7.53758392 6.97387798,7.27211299 7.15480512,7.11871816 L7.22865246,7.06677064 L10.6921479,5.06712064 C10.8783241,4.95963176 11.1048317,4.98539643 11.2613085,5.11473986 L11.3237606,5.1764278 Z M4,0 L3.70710678,0.292893219 C3.2996292,0.7003708 3.05285477,1.23851094 3.00757466,1.80883505 L3,2 L4,2 L4,4 L3,6 L3.75,6 C3.88807119,6 4,6.11192881 4,6.25 L4,6.75 C4,6.88807119 3.88807119,7 3.75,7 L1.25,7 C1.11192881,7 1,6.88807119 1,6.75 L1,6.25 C1,6.11192881 1.11192881,6 1.25,6 L2,6 L1,4 L1,3 C1,1.40231912 2.24891996,0.0963391206 3.82372721,0.00509269341 L4,0 Z M13.5,2 C14.0522847,2 14.5,2.44771525 14.5,3 C14.5,3.55228475 14.0522847,4 13.5,4 L4.5,4 L4.5,2 L13.5,2 Z"/>
</svg>