<?xml version="1.0" encoding="UTF-8"?>
<!DOCTYPE svg PUBLIC "-//W3C//DTD SVG 1.1//EN" "http://www.w3.org/Graphics/SVG/1.1/DTD/svg11.dtd">
<svg version="1.1" xmlns="http://www.w3.org/2000/svg" xmlns:xlink="http://www.w3.org/1999/xlink" x="0" y="0" width="15" height="15" viewBox="0 0 15 15">
<path d="M14.5,6.5 C14.5,9 14,11 12.5,11 C12.5,11 2.5,11 2.5,11 C1,11 0.5,9 0.5,6.5 C6.5,9.5 8.5,9.5 14.5,6.5 z M7.5,5.5 C7.875,5.5 8.25,5.875 8.25,6.25 C8.25,6.625 7.875,7 7.5,7 C7.125,7 6.75,6.625 6.75,6.25 C6.75,5.875 7.125,5.5 7.5,5.5 z M13,4.5 L2,4.5 C1,4.5 0.5,5 0.5,6 C6.5,9 8.5,9 14.5,6 C14.5,5 14,4.5 13,4.5 z"/>
</svg>
