<?xml version="1.0" encoding="UTF-8"?>
<svg width="15px" height="15px" viewBox="0 0 15 15" version="1.1" xmlns="http://www.w3.org/2000/svg" xmlns:xlink="http://www.w3.org/1999/xlink">
    <path d="M13,13 L13,7.5 C13,7.22385763 12.7761424,7 12.5,7 L2.5,7 C2.22385763,7 2,7.22385763 2,7.5 L2,13 L-3.10862447e-14,13 L-6.67551279e-06,9.50000668 C-6.67551279e-06,5.35786736 3.35786069,2 7.5,2 C11.6421393,2 15.0000067,5.35786736 15.0000067,9.50000668 L15,13 L13,13 Z M3.5,5 C3.22385763,5 3,5.22385763 3,5.5 C3,5.77614237 3.22385763,6 3.5,6 L6.5,6 C6.77614237,6 7,5.77614237 7,5.5 C7,5.22385763 6.77614237,5 6.5,5 L3.5,5 Z M8.5,5 C8.22385763,5 8,5.22385763 8,5.5 C8,5.77614237 8.22385763,6 8.5,6 L11.5,6 C11.7761424,6 12,5.77614237 12,5.5 C12,5.22385763 11.7761424,5 11.5,5 L8.5,5 Z M3,12 L7,12 L7,13 L3,13 L3,12 Z M3,10 L7,10 L7,11 L3,11 L3,10 Z M3,8 L7,8 L7,9 L3,9 L3,8 Z M8,8 L12,8 L12,9 L8,9 L8,8 Z M8,10 L12,10 L12,11 L8,11 L8,10 Z M8,12 L12,12 L12,13 L8,13 L8,12 Z"></path>
</svg>
