<?xml version="1.0" encoding="UTF-8"?>
<svg width="15px" height="15px" viewBox="0 0 15 15" version="1.1" xmlns="http://www.w3.org/2000/svg" xmlns:xlink="http://www.w3.org/1999/xlink">
    <path d="M4.00540406,4 L10.9945959,4 L10.9945959,2 L9.5,2 L9.5,1 L11.2792408,1 C11.7096712,1 12.09181,1.27543009 12.2279241,1.68377223 L12.9486833,3.84604989 C12.9826721,3.94801636 13,4.05479556 13,4.16227766 L13,13 C13,14.1045695 12.1045695,15 11,15 L4,15 C2.8954305,15 2,14.1045695 2,13 L2,4.16227766 C2,4.05479556 2.01732788,3.94801636 2.0513167,3.84604989 L2.77207592,1.68377223 C2.90818997,1.27543009 3.29032881,1 3.72075922,1 L5.5,1 L5.5,2 L4.00540406,2 L4.00540406,4 Z M2.99586097,7.50246795 L3.01066887,10.502468 C3.01202713,10.7776437 3.23548371,11 3.51066278,11 L6.50734165,11 C6.78348403,11 7.00734165,10.7761424 7.00734165,10.5 C7.00734165,10.4991773 7.00733962,10.4983547 7.00733556,10.497532 L6.99252766,7.49753205 C6.9911694,7.22235633 6.76771281,7 6.49253375,7 L3.49585488,7 C3.2197125,7 2.99585488,7.22385763 2.99585488,7.5 C2.99585488,7.50082266 2.99585691,7.50164531 2.99586097,7.50246795 Z M9,13 C9,13.5522847 9.44771525,14 10,14 C10.5522847,14 11,13.5522847 11,13 C11,12.4477153 10.5522847,12 10,12 C9.44771525,12 9,12.4477153 9,13 Z M6,13 C6,12.4477153 5.55228475,12 5,12 C4.44771525,12 4,12.4477153 4,13 C4,13.5522847 4.44771525,14 5,14 C5.55228475,14 6,13.5522847 6,13 Z M5.00406592,5.5 L5.00437038,5.51233616 C5.01106488,5.7835901 5.23288164,6 5.50421817,6 L9.51211741,6 C9.78161075,6 10.0000783,5.78153248 10.0000783,5.51203913 C10.0000783,5.50802563 10.0000288,5.50401228 9.99992974,5.5 L9.99962528,5.48766384 C9.99293078,5.2164099 9.77111402,5 9.49977749,5 L5.49187825,5 C5.22238491,5 5.00391738,5.21846752 5.00391738,5.48796087 C5.00391738,5.49197437 5.0039669,5.49598772 5.00406592,5.5 Z M7.99586097,7.50246795 L8.01066887,10.502468 C8.01202713,10.7776437 8.23548371,11 8.51066278,11 L11.5073417,11 C11.783484,11 12.0073417,10.7761424 12.0073417,10.5 C12.0073417,10.4991773 12.0073396,10.4983547 12.0073356,10.497532 L11.9925277,7.49753205 C11.9911694,7.22235633 11.7677128,7 11.4925337,7 L8.49585488,7 C8.2197125,7 7.99585488,7.22385763 7.99585488,7.5 C7.99585488,7.50082266 7.99585691,7.50164531 7.99586097,7.50246795 Z M5.99751577,0.502467954 C5.99751171,0.501645309 5.99750968,0.500822655 5.99750968,0.5 C5.99750968,0.223857625 6.2213673,3.71446251e-15 6.49750968,3.66373598e-15 L8.49501578,3.55271368e-15 C8.77019485,3.5021641e-15 8.99365143,0.222356331 8.99500969,0.497532046 L9.00488163,2.49753205 C9.00488569,2.49835469 9.00488772,2.49917734 9.00488772,2.5 C9.00488772,2.77614237 8.78103009,3 8.50488772,3 L6.50738161,3 C6.23220255,3 6.00874596,2.77764367 6.0073877,2.50246795 L5.99751577,0.502467954 Z"></path>
</svg>
