<?xml version="1.0" encoding="UTF-8"?>
<svg version="1.2" baseProfile="tiny" xmlns="http://www.w3.org/2000/svg" viewBox="0 0 50 50" overflow="inherit">
  <path d="M28.85 28.73c1.3 0.44 2.71 -0.22 3.16 -1.49c0.45 -1.26 -0.24 -2.64 -1.53 -3.08c-1.3 -0.44 -2.71 0.23 -3.16 1.5c-0.44 1.26 0.24 2.64 1.54 3.07zm20.35 -15.75s-8.4 -0.98 -25.83 -0.98c-12.86 0 -23.37 0.98 -23.37 0.98s4.36 1.87 3.6 7.66c0 0 6.25 -0.73 8.87 4.49l11.74 -3.47l-0.77 7.63l-4.97 1.19c-0.44 0.1 -0.81 0.31 -1.12 0.57l-10.9 10.25c-0.64 0.59 -0.65 1.59 -0.03 2.21c0.61 0.63 1.64 0.65 2.27 0.06l8.2 -7.69l10.05 -2.4l-0.07 0.02l1.67 -0.42l1.54 1.71c0.24 0.25 0.57 0.41 0.94 0.41l5.41 0.02c0.68 0 1.24 -0.54 1.24 -1.21c0 -0.58 -0.42 -1.03 -0.97 -1.17l-4.03 -13.66l16.78 -4.95c0.8 -0.34 0.73 -1.14 -0.25 -1.24zm-13.71 19.8c-1.23 0 -3.28 -0.01 -3.9 -0.01l-2.91 -3.21l-0.12 -0.09c-0.59 -0.67 -1.52 -1.02 -2.46 -0.8l-1.46 0.35l0.78 -7.71l6.15 -1.81l3.93 13.28z"/>
</svg>