<?xml version="1.0" encoding="UTF-8"?>
<!DOCTYPE svg PUBLIC "-//W3C//DTD SVG 1.1//EN" "http://www.w3.org/Graphics/SVG/1.1/DTD/svg11.dtd">
<svg version="1.1" xmlns="http://www.w3.org/2000/svg" xmlns:xlink="http://www.w3.org/1999/xlink" x="0" y="0" width="15" height="15" viewBox="0 0 15 15">
<path d="M0,6.5 C0,8 1,9.5 2,9.5 C3.5,9.5 4,9.5 4,8.5 C4,7.5 2.5,7.5 2.5,6 C2.5,5 2.5,4 1,4 C0.5,4 0,5 0,6.5 z M5.5,8.5 C5.5,9 5,9.5 4.5,9.5 C4,9.5 4,9.5 4,9 C4,8 3.5,7.5 4.5,7.5 C5,7.5 5.5,8 5.5,8.5 z"/>
<path d="M9,0 C13,0 15,2 15,5 C15,7.5 13,8.5 12.5,11 C12,12.5 11,15 9,15 C7,15 6.5,13.5 5.5,12 C4.5,10.5 5.5,10 6,10.5 C6.5,11 7.5,14 9,14 C10,14 11,12 11.5,10.5 C12,8 14,7 14,5 C14,2.5 12.5,1 9,1 C6.5,1 5.5,2.5 5.5,4 C5.5,5 4.5,5 4.5,4 C4.5,1.5 6,0 9,0 z M9.5,2.5 C7.5,2.5 6.5,3.5 6.5,5 C6.5,6 6.5,7 7,7.5 C7.5,8 8,8.5 7.5,9 C7,9.5 8,10.5 9,9 C9.5,8 9,7.5 8.5,7 C8,6.5 7.5,6 7.5,5 C7.5,4.5 8,3 9.5,3 C10.5,3 12,3.5 12,5 C12,6.5 11,7.5 11.5,7.5 C12,7.5 12.5,6 12.5,5 C12.5,3 10.5,2.5 9.5,2.5 z"/>
</svg>
