<?xml version="1.0" encoding="UTF-8"?>
<!DOCTYPE svg PUBLIC "-//W3C//DTD SVG 1.1//EN" "http://www.w3.org/Graphics/SVG/1.1/DTD/svg11.dtd">
<svg version="1.1" xmlns="http://www.w3.org/2000/svg" xmlns:xlink="http://www.w3.org/1999/xlink" x="0" y="0" width="15" height="15" viewBox="0 0 15 15">
<path d="M9.5,1 C12.5,1 15,4.5 14,6.5 C13,8.5 12.5,9 12.5,10.5 C12.5,12 11,14 9.5,14 C8,14 7.5,13 6.5,11.5 C5.716,10.323 6.5,10 7,10.5 C7.5,11 8,13 9.5,13 C10.5,13 11.5,11.5 11.5,10.5 C11.5,9 12,8 13,6.5 C14,5 12,2 9.5,2 C7.5,2 6.5,3 6.5,4.5 C6.5,5.5 5.5,5.5 5.5,4.5 C5.5,2.5 7,1 9.5,1 z M9.5,3 C8,3 7,4 7,5.5 C7,6.5 7,7 7.5,7.5 C8,8 8.5,8.5 8,9 C7.5,9.5 8.5,10.5 9.5,9 C10,8 9.5,7.5 9,7 C8.5,6.5 8,6 8,5.5 C8,5 8,3.5 9.5,3.5 C11,3.5 12.408,5.372 11.3,6.85 C11.217,6.96 11.24,7.117 11.35,7.2 C11.46,7.283 11.617,7.26 11.7,7.15 C13.092,5.294 11,3 9.5,3 z"/>
<path d="M1,7 C1,8 2,9.5 2.5,9.5 C3,9.5 4,9.5 4,8.5 C4,7.891 3,7.5 3,6.5 C3,5.812 3,5 2,5 C1.5,5 1,6 1,7 z M5,8 C5,8 5,9 4.5,9 C4,9 4,8.5 4,8.5 C4,8.25 3.5,7.5 4.5,7.5 C5,7.5 5,8 5,8 z"/>
</svg>
