<?xml version="1.0" encoding="UTF-8"?>
<svg width="15px" height="15px" viewBox="0 0 15 15" version="1.1" xmlns="http://www.w3.org/2000/svg" xmlns:xlink="http://www.w3.org/1999/xlink">
    <path d="M10,11.5714286 L7.5,9.42857143 L5,11.5714286 L5,13 L4,13 L4,11.5714286 L1.02310455,9.0198039 L0.75,9.0198039 C0.335786438,9.0198039 -1.21525615e-11,8.68401747 -1.21526122e-11,8.2698039 L-1.12621024e-12,2.67128209 C-4.62505653e-13,2.28912018 0.287351846,1.96807202 0.667176355,1.92586929 L2.25,1.75 C3.74885144,1.58346095 5.25577105,1.5 6.76384628,1.5 L7.5,1.5 L8.23615372,1.5 C9.74422895,1.5 11.2511486,1.58346095 12.75,1.75 L14.3328236,1.92586929 C14.7126482,1.96807202 15,2.28912018 15,2.67128209 L15,8.2698039 C15,8.68401747 14.6642136,9.0198039 14.25,9.0198039 L13.9768954,9.0198039 L11,11.5714286 L11,13 L10,13 L10,11.5714286 Z M11,10.3125 L12.5,9 L8.5,9 L10,10.3125 L10,9 L11,9 L11,10.3125 Z M5,10.3125 L6.5,9 L2.5,9 L4,10.3125 L4,9 L5,9 L5,10.3125 Z"></path>
</svg>
