<?xml version="1.0" encoding="UTF-8"?>
<svg width="15px" height="15px" viewBox="0 0 15 15" version="1.1" xmlns="http://www.w3.org/2000/svg" xmlns:xlink="http://www.w3.org/1999/xlink">
    <path d="M2.125,3.125 L2.125,14.125 L0.875,14.125 L0.875,1.5 C0.875,1.15482203 1.15482203,0.875 1.5,0.875 C1.84517797,0.875 2.125,1.15482203 2.125,1.5 L2.125,1.875 L12.875,1.875 L12.875,1.5 C12.875,1.15482203 13.154822,0.875 13.5,0.875 C13.845178,0.875 14.125,1.15482203 14.125,1.5 L14.125,14.125 L12.875,14.125 L12.875,3.125 L11,3.125 L11,4 L10.6464466,4 L8.64644661,6 L6.85355339,6 L8.85355339,4 L10,4 L10,3.125 L5,3.125 L5,4 L5.64644661,4 L3.64644661,6 L3.5,6 C3.22385763,6 3,5.77614237 3,5.5 L3,4.5 C3,4.22385763 3.22385763,4 3.5,4 L4,4 L4,3.125 L2.125,3.125 Z M8.14644661,4 L6.14644661,6 L4.35355339,6 L6.35355339,4 L8.14644661,4 Z M11.3535534,4 L11.5,4 C11.7761424,4 12,4.22385763 12,4.5 L12,5.5 C12,5.77614237 11.7761424,6 11.5,6 L9.35355339,6 L11.3535534,4 L11.3535534,4 Z"></path>
</svg>
