<?xml version="1.0" encoding="UTF-8"?>
<!DOCTYPE svg PUBLIC "-//W3C//DTD SVG 1.1//EN" "http://www.w3.org/Graphics/SVG/1.1/DTD/svg11.dtd">
<svg version="1.1" xmlns="http://www.w3.org/2000/svg" xmlns:xlink="http://www.w3.org/1999/xlink" x="0" y="0" width="15" height="15" viewBox="0 0 15 15">
    <path d="M6.421,2.083 C6.421,2.083 8.132,5.139 10.702,2.625 C11.056,3.167 11.772,4.25 11.772,4.25 C11.772,4.25 8.087,6.802 6.421,2.083 z M1.07,4.25 C1.379,4.91 1.777,5.72 2.14,6.417 C2.68,5.333 4.281,5.333 4.281,5.333 C5.351,5.333 6.136,5.758 6.136,6.446 C6.136,7.134 5.351,7.5 4.281,7.5 C4.281,7.5 4.281,8.583 4.281,9.125 C5.684,8.856 6.424,9.98 6.081,10.758 C5.431,12.23 1.61,12.404 0,9.667 C0,13.987 3.683,14 4.281,14 C6.421,14 7.492,11.833 7.492,9.667 C8.049,10.255 8.942,10.258 9.632,9.667 C10.6,8.838 10.979,7.489 12.308,7.5 C13.928,7.513 13.913,10.75 12.843,11.833 C11.772,12.917 9.21,12.532 8.562,10.75 C8.562,11.833 8.562,14.001 11.772,14 C14.983,13.998 15.634,10.334 14.448,7.5 C13.715,5.748 12.343,5.279 10.863,5.743 C9.72,6.102 9.772,6.615 9.097,7.5 C8.744,7.929 8.562,8.583 7.492,8.583 C7.12,8.583 6.666,8.286 6.421,8.042 C7.746,7.083 7.551,5.239 6.421,4.25 C4.936,2.95 2.312,3.216 1.07,4.25 z M7.492,2.083 L8.562,1 L9.632,2.083 L8.562,3.167 z"/>
</svg>
