<?xml version="1.0" encoding="UTF-8"?>
<svg viewBox="0 0 15 15" version="1.1" xmlns="http://www.w3.org/2000/svg" xmlns:xlink="http://www.w3.org/1999/xlink">
  <path d="M14,15 L13,15 L13,2 L11.75,2 L11.75,5 C11.75,5.21494134 11.6579239,5.41769307 11.5002223,5.55883167 L11.4160251,5.62403772 L9,7.235 L9,10.585 L10.7071068,12.2928932 C11.0675907,12.6533772 11.0953203,13.2206082 10.7902954,13.6128994 L10.7071068,13.7071068 C10.3466228,14.0675907 9.77939176,14.0953203 9.38710056,13.7902954 L9.29289322,13.7071068 L7.29289322,11.7071068 C7.1366129,11.5508265 7.03740171,11.3481451 7.00867243,11.131444 L7,11 L6.999,10.415 L6.21802755,11.197 L6.89445474,12.5527864 L6.94059183,12.6601042 C7.11134176,13.1307708 6.90593546,13.66508 6.44724114,13.8944272 C5.98854682,14.1237744 5.43785568,13.9675139 5.16377238,13.548514 L5.10560036,13.4472136 L4.10560036,11.4472136 L4.05585148,11.3295581 C3.94441548,11.0106947 4.00196797,10.6560403 4.20851891,10.388779 L4.29292077,10.2928932 L6,8.584 L6,7.235 L3.58389515,5.62403772 L3.49969802,5.55883167 C3.36828003,5.44121617 3.28243527,5.28081377 3.25747085,5.10622606 L3.24992029,5 L3.249,2 L2,2 L2,15 L1,15 L1,0.5 C1,0.223857625 1.22385763,0 1.5,0 C1.77614237,0 2,0.223857625 2,0.5 L2,1 L3.24992029,1 L3.25676691,0.898229443 C3.30191457,0.565433478 3.56535377,0.301994273 3.89814974,0.256846616 L3.99992029,0.25 L4.10169085,0.256846616 C4.43448682,0.301994273 4.69792602,0.565433478 4.74307368,0.898229443 L4.749,1 L10.25,1 C10.25,0.620304234 10.5321539,0.306509039 10.8982294,0.256846616 L11,0.25 C11.3796958,0.25 11.693491,0.532153882 11.7431534,0.898229443 L11.75,1 L13,1 L13,0.5 C13,0.223857625 13.2238576,0 13.5,0 C13.7761424,0 14,0.223857625 14,0.5 L14,15 Z M10.25,2 L4.749,2 L4.74992029,4.597 L6.853,6 L8.145,6 L10.25,4.597 L10.25,2 Z M7.5,2.5 C8.32842712,2.5 9,3.17157288 9,4 C9,4.82842712 8.32842712,5.5 7.5,5.5 C6.67157288,5.5 6,4.82842712 6,4 C6,3.17157288 6.67157288,2.5 7.5,2.5 Z"/>
</svg>