<?xml version="1.0" encoding="UTF-8"?>
<svg viewBox="0 0 15 15" version="1.1" xmlns="http://www.w3.org/2000/svg" xmlns:xlink="http://www.w3.org/1999/xlink">
  <path d="M0.93077828,3.31922172 C1.01774545,3.31922172 1.10428349,3.33141008 1.18787251,3.35541349 C3.84301222,4.11847116 5.94705471,4.5 7.5,4.5 C9.05294529,4.5 11.1569878,4.11847116 13.8121275,3.35541349 C14.3061893,3.21344476 14.8218041,3.49885413 14.9637905,3.99291085 C14.9878116,4.07649479 15,4.16303283 15,4.25 C15,5.07746642 14.5292324,5.83285244 13.7863842,6.19737557 C13.0333916,6.56685747 12.2214482,6.85773832 11.3505541,7.0700181 L11.889,9.4999714 L12.7792408,9.5 C13.2096712,9.5 13.59181,9.77543009 13.7279241,10.1837722 L13.8903144,10.6709431 C13.9339763,10.8019289 13.8631863,10.9435089 13.7322005,10.9871708 C13.7067089,10.995668 13.6800141,11 13.6531435,11 L1.34685647,11 C1.20878528,11 1.09685647,10.8880712 1.09685647,10.75 C1.09685647,10.7231295 1.10118844,10.6964347 1.10968565,10.6709431 L1.27207592,10.1837722 C1.40818997,9.77543009 1.79032881,9.5 2.22075922,9.5 L3.111,9.4999714 L3.65044204,7.07026086 C2.77917089,6.8579601 1.96689548,6.56699833 1.21361583,6.19737557 C0.470767554,5.83285244 0,5.07746642 0,4.25 C0,3.73594535 0.416723631,3.31922172 0.93077828,3.31922172 Z M9.00123161,7.44102584 C8.51556461,7.48034195 8.01515408,7.5 7.5,7.5 C6.98520145,7.5 6.48512609,7.48036907 5.99977394,7.44110721 L6,9.4999714 L9,9.4999714 L9.00123161,7.44102584 Z M5,5 C4.44771525,5 4,5.22385763 4,5.5 C4,5.77614237 4.44771525,6 5,6 C5.55228475,6 6,5.77614237 6,5.5 C6,5.22385763 5.55228475,5 5,5 Z M10,5 C9.44771525,5 9,5.22385763 9,5.5 C9,5.77614237 9.44771525,6 10,6 C10.5522847,6 11,5.77614237 11,5.5 C11,5.22385763 10.5522847,5 10,5 Z" id="Shape" fill="#000000"/>
</svg>