<?xml version="1.0" encoding="UTF-8"?>
<svg width="15px" height="15px" viewBox="0 0 15 15" version="1.1" xmlns="http://www.w3.org/2000/svg" xmlns:xlink="http://www.w3.org/1999/xlink">
    <path d="M12,6 C13.3325991,7.4078518 13.9992658,8.14736526 14,8.21854036 C13.9961832,8.30801629 13.9562724,8.95758657 13.889378,9.01713196 C13.8447818,9.0568289 13.3326558,9.01245157 12.353,8.884 C12.3088968,8.91400126 11.072671,8.8200443 11,8.5 C10.9950249,10.1136356 10.9950249,10.946969 11,11 L11.5,12 L11.5,14 L10,14 L10,12 C9.66666667,11.3333333 9.16666667,11 8.5,11 C7.5,11 6.98633155,11.890031 7,12 L7,14 L5.5,14 L5.5,12 L6,11.014 L6,9 L4.5,12 C4.49520146,12.1350463 4.53665263,9.51447138 4.5,9.5 C4.5,8.01713196 5.23074385,8 5.5,8 C5.76925615,8 6,8 6.2,8.446 C6.37890739,8.17677034 6.6769218,8.01062731 7,8 L9,8.01713196 L12,5 L12,6 Z M4,7 L4,14 L2,14 L2,7.78 L1,8.16 L1,6 L14,1 L14,3.14 L4,7 Z"></path>
</svg>
