<?xml version="1.0" encoding="UTF-8"?>
<svg viewBox="0 0 15 15" version="1.1" xmlns="http://www.w3.org/2000/svg" xmlns:xlink="http://www.w3.org/1999/xlink">
  <path d="M12,6 L12.8852524,6.88525237 C12.9612537,6.96125368 13.0245053,7.04901064 13.0725728,7.14514555 L14,9 L14,9.19098301 C14,9.26860555 13.9819275,9.34516209 13.9472136,9.4145898 C13.823719,9.66157905 13.5233825,9.76169123 13.2763932,9.6381966 L12,9 C11.9558968,9.03000126 11.072671,8.8200443 11,8.5 C10.9950249,10.1136356 10.9950249,10.946969 11,11 L11.5,12 L11.5,14 L10,14 L10,12 C9.66666667,11.3333333 9.16666667,11 8.5,11 C7.5,11 6.98633155,11.890031 7,12 L7,14 L5.5,14 L5.5,12 L6,11.014 L6,9.01713196 L4.00039288,12 C3.99761025,12.078312 3.99724805,11.0840095 3.99927758,9.0170923 C3.99982905,8.46328988 4.44641407,8.0133106 5.00019644,8.00856598 L5.23079214,8.00659239 C5.5624168,8.00375114 5.86430303,8.19739577 6,8.5 C6.17890739,8.23077034 6.6769218,8.01062731 7,8 L8.99899407,8 L12,5 L12,6 Z M3,7 L3,14 L1,14 L1,7.78 L-5.32907052e-15,8.16 L-5.32907052e-15,6 L14,1 L14,3.14 L3,7 Z"/>
</svg>