<?xml version="1.0" encoding="UTF-8"?>
<svg width="15px" height="15px" viewBox="0 0 15 15" version="1.1" xmlns="http://www.w3.org/2000/svg" xmlns:xlink="http://www.w3.org/1999/xlink">
    <path d="M2,1 L4.2,1 C5.3,1 5.3,2.08333333 5.3,3.16666667 C5.3,6.46485761 2.07152475,11.8333333 7.5,11.8333333 C12.9374242,11.8333333 9.7,6.45512245 9.7,3.16666667 C9.7,2.08333333 9.7,1 10.8,1 L13,1 L13,2.08333333 C13,2.80555556 12.6666667,3.11111111 12,3 C11.9509264,3.4759243 11.9509264,3.80925763 12,4 C12.5087962,5.97762088 13,7.77384515 13,9.66666667 C13,12.9166667 10.2814604,14 7.5,14 C4.71853964,14 2,12.9166667 2,9.66666667 C2,7.88958928 2.55152605,5.85182305 3,4 C3.06554606,3.72934947 3.06554606,3.39601614 3,3 C2.33333333,3.11111111 2,2.80555556 2,2.08333333 L2,1 Z"></path>
    <path d="M7.5,5 C8.05228475,5 8.55228475,4.83333333 9,4.5 L8,11 L7,11 L6,4.5 C6.44771525,4.83333333 6.94771525,5 7.5,5 Z"></path>
    <path d="M7.5,4.5 C8.32842712,4.5 9,4.05228475 9,3.5 C9,2.94771525 8.25,2.5 7.5,2.5 C6.75,2.5 6,2.94771525 6,3.5 C6,4.05228475 6.67157288,4.5 7.5,4.5 Z"></path>
</svg>
