<?xml version="1.0" encoding="UTF-8"?>
<svg viewBox="0 0 15 15" version="1.1" xmlns="http://www.w3.org/2000/svg" xmlns:xlink="http://www.w3.org/1999/xlink">
  <path d="M3,2 L4,0 L11,0 L12,2 L12.5,2 C12.7761424,2 13,2.22385763 13,2.5 L13,3.5 C13,3.77614237 12.7761424,4 12.5,4 L12,4 L11,15 L4,15 L3,4 L2.5,4 C2.22385763,4 2,3.77614237 2,3.5 L2,2.5 C2,2.22385763 2.22385763,2 2.5,2 L3,2 L3,2 Z M10.8174258,6 L11,4 L4.00412373,4 L4.18594191,6 L10.8174258,6 L10.8174258,6 Z M10.2697033,12 L4.73139646,12 L4.91321464,14 L10.0871291,14 L10.2697033,12 L10.2697033,12 Z"/>
</svg>