<?xml version="1.0" encoding="UTF-8"?>
<svg xmlns="http://www.w3.org/2000/svg" viewBox="0 0 100 100">
	<path d="M 39 1.5 L 61 1.5 C 62.65 1.5 62.84 2.6 63.2 3.7 L 66.5 18 C 66.9 19.55 66.5 20.2 65.4 20.2 L 34.6 20.2 C 33.5 20.2 33 19.37 33.5 18 L 36.8 3.7 C 37.18 2.5 37.39 1.5 39 1.5 Z M 6 26.8 L 94 26.8 C 98.4 26.8 98.65 29 98.4 31.2 C 92.9 85.1 7.1 85.1 1.6 31.2 C 1.31 29.01 1.6 26.8 6 26.8 Z M 28 74.1 C 41.2 80.7 58.8 80.7 72 74.1 C 73.1 73 73.92 75.22 74.2 76.3 L 78.6 93.9 C 79.7 98.3 77.5 98.3 74.2 98.3 L 25.8 98.3 C 22.5 98.3 20.3 98.3 21.4 93.9 L 25.8 76.3 C 26.9 73 26.9 73 28 74.1" fill="#000000"/>
</svg>
