<?xml version="1.0" encoding="UTF-8"?>
<svg xmlns="http://www.w3.org/2000/svg" viewBox="0 0 100 100">
	<path d="M6 26 66 26C70.4 26 69 28 70 28 72 28 71 26.2 72 26L82 24C84.05 23.56 85 25.97 82.8 26.56L72.82 28.53C71.93 28.73 71.73 29.36 71.72 29.87 71 67 1 67 .22 29.87.21 29.35.02 28.72-.88 28.53L-10.86 26.55C-12.5 26.18-11.9 23.58-10.09 23.99L0 26C1 26.2 0 28 2 28 3 28 1.6 26 6 26ZM15 15C16 17 20 15 19 13 13 1 25 1 19-11 18-13 14-11 15-9 21 3 9 3 15 15M35 15C36 17 40 15 39 13 33 1 45 1 39-11 38-13 34-11 35-9 41 3 29 3 35 15M55 15C56 17 60 15 59 13 53 1 65 1 59-11 58-13 54-11 55-9 61 3 49 3 55 15"/>
</svg>
