<?xml version="1.0" encoding="UTF-8"?>
<svg xmlns="http://www.w3.org/2000/svg" viewBox="0 0 100 100">
	<path d="M18 38 78 38C82.4 38 81 40 82 40 84 40 83 38.2 84 38L94 36C96.05 35.56 97 37.97 94.8 38.56L84.82 40.53C83.93 40.73 83.73 41.36 83.72 41.87 83 79 13 79 12.22 41.87 12.21 41.35 12.02 40.72 11.12 40.53L1.14 38.55C-.5 38.18.1 35.58 1.91 35.99L12 38C13 38.2 12 40 14 40 15 40 13.6 38 18 38ZM27 27C28 29 32 27 31 25 25 13 37 13 31 1 30-1 26 1 27 3 33 15 21 15 27 27M47 27C48 29 52 27 51 25 45 13 57 13 51 1 50-1 46 1 47 3 53 15 41 15 47 27M67 27C68 29 72 27 71 25 65 13 77 13 71 1 70-1 66 1 67 3 73 15 61 15 67 27"/>
</svg>
