<?xml version="1.0" encoding="UTF-8"?>
<svg width="15px" height="15px" viewBox="0 0 15 15" version="1.1" xmlns="http://www.w3.org/2000/svg" xmlns:xlink="http://www.w3.org/1999/xlink">
    <path d="M9,2.08497378 L9,1 L11,1 L11,2.43145751 C11.6470418,2.581722 12.3137085,2.77123617 13,3 L13,4.5 L2,4.5 L2,3 C4,2.33333333 5.83333333,2 7.5,2 C7.9858377,2 8.4858377,2.02832459 9,2.08497378 L9,2.08497378 Z M9.68058924,13 L9.53941076,13 C9.36461962,13.0154552 9.19413321,13.0884419 9.06,13.2189599 C8.92,13.3363817 8.79,13.4635885 8.64,13.5810103 C7.9072,14.1540284 6.8586,14.1250643 6.16,13.5125143 L5.77,13.1700342 C5.66574928,13.0809172 5.54284273,13.0242391 5.41486193,13 L5.12513807,13 C4.99715727,13.0242391 4.87425072,13.0809172 4.77,13.1700342 C4.58,13.3168114 4.41,13.4831588 4.22,13.629936 C3.5157,14.1402313 2.5468,14.116062 1.87,13.5712251 L1.56,13.3070262 C1.4153,13.1448864 1.2172,13.0375433 1,13.0036867 L1,12.0251723 C1.2585,11.9938598 1.5205,12.0417092 1.75,12.1621643 C2.0282,12.3306645 2.2924,12.5203985 2.54,12.7297027 C2.69832485,12.8985244 2.9189203,12.9927108 3.14713932,12.995833 C3.19394644,12.9943122 3.24071732,12.991111 3.28735205,12.9862268 C3.30827804,12.9830538 3.32917458,12.9790928 3.35,12.9743313 C3.4625,12.9417468 3.5677,12.8886134 3.66,12.817769 C3.82,12.7003473 3.95,12.5633552 4.11,12.4361484 C4.37661104,12.2199821 4.68801466,12.0849195 5.01059926,12.0309607 C5.15163389,11.9808999 5.30462074,11.9730341 5.44941138,12.0073631 C5.84554763,12.0304218 6.23587508,12.1733502 6.56,12.4361484 C6.72,12.5633552 6.87,12.7101324 7.03,12.8373393 C7.11185,12.9073074 7.2051999,12.9572794 7.3034766,12.9872553 C7.48969881,13.000343 7.677629,12.9869352 7.86096636,12.9468578 C7.92085509,12.9184943 7.97776899,12.8819881 8.03,12.8373393 C8.19,12.7101324 8.34,12.5633552 8.5,12.4361484 C8.75905565,12.2246519 9.06084763,12.0900744 9.37429048,12.0324158 C9.47526134,12.0011828 9.58143673,11.9905417 9.68595396,12.0004926 C10.1374677,11.9903929 10.5918814,12.1356115 10.96,12.4361484 C11.11,12.5633552 11.25,12.7003473 11.4,12.817769 C11.5270882,12.9264083 11.6819012,12.9868395 11.8398335,12.9990628 C11.9322631,12.9961962 12.0248583,12.9867424 12.1168954,12.9705532 C12.2187008,12.9409464 12.3154814,12.8900183 12.4,12.817769 L12.87,12.4165781 C13.1895,12.1629471 13.5886,12.024683 14,12.0251723 L14,13.0036867 C13.7374,13.0226699 13.4931,13.1422444 13.32,13.3363817 C13.0483,13.6184874 12.7022,13.821627 12.32,13.9234903 C11.7053,14.1010907 11.0405,13.9650772 10.55,13.56144 L10.16,13.2189599 C10.0258668,13.0884419 9.85538038,13.0154552 9.68058923,13 L9.68058924,13 Z M7.7094551,13 C7.59162811,13.0279434 7.46837189,13.0279434 7.3505449,13 L7.70945978,13 L7.7094551,13 Z M13,11.3225712 C12.9553926,11.351877 12.9120083,11.3832304 12.87,11.4165781 L12.4,11.817769 C12.1136,12.0625933 11.6864,12.0625933 11.4,11.817769 C11.25,11.7003473 11.11,11.5633552 10.96,11.4361484 C10.2477,10.8546172 9.2123,10.8546172 8.5,11.4361484 C8.34,11.5633552 8.19,11.7101324 8.03,11.8373393 C7.7436,12.0821636 7.3164,12.0821636 7.03,11.8373393 C6.87,11.7101324 6.72,11.5633552 6.56,11.4361484 C5.8494,10.859999 4.8206,10.859999 4.11,11.4361484 C3.95,11.5633552 3.82,11.7003473 3.66,11.817769 C3.5677,11.8886134 3.4625,11.9417468 3.35,11.9743313 C3.0547,12.0418488 2.7451,11.9484007 2.54,11.7297027 C2.36774273,11.5840881 2.18745089,11.4479457 2,11.3218356 L2,10 L13,10 L13,11.3225712 L13,11.3225712 Z M9,9.5 L9,7 L6,7 L6,9.5 L3,9.5 L3,5 L12,5 L12,9.5 L9,9.5 Z"></path>
</svg>
