<?xml version="1.0" encoding="UTF-8"?>
<svg viewBox="0 0 15 15" version="1.1" xmlns="http://www.w3.org/2000/svg" xmlns:xlink="http://www.w3.org/1999/xlink">
  <path d="M11,0 L10.9998892,7.943 L12.4871956,14.3875702 C12.5492888,14.6566409 12.3815005,14.9251024 12.1124298,14.9871956 C11.8732558,15.0423896 11.6345633,14.9159487 11.5408632,14.6981924 L11.5128044,14.6124298 L11.2868892,13.637 L7.49988919,10.971 L3.71188919,13.638 L3.4871956,14.6124298 C3.42510236,14.8815005 3.15664095,15.0492888 2.88757025,14.9871956 C2.64839629,14.9320016 2.48924787,14.7137513 2.50044439,14.4769557 L2.5128044,14.3875702 L3.99988919,7.939 L4,1 L11,0 Z M10.2278892,9.05 L8.36788919,10.36 L10.9498892,12.177 L10.2278892,9.05 Z M4.77088919,9.05 L4.04888919,12.177 L6.63088919,10.359 L4.77088919,9.05 Z M9.98288919,8 L5.01688919,8 L7.49988919,9.748 L9.98288919,8 Z M7,3 L5,3 L5,4 L7,4 L7,3 Z M10,3 L8,3 L8,4 L10,4 L10,3 Z"/>
</svg>