<?xml version="1.0" encoding="UTF-8"?>
<svg viewBox="0 0 15 15" version="1.1" xmlns="http://www.w3.org/2000/svg" xmlns:xlink="http://www.w3.org/1999/xlink">
  <path d="M9.149,8.819 L11.1280957,9.93256445 L12.202,8.858 L13,9.123 L13,15 L9,15 L9,11 L6,11 L6,15 L2,15 L2,9.123 L2.797,8.858 L3.87190428,9.93256445 L5.85,8.819 L7.5,10.6057379 L9.149,8.819 Z M9.148,4.912 L11.1480898,5.91257038 L11.845,5.214 L15,9 L12,8 L11,9 L9,7.875 L7.5,9.5 L6,7.875 L4,9 L3,8 L0,9 L3.154,5.215 L3.85191021,5.91257038 L5.851,4.912 L7.5,6.56066017 L9.148,4.912 Z M7.5,3.55271368e-15 L12,4 L11,5 L9,4 L7.5,5.5 L6,4 L4,5 L3,4 L7.5,3.55271368e-15 Z"/>
</svg>