<?xml version="1.0" encoding="UTF-8"?>
<svg version="1.2" baseProfile="tiny" xmlns="http://www.w3.org/2000/svg" viewBox="0 0 50 50" overflow="inherit">
  <path d="M43.63 9.8c2.42 0 4.37 -1.97 4.37 -4.4c0 -2.43 -1.95 -4.4 -4.37 -4.4c-2.4 0 -4.35 1.97 -4.35 4.4c0 2.43 1.95 4.4 4.35 4.4zm-12.63 38.2h12s1 -0.1 1 -1v-1h1s0.41 2.71 -1.86 3h-12.14v-1zm-28 -9l8 8s0.66 0.25 1.29 -0.38l0.63 -0.64l1.08 1.02s-1.79 2.62 -3.6 1.21l-8.4 -8.48l1 -0.73zm30.91 -3.25l0.01 7.97c0 1.5 1.06 2.71 2.54 2.71c1.36 0 2.54 -1.58 2.54 -2.71v-11.09c0 -0.77 -0.17 -1.47 -0.69 -1.97l-6.38 -6.49l8.59 -8.63c1.61 -2.02 0.78 -4.45 0.78 -4.45c-0.88 -2.69 -3.9 -2.78 -3.9 -2.78l-22.03 -0.01c-1.17 0 -2.13 0.96 -2.13 2.15c0 1.2 0.96 2.15 2.13 2.15l15.21 0.02l-6.4 6.44c-0.92 0.95 -1.38 2.01 -1.38 3.4c0 1.34 0.53 2.53 1.41 3.41l9.7 9.88zm-11.06 -8.67c-0.21 -0.2 -0.39 -0.41 -0.56 -0.64l-12.71 12.86c-0.96 0.78 -1.27 2.15 -0.7 3.3c0.66 1.31 2.26 1.83 3.56 1.16c0.18 -0.09 0.34 -0.2 0.49 -0.33l13.05 -13.19l-3.13 -3.15z"/>
</svg>