<?xml version="1.0" encoding="UTF-8"?>
<svg width="15px" height="15px" viewBox="0 0 15 15" version="1.1" xmlns="http://www.w3.org/2000/svg" xmlns:xlink="http://www.w3.org/1999/xlink">
    <path d="M12.9941966,11 L12.9941966,15 L11.9952509,15 L11.9952509,11 L3.00473985,11 L3.00473985,15 L2.00579418,15 L2.00579418,11 L2.00579418,4 L0.539417667,4 C0.263275292,4 0.0394176668,3.77614237 0.0394176668,3.5 C0.0394176668,3.37698384 0.0847673711,3.25828512 0.166792742,3.16660734 L3,2.55351296e-15 L12,2.55351296e-15 L14.8331996,3.16660788 C15.0173269,3.3724032 14.9997616,3.68849802 14.7939663,3.8726254 C14.7022886,3.95465048 14.5835901,4 14.4605742,4 L12.9941966,4 L12.9941966,11 Z M3.00473985,4 L3.00473985,10 L11.9952509,10 L11.9952509,4 L3.00473985,4 Z M4.50368553,5 L5.50157688,5 C5.77771925,5 6.00157688,5.22385763 6.00157688,5.5 L6.00157688,8.5 C6.00157688,8.77614237 5.77771925,9 5.50157688,9 L4.50368553,9 C4.22754315,9 4.00368553,8.77614237 4.00368553,8.5 L4.00368553,5.5 C4.00368553,5.22385763 4.22754315,5 4.50368553,5 Z M7.50052255,5 L10.4963053,5 C10.7724476,5 10.9963053,5.22385763 10.9963053,5.5 L10.9963053,6.5 C10.9963053,6.77614237 10.7724476,7 10.4963053,7 L7.50052255,7 C7.22438018,7 7.00052255,6.77614237 7.00052255,6.5 L7.00052255,5.5 C7.00052255,5.22385763 7.22438018,5 7.50052255,5 Z M7.50052255,8 L10.4963053,8 C10.7724476,8 10.9963053,8.22385763 10.9963053,8.5 C10.9963053,8.77614237 10.7724476,9 10.4963053,9 L7.50052255,9 C7.22438018,9 7.00052255,8.77614237 7.00052255,8.5 C7.00052255,8.22385763 7.22438018,8 7.50052255,8 Z"></path>
</svg>
