<?xml version="1.0" encoding="UTF-8"?>
<svg version="1.2" baseProfile="tiny" xmlns="http://www.w3.org/2000/svg" viewBox="0 0 50 50" overflow="inherit">
  <path d="M35.18 1c-2.26 0 -4.09 1.86 -4.09 4.14c0 2.29 1.83 4.14 4.09 4.14c2.27 0 4.11 -1.85 4.11 -4.14c0 -2.28 -1.84 -4.14 -4.11 -4.14zm-30.94 28.54c-0.35 -0.58 -1.1 -0.75 -1.66 -0.39c-0.57 0.36 -0.74 1.11 -0.39 1.69c0.36 0.56 1.1 0.74 1.68 0.39c0.56 -0.36 0.73 -1.11 0.38 -1.68zm0.84 3.38c-0.35 -0.56 -1.1 -0.74 -1.67 -0.38c-0.56 0.35 -0.73 1.11 -0.38 1.67c0.36 0.59 1.1 0.75 1.66 0.4c0.57 -0.36 0.74 -1.11 0.39 -1.69zm0.84 3.39c-0.35 -0.58 -1.11 -0.75 -1.67 -0.39c-0.58 0.36 -0.74 1.11 -0.39 1.69c0.35 0.56 1.11 0.74 1.67 0.38c0.57 -0.35 0.74 -1.11 0.39 -1.67zm0.83 3.38c-0.35 -0.56 -1.1 -0.74 -1.66 -0.4c-0.58 0.37 -0.74 1.12 -0.39 1.69c0.36 0.58 1.1 0.75 1.68 0.39c0.56 -0.36 0.73 -1.11 0.38 -1.68zm19.67 6.88c-0.64 0.22 -1 0.9 -0.79 1.55c0.21 0.65 0.89 1 1.53 0.8c0.64 -0.21 0.99 -0.9 0.79 -1.53c-0.21 -0.65 -0.89 -1 -1.53 -0.81zm3.44 0.03c-0.64 0.2 -0.99 0.89 -0.78 1.53c0.21 0.65 0.89 1.01 1.53 0.8c0.63 -0.2 0.99 -0.9 0.78 -1.54c-0.21 -0.64 -0.88 -1 -1.52 -0.79zm3.47 0.01c-0.65 0.21 -1 0.89 -0.79 1.54c0.2 0.64 0.89 1 1.53 0.79c0.63 -0.19 0.98 -0.89 0.77 -1.54c-0.19 -0.64 -0.88 -1 -1.51 -0.79zm3.44 0.01c-0.63 0.21 -0.99 0.9 -0.78 1.54c0.21 0.64 0.9 1 1.53 0.79c0.64 -0.21 0.98 -0.89 0.78 -1.53c-0.21 -0.65 -0.89 -1 -1.53 -0.8zm8.23 -29.61h-7.16l-3.54 -5.79c-0.61 -1.31 -1.89 -2.21 -3.4 -2.27c-0.29 -0.01 -0.56 0.03 -0.83 0.09l-17.99 4.27c-1.09 0.26 -1.77 1.35 -1.51 2.46c0.24 1.1 1.32 1.78 2.4 1.53l12.01 -2.19l-9.13 15.9h-9.76l2.16 7.89c0.07 0.26 0.07 -0.03 0.16 0.11c0.3 0.5 0.95 0.49 1.44 0.19c0.27 -0.16 0.44 -0.52 0.49 -0.8l1.29 -4.02l0.05 -0.18l6.02 -0.04c1.2 0 2.22 -0.33 2.83 -1.35l2.77 -4.63l6.16 6.32l-2.61 10.52h9.04c0.58 0 1.06 -0.61 1.06 -1.19c0 -0.46 -0.28 -0.84 -0.63 -1.04l-3.9 -2.22l1.87 -7.47s0.47 -1.59 -1.01 -3.04l-5.04 -5.1s2.69 -4.47 4.42 -7.34l2.34 3.41h9.96c1.12 0 2.03 -0.87 2.04 -1.99c0.01 -1.13 -0.89 -2.01 -2 -2.01z"/>
</svg>