<?xml version="1.0" encoding="UTF-8"?>
<svg version="1.2" baseProfile="tiny" xmlns="http://www.w3.org/2000/svg" viewBox="0 0 50 50" overflow="inherit">
  <path d="M16.48 11.89c2.13 -0.26 3.65 -2.23 3.39 -4.4c-0.25 -2.17 -2.19 -3.71 -4.32 -3.46c-2.13 0.27 -3.64 2.23 -3.39 4.4c0.26 2.17 2.18 3.72 4.32 3.46zm31.94 18.66c-0.21 -0.1 -16.05 -8.3 -16.05 -8.3l-4.02 -5.28l-0.25 -0.06c-0.55 -0.51 -1.1 -0.47 -2.1 0.09v0.01c0 0.42 -0.22 1.04 0.06 1.54l3.08 3.92l0.06 0.04l-2.45 5.78l-6.55 -1.67l-0.28 -2.39l5.4 -0.66c0.24 -0.01 0.49 -0.08 0.72 -0.21c0.9 -0.48 1.24 -1.61 0.77 -2.52c-0.37 -0.7 -1.1 -1.07 -1.82 -0.99l-5.5 0.68l-0.49 -4.16c-0.26 -2.16 -2.2 -3.71 -4.32 -3.46c-2.12 0.27 -3.65 2.24 -3.4 4.42l1.15 9.61c0.14 1.23 0.85 2.29 1.81 2.91l-8.64 1.05l-2.69 6.8l0.31 -0.1c1.11 -0.53 2.35 -0.81 3.57 -0.81c1.22 0 2.44 0.28 3.54 0.79c0.7 0.33 1.47 0.49 2.21 0.49c0.75 0 1.51 -0.16 2.19 -0.48c1.11 -0.53 2.34 -0.81 3.57 -0.81c1.22 0 2.44 0.28 3.53 0.79c0.71 0.33 1.48 0.49 2.22 0.49c0.76 0 1.5 -0.16 2.2 -0.48c1.11 -0.53 2.35 -0.81 3.57 -0.81s2.44 0.28 3.53 0.79c0.26 0.12 0.55 0.2 0.84 0.28c4.41 -1.18 12.23 -3.46 14.34 -5.38c0.62 -0.56 0.73 -1.5 -0.08 -1.91zm-47.42 15.45c1.01 0 1.98 -0.23 2.84 -0.63c0.88 -0.42 1.88 -0.66 2.92 -0.66s2.03 0.24 2.92 0.67c0.86 0.4 1.82 0.63 2.83 0.63c1 0 1.97 -0.23 2.84 -0.63c0.88 -0.42 1.88 -0.66 2.92 -0.66c1.03 0 2.03 0.24 2.92 0.67c0.86 0.4 1.82 0.63 2.83 0.63c1.01 0 1.97 -0.23 2.84 -0.63c0.88 -0.42 1.88 -0.66 2.92 -0.66c1.03 0 2.03 0.24 2.91 0.67c0.87 0.4 1.83 0.63 2.84 0.63c1.01 0 1.97 -0.23 2.83 -0.63c0.9 -0.42 1.89 -0.66 2.92 -0.66c1.04 0 2.01 0.24 2.89 0.67c0.86 0.4 1.81 0.63 2.81 0.63v-4.33c-1 0 -1.95 -0.23 -2.81 -0.63c-0.88 -0.42 -1.86 -0.65 -2.9 -0.65c-1.03 0 -2.02 0.23 -2.91 0.66c-0.86 0.4 -1.82 0.63 -2.83 0.63c-1.01 0 -1.97 -0.23 -2.84 -0.63c-0.88 -0.42 -1.88 -0.65 -2.91 -0.65c-1.04 0 -2.04 0.23 -2.92 0.66c-0.87 0.4 -1.83 0.63 -2.84 0.63c-1.01 0 -1.97 -0.23 -2.83 -0.63c-0.89 -0.42 -1.89 -0.65 -2.92 -0.65c-1.04 0 -2.04 0.23 -2.92 0.66c-0.87 0.4 -1.83 0.63 -2.84 0.63c-1.01 0 -1.97 -0.23 -2.83 -0.63c-0.89 -0.42 -1.88 -0.65 -2.92 -0.65s-2.04 0.23 -2.92 0.66c-0.86 0.4 -1.83 0.63 -2.84 0.63v4.33z"/>
</svg>