<?xml version="1.0" encoding="UTF-8"?>
<svg width="15px" height="15px" viewBox="0 0 15 15" version="1.1" xmlns="http://www.w3.org/2000/svg" xmlns:xlink="http://www.w3.org/1999/xlink">
    <path d="M12.3662178,9.5 C12.4513029,9.64708668 12.5,9.81785643 12.5,10 C12.5,10.5522847 12.0522847,11 11.5,11 C10.9477153,11 10.5,10.5522847 10.5,10 C10.5,9.81785643 10.5486971,9.64708668 10.6337822,9.5 L9.72740473,9.5 C9.31360678,10.390419 8.47151942,11 7.5,11 C6.52848058,11 5.68639322,10.390419 5.27259527,9.5 L4.3662178,9.5 C4.45130286,9.64708668 4.5,9.81785643 4.5,10 C4.5,10.5522847 4.05228475,11 3.5,11 C2.94771525,11 2.5,10.5522847 2.5,10 C2.5,9.81785643 2.54869714,9.64708668 2.6337822,9.5 L0.830222047,9.5 L0.0383034485,7.95648712 C-0.040712264,7.80247916 0.0200809664,7.61357615 0.174088929,7.53456043 C0.218359633,7.51184679 0.267402075,7.5 0.317159533,7.5 L0.626881641,7.5 C0.757257391,7.5 0.882476761,7.55092431 0.975847277,7.64191763 L1.85634708,8.5 L5.02086822,7.93927786 C5.20511731,6.56678148 6.56916985,5.5 7.5,5.5 C8.4308289,5.5 9.79487902,6.56677861 9.97913103,7.93927232 L13.1437224,8.5 L14.0242222,7.64191763 C14.1175927,7.55092431 14.2428121,7.5 14.3731878,7.5 L14.6829099,7.5 C14.8560051,7.5 14.9963264,7.64032135 14.9963264,7.81341652 C14.9963264,7.86317397 14.9844797,7.91221642 14.961766,7.95648712 L14.1698474,9.5 L12.3662178,9.5 Z M7,5 L7,3.5 C7,3.22385763 7.22385763,3 7.5,3 C7.77614237,3 8,3.22385763 8,3.5 L8,5 L7,5 Z M7,6.5 L6,7.5 C6.55553299,7.83333333 7.05552171,8 7.49996615,8 C7.9444106,8 8.44442188,7.83333333 9,7.5 L8,6.5 L7,6.5 Z"></path>
</svg>
