<?xml version="1.0" encoding="UTF-8"?>
<!DOCTYPE svg PUBLIC "-//W3C//DTD SVG 1.1//EN" "http://www.w3.org/Graphics/SVG/1.1/DTD/svg11.dtd">
<svg version="1.1" xmlns="http://www.w3.org/2000/svg" xmlns:xlink="http://www.w3.org/1999/xlink" x="0" y="0" width="15" height="15" viewBox="0 0 15 15">
<path d="M15,5.5 C15,5.5 11.5,1.5 11.5,1.5 C11.5,1.5 3.5,1.5 3.5,1.5 C3.5,1.5 0,5.5 0,5.5 C-0,5.5 7.5,14 7.5,14 C7.5,14 15,5.5 15,5.5 z M10.75,5.5 L11.5,2.5 L14,5.5 L10.75,5.5 z M10.5,6.25 L13.25,6.25 L8.5,12 L10.5,6.25 z M10,5.5 L8,2.25 L10.75,2.25 L10,5.5 z M5.5,6.25 L9.5,6.25 L7.5,12.5 L5.5,6.25 z M5.75,5.5 L7.5,2.5 L9.25,5.5 L5.75,5.5 z M5,5.5 L4.25,2.25 L7,2.25 L5,5.5 z M6.5,12 L1.5,6.25 L4.5,6.25 L6.5,12 z M3.5,2.5 L4.25,5.5 L1,5.5 L3.5,2.5 z"/>
</svg>
