<?xml version="1.0" encoding="UTF-8"?>
<svg version="1.2" baseProfile="tiny" xmlns="http://www.w3.org/2000/svg" viewBox="0 0 50 50" overflow="inherit">
  <path d="M41.45 30.82c-1 0 -1.95 0.24 -2.79 0.65c-0.83 0.38 -1.75 0.6 -2.72 0.6c-0.96 0 -1.88 -0.23 -2.71 -0.6c-0.84 -0.41 -1.8 -0.65 -2.79 -0.65c-0.99 0 -1.94 0.24 -2.79 0.65c-0.82 0.38 -1.74 0.6 -2.7 0.6c-0.96 0 -1.9 -0.23 -2.72 -0.6c-0.84 -0.41 -1.8 -0.65 -2.79 -0.65c-1 0 -1.95 0.24 -2.79 0.65c-0.83 0.38 -1.75 0.6 -2.71 0.6c-0.96 0 -1.88 -0.23 -2.72 -0.6c-0.84 -0.41 -1.78 -0.65 -2.78 -0.65c-1 0 -1.9 0.24 -2.75 0.65c-0.83 0.38 -1.67 0.6 -2.67 0.6v4.21c1 0 1.84 -0.23 2.67 -0.6c0.84 -0.41 1.77 -0.65 2.77 -0.65c1 0 1.93 0.24 2.77 0.65c0.7 0.32 1.47 0.5 2.27 0.56l-3.38 3.48c-1.07 -0.69 -2.5 -0.57 -3.43 0.4l-3.87 4.01c-1.07 1.11 -1.07 2.92 0 4.04c1.08 1.11 2.83 1.11 3.9 0l3.87 -4c0.88 -0.91 1.03 -2.27 0.48 -3.35l4.65 -4.81c0.32 -0.1 0.62 -0.18 0.92 -0.32c0.84 -0.41 1.8 -0.65 2.79 -0.65c1 0 1.95 0.24 2.79 0.65c0.82 0.37 1.76 0.6 2.72 0.6c0.96 0 1.88 -0.23 2.71 -0.6c0.85 -0.41 1.81 -0.65 2.79 -0.65c1 0 1.95 0.24 2.79 0.65c0.83 0.37 1.75 0.6 2.72 0.6c0.97 0 1.88 -0.23 2.72 -0.6c0.84 -0.41 1.8 -0.65 2.79 -0.65c1 0 1.96 0.24 2.82 0.65c0.82 0.38 1.74 0.6 2.74 0.6v-4.21c-1 0 -1.92 -0.23 -2.74 -0.6c-0.85 -0.41 -1.82 -0.65 -2.82 -0.65zm1.87 -20.6l3.87 -4.01c1.08 -1.12 1.08 -2.93 0 -4.04c-1.07 -1.12 -2.83 -1.12 -3.9 0l-3.87 4.01c-0.93 0.97 -1.05 2.44 -0.37 3.54l-4.81 4.99l-9.55 -3.67c-0.25 -0.15 -0.51 -0.27 -0.81 -0.36c-2.08 -0.65 -4.29 0.58 -4.91 2.74l-2.93 10.23l-0.06 0.36h-12.97v5.41c1 0 1.4 -0.17 2.05 -0.46c1.06 -0.51 2.22 -0.78 3.39 -0.78c1.16 0 2.32 0.27 3.36 0.77c0.69 0.32 1.4 0.48 2.12 0.48c0.73 0 1.44 -0.16 2.1 -0.46c1.07 -0.51 2.25 -0.78 3.4 -0.78c1.17 0 2.32 0.26 3.39 0.77c0.67 0.32 1.4 0.48 2.13 0.48c0.72 0 1.43 -0.16 2.1 -0.46c1.06 -0.51 2.25 -0.78 3.4 -0.78c1.18 0 2.32 0.26 3.38 0.77c0.68 0.32 1.42 0.48 2.13 0.48c0.73 0 1.45 -0.16 2.1 -0.46c1.06 -0.51 2.25 -0.78 3.41 -0.78c0.2 0 1 0.06 1.79 -0.48c1.4 -0.63 1.93 -1 3.15 -1.78c1.01 -0.64 1.81 -1.9 -0.38 -1.9h-19l5.87 -5.8l0.75 0.29c0.94 0.35 1.99 -0.15 2.34 -1.12c0.24 -0.69 0.06 -1.44 -0.4 -1.94l4.54 -4.72c1.04 0.57 2.35 0.42 3.23 -0.49zm-17.99 13.78h-1.17l2.37 -8.2l4.89 1.89l-6.08 6.31zm-0.03 -18.09l-0.5 1.02c-0.33 0.69 -1.01 1.07 -1.79 1.07h-1.18c0.68 1 1.99 1.63 3.25 1.63c2.06 0 3.93 -1.74 3.93 -3.88v0.24h-3.52l-0.18 -0.09zm-2.29 1.09c0.41 0 0.77 -0.25 0.93 -0.61l0.49 -0.9c0.19 -0.42 0.58 -0.49 1.04 -0.49h3.85c-0.5 -2 -2.31 -3.78 -4.45 -3.78c-2.53 0 -4.58 2.02 -4.58 4.65c0 0.42 0.04 1.13 0.15 1.13h2.55z"/>
</svg>