<?xml version="1.0" encoding="UTF-8"?>
<!DOCTYPE svg PUBLIC "-//W3C//DTD SVG 1.1//EN" "http://www.w3.org/Graphics/SVG/1.1/DTD/svg11.dtd">
<svg version="1.1" xmlns="http://www.w3.org/2000/svg" xmlns:xlink="http://www.w3.org/1999/xlink" x="0" y="0" width="15" height="15" viewBox="0 0 15 15">
<path d="M-0,5 C6,5 8,9.5 8,12 C8,12 8,14 8,14 L-0,14 C-0,14 -0,5 -0,5 z"/>
<path d="M9,11 L15,11 L15,14 L9,14 L9,11 z"/>
<path d="M8.225,2.243 C8.225,2.243 9.5,1 9.5,1 C9.5,1 12.32,4.068 12.32,4.068 C12.32,4.068 14,2.5 14,2.5 C14,2.5 14,7 14,7 C14,7 9.5,7 9.5,7 C9.5,7 10.991,5.314 10.991,5.314 C10.991,5.314 8.225,2.243 8.225,2.243 z"/>
</svg>
