<?xml version="1.0" encoding="UTF-8"?>
<svg version="1.1" xmlns="http://www.w3.org/2000/svg" xmlns:xlink="http://www.w3.org/1999/xlink" x="0" y="0" viewBox="0 0 15 15">
  <path d="M0 1L8 1L8 14L0 14L0 1z"/>
  <path d="M9 11L15 11L15 14L9 14L9 11z"/>
  <path d="m 11.19531,7.5937709 h 1.057295 V 8.9166918 H 11.19531 Z M 12.221355,6.8281435 H 11.22656 V 6.0260576 q 0,-0.5260433 0.145834,-0.864586 0.145833,-0.3385428 0.614585,-0.7864608 L 12.45573,3.9114676 q 0.296876,-0.2760425 0.427085,-0.5208349 0.135417,-0.2447925 0.135417,-0.5000016 0,-0.4635432 -0.343751,-0.7500024 -0.338543,-0.2864592 -0.901044,-0.2864592 -0.41146,0 -0.880212,0.1822922 Q 10.429682,2.218754 9.9244724,2.5677134 V 1.5885436 q 0.4895846,-0.2968759 0.9895866,-0.4427097 0.50521,-0.1458338 1.04167,-0.1458338 0.958336,0 1.536463,0.5052099 0.583335,0.50521 0.583335,1.3333376 0,0.3958346 -0.1875,0.7552107 -0.187501,0.3541678 -0.656253,0.8020859 l -0.458334,0.447918 q -0.244793,0.2447925 -0.34896,0.3854179 -0.09896,0.1354171 -0.140625,0.2656259 -0.03125,0.1093753 -0.04687,0.2656258 -0.01563,0.1562505 -0.01563,0.4270847 z" aria-label="?"/>
</svg>
