<?xml version="1.0" encoding="UTF-8"?>
<svg version="1.1" xmlns="http://www.w3.org/2000/svg" xmlns:xlink="http://www.w3.org/1999/xlink" x="0" y="0" viewBox="0 0 15 15">
  <path d="M0 1L8 1L8 14L0 14L0 1z"/>
  <path d="M9 11L15 11L15 14L9 14L9 11z"/>
  <path d="m 11.167997,6.0366825 q 0,-0.5546684 0.202668,-0.9280029 0.213334,-0.3733345 0.746669,-0.7893358 0.362667,-0.2666675 0.565335,-0.4693348 0.213334,-0.2026673 0.309334,-0.394668 0.096,-0.2026673 0.096,-0.4693348 0,-0.4053346 -0.288001,-0.6186686 Q 12.522668,2.1540036 12,2.1540036 q -0.469335,0 -0.896003,0.1386671 -0.426668,0.1386671 -0.853336,0.3520011 L 9.7706595,1.642002 q 0.4906685,-0.2560008 1.0560035,-0.426668 0.576002,-0.1706672 1.280004,-0.1706672 1.06667,0 1.653338,0.5226683 0.597336,0.5226683 0.597336,1.3546709 0,0.4586681 -0.149334,0.7893359 -0.138667,0.320001 -0.416001,0.5973352 -0.277335,0.2773342 -0.682669,0.5866685 -0.330668,0.2560008 -0.512002,0.4373347 -0.170667,0.1813339 -0.234667,0.3626678 -0.05333,0.1813339 -0.05333,0.426668 V 6.3886836 H 11.167997 Z M 10.96533,8.084689 q 0,-0.4480014 0.234667,-0.6293353 0.245334,-0.1920006 0.586669,-0.1920006 0.330668,0 0.565335,0.1920006 0.245334,0.1813339 0.245334,0.6293353 0,0.4373347 -0.245334,0.6293353 -0.234667,0.1920006 -0.565335,0.1920006 -0.341335,0 -0.586669,-0.1920006 Q 10.96533,8.5220237 10.96533,8.084689 Z" aria-label="?" />
</svg>
