<?xml version="1.0" encoding="UTF-8"?>
<!DOCTYPE svg PUBLIC "-//W3C//DTD SVG 1.1//EN" "http://www.w3.org/Graphics/SVG/1.1/DTD/svg11.dtd">
<svg version="1.1" xmlns="http://www.w3.org/2000/svg" xmlns:xlink="http://www.w3.org/1999/xlink" x="0" y="0" width="15" height="15" viewBox="0 0 15 15">
<path d="M0,1 L8,1 L8,14 L0,14 L0,1 z"/>
<path d="M9,11 L15,11 L15,14 L9,14 L9,11 z"/>
<path d="M11,1 C11,1 13,1 13,1 C13,1 13,5 13,5 C13,5 15,5 15,5 C15,5 12,9 12,9 C12,9 9,5 9,5 C9,5 11,5 11,5 C11,5 11,1 11,1 z"/>
</svg>
