<?xml version="1.0" encoding="UTF-8"?>
<!DOCTYPE svg PUBLIC "-//W3C//DTD SVG 1.1//EN" "http://www.w3.org/Graphics/SVG/1.1/DTD/svg11.dtd">
<svg version="1.1" xmlns="http://www.w3.org/2000/svg" xmlns:xlink="http://www.w3.org/1999/xlink" x="0" y="0" width="15" height="15" viewBox="0 0 15 15">
<path d="M0,10 L8,10 L8,14 L0,14 L0,10 z"/>
<path d="M9,11 L15,11 L15,14 L9,14 L9,11 z"/>
<path d="M6,5 C6,5 6,3 6,3 C6,3 10,3 10,3 C10,3 10,1 10,1 C10,1 14,4 14,4 C14,4 10,7 10,7 C10,7 10,5 10,5 C10,5 6,5 6,5 z"/>
</svg>
