<?xml version="1.0" encoding="UTF-8"?>
<!DOCTYPE svg PUBLIC "-//W3C//DTD SVG 1.1//EN" "http://www.w3.org/Graphics/SVG/1.1/DTD/svg11.dtd">
<svg version="1.1" xmlns="http://www.w3.org/2000/svg" xmlns:xlink="http://www.w3.org/1999/xlink" x="0" y="0" width="15" height="15" viewBox="0 0 15 15">
<path d="M12.5,7.5 C13.5,7.5 15.5,15 14.5,15 C14.5,15 0.5,15 0.5,15 C-0.5,15 1.5,7.5 2.5,7.5 C2.5,7.5 12.5,7.5 12.5,7.5 z M11.25,8.75 C11.25,8.75 3.75,8.75 3.75,8.75 C3.25,8.75 1.75,14 2.5,14 C2.5,14 12.5,14 12.5,14 C13.25,14 11.75,8.75 11.25,8.75 z M7.5,10 C8,10 8.5,10.5 8.5,11 C8.5,11.5 8,12 7.5,12 C7,12 6.5,11.5 6.5,11 C6.5,10.5 7,10 7.5,10 z M10.75,9.25 L4.25,9.25 C3.75,9.25 2.5,13.5 3.25,13.5 C3.25,13.5 11.75,13.5 11.75,13.5 C12.5,13.5 11.25,9.25 10.75,9.25 z M5,5 C5.25,5 5.25,5.75 5,5.75 C5,5.75 5,7 5,7 C5,7.5 4,7.5 4,7 C4,7 4,5.75 4,5.75 L3,5.75 C2.75,5.75 2.75,5 3,5 C3,5 5,5 5,5 z M12,5 C12.25,5 12.25,5.75 12,5.75 C12,5.75 11,5.75 11,5.75 C11,5.75 11,7 11,7 C11,7.5 10,7.5 10,7 C10,7 10,5.75 10,5.75 C9.75,5.75 9.75,5 10,5 C10,5 12,5 12,5 z M9,1 C7.5,1 7,1.5 7,3 C7,3 7,7 7,7 C7,7.5 8,7.5 8,7 C8,7 8,3.5 8,3.5 C8,2.5 8,2 9,2 C9.5,2 10,2.25 10,2.75 C10,3 11,3 11,2.75 C11,1.5 10,1 9,1 z"/>
</svg>
