<?xml version="1.0" encoding="UTF-8"?>
<svg width="15px" height="15px" viewBox="0 0 15 15" version="1.1" xmlns="http://www.w3.org/2000/svg" xmlns:xlink="http://www.w3.org/1999/xlink">
    <path d="M7.5,3 C6.16666667,5.25 6.16666667,8.25 7.5,12 C7.26744186,12 6.26744186,12 4.5,12 C4.5,6.54545455 5.5,3.54545455 7.5,3 Z M4.5,3 C3.16666667,5.25 3.16666667,8.25 4.5,12 C4.26744186,12 3.26744186,12 1.5,12 C1.5,6.54545455 2.5,3.54545455 4.5,3 Z M10.5,3 C9.16666667,5.25 9.16666667,8.25 10.5,12 C10.2674419,12 9.26744186,12 7.5,12 C7.5,6.54545455 8.5,3.54545455 10.5,3 Z M13.5,3 C12.1666667,5.25 12.1666667,8.25 13.5,12 C13.2674419,12 12.2674419,12 10.5,12 C10.5,6.54545455 11.5,3.54545455 13.5,3 Z"></path>
</svg>
