<?xml version="1.0" encoding="UTF-8"?>
<svg version="1.2" baseProfile="tiny" xmlns="http://www.w3.org/2000/svg" viewBox="0 0 50 50" overflow="inherit">
  <path d="M0.3 27.58c0.41 3.18 3.12 5.63 6.41 5.63c3.28 0 5.99 -2.45 6.4 -5.63h-12.8zm34.89 13c0 0.55 -0.45 1 -1 1h-18.66c-0.55 0 -1 -0.45 -1 -1c0 -0.55 0.45 -0.99 1 -0.99h18.66c0.55 0 1 0.44 1 0.99zm-20.54 1.51h20.44v2.89h-20.44zm22.26 -14.51c0.41 3.18 3.12 5.63 6.4 5.63c3.29 0 5.99 -2.45 6.4 -5.63h-12.8zm12.45 -2.01l-5.24 -7.22h2.8c0.68 0 1.23 -0.56 1.23 -1.25c0 -0.68 -0.55 -1.24 -1.23 -1.24h-14.85c-0.88 -2.44 -3.02 -4.28 -5.63 -4.73v-3.9c0 -0.69 -0.56 -1.25 -1.25 -1.25l-0.12 0.01l-0.12 -0.01c-0.69 0 -1.24 0.55 -1.24 1.25v3.9c-2.61 0.46 -4.75 2.29 -5.63 4.73h-14.85c-0.68 0 -1.23 0.55 -1.23 1.24c0 0.69 0.55 1.25 1.23 1.25h2.68l-5.24 7.22h-0.65v1.33h13.4v-1.33h-0.66l-5.24 -7.22h12.17c0 -0.28 0.03 -0.56 0.07 -0.82c0.04 -0.12 0.07 -0.25 0.07 -0.38c0.46 -1.93 1.97 -3.46 3.9 -3.93v13.7h-0.05c-0.11 5.15 -2.56 9.65 -6.19 12.17h15.21c-3.64 -2.52 -6.09 -7.02 -6.2 -12.17h-0.05v-13.7c1.93 0.47 3.44 2 3.89 3.93c0 0.13 0.03 0.26 0.08 0.38c0.04 0.27 0.07 0.54 0.07 0.82h12.04l-5.24 7.22h-0.65v1.33h13.39v-1.33h-0.65zm-43.18 0h-4.18l4.18 -5.76v5.77zm1.07 0v-5.76l4.18 5.77h-4.18zm35.53 0h-4.19l4.19 -5.76v5.77zm1.07 0v-5.76l4.19 5.77h-4.19zm-35.89 -11.45c0 0.68 -0.56 1.24 -1.24 1.24c-0.69 0 -1.25 -0.56 -1.25 -1.24c0 -0.69 0.56 -1.25 1.25 -1.25c0.68 0 1.24 0.56 1.24 1.25zm36.6 -0.07c0 0.69 -0.56 1.24 -1.24 1.24c-0.69 0 -1.24 -0.55 -1.24 -1.24c0 -0.69 0.55 -1.25 1.24 -1.25c0.69 0 1.24 0.56 1.24 1.25z"/>
</svg>