<?xml version="1.0" encoding="UTF-8"?>
<svg width="15px" height="15px" viewBox="0 0 15 15" version="1.1" xmlns="http://www.w3.org/2000/svg" xmlns:xlink="http://www.w3.org/1999/xlink">
    <path d="M9,11 L9,14 L7,14 L7,11 L1,11 L1,7 C1,5.34314575 2.34314575,4 4,4 L7,4 L7,1 L10,1 L10,3 L8,3 L8,4 L11,4 C12.6568542,4 14,5.34314575 14,7 L14,11 L9,11 Z M4,5 C2.8954305,5 2,5.8954305 2,7 L2,10 L6,10 L6,7 C6,5.8954305 5.1045695,5 4,5 Z M3.5,6 L4.5,6 C4.77614237,6 5,6.22385763 5,6.5 C5,6.77614237 4.77614237,7 4.5,7 L3.5,7 C3.22385763,7 3,6.77614237 3,6.5 C3,6.22385763 3.22385763,6 3.5,6 Z"></path>
</svg>
