<?xml version="1.0" encoding="UTF-8"?>
<svg width="15px" height="15px" viewBox="0 0 15 15" version="1.1" xmlns="http://www.w3.org/2000/svg" xmlns:xlink="http://www.w3.org/1999/xlink">
    <path d="M4.34468228,6.14629706 L12.3923048,1.5 L13.8923048,4.09807621 L6,8.65470054 L6,14 L1,14 L1,8.5 C1,7.11928813 2.11928813,6 3.5,6 C3.79644174,6 4.08083262,6.05159581 4.34468228,6.14629706 L4.34468228,6.14629706 Z M5.2902936,6.75504864 C5.52346341,6.99423906 5.70910244,7.27998378 5.83195099,7.59702314 L7.33012702,6.73205081 L6.83012702,5.8660254 L5.2902936,6.75504864 L5.2902936,6.75504864 Z M8.19615242,6.23205081 L9.92820323,5.23205081 L9.42820323,4.3660254 L7.69615242,5.3660254 L8.19615242,6.23205081 Z M10.7942286,4.73205081 L12.5262794,3.73205081 L12.0262794,2.8660254 L10.2942286,3.8660254 L10.7942286,4.73205081 Z M3.5,9.5 C4.05228475,9.5 4.5,9.05228475 4.5,8.5 C4.5,7.94771525 4.05228475,7.5 3.5,7.5 C2.94771525,7.5 2.5,7.94771525 2.5,8.5 C2.5,9.05228475 2.94771525,9.5 3.5,9.5 Z"></path>
</svg>
