<?xml version="1.0" encoding="UTF-8"?>
<!DOCTYPE svg PUBLIC "-//W3C//DTD SVG 1.1//EN" "http://www.w3.org/Graphics/SVG/1.1/DTD/svg11.dtd">
<svg version="1.1" xmlns="http://www.w3.org/2000/svg" xmlns:xlink="http://www.w3.org/1999/xlink" x="0" y="0" width="15" height="15" viewBox="0 0 15 15">
    <path d="M4.091,12.449 L5.606,12.449 L5.227,13.132 L9.773,13.132 L9.394,12.449 L10.909,12.449 L12.045,14.5 L10.53,14.5 L10.152,13.816 L4.848,13.816 L4.47,14.5 L2.955,14.5 L4.091,12.449 z M9.722,9.357 L8.611,10.234 L8.611,10.673 L10.833,10.673 L11.389,10.234 L11.389,9.357 L9.722,9.357 z M3.611,9.357 L3.611,10.234 L4.167,10.673 L6.389,10.673 L6.389,10.234 L5.278,9.357 L3.611,9.357 z M4.167,4.97 L3.611,5.409 L3.611,7.164 L5.278,7.164 L9.722,7.164 L11.389,7.164 L11.389,5.409 L10.833,4.97 L9.722,4.97 L5.278,4.97 L4.167,4.97 z M5.278,2.777 L5.278,3.654 L9.722,3.654 L9.722,2.777 L5.278,2.777 z M5.278,2.338 L9.722,2.338 L12.5,4.97 L12.5,11.112 L11.389,11.989 L3.611,11.989 L2.5,11.112 L2.5,4.97 L5.278,2.338 z M9.773,0.5 L9.773,0.96 L7.955,0.96 L7.955,1.879 L7.045,1.879 L7.045,0.96 L5.227,0.96 L5.227,0.5 z"/>
</svg>
