<?xml version="1.0" encoding="UTF-8"?>
<svg width="15px" height="15px" viewBox="0 0 15 15" version="1.1" xmlns="http://www.w3.org/2000/svg" xmlns:xlink="http://www.w3.org/1999/xlink">
    <path d="M8,1 L8,2 L10.9999943,2 C12.1045638,2 12.9999943,2.8954305 12.9999943,4 L12.9999943,8 C12.9999943,10.6666667 11.1666662,12 7.50000998,12 C3.83335377,12 2.00002566,10.6666667 2.00002566,8 L2.00002566,4 C2.00002566,2.8954305 2.89545616,2 4.00002566,2 L7,2 L7,1 L4.5,1 C4.22385763,1 4,0.776142375 4,0.5 C4,0.223857625 4.22385763,5.07265313e-17 4.5,0 L10.5,0 C10.7761424,-5.07265313e-17 11,0.223857625 11,0.5 C11,0.776142375 10.7761424,1 10.5,1 L8,1 Z M5.75,12.5 L5.5,13 L9.5,13 L9.25,12.5 L10.75,12.5 L12,15 L10.5,15 L10,14 L5,14 L4.5,15 L3,15 L4.25,12.5 L5.75,12.5 Z M2.9966931,4.50329057 L3.00985569,6.50329057 C3.01166457,6.77814281 3.23498667,7 3.50984486,7 L6.50651425,7 C6.78265663,7 7.00651425,6.77614237 7.00651425,6.5 C7.00651425,6.49890313 7.00651064,6.49780627 7.00650342,6.49670943 L6.99334084,4.49670943 C6.99153196,4.22185719 6.76820986,4 6.49335167,4 L3.49668228,4 C3.2205399,4 2.99668228,4.22385763 2.99668228,4.5 C2.99668228,4.50109687 2.99668588,4.50219373 2.9966931,4.50329057 Z M7.9966931,4.50329057 L8.00985569,6.50329057 C8.01166457,6.77814281 8.23498667,7 8.50984486,7 L11.5065143,7 C11.7826566,7 12.0065143,6.77614237 12.0065143,6.5 C12.0065143,6.49890313 12.0065106,6.49780627 12.0065034,6.49670943 L11.9933408,4.49670943 C11.991532,4.22185719 11.7682099,4 11.4933517,4 L8.49668228,4 C8.2205399,4 7.99668228,4.22385763 7.99668228,4.5 C7.99668228,4.50109687 7.99668588,4.50219373 7.9966931,4.50329057 Z M5,10.5 C5.55228475,10.5 6,10.0522847 6,9.5 C6,8.94771525 5.55228475,8.5 5,8.5 C4.44771525,8.5 4,8.94771525 4,9.5 C4,10.0522847 4.44771525,10.5 5,10.5 Z M10,10.5 C10.5522847,10.5 11,10.0522847 11,9.5 C11,8.94771525 10.5522847,8.5 10,8.5 C9.44771525,8.5 9,8.94771525 9,9.5 C9,10.0522847 9.44771525,10.5 10,10.5 Z"></path>
</svg>
