<?xml version="1.0" encoding="UTF-8"?>
<svg width="15px" height="15px" viewBox="0 0 15 15" version="1.1" xmlns="http://www.w3.org/2000/svg" xmlns:xlink="http://www.w3.org/1999/xlink">
    <path d="M8,1 L8,2 L10,2 L11.4142136,3.41421356 C11.7892863,3.78928632 12,4.29799415 12,4.82842712 L12,11 C12,12.1045695 11.1045695,13 10,13 L5.00001588,13 C3.89544638,13 3.00001588,12.1045695 3.00001588,11 L3.00001588,4.82842247 C3.00001588,4.29799224 3.21072738,3.78928683 3.58579671,3.41421453 L5,2 L7,2 L7,1 L5,1 C4.72385763,1 4.5,0.776142375 4.5,0.5 C4.5,0.223857625 4.72385763,5.07265313e-17 5,0 L10,0 C10.2761424,-5.07265313e-17 10.5,0.223857625 10.5,0.5 C10.5,0.776142375 10.2761424,1 10,1 L8,1 Z M5.75,13.5 L5,15 L3.5,15 L4.25,13.5 L5.75,13.5 Z M10.75,13.5 L11.5,15 L10,15 L9.25,13.5 L10.75,13.5 Z M3.99751577,5.50246795 L4.0073877,7.50246795 C4.00874596,7.77764367 4.23220255,8 4.50738161,8 L6.50488772,8 C6.78103009,8 7.00488772,7.77614237 7.00488772,7.5 C7.00488772,7.49917734 7.00488569,7.49835469 7.00488163,7.49753205 L6.99500969,5.49753205 C6.99365143,5.22235633 6.77019485,5 6.49501578,5 L4.49750968,5 C4.2213673,5 3.99750968,5.22385763 3.99750968,5.5 C3.99750968,5.50082266 3.99751171,5.50164531 3.99751577,5.50246795 Z M7.99751577,5.50246795 L8.0073877,7.50246795 C8.00874596,7.77764367 8.23220255,8 8.50738161,8 L10.5048877,8 C10.7810301,8 11.0048877,7.77614237 11.0048877,7.5 C11.0048877,7.49917734 11.0048857,7.49835469 11.0048816,7.49753205 L10.9950097,5.49753205 C10.9936514,5.22235633 10.7701949,5 10.4950158,5 L8.49750968,5 C8.2213673,5 7.99750968,5.22385763 7.99750968,5.5 C7.99750968,5.50082266 7.99751171,5.50164531 7.99751577,5.50246795 Z M5.00406592,3.5 L5.00437038,3.51233616 C5.01106488,3.7835901 5.23288164,4 5.50421817,4 L9.51211741,4 C9.78161075,4 10.0000783,3.78153248 10.0000783,3.51203913 C10.0000783,3.50802563 10.0000288,3.50401228 9.99992974,3.5 L9.99962528,3.48766384 C9.99293078,3.2164099 9.77111402,3 9.49977749,3 L5.49187825,3 C5.22238491,3 5.00391738,3.21846752 5.00391738,3.48796087 C5.00391738,3.49197437 5.0039669,3.49598772 5.00406592,3.5 Z M5,11.5 C5.55228475,11.5 6,11.0522847 6,10.5 C6,9.94771525 5.55228475,9.5 5,9.5 C4.44771525,9.5 4,9.94771525 4,10.5 C4,11.0522847 4.44771525,11.5 5,11.5 Z M10,11.5 C10.5522847,11.5 11,11.0522847 11,10.5 C11,9.94771525 10.5522847,9.5 10,9.5 C9.44771525,9.5 9,9.94771525 9,10.5 C9,11.0522847 9.44771525,11.5 10,11.5 Z"></path>
</svg>
