<?xml version="1.0" encoding="UTF-8"?>
<!DOCTYPE svg PUBLIC "-//W3C//DTD SVG 1.1//EN" "http://www.w3.org/Graphics/SVG/1.1/DTD/svg11.dtd">
<svg version="1.1" xmlns="http://www.w3.org/2000/svg" xmlns:xlink="http://www.w3.org/1999/xlink" x="0" y="0" width="15" height="15" viewBox="0 0 15 15">
<path d="M11,8 C12,8.5 14,8.5 15,8 C15,8 15,14 15,14 C15,15 11,15 11,14 C11,14 11,8 11,8 z M11.5,4.5 C11.5,4.5 11.5,7.5 11.5,7.5 C11.5,8 14.5,8 14.5,7.5 C14.5,7.5 14.5,4.5 14.5,4.5 C14,5 12,5 11.5,4.5 z M12,2 C12,2 12,4 12,4 C12,4.5 14,4.5 14,4 C14,4 14,0.5 14,0.5 C14,0.5 12,1.5 12,2 z"/>
<path d="M7,5 C8.5,5 8.5,7 10,7 C10,7 8,10 5,10 C2,10 -0,7 0,7 C1.5,7 1.5,5 3,5 C4,5 5,6 5,6 C5,6 6,5 7,5 z M8,7 C6.5,7.5 3.5,7.5 2,7 C4.5,8.5 5.5,8.5 8,7 z"/>
</svg>
