<?xml version="1.0" encoding="UTF-8"?>
<svg viewBox="0 0 15 15" version="1.1" xmlns="http://www.w3.org/2000/svg" xmlns:xlink="http://www.w3.org/1999/xlink">
  <path d="M14.7071068,5.29289322 C15.0675907,5.65337718 15.0953203,6.22060824 14.7902954,6.61289944 L14.7071068,6.70710678 L11,10.414 L11,14 L9,14 L9,11 L2,11 L2,14 L0,14 L0,10 C0,9.48716416 0.38604019,9.06449284 0.883378875,9.00672773 L1,9 L9.584,9 L13.2928932,5.29289322 C13.6834175,4.90236893 14.3165825,4.90236893 14.7071068,5.29289322 Z M12.0606602,3.68933983 C12.609835,4.23851461 12.6441584,5.10757702 12.1636304,5.69673776 L12.0606602,5.81066017 L9.56066017,8.31066017 C9.08877004,8.78255031 8.36723388,8.88234072 7.78942307,8.57107997 L7.66794971,8.49807544 L5.438,7.012 L2.74420841,8.55236471 C2.0672426,8.93920232 1.21576644,8.74059711 0.775269382,8.11622804 L0.697635287,7.99420841 C0.310797683,7.3172426 0.509402886,6.46576644 1.13377196,6.02526938 L1.25579159,5.94763529 L4.75579159,3.94763529 C5.20424556,3.69137588 5.74933082,3.68544917 6.19990464,3.92327185 L6.33205029,4.00192456 L8.309,5.319 L9.93933983,3.68933983 C10.5251263,3.10355339 11.4748737,3.10355339 12.0606602,3.68933983 Z M13,0.75 C13.8284271,0.75 14.5,1.42157288 14.5,2.25 C14.5,3.07842712 13.8284271,3.75 13,3.75 C12.1715729,3.75 11.5,3.07842712 11.5,2.25 C11.5,1.42157288 12.1715729,0.75 13,0.75 Z"/>
</svg>