<?xml version="1.0" encoding="UTF-8"?>
<!DOCTYPE svg PUBLIC "-//W3C//DTD SVG 1.1//EN" "http://www.w3.org/Graphics/SVG/1.1/DTD/svg11.dtd">
<svg version="1.1" xmlns="http://www.w3.org/2000/svg" xmlns:xlink="http://www.w3.org/1999/xlink" x="0" y="0" width="15" height="15" viewBox="0 0 15 15">
<path d="M7.5,0 C11.625,0 15,3.375 15,7.5 C15,11.625 11.642,15 7.5,15 C3.358,15 0,11.625 0,7.5 C0,3.375 3.375,0 7.5,0 z M7.5,0.5 C3.625,0.5 0.5,3.625 0.5,7.5 C0.5,11.375 3.625,14.5 7.5,14.5 L7.5,14.5 C11.375,14.5 14.5,11.375 14.5,7.5 C14.5,3.625 11.375,0.5 7.5,0.5 z"/>
<path d="M8.75,1.125 C11.875,1.75 14,4.5 14,7.5 C14,10.5 11.875,13.25 8.75,13.875 C8.75,13.875 8.448,13 7.5,13 C6.5,13 6.25,13.875 6.25,13.875 C3.125,13.25 1,10.5 1,7.5 C1,4.5 3.125,1.75 6.25,1.125 C6.25,1.125 6.5,2 7.5,2 C8.5,2 8.75,1.125 8.75,1.125 z M11,11 L8.25,11 C7.75,11 7.75,12 8.25,12 L11,12 C11.5,12 11.5,11 11,11 z M6.75,11 L4,11 C3.5,11 3.5,12 4,12 L6.75,12 C7.25,12 7.25,11 6.75,11 z M6.75,9 L3,9 C2.5,9 2.5,10 3,10 L6.75,10 C7.25,10 7.25,9 6.75,9 z M12,9 L8.25,9 C7.75,9 7.75,10 8.25,10 L12,10 C12.5,10 12.5,9 12,9 z M12.5,7 L8.25,7 C7.75,7 7.75,8 8.25,8 L12.5,8 C13,8 13,7 12.5,7 z M6.75,7 L2.5,7 C2,7 2,8 2.5,8 L6.75,8 C7.25,8 7.25,7 6.75,7 z M6.75,5 L3,5 C2.5,5 2.5,6 3,6 L6.75,6 C7.25,6 7.25,5 6.75,5 z M12,5 L8.25,5 C7.75,5 7.75,6 8.25,6 L12,6 C12.5,6 12.5,5 12,5 z M11,3 L8.25,3 C7.75,3 7.75,4 8.25,4 L11,4 C11.5,4 11.5,3 11,3 z M6.75,3 L4,3 C3.5,3 3.5,4 4,4 L6.75,4 C7.25,4 7.25,3 6.75,3 z"/>
</svg>
