<?xml version="1.0" encoding="UTF-8"?>
<svg width="15px" height="15px" viewBox="0 0 15 15" version="1.1" xmlns="http://www.w3.org/2000/svg" xmlns:xlink="http://www.w3.org/1999/xlink">
    <path d="M11,12 L4,12 L4,12.5 C4,12.7761424 3.77614237,13 3.5,13 L0.5,13 C0.223857625,13 3.38176876e-17,12.7761424 0,12.5 L0,12 L0,11 L15,11 L15,12 L15,12.5 C15,12.7761424 14.7761424,13 14.5,13 L11.5,13 C11.2238576,13 11,12.7761424 11,12.5 L11,12 Z M9,3 L9,2.5 C9,2.22385763 9.22385763,2 9.5,2 L12.5,2 C12.7761424,2 13,2.22385763 13,2.5 L13,3 L14.5,3 C14.7761424,3 15,3.22385763 15,3.5 L15,4 L0,4 L0,3.5 C3.38176876e-17,3.22385763 0.223857625,3 0.5,3 L9,3 Z M5,10.5 L5,6.5 C5,6.22385763 4.77614237,6 4.5,6 L2.5,6 C2.22385763,6 2,6.22385763 2,6.5 L2,10.5 L0,10.5 L0,4.5 L15,4.5 L15,10.5 L5,10.5 Z M9,6 L7,6 L7,8 L9,8 L9,6 Z M13,6 L11,6 L11,8 L13,8 L13,6 Z"></path>
</svg>
