<?xml version="1.0" encoding="UTF-8"?>
<!DOCTYPE svg PUBLIC "-//W3C//DTD SVG 1.1//EN" "http://www.w3.org/Graphics/SVG/1.1/DTD/svg11.dtd">
<svg version="1.1" xmlns="http://www.w3.org/2000/svg" xmlns:xlink="http://www.w3.org/1999/xlink" x="0" y="0" width="15" height="15" viewBox="0 0 15 15">
<path d="M6.5,0.5 C6.5,0 8.5,0 8.5,0.5 C8.5,0.5 8.5,5 8.5,5 C8.5,5 14.75,14.5 14.75,14.5 C15,15 14,15 13.5,14.5 C13.5,14.5 8.5,7 8.5,7 C8.5,7 8.5,14.5 8.5,14.5 C8.5,15 6.5,15 6.5,14.5 C6.5,14.5 6.5,7 6.5,7 C6.5,7 1.5,14.5 1.5,14.5 C1,15 0,15 0.25,14.5 C0.25,14.5 6.5,5 6.5,5 z"/>
</svg>
