<?xml version="1.0" encoding="UTF-8"?>
<svg viewBox="0 0 15 15" version="1.1" xmlns="http://www.w3.org/2000/svg" xmlns:xlink="http://www.w3.org/1999/xlink">
  <path d="M5,9 L5,3 L8,3 L8,4 L6,4 L6,9 L8,9 L8,10 L2,10 L2,13 L5,13 L5,12 L3,12 L3,11 L8,11 L8,12 L6,12 L6,13 L12,13 L12,14 L1,14 L1,1 L2,1 L2,6 L4,6 L4,8 L3,8 L3,7 L2,7 L2,9 L5,9 Z M14,1 L14,14 L13,14 L13,12 L9,12 L9,9 L12,9 L12,10 L10,10 L10,11 L13,11 L13,8 L9,8 L9,6 L8,6 L8,8 L7,8 L7,5 L11,5 L11,4 L9,4 L9,3 L12,3 L12,6 L10,6 L10,7 L13,7 L13,2 L4,2 L4,5 L3,5 L3,1 L14,1 Z"/>
</svg>