<?xml version="1.0" encoding="UTF-8"?>
<svg width="15px" height="15px" viewBox="0 0 15 15" version="1.1" xmlns="http://www.w3.org/2000/svg" xmlns:xlink="http://www.w3.org/1999/xlink">
    <path d="M14.0962905,1.23798843 L14.4981995,1.82347429 C15.1441026,2.76440135 15.16792,3.9188559 14.5612183,4.87806343 C13.6175556,6.37003887 13.0545083,7.57776439 12.8720891,8.50124564 C12.7270759,9.2353624 12.6250376,10.0114359 12.5659742,10.829466 C12.4897636,11.884986 11.788967,12.8379301 10.7001162,13.3666624 L8.42985588,14.4690811 C6.17908943,15.5620249 3.30104554,14.9134235 2.00156493,13.0203894 L0.92111475,11.4464305 C-0.975082021,8.6841229 0.150205398,5.15197386 3.43451454,3.55715482 L10.0762323,0.332020547 C11.4837934,-0.351473328 13.2836347,0.0541423078 14.0962905,1.23798843 Z M13.0657351,1.94541721 C12.6146822,1.28834056 11.4902979,1.03494718 10.6222468,1.45646182 L3.98052903,4.6815961 C1.35877227,5.95468807 0.505660312,8.63250932 1.95167019,10.7390017 L3.03212037,12.3129606 C3.96999804,13.6792253 6.17258493,14.1756044 7.88383777,13.3446416 L10.1541017,12.2422211 C10.8568126,11.9009936 11.2765653,11.3302132 11.3192198,10.7394478 C11.3818928,9.8714246 11.4906034,9.0446033 11.6457853,8.25900861 C11.8638317,7.15516741 12.4859588,5.82070775 13.5047982,4.20987451 C13.843809,3.67389151 13.8311532,3.06044931 13.4676441,2.53090307 L13.0657351,1.94541721 Z M12.0351796,2.65284599 L12.4370887,3.23833185 C12.5182038,3.35649726 12.519698,3.42892713 12.448378,3.54168559 C11.3543693,5.27136514 10.6731565,6.73256333 10.4194814,8.01677159 C10.2541309,8.8538442 10.1387479,9.73141336 10.0724653,10.6494297 C10.0633671,10.7754404 9.92465811,10.964057 9.60808723,11.1177798 L7.33781966,12.2202021 C6.16608043,12.7891839 4.63895054,12.445027 4.06267582,11.6055318 L2.98222564,10.0315729 C1.98640265,8.58089575 2.56733913,6.75740227 4.52654351,5.80603737 L11.1682613,2.5809031 C11.4968024,2.42136769 11.9457297,2.52253881 12.0351796,2.65284599 Z M5.74881555,7.86293857 C5.69130273,7.88917654 5.63639364,7.92078214 5.58481819,7.95733524 C5.13195332,8.27829437 5.02502259,8.90560267 5.34598172,9.35846754 C5.34994384,9.36405799 5.35395401,9.36961423 5.35801176,9.37513565 C5.74859176,9.90660093 6.49605714,10.020811 7.02752242,9.63023103 L7.63461974,9.18406817 C8.11155577,8.83356235 8.37303997,8.26112848 8.32571435,7.67114323 C8.31950845,7.59377731 8.29985656,7.51808656 8.26764205,7.44747335 C8.11463728,7.11209166 7.71872183,6.96424595 7.38334014,7.11725072 L5.74881555,7.86293857 Z"></path>
</svg>
