<?xml version="1.0" encoding="UTF-8"?>
<svg width="15px" height="15px" viewBox="0 0 15 15" version="1.1" xmlns="http://www.w3.org/2000/svg" xmlns:xlink="http://www.w3.org/1999/xlink">
    <path d="M14,7 L14,13.4980157 C14,13.4986758 13.9999987,13.499336 13.9999961,13.4999961 C13.9989024,13.7761363 13.7741599,13.9991055 13.4980197,13.9980118 L8,13.9762357 L14,7 Z M7,13.5 L7,9 L2,9 C1.44771525,9 1,8.55228475 1,8 C1,7.44771525 1.44771525,7 2,7 L12.5,7 L7,13.5 Z M12.4587781,5.42034149 C11.9849513,6.10204251 11.2643666,6.49961088 10.5019218,6.49999829 C9.73880298,6.50094989 9.01712177,6.10394776 8.54241649,5.42206004 C8.0677112,4.74017231 7.89200911,3.84813328 8.06535103,3 L12.9346494,3 C13.1078377,3.84738389 12.9326049,4.73864048 12.4587781,5.42034149 Z M12.8333262,2.49982382 L8.16667385,2.49982382 C7.80579901,2.50947179 7.50739931,2.12164649 7.5,1.63335851 L7.5,1.54233734 C7.50581805,1.0923148 7.76168319,0.720782014 8.09303538,0.681211516 L12.75972,0.00715526988 C12.9443472,-0.0247158481 13.1303047,0.050821234 13.2714312,0.215015528 C13.4125578,0.379209823 13.4956204,0.616665353 13.5,0.868437219 L13.5,1.63335851 C13.4926007,2.12164649 13.194201,2.50947179 12.8333262,2.49982382 Z"></path>
</svg>
