<?xml version="1.0" encoding="UTF-8"?>
<svg width="15px" height="15px" viewBox="0 0 15 15" version="1.1" xmlns="http://www.w3.org/2000/svg" xmlns:xlink="http://www.w3.org/1999/xlink">
    <path d="M7,6 L7,1 L8,1 L8,6 L9.5,6 C9.77614237,6 10,6.22385763 10,6.5 L10,12.5 C10,12.7761424 9.77614237,13 9.5,13 L5.5,13 C5.22385763,13 5,12.7761424 5,12.5 L5,6.5 C5,6.22385763 5.22385763,6 5.5,6 L7,6 Z M7,7 L6,7 L6,9 L9,9 L9,7 L8,7 L7,7 Z M4,1 L4,14 L2,14 C1.44771525,14 1,13.5522847 1,13 L1,2 C1,1.44771525 1.44771525,1 2,1 L4,1 Z M11,1 L13,1 C13.5522847,1 14,1.44771525 14,2 L14,13 C14,13.5522847 13.5522847,14 13,14 L11,14 L11,1 Z M9,10 L8,10 L8,11 L9,11 L9,10 Z"></path>
</svg>
