<?xml version="1.0" encoding="UTF-8"?>
<svg width="15px" height="15px" viewBox="0 0 15 15" version="1.1" xmlns="http://www.w3.org/2000/svg" xmlns:xlink="http://www.w3.org/1999/xlink">
    <path d="M7,7 L9.86721778,7 C9.95423125,7 10.0397384,6.97729234 10.1152873,6.93412157 L10.875,6.5 C11.0033338,6.42666641 11.0479203,6.26318269 10.9745867,6.1348489 C10.9269369,6.05146173 10.838259,6 10.7422178,6 L7,6 L7,1 L13,1 C13.5522847,1 14,1.44771525 14,2 L14,13 C14,13.5522847 13.5522847,14 13,14 L2,14 C1.44771525,14 1,13.5522847 1,13 L1,2 C1,1.44771525 1.44771525,1 2,1 L4,1 L4,11.5 C4,11.7761424 4.22385763,12 4.5,12 L6.5,12 C6.77614237,12 7,11.7761424 7,11.5 L7,10 L11.8672178,10 C11.9542313,10 12.0397384,9.97729234 12.1152873,9.93412157 L12.875,9.5 C13.0033338,9.42666641 13.0479203,9.26318269 12.9745867,9.1348489 C12.9269369,9.05146173 12.838259,9 12.7422178,9 L7,9 L7,7 Z"></path>
</svg>
