<?xml version="1.0" encoding="UTF-8"?>
<!DOCTYPE svg PUBLIC "-//W3C//DTD SVG 1.1//EN" "http://www.w3.org/Graphics/SVG/1.1/DTD/svg11.dtd">
<svg version="1.1" xmlns="http://www.w3.org/2000/svg" xmlns:xlink="http://www.w3.org/1999/xlink" x="0" y="0" width="15" height="15" viewBox="0 0 15 15">
<path d="M11,0 C11,-0 11,6 11,6 C11,6 10,5.25 9.5,5.25 C8.75,5.25 8.25,6.25 9,7 C9,7 11,9 11,9 C11,9 11,11.5 11,11.5 C11,11.5 4,11.5 4,11.5 C4,11.5 4,0 4,0 L11,0 z M4.5,9.5 C4.5,10 4.5,11 4.5,11 C4.5,11 6,11 6,11 C6,10 5.5,9.5 4.5,9.5 z M10.5,9.5 C9.5,9.5 9,10 9,11 L10.5,11 L10.5,9.5 z M7.25,4.5 C5.991,4.5 5.5,5.172 5.5,6 C5.5,6.828 6,7.5 7.25,7.5 C8.25,7.5 8.5,7 8.5,7 C8,6.25 8.25,5.5 8.75,5 C8.75,5 8.25,4.5 7.25,4.5 z M10.5,0.5 L9,0.5 C9,1.5 9.5,2 10.5,2 L10.5,0.5 z M6,0.5 L4.5,0.5 C4.5,0.5 4.5,2 4.5,2 C5.5,2 6,1.5 6,0.5 z"/>
<path d="M3.5,11 C3.5,11 4.5,12 4.5,12 C4.5,12 10.5,12 10.5,12 C10.5,12 11.5,11 11.5,11 C11.5,11 11.5,9 11.5,9 C11.5,9 9.224,6.947 9,6.5 C8.75,6 9,5 10.5,6 C11.43,6.62 12.5,7.5 13,8 C13.5,8.5 14,11 14,12 C14,13 12,15 12,15 L8,15 C8,15 6.131,13.849 5,13 C1,10 1,8 3.5,9.5 C1,8 0.5,6 3.5,7.5 C0.5,6 0.5,4 3.5,5.5 C0.5,4 2,3 3.5,3.75 C3.5,3.75 3.5,11 3.5,11 z"/>
</svg>
