<?xml version="1.0" encoding="UTF-8"?>
<!DOCTYPE svg PUBLIC "-//W3C//DTD SVG 1.1//EN" "http://www.w3.org/Graphics/SVG/1.1/DTD/svg11.dtd">
<svg version="1.1" xmlns="http://www.w3.org/2000/svg" xmlns:xlink="http://www.w3.org/1999/xlink" x="0" y="0" width="15" height="15" viewBox="0, 0, 15, 15">
    <path d="M4,12.014 L3,10.965 L3,4.147 L5.5,1 L9.5,1 L12,4.147 L12,10.965 L11,12.014 L9.5,12.014 L9.5,13.587 L8.5,13.587 L8.5,12.539 L8,12.014 L7,12.014 L6.5,12.539 L6.5,13.587 L5.5,13.587 L5.5,12.014 L4,12.014 z M11,8.343 L9,8.343 L8.5,9.392 L8.5,9.916 L10.5,9.916 L11,9.392 L11,8.343 z M6,8.343 L4,8.343 L4,9.392 L4.5,9.916 L6.5,9.916 L6.5,9.392 L6,8.343 z M10.5,4.147 L4.5,4.147 L4,4.671 L4,6.769 L11,6.769 L11,4.671 L10.5,4.147 z M9.5,1.524 L5.5,1.524 L5.5,2.573 L9.5,2.573 L9.5,1.524 z M8,12.539 L7,12.539 L7,14.112 L6,14.112 L6,14.636 L9,14.636 L9,14.112 L8,14.112 L8,12.539 z" fill="#000000" id="monorail"/>
</svg>
