<?xml version="1.0" encoding="UTF-8"?>
<svg width="15px" height="15px" viewBox="0 0 15 15" version="1.1" xmlns="http://www.w3.org/2000/svg" xmlns:xlink="http://www.w3.org/1999/xlink">
    <path d="M13,2 L13,8.76393202 C13,8.91917712 12.9638549,9.07229018 12.8944272,9.21114562 L11.2763932,12.4472136 C11.1070012,12.7859976 10.7607381,13 10.381966,13 L10,13 C9.72385763,13 9.5,12.7761424 9.5,12.5 L9.5,10.75 C9.5,10.3357864 9.16421356,10 8.75,10 L6.25,10 C5.83578644,10 5.5,10.3357864 5.5,10.75 L5.5,12.5 C5.5,12.7761424 5.27614237,13 5,13 L4.61803399,13 C4.23926193,13 3.89299881,12.7859976 3.7236068,12.4472136 L2.10557281,9.21114562 C2.03614509,9.07229018 2,8.91917712 2,8.76393202 L2,2 C2,0.8954305 2.8954305,-1.6423927e-13 4,-1.65423231e-13 L11,-1.64313008e-13 C12.1045695,-1.64515914e-13 13,0.8954305 13,2 Z M6.5,10.5 L8.5,10.5 C8.77614237,10.5 9,10.7238576 9,11 L9,12.5 C9,12.7761424 8.77614237,13 8.5,13 L8,13 L8,15 L7,15 L7,13 L6.5,13 C6.22385763,13 6,12.7761424 6,12.5 L6,11 C6,10.7238576 6.22385763,10.5 6.5,10.5 Z M3,3.5 L3,5.5 C3,5.77614237 3.22385763,6 3.5,6 L11.5,5.99999556 C11.7761406,5.99999556 11.9999975,5.77614064 12,5.5 L12.0000266,3.5 C12.0000291,3.22385763 11.7761734,2.99999801 11.5000311,2.99999556 L3.5,3 C3.22385763,3 3,3.22385763 3,3.5 Z M4,1.49999446 C4,1.77613378 4.22385515,1.99998893 4.49999446,1.99998893 L10.4999848,1.99998893 C10.7761258,1.99998893 10.9999839,1.77613546 10.9999896,1.49999446 C10.9999954,1.22386086 10.7761495,1.00000572 10.5000159,1 C10.5000124,1 10.500009,1 10.5000055,1 L4.49999446,1 C4.22385515,1 4,1.22385515 4,1.49999446 Z M9,8.5 C9,8.77614237 9.22385763,9 9.5,9 L10.935945,9 C11.1172741,9 11.2843916,8.90182731 11.372678,8.74344248 L11.9300952,7.74344248 C11.971584,7.66901192 11.9933621,7.58521288 11.9933621,7.5 C11.9933621,7.22385763 11.7695045,7 11.4933621,7 L9.5,7 C9.22385763,7 9,7.22385763 9,7.5 L9,8.5 Z M6,8.5 L6,7.5 C6,7.22385763 5.77614237,7 5.5,7 L3.50663789,7 C3.23049552,7 3.00663789,7.22385763 3.00663789,7.5 C3.00663789,7.58521288 3.02841597,7.66901192 3.06990484,7.74344248 L3.62732196,8.74344248 C3.71560838,8.90182731 3.8827259,9 4.06405501,9 L5.5,9 C5.77614237,9 6,8.77614237 6,8.5 Z"></path>
</svg>
