<?xml version="1.0" encoding="UTF-8"?>
<svg width="15px" height="15px" viewBox="0 0 15 15" version="1.1" xmlns="http://www.w3.org/2000/svg" xmlns:xlink="http://www.w3.org/1999/xlink">
    <path d="M9.16148352,7 L7.5,7 C7.22385763,7 7,6.77614237 7,6.5 C7,6.22385763 7.22385763,6 7.5,6 L9.48835319,6 C9.51924472,5.99928477 9.54992437,6.00146076 9.58002126,6.006369 C9.66130594,6.01944402 9.73603759,6.05211288 9.79921726,6.09937663 C9.84824393,6.13517294 9.89376358,6.18424599 9.92860573,6.24237217 C9.94434062,6.26849356 9.95775511,6.29617076 9.96856386,6.32511845 L11.0385165,9 L11.5,9 C12.8807119,9 14,10.1192881 14,11.5 C14,12.8807119 12.8807119,14 11.5,14 C10.1192881,14 9,12.8807119 9,11.5 C9,11.3287671 9.01721513,11.161555 9.05000906,11 L8,11 C8,11.5522847 7.55228475,12 7,12 L5.94999094,12 C5.71835578,13.1411202 4.70947896,14 3.5,14 C2.11928813,14 1,12.8807119 1,11.5 C1,10.290521 1.85887984,9.28164422 3,9.05000906 L3,9 L6,9 L9.60134865,8.09966284 L9.16148352,7 Z M4.91464715,12 L4,12 C3.44771525,12 3,11.5522847 3,11 L3,10.0853529 C2.41740381,10.2912711 2,10.8468906 2,11.5 C2,12.3284271 2.67157288,13 3.5,13 C4.15310941,13 4.70872894,12.5825962 4.91464715,12 L4.91464715,12 Z M10.5105282,10.3726118 C10.197549,10.647522 10,11.050691 10,11.5 C10,12.3284271 10.6715729,13 11.5,13 C12.3284271,13 13,12.3284271 13,11.5 C13,10.6715729 12.3284271,10 11.5,10 C11.4795699,10 11.4592351,10.0004084 11.4390035,10.0012176 L11.9642383,11.3143047 C12.066795,11.5706964 11.9420871,11.8616816 11.6856953,11.9642383 C11.4293036,12.066795 11.1383184,11.9420871 11.0357617,11.6856953 L10.5105282,10.3726118 L10.5105282,10.3726118 Z M12,2 C12.5527,2 13,2.4478 13,3 C13,3.5522 12.5527,4 12,4 L5.7889,4 C5.4028,4.8821 4.5246,5.5 3.5,5.5 C2.4754,5.5 1.5972,4.8821 1.2111,4 L3.5,4 L4,3 L3.5,2 L1.2111,2 C1.5971,1.1177 2.4753,0.5 3.5,0.5 C4.5247,0.5 5.4029,1.1177 5.7889,2 L12,2 Z M5,8.49884545 L2,8.49884545 L2,7 L4,7 C4.55228475,7 5,7.44771525 5,8 L5,8.49884545 Z"></path>
</svg>
