<?xml version="1.0" encoding="UTF-8"?>
<svg width="15px" height="15px" viewBox="0 0 15 15" version="1.1" xmlns="http://www.w3.org/2000/svg" xmlns:xlink="http://www.w3.org/1999/xlink">
    <path d="M9.16148352,5.000133 L7.5,5.000133 C7.22385763,5.000133 7,4.77627538 7,4.500133 C7,4.22399063 7.22385763,4.000133 7.5,4.000133 L9.48835319,4.000133 C9.51924472,3.99941777 9.54992437,4.00159376 9.58002126,4.006502 C9.66130594,4.01957702 9.73603759,4.05224588 9.79921726,4.09950964 C9.84824393,4.13530594 9.89376358,4.184379 9.92860573,4.24250518 C9.94434062,4.26862656 9.95775511,4.29630376 9.96856386,4.32525145 L11.0385165,7.000133 L11.5,7.000133 C12.8807119,7.000133 14,8.11942113 14,9.500133 C14,10.8808449 12.8807119,12.000133 11.5,12.000133 C10.1192881,12.000133 9,10.8808449 9,9.500133 C9,9.32890008 9.01721513,9.16168797 9.05000906,9.000133 L8,9.000133 C8,9.55241775 7.55228475,10.000133 7,10.000133 L5.94999094,10.000133 C5.71835578,11.1412532 4.70947896,12.000133 3.5,12.000133 C2.11928813,12.000133 1,10.8808449 1,9.500133 C1,8.29065405 1.85887984,7.28177723 3,7.05014206 L3,7.000133 L6,7.000133 L9.60134865,6.09979584 L9.16148352,5.000133 Z M4.91464715,10.000133 L4,10.000133 C3.44771525,10.000133 3,9.55241775 3,9.000133 L3,8.08548586 C2.41740381,8.29140406 2,8.84702359 2,9.500133 C2,10.3285601 2.67157288,11.000133 3.5,11.000133 C4.15310941,11.000133 4.70872894,10.5827292 4.91464715,10.000133 L4.91464715,10.000133 Z M10.5105282,8.37274478 C10.197549,8.64765497 10,9.05082397 10,9.500133 C10,10.3285601 10.6715729,11.000133 11.5,11.000133 C12.3284271,11.000133 13,10.3285601 13,9.500133 C13,8.67170588 12.3284271,8.000133 11.5,8.000133 C11.4795699,8.000133 11.4592351,8.00054144 11.4390035,8.0013506 L11.9642383,9.31443766 C12.066795,9.57082942 11.9420871,9.86181465 11.6856953,9.96437135 C11.4293036,10.0669281 11.1383184,9.9422201 11.0357617,9.68582834 L10.5105282,8.37274478 L10.5105282,8.37274478 Z M5,6.49897845 L2,6.49897845 L2,5.000133 L4,5.000133 C4.55228475,5.000133 5,5.44784825 5,6.000133 L5,6.49897845 Z"></path>
</svg>
