<?xml version="1.0" encoding="UTF-8"?>
<svg viewBox="0 0 15 15" version="1.1" xmlns="http://www.w3.org/2000/svg" xmlns:xlink="http://www.w3.org/1999/xlink">
  <path d="M9.16 5L7.5 5C7.22 5 7 4.78 7 4.5C7 4.22 7.22 4 7.5 4L9.49 4C9.52 4 9.55 4 9.58 4.01C9.66 4.02 9.74 4.05 9.8 4.1C9.85 4.14 9.89 4.18 9.93 4.24C9.94 4.27 9.96 4.3 9.97 4.33L11.04 7L11.5 7C12.88 7 14 8.12 14 9.5C14 10.88 12.88 12 11.5 12C10.12 12 9 10.88 9 9.5C9 9.33 9.02 9.16 9.05 9L8 9C8 9.55 7.55 10 7 10L5.95 10C5.72 11.14 4.71 12 3.5 12C2.12 12 1 10.88 1 9.5C1 8.29 1.86 7.28 3 7.05L3 7L6 7L9.6 6.1L9.16 5ZM4.91 10L4 10C3.45 10 3 9.55 3 9L3 8.09C2.42 8.29 2 8.85 2 9.5C2 10.33 2.67 11 3.5 11C4.15 11 4.71 10.58 4.91 10L4.91 10ZM10.51 8.37C10.2 8.65 10 9.05 10 9.5C10 10.33 10.67 11 11.5 11C12.33 11 13 10.33 13 9.5C13 8.67 12.33 8 11.5 8C11.48 8 11.46 8 11.44 8L11.96 9.31C12.07 9.57 11.94 9.86 11.69 9.96C11.43 10.07 11.14 9.94 11.04 9.69L10.51 8.37L10.51 8.37ZM5 6.5L2 6.5L2 5L4 5C4.55 5 5 5.45 5 6L5 6.5Z"/>
</svg>