<?xml version="1.0" encoding="UTF-8"?>
<svg width="15px" height="15px" viewBox="0 0 15 15" version="1.1" xmlns="http://www.w3.org/2000/svg" xmlns:xlink="http://www.w3.org/1999/xlink">
    <path d="M10.959507,4.19219792 C10.9225352,4.12881764 10.8433099,4.0971275 10.7693662,4.11297257 L7.14612676,4.85240919 C7.07746479,4.86825426 7.00880282,4.84184581 6.97183099,4.78902891 L5.08098592,2.41755004 C5.00704225,2.32247961 4.85387324,2.3277613 4.79049296,2.43339511 L0,12.9967754 L14.9735915,12.9967754 L10.959507,4.19219792 Z M9.98239437,9.74325426 C9.98239437,9.8277613 9.91373239,9.89642328 9.82922535,9.89642328 L8.36091549,9.89642328 C8.27640845,9.89642328 8.20774648,9.96508525 8.20774648,10.0495923 L8.20774648,11.5179021 C8.20774648,11.6024092 8.13908451,11.6710712 8.05457746,11.6710712 L6.58626761,11.6710712 C6.50176056,11.6710712 6.43309859,11.6024092 6.43309859,11.5179021 L6.43309859,10.0495923 C6.43309859,9.96508525 6.36443662,9.89642328 6.27992958,9.89642328 L4.81690141,9.89642328 C4.73239437,9.89642328 4.66373239,9.8277613 4.66373239,9.74325426 L4.66373239,8.2749444 C4.66373239,8.19043736 4.73239437,8.12177539 4.81690141,8.12177539 L6.28521127,8.12177539 C6.36971831,8.12177539 6.43838028,8.05311342 6.43838028,7.96860638 L6.43838028,6.50029652 C6.43838028,6.41578947 6.50704225,6.3471275 6.5915493,6.3471275 L8.05985915,6.3471275 C8.1443662,6.3471275 8.21302817,6.41578947 8.21302817,6.50029652 L8.21302817,7.96860638 C8.21302817,8.05311342 8.28169014,8.12177539 8.36619718,8.12177539 L9.83450704,8.12177539 C9.91901408,8.12177539 9.98767606,8.19043736 9.98767606,8.2749444 L9.98767606,9.74325426 L9.98239437,9.74325426 Z"></path>
</svg>
