<?xml version="1.0" encoding="UTF-8"?>
<svg width="15px" height="15px" viewBox="0 0 15 15" version="1.1" xmlns="http://www.w3.org/2000/svg" xmlns:xlink="http://www.w3.org/1999/xlink">
    <path d="M5.93122287,4.83952003 L6.7044817,3.02565617 C6.84038071,2.70687245 7.15345765,2.5 7.5,2.5 C7.84666185,2.5 8.15996852,2.70659322 8.29652531,3.02522573 L10,6.5 L10.7044817,5.02565617 C10.8403807,4.70687245 11.1534577,4.5 11.5,4.5 C11.8466618,4.5 12.1599685,4.70659322 12.2965253,5.02522573 L14.8648154,11.6512332 C14.9541639,11.881746 15,12.1268265 15,12.3740496 L15,13 C15,13.5522848 14.5522847,14 14,14 L1.49999999,14.0000001 C0.671572867,14.0000001 -8.61262573e-09,13.3284272 -8.61262583e-09,12.5000001 C-4.019222e-09,11.3333334 -2.00960772e-09,10.1666667 6.57173826e-15,9 C6.26989618e-15,7.2503288 0.853698464,5.36711172 1.53984433,3.75759218 L2.7044817,1.02565617 C2.84038071,0.706872454 3.15345765,0.5 3.5,0.5 C3.84666185,0.5 4.15996852,0.706593217 4.29652531,1.02522573 L5.93122287,4.83952003 Z M11.5,5.75 L9.5,10.5 L11.5,9.5 L12.5,11.5 L13.5,10.5 L11.5,5.75 Z M3.5,1.75 L1.5,6.5 L3.5,5.5 L4.5,7.5 L5.5,6.5 L3.5,1.75 Z M7.5,3.75 L5.5,8.5 L7.5,7.5 L8.5,9.5 L9.5,8.5 L7.5,3.75 Z"></path>
</svg>
