<?xml version="1.0" encoding="UTF-8"?>
<svg width="15px" height="15px" viewBox="0 0 15 15" version="1.1" xmlns="http://www.w3.org/2000/svg" xmlns:xlink="http://www.w3.org/1999/xlink">
    <path d="M5.93122287,4.83952003 L6.7044817,3.02565617 C6.84038071,2.70687245 7.15345765,2.5 7.5,2.5 C7.84666185,2.5 8.15996852,2.70659322 8.29652531,3.02522573 L10,6.5 L10.7044817,5.02565617 C10.8403807,4.70687245 11.1534577,4.5 11.5,4.5 C11.8466618,4.5 12.1599685,4.70659322 12.2965253,5.02522573 C13.7655084,8.00840858 14.5,10.1666667 14.5,11.5 C14.5,13.5 12.9288451,14.499809 11.4644225,14.499809 C10,14.499809 6.28716785,14.1498792 4.5,13.5 C4.06426219,13.3415499 3.65571755,13.182269 3.27436607,13.0221575 C1.59351323,12.3164759 0.5,10.6713772 0.5,8.84839811 C0.5,7.09872691 0.853698464,5.36711172 1.53984433,3.75759218 L2.7044817,1.02565617 C2.84038071,0.706872454 3.15345765,0.5 3.5,0.5 C3.84666185,0.5 4.15996852,0.706593217 4.29652531,1.02522573 L5.93122287,4.83952003 Z M11.5,5.75 L9.5,10.5 L11.5,9.5 L12.5,11.5 L13.5,10.5 L11.5,5.75 Z M3.5,1.75 L1.5,6.5 L3.5,5.5 L4.5,7.5 L5.5,6.5 L3.5,1.75 Z M7.5,3.75 L5.5,8.5 L7.5,7.5 L8.5,9.5 L9.5,8.5 L7.5,3.75 Z"></path>
</svg>
