<?xml version="1.0" encoding="utf-8"?>
<!-- Generator: Adobe Illustrator 24.0.1, SVG Export Plug-In . SVG Version: 6.00 Build 0)  -->
<svg version="1.1" id="Bergrettung" xmlns="http://www.w3.org/2000/svg" xmlns:xlink="http://www.w3.org/1999/xlink" x="15px" y="15px"
	 viewBox="0 0 283.5 212.6" style="enable-background:new 0 0 283.5 212.6;" xml:space="preserve">
<style type="text/css">
	.st0{fill:#24915A;}
</style>
<path class="st0" d="M207.5,45.9c-0.7-1.2-2.2-1.8-3.6-1.5l-68.6,14c-1.3,0.3-2.6-0.2-3.3-1.2L96.2,12.3c-1.4-1.8-4.3-1.7-5.5,0.3
	L0,212.6h283.5L207.5,45.9z M189,151c0,1.6-1.3,2.9-2.9,2.9h-27.8c-1.6,0-2.9,1.3-2.9,2.9v27.8c0,1.6-1.3,2.9-2.9,2.9h-27.8
	c-1.6,0-2.9-1.3-2.9-2.9v-27.8c0-1.6-1.3-2.9-2.9-2.9H91.2c-1.6,0-2.9-1.3-2.9-2.9v-27.8c0-1.6,1.3-2.9,2.9-2.9h27.8
	c1.6,0,2.9-1.3,2.9-2.9V89.6c0-1.6,1.3-2.9,2.9-2.9h27.8c1.6,0,2.9,1.3,2.9,2.9v27.8c0,1.6,1.3,2.9,2.9,2.9h27.8
	c1.6,0,2.9,1.3,2.9,2.9V151z"/>
</svg>
