<?xml version="1.0" encoding="UTF-8"?>
<svg viewBox="0 0 15 15" version="1.1" xmlns="http://www.w3.org/2000/svg" xmlns:xlink="http://www.w3.org/1999/xlink">
  <path d="M5,1 L7,4 L10.5,2.5 L14.9735915,12.9967754 L0,12.9967754 L5,1 Z M8,5 L7,5 C6.75454011,5 6.55039163,5.17687516 6.50805567,5.41012437 L6.5,5.5 L6.5,7.499 L4.5,7.5 C4.25454011,7.5 4.05039163,7.67687516 4.00805567,7.91012437 L4,8 L4,9 C4,9.24545989 4.17687516,9.44960837 4.41012437,9.49194433 L4.5,9.5 L6.5,9.499 L6.5,11.5 C6.5,11.7454599 6.67687516,11.9496084 6.91012437,11.9919443 L7,12 L8,12 C8.24545989,12 8.44960837,11.8231248 8.49194433,11.5898756 L8.5,11.5 L8.5,9.5 L10.5,9.5 C10.7454599,9.5 10.9496084,9.32312484 10.9919443,9.08987563 L11,9 L11,8 C11,7.75454011 10.8231248,7.55039163 10.5898756,7.50805567 L10.5,7.5 L8.5,7.5 L8.5,5.5 C8.5,5.25454011 8.32312484,5.05039163 8.08987563,5.00805567 L8,5 Z"/>
</svg>