<?xml version="1.0" encoding="UTF-8"?>
<svg width="15px" height="15px" viewBox="0 0 15 15" version="1.1" xmlns="http://www.w3.org/2000/svg" xmlns:xlink="http://www.w3.org/1999/xlink">
    <path d="M12.6078435,6.79412141 L13,11.5 L11,11.5 L11.3921565,6.79412141 C11.1537337,6.6113504 11,6.32362842 11,6 L11,5.5 L13,5.5 L13,6 C13,6.32362842 12.8462663,6.6113504 12.6078435,6.79412141 Z M9.60784345,6.79412141 L10,11.5 L8,11.5 L8.39215655,6.79412141 C8.1537337,6.6113504 8,6.32362842 8,6 L8,5.5 L10,5.5 L10,6 C10,6.32362842 9.8462663,6.6113504 9.60784345,6.79412141 Z M6.60784345,6.79412141 L7,11.5 L5,11.5 L5.39215655,6.79412141 C5.1537337,6.6113504 5,6.32362842 5,6 L5,5.5 L7,5.5 L7,6 C7,6.32362842 6.8462663,6.6113504 6.60784345,6.79412141 Z M3.60784345,6.79412141 L4,11.5 L2,11.5 L2.39215655,6.79412141 C2.1537337,6.6113504 2,6.32362842 2,6 L2,5.5 L4,5.5 L4,6 C4,6.32362842 3.8462663,6.6113504 3.60784345,6.79412141 Z M7.5,1 L14,3.5 L14,5 L1,5 L1,3.5 L7.5,1 Z M1.5,12 L13.5,12 L14,13 L14,14 L1,14 L1,13 L1.5,12 Z"></path>
</svg>
