<?xml version="1.0" encoding="UTF-8"?>
<!DOCTYPE svg PUBLIC "-//W3C//DTD SVG 1.1//EN" "http://www.w3.org/Graphics/SVG/1.1/DTD/svg11.dtd">
<svg version="1.1" xmlns="http://www.w3.org/2000/svg" xmlns:xlink="http://www.w3.org/1999/xlink" x="0" y="0" width="15" height="15" viewBox="0 0 15 15">
<path d="M9,8.2 C9,8.2 10,14 10,14 C10,14 11.5,14 11.5,14 C12,14 12,15 11.5,15 C11.5,15 3.5,15 3.5,15 C3,15 3,14 3.5,14 C3.5,14 5,14 5,14 C5,14 6,8.2 6,8.2 C7,8.875 8,8.875 9,8.2 z M8.4,12 L6.6,12 L6.3,14 L8.7,14 L8.4,12 z M8,9.25 C8,9.25 7,9.25 7,9.25 L6.75,11 L8.25,11 C8.25,11 8,9.25 8,9.25 z M9.75,6.625 C9.734,7 9.562,7.594 9.25,7.9 C9.25,7.9 13,9.38 13,9.38 L13,14.625 C13,15.125 14,15.125 14,14.625 L14,9.75 C14.75,10 15.25,8.7 14.5,8.45 C14.5,8.45 9.75,6.625 9.75,6.625 z M3.5,1 C-0,1 -1,9.5 1.25,9.5 C2,9.5 3.239,5.602 3.239,5.602 C3.239,5.602 5.25,6.35 5.25,6.35 C5.25,5.944 5.5,5.375 5.766,5.094 C5.766,5.094 3.712,4.306 3.712,4.306 C3.712,4.306 4.5,1.854 4.5,1.5 C4.5,1.25 4,1 3.5,1 z M7.5,8 C8.375,8 9,7.375 9,6.5 C9,5.625 8.375,5 7.5,5 C6.625,5 6,5.641 6,6.516 C6,7.391 6.625,8 7.5,8 z"/>
</svg>
