<?xml version="1.0" encoding="UTF-8"?>
<svg width="15px" height="15px" viewBox="0 0 15 15" version="1.1" xmlns="http://www.w3.org/2000/svg" xmlns:xlink="http://www.w3.org/1999/xlink">
    <path d="M8.05000906,3.5 L12.9499912,3.5 C12.982785,3.66155444 13,3.82876598 13,3.99999829 C13,5.38071017 11.8807119,6.49999829 10.4999991,6.49999829 C9.11928774,6.49999829 8,5.38071055 8,4 C8,3.82876708 8.01721513,3.66155497 8.05000906,3.5 Z M12.7919786,3 L8.20802186,3 L6.25,3 C6.11192881,3 6,2.88807119 6,2.75 C6,2.59759286 6.08860482,2.45909094 6.22697568,2.39520477 L8,1.57659504 L8.00002722,0.667976028 C8.00002722,0.391848689 8.22387266,0.168003253 8.5,0.168003253 C8.54298604,0.168003253 8.58579262,0.17354686 8.62736059,0.184496911 C10.6912053,0.728165637 12.1487518,1 13,1 C13.1920884,1 13.3587835,1 13.5000852,1 L13.5000852,1.00008525 C13.7761805,1.00008525 14,1.2239047 14,1.5 L14,2.5 C14,2.77614237 13.7761424,3 13.5,3 L12.7919786,3 Z M14,7 L14,13.4980157 C14,13.4986758 13.9999987,13.499336 13.9999961,13.4999961 C13.9989024,13.7761363 13.7741599,13.9991055 13.4980197,13.9980118 L8,13.9762357 L14,7 Z M7,13.5 L7,9 L2,9 C1.44771525,9 1,8.55228475 1,8 C1,7.44771525 1.44771525,7 2,7 L12.5,7 L7,13.5 Z M1.5,1 L4.5,1 C4.77614237,1 5,1.22385763 5,1.5 L5,5.5 C5,5.77614237 4.77614237,6 4.5,6 L1.5,6 C1.22385763,6 1,5.77614237 1,5.5 L1,1.5 C1,1.22385763 1.22385763,1 1.5,1 Z M3,2 C2.44771525,2 2,2.44771525 2,3 C2,3.55228475 2.44771525,4 3,4 C3.55228475,4 4,3.55228475 4,3 C4,2.44771525 3.55228475,2 3,2 Z"></path>
</svg>
