<?xml version="1.0" encoding="UTF-8"?>
<svg width="15px" height="15px" viewBox="0 0 15 15" version="1.1" xmlns="http://www.w3.org/2000/svg" xmlns:xlink="http://www.w3.org/1999/xlink">
    <path d="M3.94725,0.9922125 C3.3200625,0.992212537 2.8116375,1.5003 2.8116375,2.127825 C2.8116375,2.7560625 3.3200625,3.26535 3.94725,3.26535 C4.5751875,3.26535 5.084775,2.7560625 5.084775,2.127825 C5.084775,1.5003 4.5751875,0.9922125 3.94725,0.9922125 Z M10.77075,1.9011 C10.14285,1.9011 9.633225,2.4107625 9.633225,3.038625 C9.633225,3.666525 10.14285,4.1742375 10.77075,4.1742375 C11.39865,4.1742375 11.9063625,3.666525 11.9063625,3.038625 C11.9063625,2.4107625 11.39865,1.9011 10.77075,1.9011 Z M2.81175,3.4921125 L1.6761375,4.6296375 L0.9920625,6.41055 L0.9920625,6.8272125 L1.6761375,6.8272125 L2.81175,4.6296375 L2.81175,6.41055 L3.7768125,7.7380125 C4.0206,7.4328 4.393125,7.25745 4.7845125,7.1082 L4.63141875,6.827205 L4.63141875,5.2129425 L6.24373125,6.35823 C6.3320025,6.25548 6.40240875,6.13803375 6.44914875,5.99778375 C6.48847875,5.88003375 6.52518375,5.76165 6.55960875,5.64315 L3.49387125,3.492075 L2.81175,3.4921125 Z M9.19125,3.72078375 C9.06614625,3.71815875 8.9447475,3.7659975 8.85599625,3.8544975 L7.03630875,5.672235 C6.85878375,5.8497975 6.85878375,6.1378725 7.03630875,6.3156225 L8.26882125,7.546185 L8.26882125,9.6313725 C8.26507125,9.882585 8.46532125,10.091085 8.71645875,10.094535 C8.96762625,10.098285 9.17388375,9.89619375 9.17767125,9.6449475 L9.17767125,7.358235 C9.17764163,7.238235 9.13175625,7.122045 9.047835,7.036545 L8.3598975,6.35247 L9.41991,5.261445 L10.1795475,6.267195 C10.2654675,6.3808275 10.399305,6.449355 10.5419325,6.449355 L12.36162,6.449355 C12.5240888,6.45198 12.6756825,6.36599625 12.758895,6.22649625 C12.8421038,6.08710875 12.8439675,5.9132175 12.7647075,5.77109625 C12.6854475,5.62934625 12.5357175,5.540835 12.373245,5.5385475 L10.7706075,5.5385475 L9.541995,3.902985 C9.458835,3.791985 9.32987625,3.724275 9.19123875,3.720825 L9.19125,3.72078375 Z M2.497875,7.06169625 L1.2188625,10.5789712 L1.6742625,10.9956337 L2.1432375,10.9956337 L3.195525,7.83104625 L2.497875,7.06169625 Z M5.9957625,7.35819375 C4.74,7.35819375 3.720675,8.37751875 3.720675,9.63328125 C3.720675,10.8890813 4.74,11.9064188 5.9957625,11.9064188 C7.003425,11.9064188 7.8581625,11.2503938 8.1565125,10.3425563 C7.94829375,10.1759063 7.8135075,9.92053125 7.8135075,9.63328125 L7.8135075,8.72248125 C7.8135075,8.59685625 7.8391575,8.4769725 7.88521125,8.3678475 C7.47724875,7.758735 6.78391125,7.3581975 5.99577375,7.3581975 L5.9957625,7.35819375 Z M11.4527625,7.35819375 C10.664625,7.35819375 9.9693,7.75873125 9.561375,8.36784375 C9.607455,8.47659375 9.633075,8.5968525 9.633075,8.7224775 L9.633075,9.631365 C9.633075,9.9188025 9.50021625,10.1756775 9.292005,10.3425525 C9.5903175,11.25039 10.4450925,11.906415 11.452755,11.906415 C12.7085175,11.906415 13.7258925,10.8871275 13.7258925,9.6313275 C13.7258925,8.375565 12.7085175,7.35819 11.452755,7.35819 L11.4527625,7.35819375 Z M5.9957625,8.26708125 C6.7492125,8.26708125 7.36005,8.87791875 7.36005,9.63136875 C7.36005,10.3848562 6.7492125,10.9956562 5.9957625,10.9956562 C5.2423125,10.9956562 4.631475,10.3848562 4.631475,9.63136875 C4.63147463,8.87791875 5.2423125,8.26708125 5.9957625,8.26708125 Z M11.4527625,8.26708125 C12.2062125,8.26708125 12.81705,8.87791875 12.81705,9.63136875 C12.81705,10.3848562 12.2062125,10.9956562 11.4527625,10.9956562 C10.6993125,10.9956562 10.088475,10.3848562 10.088475,9.63136875 C10.088475,8.87791875 10.6993125,8.26708125 11.4527625,8.26708125 Z M1.9843875,12.4025813 L0.992175,13.8908812 L3.968775,13.8908812 L4.9609875,12.4025813 L1.9843875,12.4025813 Z M6.4491375,12.4025813 L5.456925,13.8908812 L9.42555,13.8908812 L8.4333375,12.4025813 L6.4491375,12.4025813 Z M9.921825,12.4025813 L10.9140375,13.8908812 L13.8906375,13.8908812 L12.898425,12.4025813 L9.921825,12.4025813 Z"></path>
</svg>
