<?xml version="1.0" encoding="UTF-8"?>
<!DOCTYPE svg PUBLIC "-//W3C//DTD SVG 1.1//EN" "http://www.w3.org/Graphics/SVG/1.1/DTD/svg11.dtd">
<svg version="1.1" xmlns="http://www.w3.org/2000/svg" xmlns:xlink="http://www.w3.org/1999/xlink" x="0" y="0" width="15" height="15" viewBox="0 0 15 15">
    <path d="M9.375,1.958 C9.375,2.764 8.675,3.417 7.812,3.417 C6.95,3.417 6.25,2.764 6.25,1.958 C6.25,1.153 6.95,0.5 7.812,0.5 C8.675,0.5 9.375,1.153 9.375,1.958 z M6.25,4 L6.875,4 L7.188,4 L12.5,7.792 L12.5,8.667 L11.875,8.667 L8.75,6.406 L8.75,8.667 L10,11 L11.25,13.917 L10.625,14.5 L10,14.5 L8.75,11.583 L6.25,8.083 L6.25,5.367 L4.688,6.625 L3.438,8.667 L2.5,8.667 L2.5,8.083 L3.438,6.333 L6.25,4 z M6.777,10.07 L5.332,14.5 L4.687,14.5 L4.062,13.917 L5.82,8.995 z"/>
</svg>
