<?xml version="1.0" encoding="UTF-8" standalone="no"?><!DOCTYPE svg PUBLIC "-//W3C//DTD SVG 1.1//EN" "http://www.w3.org/Graphics/SVG/1.1/DTD/svg11.dtd"><svg width="100%" height="100%" viewBox="0 0 15 15" version="1.1" xmlns="http://www.w3.org/2000/svg" xmlns:xlink="http://www.w3.org/1999/xlink" xml:space="preserve" xmlns:serif="http://www.serif.com/" style="fill-rule:evenodd;clip-rule:evenodd;stroke-linejoin:round;stroke-miterlimit:2;"><path d="M9.21,2c1.27,0 2.29,1.03 2.29,2.31l0,6.38c0,1.28 -1.02,2.31 -2.29,2.31l-3.42,-0c-1.27,-0 -2.29,-1.03 -2.29,-2.31l-0,-6.38c-0,-1.28 1.02,-2.31 2.29,-2.31l3.42,-0Zm-1.71,6c-0.83,-0 -1.5,0.67 -1.5,1.5c-0,0.83 0.67,1.5 1.5,1.5c0.83,-0 1.5,-0.67 1.5,-1.5c0,-0.83 -0.67,-1.5 -1.5,-1.5Zm0,-4.5c-0.83,-0 -1.5,0.67 -1.5,1.5c0,0.83 0.67,1.5 1.5,1.5c0.83,-0 1.5,-0.67 1.5,-1.5c0,-0.83 -0.67,-1.5 -1.5,-1.5Z" style="fill-rule:nonzero;"/></svg>