<?xml version="1.0" encoding="UTF-8"?>
<svg width="15" height="15" version="1.1" viewBox="0 0 3.9687 3.9688" xmlns="http://www.w3.org/2000/svg">
 <path d="m1.0526 0.26459c-0.16725 1e-8 -0.30283 0.13549-0.30283 0.30283 0 0.16753 0.13558 0.30334 0.30283 0.30334 0.16745 0 0.30334-0.13581 0.30334-0.30334 0-0.16734-0.13589-0.30283-0.30334-0.30283zm1.8196 0.24237c-0.16744 0-0.30334 0.13591-0.30334 0.30334 0 0.16744 0.1359 0.30283 0.30334 0.30283 0.16744 0 0.30283-0.13539 0.30283-0.30283 0-0.16743-0.13539-0.30334-0.30283-0.30334zm-2.1224 0.42427-0.30283 0.30334-0.18242 0.47491v0.11111h0.18242l0.30283-0.58602v0.47491l0.25735 0.35399c0.06501-0.08139 0.16435-0.12815 0.26872-0.16795l-0.040825-0.074932v-0.43047l0.42995 0.30541c0.023539-0.0274 0.042314-0.058719 0.054778-0.096119 0.010488-0.0314 0.020276-0.062969 0.029456-0.094569l-0.81753-0.57362zm1.7012 0.060979c-0.033361-7e-4 -0.065734 0.012057-0.089401 0.035657l-0.48525 0.48473c-0.04734 0.04735-0.04734 0.12417 0 0.17157l0.32867 0.32815v0.55605c-1e-3 0.06699 0.0524 0.12259 0.11937 0.12351 0.066978 1e-3 0.12198-0.052891 0.12299-0.11989v-0.60979c-7.9e-6 -0.032-0.012244-0.062984-0.034623-0.085784l-0.18345-0.18242 0.28267-0.29094 0.20257 0.2682c0.022912 0.030302 0.058602 0.048576 0.096636 0.048576h0.48525c0.043325 7e-4 0.08375-0.022229 0.10594-0.059429 0.022189-0.03717 0.022686-0.083541 0.00155-0.12144-0.021136-0.0378-0.061064-0.061403-0.10439-0.062013h-0.42737l-0.32763-0.43615c-0.022176-0.0296-0.056565-0.047656-0.093535-0.048576zm-1.7849 0.89091-0.34107 0.93794 0.12144 0.11111h0.12506l0.28061-0.84389zm0.93277 0.079066c-0.33487 0-0.60669 0.27182-0.60669 0.60669 0 0.33488 0.27182 0.60617 0.60669 0.60617 0.26871 0 0.49664-0.17494 0.5762-0.41703-0.055525-0.04444-0.091468-0.11254-0.091468-0.18914v-0.24288c0-0.0335 0.00684-0.065469 0.019121-0.094569-0.10879-0.16243-0.29368-0.26924-0.50385-0.26924zm1.4552 0c-0.21017 0-0.39559 0.10681-0.50437 0.26924 0.012288 0.029 0.01912 0.061069 0.01912 0.094569v0.24237c0 0.07665-0.035429 0.14515-0.090952 0.18965 0.07955 0.24209 0.30749 0.41703 0.5762 0.41703 0.33487 0 0.60617-0.27181 0.60617-0.60669 0-0.33487-0.2713-0.60617-0.60617-0.60617zm-1.4552 0.24237c0.20092 0 0.36381 0.16289 0.36381 0.36381 0 0.20093-0.16289 0.36381-0.36381 0.36381s-0.36381-0.16288-0.36381-0.36381c-1e-7 -0.20092 0.16289-0.36381 0.36381-0.36381zm1.4552 0c0.20092 0 0.36381 0.16289 0.36381 0.36381 0 0.20093-0.16289 0.36381-0.36381 0.36381-0.20092 0-0.36381-0.16288-0.36381-0.36381 0-0.20092 0.16289-0.36381 0.36381-0.36381zm-2.5249 1.1028-0.26459 0.39688h0.79376l0.26459-0.39688zm1.1906 0-0.26459 0.39688h1.0583l-0.26459-0.39688zm0.92605 0 0.26459 0.39688h0.79376l-0.26459-0.39688z" stroke-width=".26458"/>
</svg>
