<?xml version="1.0" encoding="UTF-8"?>
<svg width="15px" height="15px" viewBox="0 0 15 15" version="1.1" xmlns="http://www.w3.org/2000/svg" xmlns:xlink="http://www.w3.org/1999/xlink">
    <path d="M1.5,1 L1.5,1 C1.77614237,1 2,1.22385763 2,1.5 L2,13.5 C2,13.7761424 1.77614237,14 1.5,14 L1.5,14 C1.22385763,14 1,13.7761424 1,13.5 L1,1.5 C1,1.22385763 1.22385763,1 1.5,1 Z M13.5,1 L13.5,1 C13.7761424,1 14,1.22385763 14,1.5 L14,13.5 C14,13.7761424 13.7761424,14 13.5,14 L13.5,14 C13.2238576,14 13,13.7761424 13,13.5 L13,1.5 C13,1.22385763 13.2238576,1 13.5,1 Z M9,3.24957148 C9,3.94034967 8.44,4.5 7.7496,4.5 C7.06,4.5 6.5,3.94034967 6.5,3.24957148 C6.5,2.55965033 7.06,2 7.7496,2 C8.44,2 9,2.55965033 9,3.24957148 Z M6.5,4.75 L7.2504,4.75 L11.5,7.72942857 L11.5,8.41692857 L11,8.41692857 L8.5,6.64042857 L8.5,8.41692857 L9.5,10.25 L10.5,12.5419286 L10,13 L9.5,13 L8.5,10.7080714 L6.5,7.95807143 L6.5,5.82407143 L5.2504,6.8125 L4.2504,8.41692857 L3.5,8.41692857 L3.5,7.95807143 L4.2504,6.58307143 L6.5,4.75 Z M6.9216,9.51928571 L5.7656,13 L5.2496,13 L4.7496,12.5419286 L6.156,8.67464286 L6.9216,9.51928571 Z"></path>
</svg>
