<?xml version="1.0" encoding="UTF-8"?>
<svg width="15px" height="15px" viewBox="0 0 15 15" version="1.1" xmlns="http://www.w3.org/2000/svg" xmlns:xlink="http://www.w3.org/1999/xlink">
    <path d="M9,2.24957148 C9,2.94034967 8.44,3.5 7.7496,3.5 C7.06,3.5 6.5,2.94034967 6.5,2.24957148 C6.5,1.55965033 7.06,1 7.7496,1 C8.44,1 9,1.55965033 9,2.24957148 Z M6.5,3.75 L7.2504,3.75 L11.5,6.72942857 L11.5,7.41692857 L11,7.41692857 L8.5,5.64042857 L8.5,7.41692857 L9.5,9.25 L10.5,11.5419286 L10,12 L9.5,12 L8.5,9.70807143 L6.5,6.95807143 L6.5,4.82407143 L5.2504,5.8125 L4.2504,7.41692857 L3.5,7.41692857 L3.5,6.95807143 L4.2504,5.58307143 L6.5,3.75 Z M6.9216,8.51928571 L5.7656,12 L5.2496,12 L4.7496,11.5419286 L6.156,7.67464286 L6.9216,8.51928571 Z M2,12.5 L5,12.5 L4,14 L1,14 L2,12.5 Z M6.5,12.5 L8.5,12.5 L9.5,14 L5.5,14 L6.5,12.5 Z M13,12.5 L14,14 L11,14 L10,12.5 L13,12.5 Z"></path>
</svg>
