<?xml version="1.0" encoding="UTF-8"?>
<!DOCTYPE svg PUBLIC "-//W3C//DTD SVG 1.1//EN" "http://www.w3.org/Graphics/SVG/1.1/DTD/svg11.dtd">
<svg version="1.1" xmlns="http://www.w3.org/2000/svg" xmlns:xlink="http://www.w3.org/1999/xlink" x="0" y="0" width="15" height="15" viewBox="0 0 15 15">
<path d="M9,4 C11.5,4 12.5,5 12.5,7.5 C12.5,9 11.5,13 11.5,13 C11,15 9.5,15 7.5,15 C5.5,15 4,15 3.5,13 C3.5,13 2.5,9 2.5,7.5 C2.5,5 3.5,4 6,4 L9,4 z M7,5 C3,5 3.5,7.5 4,10 C4,7.5 4,6 7,5 z"/>
<path d="M8.5,0 C9.5,0 9.75,1 9.75,1.5 L11,1.5 C11,1 11.5,0.5 12.5,0.5 C13.5,0.5 14.5,1 14.5,1.75 C14.5,2.5 13.5,3 12.5,3 C11.5,3 11,2.5 11,2 L9.75,2 C9.75,2.5 9.5,3.5 8.5,3.5 C7.5,3.5 7.5,3.5 6.5,3.5 C5.5,3.5 5.5,2.5 5.5,2.25 C6.25,2.25 6.25,1.25 5.5,1.25 C5.5,1 5.5,0 6.5,0 L8.5,0 z"/>
<path d="M3.755,0.927 L4.25,0.997 C4.387,1.017 4.482,1.144 4.462,1.28 C4.443,1.417 4.316,1.512 4.179,1.492 L3.684,1.422 C3.548,1.402 3.453,1.276 3.472,1.139 C3.492,1.002 3.619,0.907 3.755,0.927 z M2.27,0.715 C2.134,0.695 2.007,0.79 1.987,0.927 C1.968,1.064 2.063,1.19 2.2,1.21 L2.695,1.28 C2.831,1.3 2.958,1.205 2.977,1.068 C2.997,0.932 2.902,0.805 2.765,0.785 L2.27,0.715 z M0.785,0.503 C0.649,0.483 0.522,0.578 0.503,0.715 C0.483,0.851 0.578,0.978 0.715,0.997 L1.21,1.068 C1.346,1.088 1.473,0.993 1.492,0.856 C1.512,0.719 1.417,0.593 1.28,0.573 L0.785,0.502 z M1.21,2.427 L0.715,2.498 C0.578,2.517 0.483,2.644 0.503,2.78 C0.522,2.917 0.649,3.012 0.785,2.992 L1.28,2.922 C1.417,2.902 1.512,2.776 1.492,2.639 C1.473,2.502 1.346,2.407 1.21,2.427 z M2.695,2.215 L2.2,2.285 C2.063,2.305 1.968,2.432 1.987,2.568 C2.007,2.705 2.134,2.8 2.27,2.78 L2.765,2.71 C2.902,2.69 2.997,2.564 2.977,2.427 C2.958,2.29 2.831,2.195 2.695,2.215 z M4.179,2.003 L3.684,2.073 C3.548,2.093 3.453,2.219 3.472,2.356 C3.492,2.493 3.619,2.588 3.755,2.568 L4.25,2.498 C4.387,2.478 4.482,2.351 4.462,2.215 C4.443,2.078 4.316,1.983 4.179,2.003 z"/>
</svg>
