<?xml version="1.0" encoding="UTF-8"?>
<svg version="1.2" baseProfile="tiny" xmlns="http://www.w3.org/2000/svg" viewBox="0 0 50 50" overflow="inherit">
  <path d="M25 21.47c2.8 0 5.16 1.9 5.82 4.47c0.84 3.22 0.72 6.75 4.4 8.58c3.26 1.11 4.5 2.51 4.5 6.25c0 2.99 -2.55 6.16 -5.85 6.55c-3.68 0.55 -6.55 -0.17 -8.87 -1.49c-2.32 1.32 -5.19 2.05 -8.87 1.49c-3.29 -0.4 -5.85 -3.58 -5.85 -6.55c0 -3.66 1.32 -5.21 4.57 -6.27c4.01 -2.05 3.47 -5.63 4.36 -8.72c0.72 -2.49 3.04 -4.31 5.78 -4.31zm18.36 -2.22c-0.99 -0.86 -5.05 2.51 -6.32 4.17c-0.77 0.89 -1.26 2.11 -1.26 3.46c0 2.71 1.94 4.91 4.33 4.91c1.82 0 3.37 -1.26 4.01 -3.06c1.25 -3.23 1.32 -7.67 -0.76 -9.48zm-36.72 0c-2.08 1.81 -2.01 6.25 -0.76 9.48c0.64 1.8 2.2 3.06 4.01 3.06c2.39 0 4.33 -2.2 4.33 -4.91c0 -1.35 -0.48 -2.57 -1.26 -3.46c-1.28 -1.67 -5.33 -5.03 -6.32 -4.17zm23.69 -17.71c10.09 1.71 9.38 18.7 1.3 17.33c-2.33 -0.4 -4.06 -2.52 -4.32 -5.05c-0.27 -2.58 -0.87 -12.94 3.02 -12.28zm-10.67 0c3.89 -0.66 3.29 9.7 3.02 12.28c-0.26 2.54 -1.99 4.66 -4.32 5.05c-8.08 1.37 -8.79 -15.62 1.3 -17.33z"/>
</svg>