<?xml version="1.0" encoding="UTF-8"?>
<svg width="15px" height="15px" viewBox="0 0 15 15" version="1.1" xmlns="http://www.w3.org/2000/svg" xmlns:xlink="http://www.w3.org/1999/xlink">
    <path d="M11.5,6 C12,6 12,6.5 12,6.5 L12,7 C12.5,7 13,7 13.5,7.5 L15,9 C15,9 15,10 14,10 L12.5,10 L10.5,8.5 L11,6.5 C11.1543,6.0371 11.5,6 11.5,6 Z M6.5,7 C7.1762,6.9904 7.1762,8.0096 6.5,8 C6.5,8 6.3534,8.0069 6.2227,8.0723 C6.0919,8.1376 6,8.1667 6,8.5 L6,9 L9.498,9 L11,10 C11.3678,10.2449 12,10.6094 12,11.5 L12,14 C12,14 12.5,14 12.5,14.5 C12.5,15 12,15 12,15 L11.5,15 C11.5,15 11,14.9999 10.6641,13.9922 L10,12 L7,12 L7,14.5 C7,14.5 7,15 6.5,15 C6,15 6,14.5 6,14.5 L6,12.7012 C5.6906,12.8629 5.3537,13 5,13 L5,14.5 C5,14.5 5,15 4.5,15 C4,15 4,14.5 4,14.5 L4,12.5 C4,12 4.5,12 4.5,12 C5,12 5,11.5 5,10.5 L5,10 L5,9.5 C4.9996,9.4883 4.9996,9.4766 5,9.4648 L5,8.5 C5,7.8333 5.408,7.3623 5.7773,7.1777 C6.1466,6.9931 6.5,7 6.5,7 Z M8.0000093,3.00001262 L8.0000093,5.50001262 C8.0000093,5.776155 7.77615168,6.00001262 7.5000093,6.00001262 C7.22386693,6.00001262 7.0000093,5.776155 7.0000093,5.50001262 L7.0000093,3.00001262 L6.0000093,3.00001262 L6.0000093,5.50001262 C6.0000093,5.776155 5.77615168,6.00001262 5.5000093,6.00001262 C5.22386693,6.00001262 5.0000093,5.776155 5.0000093,5.50001262 L5.0000093,3.00001262 L4.0000093,3.00001262 L4.0000093,5.50001262 C4.0000093,5.776155 3.77615168,6.00001262 3.5000093,6.00001262 C3.22386693,6.00001262 3.0000093,5.776155 3.0000093,5.50001262 L3.0000093,3.00001262 L2.0000093,3.00001262 L2.00000793,5.50001262 C2.00000793,5.77615446 1.77615114,6.00001187 1.5000093,6.00001262 C1.22385763,6.00001729 0.999999385,5.77616028 0.999998627,5.5000179 L1.00000002,2.64392583 C1.00000096,2.23756406 1.24590556,1.87161004 1.62213997,1.7180602 C2.79508789,1.2393534 4.087711,1 5.5000093,1 C6.91231759,1 8.204949,1.23935679 9.37790353,1.71807036 L9.37789354,1.71809484 C9.75411432,1.87164043 10.0000094,2.23758223 10.0000094,2.64392977 L10.0000115,5.50001537 C10.0000116,5.77615774 9.776154,6.00001542 9.50001162,6.00001547 C9.22386746,6.00001187 9.00001067,5.77615446 9.00001067,5.50001262 L9.0000093,3.00001262 L8.0000093,3.00001262 Z"></path>
</svg>
