<?xml version="1.0" encoding="UTF-8"?>
<svg width="15px" height="15px" viewBox="0 0 15 15" version="1.1" xmlns="http://www.w3.org/2000/svg" xmlns:xlink="http://www.w3.org/1999/xlink">
    <path d="M6.65685425,6.70073773 L8.4246212,8.46850468 L6.00712129,10.8860046 C5.26660878,11.6265171 4.65032174,12.4815697 4.18198052,13.4182521 L3.61307034,14.5560725 C3.52837433,14.7254645 3.35524277,14.8324657 3.16585674,14.8324657 L2.06066017,14.8324657 L0.646446609,13.4182521 C0.451184464,13.22299 0.451184464,12.9064075 0.646446609,12.7111454 L6.65685425,6.70073773 Z M10.8994949,3.16520382 L11.9601551,4.22586399 C12.1554173,4.42112614 12.1554173,4.73770863 11.9601551,4.93297077 L11.2530483,5.64007755 L9.48528137,3.8723106 L10.1923882,3.16520382 C10.3876503,2.96994167 10.7042328,2.96994167 10.8994949,3.16520382 Z M13.7803167,11.7028798 L10.1923882,8.11495129 C9.80186386,7.724427 9.16869888,7.724427 8.77817459,8.11495129 L7.01040764,6.34718434 C7.31043898,6.04715299 7.31043898,5.56070607 7.01040764,5.26067473 C6.96314959,5.21341668 6.90992715,5.17252703 6.85208814,5.13904128 L4.35875721,3.69553391 L2.94454365,2.28132034 L5.06586399,0.16 L10.8994949,5.99363094 L14.4874235,10.9957731 L13.7803167,11.7028798 Z"></path>
</svg>
