<?xml version="1.0" encoding="UTF-8"?>
<svg width="15px" height="15px" viewBox="0 0 15 15" version="1.1" xmlns="http://www.w3.org/2000/svg" xmlns:xlink="http://www.w3.org/1999/xlink">
    <path d="M4,7 L4,14 L2,14 L2,7.78 L1,8.16 L1,6 L14,1 L14,3.14 L4,7 Z M6.75,7 L12.25,7 C12.6655,7 13,7.3345 13,7.75 C13,8.1655 12.6655,8.5 12.25,8.5 L11,8.5 L11.4609,10 L13.25,10 C13.6655,10 14,10.3345 14,10.75 C14,11.1655 13.6655,11.5 13.25,11.5 L11.9238,11.5 L13,14 L12,14 L10.9239,11.5 L8.0762,11.5 L7,14 L6,14 L7.0762,11.5 L5.75,11.5 C5.3345,11.5 5,11.1655 5,10.75 C5,10.3345 5.3345,10 5.75,10 L7.5391,10 L8,8.5 L6.75,8.5 C6.3345,8.5 6,8.1655 6,7.75 C6,7.3345 6.3345,7 6.75,7 Z M9,8.5 L8.5391,10 L10.4609,10 L10,8.5 L9,8.5 Z"></path>
</svg>
