<?xml version="1.0" encoding="UTF-8"?>
<!DOCTYPE svg PUBLIC "-//W3C//DTD SVG 1.1//EN" "http://www.w3.org/Graphics/SVG/1.1/DTD/svg11.dtd">
<svg version="1.1" xmlns="http://www.w3.org/2000/svg" xmlns:xlink="http://www.w3.org/1999/xlink" x="0" y="0" width="15" height="15" viewBox="0 0 15 15">
<path d="M14,2 C15,2 14.5,3 14,3 C12,3 11.5,3.5 10,7 C8,11.5 6.75,13 3,13 C0.5,13 0.5,11 0.5,10 C0.5,9 0.5,8 1,7.25 C1.5,7.5 2.25,7.6 3,7.6 C3.75,7.6 4.5,7.5 5,7.25 C5.5,8 5.5,9 5.5,10 C5.5,10 7.5,9.5 9,6.5 C10.5,3 11.5,2 14,2 z M4.75,7 C4.25,6.8 3,6.8 3,6.8 C3,6.8 1.75,6.8 1.25,7 C1,7.2 2.25,7.4 3,7.4 C3.75,7.4 5,7.2 4.75,7 z"/>
</svg>
