<?xml version="1.0" encoding="UTF-8"?>
<svg width="15px" height="15px" viewBox="0 0 15 15" version="1.1" xmlns="http://www.w3.org/2000/svg" xmlns:xlink="http://www.w3.org/1999/xlink">
    <path d="M8.19238816,0.828427125 C8.66379268,1.29983165 8.42809042,2.00693843 7.48528137,2.94974747 L7.13172798,3.30330086 L7.48528137,7.19238816 L6.77817459,7.89949494 L5.36396103,5.07106781 L3.94974747,6.48528137 L3.94974747,7.89949494 L3.24264069,8.60660172 L2.53553391,6.48528137 L0.414213562,5.77817459 L1.12132034,5.07106781 L2.53553391,5.07106781 L3.94974747,3.65685425 L1.12132034,2.24264069 L1.82842712,1.53553391 L5.71751442,1.8890873 L6.07106781,1.53553391 C7.01387685,0.592724864 7.72098363,0.357022604 8.19238816,0.828427125 Z M6.82842712,14.1923882 C6.3570226,13.7209836 6.59272486,13.0138769 7.53553391,12.0710678 L7.8890873,11.7175144 L7.53553391,7.82842712 L8.24264069,7.12132034 L9.65685425,9.94974747 L11.0710678,8.53553391 L11.0710678,7.12132034 L11.7781746,6.41421356 L12.4852814,8.53553391 L14.6066017,9.24264069 L13.8994949,9.94974747 L12.4852814,9.94974747 L11.0710678,11.363961 L13.8994949,12.7781746 L13.1923882,13.4852814 L9.30330086,13.131728 L8.94974747,13.4852814 C8.00693843,14.4280904 7.29983165,14.6637927 6.82842712,14.1923882 Z"></path>
</svg>
