<?xml version="1.0" encoding="UTF-8"?>
<svg width="15px" height="15px" viewBox="0 0 15 15" version="1.1" xmlns="http://www.w3.org/2000/svg" xmlns:xlink="http://www.w3.org/1999/xlink">
    <path d="M9.98884723,8.87889949 C10.0049106,9.54420246 9.85472409,10.203064 9.55181564,10.7957568 C9.09771523,11.6842968 8.58044335,12.2253937 8,12.4190476 L8,13.5 C8,13.2238576 8.22385763,13 8.5,13 C8.77614237,13 9,13.2238576 9,13.5 L9,14.5 C9,14.7761424 8.77614237,15 8.5,15 C8.22385763,15 8,14.7761424 8,14.5 L7,14.5 C7,14.7761424 6.77614237,15 6.5,15 C6.22385763,15 6,14.7761424 6,14.5 L6,13.5 C6,13.2238576 6.22385763,13 6.5,13 C6.77614237,13 7,13.2238576 7,13.5 L7,12.4190476 C6.41954794,12.2253908 5.90226923,11.6842805 5.44816389,10.7957168 C5.14576468,10.2040017 4.99557853,9.54633958 5.01107574,8.88215992 L3,7.97759822 L3,9.5 C3,9.22385763 3.22385763,9 3.5,9 C3.77614237,9 4,9.22385763 4,9.5 L4,10.5 C4,10.7761424 3.77614237,11 3.5,11 C3.22385763,11 3,10.7761424 3,10.5 L2,10.5 C2,10.7761424 1.77614237,11 1.5,11 C1.22385763,11 1,10.7761424 1,10.5 L1,9.5 C1,9.22385763 1.22385763,9 1.5,9 C1.77614237,9 2,9.22385763 2,9.5 L2,7.52780825 L0.826545093,7 L0.0346264946,5.45648712 C-0.0443892179,5.30247916 0.0164040125,5.11357615 0.170411975,5.03456043 C0.214682679,5.01184679 0.263725121,5 0.313482579,5 L0.623204687,5 C0.753580437,5 0.878799807,5.05092431 0.972170323,5.14191763 L1.85267012,6 L5.27777866,6 C5.49268288,4.83951868 5.83228303,4.01571658 6.29657911,3.52859371 L4.85915128,2.96555955 C4.60202984,2.86484621 4.47523602,2.57476381 4.57594935,2.31764237 C4.65099394,2.12605333 4.83574678,2 5.0415089,2 L7,2 L7,0.5 C7,0.223857625 7.22385763,5.07265313e-17 7.5,0 C7.77614237,-5.07265313e-17 8,0.223857625 8,0.5 L8,2 L9.95863285,2 C10.2347752,2 10.4586329,2.22385763 10.4586329,2.5 C10.4586329,2.70576166 10.3325801,2.89051419 10.1409917,2.96555909 L8.70346447,3.52863637 C9.16773949,4.01576467 9.5073257,4.83955255 9.72222311,6 L13.1400454,6 L14.0205452,5.14191763 C14.1139157,5.05092431 14.2391351,5 14.3695109,5 L14.679233,5 C14.8523281,5 14.9926495,5.14032135 14.9926495,5.31341652 C14.9926495,5.36317397 14.9808027,5.41221642 14.9580891,5.45648712 L14.1661705,7 L13,7.52452658 L13,9.5 C13,9.22385763 13.2238576,9 13.5,9 C13.7761424,9 14,9.22385763 14,9.5 L14,10.5 C14,10.7761424 13.7761424,11 13.5,11 C13.2238576,11 13,10.7761424 13,10.5 L12,10.5 C12,10.7761424 11.7761424,11 11.5,11 C11.2238576,11 11,10.7761424 11,10.5 L11,9.5 C11,9.22385763 11.2238576,9 11.5,9 C11.7761424,9 12,9.22385763 12,9.5 L12,7.9743121 L9.9888473,8.87889946 Z M7,7.5 L6,8.5 C6.55553299,8.83333333 7.05552171,9 7.49996615,9 C7.9444106,9 8.44442188,8.83333333 9,8.5 L8,7.5 L7,7.5 Z"></path>
</svg>
