<?xml version="1.0" encoding="UTF-8"?>
<svg width="15px" height="15px" viewBox="0 0 15 15" version="1.1" xmlns="http://www.w3.org/2000/svg" xmlns:xlink="http://www.w3.org/1999/xlink">
    <path d="M4,4.61944317e-13 C4.66666667,4.62107604e-13 5,0.666666667 5,2 L5,2.5 L8,5 L8,6 L5,5 L5,7 L6,8 L6,9 L4,8 L2,9 L2,8 L3,7 L3,5 L2.0948888e-14,6 L2.11938174e-14,5 L3,2.5 L3,2 C3,0.666666667 3.33333333,4.61781031e-13 4,4.61944317e-13 Z M11,6 C11.6666667,6 12,6.66666667 12,8 L12,8.5 L15,11 L15,12 L12,11 L12,13 L13,14 L13,15 L11,14 L9,15 L9,14 L10,13 L10,11 L7,12 L7,11 L10,8.5 L10,8 C10,6.66666667 10.3333333,6 11,6 Z"></path>
</svg>
