<?xml version="1.0" encoding="UTF-8"?>
<svg viewBox="0 0 15 15" version="1.1" xmlns="http://www.w3.org/2000/svg" xmlns:xlink="http://www.w3.org/1999/xlink">
  <path d="M9.97578125,0 C9.97578125,2 9.65052084,3.5 9,4.5 C8.67066364,5.00626566 8.33718902,5.38437887 7.99957614,5.63433961 L7.99943986,6.99891808 C8.33204406,6.30575334 8.82244271,5.69365567 9.43768392,5.21513473 L11,4 C11,6.22419505 10.0398589,8.34012344 8.36598157,9.80476613 L8,10.124 L8.0000202,11.6566225 C8.7981186,10.0857973 10.1136862,8.83345324 11.7285786,8.11464056 L12,8 L12,9 C12,11.4185387 10.2828356,13.4360122 8.0011864,13.8997409 L8,15 L7,15 L6.99981203,13.8999437 C4.78898244,13.4510802 3.10790534,11.5434804 3.00499703,9.22556055 L3,9 L3,8 L3.27142139,8.11464056 C4.88699237,8.83375526 6.20298687,10.0868498 7.00098553,11.6586027 L7,10.125 L6.63401843,9.80476613 C5.03291835,8.40380356 4.08483975,6.40695766 4.00542478,4.28945378 L4,4 L5.56231608,5.21513473 C6.17814689,5.69411425 6.66889573,6.30692663 7.00151592,7.00091111 L7.001,6 L7,6 L7.001,5.979 L7.00142668,5.63508169 C6.66347133,5.38512748 6.32966244,5.00676692 6,4.5 C5.34947916,3.5 5.02421875,2 5.02421875,0 C6.07114811,0.634371172 6.9287048,1.70302558 7.43496206,3.00016853 L7.56503794,3.00016853 C8.0712952,1.70302558 8.92885189,0.634371172 9.97578125,0 Z"/>
</svg>