<?xml version="1.0" encoding="UTF-8"?>
<svg width="15px" height="15px" viewBox="0 0 15 15" version="1.1" xmlns="http://www.w3.org/2000/svg" xmlns:xlink="http://www.w3.org/1999/xlink">
    <path d="M4,1.64959658e-13 C4.55228475,1.64993476e-13 5,0.44771525 5,1 L5,2.5 L8,5 L8,6 L5,5 L5,7 L6,8 L6,9 L4,8 L2,9 L2,8 L3,7 L3,5 L4.18452036e-15,6 L4.42944972e-15,5 L3,2.5 L3,1 C3,0.44771525 3.44771525,1.79641662e-13 4,1.64959658e-13 Z M11,6 C11.5522847,6 12,6.44771525 12,7 L12,8.5 L15,11 L15,12 L12,11 L12,13 L13,14 L13,15 L11,14 L9,15 L9,14 L10,13 L10,11 L7,12 L7,11 L10,8.5 L10,7 C10,6.44771525 10.4477153,6 11,6 Z"></path>
</svg>
