<?xml version="1.0" encoding="UTF-8"?>
<svg width="15px" height="15px" viewBox="0 0 15 15" version="1.1" xmlns="http://www.w3.org/2000/svg" xmlns:xlink="http://www.w3.org/1999/xlink">
    <path d="M0.5,3 L14.5,3 C14.7761424,3 15,3.22385763 15,3.5 L15,11.5 C15,11.7761424 14.7761424,12 14.5,12 L0.5,12 C0.223857625,12 3.38176876e-17,11.7761424 0,11.5 L0,3.5 C-3.38176876e-17,3.22385763 0.223857625,3 0.5,3 Z M1,4 L1,11 L14,11 L14,4 L1,4 Z M1,9.5 C1.82842712,9.5 2.5,10.1715729 2.5,11 L1,11 L1,9.5 Z M1,5.5 L1,4 L2.5,4 C2.5,4.82842712 1.82842712,5.5 1,5.5 Z M14,5.5 C13.1715729,5.5 12.5,4.82842712 12.5,4 L14,4 L14,5.5 Z M14,9.5 L14,11 L12.5,11 C12.5,10.1715729 13.1715729,9.5 14,9.5 Z M3.5,6.05 C3.19624339,6.05 2.95,5.80375661 2.95,5.5 C2.95,5.19624339 3.19624339,4.95 3.5,4.95 L5.5,4.95 C5.80375661,4.95 6.05,5.19624339 6.05,5.5 C6.05,5.80375661 5.80375661,6.05 5.5,6.05 L3.5,6.05 Z M9.5,8.05 C9.19624339,8.05 8.95,7.80375661 8.95,7.5 C8.95,7.19624339 9.19624339,6.95 9.5,6.95 L11.5,6.95 C11.8037566,6.95 12.05,7.19624339 12.05,7.5 C12.05,7.80375661 11.8037566,8.05 11.5,8.05 L9.5,8.05 Z M7.5,6.05 C7.19624339,6.05 6.95,5.80375661 6.95,5.5 C6.95,5.19624339 7.19624339,4.95 7.5,4.95 L11.5,4.95 C11.8037566,4.95 12.05,5.19624339 12.05,5.5 C12.05,5.80375661 11.8037566,6.05 11.5,6.05 L7.5,6.05 Z M3.5,10.05 C3.19624339,10.05 2.95,9.80375661 2.95,9.5 C2.95,9.19624339 3.19624339,8.95 3.5,8.95 L5.5,8.95 C5.80375661,8.95 6.05,9.19624339 6.05,9.5 C6.05,9.80375661 5.80375661,10.05 5.5,10.05 L3.5,10.05 Z M7.5,10.05 C7.19624339,10.05 6.95,9.80375661 6.95,9.5 C6.95,9.19624339 7.19624339,8.95 7.5,8.95 L11.5,8.95 C11.8037566,8.95 12.05,9.19624339 12.05,9.5 C12.05,9.80375661 11.8037566,10.05 11.5,10.05 L7.5,10.05 Z M3.5,8.05 C3.19624339,8.05 2.95,7.80375661 2.95,7.5 C2.95,7.19624339 3.19624339,6.95 3.5,6.95 L7.5,6.95 C7.80375661,6.95 8.05,7.19624339 8.05,7.5 C8.05,7.80375661 7.80375661,8.05 7.5,8.05 L3.5,8.05 Z"></path>
</svg>
