<?xml version="1.0" encoding="UTF-8"?>
<svg width="15px" height="15px" viewBox="0 0 15 15" version="1.1" xmlns="http://www.w3.org/2000/svg" xmlns:xlink="http://www.w3.org/1999/xlink">
    <path d="M1,3 L14,3 L14,12 L1,12 L1,3 Z M2,4 L2,11 L13,11 L13,4 L2,4 Z M2,4 L3,4 C3,4.55228475 2.55228475,5 2,5 L2,4 Z M2,10 C2.55228475,10 3,10.4477153 3,11 L2,11 L2,10 Z M13,10 L13,11 L12,11 C12,10.4477153 12.4477153,10 13,10 Z M12,4 L13,4 L13,5 C12.4477153,5 12,4.55228475 12,4 Z M4.5,5 L5.5,5 C5.77614237,5 6,5.22385763 6,5.5 C6,5.77614237 5.77614237,6 5.5,6 L4.5,6 C4.22385763,6 4,5.77614237 4,5.5 C4,5.22385763 4.22385763,5 4.5,5 Z M7.5,5 L10.5,5 C10.7761424,5 11,5.22385763 11,5.5 C11,5.77614237 10.7761424,6 10.5,6 L7.5,6 C7.22385763,6 7,5.77614237 7,5.5 C7,5.22385763 7.22385763,5 7.5,5 Z M4.5,9 L5.5,9 C5.77614237,9 6,9.22385763 6,9.5 C6,9.77614237 5.77614237,10 5.5,10 L4.5,10 C4.22385763,10 4,9.77614237 4,9.5 C4,9.22385763 4.22385763,9 4.5,9 Z M7.5,9 L10.5,9 C10.7761424,9 11,9.22385763 11,9.5 C11,9.77614237 10.7761424,10 10.5,10 L7.5,10 C7.22385763,10 7,9.77614237 7,9.5 C7,9.22385763 7.22385763,9 7.5,9 Z M4.5,7 L7.5,7 C7.77614237,7 8,7.22385763 8,7.5 C8,7.77614237 7.77614237,8 7.5,8 L4.5,8 C4.22385763,8 4,7.77614237 4,7.5 C4,7.22385763 4.22385763,7 4.5,7 Z M9.5,7 L10.5,7 C10.7761424,7 11,7.22385763 11,7.5 C11,7.77614237 10.7761424,8 10.5,8 L9.5,8 C9.22385763,8 9,7.77614237 9,7.5 C9,7.22385763 9.22385763,7 9.5,7 Z"></path>
</svg>
