<?xml version="1.0" encoding="UTF-8"?>
<svg width="15px" height="15px" viewBox="0 0 15 15" version="1.1" xmlns="http://www.w3.org/2000/svg" xmlns:xlink="http://www.w3.org/1999/xlink">
    <path d="M6.00462162,10 L6,10.0051993 L6,14 L5,14 L5,11.1301993 L2.74740932,13.6643638 C2.3804913,14.0771466 1.74841893,14.1143273 1.33563616,13.7474093 C0.922853393,13.3804913 0.885672665,12.7484189 1.25259068,12.3356362 L5,8.11980068 L5,4 L4,4 L4,3 L7.5,1 L11,3 L11,4 L10,4 L10,8 L12.5,12 L12.9999946,12 C13.5522824,12 14,12.4477176 14,13.0000054 L14,13.0000054 C14,13.5522907 13.5522843,14.0000064 12.9999989,14.0000064 C12.9999975,14.0000064 12.9999961,14.0000064 12.9999946,14.0000064 L11.5,14 L10,11.6 L10,14 L9,14 L9,10 L6.00462162,10 Z M6.58932291,7.69201544 C6.59636906,7.6971675 6.60336559,7.70242422 6.61031047,7.70778573 C6.85921883,7.89144502 7.16693223,8 7.5,8 C8.32842712,8 9,7.32842712 9,6.5 C9,5.67157288 8.32842712,5 7.5,5 C6.67157288,5 6,5.67157288 6,6.5 C6,6.98593476 6.23106835,7.41790062 6.58932291,7.69201544 L6.58932291,7.69201544 Z"></path>
</svg>
