<?xml version="1.0" encoding="UTF-8"?>
<!DOCTYPE svg PUBLIC "-//W3C//DTD SVG 1.1//EN" "http://www.w3.org/Graphics/SVG/1.1/DTD/svg11.dtd">
<svg version="1.1" xmlns="http://www.w3.org/2000/svg" xmlns:xlink="http://www.w3.org/1999/xlink" x="0" y="0" width="15" height="15" viewBox="0 0 15 15">
<path d="M7,3 C7,3 7,6 7,6 C7,6.5 6,6.5 6,6 C6,6 2.5,6 2.5,6 C1.5,6 1,5.5 1,4.5 C1,4.5 1,1 1,1 C0.5,1 0.5,-0 1,-0 C1.5,-0 4,-0 4,-0 C4.5,-0 4.5,1 4,1 C4,1 4,2.5 4,2.5 C4,2.5 4,3 4.5,3 C4.5,3 6,3 6,3 C6,2.5 7,2.5 7,3 z M14,10 C14.5,10 14.5,9 14,9 C14,9 14,4.5 14,4.5 C14,3.5 13.5,3 12.5,3 C12.5,3 9,3 9,3 C9,2.5 8,2.5 8,3 C8,3 8,6 8,6 C8,6.5 9,6.5 9,6 C9,6 10.5,6 10.5,6 C11,6 11,6.5 11,6.5 C11,6.5 11,9 11,9 C10.5,9 10.5,10 11,10 C11,10 14,10 14,10 z"/>
<path d="M12.5,10.5 C12.75,10.5 14.25,12.25 14.25,13.5 C14.25,14.5 13.25,15 12.5,15 C11.75,15 10.75,14.5 10.75,13.5 C10.75,12.25 12.25,10.5 12.5,10.5 z M11.15,13.5 C11.15,14.1 11.75,14.7 12.5,14.7 C11.75,14.4 11.45,14.1 11.15,13.5 z"/>
</svg>
