<?xml version="1.0" encoding="UTF-8"?>
<svg width="15px" height="15px" viewBox="0 0 15 15" version="1.1" xmlns="http://www.w3.org/2000/svg" xmlns:xlink="http://www.w3.org/1999/xlink">
    <path d="M11,8 L11,14.4980157 C11,14.4986758 10.9999987,14.499336 10.9999961,14.4999961 C10.9989024,14.7761363 10.7741599,14.9991055 10.4980197,14.9980118 L5,14.9762357 L11,8 Z M4,14.5 L4,8.5 C4,8.22385763 4.22385763,8 4.5,8 L9.5,8 L4,14.5 Z M10,4 C10.0182914,4.08949704 10.0276633,4.41277247 10.0281201,4.96982629 C10.0281207,4.97051054 10.028121,4.97119479 10.028121,4.97187904 C10.028121,6.36812169 8.89624265,7.5 7.5,7.5 C7.48368752,7.5 7.46737544,7.49983913 7.45106613,7.49951741 C6.08103792,7.47249198 4.99231905,6.33995623 5.01934448,4.96992802 L5.01933242,4.96992778 C5.03017298,4.42037581 5.04551252,4.09706655 5.06535103,4 L7.49690029,4.99999915 L10,4 Z M11,2.75 L7.5,4.25 L4,2.75 L4,1 C4.92060932,0.952508174 5.58727598,0.869174841 6,0.75 C6.41272402,0.630825159 6.90045094,0.380825159 7.46318077,1.98768085e-13 C8.04213343,0.374012928 8.5544065,0.624012928 9,0.75 C9.4455935,0.875987072 10.1122602,0.959320405 11,1 L11,2.75 Z M8.5,2.01473447 C8.44213071,1.94282012 8.3766728,1.87735798 8.3047622,1.81948403 C7.75250623,1.37502614 6.94451,1.46241375 6.50005211,2.01466973 L6.5,2.01473447 L7.11046995,2.77331707 C7.13301327,2.80132986 7.15851258,2.82682918 7.18652538,2.8493725 C7.40165689,3.02249975 7.7164028,2.98844857 7.88953005,2.77331707 L8.5,2.01473447 Z"></path>
</svg>
