<?xml version="1.0" encoding="UTF-8"?>
<svg width="15px" height="15px" viewBox="0 0 15 15" version="1.1" xmlns="http://www.w3.org/2000/svg" xmlns:xlink="http://www.w3.org/1999/xlink">
    <path d="M10.9970365,6.34410364 C11.6656788,8.33787767 12,11.2231765 12,15 L3,15 C3,11.2231539 3.33432637,8.33784328 4.0029791,6.34406799 C4.00100381,6.23107177 4.00001616,6.11638244 4.00001616,6 C4.00001616,2 5.16668013,1.38999923e-13 7.50000808,1.38999923e-13 C9.83333603,1.38999923e-13 11,2 11,6 C11,6.11639468 10.9990122,6.23109589 10.9970365,6.34410364 Z M10.6414136,9.2262862 C10.1336125,11.0754287 9.08648111,12 7.50001953,12 C5.91353597,12 4.86639406,11.0754152 4.35859378,9.22624566 C4.15890503,10.5547288 4.03939494,12.1433715 4.0082122,14 L4.0082122,15 L11,15 L10.9917878,14 C10.9606055,12.1433904 10.8410979,10.5547612 10.6414136,9.2262862 Z M6.24686991,1.18276576 C6.14195318,1.23093157 6.05604721,1.31264058 6.00269099,1.41501528 C5.86995587,1.66969441 5.96881102,1.98375571 6.22349015,2.11649082 L6.95935097,2.5 C7.57254706,2.81958903 8.02995009,3.37415929 8.22702062,4.03696378 L8.95935097,6.5 C9.02363315,6.71619932 9.22800936,6.85992821 9.4532095,6.84730921 C9.72164718,6.83226741 9.92706512,6.60246189 9.91202332,6.33402421 L9.91207045,6.33402157 C9.83090496,4.88553309 9.69354814,3.77419257 9.5,3 C9,1 8.12360666,1 7.5,1 C6.92998517,1 6.51227514,1.06092192 6.24686991,1.18276576 Z"></path>
</svg>
