<?xml version="1.0" encoding="UTF-8"?>
<svg width="15px" height="15px" viewBox="0 0 15 15" version="1.1" xmlns="http://www.w3.org/2000/svg" xmlns:xlink="http://www.w3.org/1999/xlink">
    <path d="M14,7 L14,13.4980157 C14,13.4986758 13.9999987,13.499336 13.9999961,13.4999961 C13.9989024,13.7761363 13.7741599,13.9991055 13.4980197,13.9980118 L8,13.9762357 L14,7 Z M7,13.5 L7,9 L2,9 C1.44771525,9 1,8.55228475 1,8 C1,7.44771525 1.44771525,7 2,7 L12.5,7 L7,13.5 Z M13,4 C13.0881919,4.43150911 12.9938006,6.49999829 10.4969003,6.49999829 C8,6.49999829 7.97512838,4.44144446 8.06535103,4 L10.4969003,4.99999915 L13,4 Z M14,2.75 L10.5,4.25 L7,2.75 L7,1 C7.92060932,0.952508174 8.58727598,0.869174841 9,0.75 C9.41272402,0.630825159 9.90045094,0.380825159 10.4631808,2.42288828e-13 C11.0421334,0.374012928 11.5544065,0.624012928 12,0.75 C12.4455935,0.875987072 13.1122602,0.959320405 14,1 L14,2.75 Z M11.5,2.01473447 C11.4421307,1.94282012 11.3766728,1.87735798 11.3047622,1.81948403 C10.7525062,1.37502614 9.94451,1.46241375 9.50005211,2.01466973 L9.5,2.01473447 L10.1104699,2.77331707 C10.1330133,2.80132986 10.1585126,2.82682918 10.1865254,2.8493725 C10.4016569,3.02249975 10.7164028,2.98844857 10.8895301,2.77331707 L11.5,2.01473447 Z"></path>
</svg>
