<?xml version="1.0" encoding="UTF-8"?>
<svg viewBox="0 0 15 15" version="1.1" xmlns="http://www.w3.org/2000/svg" xmlns:xlink="http://www.w3.org/1999/xlink">
  <path d="M3.71830308,11.3510081 C4.13613679,11.5312268 4.58998571,11.6801679 5.07971855,11.7980748 L5.55914969,11.9035167 L5.81414361,11.9674691 L6.12793638,12.0557906 L6.93137999,12.3054026 L7.96840362,12.652075 L8.67567099,12.9000365 L8.71975952,12.9362944 C9.2418127,13.406396 9.56615527,14.0606504 9.62580325,14.7639395 L9.63579052,15 L2.77779391,15 L2.77779391,14.1896376 C2.77779391,13.250147 3.05531961,12.3395157 3.56458165,11.5692381 L3.71830308,11.3510081 Z M11.0073898,3.58715499 L11.0073898,5.31637393 L12.3789892,8.08312424 L11.0073898,8.08312424 C11.0073898,9.54170215 9.88833242,10.7366662 8.46891933,10.8422857 L8.2641912,10.8498745 L8.2641912,12.0229767 L7.11001766,11.6369398 L6.47318143,11.4376082 L6.12072348,11.3350252 L5.82578812,11.2566455 L5.15098902,11.1036502 C4.79356583,11.013817 4.45900912,10.9063245 4.14725218,10.7812966 L4.14939323,7.66811169 L11.0073898,3.58715499 Z M12.782553,0.956080879 L12.9540029,1.25559038 C13.0486921,1.42100492 12.9924993,1.63251966 12.8284928,1.72802179 L2.73185404,7.60736618 C2.56784758,7.70286831 2.35813333,7.6461931 2.26344416,7.48077857 L2.09199424,7.18126907 C1.9026159,6.85044 2.01500142,6.42741052 2.34301434,6.23640627 L11.8457332,0.702905654 C12.1737461,0.511901404 12.5931746,0.625251813 12.782553,0.956080879 Z M9.57389953,1.22417033 L3.9265169,4.5126813 C3.47949413,2.6451059 3.9639467,1.29906577 5.37987462,0.474560897 C6.79580254,-0.349943976 8.19381084,-0.100074164 9.57389953,1.22417033 Z"/>
</svg>