<?xml version="1.0" encoding="UTF-8"?>
<svg viewBox="0 0 15 15" version="1.1" xmlns="http://www.w3.org/2000/svg" xmlns:xlink="http://www.w3.org/1999/xlink">
  <path d="M13,0 L13,15 L2,15 L2,0 L13,0 Z M11,1 L4,1 L3.99327227,1.11662113 C3.93995063,1.57570299 3.57570299,1.93995063 3.11662113,1.99327227 L3,2 L3,13 L3.11662113,13.0067277 C3.57570299,13.0600494 3.93995063,13.424297 3.99327227,13.8833789 L4,14 L11,14 L11.0067277,13.8833789 C11.0600494,13.424297 11.424297,13.0600494 11.8833789,13.0067277 L12,13 L12,2 L11.8833789,1.99327227 C11.3860402,1.93550716 11,1.51283584 11,1 Z M4.68570256,10.3622543 C4.99033505,10.4925289 5.32122536,10.6001939 5.67827776,10.6854252 L6.02781945,10.761646 L6.21372937,10.8078752 L6.44250811,10.8717202 L7.02827948,11.0521572 L7.78434841,11.3027562 L8.3,11.482 L8.33214388,11.5082098 C8.71276027,11.8480319 8.94923062,12.3209726 8.99271852,12.829359 L9,13 L4,13 L4,12.4142136 C4,11.7350843 4.2023373,11.0768165 4.57362797,10.5200062 L4.68570256,10.3622543 Z M10,4.75 L10,6 L11,8 L10,8 C10,9.0543618 9.18412221,9.91816512 8.14926234,9.99451426 L8,10 L8,10.848 L7.1585199,10.5689456 L6.69421795,10.4248548 L6.43724936,10.3507007 L6.2222191,10.2940424 L5.73023935,10.1834468 C5.46965071,10.118509 5.22573348,10.040806 4.99843901,9.95042708 L5,7.7 L10,4.75 Z M11.2942286,2.84807621 L11.4192286,3.06458256 C11.4882642,3.18415572 11.4472954,3.33705332 11.3277223,3.40608891 L3.96650635,7.65608891 C3.8469332,7.72512451 3.69403559,7.68415572 3.625,7.56458256 L3.5,7.34807621 C3.36192881,7.1089299 3.44386639,6.8031347 3.6830127,6.66506351 L10.6112159,2.66506351 C10.8503622,2.52699232 11.1561574,2.6089299 11.2942286,2.84807621 Z M8.95487677,3.04186996 L4.83750624,5.41903494 C4.51159271,4.06902125 4.86479541,3.0960096 5.89711432,2.5 C6.92943323,1.9039904 7.94868738,2.08461372 8.95487677,3.04186996 Z"/>
</svg>