<?xml version="1.0" encoding="UTF-8"?>
<svg width="15px" height="15px" viewBox="0 0 15 15" version="1.1" xmlns="http://www.w3.org/2000/svg" xmlns:xlink="http://www.w3.org/1999/xlink">
    <path d="M3,9.5 L3,14 L7.5,14 L12,14 L12,5.5 L12,1 L7.5,1 L3,1 L3,9.5 Z M4,10.5 L4,2 L8.5,2 L11,4.5 L11,13 L6.5,13 L4,10.5 Z M2.5,0 L12.5,0 C12.7761424,-5.07265313e-17 13,0.223857625 13,0.5 L13,14.5 C13,14.7761424 12.7761424,15 12.5,15 L2.5,15 C2.22385763,15 2,14.7761424 2,14.5 L2,0.5 C2,0.223857625 2.22385763,5.07265313e-17 2.5,0 Z M9,1 L12,1 L12,4 L9,1 Z M3,11 L6,14 L3,14 L3,11 Z M5.5,4 C5.22385763,4 5,4.22385763 5,4.5 C5,4.77614237 5.22385763,5 5.5,5 L8.5,5 C8.77614237,5 9,4.77614237 9,4.5 C9,4.22385763 8.77614237,4 8.5,4 L5.5,4 Z M5.5,6 C5.22385763,6 5,6.22385763 5,6.5 C5,6.77614237 5.22385763,7 5.5,7 L6.5,7 C6.77614237,7 7,6.77614237 7,6.5 C7,6.22385763 6.77614237,6 6.5,6 L5.5,6 Z"></path>
</svg>
