<?xml version="1.0" encoding="UTF-8"?>
<svg width="15px" height="15px" viewBox="0 0 15 15" version="1.1" xmlns="http://www.w3.org/2000/svg" xmlns:xlink="http://www.w3.org/1999/xlink">
    <path d="M3.5,1 L11.5,1 C11.7761424,1 12,1.22385763 12,1.5 L12,13.5 C12,13.7761424 11.7761424,14 11.5,14 L3.5,14 C3.22385763,14 3,13.7761424 3,13.5 L3,1.5 C3,1.22385763 3.22385763,1 3.5,1 Z M4,2 L4,13 L11,13 L11,2 L4,2 Z M8,2 L11,2 L11,5 L8,2 Z M4,10 L7,13 L4,13 L4,10 Z M5.5,5 L8.5,5 C8.77614237,5 9,5.22385763 9,5.5 C9,5.77614237 8.77614237,6 8.5,6 L5.5,6 C5.22385763,6 5,5.77614237 5,5.5 C5,5.22385763 5.22385763,5 5.5,5 Z M5.5,7 L6.5,7 C6.77614237,7 7,7.22385763 7,7.5 C7,7.77614237 6.77614237,8 6.5,8 L5.5,8 C5.22385763,8 5,7.77614237 5,7.5 C5,7.22385763 5.22385763,7 5.5,7 Z"></path>
</svg>
