<?xml version="1.0" encoding="UTF-8"?>
<svg width="15px" height="15px" viewBox="0 0 15 15" version="1.1" xmlns="http://www.w3.org/2000/svg" xmlns:xlink="http://www.w3.org/1999/xlink">
    <path d="M7.50069391,9.79861218 L9.58551979,8.40872826 L7.5,6.74031242 L5.41448021,8.40872826 L7.49930609,9.79861218 L7.50069391,9.79861218 Z M8.40208173,10.3995374 L10.6665731,11.9091983 L10.2452724,9.17074363 L8.40208173,10.3995374 L8.40208173,10.3995374 Z M6.59791827,10.3995374 L4.75472763,9.17074363 L4.33342691,11.9091983 L6.59791827,10.3995374 L6.59791827,10.3995374 Z M5.38851518,5.05112457 L5.02048871,7.44329661 L6.69960947,6.1 L5.38851518,5.05112457 L5.38851518,5.05112457 Z M5.54985247,4.00243216 C5.64270865,4.01164778 5.73405478,4.0469314 5.81234752,4.1095656 L7.5,5.45968758 L9.18765248,4.1095656 C9.26594522,4.0469314 9.35729135,4.01164778 9.45014753,4.00243216 L9.44977335,4 L5.55022665,4 L5.54985247,4.00243216 L5.54985247,4.00243216 Z M9.97951129,7.44329661 L9.61148482,5.05112457 L8.30039053,6.1 L9.97951129,7.44329661 L9.97951129,7.44329661 Z M14,3 L14,5 L13,5 L13,4 L10.4615385,4 L12,14 L7.5,11 L3,14 L4.53846154,4 L2,4 L2,5 L1,5 L1,3 L4.69230769,3 L5,1 L10,1 L10.3076923,3 L14,3 Z M5.7040728,3 L9.2959272,3 L9.14208104,2 L5.85791896,2 L5.7040728,3 L5.7040728,3 Z"></path>
</svg>
