<?xml version="1.0" encoding="UTF-8"?>
<!DOCTYPE svg PUBLIC "-//W3C//DTD SVG 1.1//EN" "http://www.w3.org/Graphics/SVG/1.1/DTD/svg11.dtd">
<svg version="1.1" xmlns="http://www.w3.org/2000/svg" xmlns:xlink="http://www.w3.org/1999/xlink" x="0" y="0" width="15" height="15" viewBox="0 0 15 15">
<path d="M11.5,2 C11.5,2 10,8 10,8 C10,8 12,8 12,8 C12,8 11,13 11,13 C11,13 15,6 15,6 C15,6 13,6 13,6 C13,6 14.5,2 14.5,2 C14.5,2 11.5,2 11.5,2 z"/>
<path d="M1,3.5 C1,3 2,3 2,3.5 C2,3.5 2,4.75 2,4.75 C3,4.75 2.75,3.75 3,3.75 C3.25,3.75 3,4.75 4,4.75 C5,4.75 4.75,3.75 5,3.75 C5.25,3.75 5,4.75 6,4.75 C7,4.75 6.75,3.75 7,3.75 C7.25,3.75 7,4.75 8,4.75 C8,4.75 8,3.5 8,3.5 C8,3 9,3 9,3.5 C9,3.5 9,5 9,5 C9,5 9,6 8,6 C7,6 7,5 7,5 C7,5 7,6 6,6 C5,6 5,5 5,5 C5,5 5,6 4,6 C3,6 3,5 3,5 C3,5 3,6 2,6 C1,6 1,5 1,5 C1,5 1,3.5 1,3.5 z M1,11.5 C1,11.5 1,10 1,10 C1,10 1,9 2,9 C3,9 3,10 3,10 C3,10 3,9 4,9 C5,9 5,10 5,10 C5,10 5,9 6,9 C7,9 7,10 7,10 C7,10 7,9 8,9 C9,9 9,10 9,10 C9,10 9,11.5 9,11.5 C9,12 8,12 8,11.5 C8,11.5 8,10.25 8,10.25 C7,10.25 7.25,11.25 7,11.25 C6.75,11.25 7,10.25 6,10.25 C5,10.25 5.25,11.25 5,11.25 C4.75,11.25 5,10.25 4,10.25 C3,10.25 3.25,11.25 3,11.25 C2.75,11.25 3,10.25 2,10.25 C2,10.25 2,11.5 2,11.5 C2,12 1,12 1,11.5 z M1,7 L1,8 L9,8 L9,7 L1,7 z M8.5,1 C8.75,1 9,1.25 9,1.5 C9,1.75 8.75,2 8.5,2 C8.25,2 8,1.75 8,1.5 C8,1.25 8.25,1 8.5,1 z M8.5,0 C7.75,0 7,0.75 7,1.5 C7,2.25 7.75,3 8.5,3 C9.25,3 10,2.25 10,1.5 C10,0.75 9.25,0 8.5,0 z M1.5,1 C1.75,1 2,1.25 2,1.5 C2,1.75 1.75,2 1.5,2 C1.25,2 1,1.75 1,1.5 C1,1.25 1.25,1 1.5,1 z M1.5,0 C0.75,0 0,0.75 0,1.5 C0,2.25 0.75,3 1.5,3 C2.25,3 3,2.25 3,1.5 C3,0.75 2.25,0 1.5,0 z M8.5,13 C8.75,13 9,13.25 9,13.5 C9,13.75 8.75,14 8.5,14 C8.25,14 8,13.75 8,13.5 C8,13.25 8.25,13 8.5,13 z M8.5,12 C7.75,12 7,12.75 7,13.5 C7,14.25 7.75,15 8.5,15 C9.25,15 10,14.25 10,13.5 C10,12.75 9.25,12 8.5,12 z M1.5,13 C1.75,13 2,13.25 2,13.5 C2,13.75 1.75,14 1.5,14 C1.25,14 1,13.75 1,13.5 C1,13.25 1.25,13 1.5,13 z M1.5,12 C0.75,12 0,12.75 0,13.5 C0,14.25 0.75,15 1.5,15 C2.25,15 3,14.25 3,13.5 C3,12.75 2.25,12 1.5,12 z"/>
</svg>
