<?xml version="1.0" encoding="UTF-8"?>
<svg width="15px" height="15px" viewBox="0 0 15 15" version="1.1" xmlns="http://www.w3.org/2000/svg" xmlns:xlink="http://www.w3.org/1999/xlink">
    <path d="M1,13 L1,6.00002 C1,5.66668 1,5.33334 1,5 C1,3.8954305 1.8954305,3 3,3 C3.33333333,3 3.66666667,3 4,3 L5,3 L5,2 L3.5,2 C3.22385763,2 3,1.77614237 3,1.5 C3,1.22385763 3.22385763,1 3.5,1 L7.5,1 C7.77614237,1 8,1.22385763 8,1.5 C8,1.77614237 7.77614237,2 7.5,2 L6,2 L6,3 L8,3 C9.1045695,3 10,3.8954305 10,5 L10,8 L14.1961161,8.83922323 C14.6635403,8.93270807 15,9.34312288 15,9.8198039 L15,10.00001 L11.5,10.00001 C11.2238576,10.00001 11,10.2238676 11,10.50001 C11,10.7761524 11.2238576,11.00001 11.5,11.00001 L15,11.00001 L15,12.00001 L11.4999988,12.0000012 C11.2238571,12.0000012 11,12.2238583 11,12.5 C11,12.7761424 11.2238576,13 11.5,13 L15,13 C15,13.5522847 14.5522847,14 14,14 L7,14 C5.66666667,13.3333467 5,12.33335 5,11.00001 C5,9.66667 5.66666667,8.66666667 7,8 L7,6 C5.6887,6.00002 4,6.00002 4,6.00002 L4,13 L4.5,13 C4.77614237,13 5,13.2238576 5,13.5 C5,13.7761424 4.77614237,14 4.5,14 L0.5,14 C0.223857625,14 1.14404071e-15,13.7761424 1.11022302e-15,13.5 C1.07640534e-15,13.2238576 0.223857625,13 0.5,13 L1,13 Z"></path>
</svg>
