<?xml version="1.0" encoding="UTF-8"?>
<!DOCTYPE svg PUBLIC "-//W3C//DTD SVG 1.1//EN" "http://www.w3.org/Graphics/SVG/1.1/DTD/svg11.dtd">
<svg version="1.1" xmlns="http://www.w3.org/2000/svg" xmlns:xlink="http://www.w3.org/1999/xlink" x="0" y="0" width="15" height="15" viewBox="0 0 15 15">
<path d="M11.5,2 C11.5,2 10,8 10,8 C10,8 12,8 12,8 C12,8 11,13 11,13 C11,13 15,6 15,6 C15,6 13,6 13,6 C13,6 14.5,2 14.5,2 C14.5,2 11.5,2 11.5,2 z"/>
<path d="M3.5,0 C4.25,0 5,0.75 5,1.5 C5,2.25 4.25,3 3.5,3 C2.75,3 2,2.25 2,1.5 C2,0.75 2.75,0 3.5,0 z M3.5,1 C3.25,1 3,1.25 3,1.5 C3,1.75 3.25,2 3.5,2 C3.75,2 4,1.75 4,1.5 C4,1.25 3.75,1 3.5,1 z M3.5,13 C3.75,13 4,13.25 4,13.5 C4,13.75 3.75,14 3.5,14 C3.25,14 3,13.75 3,13.5 C3,13.25 3.25,13 3.5,13 z M3.5,12 C2.75,12 2,12.75 2,13.5 C2,14.25 2.75,15 3.5,15 C4.25,15 5,14.25 5,13.5 C5,12.75 4.25,12 3.5,12 z M5.25,3.25 C7.5,6.5 7.5,8.5 5.25,11.75 C5,12.25 5.5,13.5 6,13 C9,10 9,5 6,2 C5.5,1.5 5,2.75 5.25,3.25 z"/>
</svg>
