<?xml version="1.0" encoding="UTF-8"?>
<!DOCTYPE svg PUBLIC "-//W3C//DTD SVG 1.1//EN" "http://www.w3.org/Graphics/SVG/1.1/DTD/svg11.dtd">
<svg version="1.1" xmlns="http://www.w3.org/2000/svg" xmlns:xlink="http://www.w3.org/1999/xlink" x="0" y="0" width="15" height="15" viewBox="0 0 15 15">
<path d="M7.5,0 C11.625,0 15,3.375 15,7.5 C15,11.625 11.642,15 7.5,15 C3.358,15 0,11.625 0,7.5 C0,3.375 3.375,0 7.5,0 z M7.5,0.5 C3.625,0.5 0.5,3.625 0.5,7.5 C0.5,11.375 3.625,14.5 7.5,14.5 L7.5,14.5 C11.375,14.5 14.5,11.375 14.5,7.5 C14.5,3.625 11.375,0.5 7.5,0.5 z M11,3 C11.5,3 11.5,4 11,4 L9.5,4 C9.25,4 7.75,3.25 8.25,3 L11,3 z M6.75,3 C7.25,3.25 5.75,4 5.5,4 L4,4 C3.5,4 3.5,3 4,3 L6.75,3 z M4,5 C4.5,5 3.75,6 3.5,6 C3.5,6 2.5,6 2.5,6 C2,6 2,5 2.5,5 C2.5,5 4,5 4,5 z M12.5,5 C13,5 13,6 12.5,6 L11.5,6 C11.25,6 10.5,5 11,5 L12.5,5 z M13,7 C13.5,7 13.5,8 13,8 L12,8 C11.5,8 11.5,7 12,7 L13,7 z M3,7 C3.5,7 3.5,8 3,8 L2,8 C1.5,8 1.5,7 2,7 L3,7 z M3.5,9 C3.75,9 4.5,10 4,10 C4,10 2.5,10 2.5,10 C2,10 2,9 2.5,9 C2.5,9 3.5,9 3.5,9 z M12.5,9 C13,9 13,10 12.5,10 L11,10 C10.5,10 11.25,9 11.5,9 L12.5,9 z M7.5,4 C9.367,4 11,5.633 11,7.5 C11,9.367 9.367,11 7.5,11 C5.633,11 4,9.367 4,7.5 C4,5.633 5.633,4 7.5,4 z M11,11 C11.5,11 11.5,12 11,12 L8.25,12 C7.75,11.75 9.25,11 9.5,11 L11,11 z M5.5,11 C5.75,11 7.25,11.75 6.75,12 L4,12 C3.5,12 3.5,11 4,11 L5.5,11 z M8.75,1.125 C8.75,1.125 8.5,2 7.5,2 C6.5,2 6.25,1.125 6.25,1.125 C3.125,1.75 1,4.5 1,7.5 C1,10.5 3.125,13.25 6.25,13.875 C6.25,13.875 6.5,13 7.5,13 C8.448,13 8.75,13.875 8.75,13.875 C11.875,13.25 14,10.5 14,7.5 C14,4.5 11.875,1.75 8.75,1.125 z"/>
<path d="M6.75,5 C6.75,5 5.75,8 5.75,8 C5.75,8 7,8 7,8 C7,8 6.5,10.5 6.5,10.5 C6.5,10.5 9.25,7.25 9.25,7.25 C9.25,7.25 7.75,7.25 7.75,7.25 C7.75,7.25 8.5,5 8.5,5 C8.5,5 6.75,5 6.75,5 z"/>
</svg>
