<?xml version="1.0" encoding="UTF-8"?>
<!DOCTYPE svg PUBLIC "-//W3C//DTD SVG 1.1//EN" "http://www.w3.org/Graphics/SVG/1.1/DTD/svg11.dtd">
<svg version="1.1" xmlns="http://www.w3.org/2000/svg" xmlns:xlink="http://www.w3.org/1999/xlink" x="0" y="0" width="15" height="15" viewBox="0 0 15 15">
<path d="M11.5,2 C11.5,2 10,8 10,8 C10,8 12,8 12,8 C12,8 11,13 11,13 C11,13 15,6 15,6 C15,6 13,6 13,6 C13,6 14.5,2 14.5,2 C14.5,2 11.5,2 11.5,2 z"/>
<path d="M2.5,0 C3.25,0 4,0.75 4,1.5 C4,2.25 3.25,3 2.5,3 C1.75,3 1,2.25 1,1.5 C1,0.75 1.75,0 2.5,0 z M2.5,1 C2.25,1 2,1.25 2,1.5 C2,1.75 2.25,2 2.5,2 C2.75,2 3,1.75 3,1.5 C3,1.25 2.75,1 2.5,1 z M2.5,13 C2.75,13 3,13.25 3,13.5 C3,13.75 2.75,14 2.5,14 C2.25,14 2,13.75 2,13.5 C2,13.25 2.25,13 2.5,13 z M2.5,12 C1.75,12 1,12.75 1,13.5 C1,14.25 1.75,15 2.5,15 C3.25,15 4,14.25 4,13.5 C4,12.75 3.25,12 2.5,12 z M3,10.25 C3,10.25 2,10.25 2,10.25 C2,10.25 2,11.5 2,11.5 C2,12 3,12 3,11.5 C3,11.5 3,10.25 3,10.25 z M2,3.5 C2,3.5 2,7.35 2,7.35 C2,7.6 3,7.6 3,7.35 C3,7.35 3,3.5 3,3.5 C3,3 2,3 2,3.5 z M7.5,5 C7.75,5 8,5.25 8,5.5 C8,5.75 7.75,6 7.5,6 C7.25,6 7,5.75 7,5.5 C7,5.25 7.25,5 7.5,5 z M7.5,4 C6.75,4 6,4.75 6,5.5 C6,6.25 6.75,7 7.5,7 C8.25,7 9,6.25 9,5.5 C9,4.75 8.25,4 7.5,4 z M7.5,9 C7.75,9 8,9.25 8,9.5 C8,9.75 7.75,10 7.5,10 C7.25,10 7,9.75 7,9.5 C7,9.25 7.25,9 7.5,9 z M7.5,8 C6.75,8 6,8.75 6,9.5 C6,10.25 6.75,11 7.5,11 C8.25,11 9,10.25 9,9.5 C9,8.75 8.25,8 7.5,8 z M0.25,8.25 C0.25,8.25 0,8.25 0,9 C0,9.75 1,10 2.25,10 C2.25,10 5.5,10 5.5,10 C6,10 6,9 5.5,9 C5.5,9 2.25,9 2.25,9 C1.25,9 0.75,8.75 0.25,8.25 z M1.75,5 C0.75,5 0,5.75 0,6.75 C0,8 1,8.75 2.25,8.75 C3,8.75 4.75,8.813 4.75,7.5 C4.75,6.5 4,6.25 3.25,6.25 L3.25,7.25 C3.25,7.25 3.75,7.25 3.75,7.5 C3.75,7.79 2.75,7.75 2.25,7.75 C1.5,7.75 1,7.25 1,6.75 C1,6.25 1.25,6 1.75,6 L1.75,5 z M5.5,5 C5.5,4.994 3.25,5 3.25,5 L3.25,6 C3.25,6 5.5,6 5.5,6 C6,6 6,5 5.5,5 z M1.25,6.75 C1.25,7 1.5,7.25 1.75,7.25 C1.75,7.25 1.75,6.25 1.75,6.25 C1.5,6.25 1.25,6.5 1.25,6.75 z"/>
</svg>
