<?xml version="1.0" encoding="UTF-8"?>
<!DOCTYPE svg PUBLIC "-//W3C//DTD SVG 1.1//EN" "http://www.w3.org/Graphics/SVG/1.1/DTD/svg11.dtd">
<svg version="1.1" xmlns="http://www.w3.org/2000/svg" xmlns:xlink="http://www.w3.org/1999/xlink" x="0" y="0" width="15" height="15" viewBox="0 0 15 15">
<path d="M11.5,2 C11.5,2 10,8 10,8 C10,8 12,8 12,8 C12,8 11,13 11,13 C11,13 15,6 15,6 C15,6 13,6 13,6 C13,6 14.5,2 14.5,2 C14.5,2 11.5,2 11.5,2 z"/>
<path d="M4.5,0 C5.25,0 6,0.75 6,1.5 C6,2.25 5.25,3 4.5,3 C3.75,3 3,2.25 3,1.5 C3,0.75 3.75,0 4.5,0 z M4.5,1 C4.25,1 4,1.25 4,1.5 C4,1.75 4.25,2 4.5,2 C4.75,2 5,1.75 5,1.5 C5,1.25 4.75,1 4.5,1 z M4.5,13 C4.75,13 5,13.25 5,13.5 C5,13.75 4.75,14 4.5,14 C4.25,14 4,13.75 4,13.5 C4,13.25 4.25,13 4.5,13 z M4.5,12 C3.75,12 3,12.75 3,13.5 C3,14.25 3.75,15 4.5,15 C5.25,15 6,14.25 6,13.5 C6,12.75 5.25,12 4.5,12 z M4.5,7 C4.75,7 5,7.25 5,7.5 C5,7.75 4.75,8 4.5,8 C4.25,8 4,7.75 4,7.5 C4,7.25 4.25,7 4.5,7 z M4.5,6 C3.75,6 3,6.75 3,7.5 C3,8.25 3.75,9 4.5,9 C5.25,9 6,8.25 6,7.5 C6,6.75 5.25,6 4.5,6 z M7.75,3.25 C7.75,3.25 5.25,5.75 5.25,5.75 C5,6 6,7 6.25,6.75 C6.25,6.75 8.75,4.25 8.75,4.25 C9,4 8,3 7.75,3.25 z M2.75,8.25 C2.75,8.25 0.25,10.75 0.25,10.75 C0,11 1,12 1.25,11.75 C1.25,11.75 3.75,9.25 3.75,9.25 C4,9 3,8 2.75,8.25 z"/>
</svg>
