<?xml version="1.0" encoding="UTF-8"?>
<!DOCTYPE svg PUBLIC "-//W3C//DTD SVG 1.1//EN" "http://www.w3.org/Graphics/SVG/1.1/DTD/svg11.dtd">
<svg version="1.1" xmlns="http://www.w3.org/2000/svg" xmlns:xlink="http://www.w3.org/1999/xlink" x="0" y="0" width="15" height="15" viewBox="0 0 15 15">
<path d="M6,0.5 C6,0.5 6,2 6,2 C6,2 8.5,2 8.5,2 C9,2 9,2.5 9,2.5 L9,12.5 C9,12.5 9,13 8.5,13 C8.5,13 6,13 6,13 L6,14.5 C6,15 3,15 3,14.5 L3,13 C3,13 0.5,13 0.5,13 C0,13 0,12.5 0,12.5 L0,2.5 C0,2.5 0,2 0.5,2 C0.5,2 3,2 3,2 C3,2 3,0.5 3,0.5 C3,0 6,0 6,0.5 z M8,3.5 C8,3 7.5,3 7.5,3 L1.5,3 C1.5,3 1,3 1,3.5 C1,3.5 1,11.5 1,11.5 C1,12 1.5,12 1.5,12 L7.5,12 C7.5,12 8,12 8,11.5 C8,11.5 8,3.5 8,3.5 z"/>
<path d="M5,4.5 C5,7.5 5,10.5 5,10.5 C5,11 4.5,11 4.5,11 L2.5,11 C2.5,11 2,11 2,10.5 C2,7.5 2,4.5 2,4.5 C2,4 2.5,4 2.5,4 L4.5,4 C4.5,4 5,4 5,4.5 z M4,8.25 C4,8 3.75,8 3.75,8 L3.25,8 C3.25,8 3,8 3,8.25 C3,8.25 3,9.75 3,9.75 C3,10 3.25,10 3.25,10 L3.75,10 C3.75,10 4,10 4,9.75 C4,9.75 4,8.25 4,8.25 z M6,4.5 C6,4.5 6,6.5 6,6.5 C6,6.75 6.25,6.75 6.25,6.75 L6.75,6.75 C6.75,6.75 7,6.75 7,6.5 C7,6.5 7,4.5 7,4.5 C7,4.25 6.75,4.25 6.75,4.25 L6.25,4.25 C6.25,4.25 6,4.25 6,4.5 z M6.5,8.875 C6.776,8.875 7,9.224 7,9.5 C7,9.776 6.776,10.125 6.5,10.125 C6.224,10.125 6,9.776 6,9.5 C6,9.224 6.224,8.875 6.5,8.875 z M7.625,9.5 C7.625,8.875 7.125,8.25 6.5,8.25 C5.875,8.25 5.375,8.875 5.375,9.5 C5.375,10.125 5.875,10.75 6.5,10.75 C7.125,10.75 7.625,10.125 7.625,9.5 z"/>
<path d="M11.5,2 C11.5,2 10,8 10,8 C10,8 12,8 12,8 C12,8 11,13 11,13 C11,13 15,6 15,6 C15,6 13,6 13,6 C13,6 14.5,2 14.5,2 C14.5,2 11.5,2 11.5,2 z"/>
</svg>
