<?xml version="1.0" encoding="UTF-8"?>
<!DOCTYPE svg PUBLIC "-//W3C//DTD SVG 1.1//EN" "http://www.w3.org/Graphics/SVG/1.1/DTD/svg11.dtd">
<svg version="1.1" xmlns="http://www.w3.org/2000/svg" xmlns:xlink="http://www.w3.org/1999/xlink" x="0" y="0" width="15" height="15" viewBox="0 0 15 15">
<path d="M9,0.5 C10,0.5 10,1 10,2 L10,3.5 C11.5,3.5 12.5,4.5 12.5,6 L12.5,12 C12.5,13 11.5,14 10,14 L10,14.5 L5,14.5 L5,14 C3.5,14 2.5,13 2.5,12 L2.5,6 C2.5,4.5 3.5,3.5 5,3.5 C5,3.5 5,3 5,3 C5,3 5.75,3 5.75,3 C6,3 6,2.75 6,2.5 L6,2 C6,1.75 6,1.5 5.75,1.5 L5,1.5 C5,1 5,0.5 6,0.5 L9,0.5 z M8.5,1.5 L7.5,1.5 C7.25,1.5 7,1.75 7,2 L7,2.5 C7,2.75 7.25,3 7.5,3 L8.5,3 C8.75,3 9,2.75 9,2.5 L9,2 C9,1.75 8.75,1.5 8.5,1.5 z"/>
</svg>
