<?xml version="1.0" encoding="UTF-8"?>
<!DOCTYPE svg PUBLIC "-//W3C//DTD SVG 1.1//EN" "http://www.w3.org/Graphics/SVG/1.1/DTD/svg11.dtd">
<svg version="1.1" xmlns="http://www.w3.org/2000/svg" xmlns:xlink="http://www.w3.org/1999/xlink" x="0" y="0" width="15" height="15" viewBox="0 0 15 15">
<path d="M7,0 C8,0 8,3.5 8,4.5 L8,6.5 C8.17,5.8 8.4,4.8 8.5,4 C8.72,2.4 8.8,1 9.5,1 C10.5,1 10,4 10,7.5 C10,8.3 10.5,10 10.5,10 C10.5,10 13.3,6.5 14,8 C14.5,9 13,10.3 12,11.5 C11.4,12.2 11,13 11,13 C11,13 10,15 8.5,15 L5,15 C4,15 3.5,14.5 3,12 C2.4,9 1.5,2.5 2.5,2.5 C3,2.5 3.25,4 3.5,5 C3.8,6.2 4,7 4,7 C4,2 4,1 4.5,1 C5.5,1 5.5,5 6,6.5 C6.5,4 6,0 7,0 z M6.875,9.5 C5.375,9.5 4.25,10 4.25,11 C4.25,12 5.375,12.5 6.875,12.5 C8.375,12.5 9.5,12 9.5,11 C9.5,10 8.375,9.5 6.875,9.5 z M6.875,9.75 C7.652,9.75 8,10.172 8,11 C8,11.828 7.652,12.25 6.875,12.25 C6.098,12.25 5.75,11.828 5.75,11 C5.75,10.172 6.098,9.75 6.875,9.75 z"/>
</svg>
