<?xml version="1.0" encoding="UTF-8"?>
<svg width="15px" height="15px" viewBox="0 0 15 15" version="1.1" xmlns="http://www.w3.org/2000/svg" xmlns:xlink="http://www.w3.org/1999/xlink">
    <path d="M10.8780508,6.12601694 L15,7.5 L10.8780508,8.87398306 L10.2673917,7.5 L10.8780508,6.12601694 Z M8.87398306,10.8780508 L7.5,15 L6.12601694,10.8780508 L7.5,10.2673917 L8.87398306,10.8780508 Z M4.12194918,8.87398306 L0,7.5 L4.12194918,6.12601694 L4.73260832,7.5 L4.12194918,8.87398306 Z M6.12601694,4.12194918 L7.5,0 L8.87398306,4.12194918 L7.5,4.73260832 L6.12601694,4.12194918 Z M3.99602365,3.99602365 L7.5,5.55334647 L11.0039764,3.99602365 L9.44665353,7.5 L11.0039764,11.0039764 L7.5,9.44665353 L3.99602365,11.0039764 L5.55334647,7.5 L3.99602365,3.99602365 Z"></path>
</svg>
