<?xml version="1.0" encoding="UTF-8"?>
<svg version="1.1" viewBox="0 0 15 15" xmlns="http://www.w3.org/2000/svg">
  <path d="M1 6h4v8h-4zm9.1 5c-0.44 0 -0.87 0.15 -1.2 0.44c-0.16 0.12 -0.31 0.27 -0.47 0.4c-0.29 0.24 -0.71 0.24 -1 0c-0.16 -0.13 -0.31 -0.28 -0.47 -0.4c-0.28 -0.23 -0.61 -0.37 -0.95 -0.41v1c0.06 0.03 0.11 0.06 0.16 0.1l0.39 0.34c0.7 0.62 1.7 0.64 2.5 0.07c0.15 -0.12 0.28 -0.24 0.42 -0.36c0.3 -0.3 0.8 -0.3 1.1 0l0.39 0.34c0.49 0.41 1.2 0.54 1.8 0.36c0.38 -0.1 0.73 -0.3 1 -0.58c0.08 -0.09 0.18 -0.17 0.29 -0.23v-1c-0.27 0.06 -0.52 0.18 -0.74 0.35l-0.47 0.4c-0.12 0.1 -0.26 0.16 -0.4 0.17c-0.05 0 -0.11 0.01 -0.16 0.01c-0.16 -0.01 -0.31 -0.07 -0.44 -0.18c-0.15 -0.12 -0.29 -0.26 -0.44 -0.38c-0.35 -0.3 -0.79 -0.44 -1.2 -0.44zm0 -2.2c-0.44 0 -0.87 0.15 -1.2 0.44c-0.16 0.12 -0.31 0.27 -0.47 0.4c-0.29 0.24 -0.71 0.24 -1 0c-0.16 -0.13 -0.31 -0.28 -0.47 -0.4c-0.28 -0.23 -0.61 -0.37 -0.95 -0.41v1c0.06 0.03 0.11 0.06 0.16 0.1l0.39 0.34c0.7 0.62 1.7 0.64 2.5 0.07c0.15 -0.12 0.28 -0.24 0.42 -0.36c0.3 -0.3 0.8 -0.3 1.1 0l0.39 0.34c0.49 0.41 1.2 0.54 1.8 0.36c0.38 -0.1 0.73 -0.3 1 -0.58c0.08 -0.09 0.18 -0.17 0.29 -0.23v-1c-0.27 0.06 -0.52 0.18 -0.74 0.35l-0.47 0.4c-0.12 0.1 -0.26 0.16 -0.4 0.17c-0.05 0 -0.11 0.01 -0.16 0.01c-0.16 -0.01 -0.31 -0.07 -0.44 -0.18c-0.15 -0.12 -0.29 -0.26 -0.44 -0.38c-0.35 -0.3 -0.79 -0.44 -1.2 -0.44z"/>
</svg>