<?xml version="1.0" encoding="UTF-8"?>
<svg width="15px" height="15px" viewBox="0 0 15 15" version="1.1" xmlns="http://www.w3.org/2000/svg" xmlns:xlink="http://www.w3.org/1999/xlink">
    <path d="M3.61553391,8.56066017 C2.83448532,9.34170876 2.83448532,10.6080387 3.61553391,11.3890873 C4.39658249,12.1701359 5.66291245,12.1701359 6.44396103,11.3890873 L11.3937085,6.43933983 C12.1747571,5.65829124 12.1747571,4.39196129 11.3937085,3.6109127 C10.6126599,2.82986412 9.34632996,2.82986412 8.56528137,3.6109127 L3.61553391,8.56066017 Z M1.49421356,6.43933983 L6.44396103,1.48959236 C8.39658249,-0.463029099 11.5624074,-0.463029099 13.5150288,1.48959236 C15.4676503,3.44221382 15.4676503,6.60803871 13.5150288,8.56066017 L8.56528137,13.5104076 C6.61265992,15.4630291 3.44683502,15.4630291 1.49421356,13.5104076 C-0.458407896,11.5577862 -0.458407896,8.39196129 1.49421356,6.43933983 Z M2.90842712,7.85355339 L7.85817459,2.90380592 C9.02974747,1.73223305 10.9292424,1.73223305 12.1008153,2.90380592 C13.2723882,4.0753788 13.2723882,5.97487373 12.1008153,7.14644661 L7.15106781,12.0961941 C5.97949494,13.267767 4.08,13.267767 2.90842712,12.0961941 C1.73685425,10.9246212 1.73685425,9.02512627 2.90842712,7.85355339 Z M2.20132034,7.14644661 C0.639223177,8.70854378 0.639223177,11.2412037 2.20132034,12.8033009 C3.76341751,14.365398 6.29607743,14.365398 7.85817459,12.8033009 L12.8079221,7.85355339 C14.3700192,6.29145622 14.3700192,3.75879631 12.8079221,2.19669914 C11.2458249,0.634601974 8.71316498,0.634601974 7.15106781,2.19669914 L2.20132034,7.14644661 Z"></path>
</svg>
