<?xml version="1.0" encoding="UTF-8"?>
<!DOCTYPE svg PUBLIC "-//W3C//DTD SVG 1.1//EN" "http://www.w3.org/Graphics/SVG/1.1/DTD/svg11.dtd">
<svg version="1.1" xmlns="http://www.w3.org/2000/svg" xmlns:xlink="http://www.w3.org/1999/xlink" x="0" y="0" width="15" height="15" viewBox="0 0 15 15">
    <path d="M8.747,9.066 L11.384,13.417 C9.987,14.263 8.348,14.635 6.688,14.456 C5.673,14.345 4.704,14.033 3.829,13.542 L6.321,9.107 C6.6,9.264 6.91,9.363 7.237,9.399 C7.776,9.457 8.298,9.339 8.747,9.066 z M11.321,0.549 L8.727,4.925 C9.47,5.365 9.927,6.167 9.912,7.044 L14.999,7.133 C15.046,4.41 13.622,1.913 11.321,0.549 z M3.765,0.5 C1.636,1.724 0.221,3.918 0.024,6.411 C0.007,6.626 -0.001,6.833 0,7.04 L5.088,7.018 C5.088,6.95 5.09,6.883 5.096,6.809 C5.159,6.009 5.613,5.305 6.301,4.909 L3.765,0.5 z M9.019,7.022 C9.019,6.22 8.368,5.569 7.565,5.569 C6.763,5.569 6.112,6.22 6.112,7.022 C6.112,7.825 6.763,8.476 7.565,8.476 C8.368,8.476 9.019,7.825 9.019,7.022 z"/>
</svg>
