<?xml version="1.0" encoding="UTF-8"?>
<svg viewBox="0 0 15 15" version="1.1" xmlns="http://www.w3.org/2000/svg" xmlns:xlink="http://www.w3.org/1999/xlink">
  <path d="M7 12L7 13L8 13L8 12L7 12ZM9.41 5L1 1.94L1.34 1L12.33 5L13 5C13.55 5 14 5.45 14 6L14 13C14 13.55 13.55 14 13 14L2 14C1.45 14 1 13.55 1 13L1 6C1 5.45 1.45 5 2 5L9.41 5ZM2 6L2 8L8 8L8 6L2 6ZM3 7L4 7L4 8L3 8L3 7ZM2 9L2 10L3 10L3 9L2 9ZM3 10L3 11L4 11L4 10L3 10ZM4 9L4 10L5 10L5 9L4 9ZM5 10L5 11L6 11L6 10L5 10ZM6 9L6 10L7 10L7 9L6 9ZM7 10L7 11L8 11L8 10L7 10ZM6 11L6 12L7 12L7 11L6 11ZM4 11L4 12L5 12L5 11L4 11ZM2 11L2 12L3 12L3 11L2 11ZM3 12L3 13L4 13L4 12L3 12ZM5 12L5 13L6 13L6 12L5 12ZM11 6C9.9 6 9 6.9 9 8C9 9.1 9.9 10 11 10C12.1 10 13 9.1 13 8C13 6.9 12.1 6 11 6ZM11 7C11.55 7 12 7.45 12 8C12 8.55 11.55 9 11 9C10.45 9 10 8.55 10 8C10 7.45 10.45 7 11 7Z"/>
</svg>