<?xml version="1.0" encoding="UTF-8"?>
<!DOCTYPE svg PUBLIC "-//W3C//DTD SVG 1.1//EN" "http://www.w3.org/Graphics/SVG/1.1/DTD/svg11.dtd">
<svg version="1.1" xmlns="http://www.w3.org/2000/svg" xmlns:xlink="http://www.w3.org/1999/xlink" x="0" y="0" width="15" height="15" viewBox="0 0 15 15">
<path d="M9,9 L12,14 C9,15 6,15 3,14 L6,9 C7,9.75 8,9.75 9,9 z M11,0.5 L8.5,4.75 C9.5,5.25 10,6.25 10,7 L15,7 C15,4 14,2 11,0.5 z M4,0.5 C1,2 0,4 0,7 L5,7 C5,6.25 5.5,5.25 6.5,4.75 L4,0.5 z M9,7 C9,6.25 8.25,5.5 7.5,5.5 C6.75,5.5 6,6.25 6,7 C6,7.75 6.75,8.5 7.5,8.5 C8.25,8.5 9,7.75 9,7 z"/>
</svg>
