<?xml version="1.0" encoding="UTF-8"?>
<svg width="15px" height="15px" viewBox="0 0 15 15" version="1.1" xmlns="http://www.w3.org/2000/svg" xmlns:xlink="http://www.w3.org/1999/xlink">
    <path d="M7,12 L7,13 L8,13 L8,12 L7,12 Z M9.40812542,5 L1,1.93969262 L1.34202014,1 L12.3319298,5 L13,5 C13.5522847,5 14,5.44771525 14,6 L14,13 C14,13.5522847 13.5522847,14 13,14 L2,14 C1.44771525,14 1,13.5522847 1,13 L1,6 C1,5.44771525 1.44771525,5 2,5 L9.40812542,5 Z M2,6 L2,8 L8,8 L8,6 L2,6 Z M3,7 L4,7 L4,8 L3,8 L3,7 Z M2,9 L2,10 L3,10 L3,9 L2,9 Z M3,10 L3,11 L4,11 L4,10 L3,10 Z M4,9 L4,10 L5,10 L5,9 L4,9 Z M5,10 L5,11 L6,11 L6,10 L5,10 Z M6,9 L6,10 L7,10 L7,9 L6,9 Z M7,10 L7,11 L8,11 L8,10 L7,10 Z M6,11 L6,12 L7,12 L7,11 L6,11 Z M4,11 L4,12 L5,12 L5,11 L4,11 Z M2,11 L2,12 L3,12 L3,11 L2,11 Z M3,12 L3,13 L4,13 L4,12 L3,12 Z M5,12 L5,13 L6,13 L6,12 L5,12 Z M11,6 C9.8954305,6 9,6.8954305 9,8 C9,9.1045695 9.8954305,10 11,10 C12.1045695,10 13,9.1045695 13,8 C13,6.8954305 12.1045695,6 11,6 Z M11,7 C11.5522847,7 12,7.44771525 12,8 C12,8.55228475 11.5522847,9 11,9 C10.4477153,9 10,8.55228475 10,8 C10,7.44771525 10.4477153,7 11,7 Z"></path>
</svg>
