<?xml version="1.0" encoding="UTF-8"?>
<svg version="1.2" baseProfile="tiny" xmlns="http://www.w3.org/2000/svg" viewBox="0 0 50 50" overflow="inherit">
  <path d="M21.49 8l-0.54 0.97c-0.35 0.72 -1.09 1.03 -1.92 1.03h-1.27c0.73 1 1.9 1.82 3.26 1.82c2.22 0 3.99 -1.68 3.99 -3.89v0.07h-3.32c-0.08 0 -0.17 -0.08 -0.19 0zm-2.46 1c0.44 0 0.83 -0.15 1 -0.53l0.53 -0.95c0.2 -0.43 0.63 -0.52 1.12 -0.52h4.15c-0.54 -2 -2.49 -3.85 -4.79 -3.85c-2.72 0 -4.93 2.02 -4.93 4.75c0 0.44 0.05 1.1 0.17 1.1h2.75zm13.66 22c3.7 0 13.36 -1.13 16.02 -3.68c-1.2 -3.68 -5.92 -3.97 -10.25 -2.1c-0.74 0.32 -1.73 0.56 -2.87 0.77l-0.88 -3.43c0.71 -0.36 1.17 -1.11 1.13 -1.95c-0.04 -1.15 -1.01 -2.04 -2.16 -2l-0.65 -2.51c0.64 -0.48 0.98 -1.29 0.79 -2.12c-0.26 -1.12 -1.37 -1.84 -2.5 -1.58c0 0 -9.16 0.08 -12.03 0.85c-2.87 0.77 -3.83 5.59 -3.83 5.59l-2.52 8.15h-11.93v4h31.68zm-8.23 -14.2l7.11 -0.29l0.57 2.18c-1.92 0.09 -5.34 0.27 -8.39 0.44l0.71 -2.33zm-1.98 6.5l10.72 -0.48l0.89 3.41c-4.38 0.63 -10.05 0.72 -12.74 0.73l1.12 -3.66zm20.04 12.31s6.49 -0.08 6.49 -6.42c0 -0.25 -0.02 -0.44 -0.05 -0.68c-4.05 2.93 -14.88 3.49 -16.25 3.49h-31.7v4.9c0.77 0 1.56 -0.18 2.25 -0.48c1.15 -0.53 2.42 -0.81 3.67 -0.81c1.25 0 2.51 0.28 3.63 0.8c0.74 0.33 1.51 0.49 2.29 0.49c0.79 0 1.56 -0.16 2.27 -0.48c1.16 -0.53 2.42 -0.81 3.67 -0.81c1.26 0 2.5 0.27 3.65 0.8c0.72 0.33 1.51 0.49 2.29 0.49c0.78 0 1.55 -0.16 2.26 -0.48c1.15 -0.53 2.42 -0.81 3.66 -0.81c1.27 0 2.5 0.27 3.65 0.8c0.73 0.33 1.52 0.49 2.29 0.49l0.28 -0.01l0.95 3.62c-0.41 0.07 -0.81 0.12 -1.23 0.12c-1.04 0 -2.04 -0.22 -2.93 -0.62c-0.91 -0.42 -1.93 -0.67 -3.01 -0.67c-1.07 0 -2.1 0.25 -3.01 0.67c-0.88 0.4 -1.88 0.63 -2.91 0.63s-2.04 -0.22 -2.93 -0.62c-0.91 -0.42 -1.93 -0.67 -3.01 -0.67s-2.1 0.25 -3.01 0.67c-0.88 0.4 -1.88 0.63 -2.91 0.63c-1.03 0 -2.03 -0.22 -2.91 -0.62c-0.91 -0.42 -1.93 -0.67 -3.01 -0.67c-1.06 0 -2.09 0.25 -3 0.67c-0.9 0.4 -1.89 0.62 -2.93 0.62v4.37c1.04 0 2.03 -0.22 2.93 -0.62c0.91 -0.42 1.94 -0.67 3 -0.67c1.07 0 2.1 0.25 3.01 0.67c0.89 0.4 1.89 0.62 2.91 0.62c1.04 0 2.03 -0.22 2.91 -0.62c0.91 -0.42 1.94 -0.67 3.01 -0.67c1.08 0 2.1 0.25 3.01 0.67c0.89 0.4 1.89 0.62 2.93 0.62s2.03 -0.22 2.92 -0.62c0.91 -0.42 1.94 -0.67 3.01 -0.67c1.07 0 2.1 0.25 3.01 0.67c0.89 0.4 1.89 0.62 2.93 0.62c1.02 0 2.03 -0.22 2.91 -0.62c0.91 -0.42 1.94 -0.67 3.01 -0.67c1.07 0 1.89 0.25 2.8 0.67c0.89 0.4 1.72 0.62 2.72 0.62v-4.36c-1 0 -1.83 -0.22 -2.72 -0.62c-0.91 -0.42 -1.83 -0.67 -2.9 -0.67c-1.07 0 -2.05 0.25 -2.96 0.67l-0.19 0.08l-0.89 -3.48l0.49 -0.19c1.15 -0.53 2.43 -0.81 3.68 -0.81z"/>
</svg>