<?xml version="1.0" encoding="UTF-8"?>
<svg width="15px" height="15px" viewBox="0 0 15 15" version="1.1" xmlns="http://www.w3.org/2000/svg" xmlns:xlink="http://www.w3.org/1999/xlink">
    <path d="M4.5,13 L4.5,14 L3.5,14 C3.22385763,14 3,13.7761424 3,13.5 L3,11.5 C3,11.2238576 3.22385763,11 3.5,11 L4.5,11 L4.5,12 L4,12 L4,13 L4.5,13 Z M4.5,8 L4.5,9 L3.5,9 C3.22385763,9 3,8.77614237 3,8.5 L3,6.5 C3,6.22385763 3.22385763,6 3.5,6 L4.5,6 L4.5,7 L4,7 L4,8 L4.5,8 Z M4.5,3 L4.5,4 L3.5,4 C3.22385763,4 3,3.77614237 3,3.5 L3,1.5 C3,1.22385763 3.22385763,1 3.5,1 L4.5,1 L4.5,2 L4,2 L4,3 L4.5,3 Z M10.5,13 L11,13 L11,12 L10.5,12 L10.5,11 L11.5,11 C11.7761424,11 12,11.2238576 12,11.5 L12,13.5 C12,13.7761424 11.7761424,14 11.5,14 L10.5,14 L10.5,13 Z M10.5,8 L11,8 L11,7 L10.5,7 L10.5,6 L11.5,6 C11.7761424,6 12,6.22385763 12,6.5 L12,8.5 C12,8.77614237 11.7761424,9 11.5,9 L10.5,9 L10.5,8 Z M10.5,3 L11,3 L11,2 L10.5,2 L10.5,1 L11.5,1 C11.7761424,1 12,1.22385763 12,1.5 L12,3.5 C12,3.77614237 11.7761424,4 11.5,4 L10.5,4 L10.5,3 Z M6.5,11 L8.5,11 L8.5,14 L6.5,14 L6.5,11 Z M6.5,6 L8.5,6 L8.5,9 L6.5,9 L6.5,6 Z M6.5,1 L8.5,1 L8.5,4 L6.5,4 L6.5,1 Z M5,0 L6,0 L6,15 L5,15 L5,0 Z M9,0 L10,0 L10,15 L9,15 L9,0 Z"></path>
</svg>
