<?xml version="1.0" encoding="UTF-8"?>
<svg width="15px" height="15px" viewBox="0 0 15 15" version="1.1" xmlns="http://www.w3.org/2000/svg" xmlns:xlink="http://www.w3.org/1999/xlink">
    <path d="M2.5,11 L2.5,14 L1.5,14 C1.22385763,14 1,13.7761424 1,13.5 L1,11.5 C1,11.2238576 1.22385763,11 1.5,11 L2.5,11 Z M4.5,11 L10.5,11 L10.5,14 L4.5,14 L4.5,11 Z M12.5,11 L13.5,11 C13.7761424,11 14,11.2238576 14,11.5 L14,13.5 C14,13.7761424 13.7761424,14 13.5,14 L12.5,14 L12.5,11 Z M2.5,4.60733977 L2.5,7.71316831 L1.31621647,7.39597447 C1.04948342,7.32450356 0.891192178,7.05033508 0.962663084,6.78360203 L1.48030117,4.85175038 C1.55177208,4.58501733 1.82594056,4.42672608 2.09267361,4.49819699 L2.5,4.60733977 Z M4.5,5.14323815 L10.5,6.75093331 L10.5,9.85676185 L4.5,8.24906669 L4.5,5.14323815 Z M12.5,7.28683169 L13.6837835,7.60402553 C13.9505166,7.67549644 14.1088078,7.94966492 14.0373369,8.21639797 L13.5196988,10.1482496 C13.4482279,10.4149827 13.1740594,10.5732739 12.9073264,10.501803 L12.5,10.3926602 L12.5,7.28683169 Z M2.5,1 L2.5,4 L1.5,4 C1.22385763,4 1,3.77614237 1,3.5 L1,1.5 C1,1.22385763 1.22385763,1 1.5,1 L2.5,1 Z M4.5,1 L10.5,1 L10.5,4 L4.5,4 L4.5,1 Z M12.5,1 L13.5,1 C13.7761424,1 14,1.22385763 14,1.5 L14,3.5 C14,3.77614237 13.7761424,4 13.5,4 L12.5,4 L12.5,1 Z M3,0 L4,0 L4,15 L3,15 L3,0 Z M11,0 L12,0 L12,15 L11,15 L11,0 Z"></path>
</svg>
