<?xml version="1.0" encoding="UTF-8"?>
<svg width="15px" height="15px" viewBox="0 0 15 15" version="1.1" xmlns="http://www.w3.org/2000/svg" xmlns:xlink="http://www.w3.org/1999/xlink">
    <path d="M11.5,3 L12,3 L12,2 L11.5,2 L11.5,1 L12.5,1 C12.7761424,1 13,1.22385763 13,1.5 L13,3.5 C13,3.77614237 12.7761424,4 12.5,4 L11.5,4 L11.5,3 Z M3.5,3 L3.5,4 L2.5,4 C2.22385763,4 2,3.77614237 2,3.5 L2,1.5 C2,1.22385763 2.22385763,1 2.5,1 L3.5,1 L3.5,2 L3,2 L3,3 L3.5,3 Z M3.5,13 L3.5,14 L2.5,14 C2.22385763,14 2,13.7761424 2,13.5 L2,11.5 C2,11.2238576 2.22385763,11 2.5,11 L3.5,11 L3.5,12 L3,12 L3,13 L3.5,13 Z M11.5,13 L12,13 L12,12 L11.5,12 L11.5,11 L12.5,11 C12.7761424,11 13,11.2238576 13,11.5 L13,13.5 C13,13.7761424 12.7761424,14 12.5,14 L11.5,14 L11.5,13 Z M11.5,8 L12,8 L12,7 L11.5,7 L11.5,6 L12.5,6 C12.7761424,6 13,6.22385763 13,6.5 L13,8.5 C13,8.77614237 12.7761424,9 12.5,9 L11.5,9 L11.5,8 Z M3.5,8 L3.5,9 L2.5,9 C2.22385763,9 2,8.77614237 2,8.5 L2,6.5 C2,6.22385763 2.22385763,6 2.5,6 L3.5,6 L3.5,7 L3,7 L3,8 L3.5,8 Z M5.5,11 L9.5,11 L9.5,14 L5.5,14 L5.5,11 Z M5.5,6 L9.5,6 L9.5,9 L5.5,9 L5.5,6 Z M5.5,1 L9.5,1 L9.5,4 L5.5,4 L5.5,1 Z M4,0 L5,0 L5,15 L4,15 L4,0 Z M10,0 L11,0 L11,15 L10,15 L10,0 Z"></path>
</svg>
