<?xml version="1.0" encoding="UTF-8"?>
<svg width="15px" height="15px" viewBox="0 0 15 15" version="1.1" xmlns="http://www.w3.org/2000/svg" xmlns:xlink="http://www.w3.org/1999/xlink">
    <path d="M6,12 L5.5,13 L9.5,13 L9,12 L10.5,12 L12,15 L10.5,15 L10,14 L5,14 L4.5,15 L3,15 L4.5,12 L6,12 Z M5.90512523,0.375 C6.2638447,0.582106781 6.38675107,1.04079959 6.17964428,1.39951905 L1.42964428,9.62676039 C1.2225375,9.98547986 0.763844699,10.1083862 0.405125231,9.90127944 C0.0464057638,9.69417266 -0.0765006026,9.23547986 0.130606179,8.87676039 L4.88060618,0.649519053 C5.08771296,0.290799585 5.54640576,0.167893219 5.90512523,0.375 Z M3.49982618,7.04110016 L6.49982618,1.84494774 L9.58807272,2.52814979 C9.68840886,2.5503468 9.77946889,2.60292033 9.84886014,2.67871547 L11.8780336,4.8951546 C11.9474248,4.97094974 12.0384848,5.02352327 12.138821,5.04572029 L14.5609402,5.58155731 C14.8305636,5.64120514 15.0007823,5.90813217 14.9411345,6.17775551 C14.9301011,6.22762907 14.9114907,6.27551748 14.885951,6.31975356 L12.4102893,10.6077252 C12.3012194,10.79664 12.0822649,10.8930406 11.8692747,10.8459215 L9.13882098,10.2418727 C9.03848484,10.2196757 8.94742481,10.1671022 8.87803356,10.091307 L6.84886014,7.87486789 C6.77946889,7.79907276 6.68840886,7.74649922 6.58807272,7.72430221 L3.49982618,7.04110016 Z"></path>
</svg>
