<?xml version="1.0" encoding="UTF-8"?>
<svg width="15px" height="15px" viewBox="0 0 15 15" version="1.1" xmlns="http://www.w3.org/2000/svg" xmlns:xlink="http://www.w3.org/1999/xlink">
    <path d="M4.5,11 L4.5,14 L4,14 C3.72385763,14 3.5,13.7761424 3.5,13.5 L3.5,11.5 C3.5,11.2238576 3.72385763,11 4,11 L4.5,11 Z M6.5,11 L8.5,11 L8.5,14 L6.5,14 L6.5,11 Z M10.5,11 L11,11 C11.2761424,11 11.5,11.2238576 11.5,11.5 L11.5,13.5 C11.5,13.7761424 11.2761424,14 11,14 L10.5,14 L10.5,11 Z M4.5,6 L4.5,9 L4,9 C3.72385763,9 3.5,8.77614237 3.5,8.5 L3.5,6.5 C3.5,6.22385763 3.72385763,6 4,6 L4.5,6 Z M6.5,6 L8.5,6 L8.5,9 L6.5,9 L6.5,6 Z M10.5,6 L11,6 C11.2761424,6 11.5,6.22385763 11.5,6.5 L11.5,8.5 C11.5,8.77614237 11.2761424,9 11,9 L10.5,9 L10.5,6 Z M4.5,1 L4.5,4 L4,4 C3.72385763,4 3.5,3.77614237 3.5,3.5 L3.5,1.5 C3.5,1.22385763 3.72385763,1 4,1 L4.5,1 Z M6.5,1 L8.5,1 L8.5,4 L6.5,4 L6.5,1 Z M10.5,1 L11,1 C11.2761424,1 11.5,1.22385763 11.5,1.5 L11.5,3.5 C11.5,3.77614237 11.2761424,4 11,4 L10.5,4 L10.5,1 Z M5,0 L6,0 L6,15 L5,15 L5,0 Z M9,0 L10,0 L10,15 L9,15 L9,0 Z"></path>
</svg>
