<?xml version="1.0" encoding="UTF-8"?>
<svg width="15px" height="15px" viewBox="0 0 15 15" version="1.1" xmlns="http://www.w3.org/2000/svg" xmlns:xlink="http://www.w3.org/1999/xlink">
    <path d="M11,2 L11,3.71690481 C11,3.89253624 10.9078506,4.05528965 10.7572479,4.14565127 L9.47100849,4.91739491 C8.86859767,5.2788414 8.5,5.92985505 8.5,6.63238076 L8.5,9.49627094 C8.5,10.9461294 9.5368716,12.1885221 10.9633437,12.4478807 L13.5894427,12.9253532 C13.8271881,12.9685796 14,13.1756451 14,13.4172882 L14,14 L1,14 L1,13.4172882 C1,13.1756451 1.17281193,12.9685796 1.41055728,12.9253532 L4.03665631,12.4478807 C5.4631284,12.1885221 6.5,10.9461294 6.5,9.49627094 L6.5,6.63238076 C6.5,5.92985505 6.13140233,5.2788414 5.52899151,4.91739491 L4.24275212,4.14565127 C4.09214942,4.05528965 4,3.89253624 4,3.71690481 L4,2 C4,1.44771525 4.44771525,1 5,1 L10,1 C10.5522847,1 11,1.44771525 11,2 Z"></path>
</svg>
