<?xml version="1.0" encoding="UTF-8"?>
<!DOCTYPE svg PUBLIC "-//W3C//DTD SVG 1.1//EN" "http://www.w3.org/Graphics/SVG/1.1/DTD/svg11.dtd">
<svg version="1.1" xmlns="http://www.w3.org/2000/svg" xmlns:xlink="http://www.w3.org/1999/xlink" x="0" y="0" width="15" height="15" viewBox="0 0 15 15">
  <path d="M13.5,12H13V4.5a.5.5,0,0,0-1,0V5H3V4.5a.5.5,0,0,0-1,0V12H1.5a.5.5,0,0,0,0,1h2a.5.5,0,0,0,0-1H3V11h9v1h-.5a.5.5,0,0,0,0,1h2a.5.5,0,0,0,0-1ZM3,10V6H4v4Zm2,0V6H6v4Zm2,0V6H8v4Zm2,0V6h1v4Zm3,0H11V6h1Z"/>
</svg>
