<?xml version="1.0" encoding="UTF-8"?>
<svg width="15px" height="15px" viewBox="0 0 15 15" version="1.1" xmlns="http://www.w3.org/2000/svg" xmlns:xlink="http://www.w3.org/1999/xlink">
    <path d="M2.5,13 L2.5,14 L1.5,14 C1.22385763,14 1,13.7761424 1,13.5 L1,11.5 C1,11.2238576 1.22385763,11 1.5,11 L2.5,11 L2.5,12 L2,12 L2,13 L2.5,13 Z M2.5,8 L2.5,9 L1.5,9 C1.22385763,9 1,8.77614237 1,8.5 L1,6.5 C1,6.22385763 1.22385763,6 1.5,6 L2.5,6 L2.5,7 L2,7 L2,8 L2.5,8 Z M2.5,3 L2.5,4 L1.5,4 C1.22385763,4 1,3.77614237 1,3.5 L1,1.5 C1,1.22385763 1.22385763,1 1.5,1 L2.5,1 L2.5,2 L2,2 L2,3 L2.5,3 Z M12.5,13 L13,13 L13,12 L12.5,12 L12.5,11 L13.5,11 C13.7761424,11 14,11.2238576 14,11.5 L14,13.5 C14,13.7761424 13.7761424,14 13.5,14 L12.5,14 L12.5,13 Z M12.5,8 L13,8 L13,7 L12.5,7 L12.5,6 L13.5,6 C13.7761424,6 14,6.22385763 14,6.5 L14,8.5 C14,8.77614237 13.7761424,9 13.5,9 L12.5,9 L12.5,8 Z M12.5,3 L13,3 L13,2 L12.5,2 L12.5,1 L13.5,1 C13.7761424,1 14,1.22385763 14,1.5 L14,3.5 C14,3.77614237 13.7761424,4 13.5,4 L12.5,4 L12.5,3 Z M4.5,11 L10.5,11 L10.5,14 L4.5,14 L4.5,11 Z M4.5,6 L10.5,6 L10.5,9 L4.5,9 L4.5,6 Z M4.5,1 L10.5,1 L10.5,4 L4.5,4 L4.5,1 Z M3,0 L4,0 L4,15 L3,15 L3,0 Z M11,0 L12,0 L12,15 L11,15 L11,0 Z"></path>
</svg>
