<?xml version="1.0" encoding="UTF-8"?>
<!DOCTYPE svg PUBLIC "-//W3C//DTD SVG 1.1//EN" "http://www.w3.org/Graphics/SVG/1.1/DTD/svg11.dtd">
<svg version="1.1" xmlns="http://www.w3.org/2000/svg" xmlns:xlink="http://www.w3.org/1999/xlink" x="0" y="0" width="15" height="15" viewBox="0 0 15 15">
    <path d="M9.214,1.5 C10.476,1.5 11.5,2.533 11.5,3.808 L11.5,11.192 C11.5,12.466 10.477,13.5 9.214,13.5 L5.786,13.499 C4.523,13.5 3.5,12.466 3.5,11.192 L3.5,3.808 C3.5,2.533 4.523,1.5 5.786,1.5 L9.214,1.5 z M7.5,8.5 C6.672,8.5 6,9.171 6,10 C6,10.828 6.672,11.5 7.5,11.5 C8.328,11.5 9,10.828 9,10 C9,9.171 8.328,8.5 7.5,8.5 z M7.5,3.5 C6.671,3.5 6,4.172 6,5 C6,5.828 6.671,6.5 7.5,6.5 C8.328,6.5 9,5.828 9,5 C9,4.172 8.328,3.5 7.5,3.5 z"/>
</svg>
