<?xml version="1.0" encoding="UTF-8"?>
<!DOCTYPE svg PUBLIC "-//W3C//DTD SVG 1.1//EN" "http://www.w3.org/Graphics/SVG/1.1/DTD/svg11.dtd">
<svg version="1.1" xmlns="http://www.w3.org/2000/svg" xmlns:xlink="http://www.w3.org/1999/xlink" x="0" y="0" width="15" height="15" viewBox="0 0 15 15">
<path d="M14,13 L14,4 L4,4 L4,13 z M9,5 L13.5,9 L12,9 L12,12 L10,12 L10,10 L8,10 L8,12 L6,12 L6,9 L4.5,9 L9,5 z M3,2 C3,2 3,1 3,1 C3,0.5 1,0.5 1,1 C1,1 1,15 1,15 L3,15 L3,3 C3,3 14,3 14,3 C14.5,3 14.5,2 14,2 C14,2 3,2 3,2 z"/>
</svg>
