<?xml version="1.0" encoding="UTF-8"?>
<svg viewBox="0 0 15 15" version="1.1" xmlns="http://www.w3.org/2000/svg" xmlns:xlink="http://www.w3.org/1999/xlink">
  <path d="M0.998605645,13.1567985 C1.25461675,13.5425437 1.59747309,13.8656548 1.99927849,14.0982359 L2,15 L1,15 L0.998605645,13.1567985 Z M5.48616339,1.75851585 L5.58395705,1.92990929 C8.18657714,1.89326137 10.1494804,2.82283272 11.4160251,4.7226499 C12.7948409,6.79087348 13.8159107,9.85408302 14.493197,13.9178005 C14.5385945,14.1901857 14.3545847,14.4477994 14.0821995,14.493197 C13.8098143,14.5385945 13.5522006,14.3545847 13.506803,14.0821995 C12.850756,10.145917 11.8718258,7.20912652 10.5839749,5.2773501 C9.59726696,3.79728826 8.11462066,3.01549568 6.09168364,2.93512528 C5.93500369,2.57861084 5.73308749,2.18630181 5.48616339,1.75851585 Z M1.40469154,10.1357671 L1.41372289,10.1220231 C1.46985724,10.0372056 1.53102543,9.95601093 1.5968016,9.87886483 C1.61380774,9.85891801 1.63116519,9.83919419 1.64882479,9.81974977 C1.66884753,9.79770441 1.68921658,9.77606137 1.7099617,9.75478678 C1.72433069,9.74004668 1.73914558,9.72522432 1.75414376,9.71058895 C1.78429516,9.6811549 1.81557116,9.65213861 1.84757467,9.62392839 C1.85569218,9.61677111 1.86410655,9.60945102 1.87257007,9.60218656 C1.90537831,9.57403248 1.93871252,9.54687848 1.97274353,9.52058256 C1.98154789,9.51377673 1.99077147,9.5067484 2.00004507,9.49978306 C2.41786761,9.18595904 2.93721728,9 3.5,9 C4.06360206,9 4.5836445,9.1865009 5.00177917,9.50115452 L5.00077142,9.50039657 L5.01885042,9.51411548 C5.05651031,9.54296218 5.09332581,9.57285593 5.12925343,9.60375324 L5.00077142,9.50039657 C5.05255231,9.53932186 5.10277231,9.58021166 5.15132073,9.62295528 C5.18412849,9.65184347 5.2160752,9.68148291 5.24722935,9.71192987 C5.26153744,9.72590125 5.27640819,9.74079139 5.29109023,9.75586622 C5.31142712,9.77674552 5.33146825,9.79805209 5.35113469,9.81970514 C5.36976846,9.84022901 5.38775496,9.86069847 5.40540816,9.88146012 C5.4238822,9.90317409 5.44244965,9.9257857 5.46062311,9.94872368 C5.4764014,9.96864627 5.49159651,9.98843071 5.50649922,10.0084457 C5.5286802,10.0382279 5.55039251,10.0687846 5.57142481,10.0998395 C5.58109545,10.1141172 5.59067999,10.1285892 5.6001169,10.1431657 C5.60960725,10.1578276 5.61883038,10.1724045 5.62790589,10.1870824 C5.69349135,10.2931122 5.7515494,10.404822 5.80105903,10.521048 C5.80940952,10.5406577 5.81740352,10.5601104 5.82515751,10.5796843 C5.83488372,10.6042202 5.84442523,10.6294821 5.85356558,10.6549351 C5.86276526,10.6805675 5.87142288,10.7059746 5.87967927,10.731562 C5.88986121,10.7630909 5.89959348,10.7954657 5.90867997,10.8281095 C5.91615207,10.8549708 5.9230885,10.8816087 5.92959284,10.9084155 C5.93402694,10.9266867 5.93828346,10.9451422 5.94233442,10.9636745 C5.94922485,10.9951771 5.95557869,11.027224 5.96131378,11.0594848 C5.96672042,11.0898843 5.97160478,11.1206678 5.97592194,11.1516329 C5.99180439,11.2656202 6,11.381853 6,11.5 C6,11.6260877 5.99066572,11.7499952 5.97265048,11.8710692 C5.96617364,11.914593 5.95858292,11.9577116 5.94990271,12.0004345 C5.71803791,13.1413907 4.70928843,14 3.5,14 C2.88384232,14 2.31974685,13.7770952 1.88395398,13.4075258 L2.00004507,13.5002169 C1.94092588,13.4558129 1.8838393,13.4088489 1.82894991,13.3594896 C1.80303503,13.3362025 1.77696935,13.3117556 1.75143711,13.2867659 C1.74009761,13.2756646 1.72908465,13.2646811 1.71817434,13.2535962 C1.69305102,13.2280722 1.66843418,13.201969 1.64438221,13.1753457 C1.6283033,13.1575495 1.61240128,13.1394323 1.59675985,13.1210862 C1.45468709,12.954455 1.33408302,12.7688756 1.23928469,12.5686922 C1.22761196,12.5440406 1.21637125,12.5192612 1.20552688,12.49427 C1.19199923,12.4630998 1.17903835,12.4314711 1.16671464,12.3995256 C1.16130329,12.3854888 1.15621354,12.3719344 1.15123872,12.3583248 C1.13868203,12.3239896 1.126743,12.2889422 1.11556997,12.2535547 C1.10822952,12.2302927 1.10133135,12.2072758 1.09475849,12.184122 C1.08677423,12.1560171 1.07915535,12.1272473 1.07204138,12.0982791 C1.06408192,12.0658518 1.05681318,12.0334612 1.05017967,12.0008397 C1.04575542,11.9790691 1.04166742,11.9574989 1.03785841,11.9358327 C1.03209661,11.9030624 1.02696637,11.8700227 1.02248966,11.8367758 C1.0076676,11.7267647 1,11.6142778 1,11.5 C1,11.381853 1.00819561,11.2656202 1.02404932,11.1518391 C1.02851482,11.1198243 1.03352298,11.0883588 1.03911233,11.0570946 C1.04304917,11.0350531 1.04735593,11.0127203 1.05195772,10.9904953 C1.05786599,10.9619772 1.06419205,10.9339155 1.07098555,10.9060369 C1.08023769,10.8680419 1.09047083,10.8300044 1.10156719,10.7923368 C1.10559398,10.7786732 1.10964919,10.7653301 1.11381244,10.7520348 C1.12572427,10.7139733 1.13865657,10.6759358 1.15246705,10.6383224 C1.15813812,10.622873 1.16403193,10.6073039 1.17007583,10.5918099 C1.18457906,10.5546419 1.19983404,10.5181569 1.21591672,10.4821224 C1.22332816,10.4655148 1.23095588,10.4489173 1.23875884,10.4324189 C1.28493928,10.3347813 1.33722974,10.240657 1.3951547,10.1504972 L1.40469154,10.1357671 L1.40469154,10.1357671 Z M3.5,10.5 C2.94771525,10.5 2.5,10.9477153 2.5,11.5 C2.5,12.0522847 2.94771525,12.5 3.5,12.5 C4.05228475,12.5 4.5,12.0522847 4.5,11.5 C4.5,10.9477153 4.05228475,10.5 3.5,10.5 Z M0.998605645,6.15679853 C1.25461675,6.54254366 1.59747309,6.86565485 1.99927849,7.09823591 L1.99927849,8.90176409 C1.59747309,9.13434515 1.25461675,9.45745634 0.998605645,9.84320147 L0.998605645,6.15679853 Z M6.00072758,6.15780276 L6.00072758,9.84219724 C5.74478807,9.45689554 5.40217818,9.13414329 5.00072151,8.90176409 L5.00072151,7.09823591 C5.40217818,6.86585671 5.74478807,6.54310446 6.00072758,6.15780276 Z M3.78525445,0.104639591 C3.83419254,0.13863475 3.87666078,0.181102943 3.91065599,0.230040997 C4.3501168,0.862669996 4.72025233,1.43738255 5.02106258,1.95417864 L5.02106258,1.95417864 C5.12417053,2.1313195 5.21913349,2.30165578 5.30595145,2.46518748 C5.76859042,3.33655868 6,4.01494265 6,4.5 C6,5.11903917 5.77500543,5.68552804 5.40233131,6.1221516 L5.49960343,6.00077142 C5.45916604,6.05456379 5.41660856,6.10667165 5.37205507,6.15697089 C5.34693682,6.18531467 5.32161128,6.2126436 5.29569328,6.23939516 C5.27728305,6.25839665 5.25861402,6.27706795 5.23965487,6.29544162 C5.21743864,6.31696565 5.19509317,6.33783892 5.17237045,6.35830139 C5.15553485,6.37347389 5.13778066,6.38902689 5.1198071,6.40432994 C5.09631063,6.42432059 5.07316799,6.44330847 5.04968395,6.46188368 C5.03369052,6.474537 5.01731059,6.48717042 5.00077142,6.49960343 C4.5836445,6.8134991 4.06360206,7 3.5,7 C2.88192133,7 2.31623001,6.77570309 1.87988172,6.40406496 L2.00004507,6.50021694 C1.94038873,6.45540943 1.88280212,6.40799527 1.82745431,6.35814356 C1.80490683,6.33783892 1.78256136,6.31696565 1.76060484,6.29569328 C1.74176139,6.27743997 1.72306167,6.25874554 1.70466041,6.23976015 C1.67838872,6.2126436 1.65306318,6.18531467 1.62835126,6.15742951 C1.61756572,6.1452559 1.60710623,6.13322165 1.59676073,6.12108724 C1.57230609,6.09240542 1.54844965,6.06311417 1.52525426,6.03328344 C1.51696554,6.02262544 1.50863704,6.01173341 1.50039657,6.00077142 C1.1862608,5.58297478 1,5.06323916 1,4.5 C1,3.69858937 1.63169195,2.36944402 2.89507586,0.512563948 L3.08927437,0.230041439 C3.2468352,0.00322308333 3.55843609,-0.0529212363 3.78525445,0.104639591 Z M3.5,3.5 C2.94771525,3.5 2.5,3.94771525 2.5,4.5 C2.5,5.05228475 2.94771525,5.5 3.5,5.5 C4.05228475,5.5 4.5,5.05228475 4.5,4.5 C4.5,3.94771525 4.05228475,3.5 3.5,3.5 Z"/>
</svg>