<?xml version="1.0" encoding="UTF-8"?>
<svg version="1.1" xmlns="http://www.w3.org/2000/svg" xmlns:xlink="http://www.w3.org/1999/xlink" x="0" y="0" viewBox="0 0 15 15">
  <path d="M1,13 C1.25,13.5 1.75,14 2,14 L2,15 L1,15 L1,13 z M6,2.75 C6,2.75 8,3.51 8,6.5 C8,7 8,8 8,8.5 C8,10.75 10,14 14,14 C14.5,14 14.5,15 14,15 C10,15 7,11.75 7,8.5 C7,8 7,7 7,6.5 C7,5 6.5,4.5 6.5,4.5 C6.5,4 6.5,3.5 6,2.75 z M1,11.5 C1,10.25 2.25,9 3.5,9 C4.75,9 6,10.25 6,11.5 C6,12.748 5,14 3.5,14 C2,14 1,12.75 1,11.5 z M3.5,10.5 C3,10.5 2.5,11 2.5,11.5 C2.5,12 3,12.5 3.5,12.5 C4,12.5 4.5,12 4.5,11.5 C4.5,11 4,10.5 3.5,10.5 z M1,6 C1.25,6.5 1.5,6.75 2,7 L2,9 C1.5,9.25 1.25,9.5 1,10 L1,6 z M6,6 L6,10 C5.75,9.5 5.5,9.25 5,9 L5,7 C5.5,6.75 5.75,6.5 6,6 z M3.5,0 C4,0 6,3 6,4.5 C6,5.75 4.75,7 3.5,7 C2.25,7 1,5.75 1,4.5 C1,3 3,0 3.5,0 z M3.5,3.5 C3,3.5 2.5,4 2.5,4.5 C2.5,5 3,5.5 3.5,5.5 C4,5.5 4.5,5 4.5,4.5 C4.5,4 4,3.5 3.5,3.5 z"/>
</svg>