<?xml version="1.0" encoding="UTF-8"?>
<svg viewBox="0 0 15 15" version="1.1" xmlns="http://www.w3.org/2000/svg" xmlns:xlink="http://www.w3.org/1999/xlink">
  <path d="M0.998605645,13.1567985 C1.25461675,13.5425437 1.59747309,13.8656548 1.99927849,14.0982359 L2,15 L1,15 L0.998605645,13.1567985 Z M6.01705369,2.77083902 C7.1590062,3.54145469 7.927221,4.82335287 7.99510201,6.2881643 L8,6.5 L8,8.5 C8,11.4634791 10.34378,13.8795391 13.2787929,13.9956328 L13.5,14 L14,14 L14,15 L13.5,15 C9.98818936,15 7.12684944,12.2150038 7.00410301,8.73313413 L7,8.5 L7,6.5 C7,5.83671684 6.81549605,5.2165269 6.49501143,4.68795345 L6.5,4.5 C6.5,4.03957699 6.33878068,3.46626702 6.01705369,2.77083902 Z M1.3951547,10.1504972 L1.41372289,10.1220231 C1.46985724,10.0372056 1.53102543,9.95601093 1.5968016,9.87886483 L1.73181679,9.73264859 L1.73181679,9.73264859 L1.87257007,9.60218656 L1.87257007,9.60218656 L2.00004507,9.49978306 L2.00004507,9.49978306 C2.41786761,9.18595904 2.93721728,9 3.5,9 C3.9931518,9 4.45295327,9.14278975 4.8403157,9.38928053 L5.00077142,9.50039657 C5.05255231,9.53932186 5.10277231,9.58021166 5.15132073,9.62295528 L5.29109023,9.75586622 L5.29109023,9.75586622 L5.43312835,9.9146329 L5.43312835,9.9146329 L5.58012667,10.1127739 L5.58012667,10.1127739 L5.65926819,10.2392124 L5.65926819,10.2392124 L5.73224568,10.3731512 L5.73224568,10.3731512 L5.82515751,10.5796843 L5.82515751,10.5796843 L5.87967927,10.731562 L5.87967927,10.731562 L5.93610731,10.9359471 L5.93610731,10.9359471 L5.96902641,11.1053467 L5.96902641,11.1053467 L5.97592194,11.1516329 C5.99180439,11.2656202 6,11.381853 6,11.5 C6,11.6260877 5.99066572,11.7499952 5.97265048,11.8710692 C5.96617364,11.914593 5.95858292,11.9577116 5.94990271,12.0004345 C5.71803791,13.1413907 4.70928843,14 3.5,14 C2.95230428,14 2.44574414,13.8238777 2.03386564,13.525179 L2.00004507,13.5002169 C1.94092588,13.4558129 1.8838393,13.4088489 1.82894991,13.3594896 L1.67797577,13.2118011 L1.67797577,13.2118011 L1.59675985,13.1210862 L1.59675985,13.1210862 C1.51959474,13.0305825 1.44875748,12.934481 1.3849488,12.8334846 L1.29459478,12.6784067 L1.20552688,12.49427 L1.20552688,12.49427 L1.13288547,12.3063344 L1.13288547,12.3063344 L1.09475849,12.184122 L1.09475849,12.184122 L1.06061329,12.0496323 L1.06061329,12.0496323 L1.03478235,11.9179541 L1.03478235,11.9179541 L1.02248966,11.8367758 L1.02248966,11.8367758 C1.0076676,11.7267647 1,11.6142778 1,11.5 L1.00607952,11.3242823 L1.00607952,11.3242823 L1.03099902,11.1051947 L1.03099902,11.1051947 L1.05195772,10.9904953 L1.05195772,10.9904953 L1.08558479,10.8490641 L1.08558479,10.8490641 L1.11381244,10.7520348 L1.11381244,10.7520348 L1.17007583,10.5918099 L1.17007583,10.5918099 L1.23875884,10.4324189 L1.23875884,10.4324189 C1.28493928,10.3347813 1.33722974,10.240657 1.3951547,10.1504972 Z M3.5,10.5 C2.94771525,10.5 2.5,10.9477153 2.5,11.5 C2.5,12.0522847 2.94771525,12.5 3.5,12.5 C4.05228475,12.5 4.5,12.0522847 4.5,11.5 C4.5,10.9477153 4.05228475,10.5 3.5,10.5 Z M0.998605645,6.15679853 C1.25461675,6.54254366 1.59747309,6.86565485 1.99927849,7.09823591 L1.99927849,8.90176409 C1.59747309,9.13434515 1.25461675,9.45745634 0.998605645,9.84320147 L0.998605645,6.15679853 Z M6.00072151,6.15780276 L6.00072151,9.84219724 C5.74478807,9.45689554 5.40217818,9.13414329 5.00072151,8.90176409 L5.00072151,7.09823591 C5.40217818,6.86585671 5.74478807,6.54310446 6.00072151,6.15780276 Z M3.78525445,0.104639591 C3.83419254,0.13863475 3.87666078,0.181102943 3.91065599,0.230040997 C4.38676656,0.915429433 4.78150664,1.53283847 5.09487622,2.08226812 L5.24599294,2.35126392 L5.24599294,2.35126392 C5.41139278,2.6568434 5.54959338,2.93921767 5.66058206,3.19860367 L5.76313467,3.45200513 L5.76313467,3.45200513 L5.84907131,3.69541097 L5.84907131,3.69541097 L5.92419614,3.95582213 L5.92419614,3.95582213 L5.930953,3.98339763 C5.97698433,4.17482641 6,4.3470272 6,4.5 C6,4.98147491 5.86389217,5.43116013 5.62805382,5.81267837 L5.49945313,6.00097133 L5.43723724,6.08034705 L5.43723724,6.08034705 L5.33415928,6.19879682 L5.33415928,6.19879682 L5.20619264,6.32727924 L5.20619264,6.32727924 L5.08424873,6.43404143 L5.08424873,6.43404143 L5.00077142,6.49960343 L5.00077142,6.49960343 C4.5836445,6.8134991 4.06360206,7 3.5,7 C3.01927214,7 2.5702354,6.86431421 2.189098,6.62915088 L2.00004507,6.50021694 L1.91467821,6.43316349 L1.91467821,6.43316349 L1.79000774,6.3237246 L1.79000774,6.3237246 L1.67217187,6.20560567 L1.67217187,6.20560567 L1.59688757,6.12123599 L1.59688757,6.12123599 L1.50054687,6.00097133 L1.50054687,6.00097133 C1.1862608,5.58297478 1,5.06323916 1,4.5 C1,3.69858937 1.63169195,2.36944402 2.89507586,0.512563948 L3.08927437,0.230041439 C3.2468352,0.00322308334 3.55843609,-0.0529212363 3.78525445,0.104639591 Z M3.5,3.5 C2.94771525,3.5 2.5,3.94771525 2.5,4.5 C2.5,5.05228475 2.94771525,5.5 3.5,5.5 C4.05228475,5.5 4.5,5.05228475 4.5,4.5 C4.5,3.94771525 4.05228475,3.5 3.5,3.5 Z"/>
</svg>