<?xml version="1.0" encoding="UTF-8"?>
<svg width="15px" height="15px" viewBox="0 0 15 15" version="1.1" xmlns="http://www.w3.org/2000/svg" xmlns:xlink="http://www.w3.org/1999/xlink">
    <path d="M4.34314575,9 L8.82842712,9 L3.05025253,14.7781746 L2.34314575,14.0710678 L5.87867966,10.5355339 L5.52512627,10.1819805 L5.35355339,10.3535534 C3.82495791,11.8821489 2.17504209,11.8821489 0.646446609,10.3535534 L0.292893219,10 L1,9.29289322 L1.35355339,9.64644661 C2.49162458,10.7845178 3.50837542,10.7845178 4.64644661,9.64644661 L4.81801948,9.47487373 L4.34314575,9 L4.34314575,9 Z M4.17157288,8 L6.17157288,6 L11.8284271,6 L9.82842712,8 L4.17157288,8 Z M7.17157288,5 L9.41421356,2.75735931 L11.6568542,5 L7.17157288,5 L7.17157288,5 Z M9,0.999978381 L14,0.98959236 L14,5.98959236 L9,0.999978381 Z"></path>
</svg>
