<?xml version="1.0" encoding="UTF-8"?>
<!DOCTYPE svg PUBLIC "-//W3C//DTD SVG 1.1//EN" "http://www.w3.org/Graphics/SVG/1.1/DTD/svg11.dtd">
<svg version="1.1" xmlns="http://www.w3.org/2000/svg" xmlns:xlink="http://www.w3.org/1999/xlink" x="0" y="0" width="15" height="15" viewBox="0 0 15 15">
<path d="M5.5,5 C5.5,5 15,15 15,15 C15,15 13.5,15 13.5,15 C13.5,15 12,13.5 12,13.5 C12,13.5 12,15 12,15 L11,15 C11,15 11,12.5 11,12.5 C11,12.5 9,10.25 9,10.25 C9,10.25 9,15 9,15 L8,15 C8,15 8,9.5 8,9.5 C8,9.5 6,7.25 6,7.25 C6,7.25 6,15 6,15 L5,15 C5,15 5,6.25 5,6.25 C5,6.25 3.75,4.75 3,4.75 L3,15 L2,15 L2,4.75 C1,4.75 -0,5.75 -0,5.75 C-0,5.75 -0,4.25 -0,4.25 C0,4.25 1,3.5 2.5,3.5 C4.5,3.5 5.5,5 5.5,5 z"/>
<path d="M5,3 C5,3 6,4 6,4 C6,4 7,3 8,4 C9,5 8,6 8,6 C8,6 10.5,8.5 10.5,8.5 C10.5,8.5 11.5,7.5 12.5,8.5 C13.5,9.5 12.5,10.5 12.5,10.5 C12.5,10.5 14,12 14,12 C14,12 15.5,8.5 13,6 C11,7.5 9,5 10.5,3.5 C11.5,2.5 7,0.5 7,0.5 C7,0.5 5.02,3 5,3 z M7,6 C7.5,6 8,5.5 8,5 C8,4.5 7.5,4 7,4 C6.5,4 6,4.5 6,5 C6,5.5 6.5,6 7,6 z M11.5,10.5 C12,10.5 12.5,10 12.5,9.5 C12.5,9 12,8.5 11.5,8.5 C11,8.5 10.5,9 10.5,9.5 C10.5,10 11,10.5 11.5,10.5 z"/>
</svg>
