<?xml version="1.0" encoding="UTF-8"?>
<svg viewBox="0 0 15 15" version="1.1" xmlns="http://www.w3.org/2000/svg" xmlns:xlink="http://www.w3.org/1999/xlink">
  <path d="M7.4999335,9.019 L14.9071523,11.9821192 L14.9721754,11.9985102 L14.999,12 L7.5,15 L0,12 L0.0465358259,11.9956739 L0.0465358259,11.9956739 L0.0928476691,11.9821192 L7.4999335,9.019 Z M7.5,10.077 L2.692,12 L7.5,13.922 L12.307,12 L7.5,10.077 Z M7.2499335,0.1 L7.25,8.5 L7.25660268,8.55732271 L7.26184622,8.57626541 L4.9999335,9.48 L5,5.51227336 C5,5.36454619 4.96943292,5.21841697 4.91022108,5.08307564 C4.67318173,4.5412714 4.04180424,4.29421064 3.5,4.53125 C2.64573887,4.90498924 2.07485798,5.71959756 2.00683483,6.63949043 L2,6.82477336 L1.9999335,10.68 L-6.65015264e-05,11.48 L-6.65015264e-05,3 L7.2499335,0.1 Z M7.7499335,0.1 L15,3 L15,11.48 L7.73819197,8.57614593 L7.74697173,8.53902686 L7.74697173,8.53902686 L7.75,8.5 L7.7499335,0.1 Z M9.75,4 L9.75,7 L12.75,8.25 L12.75,5.25 L9.75,4 Z M4,6.75 C4.27614237,6.75 4.5,6.97385763 4.5,7.25 C4.5,7.52614237 4.27614237,7.75 4,7.75 C3.72385763,7.75 3.5,7.52614237 3.5,7.25 C3.5,6.97385763 3.72385763,6.75 4,6.75 Z"/>
</svg>