<?xml version="1.0" encoding="UTF-8"?>
<!DOCTYPE svg PUBLIC "-//W3C//DTD SVG 1.1//EN" "http://www.w3.org/Graphics/SVG/1.1/DTD/svg11.dtd">
<svg version="1.1" xmlns="http://www.w3.org/2000/svg" xmlns:xlink="http://www.w3.org/1999/xlink" x="0" y="0" width="15" height="15" viewBox="0 0 15 15">
    <path d="M1,5.5 C1,4.979 4,5.021 4,5.5 C4,5.979 4,12 4,13 C4,13.5 1,13.5 1,13 C1,12 1,6.021 1,5.5 z M6,5.5 C6,6.021 6,12 6,13 C6,13.5 9,13.5 9,13 C9,12 9,5.979 9,5.5 C9,5.021 6,4.979 6,5.5 z M11.58,6.5 C11,6 9,8 9.5,8.437 C9.81,8.806 13.067,12.688 13.662,13.397 C14.209,13.493 14.593,13.327 15,13 C14.119,12.136 14.418,12.248 14.268,11.259 C14.484,10.423 14.269,10.767 14.849,10.198 C13.824,8.975 12,7 11.58,6.5 z M6,1.5 L1,1.5 C0.5,1.5 0.5,4.5 1,4.5 C2,4.5 8.521,4.5 9,4.5 C9.466,4.184 9.212,2.958 9,2.5 C7.619,2.5 6,2.052 6,1.5 z"/>
</svg>
