<?xml version="1.0" encoding="UTF-8"?>
<!DOCTYPE svg PUBLIC "-//W3C//DTD SVG 1.1//EN" "http://www.w3.org/Graphics/SVG/1.1/DTD/svg11.dtd">
<svg version="1.1" xmlns="http://www.w3.org/2000/svg" xmlns:xlink="http://www.w3.org/1999/xlink" x="0" y="0" width="15" height="15" viewBox="0 0 15 15">
<path d="M1,5.5 C1,5 4,5 4,5.5 C4,5.5 4,13 4,13 C4,13.5 1,13.5 1,13 C1,13 1,5.5 1,5.5 z M6,5.5 C6,5.5 6,13 6,13 C6,13.5 9,13.5 9,13 C9,13 9,5.5 9,5.5 C9,5 6,5 6,5.5 z M11.5,6.5 C11,6 9,8 9.5,8.5 C9.5,8.5 13,13 13,13 C13.5,13.5 14.5,13.5 15,13 C14,12 14,10.5 14.5,10 C14.5,10 11.5,6.5 11.5,6.5 z M6,1.5 L1,1.5 C0.5,1.5 0.5,4.5 1,4.5 C1,4.5 9,4.5 9,4.5 C9.5,4.5 9.5,2.5 9,2.5 C7.5,2.5 6,2 6,1.5 z"/>
</svg>
