<?xml version="1.0" encoding="UTF-8"?>
<svg width="15px" height="15px" viewBox="0 0 15 15" version="1.1" xmlns="http://www.w3.org/2000/svg" xmlns:xlink="http://www.w3.org/1999/xlink">
    <path d="M15,8 L15,9 L1.66533454e-15,9 L1.66533454e-15,8 C-2.68071014e-14,7.58578644 0.335786438,7.25 0.75,7.25 L2.25,7.25 C2.66421356,7.25 3,7.58578644 3,8 L4,8 C4,7.58578644 4.33578644,7.25 4.75,7.25 L6.25,7.25 C6.66421356,7.25 7,7.58578644 7,8 L8,8 C8,7.58578644 8.33578644,7.25 8.75,7.25 L10.25,7.25 C10.6642136,7.25 11,7.58578644 11,8 L12,8 C12,7.58578644 12.3357864,7.25 12.75,7.25 L14.25,7.25 C14.6642136,7.25 15,7.58578644 15,8 Z"></path>
</svg>
