<?xml version="1.0" encoding="UTF-8"?>
<svg width="15px" height="15px" viewBox="0 0 15 15" version="1.1" xmlns="http://www.w3.org/2000/svg" xmlns:xlink="http://www.w3.org/1999/xlink">
    <path d="M1.86517468e-14,8 L15,8 L15,10 L1.86517468e-14,10 L1.86517468e-14,8 Z M1,6.5 L2,6.5 C2.55228475,6.5 3,6.94771525 3,7.5 L3,8 L-9.76996262e-15,8 L-9.76996262e-15,7.5 C-9.83759799e-15,6.94771525 0.44771525,6.5 1,6.5 Z M5,6.5 L6,6.5 C6.55228475,6.5 7,6.94771525 7,7.5 L7,8 L4,8 L4,7.5 C4,6.94771525 4.44771525,6.5 5,6.5 Z M9,6.5 L10,6.5 C10.5522847,6.5 11,6.94771525 11,7.5 L11,8 L8,8 L8,7.5 C8,6.94771525 8.44771525,6.5 9,6.5 Z M13,6.5 L14,6.5 C14.5522847,6.5 15,6.94771525 15,7.5 L15,8 L12,8 L12,7.5 C12,6.94771525 12.4477153,6.5 13,6.5 Z"></path>
</svg>
