<?xml version="1.0" encoding="UTF-8"?>
<svg width="15px" height="15px" viewBox="0 0 15 15" version="1.1" xmlns="http://www.w3.org/2000/svg" xmlns:xlink="http://www.w3.org/1999/xlink">
    <path d="M1.66533454e-15,8 L15,8 L15,9 L1.66533454e-15,9 L1.66533454e-15,8 Z M1,7 L2,7 C2.55228475,7 3,7.44771525 3,8 L-2.67563749e-14,8 C-2.68240103e-14,7.44771525 0.44771525,7 1,7 Z M5,7 L6,7 C6.55228475,7 7,7.44771525 7,8 L4,8 C4,7.44771525 4.44771525,7 5,7 Z M9,7 L10,7 C10.5522847,7 11,7.44771525 11,8 L8,8 C8,7.44771525 8.44771525,7 9,7 Z M13,7 L14,7 C14.5522847,7 15,7.44771525 15,8 L12,8 C12,7.44771525 12.4477153,7 13,7 Z"></path>
</svg>
