<?xml version="1.0" encoding="UTF-8"?>
<!DOCTYPE svg PUBLIC "-//W3C//DTD SVG 1.1//EN" "http://www.w3.org/Graphics/SVG/1.1/DTD/svg11.dtd">
<svg version="1.1" xmlns="http://www.w3.org/2000/svg" xmlns:xlink="http://www.w3.org/1999/xlink" x="0" y="0" width="15" height="15" viewBox="0 0 15 15">
<path d="M8,9.75 C7.25,9.75 6.75,10.25 6.75,11 C6.75,11.75 7.25,12.25 8,12.25 C8.75,12.25 9.25,11.75 9.25,11 C9.25,10.25 8.75,9.75 8,9.75 z M13.5,3.5 C7,3 3,3.5 3,3.5 C3,3.5 1.5,3.5 1.5,5 L1.5,9 C1.5,10 2.5,10 2.5,10 C2.5,10 0.5,10 0.5,10 C0,10 0,11 0.5,11 C0.5,11 6.25,11 6.25,11 C6.25,9.75 7,9.25 8,9.25 C9,9.25 9.75,9.75 9.75,11 L14,11 C14,11 15,11 15,10 C15,10 15,5 15,5 C15,3.5 13.5,3.5 13.5,3.5 z M5.75,7 C5.75,7 3.25,7 3.25,7 C2.75,7 2.75,5 3.25,5 C3.25,5 5.75,5 5.75,5 C6.25,5 6.25,7 5.75,7 z M12.75,7 C12.75,7 8.25,7 8.25,7 C7.75,7 7.75,5 8.25,5 C8.25,5 12.75,5 12.75,5 C13.25,5 13.25,7 12.75,7 z"/>
</svg>
