<?xml version="1.0" encoding="UTF-8"?>
<svg width="15px" height="15px" viewBox="0 0 15 15" version="1.1" xmlns="http://www.w3.org/2000/svg" xmlns:xlink="http://www.w3.org/1999/xlink">
    <path d="M-1.13456755e-13,10.9449345 L-1.13464793e-13,9.71877193 C-1.13683308e-13,7.93446652 0.339363228,6.16644194 1,4.50894236 L1.81487565,2.46446633 C1.9266589,2.18400858 2.19808603,2 2.5,2 C2.79962899,2 3.07016145,2.17933069 3.18685427,2.45530227 C4.4730377,5.49702252 5.91075259,7.01788471 7.50000875,7.01788471 C9.08926465,7.01788471 10.526974,5.497023 11.8131369,2.45529957 C11.9298382,2.1793313 12.2003708,2 12.5,2 C12.801914,2 13.0733411,2.18400858 13.1851244,2.46446633 L14,4.50894236 C14.6606368,6.16644194 15,7.93446652 15,9.71877193 L15.0000175,10.9449079 C15.0000175,12.049487 14.1045791,12.9449254 13,12.9449254 C12.778158,12.9449254 12.5578617,12.908017 12.3481336,12.835712 C10.7320891,12.2785707 9.11604454,12 7.5,12 C5.88394674,12 4.26789349,12.2785737 2.65184023,12.835721 L2.65183255,12.8356987 C1.60759232,13.1957089 0.469222422,12.6410309 0.10921222,11.5967906 C0.0369079531,11.387066 -1.13437626e-13,11.1667731 -1.13464793e-13,10.9449345 Z M2.5,3.0176716 L1,7.15066467 L2,8.15066467 L3,7.15066467 L4,9.15066467 C4.66666667,7.81733134 5,7.15066467 5,7.15066467 C4.33814114,6.48880581 3.79349576,5.7193471 3.3892957,4.87510979 L2.5,3.0176716 Z M12.5,3.0176716 L11.6107043,4.87510979 C11.2065042,5.7193471 10.6618589,6.48880581 10,7.15066467 C10,7.15066467 10.3333333,7.81733134 11,9.15066467 L12,7.15066467 L13,8.15066467 L14,7.15066467 L12.5,3.0176716 Z"></path>
</svg>
