<?xml version="1.0" encoding="UTF-8"?>
<svg viewBox="0 0 15 15" version="1.1" xmlns="http://www.w3.org/2000/svg" xmlns:xlink="http://www.w3.org/1999/xlink">
  <path d="M5.5,2 C5.77614237,2 6,2.22385763 6,2.5 L6,13 L14.5,13 C14.7761424,13 15,13.2238576 15,13.5 C15,13.7761424 14.7761424,14 14.5,14 L6,14 L6,15 L5,15 L5,14 L0.5,14 C0.223857625,14 0,13.7761424 0,13.5 C0,13.2238576 0.223857625,13 0.5,13 L5,13 L5,2.5 C5,2.22385763 5.22385763,2 5.5,2 Z M9,0 C9.21185293,1.66358249 9.8785196,3.66358249 11,6 C12.1214804,8.33641751 13.2881471,10.5030842 14.5,12.5 L6.5,12.5 L6.64201183,11.6558185 C6.88067061,10.1587771 7,8.94017094 7,8 C7,7.79166667 6.99414062,7.56380208 6.98242188,7.31640625 L6.95117188,6.79557292 L6.95117188,6.79557292 L6.90429688,6.22265625 C6.89518229,6.12282986 6.88541667,6.02083333 6.875,5.91666667 L6.8046875,5.265625 L6.8046875,5.265625 L6.71875,4.5625 L6.71875,4.5625 L6.6171875,3.80729167 L6.6171875,3.80729167 L6.5,3 L6.5,3 L9,0 Z M4.03461966,4.66226656 L4.5,4 L4.5,4 L4.34738416,5.29389421 L4.34738416,5.29389421 L4.21957177,6.46644352 L4.21957177,6.46644352 L4.11656282,7.51764794 L4.11656282,7.51764794 L4.06166988,8.15103706 L4.06166988,8.15103706 L4.01780069,8.73049512 C4.0114078,8.82257721 4.00547424,8.91241217 4,9 C3.93102458,10.1036067 4.05912704,11.1589674 4.38430737,12.166082 L4.5,12.5 L0.5,12.5 L0.608880012,12.0994633 L0.608880012,12.0994633 L0.822834318,11.3414771 L0.822834318,11.3414771 L1.03171433,10.6409404 L1.03171433,10.6409404 L1.23552005,9.99785323 C1.26906481,9.8954595 1.30239815,9.7954595 1.33552005,9.69785323 L1.53171433,9.14094038 C1.69309528,8.70078365 1.8491905,8.32047019 2,8 C2.1809714,7.61543577 2.42288758,7.1713639 2.72574852,6.66778439 L3.04892439,6.14436899 C3.10617286,6.05382712 3.16511424,5.96163225 3.22574852,5.86778439 L3.60986917,5.28486135 L3.60986917,5.28486135 L4.03461966,4.66226656 L4.03461966,4.66226656 Z"/>
</svg>