<?xml version="1.0" encoding="UTF-8"?>
<svg version="1.2" baseProfile="tiny" xmlns="http://www.w3.org/2000/svg" viewBox="0 0 50 50" overflow="inherit">
  <path d="M47 49c-0.95 0 -1.88 -0.22 -2.7 -0.6c-0.84 -0.4 -1.79 -0.63 -2.79 -0.63c-0.99 0 -1.94 0.23 -2.78 0.63c-0.83 0.38 -1.76 0.6 -2.72 0.6c-0.95 0 -1.88 -0.22 -2.71 -0.6c-0.84 -0.4 -1.79 -0.63 -2.79 -0.63c-0.99 0 -1.94 0.23 -2.78 0.63c-0.83 0.38 -1.75 0.6 -2.71 0.6c-0.96 0 -1.88 -0.22 -2.71 -0.6c-0.84 -0.4 -1.8 -0.63 -2.79 -0.63c-1 0 -1.95 0.23 -2.79 0.63c-0.82 0.38 -1.75 0.6 -2.71 0.6c-0.96 0 -1.88 -0.22 -2.71 -0.6c-0.84 -0.4 -1.8 -0.63 -2.79 -0.63c-0.99 0 -1.94 0.23 -2.79 0.63c-0.83 0.38 -1.75 0.6 -2.71 0.6v-4.1c0.96 0 1.88 -0.22 2.71 -0.6c0.84 -0.39 1.8 -0.62 2.79 -0.62c0.99 0 1.94 0.23 2.79 0.62c0.83 0.38 1.75 0.6 2.71 0.6c0.97 0 1.89 -0.22 2.71 -0.6c0.84 -0.39 1.8 -0.62 2.79 -0.62c0.99 0 1.94 0.23 2.79 0.62c0.83 0.38 1.75 0.6 2.71 0.6c0.96 0 1.88 -0.22 2.71 -0.6c0.85 -0.39 1.8 -0.62 2.79 -0.62c1 0 1.95 0.23 2.79 0.62c0.82 0.38 1.75 0.6 2.71 0.6c0.96 0 1.88 -0.22 2.72 -0.6c0.84 -0.39 1.8 -0.62 2.78 -0.62c1 0 1.95 0.23 2.79 0.62c0.82 0.38 1.75 0.6 2.71 0.6v4.1zm-18 -48v31h-24.71zm3 7.12c0 3.46 15.85 12.88 14.69 23.88h-14.69v-23.88zm11.53 25.88h-33.53v6.2c1 0.1 0.85 0.21 1.19 0.38c0.83 0.37 1.8 0.59 2.76 0.59c0.97 0 1.92 -0.22 2.74 -0.58c0.84 -0.4 1.81 -0.63 2.81 -0.63c0.99 0 1.95 0.23 2.79 0.63c0.83 0.37 1.75 0.59 2.72 0.59c0.96 0 1.89 -0.22 2.71 -0.58c0.85 -0.4 1.8 -0.63 2.79 -0.63c1 0 1.95 0.23 2.79 0.63c0.82 0.37 1.75 0.59 2.71 0.59c0.19 0 0.36 -0.04 0.54 -0.07l0.05 0.02l0.33 -0.05c0.22 -0.03 0.44 -0.06 0.66 -0.11c1.97 -0.41 3.24 -2.01 3.24 -2.01l3.84 -4.95h-1.12z"/>
</svg>