<?xml version="1.0" encoding="UTF-8"?>
<svg width="15px" height="15px" viewBox="0 0 15 15" version="1.1" xmlns="http://www.w3.org/2000/svg" xmlns:xlink="http://www.w3.org/1999/xlink">
    <path d="M1.5,8 L2.5,8 C2.77614237,8 3,8.22385763 3,8.5 C3,8.77614237 2.77614237,9 2.5,9 L1.5,9 C1.22385763,9 1,8.77614237 1,8.5 C1,8.22385763 1.22385763,8 1.5,8 Z M4.5,8 L6.5,8 C6.77614237,8 7,8.22385763 7,8.5 C7,8.77614237 6.77614237,9 6.5,9 L4.5,9 C4.22385763,9 4,8.77614237 4,8.5 C4,8.22385763 4.22385763,8 4.5,8 Z M11.5,8 L13.5,8 C13.7761424,8 14,8.22385763 14,8.5 C14,8.77614237 13.7761424,9 13.5,9 L11.5,9 C11.2238576,9 11,8.77614237 11,8.5 C11,8.22385763 11.2238576,8 11.5,8 Z M8.5,8 L9.5,8 C9.77614237,8 10,8.22385763 10,8.5 C10,8.77614237 9.77614237,9 9.5,9 L8.5,9 C8.22385763,9 8,8.77614237 8,8.5 C8,8.22385763 8.22385763,8 8.5,8 Z M8,10 L10,12 L12,10 L14,10 C14,11.1045695 13.1045695,12 12,12 L3,12 C1.8954305,12 1,11.1045695 1,10 L8,10 Z M4.12132034,4 L3.18198052,4.93933983 C2.93933983,5.18198052 2.93933983,5.5753788 3.18198052,5.81801948 C3.4246212,6.06066017 3.81801948,6.06066017 4.06066017,5.81801948 L5.81801948,4.06066017 C5.8373349,4.04134476 5.85511271,4.021074 5.87135291,4 L7.12132034,4 L6.18198052,4.93933983 C5.93933983,5.18198052 5.93933983,5.5753788 6.18198052,5.81801948 C6.4246212,6.06066017 6.81801948,6.06066017 7.06066017,5.81801948 L8.81801948,4.06066017 C8.8373349,4.04134476 8.85511271,4.021074 8.87135291,4 L10.1213203,4 L9.18198052,4.93933983 C8.93933983,5.18198052 8.93933983,5.5753788 9.18198052,5.81801948 C9.4246212,6.06066017 9.81801948,6.06066017 10.0606602,5.81801948 L11.8180195,4.06066017 C11.8373349,4.04134476 11.8551127,4.021074 11.8713529,4 L12,4 C13.1045695,4 14,4.8954305 14,6 L14,7 L1,7 L1,6 C1,4.8954305 1.8954305,4 3,4 L4.12132034,4 Z"></path>
</svg>
