<?xml version="1.0" encoding="UTF-8"?>
<svg viewBox="0 0 15 15" version="1.1" xmlns="http://www.w3.org/2000/svg" xmlns:xlink="http://www.w3.org/1999/xlink">
  <path d="M12.4145899,0.101759007 L12.4863652,0.16233546 L14.8376645,2.51363482 C14.9950093,2.67097954 15.0409862,2.90435713 14.9623693,3.10633077 L14.9210095,3.19065498 L13.7110229,5.20081134 L13.6620149,5.25681741 L13.6197531,5.29500115 C13.6051807,5.30687699 13.5901453,5.31790075 13.5747134,5.32807243 L13.4826665,5.37692517 L13.4069883,5.40205612 L13.3129081,5.41750101 L13.2481521,5.41880873 L13.1712339,5.41038735 L13.0797392,5.38552114 L12.9849947,5.3401624 L12.8966609,5.27454815 L11.7025987,4.08116773 L10.0088526,5.77803849 L10.2795873,5.93240123 C10.3227275,5.95634495 10.3649184,5.97941145 10.4062229,6.00162247 L15,6 L15,14 L-2.84217094e-14,14 L-2.84217094e-14,6 L2.271,6 L2.66344526,5.63022857 L2.66344526,5.63022857 C3.76141326,4.63089141 4.89101652,4 6,4 C6.69671824,4 7.26311791,4.17478132 8.12129411,4.64517509 L8.53963028,4.88371012 L9.034,5.182 L10.9188323,3.29740128 L9.71874789,2.09583423 L9.6598376,2.0150053 L9.62916649,1.95630008 L9.59969473,1.87350244 L9.58309188,1.77992508 L9.58249953,1.68702221 L9.59794763,1.59300332 L9.63628009,1.48794878 L9.67765894,1.41675963 L9.70748192,1.37705746 L9.76909995,1.31355044 L9.8285571,1.26800602 L11.809345,0.0789904704 C12.0001535,-0.0354946266 12.2377141,-0.0234964222 12.4145899,0.101759007 Z M9,9 L4,9 L4.36754447,8.26491106 C4.7864416,7.42711681 5.33766548,6.66233452 6,6 L7.108,7.108 L8.306,5.91 L8.2673753,5.88614576 C7.17378573,5.22571336 6.61939401,5 6,5 C5.20366022,5 4.26636593,5.52348548 3.33655474,6.36977143 L2.99773857,6.68706934 L2.42397313,7.24893795 L1.71131037,7.96896479 L1,8.702 L1,12 L14,12 L14,10 C14.0123859,9.27304974 13.9344125,8.65891247 13.7660799,8.15758817 C13.4539629,7.75315486 12.9480703,7.53740976 12.2065741,7.50445909 L12,7.5 C11.3032818,7.5 10.7368821,7.32521868 9.87870589,6.85482491 L9.46036972,6.61628988 L9.277,6.506 L7.891,7.892 L9,9 Z M12.5,10 C12.7761424,10 13,10.2238576 13,10.5 C13,10.7761424 12.7761424,11 12.5,11 C12.2238576,11 12,10.7761424 12,10.5 C12,10.2238576 12.2238576,10 12.5,10 Z M4.5,10 C4.77614237,10 5,10.2238576 5,10.5 C5,10.7761424 4.77614237,11 4.5,11 C4.22385763,11 4,10.7761424 4,10.5 C4,10.2238576 4.22385763,10 4.5,10 Z M9.5,10 C9.77614237,10 10,10.2238576 10,10.5 C10,10.7761424 9.77614237,11 9.5,11 C9.22385763,11 9,10.7761424 9,10.5 C9,10.2238576 9.22385763,10 9.5,10 Z M2.5,9 C2.77614237,9 3,9.22385763 3,9.5 C3,9.77614237 2.77614237,10 2.5,10 C2.22385763,10 2,9.77614237 2,9.5 C2,9.22385763 2.22385763,9 2.5,9 Z M11.5,8 C11.7761424,8 12,8.22385763 12,8.5 C12,8.77614237 11.7761424,9 11.5,9 C11.2238576,9 11,8.77614237 11,8.5 C11,8.22385763 11.2238576,8 11.5,8 Z M3.5,7 C3.77614237,7 4,7.22385763 4,7.5 C4,7.77614237 3.77614237,8 3.5,8 C3.22385763,8 3,7.77614237 3,7.5 C3,7.22385763 3.22385763,7 3.5,7 Z M12.0082676,1.25177083 L11.0285596,1.83959567 L13.1596206,3.97065666 L13.7474454,2.99094859 L12.0082676,1.25177083 Z"/>
</svg>