<?xml version="1.0" encoding="UTF-8"?>
<!DOCTYPE svg PUBLIC "-//W3C//DTD SVG 1.1//EN" "http://www.w3.org/Graphics/SVG/1.1/DTD/svg11.dtd">
<svg version="1.1" xmlns="http://www.w3.org/2000/svg" xmlns:xlink="http://www.w3.org/1999/xlink" x="0" y="0" width="15" height="15" viewBox="0 0 15 15">
<path d="M8.5,9.5 L10,11 L11.5,9.5 L14,9.5 L14,10 C14,11.105 13.105,12 12,12 L3,12 C1.895,12 1,11.105 1,10 L1,9.5 L8.5,9.5 z"/>
<path d="M2.5,8 C2.776,8 3,8.224 3,8.5 C3,8.776 2.776,9 2.5,9 L1.5,9 C1.224,9 1,8.776 1,8.5 C1,8.224 1.224,8 1.5,8 L2.5,8 z M6.5,8 L4.5,8 C4.224,8 4,8.224 4,8.5 C4,8.776 4.224,9 4.5,9 L6.5,9 C6.776,9 7,8.776 7,8.5 C7,8.224 6.776,8 6.5,8 z M13.5,8 L11.5,8 C11.224,8 11,8.224 11,8.5 C11,8.776 11.224,9 11.5,9 L13.5,9 C13.776,9 14,8.776 14,8.5 C14,8.224 13.776,8 13.5,8 z M9.5,8 L8.5,8 C8.224,8 8,8.224 8,8.5 C8,8.776 8.224,9 8.5,9 L9.5,9 C9.776,9 10,8.776 10,8.5 C10,8.224 9.776,8 9.5,8 z"/>
<path d="M9.317,4 L8.571,5.243 C8.429,5.48 8.506,5.787 8.743,5.929 C8.98,6.071 9.287,5.994 9.429,5.757 L10.5,4 L12,4 C13.105,4 14,4.895 14,6 L14,7.5 L1,7.5 L1,6 C1,4.895 1.895,4 3,4 L4.317,4 L3.571,5.243 C3.429,5.48 3.506,5.787 3.743,5.929 C3.98,6.071 4.287,5.994 4.429,5.757 L5.5,4 L6.817,4 L6.071,5.243 C5.929,5.48 6.006,5.787 6.243,5.929 C6.48,6.071 6.787,5.994 6.929,5.757 L8,4 L9.317,4 z"/>
</svg>
