<?xml version="1.0" encoding="UTF-8"?>
<svg width="15px" height="15px" viewBox="0 0 15 15" version="1.1" xmlns="http://www.w3.org/2000/svg" xmlns:xlink="http://www.w3.org/1999/xlink">
    <path d="M6,12 L8.66666667,10 L6,8 L6,12 Z M6,13.25 L6,14 L5,14 L5,13.0058208 C4.99996075,13.0021948 4.99996078,12.9985714 5,12.9949494 L5,10 L2,10 L2,14 L1,14 L1,1 L2,1 L2,2 L13,2 L13,1 L14.0000294,1 L14,6.9941792 C14.0000393,6.99780518 14.0000392,7.0014286 14,7.00505062 L14,12.9949494 C14.0000392,12.9985714 14.0000393,13.0021948 14,13.005819 L14.0000294,14 L13,14 L13,13.25 L9.5,10.625 L6,13.25 Z M12.6666667,7 L6.33333333,7 L9.5,9.375 L12.6666667,7 L12.6666667,7 Z M13,8 L10.3333333,10 L13,12 L13,8 Z M5,7.00505063 L5,7 L2,7 L2,9 L5,9 L5,7.00505063 C4.9988504,6.89887929 5.03137085,6.79150553 5.1,6.7 C5.26568542,6.4790861 5.5790861,6.43431458 5.8,6.6 L6.33333333,7 L5,7.00505063 Z M6,4 L6,6 L13,6 L13,4 L6,4 Z M5,4 L2,4 L2,6 L5,6 L5,4 Z"></path>
</svg>
