<?xml version="1.0" encoding="UTF-8"?>
<svg width="15px" height="15px" viewBox="0 0 15 15" version="1.1" xmlns="http://www.w3.org/2000/svg" xmlns:xlink="http://www.w3.org/1999/xlink">
    <path d="M2,3 C2,1.8954305 2.8954305,1 4,1 L11,1 C12.1045695,1 13,1.8954305 13,3 L13,11 C13,12 12,12 12,12 L12,13 C12,13.5522847 11.5522847,14 11,14 C10.4477153,14 10,13.5522847 10,13 L10,12 L5,12 L5,13 C5,13.5522847 4.55228475,14 4,14 C3.44771525,14 3,13.5522847 3,13 L3,12 C2,12 2,11 2,11 L2,3 Z M3.5,4 C3.22385763,4 3,4.22385763 3,4.5 L3,7.5 C3,7.77614237 3.22385763,8 3.5,8 L6.5,8 C6.77614237,8 7,7.77614237 7,7.5 L7,4.5 C7,4.22385763 6.77614237,4 6.5,4 L3.5,4 Z M8.5,4 C8.22385763,4 8,4.22385763 8,4.5 L8,7.5 C8,7.77614237 8.22385763,8 8.5,8 L11.5,8 C11.7761424,8 12,7.77614237 12,7.5 L12,4.5 C12,4.22385763 11.7761424,4 11.5,4 L8.5,4 Z M3,2.5 C3,2.91421356 3.33578644,3.25 3.75,3.25 C4.16421356,3.25 4.5,2.91421356 4.5,2.5 C4.5,2.08578644 4.16421356,1.75 3.75,1.75 C3.33578644,1.75 3,2.08578644 3,2.5 Z M10.5,2.5 C10.5,2.91421356 10.8357864,3.25 11.25,3.25 C11.6642136,3.25 12,2.91421356 12,2.5 C12,2.08578644 11.6642136,1.75 11.25,1.75 C10.8357864,1.75 10.5,2.08578644 10.5,2.5 Z M8.5,2.5 C8.5,2.91421356 8.83578644,3.25 9.25,3.25 C9.66421356,3.25 10,2.91421356 10,2.5 C10,2.08578644 9.66421356,1.75 9.25,1.75 C8.83578644,1.75 8.5,2.08578644 8.5,2.5 Z M5,2.5 C5,2.91421356 5.33578644,3.25 5.75,3.25 C6.16421356,3.25 6.5,2.91421356 6.5,2.5 C6.5,2.08578644 6.16421356,1.75 5.75,1.75 C5.33578644,1.75 5,2.08578644 5,2.5 Z M4,9 C3.4477,9 3,9.4477 3,10 C3,10.5523 3.4477,11 4,11 C4.5523,11 5,10.5523 5,10 C5,9.4477 4.5523,9 4,9 Z M11,9 C10.4477,9 10,9.4477 10,10 C10,10.5523 10.4477,11 11,11 C11.5523,11 12,10.5523 12,10 C12,9.4477 11.5523,9 11,9 Z"></path>
</svg>
