<?xml version="1.0" encoding="UTF-8"?>
<!DOCTYPE svg PUBLIC "-//W3C//DTD SVG 1.1//EN" "http://www.w3.org/Graphics/SVG/1.1/DTD/svg11.dtd">
<svg version="1.1" xmlns="http://www.w3.org/2000/svg" xmlns:xlink="http://www.w3.org/1999/xlink" x="0" y="0" width="15" height="15" viewBox="0 0 15 15">
<path d="M10,0 L10,15 C10,15 0,15 0,15 C0,15 0,0 0,0 L10,0 z M9,1 L1,1 L1,14 C1,14 9,14 9,14 L9,1 z M2.5,4 C2.5,4 7.5,4 7.5,4 C8,4 8,5 7.5,5 C7.5,5 2.5,5 2.5,5 C2,5 2,4 2.5,4 z M2.5,6 C2.5,6 7.5,6 7.5,6 C8,6 8,7 7.5,7 C7.5,7 2.5,7 2.5,7 C2,7 2,6 2.5,6 z M2.5,8 C2.5,8 7.5,8 7.5,8 C8,8 8,9 7.5,9 C7.5,9 2.5,9 2.5,9 C2,9 2,8 2.5,8 z M2.5,10 C2.5,10 7.5,10 7.5,10 C8,10 8,11 7.5,11 C7.5,11 2.5,11 2.5,11 C2,11 2,10 2.5,10 z"/>
<path d="M11,13 C11.5,13.5 13.5,13.5 14,13 C14,13 13,15 12.5,15 C12,15 11,13 11,13 z M11,3 C11,3.5 14,3.5 14,3 C14,3 14,12 14,12 C14,12.5 11,12.5 11,12 C11,12 11,3 11,3 z M12.5,0 C11,0 11,0.5 11,1 C11,1 11,2 11,2 C11,2.5 14,2.5 14,2 C14,2 14,1 14,1 C14,0.5 14,0 12.5,0 z"/>
</svg>
