<?xml version="1.0" encoding="UTF-8"?>
<svg width="15px" height="15px" viewBox="0 0 15 15" version="1.1" xmlns="http://www.w3.org/2000/svg" xmlns:xlink="http://www.w3.org/1999/xlink">
    <path d="M6,12 L5,10.5 L6,9 L5,7.5 L6,6 L5,4.5 L6,3 L5,3 L4,1 L11,1 L10,3 L9,3 L10,4.5 L9,6 L10,7.5 L9,9 L10,10.5 L9,12 L11,12 L11,13 L12,13 L12,14 L3,14 L3,13 L4,13 L4,12 L6,12 L6,12 Z M6.5,4.5 L7.5,5.5 L8.5,4.5 L7.5,3.5 L6.5,4.5 Z M6.5,7.5 L7.5,8.5 L8.5,7.5 L7.5,6.5 L6.5,7.5 Z M6.5,10.5 L7.5,11.5 L8.5,10.5 L7.5,9.5 L6.5,10.5 Z"></path>
</svg>
