<?xml version="1.0" encoding="UTF-8"?>
<!DOCTYPE svg PUBLIC "-//W3C//DTD SVG 1.1//EN" "http://www.w3.org/Graphics/SVG/1.1/DTD/svg11.dtd">
<svg version="1.1" xmlns="http://www.w3.org/2000/svg" xmlns:xlink="http://www.w3.org/1999/xlink" x="0" y="0" width="15" height="15" viewBox="0 0 15 15">
  <path d="M0,2 C0,2 5,2 5,2 C5,2 15,6.5 15,6.5 C15,6.5 7.75,6.5 7.75,6.5 C7.75,6.5 -0,2 0,2 z"/>
  <path d="M0,2.5 C0,2.5 7.495,7.002 7.495,7.002 C7.495,7.002 5.5,12.5 5.5,12.5 C5.5,12.5 -0,6 -0,6 C-0,6 0,2.5 0,2.5 z"/>
  <path d="M15,7 C15,7 12.5,12.5 12.5,12.5 C12.5,12.5 6,12.5 6,12.5 C6,12.5 8,7 8,7 L15,7 z M10.126,7.5 C8.952,7.5 8,8.351 8,9.4 C8,10.449 8.952,11.3 10.126,11.3 C11.3,11.3 12.252,10.449 12.252,9.4 C12.252,8.351 11.3,7.5 10.126,7.5 z"/>
</svg>
