<?xml version="1.0" encoding="UTF-8"?>
<svg viewBox="0 0 15 15" version="1.1" xmlns="http://www.w3.org/2000/svg" xmlns:xlink="http://www.w3.org/1999/xlink">
  <path d="M13,3.5 C13.5128358,3.5 13.9355072,3.88604019 13.9932723,4.38337887 L14,4.5 L14.0006807,6.9997309 C14.4021258,7.00009269 14.7806055,7.24389666 14.9333456,7.64102092 C15.1174429,8.119674 14.9088642,8.65275277 14.4654118,8.88520176 L14.3589791,8.93334561 L11.9997305,9.84 L12,10 C12,10.5522847 11.5522847,11 11,11 C10.6498355,11 10.3417072,10.8200218 10.1630743,10.5475246 L7.81473049,11.45 L10.3,15 L4.7,15 L6.95273049,11.781 L4.99973049,12.532 L5,13 C5,13.5522847 4.55228475,14 4,14 C3.54706806,14 3.1644668,13.6988786 3.04146907,13.2859085 L1.35897908,13.9333456 C0.843506535,14.1316043 0.264913065,13.8744516 0.0666543938,13.3589791 C-0.117442944,12.880326 0.0911358099,12.3472472 0.53458822,12.1147982 L0.641020921,12.0666544 L0.999730493,11.928 L1,8.5 C1,7.94771525 1.44771525,7.5 2,7.5 C2.51283584,7.5 2.93550716,7.88604019 2.99327227,8.38337887 L3,8.5 L2.99973049,9.718 L3.75746437,9.5298575 C3.81688648,9.51530256 3.86976064,9.50692968 3.92383482,9.50285722 L4.01771902,9.49992928 L4.01771902,9.49992928 L4.07318242,9.50263703 L4.07318242,9.50263703 L4.18441636,9.51691777 L4.18441636,9.51691777 L4.29034055,9.54291006 L4.29034055,9.54291006 L4.42163016,9.59319546 L4.42163016,9.59319546 L4.46005398,9.61190191 L4.46005398,9.61190191 L4.54711643,9.66282693 L4.54711643,9.66282693 L4.66128883,9.7498524 L4.66128883,9.7498524 L4.75616347,9.84532078 L4.75616347,9.84532078 L4.79627003,9.89496966 L4.79627003,9.89496966 L4.86038784,9.99005455 L4.86038784,9.99005455 L4.91180346,10.0887737 L4.91180346,10.0887737 L4.95550463,10.2041222 L4.95550463,10.2041222 L4.98359365,10.3194111 L4.98359365,10.3194111 L4.99373049,10.392 L9.99973049,8.466 L10.0017725,7.43612952 L10.0056748,7.39109261 L10.0056748,7.39109261 L10,7.5 C10,7.40460067 10.0133588,7.31232145 10.0383077,7.22493093 L10.0946342,7.07529413 L10.0946342,7.07529413 L10.1338571,6.9998705 L10.1338571,6.9998705 L10.2079421,6.88948805 L10.2079421,6.88948805 L10.2928932,6.79289322 L10.3883561,6.70877232 L10.3883561,6.70877232 L10.4540522,6.66185579 L10.4540522,6.66185579 L10.530267,6.61693578 L10.530267,6.61693578 L10.6789381,6.55265468 L10.6789381,6.55265468 L10.7574644,6.5298575 L11.9997305,6.218 L12,4.5 C12,3.94771525 12.4477153,3.5 13,3.5 Z M2,4 C2.82842712,4 3.5,4.67157288 3.5,5.5 C3.5,6.32842712 2.82842712,7 2,7 C1.17157288,7 0.5,6.32842712 0.5,5.5 C0.5,4.67157288 1.17157288,4 2,4 Z M13,0 C13.8284271,0 14.5,0.671572875 14.5,1.5 C14.5,2.32842712 13.8284271,3 13,3 C12.1715729,3 11.5,2.32842712 11.5,1.5 C11.5,0.671572875 12.1715729,0 13,0 Z"/>
</svg>