<?xml version="1.0" encoding="UTF-8"?>
<svg width="15px" height="15px" viewBox="0 0 15 15" version="1.1" xmlns="http://www.w3.org/2000/svg" xmlns:xlink="http://www.w3.org/1999/xlink">
    <path d="M7.5,3.1846438 C6.47481862,4.04610743 5.29872864,4.5 4,4.5 C3.58112103,4.5 3.12872115,4.41515312 2.61992999,4.26381954 C3.05558504,8.14471464 4.67879253,10.7828911 7.5,12.3223156 L7.5,3.1846438 L7.5,3.1846438 Z M1,2 C1,2 3,3 4,3 C5.33333333,3 6.5,2.33333333 7.5,1 C8.5,2.33333333 9.66666667,3 11,3 C12,3 14,2 14,2 C14,8 11.8333333,12 7.5,14 C3.16666667,12 1,8 1,2 Z"></path>
</svg>
