<?xml version="1.0" encoding="UTF-8"?>
<!DOCTYPE svg PUBLIC "-//W3C//DTD SVG 1.1//EN" "http://www.w3.org/Graphics/SVG/1.1/DTD/svg11.dtd">
<svg version="1.1" xmlns="http://www.w3.org/2000/svg" xmlns:xlink="http://www.w3.org/1999/xlink" x="0" y="0" width="15" height="15" viewBox="0 0 15 15">
    <path d="M0,0 C0,1.071 0.701,1.756 1.071,2.126 C1.442,2.496 1.974,2.353 1.974,2.632 C1.974,2.632 2.143,3.198 2.679,3.198 L4.018,3.198 C4.018,3.506 4.286,3.733 4.286,3.733 C4.286,3.733 4.018,3.884 4.018,4.269 L2.679,4.269 C2.143,4.269 2.143,4.537 2.143,4.805 C2.143,5.37 2.143,5.876 2.143,5.876 C2.143,6.133 2.39,6.412 2.679,6.412 C2.967,6.412 4.018,6.412 4.018,6.412 L4.018,7.483 L3.214,7.483 C3.214,7.918 3.504,8.267 4.018,8.555 C4.018,8.894 4.018,14.448 4.018,14.448 C4.018,15.153 5.625,15.214 5.625,14.448 L5.625,6.412 L9.375,6.412 L9.375,14.448 C9.375,15.189 10.982,15.137 10.982,14.448 C10.982,14.448 10.982,8.894 10.982,8.555 C11.496,8.221 11.786,7.92 11.786,7.483 L10.982,7.483 L10.982,6.412 C10.982,6.412 12.033,6.412 12.321,6.412 C12.558,6.412 12.857,6.133 12.857,5.876 C12.857,5.876 12.857,5.34 12.857,4.805 C12.857,4.269 12.563,4.269 12.321,4.269 L10.982,4.269 C11.008,3.986 10.714,3.733 10.714,3.733 C10.714,3.733 10.982,3.506 10.982,3.198 L12.321,3.198 C12.857,3.198 12.857,2.662 12.857,2.662 C12.857,2.409 13.482,2.513 13.929,2.126 C14.376,1.739 15,1.071 15,0 C8.571,1.071 5.357,1.071 0,0 z M5.625,3.198 C5.625,3.198 6.696,3.198 6.696,3.198 L6.696,4.269 L5.625,4.269 C5.625,3.961 5.357,3.733 5.357,3.733 C5.357,3.733 5.625,3.531 5.625,3.198 z M8.304,3.198 L9.375,3.198 C9.375,3.481 9.643,3.733 9.643,3.733 C9.643,3.733 9.375,3.986 9.375,4.269 L8.304,4.269 z"/>
</svg>
