<?xml version="1.0" encoding="UTF-8"?>
<!DOCTYPE svg PUBLIC "-//W3C//DTD SVG 1.1//EN" "http://www.w3.org/Graphics/SVG/1.1/DTD/svg11.dtd">
<svg version="1.1" xmlns="http://www.w3.org/2000/svg" xmlns:xlink="http://www.w3.org/1999/xlink" x="0" y="0" width="15" height="15" viewBox="0 0 15 15">
<path d="M6.5,1 C8,1 9,1.5 9.5,2 C9.5,2.5 5.5,7.5 5,7.5 C4.5,7.5 4.115,7.112 4,6.5 C3.237,8.121 2,12 1.5,14 C1.5,14.5 0,14.5 0,14 C-0,13.5 1.468,5.369 3.5,3 C4.468,1.869 5.5,1 6.5,1 z"/>
<path d="M13.642,10.139 C13.844,10.328 14.009,10.471 14.184,10.657 C14.359,10.844 13.864,11.353 13.666,11.2 C13.469,11.047 13.388,10.958 13.124,10.682 C12.859,10.406 13.439,9.951 13.642,10.139 z M12.014,8.586 C11.762,8.327 11.281,8.938 11.496,9.128 C11.711,9.319 11.828,9.438 12.039,9.646 C12.249,9.855 12.781,9.312 12.557,9.104 C12.332,8.895 12.266,8.844 12.014,8.586 z M10.386,7.032 C10.21,6.861 9.707,7.415 9.869,7.575 C10.125,7.828 10.234,7.922 10.411,8.093 C10.588,8.263 11.156,7.766 10.929,7.55 C10.702,7.335 10.562,7.203 10.386,7.032 z M8.759,5.479 C8.516,5.25 7.969,5.766 8.241,6.021 C8.513,6.277 8.594,6.375 8.784,6.539 C8.973,6.703 9.469,6.156 9.301,5.997 C9.134,5.837 8.968,5.675 8.759,5.479 z M11.533,12.515 C11.285,12.171 10.766,12.766 10.949,12.987 C11.133,13.208 11.25,13.359 11.421,13.57 C11.592,13.781 12.203,13.344 12.004,13.099 C11.805,12.854 11.797,12.844 11.533,12.515 z M10.119,10.765 C9.938,10.547 9.313,10.937 9.536,11.236 C9.759,11.535 9.781,11.531 10.007,11.82 C10.233,12.108 10.75,11.547 10.59,11.348 C10.431,11.15 10.278,10.956 10.119,10.765 z M8.705,9.015 C8.457,8.714 7.906,9.219 8.122,9.486 C8.338,9.753 8.422,9.875 8.593,10.069 C8.765,10.264 9.406,9.906 9.177,9.598 C9.01,9.368 8.938,9.297 8.705,9.015 z M7.292,7.264 C6.938,6.953 6.437,7.406 6.708,7.736 C6.979,8.065 7,8.109 7.179,8.319 C7.359,8.529 7.969,8.094 7.763,7.848 C7.557,7.602 7.422,7.422 7.292,7.264 z M13.868,6.331 C13.579,6.136 13.266,6.812 13.428,6.939 C13.591,7.065 13.812,7.219 14.037,7.378 C14.261,7.537 14.641,6.906 14.476,6.77 C14.311,6.633 14.221,6.569 13.868,6.331 z M12.043,5.013 C11.812,4.859 11.375,5.484 11.604,5.621 C11.844,5.812 11.984,5.891 12.212,6.06 C12.44,6.23 12.844,5.578 12.651,5.452 C12.469,5.312 12.295,5.181 12.043,5.013 z M10.219,3.696 C9.984,3.523 9.563,4.141 9.78,4.304 C9.998,4.467 10.188,4.609 10.388,4.743 C10.589,4.877 11.047,4.312 10.827,4.135 C10.635,3.98 10.484,3.891 10.219,3.696 z"/>
</svg>
