<?xml version="1.0" encoding="UTF-8"?>
<!DOCTYPE svg PUBLIC "-//W3C//DTD SVG 1.1//EN" "http://www.w3.org/Graphics/SVG/1.1/DTD/svg11.dtd">
<svg version="1.1" xmlns="http://www.w3.org/2000/svg" xmlns:xlink="http://www.w3.org/1999/xlink" x="0" y="0" width="15" height="15" viewBox="0, 0, 15, 15">
    <path d="M11.25,4 L11.25,6 L10.75,6 L10.75,4 L11.25,4 z M13.224,3.888 L12.776,4.112 L13.776,6.112 L14.224,5.888 L13.224,3.888 z M8.776,3.888 L7.776,5.888 L8.224,6.112 L9.224,4.112 L8.776,3.888 z M11,0 C10.763,0 10.367,0.014 9.862,0.056 C9.021,0.126 8.179,0.253 7.382,0.452 C6.707,0.621 6.093,0.836 5.553,1.106 C3.179,2.293 2,4.65 2,8 L2,14 C2,14.552 2.448,15 3,15 C3.552,15 4,14.552 4,14 L4,8 C4,5.35 4.821,3.707 6.447,2.895 C6.845,2.696 7.324,2.528 7.868,2.392 C9.04,2.157 8.568,2.222 9.273,2.139 C8.831,2.465 9.039,2.295 8.646,2.647 C8.331,2.962 8.555,3.5 9,3.5 L13,3.5 C13.445,3.5 13.669,2.962 13.354,2.647 C13.207,2.5 12.965,2.292 12.652,2.084 C11.786,1.633 12.134,1.713 11.682,1.628 C12.015,1.296 11.899,1.5 12,1 C12,0.448 11.552,0 11,0 z" fill="#000000" id="shower"/>
</svg>
