<?xml version="1.0" encoding="UTF-8"?>
<svg width="15px" height="15px" viewBox="0 0 15 15" version="1.1" xmlns="http://www.w3.org/2000/svg" xmlns:xlink="http://www.w3.org/1999/xlink">
    <path d="M12.5,13 L2,13 C0.8954305,13 -1.24344979e-14,12.1045695 -1.24344979e-14,11 C-1.24344979e-14,9.8954305 0.8954305,9 2,9 C2.01338819,9 2.02674565,9.00013155 2.04007116,9.00039343 C2.01379447,8.8387165 2,8.67137192 2,8.5 C2,7.11928813 2.8954305,6 4,6 C4.37111745,6 4.71862621,6.12635096 5.01649694,6.34651617 C5.00560018,6.23282325 5,6.11719642 5,6 C5,4.34314575 6.11928813,3 7.5,3 C8.68223579,3 9.67280468,3.98474827 9.93316196,5.30799117 C10.2419183,5.11290651 10.6077738,5 11,5 C12.1045695,5 13,5.8954305 13,7 C13,7.36847454 12.9003538,7.71367546 12.7265386,8.01012555 C14.0010937,8.12460502 15,9.19564898 15,10.5 C15,11.8807119 13.8807119,13 12.5,13 Z"></path>
</svg>
