<?xml version="1.0" encoding="UTF-8"?>
<svg width="15px" height="15px" viewBox="0 0 15 15" version="1.1" xmlns="http://www.w3.org/2000/svg" xmlns:xlink="http://www.w3.org/1999/xlink">
    <path d="M11.6123081,10.8378158 C11.1689552,11.5363733 10.3886205,12 9.5,12 C9.39853711,12 9.29848595,11.9939556 9.20018697,11.9822074 C9.20488421,11.9881917 9.20958379,11.9941226 9.21428571,12 C9.82527057,12.7637311 10.5871753,13.4303977 11.5,14 L3.5,14 C4.38835189,13.4609887 5.15025665,12.794322 5.78571429,12 C5.92967401,11.8200503 6.07034759,11.5953297 6.20773504,11.325838 C5.76083813,11.7440011 5.16031494,12 4.5,12 C3.27576856,12 2.25706275,11.1200402 2.04188098,9.95811902 C0.8799598,9.74293725 0,8.72423144 0,7.5 C0,6.50197689 0.584812934,5.64054417 1.43044907,5.23969155 C1.16090962,4.89889668 1,4.46823957 1,4 C1,2.8954305 1.8954305,2 3,2 C3.46027056,2 3.88422701,2.15547916 4.22221367,2.41678178 C5.0429369,1.54459788 6.20786962,1 7.5,1 C8.6751942,1 9.74517146,1.4504873 10.5466667,2.1881968 C10.840457,2.06691191 11.1624145,2 11.5,2 C12.8807119,2 14,3.11928813 14,4.5 C14,5.13538652 13.7629654,5.71541064 13.3724995,6.15646906 C14.3229798,6.51047941 15,7.42617643 15,8.5 C15,9.88071187 13.8807119,11 12.5,11 C12.1873816,11 11.8881651,10.9426194 11.6123081,10.8378158 Z"></path>
</svg>
