<?xml version="1.0" encoding="UTF-8"?>
<svg width="15px" height="15px" viewBox="0 0 15 15" version="1.1" xmlns="http://www.w3.org/2000/svg" xmlns:xlink="http://www.w3.org/1999/xlink">
    <path d="M12.5,13 L2,13 C0.8954305,13 -1.24344979e-14,11.8807119 -1.24344979e-14,10.5 C-1.24344979e-14,9.11928813 0.8954305,8 2,8 C2.01339356,8 2.02675637,8.00016457 2.04008721,8.00049218 C2.01380009,7.83878465 2,7.67140681 2,7.5 C2,6.11928813 2.8954305,5 4,5 C4.39623218,5 4.7655522,5.14403077 5.07628055,5.3924929 C5.35041268,3.44274259 6.3316034,2 7.5,2 C8.6683966,2 9.64958732,3.44274259 9.92371945,5.3924929 C10.2344478,5.14403077 10.6037678,5 11,5 C12.1045695,5 13,6.11928813 13,7.5 C13,7.68574355 12.9837948,7.86675596 12.9530554,8.04094864 C14.1174827,8.25410455 15,9.2739908 15,10.5 C15,11.8807119 13.8807119,13 12.5,13 Z"></path>
</svg>
