<?xml version="1.0" encoding="UTF-8"?>
<svg width="15px" height="15px" viewBox="0 0 15 15" version="1.1" xmlns="http://www.w3.org/2000/svg" xmlns:xlink="http://www.w3.org/1999/xlink">
    <path d="M2.5,4 C3.32842712,4 4,4.67157288 4,5.5 C4,6.32842712 3.32842712,7 2.5,7 C1.67157288,7 1,6.32842712 1,5.5 C1,4.67157288 1.67157288,4 2.5,4 Z"></path>
    <path d="M11.5,1 C12.3284271,1 13,1.67157288 13,2.5 C13,3.32842712 12.3284271,4 11.5,4 C10.6715729,4 10,3.32842712 10,2.5 C10,1.67157288 10.6715729,1 11.5,1 Z"></path>
    <path d="M7,9 L7,6 L5.84550265,6 L4.47843915,9 L7,9 Z M8,9 L10.5215608,9 L9.15449735,6 L8,6 L8,9 Z M8,5 L8.69880952,5 L7.5,2.36923077 L6.30119048,5 L7,5 L8,5 Z M7,13 L7,10 L4.02275132,10 L2.65568783,13 L7,13 Z M8,13 L12.3443122,13 L10.9772487,10 L8,10 L8,13 Z M2.2,14 L1,14 L7.5,0 L14,14 L12.8,14 L2.2,14 Z"></path>
</svg>
