<?xml version="1.0" encoding="UTF-8"?>
<svg width="15px" height="15px" viewBox="0 0 15 15" version="1.1" xmlns="http://www.w3.org/2000/svg" xmlns:xlink="http://www.w3.org/1999/xlink">
    <path d="M2,3 L3.5,3 C3.77614237,3 4,3.22385763 4,3.5 C4,3.77614237 3.77614237,4 3.5,4 L2,4 L2,3 Z M2,2 L2,6 L5,6 L5,2 L2,2 Z M2,1 L5,1 C5.55228475,1 6,1.44771525 6,2 L6,6 C6,6.55228475 5.55228475,7 5,7 L2,7 C1.44771525,7 1,6.55228475 1,6 L1,2 C1,1.44771525 1.44771525,1 2,1 Z M3,7.5 L4,7.5 L4,14 L3,14 L3,7.5 Z M13,8 C13.5523,8 14,8.4477 14,9 L14,12 L13,12 L13,13 C13,13.5523 12.5523,14 12,14 C11.4477,14 11,13.5523 11,13 L11,12 L8,12 L8,13 C8,13.5523 7.5523,14 7,14 C6.4477,14 6,13.5523 6,13 L6,12 L5,12 L5,9 C5,8.4477 5.4477,8 6,8 L6.89,5.34 C6.9582,5.1381 7.1469,5.0016 7.36,5 L11.64,5 C11.8531,5.0016 12.0418,5.1381 12.11,5.34 L13,8 Z M7,11 C7.5523,11 8,10.5523 8,10 C8,9.4477 7.5523,9 7,9 C6.4477,9 6,9.4477 6,10 C6,10.5523 6.4477,11 7,11 Z M7,8 L12,8 L11.38,6 L7.62,6 L7,8 Z M12,11 C12.5523,11 13,10.5523 13,10 C13,9.4477 12.5523,9 12,9 C11.4477,9 11,9.4477 11,10 C11,10.5523 11.4477,11 12,11 Z"></path>
</svg>
