<?xml version="1.0" encoding="UTF-8"?>
<svg width="15px" height="15px" viewBox="0 0 15 15" version="1.1" xmlns="http://www.w3.org/2000/svg" xmlns:xlink="http://www.w3.org/1999/xlink">
    <path d="M11.5,4.24957148 C11.5,4.94034967 10.94,5.5 10.2496,5.5 C9.56,5.5 9,4.94034967 9,4.24957148 C9,3.55965033 9.56,3 10.2496,3 C10.94,3 11.5,3.55965033 11.5,4.24957148 Z M9,5.75 L9.7504,5.75 L14,8.72942857 L14,9.41692857 L13.5,9.41692857 L11,7.64042857 L11,9.41692857 L12,11.25 L13,13.5419286 L12.5,14 L12,14 L11,11.7080714 L9,8.95807143 L9,6.82407143 L7.7504,7.8125 L6.7504,9.41692857 L6,9.41692857 L6,8.95807143 L6.7504,7.58307143 L9,5.75 Z M9.4216,10.5192857 L8.2656,14 L7.7496,14 L7.2496,13.5419286 L8.656,9.67464286 L9.4216,10.5192857 Z M2,3 L3.5,3 C3.77614237,3 4,3.22385763 4,3.5 C4,3.77614237 3.77614237,4 3.5,4 L2,4 L2,3 Z M2,2 L2,6 L5,6 L5,2 L2,2 Z M2,1 L5,1 C5.55228475,1 6,1.44771525 6,2 L6,6 C6,6.55228475 5.55228475,7 5,7 L2,7 C1.44771525,7 1,6.55228475 1,6 L1,2 C1,1.44771525 1.44771525,1 2,1 Z M3,7.5 L4,7.5 L4,14 L3,14 L3,7.5 Z"></path>
</svg>
