<?xml version="1.0" encoding="UTF-8"?>
<svg width="15px" height="15px" viewBox="0 0 15 15" version="1.1" xmlns="http://www.w3.org/2000/svg" xmlns:xlink="http://www.w3.org/1999/xlink">
    <path d="M2,1 L5,1 C5.55228475,1 6,1.44771525 6,2 L6,6 C6,6.55228475 5.55228475,7 5,7 L2,7 C1.44771525,7 1,6.55228475 1,6 L1,2 C1,1.44771525 1.44771525,1 2,1 Z M2,2 L2,6 L5,6 L5,2 L2,2 Z M2,3 L3.5,3 C3.77614237,3 4,3.22385763 4,3.5 C4,3.77614237 3.77614237,4 3.5,4 L2,4 L2,3 Z M3,7.5 L4,7.5 L4,14 L3,14 L3,7.5 Z M6,11 L14,11 L14,14 L13,14 L13,12 L7,12 L7,14 L6,14 L6,11 Z M7,8 L13,8 L13,10.5 L7,10.5 L7,8 Z"></path>
</svg>
