<?xml version="1.0" encoding="UTF-8"?>
<!DOCTYPE svg PUBLIC "-//W3C//DTD SVG 1.1//EN" "http://www.w3.org/Graphics/SVG/1.1/DTD/svg11.dtd">
<svg version="1.1" xmlns="http://www.w3.org/2000/svg" xmlns:xlink="http://www.w3.org/1999/xlink" x="0" y="0" width="15" height="15" viewBox="0 0 15 15">
    <path d="M7.483,0 L6.397,1.071 C6.465,1.539 6.482,1.902 6.533,2.31 C5.206,2.717 4.225,3.915 4.225,5.357 C4.225,6.811 5.224,8.007 6.567,8.404 C6.511,8.807 6.474,9.186 6.397,9.643 L6.94,10.179 L6.94,10.614 C5.942,9.949 4.88,9.209 4.225,8.571 C2.022,6.429 2.604,2.679 5.311,1.071 C3.145,1.607 1,3.545 1,6.429 C1,9.643 4.225,10.714 4.225,11.786 L5.311,10.714 L6.702,11.484 C6.037,11.891 5.311,12.321 5.311,12.321 L5.854,12.857 L7.008,12.221 L7.008,12.991 C6.655,13.168 6.397,13.512 6.397,13.929 C6.397,14.52 6.883,15 7.483,15 C8.083,15 8.569,14.52 8.569,13.929 C8.569,13.512 8.345,13.168 7.992,12.991 L7.992,12.221 L9.112,12.857 L9.655,12.321 C9.655,12.321 8.89,11.847 8.298,11.484 L9.655,10.714 L10.742,11.786 C10.742,10.714 14,9.643 14,6.429 C14,3.545 11.828,1.607 9.655,1.071 C12.371,2.679 12.951,6.429 10.742,8.571 C10.075,9.218 9.039,9.976 8.026,10.647 L8.026,10.179 L8.569,9.643 C8.494,9.199 8.454,8.813 8.399,8.404 C9.742,8.007 10.742,6.811 10.742,5.357 C10.742,3.904 9.742,2.708 8.399,2.31 C8.454,1.902 8.494,1.515 8.569,1.071 L7.483,0 z M8.264,3.348 C9.08,3.657 9.655,4.444 9.655,5.357 C9.655,6.271 9.08,7.058 8.264,7.366 C8.132,5.985 8.132,4.729 8.264,3.348 z M6.634,3.382 C6.644,3.378 6.659,3.386 6.668,3.382 C6.815,4.871 6.832,6.042 6.702,7.366 C5.886,7.058 5.311,6.271 5.311,5.357 C5.311,4.47 5.855,3.707 6.634,3.382 z M4.768,12.857 C4.468,12.857 4.225,13.097 4.225,13.393 C4.225,13.689 4.468,13.929 4.768,13.929 C5.068,13.929 5.311,13.689 5.311,13.393 C5.311,13.097 5.068,12.857 4.768,12.857 z M10.198,12.857 C9.898,12.857 9.655,13.097 9.655,13.393 C9.655,13.689 9.898,13.929 10.198,13.929 C10.498,13.929 10.742,13.689 10.742,13.393 C10.742,13.097 10.498,12.857 10.198,12.857 z"/>
</svg>
