<?xml version="1.0" encoding="UTF-8"?>
<svg version="1.2" baseProfile="tiny" xmlns="http://www.w3.org/2000/svg" viewBox="0 0 50 50" overflow="inherit">
  <path d="M30.15 48.97c0.75 0 1.35 -0.63 1.35 -1.41c0 -0.77 -0.6 -1.4 -1.35 -1.4c-0.75 0 -1.35 0.63 -1.35 1.4c0 0.78 0.61 1.41 1.36 1.41zm-2.34 -40.57c1.99 0 3.6 -1.66 3.6 -3.71c0 -2.04 -1.62 -3.7 -3.6 -3.7c-1.99 0 -3.6 1.65 -3.6 3.7c0 2.05 1.62 3.71 3.6 3.71zm-19.54 32.39c-0.17 0.33 -0.27 0.7 -0.27 1.1c0 1.3 1.03 2.36 2.31 2.36c0.92 0 1.7 -0.55 2.07 -1.33l7.86 -13.9l-3.26 -3.36l-8.71 15.13zm17.03 -0.62c-0.37 0.79 -1.16 1.34 -2.07 1.34c-1.26 0 -2.29 -1.06 -2.29 -2.36c0 -0.4 0.1 -0.77 0.27 -1.1l3.42 -6.19l-6.68 -6.83c-2.56 -2.65 -0.73 -5.51 -0.73 -5.51l3.59 -6.53l-9.53 0.01c-1.05 0 -1.89 -0.93 -1.89 -2c0 -1.06 0.84 -1.99 1.89 -1.99h28.84c1.04 0 1.88 0.93 1.88 2.01c0 1.07 -0.84 2 -1.88 2h-11l-5.25 9.46l5.35 5.44c1.87 1.85 0.66 3.93 0.66 3.93l-4.57 8.36zm8.7 3.83c0 0.55 -0.45 1 -1 1h-17c-0.55 0 -1 -0.45 -1 -1c0 -0.55 0.45 -1 1 -1h17c0.55 0 1 0.45 1 1z"/>
  <path d="M17.83 47.61a1.36 1.39 0 1 0 2.71 0a1.36 1.39 0 1 0 -2.71 0z"/>
</svg>