<?xml version="1.0" encoding="UTF-8"?>
<svg width="15px" height="15px" viewBox="0 0 15 15" version="1.1" xmlns="http://www.w3.org/2000/svg" xmlns:xlink="http://www.w3.org/1999/xlink">
    <path d="M4,7 L4,14 L2,14 L2,7.78 L1,8.16 L1,6 L14,1 L14,3.14 L4,7 Z M6.8252265,11.6593965 C5.81720368,11.6593965 5,10.8400563 5,9.8297849 C5,8.81934029 5.81720368,8 6.8252265,8 C7.83273078,8 8.65010731,8.81934029 8.65010731,9.8297849 C8.65010731,10.8400563 7.83273078,11.6593965 6.8252265,11.6593965 Z M14,14 L11.5,14 L11.5,8.7131847 L14,8.7131847 L14,14 Z M9.21435465,12.1976246 L9.21089778,9.47850293 C9.21089778,8.98159704 9.61293157,8.5784241 10.1086465,8.5784241 C10.6047071,8.5784241 11.0067409,8.98159704 11.0067409,9.47850293 L11.0067409,13.0978767 C11.0067409,13.5947826 10.6047071,13.9977823 10.1086465,13.9977823 L5.93897187,13.9977823 C5.4430841,13.9977823 5.04105031,13.5947826 5.04105031,13.0978767 C5.04105031,12.6006243 5.4430841,12.1971048 5.93897187,12.1971048 L9.21435465,12.1976246 Z"></path>
</svg>
