<?xml version="1.0" encoding="UTF-8"?>
<svg width="15px" height="15px" viewBox="0 0 15 15" version="1.1" xmlns="http://www.w3.org/2000/svg" xmlns:xlink="http://www.w3.org/1999/xlink">
    <path d="M5,6 L5,13 L4,13 L4,12 L2,12 L2,13 L1,13 L1,2.45454545 C1,2.17840308 1.22385763,1.95454545 1.5,1.95454545 C1.77614237,1.95454545 2,2.17840308 2,2.45454545 L2,4 L4,4 L4,2.45454545 C4,2.17840308 4.22385763,1.95454545 4.5,1.95454545 C4.77614237,1.95454545 5,2.17840308 5,2.45454545 L5,4 L5.01396473,4 C5.62768662,4 6.20743079,4.28177612 6.58660141,4.7643569 L11.4860353,11 L13,11 C13.5522847,11 14,11.4477153 14,12 C14,12.5522847 13.5522847,13 13,13 L10.5139647,13 L5.01396473,6 L5,6 Z M2,11 L4,11 L4,10 L2,10 L2,11 Z M2,9 L4,9 L4,8 L2,8 L2,9 Z M2,7 L4,7 L4,6 L2,6 L2,7 Z"></path>
</svg>
