<?xml version="1.0" encoding="UTF-8"?>
<svg width="15px" height="15px" viewBox="0 0 15 15" version="1.1" xmlns="http://www.w3.org/2000/svg" xmlns:xlink="http://www.w3.org/1999/xlink">
    <path d="M1,11 L4,11 L4,9 L1,9 L1,11 Z M1,12 L1,14 L-3.55271368e-15,14 L-3.55271368e-15,5.61805325 C-0.30687468,5.34339298 -0.5,4.94424991 -0.5,4.5 C-0.5,4.05575009 -0.30687468,3.65660702 -9.23888743e-12,3.38194675 L-3.55271368e-15,1.5 C-3.55271368e-15,1.22385763 0.223857625,1 0.5,1 C0.776142375,1 1,1.22385763 1,1.5 L1,3 L4,3 L4,1.5 C4,1.22385763 4.22385763,1 4.5,1 C4.77614237,1 5,1.22385763 5,1.5 L5,3.05048093 C5.59370815,3.17167191 6.12958903,3.50611871 6.5,4 L11.75,11 L13.5,11 C14.3284271,11 15,11.6715729 15,12.5 C15,13.3284271 14.3284271,14 13.5,14 L11.5,14 C10.7131067,14 9.97213595,13.6295146 9.5,13 L5,7 L5,14 L4,14 L4,12 L1,12 L1,12 Z M1,8 L4,8 L4,6 L1,6 L1,8 L1,8 Z"></path>
</svg>
