<?xml version="1.0" encoding="UTF-8"?>
<svg version="1.2" baseProfile="tiny" xmlns="http://www.w3.org/2000/svg" viewBox="0 0 50 50" overflow="inherit">
  <path d="M20.69 12.39c1.98 0 3.58 -1.65 3.58 -3.7c0 -2.03 -1.6 -3.69 -3.58 -3.69c-1.98 0 -3.59 1.66 -3.59 3.69c0 2.05 1.61 3.7 3.59 3.7zm4.22 29.61h17.06s1.1 0.2 3.3 -1.61l3.74 -2.81v3.32l-3.81 2.94s-1.13 0.95 -3.04 1.17h-18.67l1.43 -3zm-23.76 3h17.07l1.42 -3h-17.2l-1.42 3zm21.35 -27.98c0 -2.11 -1.77 -3.83 -3.74 -3.83c-1.98 0 -3.75 1.72 -3.75 3.83v9.36c0 1.19 0.87 2.62 1.66 2.62h-8.02l-4.33 8.58c-0.09 0.19 -0.14 0.6 -0.14 0.83c0 0.77 1.11 1.59 1.83 1.59h29s1.31 0.12 3.22 -1.49l7.68 -6.08l-2.9 -5.43s-0.66 -1.32 -3.11 -1.72l-5.79 -1.04l-3.11 -5.55l-0.13 -0.06c-0.45 -0.55 -0.86 -0.61 -1.86 -0.14v0.01c0 0.36 -0.51 0.95 -0.31 1.47l2.31 4.11v0.03l-3.04 5.25l-5.96 -2.37v-2h5.09c0.22 0 0.46 -0.19 0.68 -0.29c0.88 -0.35 1.31 -1.48 0.97 -2.41c-0.25 -0.72 -0.89 -1.19 -1.55 -1.2l-4.7 -0.03l0.01 -4.05"/>
</svg>