<?xml version="1.0" encoding="UTF-8"?>
<svg version="1.2" baseProfile="tiny" xmlns="http://www.w3.org/2000/svg" viewBox="0 0 50 50" overflow="inherit">
  <path d="M47.38 21.78l-10.82 -9.79c-0.36 -0.34 -0.78 -0.62 -1.25 -0.83l-8.43 -2.95l-3.83 -5.47c-0.29 -0.39 -0.75 -0.67 -1.28 -0.73c-1.01 -0.11 -1.91 0.6 -2.04 1.6c-0.04 0.42 0.06 0.83 0.27 1.16l3.91 5.57c0.18 0.23 0.41 0.41 0.68 0.54l4.54 1.76l-7.46 3.75c-1.03 0.59 -1.78 1.61 -1.98 2.81l0.05 6.7l-6.88 3.06c-0.78 0.36 -1.34 1.13 -1.37 2.03c-0.02 0.53 0.14 1.03 0.43 1.44l-3.71 -1.39c-0.7 -0.26 -1.24 -0.82 -1.48 -1.53c-0.42 -1.25 -1.8 -1.91 -3.06 -1.49c-1.26 0.42 -1.94 1.77 -1.52 3.01c0.7 2.06 2.29 3.68 4.34 4.45l32.25 12.06c2.06 0.78 4.34 0.6 6.23 -0.47c1.16 -0.65 1.55 -2.1 0.9 -3.24c-0.67 -1.14 -2.14 -1.53 -3.3 -0.88c-0.63 0.36 -1.42 0.42 -2.12 0.15l-8 -2.99c0.83 -0.28 1.46 -1 1.58 -1.89l1.26 -10.03l0.01 -0.13c0.04 -0.7 -0.25 -1.35 -0.74 -1.79l-5.42 -4.73l8.16 -3.96l7.58 6.87c0.34 0.32 0.8 0.53 1.3 0.53c1.02 -0.01 1.84 -0.83 1.83 -1.83c0 -0.54 -0.25 -1.02 -0.62 -1.34zm-17.01 7.04l-1.08 8.8l-0.01 0.15c-0.02 0.46 0.1 0.88 0.31 1.25l-15.19 -5.69c0.17 -0.04 0.34 -0.1 0.5 -0.17l8.44 -3.75c0.6 -0.32 1.05 -0.89 1.2 -1.57l-0.02 -4.17l5.86 5.14z"/>
  <path d="M34.68 7.55a3.84 3.78 0 1 0 7.68 0a3.84 3.78 0 1 0 -7.68 0z"/>
</svg>