<?xml version="1.0" encoding="UTF-8"?>
<!DOCTYPE svg PUBLIC "-//W3C//DTD SVG 1.1//EN" "http://www.w3.org/Graphics/SVG/1.1/DTD/svg11.dtd">
<svg version="1.1" xmlns="http://www.w3.org/2000/svg" xmlns:xlink="http://www.w3.org/1999/xlink" x="0" y="0" width="15" height="15" viewBox="0 0 15 15">
<path d="M5,1 L10,1 C10.5,1 11,1.5 11,2 L11,13 C11,13.5 10.5,14 10,14 L5,14 C4.5,14 4,13.5 4,13 L4,2 C4,1.5 4.5,1 5,1 z M7.5,2.5 C6.395,2.5 5.5,3.395 5.5,4.5 C5.5,5.605 6.395,6.5 7.5,6.5 C8.605,6.5 9.5,5.605 9.5,4.5 C9.5,3.395 8.605,2.5 7.5,2.5 z M7.5,3.5 C8.052,3.5 8.5,3.948 8.5,4.5 C8.5,5.052 8.052,5.5 7.5,5.5 C6.948,5.5 6.5,5.052 6.5,4.5 C6.5,3.948 6.948,3.5 7.5,3.5 z M7.5,8 C6.119,8 5,9.119 5,10.5 C5,11.881 6.119,13 7.5,13 C8.881,13 10,11.881 10,10.5 C10,9.119 8.881,8 7.5,8 z M7.5,9 C8.328,9 9,9.672 9,10.5 C9,11.328 8.328,12 7.5,12 C6.672,12 6,11.328 6,10.5 C6,9.672 6.672,9 7.5,9 z"/>
</svg>
