<?xml version="1.0" encoding="UTF-8"?>
<svg width="15px" height="15px" viewBox="0 0 15 15" version="1.1" xmlns="http://www.w3.org/2000/svg" xmlns:xlink="http://www.w3.org/1999/xlink">
    <path d="M5,1 L10,1 C10.5522847,1 11,1.44771525 11,2 L11,13 C11,13.5522847 10.5522847,14 10,14 L5,14 C4.44771525,14 4,13.5522847 4,13 L4,2 C4,1.44771525 4.44771525,1 5,1 Z M7.5,2.5 C6.3954305,2.5 5.5,3.3954305 5.5,4.5 C5.5,5.6045695 6.3954305,6.5 7.5,6.5 C8.6045695,6.5 9.5,5.6045695 9.5,4.5 C9.5,3.3954305 8.6045695,2.5 7.5,2.5 Z M7.5,3.5 C8.05228475,3.5 8.5,3.94771525 8.5,4.5 C8.5,5.05228475 8.05228475,5.5 7.5,5.5 C6.94771525,5.5 6.5,5.05228475 6.5,4.5 C6.5,3.94771525 6.94771525,3.5 7.5,3.5 Z M7.5,8 C6.11928813,8 5,9.11928813 5,10.5 C5,11.8807119 6.11928813,13 7.5,13 C8.88071187,13 10,11.8807119 10,10.5 C10,9.11928813 8.88071187,8 7.5,8 Z M7.5,9 C8.32842712,9 9,9.67157288 9,10.5 C9,11.3284271 8.32842712,12 7.5,12 C6.67157288,12 6,11.3284271 6,10.5 C6,9.67157288 6.67157288,9 7.5,9 Z"></path>
</svg>
