<?xml version="1.0" encoding="UTF-8"?>
<svg width="15px" height="15px" viewBox="0 0 15 15" version="1.1" xmlns="http://www.w3.org/2000/svg" xmlns:xlink="http://www.w3.org/1999/xlink">
    <path d="M3.61553391,8.56066017 C2.83448532,9.34170876 2.83448532,10.6080387 3.61553391,11.3890873 C4.39658249,12.1701359 5.66291245,12.1701359 6.44396103,11.3890873 L11.3937085,6.43933983 C12.1747571,5.65829124 12.1747571,4.39196129 11.3937085,3.6109127 C10.6126599,2.82986412 9.34632996,2.82986412 8.56528137,3.6109127 L3.61553391,8.56066017 Z M1.49421356,6.43933983 L6.44396103,1.48959236 C8.39658249,-0.463029099 11.5624074,-0.463029099 13.5150288,1.48959236 C15.4676503,3.44221382 15.4676503,6.60803871 13.5150288,8.56066017 L8.56528137,13.5104076 C6.61265992,15.4630291 3.44683502,15.4630291 1.49421356,13.5104076 C-0.458407896,11.5577862 -0.458407896,8.39196129 1.49421356,6.43933983 Z M2.90842712,7.85355339 L3.9690873,6.79289322 C4.16434944,6.59763107 4.16434944,6.28104858 3.9690873,6.08578644 C3.77382515,5.89052429 3.45724266,5.89052429 3.26198052,6.08578644 L2.20132034,7.14644661 C2.0060582,7.34170876 2.0060582,7.65829124 2.20132034,7.85355339 C2.39658249,8.04881554 2.71316498,8.04881554 2.90842712,7.85355339 Z M5.70149894,5.06048157 L6.76215912,3.9998214 C6.95742126,3.80455925 6.95742126,3.48797676 6.76215912,3.29271462 C6.56689697,3.09745247 6.25031448,3.09745247 6.05505233,3.29271462 L4.99439216,4.35337479 C4.79913002,4.54863694 4.79913002,4.86521943 4.99439216,5.06048157 C5.18965431,5.25574372 5.5062368,5.25574372 5.70149894,5.06048157 Z M8.46895844,2.43216764 C8.84394682,2.21332808 9.26131618,2.07994767 9.69245777,2.03879205 C9.96735056,2.01255153 10.168923,1.76843474 10.1426825,1.49354195 C10.116442,1.21864916 9.87232521,1.01707667 9.59743242,1.0433172 C9.02282069,1.09816809 8.46580113,1.27617708 7.96492187,1.56848533 C7.72642259,1.70767118 7.64591314,2.01384549 7.785099,2.25234477 C7.92428486,2.49084405 8.23045916,2.5713535 8.46895844,2.43216764 Z M11.7456212,2.59946674 C11.8622501,2.68464135 11.9732287,2.77863312 12.0778902,2.88112013 C12.3019559,3.10498824 12.4742982,3.33325072 12.6118554,3.58424276 C12.7445717,3.8264018 13.0484682,3.91512266 13.2906273,3.78240637 C13.5327863,3.64969008 13.6215072,3.34579358 13.4887909,3.10363455 C13.3050601,2.76839266 13.0752013,2.46395127 12.7810825,2.17013795 C12.6385038,2.03048673 12.4908018,1.90539256 12.3353933,1.79189698 C12.112389,1.62903592 11.7995834,1.6777916 11.6367224,1.90079583 C11.4738613,2.12380007 11.522617,2.43660569 11.7456212,2.59946674 Z M12.8919266,5.74683498 C12.7886039,6.1657774 12.5961449,6.55792624 12.3229496,6.89864227 C12.1502049,7.1140811 12.1848154,7.428766 12.4002542,7.60151067 C12.615693,7.77425534 12.9303779,7.73964488 13.1031226,7.52420605 C13.4677417,7.06947066 13.724939,6.54541313 13.8628347,5.98628754 C13.9289577,5.71817869 13.7652158,5.44723023 13.4971069,5.38110723 C13.2289981,5.31498423 12.9580496,5.47872612 12.8919266,5.74683498 Z M10.6619491,8.58531284 L9.60128888,9.64597301 C9.40602674,9.84123515 9.40602674,10.1578176 9.60128888,10.3530798 C9.79655103,10.5483419 10.1131335,10.5483419 10.3083957,10.3530798 L11.3690558,9.29241962 C11.564318,9.09715747 11.564318,8.78057498 11.3690558,8.58531284 C11.1737937,8.39005069 10.8572112,8.39005069 10.6619491,8.58531284 Z M7.86887723,11.3783847 L7.15106781,12.0961941 C7.05207301,12.1951889 6.94727288,12.2864757 6.83723647,12.3697765 C6.61706766,12.5364508 6.57370175,12.850049 6.74037601,13.0702178 C6.90705026,13.2903867 7.22064852,13.3337526 7.44081733,13.1670783 C7.58736171,13.0561399 7.72675492,12.9347205 7.85817459,12.8033009 L8.57598402,12.0854914 C8.77124616,11.8902293 8.77124616,11.5736468 8.57598402,11.3783847 C8.38072187,11.1831225 8.06413938,11.1831225 7.86887723,11.3783847 Z M4.79002115,12.9653488 C4.35818663,12.9309734 3.93863776,12.8041542 3.56035498,12.5914058 C3.31966633,12.4560412 3.01481491,12.5414232 2.87945027,12.7821118 C2.74408564,13.0228005 2.82946762,13.3276519 3.07015627,13.4630165 C3.57540193,13.7471695 4.13521656,13.9163876 4.71066896,13.9621954 C4.98594056,13.9841079 5.22685588,13.7787198 5.24876838,13.5034482 C5.27068088,13.2281766 5.06529275,12.9872613 4.79002115,12.9653488 Z M2.20643979,10.9916792 C2.05995326,10.5839343 2.00370116,10.148088 2.04085345,9.71605216 C2.06451259,9.44092518 1.86065762,9.19871117 1.58553064,9.17505203 C1.31040366,9.15139289 1.06818965,9.35524785 1.04453051,9.63037484 C0.995065553,10.205592 1.06997763,10.7860174 1.26533068,11.3297823 C1.35869525,11.5896624 1.64505663,11.7246499 1.90493674,11.6312853 C2.16481684,11.5379207 2.29980436,11.2515593 2.20643979,10.9916792 Z"></path>
</svg>
