<?xml version="1.0" encoding="UTF-8"?>
<svg width="15px" height="15px" viewBox="0 0 15 15" version="1.1" xmlns="http://www.w3.org/2000/svg" xmlns:xlink="http://www.w3.org/1999/xlink">
    <path d="M9,10 L9,10.5 C9,12.9852814 6.98528137,15 4.5,15 C2.01471863,15 -1.03250741e-14,12.9852814 -1.0658141e-14,10.5 C-1.09912079e-14,8.01471863 2.01471863,6 4.5,6 L6,6 L9,6 L9,5 L8,5 L8,4.5 C8,4.35943212 8.01155141,4.22054081 8.03434198,4.08419596 C8.07986862,3.81183235 7.89598092,3.55413138 7.62361731,3.50860475 C7.3512537,3.46307811 7.09355273,3.64696581 7.0480261,3.91932942 C7.01613759,4.11010273 7,4.30413722 7,4.5 L7,5 L6,5 L6,4.5 C6,2.01471863 8.01471863,2.10831352e-13 10.5,2.10498285e-13 C12.9852814,2.10165219e-13 15,2.01471863 15,4.5 C15,6.98528137 12.9852814,9 10.5,9 L9,9 L6,9 L6,10 L6.99988525,10 L6.99974678,10.5392562 C6.99778695,10.6884913 6.98161872,10.8418627 6.95172849,10.9918532 C6.89775979,11.2626705 7.07355029,11.5259615 7.34436755,11.5799302 C7.61518481,11.6338989 7.87847586,11.4581084 7.93244456,11.1872912 C7.97430351,10.9772411 7.9969142,10.7627566 7.99970539,10.5458172 L7.9998674,10 L9,10 Z M6,9 L4.5,9 C3.67157288,9 3,9.67157288 3,10.5 C3,11.3284271 3.67157288,12 4.5,12 C5.32842712,12 6,11.3284271 6,10.5 L6,9 Z M9,6 L10.5,6 C11.3284271,6 12,5.32842712 12,4.5 C12,3.67157288 11.3284271,3 10.5,3 C9.67157288,3 9,3.67157288 9,4.5 L9,6 Z M9.35913495,2.27478393 C9.69223353,2.10359186 10.0603868,2.00917495 10.4429109,2.00063646 C10.5366286,2.00011228 10.5835592,2.00090213 10.6319443,2.00340993 C10.9077165,2.01770319 11.1428611,1.80573262 11.1571543,1.5299604 C11.1714476,1.25418819 10.959477,1.01904366 10.6837048,1.00475041 C10.613683,1.00112118 10.5482355,1.00001968 10.4286133,1.00077084 C9.88578419,1.01282324 9.36907491,1.14533897 8.90203141,1.38537044 C8.65642666,1.5115961 8.55965078,1.8130242 8.68587643,2.05862895 C8.81210209,2.30423371 9.11353019,2.40100959 9.35913495,2.27478393 Z M12.6201298,3.17446334 C12.8435683,3.53093855 12.9738804,3.93812823 12.9964587,4.36554489 C13.0110256,4.64130279 13.2463803,4.85303992 13.5221382,4.83847301 C13.7978961,4.8239061 14.0096333,4.58855135 13.9950664,4.31279345 C13.9634605,3.71448147 13.7805282,3.14286788 13.467442,2.64336828 C13.3207842,2.40938946 13.0122172,2.33860183 12.7782384,2.48525968 C12.5442595,2.63191753 12.4734719,2.94048452 12.6201298,3.17446334 Z M12.0855844,6.43296661 C11.7591459,6.70111521 11.3705308,6.88290124 10.9525984,6.95922362 C10.6809486,7.00883203 10.5009485,7.26926327 10.5505569,7.54091307 C10.6001653,7.81256288 10.8605965,7.992563 11.1322463,7.94295459 C11.7185031,7.83589299 12.2634716,7.58096808 12.7203276,7.20568977 C12.9337092,7.03041027 12.9645971,6.7153382 12.7893176,6.50195659 C12.6140381,6.28857498 12.298966,6.25768712 12.0855844,6.43296661 Z M8.27660357,7 L6.77660357,7 C6.50046119,7 6.27660357,7.22385763 6.27660357,7.5 C6.27660357,7.77614237 6.50046119,8 6.77660357,8 L8.27660357,8 C8.55274594,8 8.77660357,7.77614237 8.77660357,7.5 C8.77660357,7.22385763 8.55274594,7 8.27660357,7 Z M3.95013538,7.04301818 C3.3609427,7.13609884 2.8102635,7.37790779 2.3447855,7.74210622 C2.12730188,7.91226934 2.08894104,8.22651911 2.25910416,8.44400272 C2.42926729,8.66148634 2.74351706,8.69984718 2.96100067,8.52968406 C3.29351962,8.2695152 3.68608813,8.0971343 4.10618011,8.03076817 C4.37893974,7.98767761 4.5651233,7.73163044 4.52203274,7.45887081 C4.47894217,7.18611118 4.222895,6.99992762 3.95013538,7.04301818 Z M1.00327654,10.6526227 C1.02903402,11.2514833 1.20626175,11.8247361 1.51427647,12.3271416 C1.65860825,12.5625624 1.96645853,12.6364046 2.20187932,12.4920728 C2.43730012,12.347741 2.51114236,12.0398908 2.36681058,11.80447 C2.14700695,11.4459464 2.02075883,11.0375899 2.00235286,10.6096516 C1.99048672,10.3337643 1.75721646,10.1197328 1.48132916,10.131599 C1.20544185,10.1434651 0.991410402,10.3767353 1.00327654,10.6526227 Z M4.23523308,13.9901124 C4.31668555,13.996217 4.39855174,13.9995035 4.48072835,13.9999479 C5.01101175,14.0000059 5.51029172,13.8899865 5.96916546,13.6775155 C6.2197494,13.5614884 6.32882924,13.2642914 6.21280209,13.0137074 C6.09677494,12.7631235 5.79957793,12.6540437 5.54899399,12.7700708 C5.2217949,12.9215729 4.86592047,12.999992 4.48348013,12.9999552 C4.42709984,12.9996433 4.36835733,12.997285 4.30996993,12.9929091 C4.03459984,12.9722711 3.79463787,13.1787722 3.77399986,13.4541423 C3.75336185,13.7295124 3.95986299,13.9694744 4.23523308,13.9901124 Z"></path>
</svg>
