<?xml version="1.0" encoding="UTF-8"?>
<svg width="15px" height="15px" viewBox="0 0 15 15" version="1.1" xmlns="http://www.w3.org/2000/svg" xmlns:xlink="http://www.w3.org/1999/xlink">
    <path d="M6,3.00000808 L6,3.75 C6,4.38470286 5.5269504,4.90891906 4.91418612,4.9893137 L4.51459361,9.38483129 C5.14578223,8.70099864 5.97425102,8.01716598 7,7.33333333 C8.06091808,6.62605462 9.12183615,6.20016269 10.1827542,6.05565755 L10.0858139,4.9893137 C9.4730496,4.90891906 9,4.38470286 9,3.75 L9,3.00000808 L6,3.00000808 Z M5,3.00000808 L4.49998384,3.00000808 C4.22384146,3.00000808 3.99998384,2.77615046 3.99998384,2.50000808 L3.99998384,1 C3.99998384,0.44771525 4.44769909,1.32152074e-13 4.99998384,1.3205062e-13 C5.83332256,1.32166929e-13 6.66666128,1.32219797e-13 7.5,1.32272665e-13 C8.33333333,1.32219797e-13 9.16666667,1.3216693e-13 10,1.32114062e-13 C10.5522847,1.31949167e-13 11,0.44771525 11,1 L11,2.50000808 C11,2.77615046 10.7761424,3.00000808 10.5,3.00000808 L10,3.00000808 L10,3.75 C10,3.88807119 10.1119288,4 10.25,4 L10.5,4 C10.7831772,4 11.0196302,4.21593231 11.0452679,4.4979466 L11.9008604,13.9094643 C11.9508619,14.4594809 11.5455196,14.9458917 10.9955029,14.9958932 C10.9654019,14.9986297 10.9351923,15 10.9049672,15 L4.09503282,15 C3.54274807,15 3.09503282,14.5522847 3.09503282,14 C3.09503282,13.9697749 3.09640316,13.9395653 3.09913961,13.9094643 L3.95473213,4.4979466 C3.98036979,4.21593231 4.21682276,4 4.5,4 L4.75,4 C4.88807119,4 5,3.88807119 5,3.75 L5,3.00000808 Z"></path>
</svg>
