<?xml version="1.0" encoding="UTF-8"?>
<svg width="15px" height="15px" viewBox="0 0 15 15" version="1.1" xmlns="http://www.w3.org/2000/svg" xmlns:xlink="http://www.w3.org/1999/xlink">
    <path d="M0,10 L15,10 L15,10.5 C15,10.7761424 14.7761424,11 14.5,11 L0.5,11 C0.223857625,11 3.38176876e-17,10.7761424 0,10.5 L0,10 Z M3,4 L3,7.66666667 L2,9.5 L-6.21724894e-15,9.5 L3,4 Z M6,4 L6,7.66666667 L5,9.5 L3,9.5 L6,4 Z M9,4 L9,7.66666667 L8,9.5 L6,9.5 L9,4 Z M12,4 L12,7.66666667 L11,9.5 L9,9.5 L12,4 Z M15,4 L15,7.66666667 L14,9.5 L12,9.5 L15,4 Z"></path>
</svg>
