<?xml version="1.0" encoding="UTF-8"?>
<svg viewBox="0 0 15 15" version="1.1" xmlns="http://www.w3.org/2000/svg" xmlns:xlink="http://www.w3.org/1999/xlink">
  <path d="M10,9.50021638 C9.99992517,9.6829889 9.90510187,9.86572348 9.71553005,9.95228743 L9.62126781,9.98507125 L7.563,10.5 L9.62126781,11.0149287 C10.092579,11.1327565 10.1239997,11.7657684 9.71553005,11.9522874 L9.62126781,11.9850713 L7.563,12.5 L9.62126781,13.0149287 C10.092579,13.1327565 10.1239997,13.7657684 9.71553005,13.9522874 L9.62126781,13.9850713 L9.561,14 L12,14 C12.5128358,14 12.9355072,14.3860402 12.9932723,14.8833789 L13,15 L2,15 C2,14.4477153 2.44771525,14 3,14 L5.434,14 L7.436,13.5 L5.37873219,12.9850713 C4.90742102,12.8672435 4.87600028,12.2342316 5.28446995,12.0477126 L5.37873219,12.0149287 L7.436,11.5 L5.37873219,10.9850713 C4.90742102,10.8672435 4.87600028,10.2342316 5.28446995,10.0477126 L5.37873219,10.0149287 L7.436,9.5 L10,9.50021638 Z M12,0 L12,1 C12.6247446,1 13.2081542,1.31223133 13.5547002,1.83205029 L14.8320503,3.74807544 C14.941562,3.91234296 15,4.10535065 15,4.30277564 L15,5.06574145 C15,5.34188383 14.7761424,5.56574145 14.5,5.56574145 C14.4012875,5.56574145 14.3047837,5.53652244 14.2226499,5.4817666 L13.2480754,4.83205029 C12.879177,4.586118 12.3807582,4.68580176 12.1348259,5.0547002 C12.0469126,5.18657016 12,5.34151203 12,5.5 C12,6.07708851 11.9213961,6.64954055 11.7678299,7.20192956 L14.3162278,8.0513167 C14.9822822,8.27333485 15.2077555,9.08404201 14.7879333,9.6162544 L14.7071068,9.70710678 L12.7071068,11.7071068 C12.3165825,12.0976311 11.6834175,12.0976311 11.2928932,11.7071068 C10.9324093,11.3466228 10.9046797,10.7793918 11.2097046,10.3871006 L11.2928932,10.2928932 L12.148,9.436 L10.841,9 L3.942,9 L2.99984887,9.566 L2.99984887,11 L2.99312114,11.1166211 C2.93535603,11.6139598 2.51268471,12 1.99984887,12 C1.48701303,12 1.06434171,11.6139598 1.0065766,11.1166211 L0.999848872,11 L0.999848872,9 L1.00835625,8.86971622 C1.04212253,8.61249319 1.17481839,8.37812705 1.37801271,8.21683255 L1.48535312,8.14250707 L3,7.233 L3,7 C3,6.44771525 2.55228475,6 2,6 C1.48716416,6 1.06449284,6.38604019 1.00672773,6.88337887 L1,7 C1,7.51283584 0.61395981,7.93550716 0.116621125,7.99327227 L4.26325641e-14,8 L4.26325641e-14,4.5 C4.26325641e-14,3.94771525 0.44771525,3.5 1,3.5 C1.62474465,3.5 2.20815422,3.81223133 2.5547002,4.33205029 L3,5 C3,4.44771525 3.44771525,4 4,4 L5,4 L5,4.5 L5.00531768,4.66437569 C5.08996133,5.96846406 6.1745166,7 7.5,7 C8.8254834,7 9.91003867,5.96846406 9.99468232,4.66437569 L10,4.5 L10,4 C10,1.33333333 10.6666667,0 12,0 Z M9,4 L9,4.5 L8.99313342,4.64446001 C8.92044868,5.40511192 8.27969612,6 7.5,6 C6.72030388,6 6.07955132,5.40511192 6.00686658,4.64446001 L6,4.5 L6,4 L9,4 Z"/>
</svg>