<?xml version="1.0" encoding="UTF-8"?>
<!DOCTYPE svg PUBLIC "-//W3C//DTD SVG 1.1//EN" "http://www.w3.org/Graphics/SVG/1.1/DTD/svg11.dtd">
<svg version="1.1" xmlns="http://www.w3.org/2000/svg" xmlns:xlink="http://www.w3.org/1999/xlink" x="0" y="0" width="15" height="15" viewBox="0 0 15 15">
<path d="M14,1 C14,1 14,2.5 14,2.5 C13.25,2.5 13.25,4 14,4 C14,4 14,5.25 14,5.25 C13.25,5.25 13.25,6.75 14,6.75 C14,6.75 14,8.25 14,8.25 C13.25,8.25 13.25,9.75 14,9.75 C14,9.75 14,11 14,11 C13.25,11 13.25,12.5 14,12.5 C14,12.5 14,14 14,14 C14,14 12.5,14 12.5,14 C12.5,13.25 11,13.25 11,14 C11,14 9.75,14 9.75,14 C9.75,13.25 8.25,13.25 8.25,14 C8.25,14 6.75,14 6.75,14 C6.75,13.25 5.25,13.25 5.25,14 C5.25,14 4,14 4,14 C4,13.25 2.5,13.25 2.5,14 C2.5,14 1,14 1,14 C1,14 1,12.5 1,12.5 C1.75,12.5 1.75,11 1,11 C1,11 1,9.75 1,9.75 C1.75,9.75 1.75,8.25 1,8.25 C1,8.25 1,6.75 1,6.75 C1.75,6.75 1.75,5.25 1,5.25 C1,5.25 1,4 1,4 C1.75,4 1.75,2.5 1,2.5 C1,2.5 1,1 1,1 C1,1 2.5,1 2.5,1 C2.5,1.75 4,1.75 4,1 C4,1 5.25,1 5.25,1 C5.25,1.75 6.75,1.75 6.75,1 C6.75,1 8.25,1 8.25,1 C8.25,1.75 9.75,1.75 9.75,1 C9.75,1 11,1 11,1 C11,1.75 12.5,1.75 12.5,1 C12.5,1 14,1 14,1 z M12,3 C12,3 3,3 3,3 L3,12 L12,12 C12,12 12,3 12,3 z M11,4 L11,11 L4,11 L4,4 L11,4 z"/>
</svg>
