<?xml version="1.0" encoding="UTF-8"?>
<svg width="15px" height="15px" viewBox="0 0 15 15" version="1.1" xmlns="http://www.w3.org/2000/svg" xmlns:xlink="http://www.w3.org/1999/xlink">
    <path d="M9,10 L9,11.5 L6,11.5 L6,10 L4.72552869,10 C4.44938632,10 4.22552869,9.77614237 4.22552869,9.5 C4.22552869,9.43916885 4.23662922,9.3788483 4.25828482,9.32200234 L5.87733244,5.07200234 C5.95119071,4.87812437 6.13710653,4.75 6.34457631,4.75 L8.65542369,4.75 C8.86289347,4.75 9.04880929,4.87812437 9.12266756,5.07200234 L10.7417152,9.32200234 C10.8400206,9.580054 10.7105206,9.86893847 10.452469,9.96724387 C10.395623,9.98889947 10.3353025,10 10.2744713,10 L9,10 Z M11,12 L11,13 L12,13 L12,14 L3,14 L3,13 L4,13 L4,12 L11,12 Z M7.5,1 C8.32842712,1 9,1.67157288 9,2.5 C9,3.32842712 8.32842712,4 7.5,4 C6.67157288,4 6,3.32842712 6,2.5 C6,1.67157288 6.67157288,1 7.5,1 Z"></path>
</svg>
