<?xml version="1.0" encoding="UTF-8"?>
<svg width="15px" height="15px" viewBox="0 0 15 15" version="1.1" xmlns="http://www.w3.org/2000/svg" xmlns:xlink="http://www.w3.org/1999/xlink">
    <path d="M9,9 L9,11.5 L6,11.5 L6,9 L4.72552869,9 C4.44938632,9 4.22552869,8.77614237 4.22552869,8.5 C4.22552869,8.43916885 4.23662922,8.3788483 4.25828482,8.32200234 L5.86305121,5.03086187 C5.94684202,4.85901921 6.12128874,4.75 6.31247137,4.75 L8.68752863,4.75 C8.87871126,4.75 9.05315798,4.85901921 9.13694879,5.03086187 L10.7417152,8.32200234 C10.8400206,8.580054 10.7105206,8.86893847 10.452469,8.96724387 C10.395623,8.98889947 10.3353025,9 10.2744713,9 L9,9 Z M11,12 L11,13 L12,13 L12,14 L3,14 L3,13 L4,13 L4,12 L11,12 Z M7.5,1 C8.32842712,1 9,1.67157288 9,2.5 C9,3.32842712 8.32842712,4 7.5,4 C6.67157288,4 6,3.32842712 6,2.5 C6,1.67157288 6.67157288,1 7.5,1 Z"></path>
</svg>
