<?xml version="1.0" encoding="UTF-8"?>
<svg width="15px" height="15px" viewBox="0 0 15 15" version="1.1" xmlns="http://www.w3.org/2000/svg" xmlns:xlink="http://www.w3.org/1999/xlink">
    <path d="M4.57692308,2.38461538 L5.25,4 C6.07516261,5.98039027 6.5,8.10457721 6.5,10.25 L6.5,13.5 C6.5,13.7761424 6.27614237,14 6,14 L1.5,14 C1.22385763,14 1,13.7761424 1,13.5 L1,1.5 C1,1.22385763 1.22385763,1 1.5,1 L2.5,1 C3.40832691,1 4.22756657,1.54615977 4.57692308,2.38461538 Z M10.4230769,2.38461538 L9.75,4 C8.92483739,5.98039027 8.5,8.10457721 8.5,10.25 L8.5,13.5 C8.5,13.7761424 8.72385763,14 9,14 L13.5,14 C13.7761424,14 14,13.7761424 14,13.5 L14,1.5 C14,1.22385763 13.7761424,1 13.5,1 L12.5,1 C11.5916731,1 10.7724334,1.54615977 10.4230769,2.38461538 Z"></path>
</svg>
