<?xml version="1.0" encoding="UTF-8"?>
<!DOCTYPE svg PUBLIC "-//W3C//DTD SVG 1.1//EN" "http://www.w3.org/Graphics/SVG/1.1/DTD/svg11.dtd">
<svg version="1.1" xmlns="http://www.w3.org/2000/svg" xmlns:xlink="http://www.w3.org/1999/xlink" x="0" y="0" width="15" height="15" viewBox="0 0 15 15">
<path d="M12,8 C12,8 12,14.5 12,14.5 C12,15 11,15 11,14.5 C11,14.5 11,10 11,10 C10.5,11 8.5,13 8.5,13 C8,13.5 7,13.5 6.5,13 C6.5,13 4.5,11 4,10 C4,10 4,14.5 4,14.5 C4,15 3,15 3,14.5 C3,14.5 3,8 3,8 C3.5,9.5 11.5,9.5 12,8 z M7.5,4.5 C8.3,4.5 9,5 9,5.5 C9,6 8.3,6.5 7.5,6.5 C6.7,6.5 6,6 6,5.5 C6,5 6.7,4.5 7.5,4.5 z M12,2 C11,-0.5 4,-0.5 3,2 C3,2 3,7 3,7 C3,9 12,9 12,7 C12,7 12,2 12,2 z"/>
</svg>
