<?xml version="1.0" encoding="UTF-8"?>
<!DOCTYPE svg PUBLIC "-//W3C//DTD SVG 1.1//EN" "http://www.w3.org/Graphics/SVG/1.1/DTD/svg11.dtd">
<svg version="1.1" xmlns="http://www.w3.org/2000/svg" xmlns:xlink="http://www.w3.org/1999/xlink" x="0" y="0" width="15" height="15" viewBox="0 0 15 15">
<path d="M3,2.5 C3.5,4 11.5,4 12,2.5 C12,2.5 12,7.5 12,7.5 C12,9.5 3,9.5 3,7.5 C3,7.5 3,2.5 3,2.5 z M9.5,1.25 C10,1.25 10.5,1.5 10.5,1.75 C10.5,2 10,2.25 9.5,2.25 C9,2.25 8.5,2 8.5,1.75 C8.5,1.5 9,1.25 9.5,1.25 z M12,1.5 C12,0 3,0 3,1.5 C3,3.5 12,3.5 12,1.5 z M3,8.5 C3.5,10 11.5,10 12,8.5 C12,8.5 12,13.5 12,13.5 C12,15.5 3,15.5 3,13.5 C3,13.5 3,8.5 3,8.5 z"/>
</svg>
