<?xml version="1.0" encoding="UTF-8"?>
<svg width="15px" height="15px" viewBox="0 0 15 15" version="1.1" xmlns="http://www.w3.org/2000/svg" xmlns:xlink="http://www.w3.org/1999/xlink">
    <path d="M11.5039,1 L10,1 C9.2616,1 8.6238,1.4047 8.2774,2 L3.5,2 L2.5,3 L3.5,4 L4.5,3 L5.5,4 L6.5,3 L7.5,4 L8.2774,4 C8.6238,4.5953 9.2616,5 10,5 L11.4982,5 C11.7753,5 12,4.7753 12,4.4982 L12,1.4961 C12,1.2221 11.7779,1 11.5039,1 Z M11,3.5 C11,3.7761 10.7761,4 10.5,4 C10.2239,4 10,3.7761 10,3.5 L10,2.5 C10,2.2238 10.2239,2 10.5,2 C10.7761,2 11,2.2238 11,2.5 L11,3.5 Z"></path>
    <path d="M12,14 L12,8 L3,8 L3,14 L1.5,14 L1.5,6.5 L13.5,6.5 L13.5,14 L12,14 Z M4.5,9 L10.5,9 C10.7761424,9 11,9.22385763 11,9.5 C11,9.77614237 10.7761424,10 10.5,10 L4.5,10 C4.22385763,10 4,9.77614237 4,9.5 C4,9.22385763 4.22385763,9 4.5,9 Z M4.5,13 L10.5,13 C10.7761424,13 11,13.2238576 11,13.5 C11,13.7761424 10.7761424,14 10.5,14 L4.5,14 C4.22385763,14 4,13.7761424 4,13.5 C4,13.2238576 4.22385763,13 4.5,13 Z M4.5,11 L10.5,11 C10.7761424,11 11,11.2238576 11,11.5 C11,11.7761424 10.7761424,12 10.5,12 L4.5,12 C4.22385763,12 4,11.7761424 4,11.5 C4,11.2238576 4.22385763,11 4.5,11 Z"></path>
</svg>
