<?xml version="1.0" encoding="UTF-8"?>
<svg width="15px" height="15px" viewBox="0 0 15 15" version="1.1" xmlns="http://www.w3.org/2000/svg" xmlns:xlink="http://www.w3.org/1999/xlink">
    <path d="M5.999998,12 L7,12 C7.55228475,12 8,12.4477153 8,13 L8,14 L2,14 L2,13 C2,12.4477153 2.44771525,12 3,12 L4,12 L4,4 C4,2.34314575 5.34314575,1 7,1 L13,1 L13,3 C13,4.1045695 12.1045695,5 11,5 L10,5 C8.8954305,5 8,4.1045695 8,3 L7.5,3 C6.6715635,3 5.99998302,3.67158048 5.99998302,4.50001698 L5.999998,12 Z M9,2 L9,3 C9,3.55228475 9.44771525,4 10,4 L11,4 C11.5522847,4 12,3.55228475 12,3 L12,2 L9,2 L9,2 Z"></path>
</svg>
