<?xml version="1.0" encoding="UTF-8"?>
<svg viewBox="0 0 15 15" version="1.1" xmlns="http://www.w3.org/2000/svg" xmlns:xlink="http://www.w3.org/1999/xlink">
  <path d="M3.62 11.63L10.88 8.18L10.55 5.86L4 8.98L3.62 11.63ZM4.22 7.49L10.37 4.56L10.08 2.54L4.56 5.06L4.22 7.49L4.22 7.49ZM4.73 3.89L8.85 2L5 2L4.73 3.89L4.73 3.89ZM11.1 9.73L5.29 12.5L11.5 12.5L11.1 9.73ZM4.01 1.43C4.02 1.3 4.09 1.2 4.18 1.12C4.27 1.04 4.39 1 4.51 1L10.49 1C10.49 1 10.5 1 10.5 1C10.75 1 10.96 1.18 10.99 1.43L12.99 13.41C12.99 13.42 13 13.44 13 13.46C13.02 13.72 12.84 13.95 12.58 13.99C12.55 14 12.52 14 12.49 14L2.51 14C2.48 14 2.45 14 2.42 13.99C2.15 13.95 1.96 13.69 2.01 13.42C2.01 13.41 2.01 13.41 2.01 13.41L4.01 1.43Z"/>
</svg>