<?xml version="1.0" encoding="UTF-8"?>
<svg width="15px" height="15px" viewBox="0 0 15 15" version="1.1" xmlns="http://www.w3.org/2000/svg" xmlns:xlink="http://www.w3.org/1999/xlink">
    <path d="M3.62368257,11.634222 L10.8825204,8.17764287 L10.5511934,5.85835368 L4.00337835,8.97635155 L3.62368257,11.634222 Z M4.21559905,7.49080664 L10.3660071,4.56204963 L10.0765384,2.535769 L4.56241797,5.06307421 L4.21559905,7.49080664 L4.21559905,7.49080664 Z M4.73057566,3.88597037 L8.84542011,2 L5,2 L4.73057566,3.88597037 L4.73057566,3.88597037 Z M11.104744,9.73320772 L5.29446287,12.5 L11.5,12.5 L11.104744,9.73320772 Z M4.0054518,1.42590795 C4.02355332,1.30404757 4.08562391,1.19653132 4.17501415,1.1200086 C4.26878334,1.041372 4.38504107,0.997821511 4.50821927,1 L10.4917807,1 C10.494524,0.999951484 10.4972638,0.999925649 10.4999999,0.999922342 C10.7509671,1 10.9587483,1.18490108 10.9945482,1.42590795 L12.9916484,13.4085088 C12.9946759,13.4248813 12.9969057,13.4415335 12.998296,13.4584236 C13.0197084,13.7157626 12.8407745,13.9501011 12.5821995,13.993197 C12.5513752,13.9983343 12.52074,14.0005339 12.4905802,14 L2.50941983,14 C2.47925998,14.0005339 2.44862483,13.9983343 2.41780051,13.993197 C2.14541535,13.9477994 1.96140551,13.6901857 2.00680304,13.4178005 C2.00723969,13.4146851 2.00778153,13.411592 2.00835165,13.4085088 L4.0054518,1.42590795 Z"></path>
</svg>
