<?xml version="1.0" encoding="UTF-8"?>
<svg width="15px" height="15px" viewBox="0 0 15 15" version="1.1" xmlns="http://www.w3.org/2000/svg" xmlns:xlink="http://www.w3.org/1999/xlink">
    <path d="M5.59825512,13 L12.8596118,13 L12.4324732,11.2914455 L5.59825512,13 Z M2.18523221,12.820624 L12.189501,10.3195568 L11.7253203,8.46283386 L2.7113037,10.716338 L2.18523221,12.820624 L2.18523221,12.820624 Z M2.98667217,9.61486412 L11.4823481,7.49094515 L11.0181674,5.63422223 L3.51274367,7.51057815 L2.98667217,9.61486412 Z M3.78811213,6.40910427 L10.7751952,4.66233351 L10.3110144,2.80561059 L4.31418363,4.3048183 L3.78811213,6.40910427 Z M4.5895521,3.20334443 L9.4029298,2 L4.8903882,2 L4.5895521,3.20334443 L4.5895521,3.20334443 Z M13.9823518,13.3678544 C13.9863271,13.3823982 13.9896621,13.3972064 13.9923248,13.4122468 C14.0043275,13.4795692 14.0022071,13.546549 13.9878823,13.6099048 C13.9548011,13.7573939 13.856552,13.8802512 13.7249522,13.9466596 C13.7058263,13.9562698 13.6859043,13.964732 13.6652519,13.9719367 C13.6402907,13.9807866 13.614386,13.9876098 13.5877532,13.9923248 C13.5545409,13.9982129 13.5214269,14.0007128 13.4887874,14 L1.51121257,14 C1.4785731,14.0007128 1.44545911,13.9982129 1.41226662,13.9922628 C1.38561399,13.9876098 1.35970927,13.9807866 1.33471123,13.9720338 C1.31409572,13.964732 1.29417371,13.9562698 1.27504784,13.9466596 C1.14344799,13.8802512 1.04519889,13.7573939 1.01211765,13.6099048 C0.997792919,13.546549 0.995672507,13.4795692 1.00773725,13.4122666 C1.01033788,13.3972064 1.01367294,13.3823982 1.0176482,13.3678544 L4.01239203,1.38887906 C4.02146363,1.34890435 4.03532484,1.31074886 4.05334043,1.27504784 C4.12120529,1.13998581 4.24631819,1.04462563 4.3900952,1.01211765 C4.39607658,1.01077605 4.40209846,1.00954163 4.40815874,1.00841652 C4.44151135,1.00213116 4.47576913,0.999242778 4.51045916,1 L10.4895408,1 C10.5242309,0.999242778 10.5584886,1.00213116 10.5918469,1.00838481 C10.5979015,1.00954163 10.6039234,1.01077605 10.6099048,1.01211765 C10.7536818,1.04462563 10.8787947,1.13998581 10.9466596,1.27504784 C10.9646752,1.31074886 10.9785364,1.34890435 10.987608,1.38887906 L13.9823518,13.3678544 L13.9823518,13.3678544 Z"></path>
</svg>
