<?xml version="1.0" encoding="UTF-8"?>
<svg width="15px" height="15px" viewBox="0 0 15 15" version="1.1" xmlns="http://www.w3.org/2000/svg" xmlns:xlink="http://www.w3.org/1999/xlink">
    <path d="M10.5,8.92190096 L10.5,6.64952762 L4.5,10.078099 L4.5,12.3504724 L10.5,8.92190096 L10.5,8.92190096 Z M10.5,10.6495276 L5.51167333,13.5 L10.5,13.5 L10.5,10.6495276 Z M10.5,4.92190096 L10.5,2.64952762 L4.5,6.07809904 L4.5,8.35047238 L10.5,4.92190096 L10.5,4.92190096 Z M9.48832667,1.5 L4.5,1.5 L4.5,4.35047238 L9.48832667,1.5 L9.48832667,1.5 Z M3.5,0 L11.5,0 C11.7761424,-5.07265313e-17 12,0.223857625 12,0.5 L12,14.5 C12,14.7761424 11.7761424,15 11.5,15 L3.5,15 C3.22385763,15 3,14.7761424 3,14.5 L3,0.5 C3,0.223857625 3.22385763,5.07265313e-17 3.5,0 Z"></path>
</svg>
