<?xml version="1.0" encoding="UTF-8"?>
<!DOCTYPE svg PUBLIC "-//W3C//DTD SVG 1.1//EN" "http://www.w3.org/Graphics/SVG/1.1/DTD/svg11.dtd">
<svg version="1.1" xmlns="http://www.w3.org/2000/svg" xmlns:xlink="http://www.w3.org/1999/xlink" x="0" y="0" width="15" height="15" viewBox="0, 0, 15, 15">
    <path d="M4.389,12.212 L5.724,12.212 L5.391,12.808 L9.395,12.808 L9.061,12.212 L10.396,12.212 L11.397,14 L10.062,14 L9.729,13.404 L5.057,13.404 L4.723,14 L3.388,14 L4.389,12.212 z M9.795,9.514 L8.995,10.28 L8.995,10.663 L10.596,10.663 L10.997,10.28 L10.997,9.514 L9.795,9.514 z M3.789,9.514 L3.789,10.28 L4.189,10.663 L5.791,10.663 L5.791,10.28 L4.99,9.514 L3.789,9.514 z M4.189,5.3 L3.789,5.683 L3.789,7.216 L4.99,7.982 L9.795,7.982 L10.997,7.216 L10.997,5.683 L10.596,5.3 L9.795,5.3 L4.99,5.3 L4.189,5.3 z M5.791,3.768 L5.791,4.534 L8.995,4.534 L8.995,3.768 L5.791,3.768 z M5.391,3.002 L9.395,3.002 L11.798,5.3 L11.798,11.046 L10.997,11.812 L3.789,11.812 L2.988,11.046 L2.988,5.3 L5.391,3.002 z M6.992,1 L7.793,1 L10.196,1 C12.171,1.329 13.8,2.201 13.8,4.604 L13.8,12.613 L12.599,12.212 L12.599,4.604 C12.599,3.002 11.397,2.201 10.196,2.201 L7.793,2.201 L6.992,2.201 L4.59,2.201 C3.388,2.201 2.187,3.002 2.187,4.604 L2.187,12.212 L0.986,12.613 L0.986,4.604 C0.986,2.201 2.587,1 4.59,1 z" fill="#000000" id="subway"/>
</svg>
