<?xml version="1.0" encoding="UTF-8"?>
<svg width="15px" height="15px" viewBox="0 0 15 15" version="1.1" xmlns="http://www.w3.org/2000/svg" xmlns:xlink="http://www.w3.org/1999/xlink">
    <path d="M5.75,12.5 L5.5,13 L9.5,13 L9.25,12.5 L10.75,12.5 L12,15 L10.5,15 L10,14 L5,14 L4.5,15 L3,15 L4.25,12.5 L5.75,12.5 Z M13,4 L13,10 C13,11.1045695 12.1045695,12 11,12 L4,12 C2.8954305,12 2,11.1045695 2,10 L2,4 C2,2.8954305 2.8954305,2 4,2 L11,2 C12.1045695,2 13,2.8954305 13,4 Z M9,10 C9,10.5522847 9.44771525,11 10,11 C10.5522847,11 11,10.5522847 11,10 C11,9.44771525 10.5522847,9 10,9 C9.44771525,9 9,9.44771525 9,10 Z M6,10 C6,9.44771525 5.55228475,9 5,9 C4.44771525,9 4,9.44771525 4,10 C4,10.5522847 4.44771525,11 5,11 C5.55228475,11 6,10.5522847 6,10 Z M2.9966931,5.50329057 L3.00985569,7.50329057 C3.01166457,7.77814281 3.23498667,8 3.50984486,8 L6.50651425,8 C6.78265663,8 7.00651425,7.77614237 7.00651425,7.5 C7.00651425,7.49890313 7.00651064,7.49780627 7.00650342,7.49670943 L6.99334084,5.49670943 C6.99153196,5.22185719 6.76820986,5 6.49335167,5 L3.49668228,5 C3.2205399,5 2.99668228,5.22385763 2.99668228,5.5 C2.99668228,5.50109687 2.99668588,5.50219373 2.9966931,5.50329057 Z M7.9966931,5.50329057 L8.00985569,7.50329057 C8.01166457,7.77814281 8.23498667,8 8.50984486,8 L11.5065143,8 C11.7826566,8 12.0065143,7.77614237 12.0065143,7.5 C12.0065143,7.49890313 12.0065106,7.49780627 12.0065034,7.49670943 L11.9933408,5.49670943 C11.991532,5.22185719 11.7682099,5 11.4933517,5 L8.49668228,5 C8.2205399,5 7.99668228,5.22385763 7.99668228,5.5 C7.99668228,5.50109687 7.99668588,5.50219373 7.9966931,5.50329057 Z M4,3.49999446 C4,3.77613378 4.22385515,3.99998893 4.49999446,3.99998893 L10.4999848,3.99998893 C10.7761258,3.99998893 10.9999839,3.77613546 10.9999896,3.49999446 C10.9999954,3.22386086 10.7761495,3.00000572 10.5000159,3 C10.5000124,3 10.500009,3 10.5000055,3 L4.49999446,3 C4.22385515,3 4,3.22385515 4,3.49999446 Z M1,13 L-2.79776202e-14,13 L-2.79776202e-14,4 C-2.82313855e-14,1.790861 1.790861,9.7065213e-15 4,9.32587341e-15 L11,9.32587341e-15 C13.209139,8.94522551e-15 15,1.790861 15,4 L15,13 L14,13 L14,4 C14,2.34314575 12.6568542,1 11,1 L4,1 C2.34314575,1 1,2.34314575 1,4 L1,13 Z"></path>
</svg>
