<?xml version="1.0" encoding="UTF-8"?>
<svg width="15px" height="15px" viewBox="0 0 15 15" version="1.1" xmlns="http://www.w3.org/2000/svg" xmlns:xlink="http://www.w3.org/1999/xlink">
    <path d="M2,1 L13,1 C13.5522847,1 14,1.44771525 14,2 L14,13 C14,13.5522847 13.5522847,14 13,14 L2,14 C1.44771525,14 1,13.5522847 1,13 L1,2 C1,1.44771525 1.44771525,1 2,1 Z M13,6 C13,5.44771525 12.5522847,5 12,5 L3,5 C2.44771525,5 2,5.44771525 2,6 L2,11 C2,11.5522847 2.44771525,12 3,12 L12,12 C12.5522847,12 13,11.5522847 13,11 L13,6 Z M9,5 L10,5 L10,4 C10,3.44771525 9.55228475,3 9,3 L6,3 C5.44771525,3 5,3.44771525 5,4 L5,5 L6,5 L6,4 L9,4 L9,5 Z M3.5,6 L5.5,6 C5.77614237,6 6,6.22385763 6,6.5 L6,10.5 C6,10.7761424 5.77614237,11 5.5,11 L3.5,11 C3.22385763,11 3,10.7761424 3,10.5 L3,6.5 C3,6.22385763 3.22385763,6 3.5,6 Z M9,6 L11,6 C11.5522847,6 12,6.44771525 12,7 C12,7.55228475 11.5522847,8 11,8 L9,8 L9,6 Z M8,6 L8.5,6 L8.5,8 L8,8 C7.44771525,8 7,7.55228475 7,7 C7,6.44771525 7.44771525,6 8,6 Z M8,9 L8.5,9 L8.5,11 L8,11 C7.44771525,11 7,10.5522847 7,10 C7,9.44771525 7.44771525,9 8,9 Z M9,9 L11,9 C11.5522847,9 12,9.44771525 12,10 C12,10.5522847 11.5522847,11 11,11 L9,11 L9,9 Z"></path>
</svg>
