<?xml version="1.0" encoding="UTF-8"?>
<svg width="15px" height="15px" viewBox="0 0 15 15" version="1.1" xmlns="http://www.w3.org/2000/svg" xmlns:xlink="http://www.w3.org/1999/xlink">
    <path d="M10,5 L10,12 L5,12 L5,5 L10,5 Z M11,5 L12,5 C12.5522847,5 13,5.44771525 13,6 L13,11 C13,11.5522847 12.5522847,12 12,12 L11,12 L11,5 Z M4,5 L4,12 L3,12 C2.44771525,12 2,11.5522847 2,11 L2,6 C2,5.44771525 2.44771525,5 3,5 L4,5 Z M9,5 L9,4 L6,4 L6,5 L5,5 L5,4 C5,3.44771525 5.44771525,3 6,3 L9,3 C9.55228475,3 10,3.44771525 10,4 L10,5 L9,5 Z"></path>
</svg>
