<?xml version="1.0" encoding="UTF-8"?>
<svg width="15px" height="15px" viewBox="0 0 15 15" version="1.1" xmlns="http://www.w3.org/2000/svg" xmlns:xlink="http://www.w3.org/1999/xlink">
    <path d="M10,8 L10,14 L5,14 L5,8 L10,8 Z M11,8 L12,8 C12.5522847,8 13,8.44771525 13,9 L13,13 C13,13.5522847 12.5522847,14 12,14 L11,14 L11,8 Z M4,8 L4,14 L3,14 C2.44771525,14 2,13.5522847 2,13 L2,9 C2,8.44771525 2.44771525,8 3,8 L4,8 Z M9,8 L9,7 L6,7 L6,8 L5,8 L5,7 C5,6.44771525 5.44771525,6 6,6 L9,6 C9.55228475,6 10,6.44771525 10,7 L10,8 L9,8 Z M11.5039,1 C11.7779,1 12,1.2221 12,1.4961 L12,4.4982 C12,4.7753 11.7753,5 11.4982,5 L10,5 C9.2616,5 8.6238,4.5953 8.2774,4 L7.5,4 L6.5,3 L5.5,4 L4.5,3 L3.5,4 L2.5,3 L3.5,2 L8.2774,2 C8.6238,1.4047 9.2616,1 10,1 L11.5039,1 Z M11,3.5 L11,2.5 C11,2.2238 10.7761,2 10.5,2 C10.2239,2 10,2.2238 10,2.5 L10,3.5 C10,3.7761 10.2239,4 10.5,4 C10.7761,4 11,3.7761 11,3.5 Z"></path>
</svg>
