<?xml version="1.0" encoding="UTF-8"?>
<svg width="15px" height="15px" viewBox="0 0 15 15" version="1.1" xmlns="http://www.w3.org/2000/svg" xmlns:xlink="http://www.w3.org/1999/xlink">
    <path d="M10,7 L10,14 L5,14 L5,7 L10,7 Z M11,7 L12,7 C12.5522847,7 13,7.44771525 13,8 L13,13 C13,13.5522847 12.5522847,14 12,14 L11,14 L11,7 Z M4,7 L4,14 L3,14 C2.44771525,14 2,13.5522847 2,13 L2,8 C2,7.44771525 2.44771525,7 3,7 L4,7 Z M9,7 L9,6 L6,6 L6,7 L5,7 L5,6 C5,5.44771525 5.44771525,5 6,5 L9,5 C9.55228475,5 10,5.44771525 10,6 L10,7 L9,7 Z M11.5039,0 C11.7779,0 12,0.2221 12,0.4961 L12,3.4982 C12,3.7753 11.7753,4 11.4982,4 L10,4 C9.2616,4 8.6238,3.5953 8.2774,3 L7.5,3 L6.5,2 L5.5,3 L4.5,2 L3.5,3 L2.5,2 L3.5,1 L8.2774,1 C8.6238,0.4047 9.2616,0 10,0 L11.5039,0 Z M11,2.5 L11,1.5 C11,1.2238 10.7761,1 10.5,1 C10.2239,1 10,1.2238 10,1.5 L10,2.5 C10,2.7761 10.2239,3 10.5,3 C10.7761,3 11,2.7761 11,2.5 Z"></path>
</svg>
