<?xml version="1.0" encoding="UTF-8"?>
<svg version="1.2" baseProfile="tiny" xmlns="http://www.w3.org/2000/svg" viewBox="0 0 50 50" overflow="inherit">
  <path d="M9.42 35.47c13.42 5.67 23.61 8.98 37.97 13.53c0.29 0.05 0.56 -0.16 0.61 -0.47c0.05 -0.29 -0.16 -0.58 -0.45 -0.64c-22.61 -7.15 -40.36 -15.07 -44.41 -16.92c-0.42 -0.17 -0.91 0.02 -1.06 0.43c-0.17 0.42 0.01 0.88 0.42 1.03c1.01 0.45 2 0.9 2.96 1.32l-3.19 2.44c-0.36 0.53 -0.2 1.22 0.33 1.58c0.4 0.27 0.96 0.24 1.35 -0.01l5.49 -2.31zm37.04 -14.32l-10.44 -9.64l0.23 0.02c2.12 0 3.82 -1.73 3.82 -3.85s-1.71 -3.85 -3.82 -3.85c-2.13 0 -3.83 1.73 -3.83 3.85c0 0.81 0.25 1.56 0.68 2.19l-7.08 -2.54l-3.82 -5.56c-0.29 -0.41 -0.75 -0.68 -1.28 -0.75c-0.99 -0.11 -1.91 0.61 -2.02 1.63c-0.04 0.42 0.06 0.83 0.26 1.17l3.9 5.68c0.18 0.23 0.41 0.42 0.68 0.55l4.53 1.79l-7.43 3.82c-1.04 0.59 -1.78 1.64 -1.98 2.85l0.03 6.83l-6.87 3.11c-0.77 0.38 -1.32 1.15 -1.36 2.07c-0.06 1.32 0.96 2.42 2.27 2.48c0.41 0.02 0.8 -0.07 1.14 -0.24l8.41 -3.82c0.6 -0.32 1.05 -0.9 1.2 -1.6l-0.01 -4.25l5.84 5.25l-1.07 8.95l-0.01 0.17c-0.06 1.32 0.96 2.43 2.27 2.49c1.23 0.05 2.28 -0.85 2.45 -2.07l1.26 -10.21l0.01 -0.14c0.02 -0.72 -0.26 -1.36 -0.73 -1.82l-5.41 -4.83l8.15 -4.03l7.56 6.99c0.34 0.33 0.8 0.53 1.3 0.53c1.02 -0.01 1.83 -0.84 1.82 -1.85c0 -0.55 -0.25 -1.03 -0.63 -1.38z"/>
</svg>