<?xml version="1.0" encoding="UTF-8"?>
<svg viewBox="0 0 15 15" version="1.1" xmlns="http://www.w3.org/2000/svg" xmlns:xlink="http://www.w3.org/1999/xlink">
  <path d="M12 4.5C12 4.22 12.22 4 12.5 4C12.78 4 13 4.22 13 4.5L13 12.5C13 12.78 12.78 13 12.5 13C12.22 13 12 12.78 12 12.5L12 4.5Z"/>
  <path d="M10 3.5C10 3.22 10.22 3 10.5 3C10.78 3 11 3.22 11 3.5L11 12.5C11 12.78 10.78 13 10.5 13C10.22 13 10 12.78 10 12.5L10 3.5Z"/>
  <path d="M8 2.5C8 2.22 8.22 2 8.5 2C8.78 2 9 2.22 9 2.5L9 12.5C9 12.78 8.78 13 8.5 13C8.22 13 8 12.78 8 12.5L8 2.5Z"/>
  <path d="M9.5 7C9.78 7 10 7.22 10 7.5C10 7.78 9.78 8 9.5 8L5.5 8C5.22 8 5 7.78 5 7.5C5 7.22 5.22 7 5.5 7L9.5 7Z"/>
  <path d="M12.28 4.95L8.28 2.95C8.03 2.82 7.93 2.52 8.05 2.28C8.18 2.03 8.48 1.93 8.72 2.05L12.72 4.05C12.97 4.18 13.07 4.48 12.95 4.72C12.82 4.97 12.52 5.07 12.28 4.95Z"/>
  <path d="M2 4.5C2 4.22 2.22 4 2.5 4C2.78 4 3 4.22 3 4.5L3 12.5C3 12.78 2.78 13 2.5 13C2.22 13 2 12.78 2 12.5L2 4.5Z"/>
  <path d="M4 3.5C4 3.22 4.22 3 4.5 3C4.78 3 5 3.22 5 3.5L5 12.5C5 12.78 4.78 13 4.5 13C4.22 13 4 12.78 4 12.5L4 3.5Z"/>
  <path d="M6 2.5C6 2.22 6.22 2 6.5 2C6.78 2 7 2.22 7 2.5L7 12.5C7 12.78 6.78 13 6.5 13C6.22 13 6 12.78 6 12.5L6 2.5Z"/>
  <path d="M2.72 4.95C2.48 5.07 2.18 4.97 2.05 4.72C1.93 4.48 2.03 4.18 2.28 4.05L6.28 2.05C6.52 1.93 6.82 2.03 6.95 2.28C7.07 2.52 6.97 2.82 6.72 2.95L2.72 4.95Z"/>
  <path d="M2 10L7 10L7 13L2 13L2 10ZM8 10L13 10L13 13L8 13L8 10Z"/>
</svg>