<?xml version="1.0" encoding="UTF-8"?>
<svg width="15px" height="15px" viewBox="0 0 15 15" version="1.1" xmlns="http://www.w3.org/2000/svg" xmlns:xlink="http://www.w3.org/1999/xlink">
    <path d="M12,4.5 C12,4.22385763 12.2238576,4 12.5,4 C12.7761424,4 13,4.22385763 13,4.5 L13,12.5 C13,12.7761424 12.7761424,13 12.5,13 C12.2238576,13 12,12.7761424 12,12.5 L12,4.5 Z"></path>
    <path d="M10,3.5 C10,3.22385763 10.2238576,3 10.5,3 C10.7761424,3 11,3.22385763 11,3.5 L11,12.5 C11,12.7761424 10.7761424,13 10.5,13 C10.2238576,13 10,12.7761424 10,12.5 L10,3.5 Z"></path>
    <path d="M8,2.5 C8,2.22385763 8.22385763,2 8.5,2 C8.77614237,2 9,2.22385763 9,2.5 L9,12.5 C9,12.7761424 8.77614237,13 8.5,13 C8.22385763,13 8,12.7761424 8,12.5 L8,2.5 Z"></path>
    <path d="M9.5,7 C9.77614237,7 10,7.22385763 10,7.5 C10,7.77614237 9.77614237,8 9.5,8 L5.5,8 C5.22385763,8 5,7.77614237 5,7.5 C5,7.22385763 5.22385763,7 5.5,7 L9.5,7 Z"></path>
    <path d="M12.2763932,4.9472136 L8.2763932,2.9472136 C8.02940395,2.82371897 7.92929178,2.52338245 8.0527864,2.2763932 C8.17628103,2.02940395 8.47661755,1.92929178 8.7236068,2.0527864 L12.7236068,4.0527864 C12.970596,4.17628103 13.0707082,4.47661755 12.9472136,4.7236068 C12.823719,4.97059605 12.5233825,5.07070822 12.2763932,4.9472136 Z"></path>
    <path d="M2,4.5 C2,4.22385763 2.22385763,4 2.5,4 C2.77614237,4 3,4.22385763 3,4.5 L3,12.5 C3,12.7761424 2.77614237,13 2.5,13 C2.22385763,13 2,12.7761424 2,12.5 L2,4.5 Z"></path>
    <path d="M4,3.5 C4,3.22385763 4.22385763,3 4.5,3 C4.77614237,3 5,3.22385763 5,3.5 L5,12.5 C5,12.7761424 4.77614237,13 4.5,13 C4.22385763,13 4,12.7761424 4,12.5 L4,3.5 Z"></path>
    <path d="M6,2.5 C6,2.22385763 6.22385763,2 6.5,2 C6.77614237,2 7,2.22385763 7,2.5 L7,12.5 C7,12.7761424 6.77614237,13 6.5,13 C6.22385763,13 6,12.7761424 6,12.5 L6,2.5 Z"></path>
    <path d="M2.7236068,4.9472136 C2.47661755,5.07070822 2.17628103,4.97059605 2.0527864,4.7236068 C1.92929178,4.47661755 2.02940395,4.17628103 2.2763932,4.0527864 L6.2763932,2.0527864 C6.52338245,1.92929178 6.82371897,2.02940395 6.9472136,2.2763932 C7.07070822,2.52338245 6.97059605,2.82371897 6.7236068,2.9472136 L2.7236068,4.9472136 Z"></path>
    <path d="M2,10 L7,10 L7,13 L2,13 L2,10 Z M8,10 L13,10 L13,13 L8,13 L8,10 Z"></path>
</svg>
