<?xml version="1.0" encoding="UTF-8"?>
<!DOCTYPE svg PUBLIC "-//W3C//DTD SVG 1.1//EN" "http://www.w3.org/Graphics/SVG/1.1/DTD/svg11.dtd">
<svg version="1.1" xmlns="http://www.w3.org/2000/svg" xmlns:xlink="http://www.w3.org/1999/xlink" x="0" y="0" width="15" height="15" viewBox="0 0 15 15">
<path d="M11,11 C11,11 2,11 2,11 C1,11 1,9.5 2,9.5 L6,9.5 C7,9 7.5,9 8,9 C8,9 10.5,9 10.5,9 C10.5,10 10.5,10.5 11,11 z M12.5,11 C13.328,11 14,10.328 14,9.5 C14,8.672 13.328,8 12.5,8 C11.672,8 11,8.672 11,9.5 C11,10.328 11.672,11 12.5,11 z"/>
<path d="M14.5,12 C15,12 15,14 14.5,14 L0.5,14 C-0,14 -0,12 0.5,12 L14.5,12 z"/>
<path d="M8.75,0 C8.75,0 8.75,1.25 9,1.5 C9.25,1.75 10.5,1.75 10.5,1.75 C10.5,1.75 9.5,2.75 9.5,3 C9.5,3.25 10.5,4.25 10.5,4.25 C10.5,4.25 9.25,4.25 9,4.5 C8.75,4.75 8.75,6 8.75,6 C8.75,6 7.75,5 7.5,5 C7.25,5 6.25,6 6.25,6 C6.25,6 6.25,4.75 6,4.5 C5.75,4.25 4.5,4.25 4.5,4.25 C4.5,4.25 5.5,3.25 5.5,3 C5.5,2.75 4.5,1.75 4.5,1.75 C4.5,1.75 5.75,1.75 6,1.5 C6.25,1.25 6.25,0 6.25,0 C6.25,0 7.25,1 7.5,1 C7.75,1 8.75,0 8.75,0 z M7.5,1.75 C6.75,1.75 6.25,2.25 6.25,3 C6.25,3.75 6.75,4.25 7.5,4.25 C8.25,4.25 8.75,3.75 8.75,3 C8.75,2.25 8.25,1.75 7.5,1.75 z M7.5,4 C8.052,4 8.5,3.552 8.5,3 C8.5,2.448 8.052,2 7.5,2 C6.948,2 6.5,2.448 6.5,3 C6.5,3.552 6.948,4 7.5,4 z"/>
<path d="M5.139,5.292 C5.332,5.411 5.285,5.524 5.208,5.639 L4.208,7.139 C4.131,7.254 3.976,7.285 3.861,7.208 C3.746,7.131 3.715,6.976 3.792,6.861 C3.792,6.861 4.69,5.516 4.792,5.361 C4.875,5.236 5.047,5.236 5.139,5.292 z M10.208,5.361 C10.103,5.238 9.984,5.188 9.861,5.292 C9.738,5.396 9.715,5.524 9.792,5.639 L10.792,7.139 C10.869,7.254 11.024,7.285 11.139,7.208 C11.254,7.131 11.285,6.976 11.208,6.861 C11.208,6.861 10.312,5.484 10.208,5.361 z M7.5,6.25 C7.362,6.25 7.25,6.362 7.25,6.5 L7.25,8 C7.25,8.138 7.362,8.25 7.5,8.25 C7.638,8.25 7.75,8.138 7.75,8 L7.75,6.5 C7.75,6.362 7.638,6.25 7.5,6.25 z"/>
</svg>
