<?xml version="1.0" encoding="UTF-8"?>
<!DOCTYPE svg PUBLIC "-//W3C//DTD SVG 1.1//EN" "http://www.w3.org/Graphics/SVG/1.1/DTD/svg11.dtd">
<svg version="1.1" xmlns="http://www.w3.org/2000/svg" xmlns:xlink="http://www.w3.org/1999/xlink" x="0" y="0" width="15" height="15" viewBox="0 0 15 15">
<path d="M11,5.5 C12.5,5.5 14,6 14,7.5 C14,9 12.5,9.5 11,9.5 C9.5,9.5 8,9 8,7.5 C7.5,7.25 7.5,7.25 7,7.5 C7,9 5.5,9.5 4,9.5 C2.5,9.5 1,9 1,7.5 C1,6 2.5,5.5 4,5.5 C5.5,5.5 6.5,6 6.691,6.598 C7,6.25 8,6.25 8.309,6.598 C8.5,6 9.5,5.5 11,5.5 L11,5.5 z M11,6.75 C10.586,6.75 10.25,7.086 10.25,7.5 C10.25,7.914 10.586,8.25 11,8.25 C11.414,8.25 11.75,7.914 11.75,7.5 C11.75,7.086 11.414,6.75 11,6.75 z M4,6.75 C3.586,6.75 3.25,7.086 3.25,7.5 C3.25,7.914 3.586,8.25 4,8.25 C4.414,8.25 4.75,7.914 4.75,7.5 C4.75,7.086 4.414,6.75 4,6.75 z"/>
</svg>
