<?xml version="1.0" encoding="UTF-8"?>
<!DOCTYPE svg PUBLIC "-//W3C//DTD SVG 1.1//EN" "http://www.w3.org/Graphics/SVG/1.1/DTD/svg11.dtd">
<svg version="1.1" xmlns="http://www.w3.org/2000/svg" xmlns:xlink="http://www.w3.org/1999/xlink" x="0" y="0" width="15" height="15" viewBox="0 0 15 15">
    <path d="M7.5,15 C11.634,15 15,11.605 15,7.5 C15,3.395 11.654,0 7.5,0 C3.346,0 0,3.364 0,7.5 C0,11.636 3.366,15 7.5,15 z M7.5,13.929 C3.943,13.929 1.071,11.057 1.071,7.5 C1.071,3.943 3.943,1.071 7.5,1.071 C10.714,1.071 11.786,6.942 7.5,7.5 C3.214,8.058 4.377,13.929 7.5,13.929 z M7.5,11.786 C6.908,11.786 6.429,11.306 6.429,10.714 C6.429,10.123 6.908,9.643 7.5,9.643 C8.092,9.643 8.571,10.123 8.571,10.714 C8.571,11.306 8.092,11.786 7.5,11.786 z M7.5,5.357 C8.092,5.357 8.571,4.877 8.571,4.286 C8.571,3.694 8.092,3.214 7.5,3.214 C6.908,3.214 6.429,3.694 6.429,4.286 C6.429,4.877 6.908,5.357 7.5,5.357 z"/>
</svg>
