<?xml version="1.0" encoding="UTF-8"?>
<svg width="15px" height="15px" viewBox="0 0 15 15" version="1.1" xmlns="http://www.w3.org/2000/svg" xmlns:xlink="http://www.w3.org/1999/xlink">
    <path d="M8.55284676,2.02819199 C9.52672125,0.687768747 11.4028303,0.390622273 12.7432535,1.36449677 C12.9666574,1.52680918 13.0161818,1.83949402 12.8538694,2.06289789 C12.691557,2.28630176 12.3788721,2.33582618 12.1554682,2.17351376 C11.2618528,1.5242641 10.0111134,1.72236175 9.36186376,2.61597724 L14.6204742,6.43658138 C14.8438781,6.5988938 14.8934025,6.91157863 14.7310901,7.13498251 C14.5687777,7.35838638 14.2560928,7.40791079 14.032689,7.24559838 L13.6281805,6.95170575 L11.8648247,9.37875674 L11.4603162,9.08486411 L10.872531,9.8938811 L11.681548,10.4816664 C11.9049518,10.6439788 11.9544762,10.9566636 11.7921638,11.1800675 C11.6298514,11.4034714 11.3171666,11.4529958 11.0937627,11.2906834 L5.83515224,7.47007921 L5.24736699,8.27909621 L5.65187549,8.57298883 C5.87527936,8.73530125 5.92480377,9.04798608 5.76249136,9.27138995 L3.41135035,12.5074579 C3.24903793,12.7308618 2.9363531,12.7803862 2.71294923,12.6180738 L2.30844073,12.3241812 L1.72065548,13.1331982 L0.140576475,14.4573395 L0.911638482,12.5454129 L1.49942373,11.7363959 L1.09491524,11.4425033 C0.871511363,11.2801909 0.821986951,10.967506 0.984299366,10.7441022 L3.33544038,7.5080342 C3.49775279,7.28463032 3.81043762,7.23510591 4.0338415,7.39741833 L4.43835,7.69131095 L5.02613525,6.88229396 L3.40810126,5.70672345 L3.11420863,6.11123195 C2.95189622,6.33463583 2.63921138,6.38416024 2.41580751,6.22184782 L1.60679052,5.63406257 C1.38338664,5.47175015 1.33386223,5.15906532 1.49617464,4.93566145 L2.67174515,3.31762746 C2.83405756,3.09422358 3.1467424,3.04469917 3.37014627,3.20701159 L4.17916327,3.79479684 C4.40256714,3.95710925 4.45209155,4.26979409 4.28977914,4.49319796 L3.99588651,4.89770646 L5.6139205,6.07327696 L7.96506151,2.83720899 L7.56055301,2.54331636 C7.33714914,2.38100395 7.28762473,2.06831911 7.44993714,1.84491524 C7.61224956,1.62151136 7.92493439,1.57198695 8.14833826,1.73429937 L8.55284676,2.02819199 L8.55284676,2.02819199 Z M8.7740785,3.42499424 L6.42293749,6.66106222 L7.63646299,7.54274009 L8.22424824,6.7337231 L7.81973974,6.43983047 L9.5830955,4.01277949 L8.7740785,3.42499424 Z M12.0101465,5.77613525 L11.2011295,5.18835 L9.43777373,7.61540098 L9.03326523,7.32150835 L8.44547998,8.13052535 L10.063514,9.30609585 L10.6512992,8.49707886 L10.2467907,8.20318623 L12.0101465,5.77613525 L12.0101465,5.77613525 Z"></path>
</svg>
