<?xml version="1.0" encoding="UTF-8"?>
<svg width="15px" height="15px" viewBox="0 0 15 15" version="1.1" xmlns="http://www.w3.org/2000/svg" xmlns:xlink="http://www.w3.org/1999/xlink">
    <path d="M8.33554497,6.14886895 L11.9569058,14.2969308 C12.0690578,14.5492729 11.9554113,14.8447537 11.7030692,14.9569058 C11.4507271,15.0690578 11.1552463,14.9554113 11.0430942,14.7030692 L9.84173012,12 L5.15826988,12 L3.95690577,14.7030692 C3.84475373,14.9554113 3.54927286,15.0690578 3.29693077,14.9569058 C3.04458868,14.8447537 2.93094219,14.5492729 3.04309423,14.2969308 L6.22758483,7.1318269 L4.48527319,7.94428016 L3.21741841,5.2253568 L10.0147268,2.05571984 L11.2825816,4.7746432 L8.33554497,6.14886895 Z M7.5,6.73110723 L5.60271432,11 L9.39728568,11 L7.5,6.73110723 Z M10.2565716,1.39125681 L12.9754949,0.123402028 L14.665968,3.74863318 L11.9470446,5.01648796 L10.2565716,1.39125681 Z M0.256650282,7.15767461 L2.97557364,5.88981983 L3.82081017,7.7024354 L1.10188681,8.97029018 L0.256650282,7.15767461 Z"></path>
</svg>
