<?xml version="1.0" encoding="UTF-8"?>
<svg version="1.2" baseProfile="tiny" xmlns="http://www.w3.org/2000/svg" viewBox="0 0 50 50" overflow="inherit">
  <path d="M17 21h2.68c0.8 0 1.32 -1.18 1.32 -1.98v-8.44c0 -0.8 -0.51 -0.58 -1.32 -0.58h-2.68v11zm0 16h2.68c0.8 0 1.32 0.93 1.32 1.73v8.44c0 0.79 -0.51 1.83 -1.32 1.83h-2.68v-12zm-3.54 -8c-0.02 -7.72 1.43 -8 2.26 -8h0.28v-11h-0.34c-1.47 0 -8.66 2.42 -8.66 19.5c0 17.08 7.19 19.5 8.66 19.5h0.34v-12h-0.28c-0.83 0 -2.23 -0.29 -2.25 -8zm9.74 -16.62c0.49 0.58 0.75 1.32 0.75 2.08c0 0.76 -0.26 1.5 -0.75 2.08l1.6 1.31c0.78 -0.95 1.21 -2.16 1.21 -3.39c0 -1.24 -0.43 -2.44 -1.21 -3.39l-1.6 1.32zm5.13 9.26c1.74 -1.91 2.71 -4.39 2.71 -6.98c0 -2.58 -0.95 -5.05 -2.7 -6.96l-1.55 1.35c1.41 1.53 2.19 3.52 2.19 5.6c0 2.09 -0.78 4.09 -2.21 5.62l1.57 1.35zm3.53 3.79c2.71 -2.86 4.21 -6.61 4.21 -10.55c0 -3.93 -1.48 -7.67 -4.17 -10.53l-1.53 1.39c2.33 2.48 3.63 5.72 3.63 9.14c0 3.42 -1.29 6.68 -3.65 9.16l1.52 1.39zm3.55 3.79c3.66 -3.82 5.68 -8.84 5.68 -14.13c0 -5.27 -2 -10.28 -5.64 -14.09l-1.49 1.43c3.27 3.43 5.08 7.93 5.08 12.67c0 4.76 -1.81 9.27 -5.11 12.7l1.5 1.44z"/>
</svg>