<?xml version="1.0" encoding="UTF-8"?>
<svg version="1.2" baseProfile="tiny" xmlns="http://www.w3.org/2000/svg" viewBox="0 0 50 50" overflow="inherit">
  <path d="M5.81 24.21c-1.01 0 -1.84 0.83 -1.84 1.84c0 1.01 0.83 1.82 1.84 1.82c1.01 0 1.83 -0.81 1.83 -1.82c0 -1.01 -0.82 -1.83 -1.83 -1.83zm25.49 -15.26c2.19 0 3.98 -1.77 3.98 -3.97s-1.79 -3.98 -3.98 -3.98c-2.2 0 -3.99 1.78 -3.99 3.98c0 2.2 1.79 3.97 3.99 3.97zm17.13 35.41l-6.48 -7.63s-2.02 -11.77 -2.02 -11.8l-0.3 -1.33c0.01 0.01 -0.81 -3.71 -1.45 -6.63c1.01 0.58 1.92 1.1 1.97 1.13c0.05 0.11 3.43 6.53 3.43 6.53c0.26 0.48 0.69 0.83 1.2 0.98c0.52 0.16 1.07 0.11 1.55 -0.15c0.48 -0.24 0.83 -0.67 0.98 -1.19c0.17 -0.51 0.12 -1.06 -0.13 -1.53l-3.71 -7.05s-0.15 -0.25 -0.34 -0.45c-0.27 -0.27 -0.85 -0.59 -0.85 -0.59l-7.2 -4.09c-0.91 -0.46 -1.92 -0.62 -2.94 -0.4c-0.42 0.09 -0.8 0.24 -1.24 0.49c-0.05 0.01 -1.65 0.72 -2.57 2.88l-3.7 7.43l-5.83 1.13l-0.13 0.05l-5.27 -3.71c-1.18 -0.82 -1.33 -3.3 -1.34 -3.4c-0.14 -1.7 -1.12 -3.3 -2.68 -4.41c-1.41 -0.99 -3.12 -1.42 -4.68 -1.17c-1.22 0.21 -2.25 0.84 -2.91 1.76c-0.51 0.72 -0.78 1.58 -0.78 2.5l0.07 0.8c0.27 1.56 1.23 3.02 2.64 4.03c1.42 1.01 3.12 1.43 4.68 1.17l0.37 -0.07c0.04 -0.02 2.37 -0.74 3.52 0.04c0 0.01 3.94 2.78 4.99 3.52c-0.11 0.17 -0.3 0.55 -0.29 0.94c0 0.12 0.01 0.24 0.04 0.36c0.21 1.09 1.28 1.82 2.37 1.6l6.99 -1.36s0.6 -0.18 0.85 -0.36c0.33 -0.23 0.57 -0.71 0.57 -0.71l1.84 -3.69s1.27 5.96 1.29 6.07c-0.14 0.15 -5.73 6.06 -5.73 6.06l-0.21 0.12c-0.55 0.5 -0.97 1.15 -0.97 1.85v12.53c0 1.34 1.17 2.42 2.51 2.42c1.33 0 2.49 -1.08 2.49 -2.42v-10.46c1 -0.53 4.84 -5.04 5.99 -6.23c0.12 0.7 1.25 7.06 1.25 7.06c0.1 0.56 0.38 1.07 0.78 1.48c0 0.01 7.7 9.07 7.7 9.07c0.43 0.48 1.01 0.79 1.66 0.85c0.65 0.05 1.27 -0.16 1.77 -0.57c0.56 -0.47 0.85 -1.17 0.85 -1.85c0 -0.56 -0.18 -1.1 -0.57 -1.56zm-38.41 -27.31c-0.43 0.6 -1.08 0.98 -1.9 1.13c-1.14 0.19 -2.42 -0.13 -3.49 -0.91c-1.08 -0.77 -1.81 -1.86 -2.01 -3l-0.05 -0.57c0 -0.59 0.16 -1.13 0.49 -1.59c1.06 -1.48 3.48 -1.58 5.4 -0.22c1.91 1.36 2.62 3.68 1.56 5.16z"/>
</svg>