<?xml version="1.0" encoding="UTF-8"?>
<svg width="15px" height="15px" viewBox="0 0 15 15" version="1.1" xmlns="http://www.w3.org/2000/svg" xmlns:xlink="http://www.w3.org/1999/xlink">
    <path d="M2.5,13.75 C3.19035594,13.75 3.75,13.1903559 3.75,12.5 C3.75,11.8096441 3.19035594,11.25 2.5,11.25 C1.80964406,11.25 1.25,11.8096441 1.25,12.5 C1.25,13.1903559 1.80964406,13.75 2.5,13.75 Z M2.5,15 C1.11928813,15 0,13.8807119 0,12.5 C0,11.1192881 1.11928813,10 2.5,10 C3.88071187,10 5,11.1192881 5,12.5 C5,13.8807119 3.88071187,15 2.5,15 Z M4.5,8.75 C5.19035594,8.75 5.75,8.19035594 5.75,7.5 C5.75,6.80964406 5.19035594,6.25 4.5,6.25 C3.80964406,6.25 3.25,6.80964406 3.25,7.5 C3.25,8.19035594 3.80964406,8.75 4.5,8.75 Z M4.5,10 C3.11928813,10 2,8.88071187 2,7.5 C2,6.11928813 3.11928813,5 4.5,5 C5.88071187,5 7,6.11928813 7,7.5 C7,8.88071187 5.88071187,10 4.5,10 Z M12.5,3.75 C13.1903559,3.75 13.75,3.19035594 13.75,2.5 C13.75,1.80964406 13.1903559,1.25 12.5,1.25 C11.8096441,1.25 11.25,1.80964406 11.25,2.5 C11.25,3.19035594 11.8096441,3.75 12.5,3.75 Z M12.5,5 C11.1192881,5 10,3.88071187 10,2.5 C10,1.11928813 11.1192881,0 12.5,0 C13.8807119,0 15,1.11928813 15,2.5 C15,3.88071187 13.8807119,5 12.5,5 Z M6.5,3.75 C7.19035594,3.75 7.75,3.19035594 7.75,2.5 C7.75,1.80964406 7.19035594,1.25 6.5,1.25 C5.80964406,1.25 5.25,1.80964406 5.25,2.5 C5.25,3.19035594 5.80964406,3.75 6.5,3.75 Z M6.5,5 C5.11928813,5 4,3.88071187 4,2.5 C4,1.11928813 5.11928813,0 6.5,0 C7.88071187,0 9,1.11928813 9,2.5 C9,3.88071187 7.88071187,5 6.5,5 Z M10.5,8.75 C11.1903559,8.75 11.75,8.19035594 11.75,7.5 C11.75,6.80964406 11.1903559,6.25 10.5,6.25 C9.80964406,6.25 9.25,6.80964406 9.25,7.5 C9.25,8.19035594 9.80964406,8.75 10.5,8.75 Z M10.5,10 C9.11928813,10 8,8.88071187 8,7.5 C8,6.11928813 9.11928813,5 10.5,5 C11.8807119,5 13,6.11928813 13,7.5 C13,8.88071187 11.8807119,10 10.5,10 Z M8.5,13.75 C9.19035594,13.75 9.75,13.1903559 9.75,12.5 C9.75,11.8096441 9.19035594,11.25 8.5,11.25 C7.80964406,11.25 7.25,11.8096441 7.25,12.5 C7.25,13.1903559 7.80964406,13.75 8.5,13.75 Z M8.5,15 C7.11928813,15 6,13.8807119 6,12.5 C6,11.1192881 7.11928813,10 8.5,10 C9.88071187,10 11,11.1192881 11,12.5 C11,13.8807119 9.88071187,15 8.5,15 Z"></path>
</svg>
