<?xml version="1.0" encoding="UTF-8"?>
<!DOCTYPE svg PUBLIC "-//W3C//DTD SVG 1.1//EN" "http://www.w3.org/Graphics/SVG/1.1/DTD/svg11.dtd">
<svg version="1.1" xmlns="http://www.w3.org/2000/svg" xmlns:xlink="http://www.w3.org/1999/xlink" x="0" y="0" width="15" height="15" viewBox="0 0 15 15">
<path d="M10,-0 C11.657,0 13,3.5 13,7.5 C13,11.5 11.5,15 10,15 C8.5,15 7,11.5 7,7.5 C7,3.5 8.5,0 10,0 C11.5,-0 10,-0 10,-0 z M10,2 C9,2 8.5,4.5 8.5,7.5 C8.5,10.5 9,13 10,13 C11,13 11.5,10 11.5,7.5 C11.5,5 11,2 10,2 z M10,2.25 C10.75,2.25 11.25,5 11.25,7.5 C11.25,10 10.75,12.75 10,12.75 C9.5,12.75 9.25,12 9.25,11.75 C10,10.5 10,8 10,7.5 C10,7 10,4.5 9.25,3.25 C9.25,3 9.5,2.25 10,2.25 z M9,-0 L5,0 C3.5,-0 2,3.5 2,7.5 C2,11.5 3.5,15 5,15 C5,15 9,15 9,15 C7.5,14 6.5,11 6.5,7.5 C6.5,4 7.5,1 9,-0 z"/>
</svg>
