<?xml version="1.0" encoding="UTF-8"?>
<svg viewBox="0 0 15 15" version="1.1" xmlns="http://www.w3.org/2000/svg" xmlns:xlink="http://www.w3.org/1999/xlink">
  <path d="M14,3 L13,3 L13,4 L13.5,4 C13.7761424,4 14,4.22385763 14,4.5 L14,5.5 C14,5.77614237 13.7761424,6 13.5,6 L11.5,6 C11.2238576,6 11,5.77614237 11,5.5 L11,4.5 C11,4.22385763 11.2238576,4 11.5,4 L12,4 L12,3 L9,3 L9,4 L9.5,4 C9.77614237,4 10,4.22385763 10,4.5 L10,5.5 C10,5.77614237 9.77614237,6 9.5,6 L7.5,6 C7.22385763,6 7,5.77614237 7,5.5 L7,4.5 C7,4.22385763 7.22385763,4 7.5,4 L8,4 L8,3 L5,3 L5,4 L5.5,4 C5.77614237,4 6,4.22385763 6,4.5 L6,5.5 C6,5.77614237 5.77614237,6 5.5,6 L3.5,6 C3.22385763,6 3,5.77614237 3,5.5 L3,4.5 C3,4.22385763 3.22385763,4 3.5,4 L4,4 L4,3 L3,3 C2.44771525,3 2,3.44771525 2,4 L2,14 L0,14 L0,4 C-1.66533454e-16,2.34314575 1.34314575,1 3,1 L14,1 C14.5522847,1 15,1.44771525 15,2 C15,2.55228475 14.5522847,3 14,3 Z"/>
</svg>