<?xml version="1.0" encoding="UTF-8"?>
<!DOCTYPE svg PUBLIC "-//W3C//DTD SVG 1.1//EN" "http://www.w3.org/Graphics/SVG/1.1/DTD/svg11.dtd">
<svg version="1.1" xmlns="http://www.w3.org/2000/svg" xmlns:xlink="http://www.w3.org/1999/xlink" x="0" y="0" width="15" height="15" viewBox="0 0 15 15">
    <path d="M5.547,1.671 C5.801,1.986 5.989,2.328 6.109,2.697 C6.23,3.066 6.267,3.811 6.267,3.811 C6.267,3.811 6.173,4.548 6.027,4.9 C5.877,5.251 5.662,5.57 5.377,5.854 C5.191,6.04 4.5,6.5 4,6.5 C4,6.5 4,12 4,13.5 C4,15 2,15 2,13.5 C2,12.5 2,6.5 2,6.5 C1.5,6.5 1.11,5.999 0.932,5.827 C0.629,5.525 0.399,5.178 0.241,4.787 C0.083,4.395 0.002,4.002 0,3.604 C-0.002,3.207 0.071,2.817 0.221,2.432 C0.369,2.049 0.593,1.707 0.893,1.406 C1.181,1.119 1.513,0.897 1.893,0.74 C2.274,0.585 2.667,0.504 3.073,0.5 L1.796,3.282 L2.696,4.577 L4.25,4.443 z M15,0.5 L13.5,0.5 C13.5,1 13,1.5 12.5,1.5 C12,1.5 11.077,1.5 10,1.5 C8.5,1.5 7,3.553 7,5 C8,4.053 8.385,4 10,4 L10,13.5 C10,15 12,15 12,13.5 C12,12 12,4 12,4 L12.5,4 C13,4 13.5,4.5 13.5,5 L15,5 C15,5 15,0.5 15,0.5 z"/>
</svg>
