<?xml version="1.0" encoding="UTF-8"?>
<svg version="1.2" baseProfile="tiny" xmlns="http://www.w3.org/2000/svg" viewBox="0 0 50 50" overflow="inherit">
  <path d="M35.48 15.03c-0.25 0 -0.48 -0.17 -0.48 -0.41v-6.18c0 -0.24 -0.13 -0.44 -0.38 -0.44h-19.23c-0.25 0 -0.38 0.2 -0.38 0.44v6.18c0 0.24 -0.27 0.38 -0.52 0.38h-13.03c-0.25 0 -0.45 0.27 -0.45 0.51v6.87c0 0.24 0.2 0.62 0.45 0.62h20.99c0.25 0 0.56 -0.38 0.56 -0.62v-1.46c0 -0.24 0.09 -0.91 0.34 -0.91h3.32c0.25 0 0.34 0.67 0.34 0.91v1.47c0 0.24 0.32 0.62 0.56 0.62h20.99c0.25 0 0.45 -0.38 0.45 -0.62v-6.87c0 -0.24 -0.2 -0.51 -0.45 -0.51h-13.03l-0.03 0.03zm-17.39 -0.03c-0.25 0 -0.09 -0.13 -0.09 -0.38v-3.51c0 -0.24 -0.15 -0.11 0.09 -0.11h13.81c0.25 0 0.09 -0.13 0.09 0.11v3.51c0 0.24 0.16 0.38 -0.09 0.38h-13.81zm8.96 14.71c0 0.24 -0.15 0.29 -0.39 0.29h-3.32c-0.25 0 -0.34 0.11 -0.34 -0.13v-4.94c0 -0.24 -0.32 -0.93 -0.56 -0.93h-20.99c-0.25 0 -0.45 0.69 -0.45 0.93v14.63c0 0.24 0.2 0.44 0.45 0.44h47.1c0.25 0 0.45 -0.2 0.45 -0.44v-14.63c0 -0.24 -0.2 -0.93 -0.45 -0.93h-20.99c-0.25 0 -0.56 0.69 -0.56 0.93v4.94l0.06 -0.15z"/>
</svg>