<?xml version="1.0" encoding="UTF-8"?>
<!DOCTYPE svg PUBLIC "-//W3C//DTD SVG 1.1//EN" "http://www.w3.org/Graphics/SVG/1.1/DTD/svg11.dtd">
<svg version="1.1" xmlns="http://www.w3.org/2000/svg" xmlns:xlink="http://www.w3.org/1999/xlink" x="0" y="0" width="15" height="15" viewBox="0 0 15 15">
<path d="M10,3.15 L10,4.5 C10,5 9,5 9,4.5 C9,4.5 9,3 9,3 C9,3 8,3 8,3 C8,3 8.5,14.5 8.5,14.5 C8.5,15 6.5,15 6.5,14.5 C6.5,14.5 7,3 7,3 C7,3 6,3 6,3 C6,3 6,4.5 6,4.5 C6,5 5,5 5,4.5 L5,3.15 L4,3.5 L4,5.5 C4,6 3,6 3,5.5 C3,5.5 3,1.5 3,1.5 C3,1 4,1 4,1.5 C4,1.5 4,2.5 4,2.5 L5,2.15 C5,2.15 5,0.5 5,0.5 C5,0 6,0 6,0.5 C6,0.5 6,2 6,2 C6,2 7,2 7,2 C7,2 7,1 7,1 C7,0.5 8,0.5 8,1 C8,1 8,2 8,2 C8,2 9,2 9,2 C9,0.5 9,0.5 9,0.5 C9,0 10,0 10,0.5 C10,0.5 10,2.15 10,2.15 L11,2.5 C11,2.5 11,1.5 11,1.5 C11,1 12,1 12,1.5 C12,1.5 12,5.5 12,5.5 C12,6 11,6 11,5.5 L11,3.5 L10,3.15 z"/>
</svg>
