<?xml version="1.0" encoding="UTF-8"?>
<!DOCTYPE svg PUBLIC "-//W3C//DTD SVG 1.1//EN" "http://www.w3.org/Graphics/SVG/1.1/DTD/svg11.dtd">
<svg version="1.1" xmlns="http://www.w3.org/2000/svg" xmlns:xlink="http://www.w3.org/1999/xlink" x="0" y="0" width="15" height="15" viewBox="0 0 15 15">
    <path d="M6,5.5 L9,5.5 C9,5.5 9,13.5 9,14 C9,15 6,15 6,14 C6,13.5 6,5.5 6,5.5 z M10.5,2 L10,4 L8,4 L8,2 L10.5,2 z M7,2 L7,4 L5,4 L4.5,2 L7,2 z M9.5,0 L5.5,0 L5,1 L3,1 L4,5 L11,5 L12,1 L10,1 L9.5,0 z"/>
</svg>
