<?xml version="1.0" encoding="UTF-8"?>
<svg width="15px" height="15px" viewBox="0 0 15 15" version="1.1" xmlns="http://www.w3.org/2000/svg" xmlns:xlink="http://www.w3.org/1999/xlink">
    <path d="M7,4.16666667 L7,1 L9,-1.42108547e-14 L11,1 L13,-1.42108547e-14 L13,3 L11,4 L9,3 L8,3.5 L8,4.16666667 L13.5,6 L13.5,7 L1.5,7 L1.5,6 L7,4.16666667 Z M2.5,7.5 L12.5,7.5 L12.5,12 L13.5,13 L13.5,14 L1.5,14 L1.5,13 L2.5,12 L2.5,7.5 Z M4,8.5 L4,12.5 L5,12.5 L5,8.5 L4,8.5 Z M7,8.5 L7,12.5 L8,12.5 L8,8.5 L7,8.5 Z M10,8.5 L10,12.5 L11,12.5 L11,8.5 L10,8.5 Z"></path>
</svg>
