<?xml version="1.0" encoding="UTF-8"?>
<!DOCTYPE svg PUBLIC "-//W3C//DTD SVG 1.1//EN" "http://www.w3.org/Graphics/SVG/1.1/DTD/svg11.dtd">
<svg version="1.1" xmlns="http://www.w3.org/2000/svg" xmlns:xlink="http://www.w3.org/1999/xlink" x="0" y="0" width="15" height="15" viewBox="0 0 15 15">
    <path d="M9.214,0 C10.477,0 11.5,1.033 11.5,2.308 L11.5,12.692 C11.5,13.967 10.477,15 9.214,15 L5.786,15 C4.523,15 3.5,13.967 3.5,12.692 L3.5,2.308 C3.5,1.033 4.523,0 5.786,0 L9.214,0 z M7.5,10.5 C6.672,10.5 6,11.172 6,12 C6,12.829 6.672,13.5 7.5,13.5 C8.329,13.5 9,12.829 9,12 C9,11.172 8.329,10.5 7.5,10.5 z M7.5,6 C6.672,6 6,6.672 6,7.5 C6,8.329 6.672,9 7.5,9 C8.329,9 9,8.329 9,7.5 C9,6.672 8.329,6 7.5,6 z M7.5,1.5 C6.672,1.5 6,2.172 6,3 C6,3.829 6.672,4.5 7.5,4.5 C8.329,4.5 9,3.829 9,3 C9,2.172 8.329,1.5 7.5,1.5 z"/>
</svg>
