<?xml version="1.0" encoding="UTF-8"?>
<svg width="15px" height="15px" viewBox="0 0 15 15" version="1.1" xmlns="http://www.w3.org/2000/svg" xmlns:xlink="http://www.w3.org/1999/xlink">
    <path d="M5.5,13 L9.5,13 L9,12 L10.5,12 L12,15 L10.5,15 L10,14 L5,14 L4.5,15 L3,15 L4.5,12 L6,12 L5.5,13 Z M11,1 L13,1 C13.5522847,1 14,1.44771525 14,2 L14,4 C14.5522847,4 15,4.44771525 15,5 L15,10 C15,10.5522847 14.5522847,11 14,11 L14,13 L13,13 L13,11 C12.4477153,11 12,10.5522847 12,10 L12,5 C12,4.44771525 12.4477153,4 13,4 L13,2 L11,2 C11,2.55228475 10.5522847,3 10,3 L5,3 C4.44771525,3 4,2.55228475 4,2 L2,2 L2,4 C2.55228475,4 3,4.44771525 3,5 L3,10 C3,10.5522847 2.55228475,11 2,11 L2,13 L1,13 L1,11 C0.44771525,11 4.4408921e-16,10.5522847 4.4408921e-16,10 L4.4408921e-16,5 C4.4408921e-16,4.44771525 0.44771525,4 1,4 L1,2 C1,1.44771525 1.44771525,1 2,1 L4,1 C4,0.44771525 4.44771525,-3.65416674e-15 5,-3.55271368e-15 L10,-3.55271368e-15 C10.5522847,-3.45126062e-15 11,0.44771525 11,1 Z M10,4 C10.5522847,4 11,4.44771525 11,5 L11,10 C11,10.5522847 10.5522847,11 10,11 L5,11 C4.44771525,11 4,10.5522847 4,10 L4,5 C4,4.44771525 4.44771525,4 5,4 L10,4 Z M9.5,5 L5.5,5 C5.22385763,5 5,5.22385763 5,5.5 L5,7 C5,7.27614237 5.22385763,7.5 5.5,7.5 L9.5,7.5 C9.77614237,7.5 10,7.27614237 10,7 L10,5.5 C10,5.22385763 9.77614237,5 9.5,5 Z M5.75,8.5 C5.33578644,8.5 5,8.83578644 5,9.25 C5,9.66421356 5.33578644,10 5.75,10 C6.16421356,10 6.5,9.66421356 6.5,9.25 C6.5,8.83578644 6.16421356,8.5 5.75,8.5 Z M9.25,8.5 C8.83578644,8.5 8.5,8.83578644 8.5,9.25 C8.5,9.66421356 8.83578644,10 9.25,10 C9.66421356,10 10,9.66421356 10,9.25 C10,8.83578644 9.66421356,8.5 9.25,8.5 Z"></path>
</svg>
