<?xml version="1.0" encoding="UTF-8"?>
<svg width="15px" height="15px" viewBox="0 0 15 15" version="1.1" xmlns="http://www.w3.org/2000/svg" xmlns:xlink="http://www.w3.org/1999/xlink">
    <path d="M9,1 L9,2 C9.55228475,2 10,2.44771525 10,3 L10,3.87731452 C10.9144625,4.61037504 11.5,5.73680771 11.5,7 C11.5,7.69048727 11.3250447,8.34011154 11.0170459,8.90696099 L11.4427639,9.70518224 C11.7026626,10.1924923 11.5183092,10.7982247 11.0309992,11.0581234 C10.9814974,11.0845244 10.9298617,11.1067128 10.8766387,11.1244538 L7.5,12.25 L4.12336131,11.1244538 C3.599418,10.949806 3.31625801,10.383486 3.49090578,9.85954271 C3.50864679,9.80631968 3.5308352,9.754684 3.55723614,9.70518224 L3.98295414,8.90696099 C3.67495532,8.34011154 3.5,7.69048727 3.5,7 C3.5,5.73680771 4.08553752,4.61037504 5,3.87731452 L5,3 C5,2.44771525 5.44771525,2 6,2 L6,1 L5.5,1 C5.22385763,1 5,0.776142375 5,0.5 C5,0.223857625 5.22385763,-4.43581945e-14 5.5,-4.4408921e-14 L9.5,-4.4408921e-14 C9.77614237,-4.44596475e-14 10,0.223857625 10,0.5 C10,0.776142375 9.77614237,1 9.5,1 L9,1 Z M5.78571429,12.4285714 L5.5,13 L9.5,13 L9.21428571,12.4285714 L10.5,12 L12,15 L10.5,15 L10,14 L5,14 L4.5,15 L3,15 L4.5,12 L5.78571429,12.4285714 Z M7.5,8 C8.05228475,8 8.5,7.55228475 8.5,7 C8.5,6.44771525 8.05228475,6 7.5,6 C6.94771525,6 6.5,6.44771525 6.5,7 C6.5,7.55228475 6.94771525,8 7.5,8 Z"></path>
</svg>
