<?xml version="1.0" encoding="UTF-8"?>
<svg width="15px" height="15px" viewBox="0 0 15 15" version="1.1" xmlns="http://www.w3.org/2000/svg" xmlns:xlink="http://www.w3.org/1999/xlink">
    <path d="M5.75,12.5 L5.5,13 L9.5,13 L9.25,12.5 L10.75,12.5 L12,15 L10.5,15 L10,14 L5,14 L4.5,15 L3,15 L4.25,12.5 L5.75,12.5 Z M13,3 L13,10 C13,11.1045695 12.1045695,12 11,12 L4,12 C2.8954305,12 2,11.1045695 2,10 L2,3 C2,1.8954305 2.8954305,1 4,1 L11,1 C12.1045695,1 13,1.8954305 13,3 Z M9,9.5 C9,10.0522847 9.44771525,10.5 10,10.5 C10.5522847,10.5 11,10.0522847 11,9.5 C11,8.94771525 10.5522847,8.5 10,8.5 C9.44771525,8.5 9,8.94771525 9,9.5 Z M6,9.5 C6,8.94771525 5.55228475,8.5 5,8.5 C4.44771525,8.5 4,8.94771525 4,9.5 C4,10.0522847 4.44771525,10.5 5,10.5 C5.55228475,10.5 6,10.0522847 6,9.5 Z M2.99586097,3.50246795 L3.01066887,6.50246795 C3.01202713,6.77764367 3.23548371,7 3.51066278,7 L6.50734165,7 C6.78348403,7 7.00734165,6.77614237 7.00734165,6.5 C7.00734165,6.49917734 7.00733962,6.49835469 7.00733556,6.49753205 L6.99252766,3.49753205 C6.9911694,3.22235633 6.76771281,3 6.49253375,3 L3.49585488,3 C3.2197125,3 2.99585488,3.22385763 2.99585488,3.5 C2.99585488,3.50082266 2.99585691,3.50164531 2.99586097,3.50246795 Z M7.99586097,3.50246795 L8.01066887,6.50246795 C8.01202713,6.77764367 8.23548371,7 8.51066278,7 L11.5073417,7 C11.783484,7 12.0073417,6.77614237 12.0073417,6.5 C12.0073417,6.49917734 12.0073396,6.49835469 12.0073356,6.49753205 L11.9925277,3.49753205 C11.9911694,3.22235633 11.7677128,3 11.4925337,3 L8.49585488,3 C8.2197125,3 7.99585488,3.22385763 7.99585488,3.5 C7.99585488,3.50082266 7.99585691,3.50164531 7.99586097,3.50246795 Z"></path>
</svg>
