<?xml version="1.0" encoding="UTF-8"?>
<svg width="15px" height="15px" viewBox="0 0 15 15" version="1.1" xmlns="http://www.w3.org/2000/svg" xmlns:xlink="http://www.w3.org/1999/xlink">
    <path d="M5.75,12.5 L5.5,13 L9.5,13 L9.25,12.5 L10.75,12.5 L12,15 L10.5,15 L10,14 L5,14 L4.5,15 L3,15 L4.25,12.5 L5.75,12.5 Z M12.0656163,8.45354505 C10.425529,10.8178483 8.90365692,12 7.5,12 C6.09633836,12 4.57446075,10.8178404 2.93436718,8.45352118 L2.93437837,8.45351342 C2.36695951,7.6355361 2.24226933,6.58935836 2.60154062,5.66093216 C2.86718021,4.97446832 3,4.42082426 3,4 C3,3 4.34965237,1.77635684e-15 7.5,1.77635684e-15 C11.1293192,1.77635684e-15 12,3 12,4 C12,4.42082791 12.1328221,4.97447791 12.3984663,5.66095 L12.3984545,5.66095456 C12.7577288,6.58938353 12.6330383,7.6355655 12.0656163,8.45354505 Z M5.03912111,2.75833581 L5.83247062,4.6899602 C5.90950907,4.87753117 6.09220499,5 6.29498021,5 L8.7050096,5 C8.90778482,5 9.09048075,4.87753117 9.16751919,4.6899602 L9.96083373,2.75821711 C10.0289153,2.5924541 10.0030664,2.40293044 9.89308088,2.26145375 C9.23930209,1.42048458 8.44160677,1 7.49999491,1 C6.55836353,1 5.76065466,1.42050201 5.1068683,2.26150602 L5.10687831,2.2615138 C4.99688214,2.40300837 4.97103171,2.59255371 5.03912111,2.75833581 Z M7.5,11 C8.05228475,11 8.5,10.5522847 8.5,10 C8.5,9.44771525 8.05228475,9 7.5,9 C6.94771525,9 6.5,9.44771525 6.5,10 C6.5,10.5522847 6.94771525,11 7.5,11 Z"></path>
</svg>
