<?xml version="1.0" encoding="UTF-8"?>
<svg width="15px" height="15px" viewBox="0 0 15 15" version="1.1" xmlns="http://www.w3.org/2000/svg" xmlns:xlink="http://www.w3.org/1999/xlink">
    <path d="M5.78571429,12.4285714 L5.5,13 L9.5,13 L9.21428571,12.4285714 L10.5,12 L12,15 L10.5,15 L10,14 L5,14 L4.5,15 L3,15 L4.5,12 L5.78571429,12.4285714 Z M12,1.80217161 L12,5 L12.7071068,5.70710678 C12.8946432,5.89464316 13,6.14899707 13,6.41421356 L13,9.0786487 C13,9.48470595 12.7544579,9.85044904 12.3786328,10.0041957 L7.5,12 L2.62136715,10.0041957 C2.2455421,9.85044904 2,9.48470595 2,9.0786487 L2,6.41421356 C2,6.14899707 2.10535684,5.89464316 2.29289322,5.70710678 L3,5 L3,1.80217161 C3,1.33347296 3.32553199,0.927659559 3.78306954,0.825984546 L7.28306954,0.0482067684 C7.42594718,0.016456182 7.57405282,0.016456182 7.71693046,0.0482067684 L11.2169305,0.825984546 C11.674468,0.927659559 12,1.33347296 12,1.80217161 Z M4,2.42356354 L4,3.5 C4,3.77614237 4.22385763,4 4.5,4 L6.5,4 C6.77614237,4 7,3.77614237 7,3.5 L7,2.09023021 C7,1.81408784 6.77614237,1.59023021 6.5,1.59023021 C6.47245957,1.59023021 6.44496622,1.59250563 6.41780051,1.59703325 L4.41780051,1.93036658 C4.17670652,1.97054891 4,2.17914397 4,2.42356354 Z M8,2.09023021 L8,3.5 C8,3.77614237 8.22385763,4 8.5,4 L10.5,4 C10.7761424,4 11,3.77614237 11,3.5 L11,2.42356354 C11,2.17914397 10.8232935,1.97054891 10.5821995,1.93036658 L8.58219949,1.59703325 C8.30981433,1.55163572 8.05220056,1.73564556 8.00680304,2.00803072 C8.00227542,2.03519643 8,2.06268978 8,2.09023021 Z M7.5,8 C8.05228475,8 8.5,7.55228475 8.5,7 C8.5,6.44771525 8.05228475,6 7.5,6 C6.94771525,6 6.5,6.44771525 6.5,7 C6.5,7.55228475 6.94771525,8 7.5,8 Z"></path>
</svg>
