<?xml version="1.0" encoding="UTF-8"?>
<svg width="15px" height="15px" viewBox="0 0 15 15" version="1.1" xmlns="http://www.w3.org/2000/svg" xmlns:xlink="http://www.w3.org/1999/xlink">
    <path d="M8,1 L8,2 L9.5,2 L10.9142136,3.41421356 C11.2892863,3.78928632 11.5,4.29799415 11.5,4.82842712 L11.5,11 C11.5,12.1045695 10.6045695,13 9.5,13 L5.5,13 C4.3954305,13 3.5,12.1045695 3.5,11 L3.5,4.82842712 C3.5,4.29799415 3.71071368,3.78928632 4.08578644,3.41421356 L5.5,2 L7,2 L7,1 L5.5,1 C5.22385763,1 5,0.776142375 5,0.5 C5,0.223857625 5.22385763,1.42615812e-14 5.5,1.42108547e-14 L9.5,1.42108547e-14 C9.77614237,1.41601282e-14 10,0.223857625 10,0.5 C10,0.776142375 9.77614237,1 9.5,1 L8,1 Z M6.25,13.5 L5.5,15 L4,15 L4.75,13.5 L6.25,13.5 Z M10.25,13.5 L11,15 L9.5,15 L8.75,13.5 L10.25,13.5 Z M8.5,12 L9.5,12 C10.0522847,12 10.5,11.5522847 10.5,11 L10.5,10 C9.3954305,10 8.5,10.8954305 8.5,12 Z M6.5,12 C6.5,10.8954305 5.6045695,10 4.5,10 L4.5,11 C4.5,11.5522847 4.94771525,12 5.5,12 L6.5,12 Z M4.5,5.5 L4.5,8.5 C4.5,8.77614237 4.72385763,9 5,9 L10,9 C10.2761424,9 10.5,8.77614237 10.5,8.5 L10.5,5.5 C10.5,5.22385763 10.2761424,5 10,5 L5,5 C4.72385763,5 4.5,5.22385763 4.5,5.5 Z M5.5,3.5 C5.5,3.77614237 5.72385763,4 6,4 L9,4 C9.27614237,4 9.5,3.77614237 9.5,3.5 C9.5,3.22385763 9.27614237,3 9,3 L6,3 C5.72385763,3 5.5,3.22385763 5.5,3.5 Z"></path>
</svg>
