<?xml version="1.0" encoding="UTF-8"?>
<svg viewBox="0 0 15 15" version="1.1" xmlns="http://www.w3.org/2000/svg" xmlns:xlink="http://www.w3.org/1999/xlink">
  <path d="M14,8 L14,7.23606798 L13.381966,6 L1.61803399,6 L1,7.23606798 L1,8 L2.5,8 L2.5,6 L3.5,6 L3.5,8 L5,8 L5,6 L6,6 L6,10 L9,10 L9,6 L10,6 L10,8 L11.5,8 L11.5,6 L12.5,6 L12.5,8 L14,8 L14,8 Z M14,11 L13.5,11 C13.5,11.5522847 13.0522847,12 12.5,12 C11.9477153,12 11.5,11.5522847 11.5,11 L11,11 C11,11.5522847 10.5522847,12 10,12 C9.44771525,12 9,11.5522848 9,11 L6,11 C6,11.5522848 5.55228475,12 5,12 C4.44771525,12 4,11.5522847 4,11 L3.5,11 C3.5,11.5522847 3.05228475,12 2.5,12 C1.94771525,12 1.5,11.5522847 1.5,11 L1,11 C0.44771525,11 -4.37325672e-15,10.5522848 -4.4408921e-15,10 L2.22044605e-15,7.23606798 C2.40826202e-15,7.08082288 0.0361450918,6.92770982 0.105572809,6.78885438 L0.723606798,5.5527864 C0.892998812,5.21400238 1.23926193,5 1.61803399,5 L7.22436045,5 L5.53159293,3.08378716 C5.30306459,2.82509308 5.32751875,2.43012127 5.58621284,2.20159293 C5.59826064,2.19094999 5.61060403,2.18085575 5.62321241,2.17130831 C5.71486981,2.06632633 5.84968923,2 6,2 L9,2 C9.27614237,2 9.5,2.22385763 9.5,2.5 C9.5,2.77614237 9.27614237,3 9,3 L7.12546287,3 L8.89224732,5 L13.381966,5 C13.7607381,5 14.1070012,5.21400238 14.2763932,5.5527864 L14.8944272,6.78885438 C14.9638549,6.92770982 15,7.08082288 15,7.23606798 L15,10 C15,10.5522848 14.5522847,11 14,11 L14,11 Z M7,6 L8,6 L8,10 L7,10 L7,6 Z"/>
</svg>