<?xml version="1.0" encoding="UTF-8"?>
<!DOCTYPE svg PUBLIC "-//W3C//DTD SVG 1.1//EN" "http://www.w3.org/Graphics/SVG/1.1/DTD/svg11.dtd">
<svg version="1.1" xmlns="http://www.w3.org/2000/svg" xmlns:xlink="http://www.w3.org/1999/xlink" x="0" y="0" width="15" height="15" viewBox="0 0 15 15">
    <path d="M9.561,13.065 L10.288,15 L11.5,15 L10.773,13.065 z M4.212,13.065 L3.5,15 L4.712,15 L5.424,13.065 z M9.345,9.677 L8.483,10.645 L8.483,11.129 L10.207,11.129 L10.638,10.645 L10.638,9.677 L9.345,9.677 z M4.604,9.677 L4.604,10.645 L5.035,11.129 L6.759,11.129 L6.759,10.645 L5.897,9.677 L4.604,9.677 z M5.035,4.839 L4.604,5.323 L4.604,7.258 L5.897,7.258 L9.345,7.258 L10.638,7.258 L10.638,5.323 L10.207,4.839 L9.345,4.839 L5.897,4.839 L5.035,4.839 z M5.897,2.419 L5.897,3.387 L9.345,3.387 L9.345,2.419 L5.897,2.419 z M5.897,1.935 L9.345,1.935 L11.5,4.839 L11.5,11.613 L10.638,12.581 L4.604,12.581 L3.742,11.613 L3.742,4.839 L5.897,1.935 z M10.045,0 L10.045,0.484 L8.106,0.484 L8.106,1.452 L7.136,1.452 L7.136,0.484 L5.197,0.484 L5.197,0 z"/>
</svg>
