<?xml version="1.0" encoding="UTF-8"?>
<svg width="15px" height="15px" viewBox="0 0 15 15" version="1.1" xmlns="http://www.w3.org/2000/svg" xmlns:xlink="http://www.w3.org/1999/xlink">
    <path d="M2,3 L3.5,3 C3.77614237,3 4,3.22385763 4,3.5 C4,3.77614237 3.77614237,4 3.5,4 L2,4 L2,3 Z M2,2 L2,6 L5,6 L5,2 L2,2 Z M2,1 L5,1 C5.55228475,1 6,1.44771525 6,2 L6,6 C6,6.55228475 5.55228475,7 5,7 L2,7 C1.44771525,7 1,6.55228475 1,6 L1,2 C1,1.44771525 1.44771525,1 2,1 Z M2.85,7.5 L4.15,7.5 L4.15,14 L2.85,14 L2.85,7.5 Z"></path>
    <path d="M5,12 C5,11.4477153 5.44771525,11 6,11 L13,11 C13.5522847,11 14,11.4477153 14,12 L14,14 L13,14 L13,12 L6,12 L6,14 L5,14 L5,12 Z M7,8 L12,8 C12.5522847,8 13,8.44771525 13,9 L13,10.5 L6,10.5 L6,9 C6,8.44771525 6.44771525,8 7,8 Z"></path>
</svg>
