<?xml version="1.0" encoding="UTF-8"?>
<svg width="15px" height="15px" viewBox="0 0 15 15" version="1.1" xmlns="http://www.w3.org/2000/svg" xmlns:xlink="http://www.w3.org/1999/xlink">
    <path d="M13,3 L13,11 C13,12.1045695 12.1045695,13 11,13 L4,13 C2.8954305,13 2,12.1045695 2,11 L2,3 C2,1.8954305 2.8954305,1 4,1 L11,1 C12.1045695,1 13,1.8954305 13,3 Z M9,10.5 C9,11.0522847 9.44771525,11.5 10,11.5 C10.5522847,11.5 11,11.0522847 11,10.5 C11,9.94771525 10.5522847,9.5 10,9.5 C9.44771525,9.5 9,9.94771525 9,10.5 Z M6,10.5 C6,9.94771525 5.55228475,9.5 5,9.5 C4.44771525,9.5 4,9.94771525 4,10.5 C4,11.0522847 4.44771525,11.5 5,11.5 C5.55228475,11.5 6,11.0522847 6,10.5 Z M2.99586097,4.50246795 L3.01066887,7.50246795 C3.01202713,7.77764367 3.23548371,8 3.51066278,8 L6.50734165,8 C6.78348403,8 7.00734165,7.77614237 7.00734165,7.5 C7.00734165,7.49917734 7.00733962,7.49835469 7.00733556,7.49753205 L6.99252766,4.49753205 C6.9911694,4.22235633 6.76771281,4 6.49253375,4 L3.49585488,4 C3.2197125,4 2.99585488,4.22385763 2.99585488,4.5 C2.99585488,4.50082266 2.99585691,4.50164531 2.99586097,4.50246795 Z M7.99586097,4.50246795 L8.01066887,7.50246795 C8.01202713,7.77764367 8.23548371,8 8.51066278,8 L11.5073417,8 C11.783484,8 12.0073417,7.77614237 12.0073417,7.5 C12.0073417,7.49917734 12.0073396,7.49835469 12.0073356,7.49753205 L11.9925277,4.49753205 C11.9911694,4.22235633 11.7677128,4 11.4925337,4 L8.49585488,4 C8.2197125,4 7.99585488,4.22385763 7.99585488,4.5 C7.99585488,4.50082266 7.99585691,4.50164531 7.99586097,4.50246795 Z M4,2.49999446 C4,2.77613378 4.22385515,2.99998893 4.49999446,2.99998893 L10.4999848,2.99998893 C10.7761258,2.99998893 10.9999839,2.77613546 10.9999896,2.49999446 C10.9999954,2.22386086 10.7761495,2.00000572 10.5000159,2 C10.5000124,2 10.500009,2 10.5000055,2 L4.49999446,2 C4.22385515,2 4,2.22385515 4,2.49999446 Z"></path>
</svg>
