<?xml version="1.0" encoding="UTF-8"?>
<svg width="15px" height="15px" viewBox="0 0 15 15" version="1.1" xmlns="http://www.w3.org/2000/svg" xmlns:xlink="http://www.w3.org/1999/xlink">
    <path d="M13,3.5 L13,11.5 C13,12.6045695 12.1045695,13.5 11,13.5 L4,13.5 C2.8954305,13.5 2,12.6045695 2,11.5 L2,3.5 C2,2.3954305 2.8954305,1.5 4,1.5 L11,1.5 C12.1045695,1.5 13,2.3954305 13,3.5 Z M9,11 C9,11.5522847 9.44771525,12 10,12 C10.5522847,12 11,11.5522847 11,11 C11,10.4477153 10.5522847,10 10,10 C9.44771525,10 9,10.4477153 9,11 Z M6,11 C6,10.4477153 5.55228475,10 5,10 C4.44771525,10 4,10.4477153 4,11 C4,11.5522847 4.44771525,12 5,12 C5.55228475,12 6,11.5522847 6,11 Z M2.99586097,5.50246795 L3.01066887,8.50246795 C3.01202713,8.77764367 3.23548371,9 3.51066278,9 L6.50734165,9 C6.78348403,9 7.00734165,8.77614237 7.00734165,8.5 C7.00734165,8.49917734 7.00733962,8.49835469 7.00733556,8.49753205 L6.99252766,5.49753205 C6.9911694,5.22235633 6.76771281,5 6.49253375,5 L3.49585488,5 C3.2197125,5 2.99585488,5.22385763 2.99585488,5.5 C2.99585488,5.50082266 2.99585691,5.50164531 2.99586097,5.50246795 Z M7.99586097,5.50246795 L8.01066887,8.50246795 C8.01202713,8.77764367 8.23548371,9 8.51066278,9 L11.5073417,9 C11.783484,9 12.0073417,8.77614237 12.0073417,8.5 C12.0073417,8.49917734 12.0073396,8.49835469 12.0073356,8.49753205 L11.9925277,5.49753205 C11.9911694,5.22235633 11.7677128,5 11.4925337,5 L8.49585488,5 C8.2197125,5 7.99585488,5.22385763 7.99585488,5.5 C7.99585488,5.50082266 7.99585691,5.50164531 7.99586097,5.50246795 Z M4,3.49999446 C4,3.77613378 4.22385515,3.99998893 4.49999446,3.99998893 L10.4999848,3.99998893 C10.7761258,3.99998893 10.9999839,3.77613546 10.9999896,3.49999446 C10.9999954,3.22386086 10.7761495,3.00000572 10.5000159,3 C10.5000124,3 10.500009,3 10.5000055,3 L4.49999446,3 C4.22385515,3 4,3.22385515 4,3.49999446 Z"></path>
</svg>
