<?xml version="1.0" encoding="UTF-8" standalone="no"?>
<svg
   xmlns:dc="http://purl.org/dc/elements/1.1/"
   xmlns:cc="http://creativecommons.org/ns#"
   xmlns:rdf="http://www.w3.org/1999/02/22-rdf-syntax-ns#"
   xmlns:svg="http://www.w3.org/2000/svg"
   xmlns="http://www.w3.org/2000/svg"
   height="15"
   width="15"
   xml:space="preserve"
   viewBox="0 0 15 15.000001"
   y="0px"
   x="0px"
   id="Capa_1"
   version="1.1"><metadata
   id="metadata39"><rdf:RDF><cc:Work
       rdf:about=""><dc:format>image/svg+xml</dc:format><dc:type
         rdf:resource="http://purl.org/dc/dcmitype/StillImage" /><dc:title></dc:title></cc:Work></rdf:RDF></metadata><defs
   id="defs37" />
<path
   style="stroke-width:0.06561002"
   id="path2"
   d="M 13.600297,9.727877 C 13.302859,9.496462 13.080439,9.21124 12.939185,8.8800377 12.64733,8.1956706 12.576389,5.485383 12.600287,3.9378032 c 3.77e-4,-0.022305 -0.0012,-0.044403 -0.0035,-0.066365 C 12.516784,2.3961254 9.3696057,2 7.5000533,2 5.6308138,2 2.4843875,2.3959882 2.4034108,3.8707527 c -0.00232,0.022167 -0.00383,0.044471 -0.00345,0.067051 C 2.4238168,5.485383 2.3528768,8.1956706 2.0609587,8.8801065 1.9197669,9.211172 1.6973474,9.496393 1.3999727,9.727877 1.1526519,9.920312 1.0068811,10.220358 1.0002324,10.55115 c -0.006548,0.328457 0.1255487,0.632757 0.3625201,0.835005 l 0.1217474,0.103905 c 0.1640233,0.140003 0.3688174,0.217073 0.5766849,0.217073 0.2624374,0 0.5154034,-0.121268 0.6940416,-0.332782 0.2407976,-0.284946 0.7158068,-0.763015 1.1921958,-0.763015 0.032115,0 0.06423,0.0023 0.095466,0.0067 0.071693,0.01015 0.084364,0.03122 0.091954,0.04371 0.053379,0.08832 0.100923,0.403813 -0.058835,1.026206 -0.1398117,0.544776 0.1506005,1.115151 0.6473122,1.271556 C 4.8085608,12.986344 4.8966878,13 4.985066,13 c 0.4378768,0 0.8142838,-0.323654 0.9153949,-0.787173 0.1770697,-0.81236 0.834857,-1.379713 1.5995257,-1.379713 0.764669,0 1.4224558,0.567353 1.599589,1.379713 0.1010478,0.463451 0.477455,0.787104 0.9153944,0.787104 0.08838,0 0.176444,-0.01366 0.261748,-0.04049 0.496837,-0.156406 0.787186,-0.726916 0.647249,-1.271623 -0.159758,-0.622257 -0.112087,-0.937813 -0.05884,-1.026138 0.0075,-0.01257 0.02026,-0.03357 0.09189,-0.04371 0.0313,-0.0045 0.06347,-0.0067 0.09553,-0.0067 0.476388,0 0.95146,0.478 1.192196,0.762946 0.178701,0.211513 0.431666,0.33285 0.694041,0.33285 h 6.2e-5 c 0.207806,0 0.4126,-0.07707 0.576686,-0.217073 l 0.121748,-0.103904 c 0.23697,-0.20218 0.36913,-0.50648 0.362482,-0.834938 -0.0066,-0.330654 -0.152169,-0.630767 -0.39949,-0.823272 z M 7.50007,3.0423763 c 2.581972,0 3.296389,0.3720265 3.499927,0.6628756 -5.5e-4,8.36e-4 6.46e-4,-8.377e-4 0,0 -0.52708,0.8461538 -2.1195165,0.8106623 -3.5218261,0.8461538 -1.4696075,-0.1075921 -2.8503985,0 -3.4781717,-0.8461538 -6.26e-4,-8.36e-4 5.74e-4,8.377e-4 0,0 C 4.2034635,3.41446 4.9181561,3.042391 7.5000662,3.042391 Z" />
<g
   transform="translate(0,-192.25993)"
   id="g4">
</g>
<g
   transform="translate(0,-192.25993)"
   id="g6">
</g>
<g
   transform="translate(0,-192.25993)"
   id="g8">
</g>
<g
   transform="translate(0,-192.25993)"
   id="g10">
</g>
<g
   transform="translate(0,-192.25993)"
   id="g12">
</g>
<g
   transform="translate(0,-192.25993)"
   id="g14">
</g>
<g
   transform="translate(0,-192.25993)"
   id="g16">
</g>
<g
   transform="translate(0,-192.25993)"
   id="g18">
</g>
<g
   transform="translate(0,-192.25993)"
   id="g20">
</g>
<g
   transform="translate(0,-192.25993)"
   id="g22">
</g>
<g
   transform="translate(0,-192.25993)"
   id="g24">
</g>
<g
   transform="translate(0,-192.25993)"
   id="g26">
</g>
<g
   transform="translate(0,-192.25993)"
   id="g28">
</g>
<g
   transform="translate(0,-192.25993)"
   id="g30">
</g>
<g
   transform="translate(0,-192.25993)"
   id="g32">
</g>
</svg>