<?xml version="1.0" encoding="UTF-8"?>
<svg version="1.1" xmlns="http://www.w3.org/2000/svg" xmlns:xlink="http://www.w3.org/1999/xlink" viewBox="0 0 15 15">
  <path d="M6.5 14C6.5 13.5 6.5 10 6.5 10C6.5 8.5 6.5 7.5 2.5 7C0.5 6.5 3.75 6.75 3.75 6.75C3.75 6.75 2.5 5.5 3 5.5C4 6.5 6 7 6 7C5.5 5.5 4 4.75 1.5 3C3 3.25 4.5 4 4.5 4C4.5 4 4.5 3 5 1C5.25 2.5 5.5 4.5 5.5 4.5C5.5 4.5 6.25 5.25 6.25 5.25C6.25 5.25 7 3.5 7.5 3C7.5 4 7.25 5.25 7 6C7.5 7 7.5 7.5 7.5 7.5C9 5.5 9 4.5 9 1.5C9.79 2.28 10 4.5 10 4.5C10 4.5 11 3.5 12.5 3.5C9.5 6 9 7.5 9 7.5C9 7.5 11.75 7 11.75 7C11.75 7 12.5 5.75 12.5 6C12.5 6.25 12.25 7 12.25 7C12.25 7 13 7 13 7C13 7 12.75 7.5 12.75 7.5C12.75 7.5 11.75 7.5 11.75 7.5C9.25 8.75 8.5 9 8.5 10.5C8.5 11 8.5 13.47 8.5 14C8.5 14.5 6.5 14.47 6.5 14z"/>
</svg>