<?xml version="1.0" encoding="UTF-8"?>
<svg version="1.1" xmlns="http://www.w3.org/2000/svg" xmlns:xlink="http://www.w3.org/1999/xlink" viewBox="0 0 15 15">
  <path d="M7.25 5.25C7.25 5.25 6 6.5 5.5 8.5C4.5 7.5 6 5 6 5C6 5 4 6 2.5 7C2.5 5.5 5.5 4 5.5 4C5.5 4 3 4 1 4.5C1.5 3 6 3 6 3C6 3 5 2 3 1.5C5 0.5 7.5 2.75 7.5 2.75C7.5 2.75 9 1 11.5 1C10 2 9 3 9 3C9 3 13 3.5 13.5 5.5C11.5 4.5 9 4 9 4C9 4 11.5 6 11.5 7.5C10.5 6.5 8.5 5 8.5 5C8.5 5 9 7.5 9 9C9 10.5 9 11.5 8.5 13.5C8.5 14 6.5 14 6.5 13.5C7 12 7.5 11 7.5 9C7.5 7 7.25 5.25 7.25 5.25z"/>
</svg>