<?xml version="1.0" encoding="UTF-8"?>
<svg xmlns="http://www.w3.org/2000/svg" viewBox="0 0 15 15">
  <path d="M9.43 10.43a0.27 0.27 0 0 1 -0.07 -0.18A0.25 0.25 0 0 1 9.6 10h1.45a0.25 0.25 0 0 0 0.25 -0.25a0.26 0.26 0 0 0 -0.08 -0.18L9.07 7.42a0.3 0.3 0 0 1 -0.06 -0.17A0.25 0.25 0 0 1 9.26 7H10.4a0.25 0.25 0 0 0 0.25 -0.25a0.25 0.25 0 0 0 -0.08 -0.18L8.43 4.43L8.42 4.42a0.26 0.26 0 0 1 -0.07 -0.17A0.25 0.25 0 0 1 8.6 4h0.87a0.25 0.25 0 0 0 0.25 -0.25a0.25 0.25 0 0 0 -0.07 -0.16h0.01L7.7 1.24a0.25 0.25 0 0 0 -0.04 -0.04A0.25 0.25 0 0 0 7.5 1.14h0a0.25 0.25 0 0 0 -0.16 0.06a0.25 0.25 0 0 0 -0.04 0.04L5.35 3.59a0.25 0.25 0 0 0 -0.07 0.16a0.25 0.25 0 0 0 0.25 0.25H6.4a0.24 0.24 0 0 1 0.18 0.42l-0.01 0.01L4.43 6.57a0.25 0.25 0 0 0 -0.08 0.18A0.25 0.25 0 0 0 4.6 7H5.75a0.25 0.25 0 0 1 0.25 0.25a0.3 0.3 0 0 1 -0.06 0.17L3.78 9.57A0.26 0.26 0 0 0 3.7 9.75a0.25 0.25 0 0 0 0.25 0.25H5.4a0.25 0.25 0 0 1 0.25 0.25a0.27 0.27 0 0 1 -0.07 0.18l-2.14 2.13l-0.01 0.01a0.25 0.25 0 0 0 0 0.35A0.26 0.26 0 0 0 3.61 13H7v1l1 -0.01V13h3.39a0.26 0.26 0 0 0 0.26 -0.25a0.25 0.25 0 0 0 -0.07 -0.18Z"/>
</svg>