<?xml version="1.0" encoding="UTF-8"?>
<svg version="1.1" xmlns="http://www.w3.org/2000/svg" xmlns:xlink="http://www.w3.org/1999/xlink" viewBox="0 0 15 15">
  <path d="M7.5 5.5C7.5 5.5 7 6.5 6.5 7.5C6 6.5 6.5 5 6.5 5C6.5 5 5 6 4 6.5C4.5 5 6 4 6 4C6 4 5 4 3 4.5C4 3 6.5 3 6.5 3C6.5 3 6 2.5 5 1.5C7 1.5 7.5 2.5 7.5 2.5C7.5 2.5 8.5 1.5 10.5 1.5C9.5 2.5 9 3 9 3C9 3 11 3.5 12 5C10.5 4.5 9 4 9 4C9 4 10.54 5.5 10.5 6.5C9.5 5.5 8.5 5 8.5 5C8.5 5.5 9 7.5 9 9C9 10.5 9 10.5 8.5 13.5C8.5 14 7 14 7 13.5C7.5 11.5 8 10.5 8 9C8 7 7.5 5.5 7.5 5.5z"/>
</svg>