<?xml version="1.0" encoding="UTF-8"?>
<svg version="1.1" xmlns="http://www.w3.org/2000/svg" xmlns:xlink="http://www.w3.org/1999/xlink" viewBox="0 0 15 15">
  <path d="M6.5 14.5C6.5 14 6.5 11 6.5 11C6.5 10 6.5 9.75 5.5 9.25C4.75 8.9 1.5 8 1.5 8C1.5 8 1 6.5 1 6.5C1 6.5 6.6 8 6.6 8C6.6 8 6.6 6.75 6.6 6.75C6.6 6 6.5 6 6 5.75C5.5 5.5 3 4.25 3 4.25C3 4.25 2.75 3 2.75 3C2.75 3 6.75 4.5 6.75 4.5C6.75 4.5 6.9 1.25 6.9 1.25C6.9 1.25 7.75 0.25 7.75 0.25C7.75 0.25 8 2 8 2C8 2 8.25 4.5 8.25 4.5C8.25 4.5 12.25 3 12.25 3C12.25 3 12 4.25 12 4.25C12 4.25 9.5 5.5 9 5.75C8.5 6 8.4 6 8.4 6.75C8.4 6.75 8.4 8 8.4 8C8.4 8 14 6.5 14 6.5C14 6.5 13.5 8 13.5 8C13.5 8 9.75 8.9 9.25 9.25C8.5 9.75 8.5 10 8.5 11C8.5 11 8.5 13.9 8.5 14.5C8.5 15 6.5 15 6.5 14.5z"/>
</svg>