<?xml version="1.0" encoding="UTF-8"?>
<svg width="15px" height="15px" viewBox="0 0 15 15" version="1.1" xmlns="http://www.w3.org/2000/svg" xmlns:xlink="http://www.w3.org/1999/xlink">
    <path d="M4,10.9443577 L4,14 L3,14 L3,10.9500178 C1.92657352,10.7258818 1.12026271,9.77422663 1.12026271,8.63424752 C1.12026271,8.50208702 1.13133726,8.37015893 1.15337013,8.23984795 C1.96943171,3.4132821 2.77046984,1 3.5564748,1 C4.34213456,1 5.10883051,3.41116287 5.85656266,8.2334886 L5.85660386,8.23348221 C6.05195007,9.49332244 5.22894332,10.6760098 4,10.9443577 Z M6,11 L14,11 L14,14 L13,14 L13,12 L7,12 L7,14 L6,14 L6,11 Z M7,8 L13,8 L13,10.5 L7,10.5 L7,8 Z"></path>
</svg>
