<?xml version="1.0" encoding="UTF-8"?>
<!DOCTYPE svg PUBLIC "-//W3C//DTD SVG 1.1//EN" "http://www.w3.org/Graphics/SVG/1.1/DTD/svg11.dtd">
<svg version="1.1" xmlns="http://www.w3.org/2000/svg" xmlns:xlink="http://www.w3.org/1999/xlink" x="0" y="0" width="15" height="15" viewBox="0, 0, 15, 15">
    <path d="M4.538,2 C3.385,2 2,2.595 2,4.197 L2,8.559 L2,11.6 C2,11.6 2,12.4 2.846,12.4 L2.846,13.2 C2.846,13.2 2.846,14 3.692,14 C4.538,14 4.538,13.2 4.538,13.2 L4.538,12.4 L10.462,12.4 L10.462,13.2 C10.462,13.2 10.462,14 11.308,14 C12.154,14 12.154,13.2 12.154,13.2 L12.154,12.4 C12.154,12.4 13,12.4 13,11.6 L13,4.197 C13,2.56 11.954,2 10.8,2 L4.538,2 z M4.75,3.2 L10.25,3.2 C10.367,3.2 10.462,3.289 10.462,3.4 C10.462,3.511 10.367,3.6 10.25,3.6 L4.75,3.6 C4.633,3.6 4.538,3.511 4.538,3.4 C4.538,3.289 4.633,3.2 4.75,3.2 z M3.692,4.4 L11.308,4.4 C12.154,4.4 12.154,5.173 12.154,5.173 L12.154,7.6 C12.154,7.6 12.154,8.4 11.308,8.4 L3.692,8.4 C2.846,8.4 2.846,7.6 2.846,7.6 L2.846,5.2 C2.846,5.2 2.846,4.4 3.692,4.4 z M3.692,10 C4.16,10 4.538,10.358 4.538,10.8 C4.538,11.242 4.16,11.6 3.692,11.6 C3.225,11.6 2.846,11.242 2.846,10.8 C2.846,10.358 3.225,10 3.692,10 z M11.308,10 C11.775,10 12.154,10.358 12.154,10.8 C12.154,11.242 11.775,11.6 11.308,11.6 C10.84,11.6 10.462,11.242 10.462,10.8 C10.462,10.358 10.84,10 11.308,10 z M10,0 L10,0.5 L8,0.5 L8,1.5 L7,1.5 L7,0.5 L5,0.5 L5,0 z" fill="#000000" id="trolleybus"/>
</svg>
