<?xml version="1.0" encoding="UTF-8"?>
<svg width="15px" height="15px" viewBox="0 0 15 15" version="1.1" xmlns="http://www.w3.org/2000/svg" xmlns:xlink="http://www.w3.org/1999/xlink">
    <path d="M8,1 L8,2 L11,2 C12.1045695,2 13,2.8954305 13,4 L13,12 C13,13 12,13 12,13 L12,14 C12,14 12,15 11,15 C10,15 10,14 10,14 L10,13 L5,13 L5,14 C5,14 5,15 4,15 C3,15 3,14 3,14 L3,13 C2,13 2,12 2,12 L2,8.1992 L2,4 C2,2.8954305 2.8954305,2 4,2 L7,2 L7,1 L4.5,1 C4.22385763,1 4,0.776142375 4,0.5 C4,0.223857625 4.22385763,1.24852244e-14 4.5,1.24344979e-14 L10.5,1.24344979e-14 C10.7761424,1.23837713e-14 11,0.223857625 11,0.5 C11,0.776142375 10.7761424,1 10.5,1 L8,1 Z M3.5,5 C3.22385763,5 3,5.22385763 3,5.5 L3,8.5 C3,8.77614237 3.22385763,9 3.5,9 L11.5,9 C11.7761424,9 12,8.77614237 12,8.5 L12,5.5 C12,5.22385763 11.7761424,5 11.5,5 L3.5,5 Z M4,10 C3.4477,10 3,10.4477 3,11 C3,11.5523 3.4477,12 4,12 C4.5523,12 5,11.5523 5,11 C5,10.4477 4.5523,10 4,10 Z M11,10 C10.4477,10 10,10.4477 10,11 C10,11.5523 10.4477,12 11,12 C11.5523,12 12,11.5523 12,11 C12,10.4477 11.5523,10 11,10 Z M4,3.5 C4,3.77614237 4.22385763,4 4.5,4 L10.5,4 C10.7761424,4 11,3.77614237 11,3.5 C11,3.22385763 10.7761424,3 10.5,3 L4.5,3 C4.22385763,3 4,3.22385763 4,3.5 Z"></path>
</svg>
