<?xml version="1.0" encoding="UTF-8"?>
<!DOCTYPE svg PUBLIC "-//W3C//DTD SVG 1.1//EN" "http://www.w3.org/Graphics/SVG/1.1/DTD/svg11.dtd">
<svg version="1.1" xmlns="http://www.w3.org/2000/svg" xmlns:xlink="http://www.w3.org/1999/xlink" x="0" y="0" width="15" height="15" viewBox="0 0 15 15">
<path d="M2.75,9.75 C2,9.75 1.5,10.25 1.5,11 C1.5,11.75 2,12.25 2.75,12.25 C3.5,12.25 4,11.75 4,11 C4,10.25 3.5,9.75 2.75,9.75 z M11.75,9.75 C11,9.75 10.5,10.25 10.5,11 C10.5,11.75 11,12.25 11.75,12.25 C12.5,12.25 13,11.75 13,11 C13,10.25 12.5,9.75 11.75,9.75 z M14.5,3 C14.5,3 5.5,3 5.5,3 C4.91,3 5,3.5 5,3.5 C5,3.5 5,7 5,7 L4.25,7 L4.25,4.5 C4.25,4 3.75,4 3.75,4 C3.75,4 2,4 2,4 C0.5,4 0.5,6 0.5,7 C0.5,7 0,7 0,7.5 C-0,7.5 0,11 0,11 L1,11 C1,9.75 1.75,9.25 2.75,9.25 C3.75,9.25 4.5,9.75 4.5,11 C4.5,11 10,11 10,11 C10,9.75 10.75,9.25 11.75,9.25 C12.75,9.25 13.5,9.75 13.5,11 C13.5,11 15,11 15,11 C15,11 15,3.5 15,3.5 C15,3.5 15,3 14.5,3 z M3,5 L3,7 C3,7 1.5,7 1.5,7 C1.5,6 1.5,5 2,5 C2,5 3,5 3,5 z"/>
</svg>
