<?xml version="1.0" encoding="UTF-8"?>
<svg width="15px" height="15px" viewBox="0 0 15 15" version="1.1" xmlns="http://www.w3.org/2000/svg" xmlns:xlink="http://www.w3.org/1999/xlink">
    <path d="M4.5,3 L10.5,3 C12.9852814,3 15,5.01471863 15,7.5 L15,11.5 C15,11.7761424 14.7761424,12 14.5,12 L0.5,12 C0.223857625,12 1.01487248e-15,11.7761424 0,11.5 L0,7.5 C-3.04359188e-16,5.01471863 2.01471863,3 4.5,3 Z M4.5,4 C2.56700338,4 1,5.56700338 1,7.5 L1,11 L8,11 L8,7.5 C8,5.56700338 6.43299662,4 4.5,4 Z M4.5,5 C5.88071187,5 7,6.11928813 7,7.5 L7,11 L2,11 L2,7.5 C2,6.11928813 3.11928813,5 4.5,5 Z"></path>
</svg>
