<?xml version="1.0" encoding="UTF-8"?>
<svg width="15px" height="15px" viewBox="0 0 15 15" version="1.1" xmlns="http://www.w3.org/2000/svg" xmlns:xlink="http://www.w3.org/1999/xlink">
    <path d="M14,7.5 L14,11 L1,11 L1,7.5 C1,5.56700338 2.56700338,4 4.5,4 L10.5,4 C12.4329966,4 14,5.56700338 14,7.5 Z M6,10 L7,10 L7,7.5 C7,6.11928813 5.88071187,5 4.5,5 C3.11928813,5 2,6.11928813 2,7.5 L2,10 L3,10 L3,7.5 C3,6.67157288 3.67157288,6 4.5,6 C5.32842712,6 6,6.67157288 6,7.5 L6,10 L6,10 Z"></path>
</svg>
