<?xml version="1.0" encoding="UTF-8"?>
<!DOCTYPE svg PUBLIC "-//W3C//DTD SVG 1.1//EN" "http://www.w3.org/Graphics/SVG/1.1/DTD/svg11.dtd">
<svg version="1.1" xmlns="http://www.w3.org/2000/svg" xmlns:xlink="http://www.w3.org/1999/xlink" x="0" y="0" width="15" height="15" viewBox="0 0 15 15">
<path d="M6.5,3.5 C6.5,3.5 6.5,2 6.5,2 C6.5,1 8.5,1 8.5,2 L8.5,3.5 C8.5,3.5 14,3.5 14,3.5 C14.5,3.5 14.5,5 14,5 C14,5 8.5,5 8.5,5 C8.5,5 8.5,14 8.5,14 C8.5,15 6.5,15 6.5,14 C6.5,14 6.5,5 6.5,5 C6.5,5 1,5 1,5 C0.5,5 0.5,3.5 1,3.5 C1,3.5 6.5,3.5 6.5,3.5 z M11,2 C11,2 13,2 13,2 C13.5,2 13.5,3 13,3 C13,3 11,3 11,3 C10.5,3 10.5,2 11,2 z M2,2 C2,2 4,2 4,2 C4.5,2 4.5,3 4,3 C4,3 2,3 2,3 C1.5,3 1.5,2 2,2 z"/>
</svg>
