<?xml version="1.0" encoding="UTF-8"?>
<svg width="15px" height="15px" viewBox="0 0 15 15" version="1.1" xmlns="http://www.w3.org/2000/svg" xmlns:xlink="http://www.w3.org/1999/xlink">
    <path d="M4,6 L4,14 L0,14 L0,3 C-1.3527075e-16,1.8954305 0.8954305,1 2,1 C3.1045695,1 4,1.8954305 4,3 L4,4 L5.25605856,4 C5.87381317,2.25221144 7.54067176,1 9.5,1 C11.9852814,1 14,3.01471863 14,5.5 L14,9.5 L12,9.5 L12,5.5 C12,4.11928813 10.8807119,3 9.5,3 C8.68209108,3 7.95592007,3.39277665 7.49981691,4 L8,4 C9.65685425,4 11,5.34314575 11,7 L11,11 C11,12.6568542 9.65685425,14 8,14 C6.34314575,14 5,12.6568542 5,11 L5,6 L4,6 Z M12,10 L14,10 L14,12 L15,13 L15,14 L11,14 L11,13 L12,12 L12,10 Z M7,11 C7,11.5522847 7.44771525,12 8,12 C8.55228475,12 9,11.5522847 9,11 L9,7 C9,6.44771525 8.55228475,6 8,6 L7,6 L7,11 Z"></path>
</svg>
