<?xml version="1.0" encoding="UTF-8"?>
<!DOCTYPE svg PUBLIC "-//W3C//DTD SVG 1.1//EN" "http://www.w3.org/Graphics/SVG/1.1/DTD/svg11.dtd">
<svg version="1.1" xmlns="http://www.w3.org/2000/svg" xmlns:xlink="http://www.w3.org/1999/xlink" x="0" y="0" width="15" height="15" viewBox="0 0 15 15">
<path d="M13.5,1 C14,1 14,1.4 14,1.4 C14,1.4 14,1.8 13.5,1.8 L12.5,1.8 C11,4.4 11,4.4 10.084,6.082 C10.5,6.5 10,8 9.5,9 C8.793,10.414 8,11.5 7.378,11.345 C8,11.5 8,12 8,12.5 C8,13 8,14 7.5,14 L7.3,14 C7.286,14.219 7,14.5 6.5,14.5 C6,14.5 5.698,14.219 5.7,14 L3.5,14 C3.435,14.395 3.062,14.5 2.75,14.5 C2.469,14.5 2.075,14.369 2,14 L1.5,14 C0.5,14 0.5,13 1,12.5 C1.5,12 2.015,12 3,12 C3.5,12 4,11 5.5,11 L5.5,11 L6,11 C5.5,10.5 6.194,9.112 7,7.5 C7.5,6.5 8,5.51 9.456,5.75 C12,1.01 12,1 12.5,1 L13.5,1 z"/>
</svg>
