<?xml version="1.0" encoding="UTF-8"?>
<svg width="15px" height="15px" viewBox="0 0 15 15" version="1.1" xmlns="http://www.w3.org/2000/svg" xmlns:xlink="http://www.w3.org/1999/xlink">
    <path d="M7,11 C7.66666667,11.6666667 7.66666667,12.3333333 7,13 C6.33333333,13.6666667 5,14 3,14 L1,14 C0.44771525,14 -9.5688059e-13,13.5522847 -9.56948225e-13,13 L-3.93278075e-15,11 L2.82443828,3.46816459 C2.93003986,3.18656036 3.19924655,3 3.5,3 C3.80075345,3 4.06996014,3.18656036 4.17556172,3.46816459 L7,11 Z M7.25,11 L10.8244383,1.46816459 C10.9300399,1.18656036 11.1992466,1 11.5,1 C11.8007534,1 12.0699601,1.18656036 12.1755617,1.46816459 L15,9 L15,13 C15,13.5522847 14.5522847,14 14,14 L9,14 C9.03413732,13.9317254 9.06432379,13.8615458 9.09041018,13.7898082 C9.46654834,12.7554283 8.93293795,11.6119774 7.89855802,11.2358393 L7.25,11 Z M3.5,4 L1.5,9 L3.5,7.5 L4,10 L5.5,9 L3.5,4 Z M11.5,2 L9.5,7 L11.5,5.5 L12,8 L13.5,7 L11.5,2 Z"></path>
</svg>
