<?xml version="1.0" encoding="UTF-8"?>
<svg width="15px" height="15px" viewBox="0 0 15 15" version="1.1" xmlns="http://www.w3.org/2000/svg" xmlns:xlink="http://www.w3.org/1999/xlink">
    <path d="M3,14 L1.5,14 C0.671572875,14 1.6557653e-15,13.3284271 1.55431223e-15,12.5 L2.22044605e-15,10.5 C-1.7233926e-14,9.50808812 0.178401649,8.52426227 0.526685162,7.59550623 L2.82443828,1.46816459 C2.93003986,1.18656036 3.19924655,1 3.5,1 C3.80075345,1 4.06996014,1.18656036 4.17556172,1.46816459 L7,9 L7.5,10.5 C8.30833951,11.1358286 8.47500618,11.6358286 8,12 C7.52499382,12.3641714 5.85832715,13.0308381 3,14 Z M9,14 C9,14 9.33333333,13.6666667 10,13 C11.2878045,11.7121955 10.5059704,10.7243645 7.65449765,10.0365071 L8,9 L10.8244383,1.46816459 C10.9300399,1.18656036 11.1992466,1 11.5,1 C11.8007534,1 12.0699601,1.18656036 12.1755617,1.46816459 L14.4733148,7.59550623 C14.8215984,8.52426227 15,9.50808812 15,10.5 L15,10.75 L15,12.5 C15,13.3284271 14.3284271,14 13.5,14 L9,14 Z M11.5,2.25 L9.5,7.5 L11.5,6 L12,8.5 L13.5,7.5 L11.5,2.25 Z M3.5,2.25 L1.5,7.5 L3.5,6 L4,8.5 L5.5,7.5 L3.5,2.25 Z"></path>
</svg>
