<?xml version="1.0" encoding="UTF-8"?>
<svg width="15px" height="15px" viewBox="0 0 15 15" version="1.1" xmlns="http://www.w3.org/2000/svg" xmlns:xlink="http://www.w3.org/1999/xlink">
    <path d="M3,14 L1.5,14 C0.671572875,14 3.21007753e-15,13.3284271 3.10862447e-15,12.5 L3.77475828e-15,10.5 L1.75400059e-14,6.69679622 L2.2044817,1.52565617 C2.34038071,1.20687245 2.65345765,1 3,1 C3.34666185,1 3.65996852,1.20659322 3.79652531,1.52522573 L7,9 L7.5,10.5 C8.30833951,11.1358286 8.47500618,11.6358286 8,12 C7.52499382,12.3641714 5.85832715,13.0308381 3,14 Z M9,14 C9,14 9.33333333,13.6666667 10,13 C11.2878045,11.7121955 10.5059704,10.7243645 7.65449765,10.0365071 L8,9 L11.2034747,1.52522573 C11.3400315,1.20659322 11.6533382,1 12,1 C12.3465297,1 12.6595823,1.20690198 12.7954117,1.5257016 L15,6.7 L15,10.75 L15,12.5 C15,13.3284271 14.3284271,14 13.5,14 L9,14 Z M3,2.25 L1,7 L3,6 L4,8 L5,7 L3,2.25 Z M12,2.25 L10,7 L12,6 L13,8 L14,7 L12,2.25 Z"></path>
</svg>
