<?xml version="1.0" encoding="UTF-8"?>
<svg width="15px" height="15px" viewBox="0 0 15 15" version="1.1" xmlns="http://www.w3.org/2000/svg" xmlns:xlink="http://www.w3.org/1999/xlink">
    <path d="M11.9982768,9.12705577 C11.3993239,8.57002486 11.0403518,8.375 10.5,8.375 C9.8385329,8.375 9.4488674,8.66724912 8.55805826,9.55805826 C7.9488674,10.1672491 7.67186623,10.375 7.5,10.375 C7.32813377,10.375 7.0511326,10.1672491 6.44194174,9.55805826 C5.5511326,8.66724912 5.1614671,8.375 4.5,8.375 C3.95964817,8.375 3.60067608,8.57002486 3.00172319,9.12705577 C3.0005744,9.08495913 3,9.04260721 3,9 C3,6.33333333 6,7 6,5 C6,3.66666667 5.33333333,3 4,3 L4,2 L11,2 L11,3 C9.66666667,3 9,3.66666667 9,5 C9,7 12,6.33333333 12,9 C12,9.04260721 11.9994256,9.08495913 11.9982768,9.12705577 L11.9982768,9.12705577 Z M11.6909615,10.5744156 C11.2550749,11.5878773 10.3580877,12.3964055 9,13 L6,13 C4.64187854,12.3963905 3.74488055,11.5878372 3.30900604,10.5743401 C3.35053171,10.5331939 3.39468488,10.4891986 3.44194174,10.4419417 C4.0511326,9.83275088 4.32813377,9.625 4.5,9.625 C4.67186623,9.625 4.9488674,9.83275088 5.55805826,10.4419417 C6.4488674,11.3327509 6.8385329,11.625 7.5,11.625 C8.1614671,11.625 8.5511326,11.3327509 9.44194174,10.4419417 C10.0511326,9.83275088 10.3281338,9.625 10.5,9.625 C10.6718662,9.625 10.9488674,9.83275088 11.5580583,10.4419417 C11.6068107,10.4906942 11.6507528,10.5345162 11.6909615,10.5744156 L11.6909615,10.5744156 Z"></path>
</svg>
