<?xml version="1.0" encoding="UTF-8"?>
<!DOCTYPE svg PUBLIC "-//W3C//DTD SVG 1.1//EN" "http://www.w3.org/Graphics/SVG/1.1/DTD/svg11.dtd">
<svg version="1.1" xmlns="http://www.w3.org/2000/svg" xmlns:xlink="http://www.w3.org/1999/xlink" x="0" y="0" width="15" height="15" viewBox="0 0 15 15">
<path d="M11,0 C12,0 12,0 12,1 L12,14 C12,15 12,15 11,15 C11,15 4,15 4,15 C3,15 3,15 3,14 L3,1 C3,0 3,0 4,0 L11,0 z M6.25,7 L5,7 L5,13 L10,13 L10,7 L8.75,7 C8.75,7 8.5,7.984 8.5,7.984 C8.5,8.234 6.5,8.234 6.5,7.984 C6.5,7.984 6.25,7 6.25,7 z M7.499,0.75 L7.271,0.902 L7.271,1.627 L6.886,1.398 L6.698,1.519 L6.698,1.773 L7.271,2.115 L7.271,2.592 L6.822,2.352 L6.818,2.846 L6.397,2.603 L6.403,1.903 L6.181,1.768 L6.011,1.897 L6.011,2.364 L5.36,1.998 L5.094,2.125 L5.094,2.415 L5.729,2.765 L5.323,2.992 L5.323,3.256 L5.55,3.367 L6.147,3.017 L6.557,3.256 L6.148,3.511 L6.568,3.755 L6.578,3.762 L6.164,4.001 L5.566,3.649 L5.323,3.778 L5.323,4.044 L5.745,4.253 L5.094,4.616 L5.094,4.906 L5.372,5.021 L6.011,4.663 L6.011,5.122 L6.165,5.25 L6.354,5.109 L6.354,4.423 L6.813,4.182 L6.813,4.688 L7.271,4.408 L7.271,4.885 L6.698,5.227 L6.698,5.483 L6.886,5.601 L7.271,5.373 L7.271,6.1 L7.499,6.25 L7.729,6.1 L7.729,5.373 L8.114,5.601 L8.302,5.498 L8.302,5.227 L7.729,4.885 L7.729,4.408 L8.188,4.667 L8.188,4.19 L8.646,4.443 L8.646,5.131 L8.816,5.251 L8.99,5.131 L8.99,4.678 L9.618,5.02 L9.906,4.902 L9.906,4.616 L9.297,4.253 L9.677,4.037 L9.677,3.79 L9.473,3.651 L8.855,3.993 L8.423,3.765 L8.842,3.522 L8.436,3.266 L8.857,2.998 L9.468,3.36 L9.677,3.246 L9.677,2.987 L9.277,2.763 L9.906,2.4 L9.906,2.13 L9.659,1.99 L8.99,2.343 L8.99,1.866 L8.813,1.766 L8.646,1.866 L8.646,2.613 L8.188,2.852 L8.188,2.333 L7.729,2.592 L7.729,2.115 L8.417,1.762 L8.417,1.534 L8.177,1.394 L7.729,1.627 L7.729,0.902 L7.499,0.75 z M7.711,3.156 L7.907,3.51 L7.722,3.844 L7.319,3.844 L7.103,3.51 L7.309,3.156 L7.711,3.156 z"/>
<path d="M6.25,10.5 C6.25,10.75 8.75,10.75 8.75,10.5 C8.75,10.5 8.479,12.5 8.479,12.5 C8.479,13 6.5,13 6.5,12.5 C6.5,12.5 6.25,10.5 6.25,10.5 z M6.782,9 L6.3,9.575 L6.875,10.057 L7.357,9.482 L6.782,9 z M7.643,9.6 L7.5,10.336 L8.236,10.479 L8.379,9.743 L7.643,9.6 z M7.2,8.74 L7.54,9.409 L8.209,9.068 L7.868,8.4 L7.2,8.74 z"/>
</svg>
