<?xml version="1.0" encoding="UTF-8"?>
<!DOCTYPE svg PUBLIC "-//W3C//DTD SVG 1.1//EN" "http://www.w3.org/Graphics/SVG/1.1/DTD/svg11.dtd">
<svg version="1.1" xmlns="http://www.w3.org/2000/svg" xmlns:xlink="http://www.w3.org/1999/xlink" x="0" y="0" width="15" height="15" viewBox="0 0 15 15">
<path d="M13,0.5 C14,1 13,12.5 12.5,12.5 C11,13 8.5,13 8.5,13 C8.5,13 8.5,14.5 8.5,14.5 C8.5,15 6.5,15 6.5,14.5 C6.5,14.5 6.5,13 6.5,13 C6.5,13 4,13 2.5,12.5 C2,12.5 1,1 2,0.5 C3,0 12,-0 13,0.5 z M5.667,6.111 C5.667,6.111 5.451,6.107 5.225,6.22 C4.999,6.333 4.75,6.62 4.75,7.028 C4.75,8.861 4.75,9.167 4.444,9.167 C4.444,9.167 4.139,9.167 4.139,9.472 L4.139,10.694 C4.139,10.694 4.139,11 4.444,11 C4.75,11 4.75,10.694 4.75,10.694 L4.75,9.778 C4.966,9.778 5.172,9.694 5.361,9.595 L5.361,10.694 C5.361,10.694 5.361,11 5.667,11 C5.972,11 5.972,10.694 5.972,10.694 L5.972,9.167 L7.806,9.167 L8.211,10.384 C8.417,11 8.722,11 8.722,11 L9.028,11 C9.028,11 9.333,11 9.333,10.694 C9.333,10.389 9.028,10.389 9.028,10.389 L9.028,8.861 C9.028,8.317 8.641,8.094 8.417,7.944 L7.499,7.333 L5.361,7.333 L5.361,7.028 C5.361,6.824 5.417,6.806 5.497,6.766 C5.577,6.726 5.667,6.722 5.667,6.722 C6.08,6.728 6.08,6.105 5.667,6.111 z M8.722,5.5 C8.722,5.5 8.511,5.523 8.417,5.806 L8.111,7.028 L9.333,7.944 L10.25,7.944 C10.861,7.944 10.861,7.333 10.861,7.333 L9.944,6.417 C9.639,6.111 9.333,6.111 9.028,6.111 L9.028,5.805 C9.028,5.806 9.028,5.5 8.722,5.5 z M10,1.5 C10,1.5 5,1.5 5,1.5 C4.391,1.5 4,3.5 4.5,3.5 C4.5,3.5 10.5,3.5 10.5,3.5 C11,3.5 10.5,1.5 10,1.5 z"/>
</svg>
