<?xml version="1.0" encoding="UTF-8"?>
<!DOCTYPE svg PUBLIC "-//W3C//DTD SVG 1.1//EN" "http://www.w3.org/Graphics/SVG/1.1/DTD/svg11.dtd">
<svg version="1.1" xmlns="http://www.w3.org/2000/svg" xmlns:xlink="http://www.w3.org/1999/xlink" x="0" y="0" width="15" height="15" viewBox="0 0 15 15">
<path d="M11,0 C12,0 12,0 12,1 L12,14 C12,15 12,15 11,15 C11,15 4,15 4,15 C3,15 3,15 3,14 L3,1 C3,0 3,0 4,0 L11,0 z M6.25,7 L5,7 L5,13 L10,13 L10,7 L8.75,7 C8.75,7 8.5,7.984 8.5,7.984 C8.5,8.234 6.5,8.234 6.5,7.984 C6.5,7.984 6.25,7 6.25,7 z M9,5 L6,5 C5.89,5 5.75,5.14 5.75,5.25 C5.75,5.36 5.89,5.5 6,5.5 L9,5.5 C9.111,5.5 9.25,5.36 9.25,5.25 C9.25,5.14 9.111,5 9,5 z M9.25,1.5 L5.75,1.5 L5.75,3 C5.75,4 6.5,4.75 7.5,4.75 C8,4.75 8.75,4.5 9,4 L9.75,4 C10.25,4 10.5,3.542 10.5,3.1 C10.5,2.658 10.25,2.25 9.75,2.25 L9.25,2.25 L9.25,1.5 z M9.75,2.75 C10,2.75 10.15,2.879 10.15,3.1 C10.15,3.321 10,3.5 9.75,3.5 C9.75,3.5 9.25,3.5 9.144,3.5 C9.25,3.25 9.25,2.75 9.25,2.75 L9.75,2.75 z"/>
<path d="M6.5,10.5 C6.5,10.75 8.5,10.75 8.5,10.5 C8.5,10.5 8.199,12.5 8.199,12.5 C8.199,13 6.75,13 6.75,12.5 C6.75,12.5 6.5,10.5 6.5,10.5 z M7.69,10.5 C8.235,10.318 8.417,10.136 8.417,9.773 C8.417,9.591 8.235,9.409 7.871,9.227 C7.508,9.045 7.326,8.864 7.326,8.5 C7.144,8.864 7.326,9.409 7.69,9.591 C8.599,9.955 7.69,10.5 7.69,10.5 z M6.942,10.5 C7.226,10.419 7.405,10.42 7.397,10.136 C7.397,9.977 7.3,9.9 7.136,9.773 C6.972,9.645 6.8,9.6 6.761,9.227 C6.579,9.409 6.699,9.773 6.942,9.955 C7.429,10.198 6.942,10.5 6.942,10.5 z"/>
</svg>
