<?xml version="1.0" encoding="UTF-8"?>
<!DOCTYPE svg PUBLIC "-//W3C//DTD SVG 1.1//EN" "http://www.w3.org/Graphics/SVG/1.1/DTD/svg11.dtd">
<svg version="1.1" xmlns="http://www.w3.org/2000/svg" xmlns:xlink="http://www.w3.org/1999/xlink" x="0" y="0" width="15" height="15" viewBox="0 0 15 15">
<path d="M12,0 C13,0 13,0 13,1 L13,14 C13,15 13,15 12,15 L3,15 C2,15 2,15 2,14 L2,1 C2,0 2,0 3,0 L12,0 z M10,12 L4,12 L4,13 L10,13 L10,12 z M12,9 L11,9 L11,9.75 L12,9.75 L12,9 z M10,2 L4,2 L4,10 L10,10 L10,2 z M12,7.5 L11,7.5 L11,8.25 L12,8.25 L12,7.5 z M12,6 L11,6 L11,6.75 L12,6.75 L12,6 z M12,4.5 L11,4.5 L11,5.25 L12,5.25 L12,4.5 z"/>
<path d="M9.25,3.75 C9.25,3.75 9.25,4.25 9.25,4.25 C9,4.25 9,4.75 9.25,4.75 C9.25,4.75 9.25,5.25 9.25,5.25 C9,5.25 9,5.75 9.25,5.75 C9.25,5.75 9.25,6.25 9.25,6.25 C9,6.25 9,6.75 9.25,6.75 C9.25,6.75 9.25,7.25 9.25,7.25 C9,7.25 9,7.75 9.25,7.75 C9.25,7.75 9.25,8.25 9.25,8.25 C9.25,8.25 8.75,8.25 8.75,8.25 C8.75,8 8.25,8 8.25,8.25 C8.25,8.25 7.75,8.25 7.75,8.25 C7.75,8 7.25,8 7.25,8.25 C7.25,8.25 6.75,8.25 6.75,8.25 C6.75,8 6.25,8 6.25,8.25 C6.25,8.25 5.75,8.25 5.75,8.25 C5.75,8 5.25,8 5.25,8.25 C5.25,8.25 4.75,8.25 4.75,8.25 C4.75,8.25 4.75,7.75 4.75,7.75 C5,7.735 5,7.25 4.75,7.25 C4.75,7.25 4.75,6.75 4.75,6.75 C5,6.75 5,6.25 4.75,6.25 C4.75,6.25 4.75,5.75 4.75,5.75 C5,5.75 5,5.25 4.75,5.25 C4.75,5.25 4.75,4.75 4.75,4.75 C5,4.75 5,4.25 4.75,4.25 C4.75,4.25 4.75,3.75 4.75,3.75 C4.75,3.75 5.25,3.75 5.25,3.75 C5.25,4 5.75,4 5.75,3.75 C5.75,3.75 6.25,3.75 6.25,3.75 C6.25,3.75 6.25,3.75 6.25,3.75 C6.25,4 6.75,4 6.75,3.75 C6.75,3.75 7.25,3.75 7.25,3.75 C7.25,4 7.75,4 7.75,3.75 C7.75,3.75 8.25,3.75 8.25,3.75 C8.25,4 8.75,4 8.75,3.75 C8.75,3.75 9.25,3.75 9.25,3.75 z M8.5,4.5 C8.5,4.5 5.5,4.5 5.5,4.5 L5.5,7.5 L8.5,7.5 C8.5,7.5 8.5,4.5 8.5,4.5 z M8.25,4.75 L8.25,7.25 L5.75,7.25 L5.75,4.75 L8.25,4.75 z"/>
</svg>
