<?xml version="1.0" encoding="UTF-8"?>
<!DOCTYPE svg PUBLIC "-//W3C//DTD SVG 1.1//EN" "http://www.w3.org/Graphics/SVG/1.1/DTD/svg11.dtd">
<svg version="1.1" xmlns="http://www.w3.org/2000/svg" xmlns:xlink="http://www.w3.org/1999/xlink" x="0" y="0" width="15" height="15" viewBox="0 0 15 15">
<path d="M12,0 C13,0 13,0 13,1 L13,14 C13,15 13,15 12,15 L3,15 C2,15 2,15 2,14 L2,1 C2,0 2,0 3,0 L12,0 z M10,12 L4,12 L4,13 L10,13 L10,12 z M12,9 L11,9 L11,9.75 L12,9.75 L12,9 z M10,2 L4,2 L4,10 L10,10 L10,2 z M12,7.5 L11,7.5 L11,8.25 L12,8.25 L12,7.5 z M12,6 L11,6 L11,6.75 L12,6.75 L12,6 z M12,4.5 L11,4.5 L11,5.25 L12,5.25 L12,4.5 z"/>
<path d="M8.75,6.25 C8.75,6.25 8.75,7.5 8.75,7.5 C8.75,7.5 9.25,7.5 9.25,7.5 C9.25,7.5 9.25,6.25 9.25,6.25 C9.25,6.25 8.75,6.25 8.75,6.25 z M8.552,4.388 C8.511,4.36 8.484,4.315 8.484,4.265 L8.484,3.809 C8.484,3.776 8.458,3.75 8.426,3.75 L8.074,3.75 C8.042,3.75 8.016,3.776 8.016,3.809 L8.016,4.265 C8.016,4.426 8.09,4.583 8.225,4.671 C8.534,4.871 8.719,5.211 8.719,5.579 L8.719,5.801 C8.719,5.833 8.745,5.859 8.777,5.859 L9.129,5.859 C9.161,5.859 9.187,5.833 9.187,5.801 L9.187,5.579 C9.187,5.099 8.95,4.655 8.552,4.388 z M7.5,6.25 C7.5,6.25 4.5,6.25 4.5,6.25 C4.25,6.25 4.25,7.5 4.5,7.5 C4.5,7.5 7.5,7.5 7.5,7.5 C7.75,7.5 7.75,6.25 7.5,6.25 z M7.35,7.1 L6,7.1 L6,6.65 L7.35,6.65 L7.35,7.1 z M8.072,4.787 C7.897,4.666 7.781,4.477 7.781,4.265 L7.781,3.809 C7.781,3.776 7.755,3.75 7.723,3.75 L7.371,3.75 C7.339,3.75 7.312,3.776 7.312,3.809 L7.312,4.295 C7.312,4.615 7.493,4.893 7.754,5.076 C7.918,5.191 8.016,5.378 8.016,5.579 L8.016,5.801 C8.016,5.833 8.042,5.859 8.074,5.859 L8.426,5.859 C8.458,5.859 8.484,5.833 8.484,5.801 L8.484,5.579 C8.484,5.262 8.331,4.968 8.072,4.787 z M8.5,6.25 C8.5,6.25 8,6.25 8,6.25 C8,6.25 8,7.5 8,7.5 C8,7.5 8.5,7.5 8.5,7.5 C8.5,7.5 8.5,6.25 8.5,6.25 z"/>
</svg>
