<?xml version="1.0" encoding="UTF-8"?>
<!DOCTYPE svg PUBLIC "-//W3C//DTD SVG 1.1//EN" "http://www.w3.org/Graphics/SVG/1.1/DTD/svg11.dtd">
<svg version="1.1" xmlns="http://www.w3.org/2000/svg" xmlns:xlink="http://www.w3.org/1999/xlink" x="0" y="0" width="15" height="15" viewBox="0 0 15 15">
<path d="M9.5,0 C9.5,0 10,0 10,0.5 L10,5 C10,5 11.5,5 11.5,5 C11.5,5 12,5 12,5.5 C12,5.5 12,14.5 12,14.5 C12,15 11.5,15 11.5,15 C11.5,15 3.5,15 3.5,15 C3.5,15 3,15 3,14.5 C3,14.5 3,5.5 3,5.5 C3,5 3.5,5 3.5,5 L5,5 L5,0.5 C5,0 5.5,0 5.5,0 L9.5,0 z M10.5,6 L4.5,6 L4.5,10 L10.5,10 L10.5,6 z M8.5,4 C8.5,4 6.5,4 6.5,4 C6,4 6,4.5 6.5,4.5 C6.5,4.5 7,4.5 7,4.5 C7,4.5 7,5.75 7,5.75 C7,5.75 8,5.75 8,5.75 C8,5.75 8,4.5 8,4.5 C8,4.5 8.5,4.5 8.5,4.5 C9,4.5 9,4 8.5,4 z M8.5,1 L6.5,1 L6.5,2.5 L8.5,2.5 L8.5,1 z"/>
<path d="M5.5,8 L7.25,8 L7.25,8.25 L5.5,8.25 L5.5,8 z M5.5,9 L5.5,9.25 L7.25,9.25 L7.25,9 L5.5,9 z M5.5,6.5 L5.5,7 L9.5,7 L9.5,6.5 L5.5,6.5 z M5.5,8.5 L5.5,8.75 L7.25,8.75 L7.25,8.5 L5.5,8.5 z M5.5,7.5 L5.5,7.75 L7.25,7.75 L7.25,7.5 L5.5,7.5 z M7.75,8 L7.75,8.25 L9.5,8.25 L9.5,8 L7.75,8 z M7.75,9 L7.75,9.25 L9.5,9.25 L9.5,9 L7.75,9 z M7.75,8.5 L7.75,8.75 L9.5,8.75 L9.5,8.5 L7.75,8.5 z M7.75,7.5 L7.75,7.75 L9.5,7.75 L9.5,7.5 L7.75,7.5 z"/>
</svg>
