<?xml version="1.0" encoding="UTF-8"?>
<svg width="15px" height="15px" viewBox="0 0 15 15" version="1.1" xmlns="http://www.w3.org/2000/svg" xmlns:xlink="http://www.w3.org/1999/xlink">
    <path d="M14,1.5 L14,13.5 C14,13.7761424 13.7761424,14 13.5,14 L1.5,14 C1.22385763,14 1,13.7761424 1,13.5 L1,1.5 C1,1.22385763 1.22385763,1 1.5,1 L13.5,1 C13.7761424,1 14,1.22385763 14,1.5 Z M13,5 L10,5 L10,8 L13,8 L13,5 Z M11,9 L10,9 L10,10 L11,10 L11,9 Z M13,9 L12,9 L12,10 L13,10 L13,9 Z M2,5 L2,7 L5,7 L5,5 L2,5 Z M2,8 L2,10 L5,10 L5,8 L2,8 Z M2,11 L2,13 L5,13 L5,11 L2,11 Z M6,11 L6,13 L9,13 L9,11 L6,11 Z M6,8 L6,10 L9,10 L9,8 L6,8 Z M6,5 L6,7 L9,7 L9,5 L6,5 Z M6,2 L6,4 L9,4 L9,2 L6,2 Z M5,2 L2,2 L2,4 L5,4 L5,2 Z"></path>
</svg>
