<?xml version="1.0" encoding="UTF-8"?>
<!DOCTYPE svg PUBLIC "-//W3C//DTD SVG 1.1//EN" "http://www.w3.org/Graphics/SVG/1.1/DTD/svg11.dtd">
<svg version="1.1" xmlns="http://www.w3.org/2000/svg" xmlns:xlink="http://www.w3.org/1999/xlink" x="0" y="0" width="15" height="15" viewBox="0 0 15 15">
<path d="M12,0 C13,0 13,0 13,1 L13,14 C13,15 13,15 12,15 L3,15 C2,15 2,15 2,14 L2,1 C2,0 2,0 3,0 L12,0 z M10,12 L4,12 L4,13 L10,13 L10,12 z M12,9 L11,9 L11,9.75 L12,9.75 L12,9 z M10,2 L4,2 L4,10 L10,10 L10,2 z M12,7.5 L11,7.5 L11,8.25 L12,8.25 L12,7.5 z M12,6 L11,6 L11,6.75 L12,6.75 L12,6 z M12,4.5 L11,4.5 L11,5.25 L12,5.25 L12,4.5 z"/>
<path d="M5,3.75 C5,3.75 5,3.75 5,3.75 C5,4.253 6.5,4.35 7,4.35 C7.5,4.35 9,4.247 9,3.75 C9,3.75 9,8.75 9,8.75 C9,9.75 5,9.75 5,8.75 C5,8.75 5,3.75 5,3.75 z M7.902,3.258 C8.148,3.258 8.348,3.325 8.348,3.407 C8.348,3.489 8.148,3.556 7.902,3.555 C7.656,3.556 7.457,3.489 7.457,3.407 C7.457,3.325 7.656,3.258 7.902,3.258 z M9,3.25 C9,2.75 7,2.75 7,2.75 C7,2.75 5,2.75 5,3.25 C5,3.75 6,4 7,4 C8,4 9,3.75 9,3.25 z"/>
</svg>
