<?xml version="1.0" encoding="UTF-8"?>
<!DOCTYPE svg PUBLIC "-//W3C//DTD SVG 1.1//EN" "http://www.w3.org/Graphics/SVG/1.1/DTD/svg11.dtd">
<svg version="1.1" xmlns="http://www.w3.org/2000/svg" xmlns:xlink="http://www.w3.org/1999/xlink" x="0" y="0" width="15" height="15" viewBox="0 0 15 15">
<path d="M11,0 C12,0 12,0 12,1 L12,14 C12,15 12,15 11,15 C11,15 4,15 4,15 C3,15 3,15 3,14 L3,1 C3,0 3,0 4,0 L11,0 z M6.25,8 C6.25,8 5.5,8 5.5,8 C5,8 5,8.5 5,8.5 C5,8.5 5,13.5 5,13.5 C5,14 5.5,14 5.5,14 L9.5,14 C9.5,14 10,14 10,13.5 C10,13.5 10,8.5 10,8.5 C10,8 9.5,8 9.5,8 L8.75,8 C8.75,8 8.5,8.984 8.5,8.984 C8.5,9.234 6.5,9.234 6.5,8.984 C6.5,8.984 6.25,8 6.25,8 z M10.5,1 L4.5,1 C4.5,1 4,1 4,1.5 C4,1.5 4,5.5 4,5.5 C4,5.5 4,6 4.5,6 C4.5,6 10.5,6 10.5,6 C10.5,6 11,6 11,5.5 C11,5.5 11,1.5 11,1.5 C11,1 10.5,1 10.5,1 z"/>
<path d="M8.75,5 C8.861,5 9,5.14 9,5.25 C9,5.36 8.861,5.5 8.75,5.5 L5.75,5.5 C5.64,5.5 5.5,5.36 5.5,5.25 C5.5,5.14 5.64,5 5.75,5 L8.75,5 z M9.5,2.75 C9.75,2.75 9.9,2.879 9.9,3.1 C9.9,3.321 9.75,3.5 9.5,3.5 L8.894,3.5 C9,3.25 9,2.75 9,2.75 L9.5,2.75 z M9,1.5 L5.5,1.5 L5.5,3 C5.5,4 6.25,4.75 7.25,4.75 C7.75,4.75 8.5,4.5 8.75,4 L9.5,4 C10,4 10.25,3.542 10.25,3.1 C10.25,2.658 10,2.25 9.5,2.25 L9,2.25 L9,1.5 z"/>
<path d="M6.5,11.5 C6.5,11.75 8.5,11.75 8.5,11.5 C8.5,11.5 8.199,13.5 8.199,13.5 C8.199,14 6.75,14 6.75,13.5 C6.75,13.5 6.5,11.5 6.5,11.5 z M7.69,11.5 C8.235,11.318 8.417,11.136 8.417,10.773 C8.417,10.591 8.235,10.409 7.871,10.227 C7.508,10.045 7.326,9.864 7.326,9.5 C7.144,9.864 7.326,10.409 7.69,10.591 C8.599,10.955 7.69,11.5 7.69,11.5 z M6.942,11.5 C7.226,11.419 7.405,11.42 7.397,11.136 C7.397,10.977 7.3,10.9 7.136,10.773 C6.972,10.645 6.8,10.6 6.761,10.227 C6.579,10.409 6.699,10.773 6.942,10.955 C7.429,11.198 6.942,11.5 6.942,11.5 z"/>
</svg>
