<?xml version="1.0" encoding="UTF-8"?>
<!DOCTYPE svg PUBLIC "-//W3C//DTD SVG 1.1//EN" "http://www.w3.org/Graphics/SVG/1.1/DTD/svg11.dtd">
<svg version="1.1" xmlns="http://www.w3.org/2000/svg" xmlns:xlink="http://www.w3.org/1999/xlink" x="0" y="0" width="15" height="15" viewBox="0 0 15 15">
<path d="M11,0 C12,0 12,0 12,1 L12,14 C12,15 12,15 11,15 C11,15 4,15 4,15 C3,15 3,15 3,14 L3,1 C3,0 3,0 4,0 L11,0 z M6.25,8 C6.25,8 5.5,8 5.5,8 C5,8 5,8.5 5,8.5 C5,8.5 5,13.5 5,13.5 C5,14 5.5,14 5.5,14 L9.5,14 C9.5,14 10,14 10,13.5 C10,13.5 10,8.5 10,8.5 C10,8 9.5,8 9.5,8 L8.75,8 C8.75,8 8.5,8.984 8.5,8.984 C8.5,9.234 6.5,9.234 6.5,8.984 C6.5,8.984 6.25,8 6.25,8 z M10.5,1 L4.5,1 C4.5,1 4,1 4,1.5 C4,1.5 4,5.5 4,5.5 C4,5.5 4,6 4.5,6 C4.5,6 10.5,6 10.5,6 C10.5,6 11,6 11,5.5 C11,5.5 11,1.5 11,1.5 C11,1 10.5,1 10.5,1 z"/>
<path d="M6.25,11.5 C6.25,11.75 8.75,11.75 8.75,11.5 C8.75,11.5 8.5,13.5 8.5,13.5 C8.5,14 6.5,14 6.5,13.5 C6.5,13.5 6.25,11.5 6.25,11.5 z M6.782,9.991 L6.3,10.566 L6.875,11.048 L7.357,10.473 L6.782,9.991 z M7.643,10.591 L7.5,11.327 L8.236,11.47 L8.379,10.734 L7.643,10.591 z M7.2,9.731 L7.54,10.4 L8.209,10.059 L7.868,9.391 L7.2,9.731 z"/>
<path d="M7.5,1.25 L7.687,1.374 L7.687,1.968 L8.054,1.777 L8.25,1.891 L8.25,2.078 L7.687,2.367 L7.687,2.757 L8.063,2.545 L8.063,2.97 L8.438,2.774 L8.438,2.163 L8.574,2.081 L8.719,2.163 L8.719,2.553 L9.266,2.265 L9.469,2.379 L9.469,2.6 L8.954,2.897 L9.281,3.08 L9.281,3.292 L9.11,3.385 L8.61,3.089 L8.266,3.309 L8.598,3.518 L8.255,3.717 L8.609,3.903 L9.114,3.624 L9.281,3.737 L9.281,3.939 L8.97,4.116 L9.469,4.413 L9.469,4.647 L9.233,4.744 L8.719,4.464 L8.719,4.834 L8.577,4.933 L8.438,4.834 L8.438,4.272 L8.063,4.065 L8.063,4.455 L7.687,4.243 L7.687,4.633 L8.156,4.913 L8.156,5.135 L8.002,5.219 L7.687,5.032 L7.687,5.627 L7.5,5.75 L7.313,5.627 L7.313,5.032 L6.998,5.219 L6.844,5.122 L6.844,4.913 L7.313,4.633 L7.313,4.243 L6.938,4.472 L6.938,4.058 L6.562,4.255 L6.562,4.816 L6.408,4.932 L6.282,4.827 L6.282,4.452 L5.759,4.744 L5.531,4.65 L5.531,4.413 L6.064,4.116 L5.719,3.945 L5.719,3.727 L5.918,3.622 L6.407,3.91 L6.746,3.714 L6.737,3.709 L6.394,3.509 L6.728,3.3 L6.393,3.105 L5.905,3.391 L5.719,3.3 L5.719,3.084 L6.051,2.899 L5.531,2.612 L5.531,2.375 L5.749,2.271 L6.282,2.571 L6.282,2.188 L6.421,2.083 L6.602,2.193 L6.598,2.766 L6.942,2.965 L6.945,2.561 L7.313,2.757 L7.313,2.367 L6.844,2.087 L6.844,1.879 L6.998,1.78 L7.313,1.968 L7.313,1.374 L7.5,1.25 z"/>
</svg>
