<?xml version="1.0" encoding="UTF-8"?>
<svg version="1.1" xmlns="http://www.w3.org/2000/svg" xmlns:xlink="http://www.w3.org/1999/xlink" x="0" y="0" viewBox="0 0 15 15">
  <path d="M11 0C12 0 12 0 12 1L12 14C12 15 12 15 11 15C11 15 4 15 4 15C3 15 3 15 3 14L3 1C3 0 3 0 4 0L11 0zM6.25 8C6.25 8 5.5 8 5.5 8C5 8 5 8.5 5 8.5C5 8.5 5 13.5 5 13.5C5 14 5.5 14 5.5 14L9.5 14C9.5 14 10 14 10 13.5C10 13.5 10 8.5 10 8.5C10 8 9.5 8 9.5 8L8.75 8C8.75 8 8.5 8.98 8.5 8.98C8.5 9.23 6.5 9.23 6.5 8.98C6.5 8.98 6.25 8 6.25 8zM10.5 1L4.5 1C4.5 1 4 1 4 1.5C4 1.5 4 5.5 4 5.5C4 5.5 4 6 4.5 6C4.5 6 10.5 6 10.5 6C10.5 6 11 6 11 5.5C11 5.5 11 1.5 11 1.5C11 1 10.5 1 10.5 1z"/>
  <path d="M6.5 11C6.5 11.25 8.5 11.25 8.5 11C8.5 11 8.25 13.5 8.25 13.5C8.25 14 6.75 14 6.75 13.5C6.75 13.5 6.5 11 6.5 11zM7.75 9.51C7.82 9.5 7.88 9.55 7.89 9.62C7.89 9.68 7.89 9.68 7.89 9.75C7.9 9.82 7.85 9.88 7.78 9.88C7.71 9.89 7.65 9.84 7.65 9.77C7.64 9.7 7.64 9.7 7.64 9.64C7.63 9.57 7.68 9.51 7.75 9.51zM7.79 10.01C7.86 10 7.92 10.05 7.92 10.12C7.93 10.18 7.93 10.18 7.93 10.25C7.94 10.32 7.89 10.38 7.82 10.38C7.75 10.39 7.69 10.33 7.68 10.27C7.68 10.2 7.68 10.2 7.67 10.14C7.67 10.07 7.72 10.01 7.79 10.01zM7.83 10.51C7.76 10.51 7.71 10.57 7.71 10.64C7.72 10.74 7.72 10.74 7.72 10.76C7.72 10.83 7.78 10.88 7.85 10.88C7.92 10.87 7.97 10.81 7.97 10.75C7.97 10.72 7.97 10.72 7.96 10.62C7.95 10.55 7.89 10.5 7.83 10.51zM7.25 9.51C7.32 9.51 7.37 9.57 7.37 9.64C7.36 9.7 7.36 9.7 7.36 9.77C7.35 9.84 7.29 9.89 7.22 9.88C7.15 9.88 7.1 9.82 7.11 9.75C7.11 9.68 7.11 9.68 7.12 9.62C7.12 9.55 7.18 9.5 7.25 9.51zM7.21 10.01C7.28 10.01 7.33 10.07 7.33 10.14C7.32 10.2 7.32 10.2 7.32 10.27C7.31 10.33 7.25 10.39 7.18 10.38C7.12 10.38 7.06 10.32 7.07 10.25C7.07 10.18 7.07 10.18 7.08 10.12C7.08 10.05 7.14 10 7.21 10.01zM7.18 10.51C7.11 10.5 7.05 10.55 7.04 10.62C7.03 10.72 7.03 10.72 7.03 10.75C7.03 10.81 7.08 10.87 7.15 10.88C7.22 10.88 7.28 10.83 7.28 10.76C7.28 10.74 7.28 10.74 7.29 10.64C7.3 10.57 7.24 10.51 7.18 10.51z"/>
  <path d="M8.75 2.5C8.75 2.5 8.25 5.5 8.25 5.5C8.25 5.5 6.75 5.5 6.75 5.5C6.75 5.5 6.25 2.5 6.25 2.5L8 2.5C8 2.5 8.5 1.25 8.5 1.25C8.55 1.13 8.78 1.16 8.75 1.25C8.75 1.25 8.25 2.5 8.25 2.5C8.25 2.5 8.75 2.5 8.75 2.5z"/>
</svg>