<?xml version="1.0" encoding="UTF-8"?>
<!DOCTYPE svg PUBLIC "-//W3C//DTD SVG 1.1//EN" "http://www.w3.org/Graphics/SVG/1.1/DTD/svg11.dtd">
<svg version="1.1" xmlns="http://www.w3.org/2000/svg" xmlns:xlink="http://www.w3.org/1999/xlink" x="0" y="0" width="15" height="15" viewBox="0 0 15 15">
<path d="M12,0 C13,0 13,0 13,1 L13,14 C13,15 13,15 12,15 L3,15 C2,15 2,15 2,14 L2,1 C2,0 2,0 3,0 L12,0 z M10,12 L4,12 L4,13 L10,13 L10,12 z M12,9 L11,9 L11,9.75 L12,9.75 L12,9 z M10,2 L4,2 L4,10 L10,10 L10,2 z M12,7.5 L11,7.5 L11,8.25 L12,8.25 L12,7.5 z M12,6 L11,6 L11,6.75 L12,6.75 L12,6 z M12,4.5 L11,4.5 L11,5.25 L12,5.25 L12,4.5 z"/>
<path d="M6.5,4 C6.5,4 6.481,5.481 6.481,5.481 C6.481,5.481 5,5.5 5,5.5 C4.75,5.5 4.75,6.5 5,6.5 C5,6.5 6.481,6.519 6.481,6.519 C6.481,6.519 6.5,8 6.5,8 C6.5,8.25 7.5,8.25 7.5,8 C7.5,8 7.519,6.519 7.519,6.519 C7.519,6.519 9,6.5 9,6.5 C9.25,6.5 9.25,5.5 9,5.5 C9,5.5 7.519,5.481 7.519,5.481 C7.519,5.481 7.5,4 7.5,4 C7.5,3.75 6.5,3.75 6.5,4 z"/>
</svg>
