<?xml version="1.0" encoding="UTF-8"?>
<svg version="1.1" xmlns="http://www.w3.org/2000/svg" xmlns:xlink="http://www.w3.org/1999/xlink" x="0" y="0" viewBox="0 0 15 15">
  <path d="M11 0C12 0 12 0 12 1L12 14C12 15 12 15 11 15C11 15 4 15 4 15C3 15 3 15 3 14L3 1C3 0 3 0 4 0L11 0zM6.25 8C6.25 8 5.5 8 5.5 8C5 8 5 8.5 5 8.5C5 8.5 5 13.5 5 13.5C5 14 5.5 14 5.5 14L9.5 14C9.5 14 10 14 10 13.5C10 13.5 10 8.5 10 8.5C10 8 9.5 8 9.5 8L8.75 8C8.75 8 8.5 8.98 8.5 8.98C8.5 9.23 6.5 9.23 6.5 8.98C6.5 8.98 6.25 8 6.25 8zM10.5 1L4.5 1C4.5 1 4 1 4 1.5C4 1.5 4 5.5 4 5.5C4 5.5 4 6 4.5 6C4.5 6 10.5 6 10.5 6C10.5 6 11 6 11 5.5C11 5.5 11 1.5 11 1.5C11 1 10.5 1 10.5 1z"/>
  <path d="M8.75 5C8.86 5 9 5.14 9 5.25C9 5.36 8.86 5.5 8.75 5.5L5.75 5.5C5.64 5.5 5.5 5.36 5.5 5.25C5.5 5.14 5.64 5 5.75 5L8.75 5zM9.5 2.75C9.75 2.75 9.9 2.88 9.9 3.1C9.9 3.32 9.75 3.5 9.5 3.5L8.89 3.5C9 3.25 9 2.75 9 2.75L9.5 2.75zM9 1.5L5.5 1.5L5.5 3C5.5 4 6.25 4.75 7.25 4.75C7.75 4.75 8.5 4.5 8.75 4L9.5 4C10 4 10.25 3.54 10.25 3.1C10.25 2.66 10 2.25 9.5 2.25L9 2.25L9 1.5z"/>
  <path d="M6.5 11.5C6.5 11.75 8.5 11.75 8.5 11.5C8.5 11.5 8.2 13.5 8.2 13.5C8.2 14 6.75 14 6.75 13.5C6.75 13.5 6.5 11.5 6.5 11.5zM7.69 11.5C8.24 11.32 8.42 11.14 8.42 10.77C8.42 10.59 8.24 10.41 7.87 10.23C7.51 10.05 7.33 9.86 7.33 9.5C7.14 9.86 7.33 10.41 7.69 10.59C8.6 10.96 7.69 11.5 7.69 11.5zM6.94 11.5C7.23 11.42 7.41 11.42 7.4 11.14C7.4 10.98 7.3 10.9 7.14 10.77C6.97 10.65 6.8 10.6 6.76 10.23C6.58 10.41 6.7 10.77 6.94 10.96C7.43 11.2 6.94 11.5 6.94 11.5z"/>
</svg>