<?xml version="1.0" encoding="UTF-8"?>
<svg version="1.1" xmlns="http://www.w3.org/2000/svg" xmlns:xlink="http://www.w3.org/1999/xlink" x="0" y="0" viewBox="0 0 15 15">
  <path d="M11 0C12 0 12 0 12 1L12 14C12 15 12 15 11 15C11 15 4 15 4 15C3 15 3 15 3 14L3 1C3 0 3 0 4 0L11 0zM6.25 8C6.25 8 5.5 8 5.5 8C5 8 5 8.5 5 8.5C5 8.5 5 13.5 5 13.5C5 14 5.5 14 5.5 14L9.5 14C9.5 14 10 14 10 13.5C10 13.5 10 8.5 10 8.5C10 8 9.5 8 9.5 8L8.75 8C8.75 8 8.5 8.98 8.5 8.98C8.5 9.23 6.5 9.23 6.5 8.98C6.5 8.98 6.25 8 6.25 8zM10.5 1L4.5 1C4.5 1 4 1 4 1.5C4 1.5 4 5.5 4 5.5C4 5.5 4 6 4.5 6C4.5 6 10.5 6 10.5 6C10.5 6 11 6 11 5.5C11 5.5 11 1.5 11 1.5C11 1 10.5 1 10.5 1z"/>
  <path d="M6.25 11.5C6.25 11.75 8.75 11.75 8.75 11.5C8.75 11.5 8.5 13.5 8.5 13.5C8.5 14 6.5 14 6.5 13.5C6.5 13.5 6.25 11.5 6.25 11.5zM6.5 11.25C6.5 11.5 8.5 11.5 8.5 11.25C8.5 11.25 8.5 11 8.25 11C8.25 11 8.5 10.59 8 10.59C7.75 10.5 8 10 7.75 9.75C7.25 10 7 10.25 7.25 10.5C6.75 10.5 6.88 10.9 6.88 10.9C6.88 10.9 6.5 11 6.5 11.25z"/>
  <path d="M8.5 3C8.66 2.68 8.6 1.97 8.25 1.75C7.9 1.53 7.1 1.53 6.75 1.75C6.4 1.97 6.34 2.68 6.5 3C6.34 3 6.25 3.09 6.25 3.25C6.25 3.41 6.34 3.5 6.5 3.5L8.5 3.5C8.66 3.5 8.75 3.41 8.75 3.25C8.75 3.09 8.66 3 8.5 3zM7.5 5.5C7.66 5.5 8.5 3.75 8.5 3.75L6.5 3.75C6.5 3.75 7.34 5.5 7.5 5.5z"/>
</svg>