<?xml version="1.0" encoding="UTF-8"?>
<!DOCTYPE svg PUBLIC "-//W3C//DTD SVG 1.1//EN" "http://www.w3.org/Graphics/SVG/1.1/DTD/svg11.dtd">
<svg version="1.1" xmlns="http://www.w3.org/2000/svg" xmlns:xlink="http://www.w3.org/1999/xlink" x="0" y="0" width="15" height="15" viewBox="0 0 15 15">
<path d="M11,0 C12,0 12,0 12,1 L12,14 C12,15 12,15 11,15 C11,15 4,15 4,15 C3,15 3,15 3,14 L3,1 C3,0 3,0 4,0 L11,0 z M6.25,8 C6.25,8 5.5,8 5.5,8 C5,8 5,8.5 5,8.5 C5,8.5 5,13.5 5,13.5 C5,14 5.5,14 5.5,14 L9.5,14 C9.5,14 10,14 10,13.5 C10,13.5 10,8.5 10,8.5 C10,8 9.5,8 9.5,8 L8.75,8 C8.75,8 8.5,8.984 8.5,8.984 C8.5,9.234 6.5,9.234 6.5,8.984 C6.5,8.984 6.25,8 6.25,8 z M10.5,1 L4.5,1 C4.5,1 4,1 4,1.5 C4,1.5 4,5.5 4,5.5 C4,5.5 4,6 4.5,6 C4.5,6 10.5,6 10.5,6 C10.5,6 11,6 11,5.5 C11,5.5 11,1.5 11,1.5 C11,1 10.5,1 10.5,1 z"/>
<path d="M6.25,11.5 C6.25,11.75 8.75,11.75 8.75,11.5 C8.75,11.5 8.5,13.5 8.5,13.5 C8.5,14 6.5,14 6.5,13.5 C6.5,13.5 6.25,11.5 6.25,11.5 z M6.5,11.25 C6.5,11.5 8.5,11.5 8.5,11.25 C8.5,11.25 8.5,11 8.25,11 C8.25,11 8.5,10.594 8,10.594 C7.75,10.5 8,10 7.75,9.75 C7.25,10 7,10.25 7.25,10.5 C6.75,10.5 6.88,10.902 6.88,10.902 C6.88,10.902 6.5,11 6.5,11.25 z"/>
<path d="M8.5,3 C8.658,2.684 8.597,1.968 8.25,1.75 C7.903,1.532 7.097,1.532 6.75,1.75 C6.403,1.968 6.342,2.684 6.5,3 C6.342,3 6.25,3.092 6.25,3.25 C6.25,3.408 6.342,3.5 6.5,3.5 L8.5,3.5 C8.658,3.5 8.75,3.408 8.75,3.25 C8.75,3.092 8.658,3 8.5,3 z M7.5,5.5 C7.658,5.5 8.5,3.75 8.5,3.75 L6.5,3.75 C6.5,3.75 7.342,5.5 7.5,5.5 z"/>
</svg>
