<?xml version="1.0" encoding="UTF-8"?>
<!DOCTYPE svg PUBLIC "-//W3C//DTD SVG 1.1//EN" "http://www.w3.org/Graphics/SVG/1.1/DTD/svg11.dtd">
<svg version="1.1" xmlns="http://www.w3.org/2000/svg" xmlns:xlink="http://www.w3.org/1999/xlink" x="0" y="0" width="15" height="15" viewBox="0 0 15 15">
<path d="M11,0 C12,0 12,0 12,1 L12,14 C12,15 12,15 11,15 C11,15 4,15 4,15 C3,15 3,15 3,14 L3,1 C3,0 3,0 4,0 L11,0 z M6.25,8 C6.25,8 5.5,8 5.5,8 C5,8 5,8.5 5,8.5 C5,8.5 5,13.5 5,13.5 C5,14 5.5,14 5.5,14 L9.5,14 C9.5,14 10,14 10,13.5 C10,13.5 10,8.5 10,8.5 C10,8 9.5,8 9.5,8 L8.75,8 C8.75,8 8.5,8.984 8.5,8.984 C8.5,9.234 6.5,9.234 6.5,8.984 C6.5,8.984 6.25,8 6.25,8 z M10.5,1 L4.5,1 C4.5,1 4,1 4,1.5 C4,1.5 4,5.5 4,5.5 C4,5.5 4,6 4.5,6 C4.5,6 10.5,6 10.5,6 C10.5,6 11,6 11,5.5 C11,5.5 11,1.5 11,1.5 C11,1 10.5,1 10.5,1 z"/>
<path d="M6.5,11 C6.5,11.25 8.5,11.25 8.5,11 C8.5,11 8.25,13.5 8.25,13.5 C8.25,14 6.75,14 6.75,13.5 C6.75,13.5 6.5,11 6.5,11 z M7.751,9.507 C7.819,9.502 7.879,9.554 7.885,9.623 C7.889,9.68 7.889,9.68 7.894,9.748 C7.899,9.816 7.847,9.876 7.779,9.882 C7.71,9.887 7.65,9.835 7.645,9.766 C7.64,9.699 7.64,9.699 7.635,9.641 C7.63,9.573 7.682,9.513 7.751,9.507 z M7.788,10.006 C7.857,10.001 7.917,10.053 7.922,10.121 C7.926,10.184 7.926,10.184 7.931,10.246 C7.936,10.315 7.885,10.375 7.816,10.38 C7.747,10.385 7.687,10.334 7.682,10.265 C7.677,10.203 7.677,10.203 7.673,10.14 C7.667,10.071 7.719,10.011 7.788,10.006 z M7.825,10.505 C7.756,10.51 7.705,10.57 7.71,10.639 C7.717,10.74 7.717,10.74 7.719,10.763 C7.724,10.832 7.784,10.884 7.853,10.879 C7.922,10.874 7.974,10.814 7.968,10.745 C7.967,10.721 7.967,10.721 7.959,10.62 C7.954,10.551 7.894,10.5 7.825,10.505 z M7.249,9.508 C7.318,9.513 7.37,9.573 7.365,9.642 C7.36,9.699 7.36,9.699 7.355,9.766 C7.35,9.835 7.29,9.887 7.221,9.882 C7.153,9.876 7.101,9.816 7.106,9.748 C7.111,9.68 7.111,9.68 7.115,9.623 C7.121,9.554 7.181,9.502 7.249,9.508 z M7.212,10.006 C7.281,10.011 7.333,10.071 7.327,10.14 C7.323,10.203 7.323,10.203 7.318,10.265 C7.313,10.334 7.253,10.385 7.184,10.38 C7.115,10.375 7.064,10.315 7.069,10.246 C7.074,10.184 7.074,10.184 7.078,10.121 C7.083,10.053 7.143,10.001 7.212,10.006 z M7.175,10.505 C7.106,10.5 7.046,10.551 7.041,10.62 C7.033,10.721 7.033,10.721 7.031,10.745 C7.026,10.814 7.078,10.874 7.147,10.879 C7.216,10.884 7.276,10.832 7.281,10.763 C7.283,10.74 7.283,10.74 7.29,10.639 C7.295,10.57 7.244,10.51 7.175,10.505 z"/>
<path d="M8.75,2.5 C8.75,2.5 8.25,5.5 8.25,5.5 C8.25,5.5 6.75,5.5 6.75,5.5 C6.75,5.5 6.25,2.5 6.25,2.5 L8,2.5 C8,2.5 8.5,1.25 8.5,1.25 C8.547,1.125 8.781,1.156 8.75,1.25 C8.75,1.25 8.25,2.5 8.25,2.5 C8.25,2.5 8.75,2.5 8.75,2.5 z"/>
</svg>
