<?xml version="1.0" encoding="UTF-8"?>
<!DOCTYPE svg PUBLIC "-//W3C//DTD SVG 1.1//EN" "http://www.w3.org/Graphics/SVG/1.1/DTD/svg11.dtd">
<svg version="1.1" xmlns="http://www.w3.org/2000/svg" xmlns:xlink="http://www.w3.org/1999/xlink" x="0" y="0" width="15" height="15" viewBox="0 0 15 15">
    <path d="M12,0 C12.552,0 13,0.448 13,1 L13,14 C13,14.552 12.552,15 12,15 L3,15 C2.448,15 2,14.552 2,14 L2,1 C2,0.448 2.448,0 3,0 L12,0 z M9,11 L6,11 L6,12.5 L9,12.5 L9,11 z M9,6 L8,6 L8,7 L9,7 L9,6 z M5,6 L4,6 L4,7 L5,7 L5,6 z M7,6 L6,6 L6,7 L7,7 L7,6 z M11,6 L10,6 L10,7 L11,7 L11,6 z M11,4 L10,4 L10,5 L11,5 L11,4 z M7,4 L6,4 L6,5 L7,5 L7,4 z M5,4 L4,4 L4,5 L5,5 L5,4 z M9,4 L8,4 L8,5 L9,5 L9,4 z M9,2 L8,2 L8,3 L9,3 L9,2 z M5,2 L4,2 L4,3 L5,3 L5,2 z M7,2 L6,2 L6,3 L7,3 L7,2 z M11,2 L10,2 L10,3 L11,3 L11,2 z"/>
</svg>
