<?xml version="1.0" encoding="UTF-8"?>
<svg width="15px" height="15px" viewBox="0 0 15 15" version="1.1" xmlns="http://www.w3.org/2000/svg" xmlns:xlink="http://www.w3.org/1999/xlink">
    <path d="M11.2285714,11.7428571 L11.2239403,11.7683282 C11.0942611,12.4815642 10.4730647,13 9.74813547,13 L5.25186453,13 C4.52693531,13 3.90573895,12.4815642 3.77605966,11.7683282 L3.6,10.8 L6,10 L3.29032258,9.09677419 L3.05714286,7.81428571 L5.5,7 L2.74193548,6.08064516 L2.51428571,4.82857143 L5,4 L2.34702285,3.11567428 C2.49164449,2.57139775 2.93822441,2.13160723 3.52899092,2.02419513 C3.61752681,2.0080977 3.70733167,2 3.79731908,2 L11.2026809,2 C12.031108,2 12.7026809,2.67157288 12.7026809,3.5 C12.7026809,3.5899874 12.6945832,3.67979226 12.6784858,3.76832816 L12.6129032,4.12903226 L10,5 L12.3142857,5.77142857 L12.0645161,7.14516129 L9.5,8 L11.7714286,8.75714286 L11.516129,10.1612903 L9,11 L11.2285714,11.7428571 L11.2285714,11.7428571 Z M7,0 L8,0 L8,1.5 L7,1.5 L7,0 Z M7,13.5 L8,13.5 L8,15 L7,15 L7,13.5 Z"></path>
</svg>
