<svg viewBox="0 0 15 15" xmlns="http://www.w3.org/2000/svg"><path fill="currentColor" fill-rule="evenodd" d="M10.346.636c-.324.05-.615.267-.804.536-.445.601-.56 1.344-.771 2.043-.237.902-.466 1.822-.603 2.745-.022.266.18.324.435.067.884-.823 1.755-1.693 2.611-2.544.209-.222.417-.44.569-.703.237-.396.348-.92.1-1.34-.255-.424-.724-.712-1.205-.803-.111-.022-.227-.017-.334 0zM4.52.703C4.025.712 3.534.968 3.214 1.34c-.296.342-.285.841-.1 1.238.297.686.874 1.175 1.373 1.708.662.657 1.345 1.294 2.076 1.875.219.152.362.014.268-.335C6.561 4.648 6.267 3.479 5.96 2.31 5.873 2.02 5.777 1.703 5.625 1.44 5.401 1.036 5.008.699 4.52.703zM1.071 6.06c-.35.062-.691.251-.871.57C-.04 7.062-.061 7.606.1 8.069c.149.427.602.697 1.038.736.743.086 1.432-.203 2.143-.368.9-.244 1.81-.495 2.678-.837.242-.113.183-.341-.167-.435C4.638 6.81 3.476 6.48 2.31 6.161c-.295-.07-.6-.1-.904-.1h-.334zM13.594 6.06c-.305.001-.6.03-.895.101-1.165.318-2.328.648-3.482 1.004-.35.094-.409.322-.167.436.868.342 1.778.593 2.679.837.71.165 1.4.454 2.142.368.437-.039.89-.309 1.038-.736.201-.463.18-1.007-.04-1.44-.241-.424-.744-.577-1.205-.569zM6.73 8.638c-.043.002-.113.029-.168.067C5.832 9.286 5.149 9.957 4.487 10.614c-.499.533-1.076.988-1.373 1.673-.185.398-.196.897.1 1.24.32.37.81.66 1.306.663.488.004.881-.37 1.105-.773.152-.264.248-.546.335-.837.307-1.169.6-2.37.87-3.548.07-.262.028-.409-.1-.393zM8.304 8.705c-.08.015-.145.101-.135.235.136.923.366 1.81.603 2.712.211.699.326 1.475.77 2.076.252.359.694.587 1.138.502.482-.09.95-.379 1.206-.803.237-.396.126-.92-.111-1.316-.152-.264-.361-.482-.569-.703-.857-.852-1.727-1.688-2.611-2.511-.128-.128-.222-.182-.301-.167z"/></svg>
