<?xml version="1.0" encoding="UTF-8"?>
<!DOCTYPE svg PUBLIC "-//W3C//DTD SVG 1.1//EN" "http://www.w3.org/Graphics/SVG/1.1/DTD/svg11.dtd">
<svg version="1.1" xmlns="http://www.w3.org/2000/svg" xmlns:xlink="http://www.w3.org/1999/xlink" x="0" y="0" width="15" height="15" viewBox="0 0 15 15">
  <path d="M6.5,8a.5.5,0,0,1,.5.5v1a.5.5,0,0,1-.5.5h-3A.5.5,0,0,1,3,9.5v-1A.5.5,0,0,1,3.5,8ZM5,6.5a.5.5,0,0,0,.5.5h3A.5.5,0,0,0,9,6.5v-1A.5.5,0,0,0,8.5,5h-3a.5.5,0,0,0-.5.5ZM8.5,11h-3a.5.5,0,0,0-.5.5v1a.5.5,0,0,0,.5.5h3a.5.5,0,0,0,.5-.5v-1A.5.5,0,0,0,8.5,11Zm5-9h-2a.5.5,0,0,0-.5.5v1a.5.5,0,0,0,.5.5H13V5H10.5a.5.5,0,0,0-.5.5v1a.5.5,0,0,0,.5.5H13v4H10.5a.5.5,0,0,0-.5.5v1a.5.5,0,0,0,.5.5h3a.5.5,0,0,0,.5-.5V2.5A.5.5,0,0,0,13.5,2Zm-4,0h-3a.5.5,0,0,0-.5.5v1a.5.5,0,0,0,.5.5h3a.5.5,0,0,0,.5-.5v-1A.5.5,0,0,0,9.5,2Zm-5,0h-3a.5.5,0,0,0-.5.5v10a.5.5,0,0,0,.5.5h2a.5.5,0,0,0,.5-.5v-1a.5.5,0,0,0-.5-.5H2V7H3.5A.5.5,0,0,0,4,6.5v-1A.5.5,0,0,0,3.5,5H2V4H4.5A.5.5,0,0,0,5,3.5v-1A.5.5,0,0,0,4.5,2ZM8,8.5v1a.5.5,0,0,0,.5.5h3a.5.5,0,0,0,.5-.5v-1a.5.5,0,0,0-.5-.5h-3A.5.5,0,0,0,8,8.5Z"/>
</svg>
