<?xml version="1.0" encoding="UTF-8"?>
<svg version="1.1" xmlns="http://www.w3.org/2000/svg" xmlns:xlink="http://www.w3.org/1999/xlink" x="0" y="0" viewBox="0 0 15 15">
  <path d="M9 0.5C9 0.5 9 1 9 1C9 1 12.5 1 12.5 1C13 1 13 1.5 13 1.5L13 13.5C13 13.5 13 14 12.5 14C12.5 14 9 14 9 14L9 14.5C9 15 6 15 6 14.5L6 14C6 14 2.5 14 2.5 14C2 14 2 13.5 2 13.5L2 1.5C2 1.5 2 1 2.5 1C2.5 1 6 1 6 1C6 1 6 0.5 6 0.5C6 0 9 0 9 0.5zM7.5 3C5 3 3 5 3 7.5C3 10 5 12 7.5 12C10 12 12 10 12 7.5C12 5 10 3 7.5 3z"/>
  <path d="M4.4 7.09C4.57 7.11 5.37 7.19 5.57 7.21C5.77 7.24 5.69 7.81 5.51 7.79C5.33 7.78 4.54 7.7 4.34 7.67C4.15 7.65 4.24 7.07 4.4 7.09zM9.47 7.09C9.7 7.06 10.36 7 10.62 6.98C10.88 6.96 10.89 7.57 10.65 7.59C10.42 7.61 9.79 7.67 9.55 7.7C9.3 7.72 9.23 7.12 9.47 7.09zM7.42 7.16C7.49 6.98 8 7.14 7.94 7.35C7.87 7.57 7.65 8.27 7.59 8.46C7.52 8.65 6.94 8.51 7.02 8.3C7.1 8.1 7.37 7.32 7.42 7.16zM8.89 8.8C9.09 8.88 9.82 9.15 9.98 9.22C10.14 9.29 9.95 9.85 9.77 9.77C9.55 9.7 8.88 9.44 8.68 9.35C8.48 9.26 8.69 8.73 8.89 8.8zM5.67 8.86C5.72 8.98 6.03 9.83 6.08 10C6.13 10.17 5.61 10.38 5.54 10.19C5.46 10 5.24 9.29 5.17 9.1C5.1 8.91 5.62 8.73 5.67 8.86zM7.09 9.78C7.28 9.85 8.01 10.08 8.21 10.15C8.4 10.21 8.24 10.77 8.03 10.7C7.82 10.63 7.1 10.41 6.91 10.34C6.72 10.27 6.9 9.71 7.09 9.78zM11.25 5.75C10.5 6.5 10.13 6.5 9.38 5.75C8.63 6.5 8.25 6.5 7.5 5.75C6.75 6.5 6.38 6.5 5.63 5.75C4.88 6.5 4.5 6.5 3.75 5.75C3.5 6.5 3.5 7.25 3.5 7.5C3.5 9.5 5.25 11.5 7.5 11.5C9.75 11.5 11.5 9.5 11.5 7.5C11.5 7.5 11.5 6.5 11.25 5.75z"/>
</svg>