<?xml version="1.0" encoding="UTF-8"?>
<svg version="1.1" xmlns="http://www.w3.org/2000/svg" xmlns:xlink="http://www.w3.org/1999/xlink" x="0" y="0" viewBox="0 0 15 15">
  <path d="M6 0.5C6 0.5 6 2 6 2C6 2 8.5 2 8.5 2C9 2 9 2.5 9 2.5L9 12.5C9 12.5 9 13 8.5 13C8.5 13 6 13 6 13L6 14.5C6 15 3 15 3 14.5L3 13C3 13 0.5 13 0.5 13C0 13 0 12.5 0 12.5L0 2.5C0 2.5 0 2 0.5 2C0.5 2 3 2 3 2C3 2 3 0.5 3 0.5C3 0 6 0 6 0.5zM4.5 3.75C2.25 3.75 0.75 5.25 0.75 7.5C0.75 9.75 2.25 11.25 4.5 11.25C6.75 11.25 8.25 9.75 8.25 7.5C8.25 5.25 6.75 3.75 4.5 3.75z"/>
  <path d="M4.5 4.5C6.2 4.5 7.5 5.9 7.5 7.5C7.5 9.1 6.2 10.5 4.5 10.5C2.8 10.5 1.5 9.2 1.5 7.5C1.5 5.8 2.8 4.5 4.5 4.5zM3.9 8.2C3.9 8.2 2.75 9 2.75 9C2.75 9 3.3 9.8 4.5 9.8C5.7 9.8 6.25 9 6.25 9C6.25 9 5.1 8.2 5.1 8.2C4.72 8.45 4.28 8.45 3.9 8.2zM4.1 5.2C3.1 5.4 2.2 6.4 2.2 7.5C2.2 8.13 2.38 8.38 2.38 8.38C2.38 8.38 3.6 7.6 3.6 7.6C3.6 7.6 3.5 7 4.1 6.7C4.1 6.7 4.1 5.2 4.1 5.2zM4.9 5.2C4.9 5.2 4.9 6.7 4.9 6.7C5.5 7 5.4 7.6 5.4 7.6C5.4 7.6 6.63 8.38 6.63 8.38C6.63 8.38 6.8 8.1 6.8 7.5C6.8 6.4 5.9 5.4 4.9 5.2z"/>
  <path d="M12 4.75C13.5 4.75 14.75 6 14.75 7.5C14.75 9 13.5 10.25 12 10.25C10.5 10.25 9.25 9 9.25 7.5C9.25 6 10.5 4.75 12 4.75zM12 5.13C10.75 5.13 9.63 6.25 9.63 7.5C9.63 8.75 10.75 9.88 12 9.88C13.25 9.88 14.38 8.75 14.38 7.5C14.38 6.25 13.25 5.13 12 5.13zM10.3 7.32C10.39 7.33 10.82 7.38 10.93 7.39C11.04 7.4 11 7.72 10.9 7.71C10.8 7.7 10.37 7.65 10.26 7.64C10.16 7.63 10.21 7.31 10.3 7.32zM13.05 7.32C13.18 7.31 13.54 7.28 13.68 7.26C13.83 7.25 13.83 7.58 13.7 7.6C13.57 7.61 13.23 7.64 13.1 7.66C12.96 7.67 12.93 7.34 13.05 7.32zM11.94 7.36C11.98 7.27 12.26 7.35 12.22 7.47C12.19 7.59 12.07 7.97 12.03 8.07C11.99 8.17 11.68 8.1 11.72 7.99C11.77 7.87 11.91 7.45 11.94 7.36zM12.74 8.26C12.85 8.3 13.25 8.45 13.34 8.49C13.42 8.52 13.32 8.83 13.22 8.78C13.1 8.74 12.74 8.6 12.63 8.56C12.52 8.51 12.63 8.22 12.74 8.26zM10.98 8.29C11.01 8.36 11.18 8.82 11.21 8.91C11.24 9 10.96 9.12 10.92 9.02C10.87 8.91 10.75 8.52 10.71 8.42C10.68 8.32 10.96 8.22 10.98 8.29zM11.76 8.79C11.87 8.83 12.26 8.96 12.37 8.99C12.47 9.02 12.38 9.33 12.27 9.29C12.16 9.26 11.77 9.13 11.66 9.1C11.56 9.06 11.66 8.75 11.76 8.79zM14 6.63C13.75 7 13.38 7 13 6.63C12.63 7 12.38 7 12 6.63C11.63 7 11.38 7 11 6.63C10.63 7 10.38 7 10 6.63C9.89 7.03 9.88 7.5 9.88 7.5C9.88 8.63 10.75 9.63 12 9.63C13.25 9.63 14.13 8.63 14.13 7.5C14.13 7.5 14.13 7 14 6.63z"/>
</svg>