<?xml version="1.0" encoding="UTF-8"?>
<!DOCTYPE svg PUBLIC "-//W3C//DTD SVG 1.1//EN" "http://www.w3.org/Graphics/SVG/1.1/DTD/svg11.dtd">
<svg version="1.1" xmlns="http://www.w3.org/2000/svg" xmlns:xlink="http://www.w3.org/1999/xlink" x="0" y="0" width="15" height="15" viewBox="0 0 15 15">
<path d="M3,0.5 C3,0 4,0 4,0.5 C4,1.5 5.5,3 5.5,4 C5.5,5 4,6.5 4,7.5 C4,8.5 5.5,10 5.5,11 C5.5,12 4,13.5 4,14.5 C4,15 3,15 3,14.5 C3,13 4.5,12 4.5,11 C4.5,10 3,9 3,7.5 C3,6 4.5,5 4.5,4 C4.5,3 3,2 3,0.5 z M9.5,0.5 C9.5,1.5 11,3 11,4 C11,5 9.5,6.5 9.5,7.5 C9.5,8.5 11,10 11,11 C11,12 9.5,13.5 9.5,14.5 C9.5,15 10.5,15 10.5,14.5 C10.5,13.5 12,12.5 12,11 C12,9.5 10.5,8.5 10.5,7.5 C10.5,6.5 12,5.5 12,4 C12,2.5 10.5,1.5 10.5,0.5 C10.5,0 9.5,0 9.5,0.5 z M8,2.5 C8.5,3 8.5,4 8,4 C7.5,4 7,4 7,3.5 C7,3 7.5,2.5 8,2.5 z M7,7 C8,7 7,8 7,8 C6.5,8.5 6,8 6,7.5 C6.5,7 6.5,7 7,7 z M8,10.5 C8.5,10.5 9,10.5 9,11 C9,11.5 9,12 8.5,12 C7.5,12 7.5,11 8,10.5 z M8.5,0.5 C8.5,0 5,0 5,0.5 C5,1.5 6.5,3 6.5,4 C6.5,5 5,6.5 5,7.5 C5,8.5 6.5,10 6.5,11 C6.5,12 5,13.5 5,14.5 C5,15 5.5,15 6,14.5 C6.5,14 7.5,13.793 7.5,14.5 C7.5,15 8.5,15 8.5,14.5 C8.5,13.5 10,12 10,11 C10,10 8.5,8.5 8.5,7.5 C8.5,6.5 10,5 10,4 C10,3 8.5,1.5 8.5,0.5 z"/>
</svg>
