<?xml version="1.0" encoding="UTF-8"?>
<!DOCTYPE svg PUBLIC "-//W3C//DTD SVG 1.1//EN" "http://www.w3.org/Graphics/SVG/1.1/DTD/svg11.dtd">
<svg version="1.1" xmlns="http://www.w3.org/2000/svg" xmlns:xlink="http://www.w3.org/1999/xlink" x="0" y="0" width="15" height="15" viewBox="0 0 15 15">
<path d="M6,0.5 C6,0.5 6,2 6,2 C6,2 8.5,2 8.5,2 C9,2 9,2.5 9,2.5 L9,12.5 C9,12.5 9,13 8.5,13 C8.5,13 6,13 6,13 L6,14.5 C6,15 3,15 3,14.5 L3,13 C3,13 0.5,13 0.5,13 C0,13 0,12.5 0,12.5 L0,2.5 C0,2.5 0,2 0.5,2 C0.5,2 3,2 3,2 C3,2 3,0.5 3,0.5 C3,0 6,0 6,0.5 z M4.5,4 C2.5,4 1,5.5 1,7.5 C1,9.5 2.5,11 4.5,11 C6.5,11 8,9.5 8,7.5 C8,5.5 6.5,4 4.5,4 z"/>
<path d="M3,9 C3,9 6,9 6,9 C6.5,9 6.5,10 6,10 C6,10 3,10 3,10 C2.5,10 2.5,9 3,9 z M2.5,5.5 C2.25,5.75 3.6,7.1 3.6,7.1 C3.6,7.1 3.5,7.3 3.5,7.5 C3.5,8 3.875,8.5 4.5,8.5 C5.125,8.5 5.5,8 5.5,7.5 C5.5,7 5.125,6.5 4.5,6.5 C4.2,6.5 4.1,6.6 4.1,6.6 C4.1,6.6 2.75,5.25 2.5,5.5 z"/>
<path d="M12,4.75 C13.5,4.75 14.75,6 14.75,7.5 C14.75,9 13.5,10.25 12,10.25 C10.5,10.25 9.25,9 9.25,7.5 C9.25,6 10.5,4.75 12,4.75 z M12,5.125 C10.75,5.125 9.625,6.25 9.625,7.5 C9.625,8.75 10.75,9.875 12,9.875 C13.25,9.875 14.375,8.75 14.375,7.5 C14.375,6.25 13.25,5.125 12,5.125 z M10.295,7.323 C10.385,7.333 10.823,7.377 10.93,7.39 C11.038,7.403 10.996,7.717 10.897,7.708 C10.798,7.698 10.368,7.654 10.262,7.641 C10.156,7.628 10.206,7.314 10.295,7.323 z M13.054,7.324 C13.183,7.307 13.542,7.276 13.683,7.263 C13.825,7.25 13.831,7.584 13.703,7.597 C13.574,7.61 13.234,7.642 13.099,7.655 C12.964,7.668 12.926,7.34 13.054,7.324 z M11.941,7.363 C11.975,7.265 12.258,7.352 12.223,7.467 C12.187,7.587 12.068,7.968 12.031,8.07 C11.994,8.172 11.679,8.098 11.722,7.985 C11.765,7.872 11.91,7.449 11.941,7.363 z M12.74,8.258 C12.849,8.297 13.248,8.449 13.336,8.486 C13.423,8.524 13.318,8.829 13.222,8.784 C13.103,8.745 12.736,8.604 12.626,8.556 C12.516,8.507 12.632,8.218 12.74,8.258 z M10.984,8.287 C11.013,8.357 11.181,8.818 11.209,8.91 C11.237,9.002 10.955,9.117 10.915,9.015 C10.874,8.912 10.751,8.522 10.713,8.42 C10.676,8.318 10.956,8.218 10.984,8.287 z M11.761,8.792 C11.865,8.831 12.263,8.956 12.368,8.99 C12.473,9.024 12.384,9.33 12.27,9.293 C12.156,9.256 11.768,9.134 11.663,9.096 C11.558,9.057 11.658,8.754 11.761,8.792 z M14,6.625 C13.75,7 13.375,7 13,6.625 C12.625,7 12.375,7 12,6.625 C11.625,7 11.375,7 11,6.625 C10.625,7 10.375,7 10,6.625 C9.888,7.031 9.875,7.5 9.875,7.5 C9.875,8.625 10.75,9.625 12,9.625 C13.25,9.625 14.125,8.625 14.125,7.5 C14.125,7.5 14.125,7 14,6.625 z"/>
</svg>
