<?xml version="1.0" encoding="UTF-8"?>
<!DOCTYPE svg PUBLIC "-//W3C//DTD SVG 1.1//EN" "http://www.w3.org/Graphics/SVG/1.1/DTD/svg11.dtd">
<svg version="1.1" xmlns="http://www.w3.org/2000/svg" xmlns:xlink="http://www.w3.org/1999/xlink" x="0" y="0" width="15" height="15" viewBox="0 0 15 15">
<path d="M9,0.5 C9,0.5 9,1 9,1 C9,1 12.5,1 12.5,1 C13,1 13,1.5 13,1.5 L13,13.5 C13,13.5 13,14 12.5,14 C12.5,14 9,14 9,14 L9,14.5 C9,15 6,15 6,14.5 L6,14 C6,14 2.5,14 2.5,14 C2,14 2,13.5 2,13.5 L2,1.5 C2,1.5 2,1 2.5,1 C2.5,1 6,1 6,1 C6,1 6,0.5 6,0.5 C6,0 9,0 9,0.5 z M7.5,3 C5,3 3,5 3,7.5 C3,10 5,12 7.5,12 C10,12 12,10 12,7.5 C12,5 10,3 7.5,3 z"/>
<path d="M4.403,7.089 C4.567,7.106 5.371,7.188 5.568,7.211 C5.766,7.235 5.688,7.811 5.507,7.794 C5.326,7.776 4.536,7.695 4.342,7.671 C4.148,7.648 4.24,7.071 4.403,7.089 z M9.465,7.089 C9.702,7.059 10.36,7.002 10.619,6.978 C10.878,6.955 10.89,7.567 10.654,7.591 C10.419,7.614 9.794,7.673 9.547,7.697 C9.299,7.72 9.229,7.12 9.465,7.089 z M7.422,7.162 C7.485,6.982 8.003,7.14 7.94,7.352 C7.874,7.572 7.654,8.271 7.587,8.458 C7.52,8.645 6.941,8.51 7.02,8.303 C7.099,8.096 7.366,7.319 7.422,7.162 z M8.889,8.803 C9.088,8.876 9.821,9.153 9.981,9.223 C10.142,9.292 9.948,9.851 9.772,9.769 C9.553,9.696 8.88,9.439 8.679,9.35 C8.478,9.261 8.69,8.731 8.889,8.803 z M5.667,8.858 C5.719,8.984 6.027,9.83 6.079,9.999 C6.131,10.168 5.614,10.38 5.539,10.192 C5.464,10.004 5.238,9.288 5.17,9.101 C5.102,8.914 5.615,8.731 5.667,8.858 z M7.093,9.784 C7.282,9.854 8.013,10.084 8.206,10.146 C8.398,10.208 8.235,10.771 8.026,10.703 C7.816,10.634 7.104,10.411 6.912,10.341 C6.719,10.27 6.903,9.714 7.093,9.784 z M11.25,5.75 C10.5,6.5 10.125,6.5 9.375,5.75 C8.625,6.5 8.25,6.5 7.5,5.75 C6.75,6.5 6.375,6.5 5.625,5.75 C4.875,6.5 4.5,6.5 3.75,5.75 C3.5,6.5 3.5,7.25 3.5,7.5 C3.5,9.5 5.25,11.5 7.5,11.5 C9.75,11.5 11.5,9.5 11.5,7.5 C11.5,7.5 11.5,6.5 11.25,5.75 z"/>
</svg>
