<?xml version="1.0" encoding="UTF-8"?>
<!DOCTYPE svg PUBLIC "-//W3C//DTD SVG 1.1//EN" "http://www.w3.org/Graphics/SVG/1.1/DTD/svg11.dtd">
<svg version="1.1" xmlns="http://www.w3.org/2000/svg" xmlns:xlink="http://www.w3.org/1999/xlink" x="0" y="0" width="15" height="15" viewBox="0 0 15 15">
<path d="M7.5,0 C11.625,0 15,3.375 15,7.5 C15,11.625 11.642,15 7.5,15 C3.358,15 0,11.625 0,7.5 C0,3.375 3.375,0 7.5,0 z M7.5,0.5 C3.625,0.5 0.5,3.625 0.5,7.5 C0.5,11.375 3.625,14.5 7.5,14.5 L7.5,14.5 C11.375,14.5 14.5,11.375 14.5,7.5 C14.5,3.625 11.375,0.5 7.5,0.5 z M11,3 C11.5,3 11.5,4 11,4 L9.5,4 C9.25,4 7.75,3.25 8.25,3 L11,3 z M6.75,3 C7.25,3.25 5.75,4 5.5,4 L4,4 C3.5,4 3.5,3 4,3 L6.75,3 z M4,5 C4.5,5 3.75,6 3.5,6 C3.5,6 2.5,6 2.5,6 C2,6 2,5 2.5,5 C2.5,5 4,5 4,5 z M12.5,5 C13,5 13,6 12.5,6 L11.5,6 C11.25,6 10.5,5 11,5 L12.5,5 z M13,7 C13.5,7 13.5,8 13,8 L12,8 C11.5,8 11.5,7 12,7 L13,7 z M3,7 C3.5,7 3.5,8 3,8 L2,8 C1.5,8 1.5,7 2,7 L3,7 z M3.5,9 C3.75,9 4.5,10 4,10 C4,10 2.5,10 2.5,10 C2,10 2,9 2.5,9 C2.5,9 3.5,9 3.5,9 z M12.5,9 C13,9 13,10 12.5,10 L11,10 C10.5,10 11.25,9 11.5,9 L12.5,9 z M7.5,4 C9.367,4 11,5.633 11,7.5 C11,9.367 9.367,11 7.5,11 C5.633,11 4,9.367 4,7.5 C4,5.633 5.633,4 7.5,4 z M11,11 C11.5,11 11.5,12 11,12 L8.25,12 C7.75,11.75 9.25,11 9.5,11 L11,11 z M5.5,11 C5.75,11 7.25,11.75 6.75,12 L4,12 C3.5,12 3.5,11 4,11 L5.5,11 z M8.75,1.125 C8.75,1.125 8.5,2 7.5,2 C6.5,2 6.25,1.125 6.25,1.125 C3.125,1.75 1,4.5 1,7.5 C1,10.5 3.125,13.25 6.25,13.875 C6.25,13.875 6.5,13 7.5,13 C8.448,13 8.75,13.875 8.75,13.875 C11.875,13.25 14,10.5 14,7.5 C14,4.5 11.875,1.75 8.75,1.125 z"/>
<path d="M10.25,6 C10.5,6.529 10.5,7.235 10.5,7.5 C10.5,9.088 9.25,10.5 7.5,10.5 C5.75,10.5 4.5,9.088 4.5,7.5 C4.5,7.235 4.5,6.529 4.75,6 C5.25,6.529 5.651,6.529 6.151,6 C6.651,6.529 7,6.529 7.5,6 C8,6.529 8.375,6.529 8.875,6 C9.375,6.529 9.75,6.529 10.25,6 z M7.155,9.157 C7.016,9.102 6.879,9.538 7.022,9.593 C7.164,9.648 7.69,9.822 7.845,9.876 C8,9.929 8.12,9.489 7.978,9.44 C7.836,9.391 7.296,9.212 7.155,9.157 z M6.125,8.438 C6.047,8.266 5.656,8.438 5.734,8.622 C5.795,8.765 5.952,9.329 6.007,9.476 C6.063,9.623 6.445,9.458 6.406,9.325 L6.125,8.438 z M8.483,8.389 C8.336,8.333 8.18,8.748 8.328,8.817 C8.477,8.887 8.974,9.089 9.135,9.145 C9.266,9.209 9.409,8.772 9.29,8.717 C9.172,8.663 8.63,8.446 8.483,8.389 z M7.484,7.094 C7.406,7.267 7.161,7.836 7.102,7.998 C7.044,8.161 7.472,8.266 7.521,8.12 C7.609,7.969 7.766,7.547 7.844,7.281 C7.922,7.094 7.563,6.92 7.484,7.094 z M5.167,7.048 C5.047,7.034 4.979,7.485 5.122,7.504 C5.266,7.522 5.85,7.586 5.983,7.599 C6.117,7.613 6.175,7.162 6.029,7.144 C5.883,7.125 5.289,7.062 5.167,7.048 z M9.762,6.961 C9.571,6.979 9.083,7.024 8.909,7.048 C8.734,7.072 8.786,7.542 8.969,7.524 C9.152,7.505 9.614,7.459 9.788,7.441 C9.962,7.422 9.954,6.943 9.762,6.961 z"/>
</svg>
