<?xml version="1.0" encoding="UTF-8"?>
<svg viewBox="0 0 15 15" version="1.1" xmlns="http://www.w3.org/2000/svg" xmlns:xlink="http://www.w3.org/1999/xlink">
  <path d="M7.61 10.86L7.78 10L4.22 10L4.55 11.63C5.03 12.03 5.52 11.98 6 11.5C6.54 10.96 7.07 10.75 7.61 10.86L7.61 10.86ZM9 2L9 3L10 3C11.1 3 12 3.9 12 5L12 14L10 14L10 5L7 5L7 7L7.5 7C7.78 7 8 7.22 8 7.5L8 8L4 8L4 7.5C4 7.22 4.22 7 4.5 7L5 7L5 5C5 4 6 3 7 3L8 3L8 2L6.5 2C6.22 2 6 1.78 6 1.5C6 1.22 6.22 1 6.5 1L10.5 1C10.78 1 11 1.22 11 1.5C11 1.78 10.78 2 10.5 2L9 2ZM3 9L9 9L8.16 13.2C8.07 13.66 7.66 14 7.18 14L4.82 14C4.34 14 3.93 13.66 3.84 13.2L3 9Z"/>
</svg>