<?xml version="1.0" encoding="UTF-8"?>
<!DOCTYPE svg PUBLIC "-//W3C//DTD SVG 1.1//EN" "http://www.w3.org/Graphics/SVG/1.1/DTD/svg11.dtd">
<svg version="1.1" xmlns="http://www.w3.org/2000/svg" xmlns:xlink="http://www.w3.org/1999/xlink" x="0" y="0" width="15" height="15" viewBox="0 0 15 15">
<path d="M12.5,3.5 C12.75,3.5 15,6.5 15,8.5 C15,10 13.5,11 12.5,11 C11.5,11 10,10 10,8.5 C10,6.5 12.25,3.5 12.5,3.5 z M10.5,8.5 C10.5,9.5 11.5,10.5 12.5,10.5 C11.5,10 11,9.5 10.5,8.5 z"/>
<path d="M6,0.5 C6,0.5 6,2 6,2 C6,2 8.5,2 8.5,2 C9,2 9,2.5 9,2.5 L9,12.5 C9,12.5 9,13 8.5,13 C8.5,13 6,13 6,13 L6,14.5 C6,15 3,15 3,14.5 L3,13 C3,13 0.5,13 0.5,13 C0,13 0,12.5 0,12.5 L0,2.5 C0,2.5 0,2 0.5,2 C0.5,2 3,2 3,2 C3,2 3,0.5 3,0.5 C3,0 6,0 6,0.5 z M4.5,3.75 C2.25,3.75 0.75,5.25 0.75,7.5 C0.75,9.75 2.25,11.25 4.5,11.25 C6.75,11.25 8.25,9.75 8.25,7.5 C8.25,5.25 6.75,3.75 4.5,3.75 z"/>
<path d="M4.5,4.5 C6.2,4.5 7.5,5.9 7.5,7.5 C7.5,9.1 6.2,10.5 4.5,10.5 C2.8,10.5 1.5,9.2 1.5,7.5 C1.5,5.8 2.8,4.5 4.5,4.5 z M3.9,8.2 C3.9,8.2 2.75,9 2.75,9 C2.75,9 3.3,9.8 4.5,9.8 C5.7,9.8 6.25,9 6.25,9 C6.25,9 5.1,8.2 5.1,8.2 C4.725,8.45 4.275,8.45 3.9,8.2 z M4.1,5.2 C3.1,5.4 2.2,6.4 2.2,7.5 C2.2,8.125 2.375,8.375 2.375,8.375 C2.375,8.375 3.6,7.6 3.6,7.6 C3.6,7.6 3.5,7 4.1,6.7 C4.1,6.7 4.1,5.2 4.1,5.2 z M4.9,5.2 C4.9,5.2 4.9,6.7 4.9,6.7 C5.5,7 5.4,7.6 5.4,7.6 C5.4,7.6 6.625,8.375 6.625,8.375 C6.625,8.375 6.8,8.1 6.8,7.5 C6.8,6.4 5.9,5.4 4.9,5.2 z"/>
</svg>
