<?xml version="1.0" encoding="UTF-8"?>
<svg width="15px" height="15px" viewBox="0 0 15 15" version="1.1" xmlns="http://www.w3.org/2000/svg" xmlns:xlink="http://www.w3.org/1999/xlink">
    <path d="M8,2 L8,3 L9,3 C10.1045695,3 11,3.8954305 11,5 L11,14 L9,14 L9,5 L6,5.00002 L6,7 L6.5,7 C6.77614237,7 7,7.22385763 7,7.5 L7,8 L3,8 L3,7.5 C3,7.22385763 3.22385763,7 3.5,7 L4,7 L4,5.00002 C4,4.00002 5,3 6,3 L7,3 L7,2 L5.5,2 C5.22385763,2 5,1.77614237 5,1.5 C5,1.22385763 5.22385763,1 5.5,1 L9.5,1 C9.77614237,1 10,1.22385763 10,1.5 C10,1.77614237 9.77614237,2 9.5,2 L8,2 Z"></path>
</svg>
