<?xml version="1.0" encoding="UTF-8"?>
<svg width="15px" height="15px" viewBox="0 0 15 15" version="1.1" xmlns="http://www.w3.org/2000/svg" xmlns:xlink="http://www.w3.org/1999/xlink">
    <path d="M11,8.92305898 L12.1063391,13.3484152 C12.190057,13.6832871 11.9864566,14.0226211 11.6515848,14.1063391 C11.3167129,14.190057 10.9773789,13.9864566 10.8936609,13.6515848 L9.89656138,9.66318655 C9.40736429,9.83742075 8.81676908,9.9440562 8.12477575,9.98309291 C8.12492494,9.98871044 8.125,9.99434646 8.125,10 L8.125,13.5 C8.125,13.845178 7.84517797,14.125 7.5,14.125 C7.15482203,14.125 6.875,13.845178 6.875,13.5 L6.875,10 C6.875,9.99434646 6.87507506,9.98871044 6.87522425,9.98309291 C6.18323092,9.9440562 5.59263571,9.83742075 5.10343862,9.66318655 L4.10633906,13.6515848 C4.02262111,13.9864566 3.68328705,14.190057 3.34841523,14.1063391 C3.01354342,14.0226211 2.80994298,13.6832871 2.89366094,13.3484152 L4,8.92305898 L4,4.5 L11,4.5 L11,8.92305898 Z M7.5,1 L12,3 L12,4 L3,4 L3,3 L7.5,1 Z"></path>
</svg>
