<?xml version="1.0" encoding="UTF-8"?>
<svg width="15px" height="15px" viewBox="0 0 15 15" version="1.1" xmlns="http://www.w3.org/2000/svg" xmlns:xlink="http://www.w3.org/1999/xlink">
    <path d="M7.60787639,10.8615985 L7.7801961,10 L4.2198039,10 L4.54640572,11.6330091 C5.03093714,12.0288678 5.51546857,11.9845314 6,11.5 C6.5359588,10.9640412 7.07191759,10.7512407 7.60787639,10.8615985 L7.60787639,10.8615985 Z M9,2 L9,3 L10,3 C11.1045695,3 12,3.8954305 12,5 L12,14 L10,14 L10,5 L7,5.00002 L7,7 L7.5,7 C7.77614237,7 8,7.22385763 8,7.5 L8,8 L4,8 L4,7.5 C4,7.22385763 4.22385763,7 4.5,7 L5,7 L5,5.00002 C5,4.00002 6,3 7,3 L8,3 L8,2 L6.5,2 C6.22385763,2 6,1.77614237 6,1.5 C6,1.22385763 6.22385763,1 6.5,1 L10.5,1 C10.7761424,1 11,1.22385763 11,1.5 C11,1.77614237 10.7761424,2 10.5,2 L9,2 Z M3,9 L9,9 L8.16077677,13.1961161 C8.06729193,13.6635403 7.65687712,14 7.1801961,14 L4.8198039,14 C4.34312288,14 3.93270807,13.6635403 3.83922323,13.1961161 L3,9 Z"></path>
</svg>
