<?xml version="1.0" encoding="UTF-8"?>
<svg version="1.2" baseProfile="tiny" xmlns="http://www.w3.org/2000/svg" viewBox="0 0 50 50" overflow="inherit">
  <path d="M29.61 43.44c0.34 -0.06 0.69 -0.08 1.04 -0.08c1.07 0 2.1 0.24 3.01 0.67c0.89 0.39 1.88 0.62 2.92 0.62s2.05 -0.23 2.93 -0.62c0.91 -0.42 1.94 -0.67 3 -0.67c1.08 0 1.88 0.24 2.79 0.67c0.89 0.39 1.69 0.62 2.69 0.62v4.35c-1 0 -1.81 -0.23 -2.69 -0.64c-0.91 -0.41 -1.83 -0.66 -2.9 -0.66c-1.06 0 -2.04 0.25 -2.94 0.66c-0.89 0.4 -1.86 0.64 -2.9 0.64s-2.02 -0.23 -2.9 -0.64c-0.91 -0.41 -1.93 -0.66 -3 -0.66c-1.06 0 -2.09 0.25 -3.01 0.66c-0.89 0.4 -1.88 0.64 -2.92 0.64c-1.04 0 -2.03 -0.23 -2.92 -0.64c-0.91 -0.41 -1.93 -0.66 -3.01 -0.66c-1.08 0 -2.1 0.25 -3.01 0.66c-0.88 0.4 -1.88 0.64 -2.91 0.64c-1.04 0 -2.03 -0.23 -2.92 -0.64c-0.92 -0.41 -1.95 -0.66 -3.01 -0.66c-1.07 0 -2.1 0.25 -3.01 0.66c-0.89 0.4 -1.88 0.64 -2.92 0.64v-4.35c1.04 0 2.03 -0.23 2.92 -0.62c0.91 -0.42 1.94 -0.67 3.01 -0.67c1.06 0 2.09 0.24 3.01 0.67c0.89 0.39 1.88 0.62 2.92 0.62c1.03 0 2.03 -0.23 2.91 -0.62c0.52 -0.23 1.06 -0.42 1.63 -0.53l27.65 -4.89c0.9 -0.21 2.12 -0.83 2.54 -1.9c0.08 -0.2 0.38 -0.26 0.63 -0.25c0.45 0.03 0.78 0.41 0.78 0.86c0 0.7 -0.55 2.68 -3.57 3.28l-15.82 2.84zm-23.99 -34.5c2.21 0 4.01 -1.78 4.01 -3.98c0 -2.19 -1.8 -3.96 -4.01 -3.96c-2.21 0 -3.99 1.77 -3.99 3.96c0 2.19 1.79 3.98 3.99 3.98zm11.63 32.09c0.2 0.88 1.28 1.73 2.4 1.73l-0.01 0.01c1.4 0 2.55 -1.13 2.55 -2.53l-0.05 -0.41l-3.05 -12.98c-0.26 -0.83 -1.05 -1.62 -1.87 -1.95l-4.48 -2.67l-2.04 -8.75l12.6 -0.02c1.03 0 1.86 -0.69 1.86 -1.72c0 -1.02 -0.83 -1.73 -1.86 -1.73h-18.19c-1.82 0 -2.66 1.17 -2.44 2.29l2.58 11.54c0.2 1.09 0.92 1.98 1.89 2.46l0.06 0.01l7.5 4.37l2.56 10.37zm8.75 -29.03h23v1h-23z"/>
</svg>