<?xml version="1.0" encoding="UTF-8"?>
<!DOCTYPE svg PUBLIC "-//W3C//DTD SVG 1.1//EN" "http://www.w3.org/Graphics/SVG/1.1/DTD/svg11.dtd">
<svg version="1.1" xmlns="http://www.w3.org/2000/svg" xmlns:xlink="http://www.w3.org/1999/xlink" x="0" y="0" width="15" height="15" viewBox="0 0 15 15">
<path d="M9,0.5 C9,0.5 9,1 9,1 C9,1 12.5,1 12.5,1 C13,1 13,1.5 13,1.5 L13,13.5 C13,13.5 13,14 12.5,14 C12.5,14 9,14 9,14 L9,14.5 C9,15 6,15 6,14.5 L6,14 C6,14 2.5,14 2.5,14 C2,14 2,13.5 2,13.5 L2,1.5 C2,1.5 2,1 2.5,1 C2.5,1 6,1 6,1 C6,1 6,0.5 6,0.5 C6,0 9,0 9,0.5 z M7.5,3 C5,3 3,5 3,7.5 C3,10 5,12 7.5,12 C10,12 12,10 12,7.5 C12,5 10,3 7.5,3 z"/>
<path d="M7.5,4 C7.75,4 10,7 10,8.5 C10,10 8.5,11 7.5,11 C6.5,11 5,10 5,8.5 C5,7 7.25,4 7.5,4 z M5.5,8.5 C5.5,9.5 6.5,10.5 7.5,10.5 C6.5,10 6,9.5 5.5,8.5 z"/>
</svg>
