<?xml version="1.0" encoding="UTF-8"?>
<svg viewBox="0 0 15 15" version="1.1" xmlns="http://www.w3.org/2000/svg" xmlns:xlink="http://www.w3.org/1999/xlink">
  <path d="M5,2 L3.5,2 C3.25,2 3,1.75 3,1.5 C3,1.25 3.25,1 3.5,1 L7.5,1 C7.75,1 8,1.25 8,1.5 C8,1.75 7.75,2 7.5,2 L6,2 L6,3 L7,3 C8.1,3 9,3.9 9,5 L9,8 L13.2,8.8 C13.66,8.9 14,9.33 14,9.8 L14,10 L10.5,10 C10.25,10 10,10.25 10,10.5 C10,10.75 10.25,11 10.5,11 L14,11 L14,12 L10.5,12 C10.25,12 10,12.25 10,12.5 C10,12.75 10.25,13 10.5,13 L14,13 C14,13.5 13.5,14 13,14 L7,14 C5.67,13.33 5,12.33 5,11 C5,9.67 5.67,8.67 7,8 L7,5 C5.67,5 4,5 4,5 L4,7 L4.5,7 C4.75,7 5,7.25 5,7.5 L5,8 L1,8 L1,7.5 C1,7.25 1.25,7 1.5,7 L2,7 L2,5 C2,4 3,3 4,3 L5,3 L5,2 Z"/>
</svg>