<?xml version="1.0" encoding="UTF-8"?>
<svg viewBox="0 0 15 15" version="1.1" xmlns="http://www.w3.org/2000/svg" xmlns:xlink="http://www.w3.org/1999/xlink">
  <path d="M7.5,4 L7.5,4 L7.5,5 L4,5 C3,5 2,6 2,7 L2,9 L1.5,9 C1.25,9 1,9.25 1,9.5 L1,10 L5,10 L5,9.5 C5,9.25 4.75,9 4.5,9 L4,9 L4,7 C4,7 5.67,7 7,7 L7,13 L4.5,13 C4.25,13 4,13.25 4,13.5 L4,14 L12,14 L12,13.5 C12,13.25 11.75,13 11.5,13 L9,13 L9,5 L9,4 C9,4 11,4 11,7 C11,10 14,11 14,11 L14,9.5 C14,9.5 12,9 12,6 C12,1 8.5,1 7.5,1 C7.5,1 7.5,1 7.5,1 L7.5,1 C6.67,1 6,1.67 6,2.5 L6,2.5 C6,3.33 6.67,4 7.5,4 Z"/>
</svg>