<?xml version="1.0" encoding="UTF-8"?>
<svg width="15px" height="15px" viewBox="0 0 15 15" version="1.1" xmlns="http://www.w3.org/2000/svg" xmlns:xlink="http://www.w3.org/1999/xlink">
    <path d="M5,2 L3.5,2 C3.22385763,2 3,1.77614237 3,1.5 C3,1.22385763 3.22385763,1 3.5,1 L7.5,1 C7.77614237,1 8,1.22385763 8,1.5 C8,1.77614237 7.77614237,2 7.5,2 L6,2 L6,3 L7,3 C8.1045695,3 9,3.8954305 9,5 L9,8 L13.1961161,8.83922323 C13.6635403,8.93270807 14,9.34312288 14,9.8198039 L14,10.00001 L10.5,10.00001 C10.2238576,10.00001 10,10.2238676 10,10.50001 C10,10.7761524 10.2238576,11.00001 10.5,11.00001 L14,11.00001 L14,12.00001 L10.4999988,12.0000012 C10.2238571,12.0000012 10,12.2238583 10,12.5 C10,12.7761424 10.2238576,13 10.5,13 L14,13 C14,13.5522847 13.5522847,14 13,14 L7,14 C5.66666667,13.3333467 5,12.33335 5,11.00001 C5,9.66667 5.66666667,8.66666667 7,8 L7,5 C5.6887,5.00002 4,5.00002 4,5.00002 L4,7 L4.5,7 C4.77614237,7 5,7.22385763 5,7.5 L5,8 L1,8 L1,7.5 C1,7.22385763 1.22385763,7 1.5,7 L2,7 L2,5.00002 C2,4.00002 3,3 4,3 L5,3 L5,2 Z"></path>
</svg>
