<?xml version="1.0" encoding="UTF-8"?>
<svg width="15px" height="15px" viewBox="0 0 15 15" version="1.1" xmlns="http://www.w3.org/2000/svg" xmlns:xlink="http://www.w3.org/1999/xlink">
    <path d="M7.5,4 L7.5,4 L7.5,5 L4,5 C3,5 2,6.00002 2,7.00002 L2,9 L1.5,9 C1.22385763,9 1,9.22385763 1,9.5 L1,10 L5,10 L5,9.5 C5,9.22385763 4.77614237,9 4.5,9 L4,9 L4,7.00002 C4,7.00002 5.6887,7.00002 7,7 L7,13 L4.5,13 C4.22385763,13 4,13.2238576 4,13.5 L4,14 L12,14 L12,13.5 C12,13.2238576 11.7761424,13 11.5,13 L9,13 L9,5 L9,4 C9,4 11,4 11,7 C11,10 14,11 14,11 L14,9.5 C14,9.5 12,9 12,6 C12,1 8.5,1 7.5,1 C7.5,1 7.5,1 7.5,1 L7.5,1 C6.67157288,1 6,1.67157288 6,2.5 L6,2.5 C6,3.32842712 6.67157288,4 7.5,4 Z"></path>
</svg>
