<?xml version="1.0" encoding="UTF-8"?>
<svg version="1.2" baseProfile="tiny" xmlns="http://www.w3.org/2000/svg" viewBox="0 0 50 50" overflow="inherit">
  <path d="M48 49c-1.01 0 -1.97 -0.23 -2.83 -0.62c-0.89 -0.41 -1.89 -0.66 -2.92 -0.66c-1.04 0 -2.04 0.24 -2.92 0.66c-0.86 0.39 -1.83 0.62 -2.83 0.62c-1.01 0 -1.98 -0.23 -2.84 -0.62c-0.88 -0.41 -1.88 -0.66 -2.92 -0.66c-1.03 0 -2.03 0.24 -2.91 0.66c-0.86 0.39 -1.83 0.62 -2.84 0.62c-1.01 0 -1.97 -0.23 -2.83 -0.62c-0.88 -0.41 -1.88 -0.66 -2.92 -0.66c-1.03 0 -2.03 0.24 -2.92 0.66c-0.86 0.39 -1.82 0.62 -2.82 0.62c-1.01 0 -1.97 -0.23 -2.83 -0.62c-0.88 -0.41 -1.88 -0.66 -2.92 -0.66c-1.03 0 -2.03 0.24 -2.92 0.66c-0.86 0.39 -1.82 0.62 -2.83 0.62v-4.28c1.01 0 1.97 -0.23 2.83 -0.62c0.89 -0.4 1.89 -0.64 2.92 -0.64c1.04 0 2.04 0.24 2.92 0.64c0.86 0.39 1.82 0.63 2.83 0.63c1 0 1.96 -0.23 2.82 -0.62c0.89 -0.4 1.89 -0.64 2.92 -0.64c1.04 0 2.04 0.24 2.92 0.64c0.86 0.39 1.82 0.63 2.83 0.63c1.01 0 1.98 -0.23 2.84 -0.62c0.88 -0.4 1.88 -0.64 2.91 -0.64c1.04 0 2.04 0.24 2.92 0.64c0.86 0.39 1.83 0.63 2.84 0.63c1 0 1.97 -0.23 2.83 -0.62c0.88 -0.4 1.88 -0.64 2.92 -0.64c1.03 0 2.03 0.24 2.92 0.64c0.86 0.39 1.82 0.63 2.83 0.63v4.28zm-18.58 -8.83c0.44 -0.09 0.87 -0.14 1.32 -0.14c1.04 0 2.04 0.24 2.92 0.64c0.86 0.39 1.83 0.62 2.84 0.62c1 0 1.97 -0.23 2.83 -0.62c0.61 -0.27 1.26 -0.49 1.96 -0.59c-0.38 -11.47 -12.27 -21.71 -12.83 -22.24c-0.58 -0.53 -1.12 -1.69 -0.74 -3.07l2.84 -9.45c0.51 -1.46 0.25 -3.42 -0.44 -4.01c-0.4 -0.32 -1.25 -0.55 -1.82 0.1l-7.68 8.77c-1.68 1.8 -0.27 3.72 -0.31 3.71c-2.61 -0.95 -5.68 -0.31 -7.54 0.46l-6.35 3.24c-0.63 0.27 -0.9 1.07 -0.57 1.61c1.05 1.7 4.55 1.71 11.83 0.91c11.76 -1.27 11.77 17.7 11.76 20.04z"/>
</svg>