<?xml version="1.0" encoding="UTF-8"?>
<svg version="1.2" baseProfile="tiny" xmlns="http://www.w3.org/2000/svg" viewBox="0 0 50 50" overflow="inherit">
  <path d="M16.78 9c2.22 0 4 -1.8 4 -4c0 -2.22 -1.78 -4 -4 -4c-2.21 0 -4 1.78 -4 4c0 2.19 1.79 4 4 4zm2.82 36.67c-6.81 0 -12.34 -5.6 -12.34 -12.54c0 -3.8 1.69 -7.18 4.32 -9.49l-0.22 -3.92c-4.41 2.8 -7.38 7.73 -7.38 13.41c0 8.75 6.98 15.86 15.61 15.86c6.35 0 11.96 -4.47 14.39 -10l-2.38 -3.27c-1.17 5.67 -6.09 9.95 -12.02 9.95zm24.39 -7.67h-2l-8 -11c-0.43 -0.76 -2 -3 -4 -3h-9v-4h8c1.04 0 2.15 -0.44 2.15 -1.51c0 -1.06 -1.09 -1.49 -2.15 -1.49h-8v-4c-0.15 -2.22 -2 -3 -3.99 -2.95c-2.01 0.05 -3.01 0.95 -3.01 2.95v14c0.19 2.25 1.81 3 4 3h12l7 9c0.45 0.75 2 3 2 3h5c1.03 0 2 -0.94 2 -2c0 -1.06 -0.94 -2 -2 -2z"/>
</svg>