<?xml version="1.0" encoding="UTF-8"?>
<svg width="15px" height="15px" viewBox="0 0 15 15" version="1.1" xmlns="http://www.w3.org/2000/svg" xmlns:xlink="http://www.w3.org/1999/xlink">
    <path d="M4.98139957,2.81567215 L5.40011486,2.3132138 C5.6633913,1.99728207 6.11187217,1.9087457 6.47545705,2.10092628 L11.0140643,4.49990441 C11.0624482,4.52547874 11.1083121,4.55555957 11.1510467,4.58974726 C11.5263955,4.89002629 11.5872515,5.43773084 11.2869725,5.81307962 L10.2034989,7.16742161 L12.8405351,7.82668065 C13.3068641,7.94326291 13.5903899,8.41580588 13.4738076,8.88213492 L12.2427263,13.8064604 C12.2120918,13.9289983 12.1487304,14.0409067 12.0594163,14.1302208 C11.7872593,14.4023777 11.3460058,14.4023777 11.0738488,14.1302208 C10.5338863,13.5902582 10.3168209,12.8065831 10.5020265,12.0657607 L11.0738488,9.77847129 L9.110289,9.77847129 C9.25461694,10.1868258 9.33314904,10.6262585 9.33314904,11.0840266 C9.33314904,13.2471314 7.5798243,15.0005706 5.41675719,15.0005706 C3.25338562,15.0005706 1.5,13.2471314 1.5,11.0840266 C1.5,8.92104353 3.25344651,7.16742161 5.41675719,7.16742161 C5.64375986,7.16742161 5.86624986,7.18673497 6.08267428,7.223808 L7.59244925,4.99154688 L6.48334646,4.43699548 L5.18115827,6.04506397 C4.80303035,6.51201306 4.11796007,6.58401685 3.65101097,6.20588893 C3.18360213,5.82738871 3.11041118,5.14212186 3.48733562,4.67344137 L4.98139957,2.81567215 L4.98139957,2.81567215 Z M11.0250851,3.65 C10.0170223,3.65 9.2,2.8329527 9.2,1.82501419 C9.2,0.817132419 10.0170507,6.66133815e-14 11.0250851,6.66133815e-14 C12.0330061,6.66133815e-14 12.85,0.817132419 12.85,1.82501419 C12.85,2.8329527 12.0330061,3.65 11.0250851,3.65 Z M5.41665571,12.8213996 C6.37801887,12.8213996 7.1572743,12.0420932 7.1572743,11.0807133 C7.1572743,10.1193875 6.37801887,9.34 5.41665571,9.34 C4.45518429,9.34 3.67587473,10.1193875 3.67587473,11.0807133 C3.67587473,12.0420932 4.45515723,12.8213996 5.41665571,12.8213996 Z"></path>
</svg>
