<?xml version="1.0" encoding="UTF-8"?>
<!DOCTYPE svg PUBLIC "-//W3C//DTD SVG 1.1//EN" "http://www.w3.org/Graphics/SVG/1.1/DTD/svg11.dtd">
<svg version="1.1" xmlns="http://www.w3.org/2000/svg" xmlns:xlink="http://www.w3.org/1999/xlink" x="0" y="0" width="15" height="15" viewBox="0 0 15 15">
<path d="M7.5,0 C11.75,0 15,3.5 15,7.5 C15,11.5 11.75,15 7.5,15 C3.25,15 0,11.75 0,7.5 C0,3.25 3.25,0 7.5,0 z M6,9.25 C6,9.25 3.125,11.25 3.125,11.25 C3.125,11.25 4.5,13.25 7.5,13.25 C10.5,13.25 11.875,11.25 11.875,11.25 C11.875,11.25 9,9.25 9,9.25 C8.062,9.875 6.938,9.875 6,9.25 z M6.5,1.75 C4,2.25 1.75,4.75 1.75,7.5 C1.75,9.063 2.187,9.687 2.187,9.687 C2.187,9.687 5.25,7.75 5.25,7.75 C5.25,7.75 5,6.25 6.5,5.5 C6.5,5.5 6.5,1.75 6.5,1.75 z M8.5,1.75 C8.5,1.75 8.5,5.5 8.5,5.5 C10,6.25 9.75,7.75 9.75,7.75 C9.75,7.75 12.812,9.687 12.812,9.687 C12.812,9.687 13.25,9 13.25,7.5 C13.25,4.75 11,2.25 8.5,1.75 z"/>
</svg>
