<?xml version="1.0" encoding="UTF-8"?>
<svg width="15px" height="15px" viewBox="0 0 15 15" version="1.1" xmlns="http://www.w3.org/2000/svg" xmlns:xlink="http://www.w3.org/1999/xlink">
    <path d="M13,6.51419327 L13,4.45920613 L11,4.16507394 L11,6.80721632 L13,6.51419327 L13,6.51419327 Z M8,7.24675089 L8,3.72387565 L6,3.42974346 L6,7.53977394 L8,7.24675089 Z M3.07275052,1.98848794 L14.5727505,3.67974804 C14.8181536,3.71583851 15,3.92638436 15,4.17442709 L15,6.7997639 C15,7.04790963 14.8180065,7.25851019 14.572482,7.29448237 L3.07248196,8.9793649 C2.79925649,9.01939558 2.54531221,8.83035385 2.50528153,8.55712839 C2.50176517,8.53312783 2.5,8.50890321 2.5,8.48464643 L2.5,2.48316699 C2.5,2.20702461 2.72385763,1.98316699 3,1.98316699 C3.02434738,1.98316699 3.04866224,1.98494537 3.07275052,1.98848794 Z M1,1 C1.55228475,1 2,1.44771525 2,2 L2,14 L0,14 L0,2 C-6.76353751e-17,1.44771525 0.44771525,1 1,1 Z"></path>
</svg>
