<?xml version="1.0" encoding="UTF-8"?>
<!DOCTYPE svg PUBLIC "-//W3C//DTD SVG 1.1//EN" "http://www.w3.org/Graphics/SVG/1.1/DTD/svg11.dtd">
<svg version="1.1" xmlns="http://www.w3.org/2000/svg" xmlns:xlink="http://www.w3.org/1999/xlink" x="0" y="0" width="15" height="15" viewBox="0 0 15 15">
    <path d="M8,6.25 L8,14.5 C8,14.845 7.845,15 7.5,15 C7.155,15 7,14.845 7,14.5 L7,8 L8,6.25 z M3.5,0.5 C3.68,0.771 6.75,4.5 6.75,4.5 L5,8.75 C4.841,9.142 5,9.981 5.25,9.75 C5.664,9.368 8,5 8,5 L12,3.8 C12.524,3.655 12.882,3 12.5,3 C11.946,3 7.854,3.456 7.854,3.456 L4.5,0.5 C4.123,0.154 3.303,0.202 3.5,0.5 z"/>
</svg>
