<?xml version="1.0" encoding="UTF-8"?>
<svg version="1.2" baseProfile="tiny" xmlns="http://www.w3.org/2000/svg" viewBox="0 0 50 50" overflow="inherit">
  <path d="M48 49c-1 0 -1.97 -0.23 -2.83 -0.61c-0.88 -0.41 -1.88 -0.64 -2.92 -0.64c-1.03 0 -2.03 0.24 -2.91 0.64c-0.87 0.38 -1.83 0.61 -2.84 0.61c-1.01 0 -1.97 -0.23 -2.83 -0.61c-0.88 -0.41 -1.88 -0.64 -2.92 -0.64c-1.03 0 -2.03 0.24 -2.91 0.64c-0.86 0.38 -1.83 0.61 -2.83 0.61c-1 0 -1.97 -0.23 -2.83 -0.61c-0.89 -0.41 -1.88 -0.64 -2.92 -0.64c-1.04 0 -2.03 0.24 -2.91 0.64c-0.86 0.38 -1.83 0.61 -2.83 0.61c-1.01 0 -1.97 -0.23 -2.83 -0.61c-0.88 -0.41 -1.88 -0.64 -2.92 -0.64c-1.04 0 -2.03 0.24 -2.91 0.64c-0.86 0.38 -1.83 0.61 -2.83 0.61v-4.18c1.01 0 1.97 -0.23 2.83 -0.61c0.88 -0.4 1.87 -0.63 2.92 -0.63c1.04 0 2.03 0.24 2.92 0.63c0.86 0.38 1.83 0.61 2.83 0.61s1.97 -0.23 2.83 -0.61c0.89 -0.4 1.88 -0.63 2.92 -0.63c1.04 0 2.03 0.24 2.92 0.63c0.86 0.38 1.83 0.61 2.83 0.61c1.01 0 1.98 -0.23 2.83 -0.61c0.89 -0.4 1.89 -0.63 2.92 -0.63c1.04 0 2.04 0.24 2.92 0.63c0.86 0.38 1.83 0.61 2.83 0.61c1.01 0 1.97 -0.23 2.84 -0.61c0.88 -0.4 1.88 -0.63 2.91 -0.63c1.04 0 2.04 0.24 2.92 0.63c0.86 0.38 1.83 0.61 2.83 0.61v4.18zm-41.06 -24.19c1.54 0 2.79 -1.23 2.79 -2.74c0 -1.51 -1.25 -2.74 -2.79 -2.74c-1.54 0 -2.78 1.23 -2.78 2.74c0 1.51 1.25 2.74 2.78 2.74zm12.25 12.19h-7.97c-1.17 0 -2.19 -0.56 -2.65 -1.56l-2.95 -6.55c-0.06 -0.22 -0.09 -0.42 -0.09 -0.66c0 -1.59 1.31 -2.86 2.92 -2.86l6.48 0l4.44 -1.98c0.07 -0.04 0.25 -0.09 0.45 -0.09c0.76 0 1.39 0.62 1.39 1.37c0 0.46 -0.24 0.88 -0.6 1.13l-4.83 2.03c-0.32 0.25 -0.93 0.17 -0.93 0.17h-2.91l2.44 6h5.39c0.53 0 0.91 -0.04 1.23 0.24l5.28 4.83c0.74 0.67 0.78 1.76 0.09 2.49c-0.69 0.72 -1.85 0.62 -2.59 -0.06l-4.59 -4.49zm24.84 -8.71c0.1 0.17 0.35 0.24 0.58 0.24c0.44 0 0.81 -0.36 0.81 -0.81c0 -0.21 -0.1 -0.41 -0.21 -0.59c-4.98 -9.35 -18.43 -6.57 -20.08 -5.96c-0.27 0.1 -0.43 0.41 -0.43 0.71c0 0.44 0.37 0.8 0.81 0.8c0.14 0 0.21 -0.01 0.33 -0.04c13.19 -2.92 17.49 4.47 18.19 5.66zm2.29 0.85l-16.87 10.47l-15.36 -38.6c13.74 1.79 31.22 12.3 32.23 28.13z"/>
</svg>