<?xml version="1.0" encoding="UTF-8"?>
<svg viewBox="0 0 15 15" version="1.1" xmlns="http://www.w3.org/2000/svg" xmlns:xlink="http://www.w3.org/1999/xlink">
  <path d="M9.10887455,7.5 L10.9823819,14.3684413 C11.0550398,14.6348535 10.8979709,14.909724 10.6315587,14.9823819 C10.3947479,15.0469667 10.1512539,14.9300389 10.0490378,14.7161479 L10.0176181,14.6315587 L9.57187455,13 L7.99987455,13 L8,15 L7,15 L6.99987455,13 L5.42687455,13 L4.98238191,14.6315587 C4.90972405,14.8979709 4.63485347,15.0550398 4.3684413,14.9823819 C4.13163048,14.9177971 3.98121434,14.6934394 4.00174206,14.4572696 L4.01761809,14.3684413 L5.88987455,7.5 L9.10887455,7.5 Z M6.99987455,8 L6.79087455,8 L5.69987455,12 L6.99987455,12 L6.99987455,8 Z M8.20887455,8 L7.99987455,8 L7.99987455,12 L9.29987455,12 L8.20887455,8 Z M8.36505644,1.28084232e-05 C8.47551339,1.28084232e-05 8.56506027,0.0895473026 8.565065,0.200004252 C8.56506612,0.226286845 8.55988691,0.25231194 8.54982346,0.276591596 L7.64641782,2.45620086 C7.82757963,2.48137324 7.99400939,2.55259933 8.13350172,2.65767374 L9.03719964,0.478296431 C9.07950845,0.376263584 9.19652049,0.32784769 9.29855334,0.370156505 C9.32279641,0.380209107 9.34482393,0.394934866 9.36338009,0.413494243 L10.5865083,1.63683494 C10.6646064,1.71494658 10.6645954,1.84157957 10.5864838,1.91967765 C10.5679039,1.93825432 10.5458458,1.95298809 10.5215698,1.96303713 L8.34154281,2.86545953 C8.44663492,3.00461892 8.51800557,3.17066905 8.54350161,3.35145679 L10.723477,2.44987065 C10.8255489,2.40765613 10.9425162,2.45618013 10.9847307,2.55825202 C10.9947533,2.5824861 10.9999121,2.60845474 10.9999132,2.63467961 L10.9999872,4.36508044 C10.9999872,4.47553739 10.9104527,4.56508427 10.7999958,4.565089 C10.7737395,4.56509012 10.7477399,4.55992126 10.7234806,4.54987736 L8.5436509,3.6473781 C8.51828504,3.82857776 8.44684077,3.99500592 8.34154281,4.13443789 L10.5215075,5.03716929 C10.6235604,5.07942977 10.6720317,5.19641885 10.6297712,5.29847173 C10.6197179,5.32274903 10.6049792,5.34480731 10.5863972,5.36338601 L9.36305654,6.58651424 C9.2849449,6.66461232 9.1583119,6.66460132 9.08021383,6.58648968 C9.0616597,6.56793233 9.04693894,6.54590501 9.03689061,6.52166327 L8.13350172,4.34222368 C7.99428223,4.44709257 7.82823059,4.51824541 7.64748069,4.54354831 L8.54997839,6.72331541 C8.59223279,6.8253708 8.54375451,6.94235701 8.44169912,6.98461141 C8.41744739,6.99465245 8.39145633,6.9998215 8.36520812,6.99982378 L6.63520179,6.99997401 C6.52474484,6.99997401 6.43519401,6.91044833 6.43518442,6.79999138 C6.43518214,6.7737403 6.4403478,6.74774557 6.45038676,6.72348988 L7.3526219,4.54354831 C7.17142224,4.51818245 7.00499408,4.44673819 6.86556211,4.34144022 L5.96309655,6.52151258 C5.92084848,6.62357059 5.80386529,6.67205614 5.70180727,6.62980807 C5.67752394,6.61975571 5.65545997,6.60501579 5.63687676,6.58643099 L4.41350517,5.36295472 C4.33540365,5.28484652 4.33540907,5.15821353 4.41351727,5.08011201 C4.4320759,5.06155497 4.45410543,5.04683202 4.47834991,5.03678256 L6.65777632,4.13339913 C6.55270191,3.99390681 6.48147583,3.82747704 6.45630345,3.64631523 L4.27675677,4.54971933 C4.17471789,4.5920136 4.05771275,4.54358103 4.01541848,4.44154215 C4.0053579,4.41727006 4.00017849,4.39125348 4.00017621,4.36497897 L4.00002599,2.6350992 C4.00002599,2.52464225 4.08955167,2.43509143 4.20000862,2.43508184 C4.2262597,2.43507956 4.25225443,2.44024522 4.27651012,2.45028417 L6.45645169,3.35251931 C6.48181755,3.17131966 6.55326181,3.00489149 6.65855978,2.86545953 L4.47848742,1.96299396 C4.37642941,1.9207459 4.32794386,1.8037627 4.37019193,1.70170469 C4.38024429,1.67742135 4.39498421,1.65535738 4.41356901,1.63677417 L5.63693675,0.413511097 C5.71504495,0.33540958 5.84167795,0.335414997 5.91977946,0.413523197 C5.93835906,0.432104377 5.953095,0.45416467 5.96314517,0.478443374 L6.86556211,2.65845719 C7.00499408,2.55315923 7.17142224,2.48171496 7.3526219,2.4563491 L6.45012966,0.276595187 C6.40787525,0.174539794 6.45635353,0.0575535902 6.55840893,0.0152991871 C6.58266339,0.00525701378 6.60865756,8.79454804e-05 6.63490874,8.68224803e-05 L8.36505644,1.28084232e-05 Z M0,2 L3.5,3 L3.5,4 L0,5 L1,3.5 L0,2 Z"/>
</svg>