<?xml version="1.0" encoding="UTF-8"?>
<svg version="1.1" xmlns="http://www.w3.org/2000/svg" xmlns:xlink="http://www.w3.org/1999/xlink" x="0" y="0" viewBox="0 0 15 15">
  <path d="M4.83 0L3.83 1L6.5 3.67L7.17 2.33L4.83 0zM3.67 1.17L3.17 1.67L6 4.5L6.5 4L3.67 1.17zM11.67 1.17L8.83 4L9.33 4.5L12.17 1.67L11.67 1.17zM12.33 1.83L9.67 4.5L11 5.17L13.33 2.83L12.33 1.83zM7.67 3.17L4.55 6.28L4.33 6.17L2 8.5L3 9.5L4.27 8.23L4.23 8.6L3.17 9.67L3.67 10.17L4.09 9.74L3.67 13.33C2 13.67 1 15 1 15L14.33 15C14.33 15 13.33 13.67 11.67 13.33L11.33 10.5L11.5 10.33L11.29 10.16L11.24 9.74L11.67 10.17L12.17 9.67L11.1 8.6L10.83 6.33L7.67 3.17zM7.17 7L8.17 7L8.5 9L6.83 9L7.17 7z"/>
</svg>