<?xml version="1.0" encoding="UTF-8"?>
<!DOCTYPE svg PUBLIC "-//W3C//DTD SVG 1.1//EN" "http://www.w3.org/Graphics/SVG/1.1/DTD/svg11.dtd">
<svg version="1.1" xmlns="http://www.w3.org/2000/svg" xmlns:xlink="http://www.w3.org/1999/xlink" x="0" y="0" width="15" height="15" viewBox="0 0 15 15">
    <path d="M4.833,0 L3.833,1 L6.5,3.667 L7.167,2.333 L4.833,0 z M3.667,1.167 L3.167,1.667 L6,4.5 L6.5,4 L3.667,1.167 z M11.667,1.167 L8.833,4 L9.333,4.5 L12.167,1.667 L11.667,1.167 z M12.333,1.833 L9.667,4.5 L11,5.167 L13.333,2.833 L12.333,1.833 z M7.667,3.167 L4.552,6.281 L4.333,6.167 L2,8.5 L3,9.5 L4.271,8.229 L4.229,8.604 L3.167,9.667 L3.667,10.167 L4.094,9.74 L3.667,13.333 C2,13.667 1,15 1,15 L14.333,15 C14.333,15 13.333,13.667 11.667,13.333 L11.333,10.5 L11.5,10.333 L11.292,10.156 L11.24,9.74 L11.667,10.167 L12.167,9.667 L11.104,8.604 L10.833,6.333 L7.667,3.167 z M7.167,7 L8.167,7 L8.5,9 L6.833,9 L7.167,7 z"/>
</svg>
