<?xml version="1.0" encoding="UTF-8"?>
<svg viewBox="0 0 15 15" version="1.1" xmlns="http://www.w3.org/2000/svg" xmlns:xlink="http://www.w3.org/1999/xlink">
  <path d="M7.5,6.36424438 L13.5259002,3.1195289 C14.0121709,2.8576908 14.618633,3.03962942 14.8804711,3.52590018 C15.1423092,4.01217094 14.9603706,4.618633 14.4740998,4.8804711 L9.60926044,7.5 L14.4740998,10.1195289 C14.9603706,10.381367 15.1423092,10.9878291 14.8804711,11.4740998 C14.618633,11.9603706 14.0121709,12.1423092 13.5259002,11.8804711 L7.5,8.63575562 L1.47409982,11.8804711 C0.987829062,12.1423092 0.381367002,11.9603706 0.1195289,11.4740998 C-0.142309202,10.9878291 0.0396294158,10.381367 0.525900177,10.1195289 L5.39073956,7.5 L0.525900177,4.8804711 C0.0396294158,4.618633 -0.142309202,4.01217094 0.1195289,3.52590018 C0.381367002,3.03962942 0.987829062,2.8576908 1.47409982,3.1195289 L7.5,6.36424438 Z"/>
</svg>