<?xml version="1.0" encoding="UTF-8"?><!DOCTYPE svg PUBLIC "-//W3C//DTD SVG 1.1//EN" "http://www.w3.org/Graphics/SVG/1.1/DTD/svg11.dtd"><svg width="690" height="15" viewBox="0 0 690 15" xmlns="http://www.w3.org/2000/svg" xmlns:xlink="http://www.w3.org/1999/xlink"><view id="temaki-antenna" viewBox="0 0 15 15"/><svg version="1.1" width="15" height="15" viewBox="0, 0, 15, 15" id="temaki-antenna-" xmlns="http://www.w3.org/2000/svg">
    <path d="M7.5,4 C8.052,4 8.5,4.448 8.5,5 L8.5,14 C8.5,14 8.5,15 7.5,15 C6.5,15 6.5,14 6.5,14 L6.5,5 C6.5,4.448 6.948,4 7.5,4 z M4.705,2.529 C4.478,2.562 4.581,2.521 4.396,2.646 C3.201,3.842 3.201,6.158 4.396,7.354 C4.592,7.549 4.908,7.549 5.103,7.354 C5.299,7.158 5.299,6.842 5.103,6.646 C4.299,5.842 4.299,4.158 5.103,3.354 C5.299,3.158 5.299,2.842 5.103,2.646 L4.938,2.537 L4.705,2.529 z M9.955,2.529 C9.728,2.562 9.831,2.521 9.646,2.646 C9.451,2.842 9.451,3.158 9.646,3.354 C10.451,4.158 10.451,5.842 9.646,6.646 C9.451,6.842 9.451,7.158 9.646,7.354 C9.842,7.549 10.158,7.549 10.353,7.354 C11.549,6.158 11.549,3.842 10.353,2.646 L10.188,2.537 L9.955,2.529 z M12.16,0.526 C11.718,0.553 11.884,0.473 11.625,0.669 C11.443,0.875 11.462,1.191 11.669,1.374 C13.703,3.175 13.703,6.825 11.669,8.626 C11.462,8.809 11.443,9.125 11.625,9.331 C11.809,9.538 12.125,9.557 12.331,9.374 C14.816,7.175 14.816,2.825 12.331,0.626 L12.16,0.526 z M2.84,0.526 L2.669,0.626 C0.184,2.825 0.184,7.175 2.669,9.374 C2.875,9.557 3.191,9.538 3.374,9.331 C3.557,9.125 3.538,8.809 3.331,8.626 C1.297,6.825 1.297,3.175 3.331,1.374 C3.538,1.191 3.557,0.875 3.374,0.669 C3.116,0.473 3.282,0.553 2.84,0.526 z" fill="#000000" id="aaantenna"/>
</svg><view id="temaki-beach" viewBox="15 0 15 15"/><svg version="1.1" x="15" width="15" height="15" viewBox="0, 0, 15, 15" id="temaki-beach-" xmlns="http://www.w3.org/2000/svg">
    <path d="M15,3 C15,3 15,13 15,13 L0.045,13 C2.195,12.952 4.838,10.924 4.838,10.924 C4.838,10.924 4.336,11.041 3.55,10.588 C3.4,10.458 3.26,10.318 3.11,10.198 C2.825,9.944 2.395,9.944 2.11,10.198 L1.64,10.608 C1.322,10.872 0.923,11.017 0.51,11.018 C0.234,11.024 0.006,10.804 0,10.528 C0,10.525 0,10.522 0,10.518 C0,10.242 0.224,10.018 0.5,10.018 C0.759,9.996 0.999,9.874 1.17,9.678 C1.441,9.389 1.788,9.182 2.17,9.078 C2.782,8.897 3.443,9.036 3.93,9.448 L4.32,9.798 C4.618,10.102 5.105,10.107 5.409,9.809 C5.413,9.806 5.416,9.802 5.42,9.798 C5.56,9.678 5.69,9.548 5.84,9.428 C6.556,9.042 6.85,9.12 6.85,9.12 L8.128,7.691 L7.94,7.578 C7.78,7.448 7.63,7.298 7.47,7.168 C7.185,6.914 6.755,6.914 6.47,7.168 C6.31,7.298 6.16,7.448 6,7.578 C5.292,8.175 4.258,8.175 3.55,7.578 C3.4,7.448 3.26,7.308 3.11,7.188 C2.825,6.934 2.395,6.934 2.11,7.188 L1.64,7.598 L1.112,7.907 L0.51,8.018 C0.51,8.018 0.02,8.036 0.01,7.518 C0,7 0.234,7.018 0.51,7.018 C0.769,6.996 1.009,6.874 1.18,6.678 C1.451,6.389 1.798,6.182 2.18,6.078 C2.792,5.897 3.453,6.036 3.94,6.448 L4.27,6.788 C4.568,7.092 5.055,7.097 5.359,6.799 C5.363,6.796 5.366,6.792 5.37,6.788 C5.51,6.668 5.64,6.538 5.79,6.418 C6.518,5.84 7.556,5.869 8.25,6.488 L8.64,6.828 L8.799,6.924 C10.426,4.835 12.351,3.275 15,3 z" fill="#000000" id="abbeach"/>
</svg><view id="temaki-bench" viewBox="30 0 15 15"/><svg version="1.1" x="30" width="15" height="15" viewBox="0, 0, 15, 15" id="temaki-bench-" xmlns="http://www.w3.org/2000/svg">
    <path d="M13.5,3 L13.5,6 L14.5,6 L14.5,8.75 L15,8.75 L15,10.25 L14.5,10.25 L14.5,13 L13.5,13 L13.5,10.25 L12.5,10.25 L12.5,11.5 L11.5,11.5 L11.5,10.25 L3.5,10.25 L3.5,11.5 L2.5,11.5 L2.5,10.25 L1.5,10.25 L1.5,13 L0.5,13 L0.5,10.25 L0,10.25 L0,8.75 L0.5,8.75 L0.5,6 L1.5,6 L1.5,3 L13.5,3 z M13.5,7 L13.5,7 L13.5,8 L12.5,8 L12.5,8.75 L13.5,8.75 L13.5,7 z M11.5,8 L3.5,8 L3.5,8.75 L11.5,8.75 L11.5,8 z M1.5,7 L1.5,7 L1.5,8.75 L2.5,8.75 L2.5,8 L1.5,8 L1.5,7 z" fill="#000000" id="acbench"/>
</svg><view id="temaki-binoculars" viewBox="45 0 15 15"/><svg version="1.1" x="45" width="15" height="15" viewBox="0, 0, 15, 15" id="temaki-binoculars-" xmlns="http://www.w3.org/2000/svg">
    <path d="M11,2.5 C12,4 12,4 12.5,5.344 C13,6.344 13,9.5 13,10.5 C13,11 9,11 9,10.5 C9,9.5 9,9.844 9,9.344 C9,8.844 8.5,8.5 8.5,8 L8.5,7.5 L6.5,7.5 L6.5,8 C6.5,8.5 6,8.844 6,9.344 L6,10.5 C6,11 2,11 2,10.5 C2,9.5 2,6.344 2.5,5.344 C3,4 3,4 4,2.5 C4,2 6,2 6,2.5 L6,3.5 L9,3.5 C9,3.5 9,3 9,2.5 C9,2 11,2 11,2.5 z M2.5,11.5 C1.948,11.5 1.5,12.06 1.5,12.75 L1.5,12.75 C1.5,13.44 1.948,14 2.5,14 L5.5,14 C6.052,14 6.5,13.44 6.5,12.75 L6.5,12.75 C6.5,12.06 6.052,11.5 5.5,11.5 L2.5,11.5 z M9.5,11.5 C8.948,11.5 8.5,12.06 8.5,12.75 L8.5,12.75 C8.5,13.44 8.948,14 9.5,14 L12.5,14 C13.052,14 13.5,13.44 13.5,12.75 L13.5,12.75 C13.5,12.06 13.052,11.5 12.5,11.5 L9.5,11.5 z M4.5,1 C4.224,1 4,1.224 4,1.5 L4,1.5 C4,1.776 4.224,2 4.5,2 L5.5,2 C5.776,2 6,1.776 6,1.5 L6,1.5 C6,1.224 5.776,1 5.5,1 L4.5,1 z M9.5,1 C9.224,1 9,1.224 9,1.5 L9,1.5 C9,1.776 9.224,2 9.5,2 L10.5,2 C10.776,2 11,1.776 11,1.5 L11,1.5 C11,1.224 10.776,1 10.5,1 L9.5,1 z" fill="#000000" id="adbinoculars"/>
</svg><view id="temaki-bowling" viewBox="60 0 15 15"/><svg version="1.1" x="60" width="15" height="15" viewBox="0, 0, 15, 15" id="temaki-bowling-" xmlns="http://www.w3.org/2000/svg">
    <path d="M1.5,14 C1.336,13.145 0.871,11.403 1,9.5 C1.156,7.187 2.403,5.801 2.5,5.5 C2.672,4.969 2.671,4.672 2.5,4 C2.281,3.141 1.5,0.5 3.25,0.5 C5,0.5 4.204,3.093 4,4 C3.859,4.625 3.859,5.062 4,5.5 C4.105,5.827 5.234,7.391 5.5,9.5 C5.753,11.51 5.22,13.026 5,14 C4.78,14.975 1.688,14.982 1.5,14 z M10.5,8 C10.776,8 11,8.224 11,8.5 C11,8.776 10.776,9 10.5,9 C10.224,9 10,8.776 10,8.5 C10,8.224 10.224,8 10.5,8 z M12.5,8.5 C12.776,8.5 13,8.724 13,9 C13,9.276 12.776,9.5 12.5,9.5 C12.224,9.5 12,9.276 12,9 C12,8.724 12.224,8.5 12.5,8.5 z M11,10 C11.276,10 11.5,10.224 11.5,10.5 C11.5,10.776 11.276,11 11,11 C10.724,11 10.5,10.776 10.5,10.5 C10.5,10.224 10.724,10 11,10 z M10.5,6.5 C8.291,6.5 6.5,8.291 6.5,10.5 C6.5,12.709 8.291,14.5 10.5,14.5 C12.709,14.5 14.5,12.709 14.5,10.5 C14.5,8.291 12.709,6.5 10.5,6.5 z" fill="#000000" id="aebowling"/>
</svg><view id="temaki-buffer_stop" viewBox="75 0 15 15"/><svg version="1.1" x="75" width="15" height="15" viewBox="0, 0, 15, 15" id="temaki-buffer_stop-" xmlns="http://www.w3.org/2000/svg">
    <path d="M2,2 C2.552,2 3,2.448 3,3 L3,3.555 L12.384,12 L13,12 C13.552,12 14,12.448 14,13 C14,13.552 13.552,14 13,14 L2,14 C1.448,14 1,13.552 1,13 C1,12.448 1.448,12 2,12 L2.5,12 L4.874,8 L3,6.208 C2.956,6.732 2.428,6.914 2,7 C1.448,7 1,6.552 1,6 L1,3 C1,2.448 1.448,2 2,2 z M6.389,9.295 L4.75,12 L9.394,12 L6.389,9.295 z" fill="#000000" id="afbuffer_stop"/>
</svg><view id="temaki-bulb" viewBox="90 0 15 15"/><svg version="1.1" x="90" width="15" height="15" viewBox="0, 0, 15, 15" id="temaki-bulb-" xmlns="http://www.w3.org/2000/svg">
    <path d="M8.5,11.5 C8.25,11.5 6.66,11.5 6.5,11.5 C6,11.5 6,9.5 5,8.5 C3.924,7.424 3,6.016 3,4.5 C3,1.5 5.5,0.5 7.5,0.5 C9.5,0.5 12,1.5 12,4.5 C12,6.024 11.077,7.423 10,8.5 C9,9.5 9,11.5 8.5,11.5 z M6.5,14 L6.75,14 C6.75,14.276 7.086,14.5 7.5,14.5 C7.914,14.5 8.25,14.276 8.25,14 L8.5,14 C8.776,14 9,13.776 9,13.5 C9,13.224 8.776,13 8.5,13 L6.5,13 C6.224,13 6,13.224 6,13.5 C6,13.776 6.224,14 6.5,14 z M8.5,11.75 L6.5,11.75 C6.224,11.75 6,11.974 6,12.25 C6,12.526 6.224,12.75 6.5,12.75 L8.5,12.75 C8.776,12.75 9,12.526 9,12.25 C9,11.974 8.776,11.75 8.5,11.75 z" fill="#000000" id="agbulb"/>
</svg><view id="temaki-chimney" viewBox="105 0 15 15"/><svg version="1.1" x="105" width="15" height="15" viewBox="0, 0, 15, 15" id="temaki-chimney-" xmlns="http://www.w3.org/2000/svg">
    <path d="M10.5,-0 C12.433,0 14,0.896 14,2 C14,3.105 12.433,4 10.5,4 C9.497,3.942 10.024,4.014 8.924,3.75 C8.737,4.757 7.558,4.891 6.75,5 L6,5 C6,5.552 5.328,6 4.5,6 C3.672,6 3,5.552 3,5 C3,4.448 3.672,4 4.5,4 L4.658,4.021 L4.5,3.5 C4.5,2.672 5.507,2 6.75,2 L7,2 C7,0.896 8.567,0 10.5,0 z M2,7 C2,7.521 2,13 2,14 C2,14.5 4.5,14.5 4.5,14 C4.5,13 4.5,7.479 4.5,7 C4.5,6.521 2,6.479 2,7 z" fill="#000000" id="ahchimney"/>
</svg><view id="temaki-clock" viewBox="120 0 15 15"/><svg version="1.1" x="120" width="15" height="15" viewBox="0, 0, 15, 15" id="temaki-clock-" xmlns="http://www.w3.org/2000/svg">
    <path d="M10.89,4.512 C11.327,4.585 11.17,4.488 11.407,4.709 C11.567,4.934 11.515,5.246 11.291,5.407 C10.853,5.719 10.853,5.719 9.541,6.657 C8.228,7.594 8.228,7.594 7.791,7.907 C7.629,8.023 7.413,8.031 7.243,7.929 C6.878,7.71 7.112,7.851 6.54,7.507 C5.941,7.147 5.342,6.788 4.743,6.429 C4.506,6.287 4.429,5.98 4.571,5.743 C4.713,5.506 5.02,5.429 5.257,5.571 C5.622,5.79 5.387,5.649 5.96,5.993 C7.195,6.734 6.689,6.431 7.476,6.903 C7.971,6.549 8.465,6.196 8.959,5.843 C10.272,4.906 10.272,4.906 10.709,4.593 L10.89,4.512 z M7.5,1.5 C10.814,1.5 13.5,4.186 13.5,7.5 C13.5,10.814 10.814,13.5 7.5,13.5 C4.186,13.5 1.5,10.814 1.5,7.5 C1.5,4.186 4.186,1.5 7.5,1.5 z M7.5,0 C3.358,0 0,3.358 0,7.5 C0,11.642 3.358,15 7.5,15 C11.642,15 15,11.642 15,7.5 C15,3.358 11.642,0 7.5,0 z" fill="#000000" id="aiclock"/>
</svg><view id="temaki-crane" viewBox="135 0 15 15"/><svg version="1.1" x="135" width="15" height="15" viewBox="0, 0, 15, 15" id="temaki-crane-" xmlns="http://www.w3.org/2000/svg">
    <path d="M14.5,1 L14.5,3 L13.5,3 L13.5,7 C13.5,7.276 13.276,7.5 13,7.5 C12.724,7.5 12.5,7.276 12.5,7 L12.5,3 L7.844,3 L8.685,12.25 L10,12.25 L10,13.75 L2,13.75 L2,12.25 L3.315,12.25 L4.156,3 L2.5,3 L2.5,1 L14.5,1 z M6.997,10.25 L5.003,10.25 L4.821,12.25 L7.179,12.25 L6.997,10.25 z M6.679,6.75 L5.321,6.75 L5.139,8.75 L6.86,8.75 L6.679,6.75 z M6.338,3 L5.662,3 L5.458,5.25 L6.542,5.25 L6.338,3 z" fill="#000000" id="ajcrane"/>
</svg><view id="temaki-diamond" viewBox="150 0 15 15"/><svg version="1.1" x="150" width="15" height="15" viewBox="0, 0, 15, 15" id="temaki-diamond-" xmlns="http://www.w3.org/2000/svg">
    <path d="M7.5,0.5 L14.5,7.5 L7.5,14.5 L0.5,7.5 L7.5,0.5 z M7.5,2.784 L2.784,7.5 L7.5,12.216 L12.216,7.5 L7.5,2.784 z" fill="#000000" id="akdiamond"/>
</svg><view id="temaki-dice" viewBox="165 0 15 15"/><svg version="1.1" x="165" width="15" height="15" viewBox="0, 0, 15, 15" id="temaki-dice-" xmlns="http://www.w3.org/2000/svg">
    <path d="M8,12 C7.448,12 7,11.552 7,11 C7,10.448 7.448,10 8,10 C8.552,10 9,10.448 9,11 C9,11.552 8.552,12 8,12 z M6,10 C6.552,10 7,9.552 7,9 C7,8.448 6.552,8 6,8 C5.448,8 5,8.448 5,9 C5,9.552 5.448,10 6,10 z M4,8 C4.552,8 5,7.552 5,7 C5,6.448 4.552,6 4,6 C3.448,6 3,6.448 3,7 C3,7.552 3.448,8 4,8 z M8,8 C8.552,8 9,7.552 9,7 C9,6.448 8.552,6 8,6 C7.448,6 7,6.448 7,7 C7,7.552 7.448,8 8,8 z M4,12 C4.552,12 5,11.552 5,11 C5,10.448 4.552,10 4,10 C3.448,10 3,10.448 3,11 C3,11.552 3.448,12 4,12 z M10,5 L10,13 L2,13 L2,5 L10,5 z M10,3.5 L2,3.5 C1.172,3.5 0.5,4.172 0.5,5 L0.5,13 C0.5,13.828 1.172,14.5 2,14.5 L10,14.5 C10.828,14.5 11.5,13.828 11.5,13 L11.5,5 C11.5,4.172 10.828,3.5 10,3.5 z M13,1.25 L5,1.25 C4.586,1.25 4.25,1.586 4.25,2 C4.25,2.414 4.586,2.75 5,2.75 L12.25,2.75 L12.25,10 C12.25,10.414 12.586,10.75 13,10.75 C13.414,10.75 13.75,10.414 13.75,10 L13.75,2 C13.75,1.586 13.414,1.25 13,1.25 z" fill="#000000" id="aldice"/>
</svg><view id="temaki-elevator" viewBox="180 0 15 15"/><svg version="1.1" x="180" width="15" height="15" viewBox="0, 0, 15, 15" id="temaki-elevator-" xmlns="http://www.w3.org/2000/svg">
    <path d="M7.5,15 C7.5,15 3,8 3,8 L12,8 C12,8 7.5,15 7.5,15 z M7.5,0 C7.5,0 12,7 12,7 L3,7 C3,7 7.5,0 7.5,0 z" fill="#000000" id="amelevator"/>
</svg><view id="temaki-fire_hydrant" viewBox="195 0 15 15"/><svg version="1.1" x="195" width="15" height="15" viewBox="0, 0, 15, 15" id="temaki-fire_hydrant-" xmlns="http://www.w3.org/2000/svg">
    <path d="M7.5,0.5 C7.888,0.5 8.203,0.82 8.203,1.214 L8.203,1.178 C9.382,1.407 9.872,2.149 10.265,3.214 L10.453,3.214 C10.686,3.214 10.875,3.47 10.875,3.786 C10.875,4.101 10.686,4.357 10.453,4.357 L9.75,4.357 L9.75,6.357 L11.438,6.357 C11.748,6.357 12,6.613 12,6.929 L12,8.643 C12,8.958 11.748,9.214 11.438,9.214 L9.75,9.214 L9.75,13.071 L10.312,13.071 C10.701,13.071 11.016,13.391 11.016,13.786 C11.016,14.18 10.701,14.5 10.312,14.5 L4.687,14.5 C4.299,14.5 3.984,14.18 3.984,13.786 C3.984,13.391 4.299,13.071 4.688,13.071 L5.25,13.071 L5.25,9.214 L3.562,9.214 C3.252,9.214 3,8.958 3,8.643 L3,6.928 C3,6.613 3.252,6.357 3.562,6.357 L5.25,6.357 L5.25,4.357 L4.547,4.357 C4.314,4.357 4.125,4.101 4.125,3.786 C4.125,3.47 4.314,3.214 4.547,3.214 L4.698,3.214 C5.08,1.92 5.63,1.614 6.797,1.178 L6.797,1.214 C6.797,0.82 7.112,0.5 7.5,0.5 z" fill="#000000" id="anfire_hydrant"/>
</svg><view id="temaki-fountain" viewBox="210 0 15 15"/><svg version="1.1" x="210" width="15" height="15" viewBox="0, 0, 15, 15" id="temaki-fountain-" xmlns="http://www.w3.org/2000/svg">
    <path d="M3.75,1.5 C1.5,1.5 0.75,3.5 0.75,6 C0.75,8 1.75,8 1.75,6 C1.75,3.5 2.75,2.5 3.75,2.5 C5.5,2.5 6.5,5.75 6.5,7 C6.5,7 6.25,6.75 5.5,6.75 C4.25,6.75 3.5,7.75 3.5,9.5 C3.5,10.75 4.25,10.75 4.25,9.5 C4.25,8.25 5,7.75 5.5,7.75 C6,7.75 6.75,8 7,10 C7.283,11.98 7.715,11.984 7.966,10 C8.25,8 8.75,7.75 9.5,7.75 C10,7.75 10.5,8.25 10.5,9 C10.5,10.5 11.25,10.5 11.25,9 C11.25,7.25 10.25,6.75 9.5,6.75 C8.75,6.75 8.5,7 8.5,7 C8.75,5.25 9.5,3 11,3 C12.5,3 13.25,5 13.25,6.75 C13.25,8.5 14.25,8.5 14.25,6.75 C14.25,3.5 12.75,2 11,2 C8.75,2 7.75,4.5 7.5,6 C7.25,4 6.25,1.5 3.75,1.5 z M14,11.508 C14.276,11.508 14.5,11.731 14.5,12.008 C14.5,12.284 14.276,12.508 14,12.508 L14,12.508 C13.767,12.544 13.555,12.66 13.4,12.838 C13.129,13.126 12.783,13.334 12.4,13.438 C11.788,13.619 11.127,13.48 10.64,13.068 L10.25,12.718 C10.246,12.714 10.243,12.71 10.239,12.706 C9.935,12.409 9.448,12.414 9.15,12.718 C9,12.838 8.88,12.978 8.73,13.088 C8.002,13.666 6.964,13.636 6.27,13.018 L5.88,12.668 C5.595,12.413 5.165,12.413 4.88,12.668 C4.69,12.818 4.52,12.998 4.33,13.138 C3.631,13.652 2.672,13.628 2,13.078 L1.64,12.818 C1.476,12.634 1.246,12.522 1,12.508 L1,12.508 C0.724,12.508 0.5,12.284 0.5,12.008 C0.5,11.731 0.724,11.508 1,11.508 L1.06,11.508 C1.297,11.494 1.534,11.55 1.74,11.668 C2.018,11.84 2.283,12.034 2.53,12.248 C2.733,12.467 3.038,12.563 3.33,12.498 C3.439,12.463 3.541,12.409 3.63,12.338 C3.78,12.218 3.92,12.078 4.07,11.948 C4.776,11.356 5.804,11.356 6.51,11.948 C6.67,12.078 6.82,12.228 6.98,12.358 C7.265,12.612 7.695,12.612 7.98,12.358 C8.14,12.228 8.29,12.078 8.45,11.948 C9.158,11.351 10.192,11.351 10.9,11.948 C11.05,12.078 11.19,12.218 11.34,12.338 C11.625,12.592 12.055,12.592 12.34,12.338 L12.81,11.928 C13.142,11.647 13.565,11.498 14,11.508 L14,11.508 z" fill="#000000" id="aofountain"/>
</svg><view id="temaki-hinduism" viewBox="225 0 15 15"/><svg version="1.1" x="225" width="15" height="15" viewBox="0, 0, 15, 15" id="temaki-hinduism-" xmlns="http://www.w3.org/2000/svg">
    <path d="M6.421,2.083 C6.421,2.083 8.132,5.139 10.702,2.625 C11.056,3.167 11.772,4.25 11.772,4.25 C11.772,4.25 8.087,6.802 6.421,2.083 z M1.07,4.25 C1.379,4.91 1.777,5.72 2.14,6.417 C2.68,5.333 4.281,5.333 4.281,5.333 C5.351,5.333 6.136,5.758 6.136,6.446 C6.136,7.134 5.351,7.5 4.281,7.5 C4.281,7.5 4.281,8.583 4.281,9.125 C5.684,8.856 6.424,9.98 6.081,10.758 C5.431,12.23 1.61,12.404 0,9.667 C0,13.987 3.683,14 4.281,14 C6.421,14 7.492,11.833 7.492,9.667 C8.049,10.255 8.942,10.258 9.632,9.667 C10.6,8.838 10.979,7.489 12.308,7.5 C13.928,7.513 13.913,10.75 12.843,11.833 C11.772,12.917 9.21,12.532 8.562,10.75 C8.562,11.833 8.562,14.001 11.772,14 C14.983,13.998 15.634,10.334 14.448,7.5 C13.715,5.748 12.343,5.279 10.863,5.743 C9.72,6.102 9.772,6.615 9.097,7.5 C8.744,7.929 8.562,8.583 7.492,8.583 C7.12,8.583 6.666,8.286 6.421,8.042 C7.746,7.083 7.551,5.239 6.421,4.25 C4.936,2.95 2.312,3.216 1.07,4.25 z M7.492,2.083 L8.562,1 L9.632,2.083 L8.562,3.167 z" fill="#000000" id="aphinduism"/>
</svg><view id="temaki-junction" viewBox="240 0 15 15"/><svg version="1.1" x="240" width="15" height="15" viewBox="0, 0, 15, 15" id="temaki-junction-" xmlns="http://www.w3.org/2000/svg">
    <path d="M13.774,2.367 C14.139,2.797 14.061,3.424 13.633,3.774 L8.5,7.974 L8.5,13 C8.5,13.552 8.052,14 7.5,14 C6.948,14 6.5,13.552 6.5,13 L6.5,7.974 L1.367,3.774 C0.939,3.424 0.876,2.794 1.226,2.367 C1.576,1.939 2.206,1.876 2.633,2.226 L7.5,6.208 C7.5,6.208 12.367,2.226 12.367,2.226 C12.846,1.819 13.409,1.936 13.774,2.367 z" fill="#000000" id="aqjunction"/>
</svg><view id="temaki-light_rail" viewBox="255 0 15 15"/><svg version="1.1" x="255" width="15" height="15" viewBox="0, 0, 15, 15" id="temaki-light_rail-" xmlns="http://www.w3.org/2000/svg">
    <path d="M4.091,12.449 L5.606,12.449 L5.227,13.132 L9.773,13.132 L9.394,12.449 L10.909,12.449 L12.045,14.5 L10.53,14.5 L10.152,13.816 L4.848,13.816 L4.47,14.5 L2.955,14.5 L4.091,12.449 z M9.722,9.357 L8.611,10.234 L8.611,10.673 L10.833,10.673 L11.389,10.234 L11.389,9.357 L9.722,9.357 z M3.611,9.357 L3.611,10.234 L4.167,10.673 L6.389,10.673 L6.389,10.234 L5.278,9.357 L3.611,9.357 z M4.167,4.97 L3.611,5.409 L3.611,7.164 L5.278,7.164 L9.722,7.164 L11.389,7.164 L11.389,5.409 L10.833,4.97 L9.722,4.97 L5.278,4.97 L4.167,4.97 z M5.278,2.777 L5.278,3.654 L9.722,3.654 L9.722,2.777 L5.278,2.777 z M5.278,2.338 L9.722,2.338 L12.5,4.97 L12.5,11.112 L11.389,11.989 L3.611,11.989 L2.5,11.112 L2.5,4.97 L5.278,2.338 z M9.773,0.5 L9.773,0.96 L7.955,0.96 L7.955,1.879 L7.045,1.879 L7.045,0.96 L5.227,0.96 L5.227,0.5 z" fill="#000000" id="arlight_rail"/>
</svg><view id="temaki-milestone" viewBox="270 0 15 15"/><svg version="1.1" x="270" width="15" height="15" viewBox="0, 0, 15, 15" id="temaki-milestone-" xmlns="http://www.w3.org/2000/svg">
    <path d="M3,4.5 C3,-0.5 12,-0.5 12,4.5 L12,5.5 L3,5.5 z M3,6 L3,14.5 L12,14.5 L12,6 L3,6 z" fill="#000000" id="asmilestone"/>
</svg><view id="temaki-military" viewBox="285 0 15 15"/><svg version="1.1" x="285" width="15" height="15" viewBox="0, 0, 15, 15" id="temaki-military-" xmlns="http://www.w3.org/2000/svg">
    <path d="M4.719,15 L5.25,12.106 L3,10.056 L6.109,9.633 L7.5,7 L8.891,9.633 L12,10.056 L9.75,12.106 L10.281,15 L7.5,13.633 z M3,4 C3,4 7.5,7 7.5,7 C7.5,7 12,4 12,4 C12,4 12,0 12,0 C12,0 3,0 3,0" fill="#000000" id="atmilitary"/>
</svg><view id="temaki-monorail" viewBox="300 0 15 15"/><svg version="1.1" x="300" width="15" height="15" viewBox="0, 0, 15, 15" id="temaki-monorail-" xmlns="http://www.w3.org/2000/svg">
    <path d="M4,12.014 L3,10.965 L3,4.147 L5.5,1 L9.5,1 L12,4.147 L12,10.965 L11,12.014 L9.5,12.014 L9.5,13.587 L8.5,13.587 L8.5,12.539 L8,12.014 L7,12.014 L6.5,12.539 L6.5,13.587 L5.5,13.587 L5.5,12.014 L4,12.014 z M11,8.343 L9,8.343 L8.5,9.392 L8.5,9.916 L10.5,9.916 L11,9.392 L11,8.343 z M6,8.343 L4,8.343 L4,9.392 L4.5,9.916 L6.5,9.916 L6.5,9.392 L6,8.343 z M10.5,4.147 L4.5,4.147 L4,4.671 L4,6.769 L11,6.769 L11,4.671 L10.5,4.147 z M9.5,1.524 L5.5,1.524 L5.5,2.573 L9.5,2.573 L9.5,1.524 z M8,12.539 L7,12.539 L7,14.112 L6,14.112 L6,14.636 L9,14.636 L9,14.112 L8,14.112 L8,12.539 z" fill="#000000" id="aumonorail"/>
</svg><view id="temaki-pedestrian" viewBox="315 0 15 15"/><svg version="1.1" x="315" width="15" height="15" viewBox="0, 0, 15, 15" id="temaki-pedestrian-" xmlns="http://www.w3.org/2000/svg">
    <path d="M9.375,1.958 C9.375,2.764 8.675,3.417 7.812,3.417 C6.95,3.417 6.25,2.764 6.25,1.958 C6.25,1.153 6.95,0.5 7.812,0.5 C8.675,0.5 9.375,1.153 9.375,1.958 z M6.25,4 L6.875,4 L7.188,4 L12.5,7.792 L12.5,8.667 L11.875,8.667 L8.75,6.406 L8.75,8.667 L10,11 L11.25,13.917 L10.625,14.5 L10,14.5 L8.75,11.583 L6.25,8.083 L6.25,5.367 L4.688,6.625 L3.438,8.667 L2.5,8.667 L2.5,8.083 L3.438,6.333 L6.25,4 z M6.777,10.07 L5.332,14.5 L4.687,14.5 L4.062,13.917 L5.82,8.995 z" fill="#000000" id="avpedestrian"/>
</svg><view id="temaki-power" viewBox="330 0 15 15"/><svg version="1.1" x="330" width="15" height="15" viewBox="0, 0, 15, 15" id="temaki-power-" xmlns="http://www.w3.org/2000/svg">
    <path d="M6,0 C6,0 4,8 4,8 C4,8 7,8 7,8 C7,8 5,15 5,15 C5,15 11,6 11,6 C11,6 8,6 8,6 C8,6 11,0 11,0 C11,0 6,0 6,0 z" fill="#000000" id="awpower"/>
</svg><view id="temaki-radiation" viewBox="345 0 15 15"/><svg version="1.1" x="345" width="15" height="15" viewBox="0, 0, 15, 15" id="temaki-radiation-" xmlns="http://www.w3.org/2000/svg">
    <path d="M8.747,9.066 L11.384,13.417 C9.987,14.263 8.348,14.635 6.688,14.456 C5.673,14.345 4.704,14.033 3.829,13.542 L6.321,9.107 C6.6,9.264 6.91,9.363 7.237,9.399 C7.776,9.457 8.298,9.339 8.747,9.066 z M11.321,0.549 L8.727,4.925 C9.47,5.365 9.927,6.167 9.912,7.044 L14.999,7.133 C15.046,4.41 13.622,1.913 11.321,0.549 z M3.765,0.5 C1.636,1.724 0.221,3.918 0.024,6.411 C0.007,6.626 -0.001,6.833 0,7.04 L5.088,7.018 C5.088,6.95 5.09,6.883 5.096,6.809 C5.159,6.009 5.613,5.305 6.301,4.909 L3.765,0.5 z M9.019,7.022 C9.019,6.22 8.368,5.569 7.565,5.569 C6.763,5.569 6.112,6.22 6.112,7.022 C6.112,7.825 6.763,8.476 7.565,8.476 C8.368,8.476 9.019,7.825 9.019,7.022 z" fill="#000000" id="axradiation"/>
</svg><view id="temaki-railway_signals" viewBox="360 0 15 15"/><svg version="1.1" x="360" width="15" height="15" viewBox="0, 0, 15, 15" id="temaki-railway_signals-" xmlns="http://www.w3.org/2000/svg">
    <path d="M9.214,1.5 C10.476,1.5 11.5,2.533 11.5,3.808 L11.5,11.192 C11.5,12.466 10.477,13.5 9.214,13.5 L5.786,13.499 C4.523,13.5 3.5,12.466 3.5,11.192 L3.5,3.808 C3.5,2.533 4.523,1.5 5.786,1.5 L9.214,1.5 z M7.5,8.5 C6.672,8.5 6,9.171 6,10 C6,10.828 6.672,11.5 7.5,11.5 C8.328,11.5 9,10.828 9,10 C9,9.171 8.328,8.5 7.5,8.5 z M7.5,3.5 C6.671,3.5 6,4.172 6,5 C6,5.828 6.671,6.5 7.5,6.5 C8.328,6.5 9,5.828 9,5 C9,4.172 8.328,3.5 7.5,3.5 z" fill="#000000" id="ayrailway_signals"/>
</svg><view id="temaki-ruins" viewBox="375 0 15 15"/><svg version="1.1" x="375" width="15" height="15" viewBox="0, 0, 15, 15" id="temaki-ruins-" xmlns="http://www.w3.org/2000/svg">
    <path d="M1,5.5 C1,4.979 4,5.021 4,5.5 C4,5.979 4,12 4,13 C4,13.5 1,13.5 1,13 C1,12 1,6.021 1,5.5 z M6,5.5 C6,6.021 6,12 6,13 C6,13.5 9,13.5 9,13 C9,12 9,5.979 9,5.5 C9,5.021 6,4.979 6,5.5 z M11.58,6.5 C11,6 9,8 9.5,8.437 C9.81,8.806 13.067,12.688 13.662,13.397 C14.209,13.493 14.593,13.327 15,13 C14.119,12.136 14.418,12.248 14.268,11.259 C14.484,10.423 14.269,10.767 14.849,10.198 C13.824,8.975 12,7 11.58,6.5 z M6,1.5 L1,1.5 C0.5,1.5 0.5,4.5 1,4.5 C2,4.5 8.521,4.5 9,4.5 C9.466,4.184 9.212,2.958 9,2.5 C7.619,2.5 6,2.052 6,1.5 z" fill="#000000" id="azruins"/>
</svg><view id="temaki-shinto" viewBox="390 0 15 15"/><svg version="1.1" x="390" width="15" height="15" viewBox="0, 0, 15, 15" id="temaki-shinto-" xmlns="http://www.w3.org/2000/svg">
    <path d="M0,0 C0,1.071 0.701,1.756 1.071,2.126 C1.442,2.496 1.974,2.353 1.974,2.632 C1.974,2.632 2.143,3.198 2.679,3.198 L4.018,3.198 C4.018,3.506 4.286,3.733 4.286,3.733 C4.286,3.733 4.018,3.884 4.018,4.269 L2.679,4.269 C2.143,4.269 2.143,4.537 2.143,4.805 C2.143,5.37 2.143,5.876 2.143,5.876 C2.143,6.133 2.39,6.412 2.679,6.412 C2.967,6.412 4.018,6.412 4.018,6.412 L4.018,7.483 L3.214,7.483 C3.214,7.918 3.504,8.267 4.018,8.555 C4.018,8.894 4.018,14.448 4.018,14.448 C4.018,15.153 5.625,15.214 5.625,14.448 L5.625,6.412 L9.375,6.412 L9.375,14.448 C9.375,15.189 10.982,15.137 10.982,14.448 C10.982,14.448 10.982,8.894 10.982,8.555 C11.496,8.221 11.786,7.92 11.786,7.483 L10.982,7.483 L10.982,6.412 C10.982,6.412 12.033,6.412 12.321,6.412 C12.558,6.412 12.857,6.133 12.857,5.876 C12.857,5.876 12.857,5.34 12.857,4.805 C12.857,4.269 12.563,4.269 12.321,4.269 L10.982,4.269 C11.008,3.986 10.714,3.733 10.714,3.733 C10.714,3.733 10.982,3.506 10.982,3.198 L12.321,3.198 C12.857,3.198 12.857,2.662 12.857,2.662 C12.857,2.409 13.482,2.513 13.929,2.126 C14.376,1.739 15,1.071 15,0 C8.571,1.071 5.357,1.071 0,0 z M5.625,3.198 C5.625,3.198 6.696,3.198 6.696,3.198 L6.696,4.269 L5.625,4.269 C5.625,3.961 5.357,3.733 5.357,3.733 C5.357,3.733 5.625,3.531 5.625,3.198 z M8.304,3.198 L9.375,3.198 C9.375,3.481 9.643,3.733 9.643,3.733 C9.643,3.733 9.375,3.986 9.375,4.269 L8.304,4.269 z" fill="#000000" id="bashinto"/>
</svg><view id="temaki-shower" viewBox="405 0 15 15"/><svg version="1.1" x="405" width="15" height="15" viewBox="0, 0, 15, 15" id="temaki-shower-" xmlns="http://www.w3.org/2000/svg">
    <path d="M11.25,4 L11.25,6 L10.75,6 L10.75,4 L11.25,4 z M13.224,3.888 L12.776,4.112 L13.776,6.112 L14.224,5.888 L13.224,3.888 z M8.776,3.888 L7.776,5.888 L8.224,6.112 L9.224,4.112 L8.776,3.888 z M11,0 C10.763,0 10.367,0.014 9.862,0.056 C9.021,0.126 8.179,0.253 7.382,0.452 C6.707,0.621 6.093,0.836 5.553,1.106 C3.179,2.293 2,4.65 2,8 L2,14 C2,14.552 2.448,15 3,15 C3.552,15 4,14.552 4,14 L4,8 C4,5.35 4.821,3.707 6.447,2.895 C6.845,2.696 7.324,2.528 7.868,2.392 C9.04,2.157 8.568,2.222 9.273,2.139 C8.831,2.465 9.039,2.295 8.646,2.647 C8.331,2.962 8.555,3.5 9,3.5 L13,3.5 C13.445,3.5 13.669,2.962 13.354,2.647 C13.207,2.5 12.965,2.292 12.652,2.084 C11.786,1.633 12.134,1.713 11.682,1.628 C12.015,1.296 11.899,1.5 12,1 C12,0.448 11.552,0 11,0 z" fill="#000000" id="bbshower"/>
</svg><view id="temaki-sikhism" viewBox="420 0 15 15"/><svg version="1.1" x="420" width="15" height="15" viewBox="0, 0, 15, 15" id="temaki-sikhism-" xmlns="http://www.w3.org/2000/svg">
    <path d="M7.483,0 L6.397,1.071 C6.465,1.539 6.482,1.902 6.533,2.31 C5.206,2.717 4.225,3.915 4.225,5.357 C4.225,6.811 5.224,8.007 6.567,8.404 C6.511,8.807 6.474,9.186 6.397,9.643 L6.94,10.179 L6.94,10.614 C5.942,9.949 4.88,9.209 4.225,8.571 C2.022,6.429 2.604,2.679 5.311,1.071 C3.145,1.607 1,3.545 1,6.429 C1,9.643 4.225,10.714 4.225,11.786 L5.311,10.714 L6.702,11.484 C6.037,11.891 5.311,12.321 5.311,12.321 L5.854,12.857 L7.008,12.221 L7.008,12.991 C6.655,13.168 6.397,13.512 6.397,13.929 C6.397,14.52 6.883,15 7.483,15 C8.083,15 8.569,14.52 8.569,13.929 C8.569,13.512 8.345,13.168 7.992,12.991 L7.992,12.221 L9.112,12.857 L9.655,12.321 C9.655,12.321 8.89,11.847 8.298,11.484 L9.655,10.714 L10.742,11.786 C10.742,10.714 14,9.643 14,6.429 C14,3.545 11.828,1.607 9.655,1.071 C12.371,2.679 12.951,6.429 10.742,8.571 C10.075,9.218 9.039,9.976 8.026,10.647 L8.026,10.179 L8.569,9.643 C8.494,9.199 8.454,8.813 8.399,8.404 C9.742,8.007 10.742,6.811 10.742,5.357 C10.742,3.904 9.742,2.708 8.399,2.31 C8.454,1.902 8.494,1.515 8.569,1.071 L7.483,0 z M8.264,3.348 C9.08,3.657 9.655,4.444 9.655,5.357 C9.655,6.271 9.08,7.058 8.264,7.366 C8.132,5.985 8.132,4.729 8.264,3.348 z M6.634,3.382 C6.644,3.378 6.659,3.386 6.668,3.382 C6.815,4.871 6.832,6.042 6.702,7.366 C5.886,7.058 5.311,6.271 5.311,5.357 C5.311,4.47 5.855,3.707 6.634,3.382 z M4.768,12.857 C4.468,12.857 4.225,13.097 4.225,13.393 C4.225,13.689 4.468,13.929 4.768,13.929 C5.068,13.929 5.311,13.689 5.311,13.393 C5.311,13.097 5.068,12.857 4.768,12.857 z M10.198,12.857 C9.898,12.857 9.655,13.097 9.655,13.393 C9.655,13.689 9.898,13.929 10.198,13.929 C10.498,13.929 10.742,13.689 10.742,13.393 C10.742,13.097 10.498,12.857 10.198,12.857 z" fill="#000000" id="bcsikhism"/>
</svg><view id="temaki-silo" viewBox="435 0 15 15"/><svg version="1.1" x="435" width="15" height="15" viewBox="0, 0, 15, 15" id="temaki-silo-" xmlns="http://www.w3.org/2000/svg">
    <path d="M5,3.5 C5,4 10,4 10,3.5 C10,3 10,13.625 10,14.125 C10,15.125 5,15.125 5,14.125 C5,13.625 5,3 5,3.5 z M5,2.625 C5,3.125 10,3.125 10,2.625 C10,-0.875 5,-0.875 5,2.625 z" fill="#000000" id="bdsilo"/>
</svg><view id="temaki-social_facility" viewBox="450 0 15 15"/><svg version="1.1" x="450" width="15" height="15" viewBox="0, 0, 15, 15" id="temaki-social_facility-" xmlns="http://www.w3.org/2000/svg">
    <path d="M0,8.5 C0,8.5 2,9 2,9 C2,9 4.5,10 4.5,10 C4.5,10 5.5,9.5 6,9.5 L8,9.5 L11,9 C11,9 11.5,9.5 11,10 C10.646,10.354 8.5,11 8,11 C7.5,11 8.5,11.5 8.5,11.5 L10,11.5 C10,11.5 12,11.5 13,11 C14,10.5 15,10 15,10.5 C15,10.594 14.674,10.822 14.5,11 C13.754,11.764 12,13 12,13 C12,13 10,13.5 8,13.5 C7.5,13.5 6,12.5 5.5,12.5 C5,12.5 0,13 0,12.5 L0,8.5 z M12.514,0.507 C14.183,1.221 14.513,1.895 13.853,3.539 C13.013,4.945 11.999,6.239 10.835,7.391 C10.701,7.531 10.478,7.537 10.337,7.403 C10.333,7.399 10.329,7.395 10.325,7.391 C9.158,6.24 8.141,4.946 7.3,3.539 C5.992,0.924 9.312,-0.822 10.576,1.793 C11.078,0.791 11.47,0.757 12.514,0.507 z" fill="#000000" id="besocial_facility"/>
</svg><view id="temaki-stop" viewBox="465 0 15 15"/><svg version="1.1" x="465" width="15" height="15" viewBox="0, 0, 15, 15" id="temaki-stop-" xmlns="http://www.w3.org/2000/svg">
    <path d="M1,5 C1,5 5,1 5,1 C5,1 10,1 10,1 C10,1 14,5 14,5 C14,5 14,10 14,10 C14,10 10,14 10,14 C10,14 5,14 5,14 C5,14 1,10 1,10 C1,10 1,5 1,5 z" fill="#000000" id="bfstop"/>
</svg><view id="temaki-storage_tank" viewBox="480 0 15 15"/><svg version="1.1" x="480" width="15" height="15" viewBox="0, 0, 15, 15" id="temaki-storage_tank-" xmlns="http://www.w3.org/2000/svg">
    <path d="M3,3.5 C3,5.5 12,5.5 12,3.5 C12,1.5 12,11.5 12,12.5 C12,14.5 3,14.5 3,12.5 C3,11.5 3,1.5 3,3.5 z M3.25,2.5 C3.25,4.5 11.75,4.5 11.75,2.5 C11.75,0.5 3.25,0.5 3.25,2.5 z" fill="#000000" id="bgstorage_tank"/>
</svg><view id="temaki-subway" viewBox="495 0 15 15"/><svg version="1.1" x="495" width="15" height="15" viewBox="0, 0, 15, 15" id="temaki-subway-" xmlns="http://www.w3.org/2000/svg">
    <path d="M4.389,12.212 L5.724,12.212 L5.391,12.808 L9.395,12.808 L9.061,12.212 L10.396,12.212 L11.397,14 L10.062,14 L9.729,13.404 L5.057,13.404 L4.723,14 L3.388,14 L4.389,12.212 z M9.795,9.514 L8.995,10.28 L8.995,10.663 L10.596,10.663 L10.997,10.28 L10.997,9.514 L9.795,9.514 z M3.789,9.514 L3.789,10.28 L4.189,10.663 L5.791,10.663 L5.791,10.28 L4.99,9.514 L3.789,9.514 z M4.189,5.3 L3.789,5.683 L3.789,7.216 L4.99,7.982 L9.795,7.982 L10.997,7.216 L10.997,5.683 L10.596,5.3 L9.795,5.3 L4.99,5.3 L4.189,5.3 z M5.791,3.768 L5.791,4.534 L8.995,4.534 L8.995,3.768 L5.791,3.768 z M5.391,3.002 L9.395,3.002 L11.798,5.3 L11.798,11.046 L10.997,11.812 L3.789,11.812 L2.988,11.046 L2.988,5.3 L5.391,3.002 z M6.992,1 L7.793,1 L10.196,1 C12.171,1.329 13.8,2.201 13.8,4.604 L13.8,12.613 L12.599,12.212 L12.599,4.604 C12.599,3.002 11.397,2.201 10.196,2.201 L7.793,2.201 L6.992,2.201 L4.59,2.201 C3.388,2.201 2.187,3.002 2.187,4.604 L2.187,12.212 L0.986,12.613 L0.986,4.604 C0.986,2.201 2.587,1 4.59,1 z" fill="#000000" id="bhsubway"/>
</svg><view id="temaki-taoism" viewBox="510 0 15 15"/><svg version="1.1" x="510" width="15" height="15" viewBox="0, 0, 15, 15" id="temaki-taoism-" xmlns="http://www.w3.org/2000/svg">
    <path d="M7.5,15 C11.634,15 15,11.605 15,7.5 C15,3.395 11.654,0 7.5,0 C3.346,0 0,3.364 0,7.5 C0,11.636 3.366,15 7.5,15 z M7.5,13.929 C3.943,13.929 1.071,11.057 1.071,7.5 C1.071,3.943 3.943,1.071 7.5,1.071 C10.714,1.071 11.786,6.942 7.5,7.5 C3.214,8.058 4.377,13.929 7.5,13.929 z M7.5,11.786 C6.908,11.786 6.429,11.306 6.429,10.714 C6.429,10.123 6.908,9.643 7.5,9.643 C8.092,9.643 8.571,10.123 8.571,10.714 C8.571,11.306 8.092,11.786 7.5,11.786 z M7.5,5.357 C8.092,5.357 8.571,4.877 8.571,4.286 C8.571,3.694 8.092,3.214 7.5,3.214 C6.908,3.214 6.429,3.694 6.429,4.286 C6.429,4.877 6.908,5.357 7.5,5.357 z" fill="#000000" id="bitaoism"/>
</svg><view id="temaki-tools" viewBox="525 0 15 15"/><svg version="1.1" x="525" width="15" height="15" viewBox="0, 0, 15, 15" id="temaki-tools-" xmlns="http://www.w3.org/2000/svg">
    <path d="M5.547,1.671 C5.801,1.986 5.989,2.328 6.109,2.697 C6.23,3.066 6.267,3.811 6.267,3.811 C6.267,3.811 6.173,4.548 6.027,4.9 C5.877,5.251 5.662,5.57 5.377,5.854 C5.191,6.04 4.5,6.5 4,6.5 C4,6.5 4,12 4,13.5 C4,15 2,15 2,13.5 C2,12.5 2,6.5 2,6.5 C1.5,6.5 1.11,5.999 0.932,5.827 C0.629,5.525 0.399,5.178 0.241,4.787 C0.083,4.395 0.002,4.002 0,3.604 C-0.002,3.207 0.071,2.817 0.221,2.432 C0.369,2.049 0.593,1.707 0.893,1.406 C1.181,1.119 1.513,0.897 1.893,0.74 C2.274,0.585 2.667,0.504 3.073,0.5 L1.796,3.282 L2.696,4.577 L4.25,4.443 z M15,0.5 L13.5,0.5 C13.5,1 13,1.5 12.5,1.5 C12,1.5 11.077,1.5 10,1.5 C8.5,1.5 7,3.553 7,5 C8,4.053 8.385,4 10,4 L10,13.5 C10,15 12,15 12,13.5 C12,12 12,4 12,4 L12.5,4 C13,4 13.5,4.5 13.5,5 L15,5 C15,5 15,0.5 15,0.5 z" fill="#000000" id="bjtools"/>
</svg><view id="temaki-tower" viewBox="540 0 15 15"/><svg version="1.1" x="540" width="15" height="15" viewBox="0, 0, 15, 15" id="temaki-tower-" xmlns="http://www.w3.org/2000/svg">
    <path d="M6,5.5 L9,5.5 C9,5.5 9,13.5 9,14 C9,15 6,15 6,14 C6,13.5 6,5.5 6,5.5 z M10.5,2 L10,4 L8,4 L8,2 L10.5,2 z M7,2 L7,4 L5,4 L4.5,2 L7,2 z M9.5,0 L5.5,0 L5,1 L3,1 L4,5 L11,5 L12,1 L10,1 L9.5,0 z" fill="#000000" id="bktower"/>
</svg><view id="temaki-traffic_signals" viewBox="555 0 15 15"/><svg version="1.1" x="555" width="15" height="15" viewBox="0, 0, 15, 15" id="temaki-traffic_signals-" xmlns="http://www.w3.org/2000/svg">
    <path d="M9.214,0 C10.477,0 11.5,1.033 11.5,2.308 L11.5,12.692 C11.5,13.967 10.477,15 9.214,15 L5.786,15 C4.523,15 3.5,13.967 3.5,12.692 L3.5,2.308 C3.5,1.033 4.523,0 5.786,0 L9.214,0 z M7.5,10.5 C6.672,10.5 6,11.172 6,12 C6,12.829 6.672,13.5 7.5,13.5 C8.329,13.5 9,12.829 9,12 C9,11.172 8.329,10.5 7.5,10.5 z M7.5,6 C6.672,6 6,6.672 6,7.5 C6,8.329 6.672,9 7.5,9 C8.329,9 9,8.329 9,7.5 C9,6.672 8.329,6 7.5,6 z M7.5,1.5 C6.672,1.5 6,2.172 6,3 C6,3.829 6.672,4.5 7.5,4.5 C8.329,4.5 9,3.829 9,3 C9,2.172 8.329,1.5 7.5,1.5 z" fill="#000000" id="bltraffic_signals"/>
</svg><view id="temaki-tram" viewBox="570 0 15 15"/><svg version="1.1" x="570" width="15" height="15" viewBox="0, 0, 15, 15" id="temaki-tram-" xmlns="http://www.w3.org/2000/svg">
    <path d="M9.561,13.065 L10.288,15 L11.5,15 L10.773,13.065 z M4.212,13.065 L3.5,15 L4.712,15 L5.424,13.065 z M9.345,9.677 L8.483,10.645 L8.483,11.129 L10.207,11.129 L10.638,10.645 L10.638,9.677 L9.345,9.677 z M4.604,9.677 L4.604,10.645 L5.035,11.129 L6.759,11.129 L6.759,10.645 L5.897,9.677 L4.604,9.677 z M5.035,4.839 L4.604,5.323 L4.604,7.258 L5.897,7.258 L9.345,7.258 L10.638,7.258 L10.638,5.323 L10.207,4.839 L9.345,4.839 L5.897,4.839 L5.035,4.839 z M5.897,2.419 L5.897,3.387 L9.345,3.387 L9.345,2.419 L5.897,2.419 z M5.897,1.935 L9.345,1.935 L11.5,4.839 L11.5,11.613 L10.638,12.581 L4.604,12.581 L3.742,11.613 L3.742,4.839 L5.897,1.935 z M10.045,0 L10.045,0.484 L8.106,0.484 L8.106,1.452 L7.136,1.452 L7.136,0.484 L5.197,0.484 L5.197,0 z" fill="#000000" id="bmtram"/>
</svg><view id="temaki-trolleybus" viewBox="585 0 15 15"/><svg version="1.1" x="585" width="15" height="15" viewBox="0, 0, 15, 15" id="temaki-trolleybus-" xmlns="http://www.w3.org/2000/svg">
    <path d="M4.538,2 C3.385,2 2,2.595 2,4.197 L2,8.559 L2,11.6 C2,11.6 2,12.4 2.846,12.4 L2.846,13.2 C2.846,13.2 2.846,14 3.692,14 C4.538,14 4.538,13.2 4.538,13.2 L4.538,12.4 L10.462,12.4 L10.462,13.2 C10.462,13.2 10.462,14 11.308,14 C12.154,14 12.154,13.2 12.154,13.2 L12.154,12.4 C12.154,12.4 13,12.4 13,11.6 L13,4.197 C13,2.56 11.954,2 10.8,2 L4.538,2 z M4.75,3.2 L10.25,3.2 C10.367,3.2 10.462,3.289 10.462,3.4 C10.462,3.511 10.367,3.6 10.25,3.6 L4.75,3.6 C4.633,3.6 4.538,3.511 4.538,3.4 C4.538,3.289 4.633,3.2 4.75,3.2 z M3.692,4.4 L11.308,4.4 C12.154,4.4 12.154,5.173 12.154,5.173 L12.154,7.6 C12.154,7.6 12.154,8.4 11.308,8.4 L3.692,8.4 C2.846,8.4 2.846,7.6 2.846,7.6 L2.846,5.2 C2.846,5.2 2.846,4.4 3.692,4.4 z M3.692,10 C4.16,10 4.538,10.358 4.538,10.8 C4.538,11.242 4.16,11.6 3.692,11.6 C3.225,11.6 2.846,11.242 2.846,10.8 C2.846,10.358 3.225,10 3.692,10 z M11.308,10 C11.775,10 12.154,10.358 12.154,10.8 C12.154,11.242 11.775,11.6 11.308,11.6 C10.84,11.6 10.462,11.242 10.462,10.8 C10.462,10.358 10.84,10 11.308,10 z M10,0 L10,0.5 L8,0.5 L8,1.5 L7,1.5 L7,0.5 L5,0.5 L5,0 z" fill="#000000" id="bntrolleybus"/>
</svg><view id="temaki-vending_machine" viewBox="600 0 15 15"/><svg version="1.1" x="600" width="15" height="15" viewBox="0, 0, 15, 15" id="temaki-vending_machine-" xmlns="http://www.w3.org/2000/svg">
    <path d="M12,0 C12.552,0 13,0.448 13,1 L13,14 C13,14.552 12.552,15 12,15 L3,15 C2.448,15 2,14.552 2,14 L2,1 C2,0.448 2.448,0 3,0 L12,0 z M9,11 L6,11 L6,12.5 L9,12.5 L9,11 z M9,6 L8,6 L8,7 L9,7 L9,6 z M5,6 L4,6 L4,7 L5,7 L5,6 z M7,6 L6,6 L6,7 L7,7 L7,6 z M11,6 L10,6 L10,7 L11,7 L11,6 z M11,4 L10,4 L10,5 L11,5 L11,4 z M7,4 L6,4 L6,5 L7,5 L7,4 z M5,4 L4,4 L4,5 L5,5 L5,4 z M9,4 L8,4 L8,5 L9,5 L9,4 z M9,2 L8,2 L8,3 L9,3 L9,2 z M5,2 L4,2 L4,3 L5,3 L5,2 z M7,2 L6,2 L6,3 L7,3 L7,2 z M11,2 L10,2 L10,3 L11,3 L11,2 z" fill="#000000" id="bovending_machine"/>
</svg><view id="temaki-vertex" viewBox="615 0 15 15"/><svg version="1.1" x="615" width="15" height="15" viewBox="0, 0, 15, 15" id="temaki-vertex-" xmlns="http://www.w3.org/2000/svg">
    <path d="M7.5,4.5 C9.157,4.5 10.5,5.843 10.5,7.5 C10.5,9.157 9.157,10.5 7.5,10.5 C5.843,10.5 4.5,9.157 4.5,7.5 C4.5,5.843 5.843,4.5 7.5,4.5 z" fill="#000000" id="bpvertex"/>
</svg><view id="temaki-wind_turbine" viewBox="630 0 15 15"/><svg version="1.1" x="630" width="15" height="15" viewBox="0, 0, 15, 15" id="temaki-wind_turbine-" xmlns="http://www.w3.org/2000/svg">
    <path d="M8,6.25 L8,14.5 C8,14.845 7.845,15 7.5,15 C7.155,15 7,14.845 7,14.5 L7,8 L8,6.25 z M3.5,0.5 C3.68,0.771 6.75,4.5 6.75,4.5 L5,8.75 C4.841,9.142 5,9.981 5.25,9.75 C5.664,9.368 8,5 8,5 L12,3.8 C12.524,3.655 12.882,3 12.5,3 C11.946,3 7.854,3.456 7.854,3.456 L4.5,0.5 C4.123,0.154 3.303,0.202 3.5,0.5 z" fill="#000000" id="bqwind_turbine"/>
</svg><view id="temaki-windmill" viewBox="645 0 15 15"/><svg version="1.1" x="645" width="15" height="15" viewBox="0, 0, 15, 15" id="temaki-windmill-" xmlns="http://www.w3.org/2000/svg">
    <path d="M4.833,0 L3.833,1 L6.5,3.667 L7.167,2.333 L4.833,0 z M3.667,1.167 L3.167,1.667 L6,4.5 L6.5,4 L3.667,1.167 z M11.667,1.167 L8.833,4 L9.333,4.5 L12.167,1.667 L11.667,1.167 z M12.333,1.833 L9.667,4.5 L11,5.167 L13.333,2.833 L12.333,1.833 z M7.667,3.167 L4.552,6.281 L4.333,6.167 L2,8.5 L3,9.5 L4.271,8.229 L4.229,8.604 L3.167,9.667 L3.667,10.167 L4.094,9.74 L3.667,13.333 C2,13.667 1,15 1,15 L14.333,15 C14.333,15 13.333,13.667 11.667,13.333 L11.333,10.5 L11.5,10.333 L11.292,10.156 L11.24,9.74 L11.667,10.167 L12.167,9.667 L11.104,8.604 L10.833,6.333 L7.667,3.167 z M7.167,7 L8.167,7 L8.5,9 L6.833,9 L7.167,7 z" fill="#000000" id="brwindmill"/>
</svg><view id="temaki-window" viewBox="660 0 15 15"/><svg version="1.1" x="660" width="15" height="15" viewBox="0, 0, 15, 15" id="temaki-window-" xmlns="http://www.w3.org/2000/svg">
    <path d="M12.5,13.5 L12.5,14.5 L2.5,14.5 L2.5,13.5 L12.5,13.5 z M11,2 L11,6 L8,6 L8,2 L11,2 z M7,2 L7,6 L4,6 L4,2 L7,2 z M7,7 L7,11.5 L4,11.5 L4,7 L7,7 z M11,7 L11,11.5 L8,11.5 L8,7 L11,7 z M2.5,0.5 L2.5,13 L12.5,13 L12.5,0.5 L2.5,0.5 z" fill="#000000" id="bswindow"/>
</svg><view id="temaki-yield" viewBox="675 0 15 15"/><svg version="1.1" x="675" width="15" height="15" viewBox="0, 0, 15, 15" id="temaki-yield-" xmlns="http://www.w3.org/2000/svg">
    <path d="M14.5,1.5 L7.5,14 L0.5,1.5 L14.5,1.5 z M12.027,3 L2.973,3 L7.5,11.085 L12.027,3 z" fill="#000000" id="btyield"/>
</svg></svg>